<svg height="804" width="1132" xmlns="http://www.w3.org/2000/svg" xmlns:xlink="http://www.w3.org/1999/xlink" xmlns:ev="http://www.w3.org/2001/xml-events" viewBox="0 0 1132 804"><style type="text/css"><![CDATA[
.st3 {fill:#000000;font-family:Arial;font-size:10pt;font-weight:bold}
.st1 {fill:#69ae41;font-family:Arial;font-size:28pt;font-weight:bold}
.st2 {font-family:Arial;font-size:11pt;font-weight:bold}
]]></style><defs/><g transform="translate(5,5)" id="page1"><rect height="794" width="1123" x="0" y="0" fill="#f9f8f4" stroke="#808080"/><path/><g transform="translate(64.1,19.31)" id="shape1"><text class="st1"><tspan x="57" y="29.8">GNU AutoTools</tspan></text></g><g transform="translate(199.73,208.29)" id="shape2"><path d="M116.8,0L116.8,59.7L0,59.7L0,0L116.8,0z" stroke-width="0.666667" fill="#69ae41" stroke="#69ae41"/><text class="st2"><tspan x="6.4" y="33.9">configure.scan</tspan></text></g><g transform="translate(257.08,147)" id="shape3"><path stroke-dasharray="2.5,2.5" d="M0,0L.4,38.7" stroke-linecap="round" stroke-width="2.66667" fill="none" stroke="#888889"/><path d="M.6,61.3L7.1,49.9L-6,50L.6,61.3M.5,50L6.9,38.6L-6.1,38.7L.5,50" stroke-linecap="round" stroke-width="1" fill="#888889" stroke="#888889"/><rect height="16" width="58.3" x="-28.2" y="12" fill="#ffffff"/><text class="st3"><tspan x="-28.3" y="24">autoscan</tspan></text></g><g transform="translate(175.21,89.08)" id="shape4"><path d="M5.6,0L160.2,0C163.3,0,165.8,3.3,165.8,7.3L165.8,50.6C165.8,54.7,163.3,57.9,160.2,57.9L5.6,57.9C2.5,57.9,0,54.7,0,50.6L0,7.3C0,3.3,2.5,0,5.6,0z" stroke-width="4" fill="#f1f0eb" stroke="#555555"/><text class="st3"><tspan x="55.4" y="34">程序源码</tspan></text></g><g transform="translate(199.73,329.29)" id="shape5"><path d="M116.8,0L116.8,59.7L0,59.7L0,0L116.8,0z" stroke-width="0.666667" fill="#69ae41" stroke="#69ae41"/><text class="st2"><tspan x="14.4" y="33.9">configure.ac</tspan></text></g><g transform="translate(257.73,267.84)" id="shape6"><path stroke-dasharray="2.5,2.5" d="M0,0L-0,38.8" stroke-linecap="round" stroke-width="2.66667" fill="none" stroke="#888889"/><path d="M-0,61.4L6.5,50.1L-6.5,50.1L-0,61.4M-0,50.1L6.5,38.8L-6.5,38.8L-0,50.1" stroke-linecap="round" stroke-width="1" fill="#888889" stroke="#888889"/><rect height="16" width="92" x="-46.6" y="13.2" fill="#ffffff"/><text class="st3"><tspan x="-46.7" y="25.2">rename &amp; edit</tspan></text></g><g transform="translate(316.73,359.31)" id="shape7"><path stroke-dasharray="2.5,2.5" d="M0,0L51.6,58.8" stroke-linecap="round" stroke-width="2.66667" fill="none" stroke="#888889"/><path d="M66.5,75.9L63.9,63L54.1,71.7L66.5,75.9M59,67.3L56.5,54.5L46.7,63.1L59,67.3" stroke-linecap="round" stroke-width="1" fill="#888889" stroke="#888889"/><rect height="16" width="47" x="1.6" y="21.8" fill="#ffffff"/><text class="st3"><tspan x="1.5" y="33.8">aclocal</tspan></text></g><g transform="translate(383.21,405.15)" id="shape8"><path d="M116.8,0L116.8,59.7L0,59.7L0,0L116.8,0z" stroke-width="0.666667" fill="#69ae41" stroke="#69ae41"/><text class="st2"><tspan x="22.4" y="33.9">aclocal.m4</tspan></text></g><g transform="translate(16.25,329.29)" id="shape9"><path d="M116.8,0L116.8,59.7L0,59.7L0,0L116.8,0z" stroke-width="0.666667" fill="#69ae41" stroke="#69ae41"/><text class="st2"><tspan x="17.4" y="33.9">makefile.am</tspan></text></g><g transform="translate(74.25,388.84)" id="shape10"><path stroke-dasharray="2.5,2.5" d="M0,0L74.8,107.6" stroke-linecap="round" stroke-width="2.66667" fill="none" stroke="#888889"/><path d="M87.8,126.2L86.7,113.1L75.9,120.6L87.8,126.2M81.3,116.9L80.2,103.9L69.5,111.3L81.3,116.9" stroke-linecap="round" stroke-width="1" fill="#888889" stroke="#888889"/><rect height="16" width="64.4" x="55.4" y="62.2" fill="#ffffff"/><text class="st3"><tspan x="55.3" y="74.2">automake</tspan></text></g><g transform="translate(104,515)" id="shape11"><path d="M116.8,0L116.8,59.7L0,59.7L0,0L116.8,0z" stroke-width="0.666667" fill="#69ae41" stroke="#69ae41"/><text class="st2"><tspan x="20.4" y="33.9">makefile.in</tspan></text></g><g transform="translate(257.73,388.84)" id="shape12"><path stroke-dasharray="2.5,2.5" d="M0,0L-82.1,108.1" stroke-linecap="round" stroke-width="2.66667" fill="none" stroke="#888889"/><path d="M-95.7,126.2L-83.7,121.1L-94.1,113.2L-95.7,126.2M-88.9,117.1L-76.8,112.1L-87.3,104.2L-88.9,117.1" stroke-linecap="round" stroke-width="1" fill="#888889" stroke="#888889"/></g><g transform="translate(302,515)" id="shape13"><path d="M116.8,0L116.8,59.7L0,59.7L0,0L116.8,0z" stroke-width="0.666667" fill="#69ae41" stroke="#69ae41"/><text class="st2"><tspan x="24.4" y="33.9">configure</tspan></text></g><g transform="translate(257.73,388.84)" id="shape14"><path stroke-dasharray="2.5,2.5" d="M0,0L88,108.6" stroke-linecap="round" stroke-width="2.66667" fill="none" stroke="#888889"/><path d="M102.3,126.2L100.2,113.3L90.1,121.5L102.3,126.2M95.1,117.4L93.1,104.5L82.9,112.7L95.1,117.4" stroke-linecap="round" stroke-width="1" fill="#888889" stroke="#888889"/><rect height="16" width="56.2" x="74.4" y="62.2" fill="#ffffff"/><text class="st3"><tspan x="74.3" y="74.2">autoconf</tspan></text></g><g transform="translate(441.86,465.3)" id="shape15"><path stroke-dasharray="2.5,2.5" d="M0,0L-62.5,38" stroke-linecap="round" stroke-width="2.66667" fill="none" stroke="#888889"/><path d="M-81.9,49.7L-68.8,49.4L-75.6,38.2L-81.9,49.7M-72.2,43.8L-59.1,43.5L-65.9,32.4L-72.2,43.8" stroke-linecap="round" stroke-width="1" fill="#888889" stroke="#888889"/></g><g transform="translate(162.66,575.16)" id="shape16"><path stroke-dasharray="2.5,2.5" d="M0,0L79.7,82.4" stroke-linecap="round" stroke-width="2.66667" fill="none" stroke="#888889"/><path d="M95.4,98.7L92.3,86L82.9,95.1L95.4,98.7M87.6,90.5L84.4,77.9L75,86.9L87.6,90.5" stroke-linecap="round" stroke-width="1" fill="#888889" stroke="#888889"/></g><g transform="translate(360.66,575.16)" id="shape17"><path stroke-dasharray="2.5,2.5" d="M0,0L-86.2,83" stroke-linecap="round" stroke-width="2.66667" fill="none" stroke="#888889"/><path d="M-102.6,98.7L-89.9,95.5L-98.9,86.1L-102.6,98.7M-94.4,90.8L-81.7,87.7L-90.8,78.3L-94.4,90.8" stroke-linecap="round" stroke-width="1" fill="#888889" stroke="#888889"/></g><g transform="translate(175.21,673.83)" id="shape18"><path d="M5.6,0L160.2,0C163.3,0,165.8,3.3,165.8,7.3L165.8,50.6C165.8,54.7,163.3,57.9,160.2,57.9L5.6,57.9C2.5,57.9,0,54.7,0,50.6L0,7.3C0,3.3,2.5,0,5.6,0z" stroke-width="4" fill="#f1f0eb" stroke="#555555"/><text class="st3"><tspan x="55.4" y="33">makefile</tspan></text></g><g transform="translate(586,405.15)" id="shape19"><path d="M116.8,0L116.8,59.7L0,59.7L0,0L116.8,0z" stroke-width="0.666667" fill="#69ae41" stroke="#69ae41"/><text class="st2"><tspan x="21.4" y="33.9">config.h.in</tspan></text></g><g transform="translate(316.73,359.31)" id="shape20"><path stroke-dasharray="2.5,2.5" d="M0,0L304.9,42.7" stroke-linecap="round" stroke-width="2.66667" fill="none" stroke="#888889"/><path d="M327.3,45.8L317,37.8L315.2,50.7L327.3,45.8M316.1,44.3L305.8,36.2L304,49.2L316.1,44.3" stroke-linecap="round" stroke-width="1" fill="#888889" stroke="#888889"/><rect height="16" width="74.6" x="86.9" y="1.7" fill="#ffffff"/><text class="st3"><tspan x="86.8" y="13.7">autoheader</tspan></text></g><g transform="translate(472.36,673.89)" id="shape21"><path d="M5.6,0L160.2,0C163.3,0,165.8,3.3,165.8,7.3L165.8,50.6C165.8,54.7,163.3,57.9,160.2,57.9L5.6,57.9C2.5,57.9,0,54.7,0,50.6L0,7.3C0,3.3,2.5,0,5.6,0z" stroke-width="4" fill="#f1f0eb" stroke="#555555"/><text class="st3"><tspan x="57.4" y="33">config.h</tspan></text></g><g transform="translate(360,574.55)" id="shape22"><path stroke-dasharray="2.5,2.5" d="M0,0L167.9,86.1" stroke-linecap="round" stroke-width="2.66667" fill="none" stroke="#888889"/><path d="M188,96.4L180.9,85.5L175,97.1L188,96.4M177.9,91.3L170.8,80.3L164.9,91.9L177.9,91.3" stroke-linecap="round" stroke-width="1" fill="#888889" stroke="#888889"/><rect height="16" width="61.3" x="-19.9" y="41.4" fill="#ffffff"/><text class="st3"><tspan x="-20" y="53.4">configure</tspan></text></g><g transform="translate(644.66,465.3)" id="shape23"><path stroke-dasharray="2.5,2.5" d="M0,0L-87,185.2" stroke-linecap="round" stroke-width="2.66667" fill="none" stroke="#888889"/><path d="M-96.7,205.7L-85.9,198.2L-97.8,192.7L-96.7,205.7M-91.8,195.5L-81.1,188L-92.9,182.4L-91.8,195.5" stroke-linecap="round" stroke-width="1" fill="#888889" stroke="#888889"/></g></g></svg>