<svg xmlns:xlink="http://www.w3.org/1999/xlink" xmlns:ev="http://www.w3.org/2001/xml-events" xmlns="http://www.w3.org/2000/svg" width="345" viewBox="0 0 345 330" height="330"><defs/><g id="page1" transform="translate(5.5,5.5)"><rect x="0" width="335" y="0" fill="#ffffff" height="320"/><path d="M.0,.0L206.4,.0L206.4,113.5L.0,113.5L.0,.0z" id="shape1" fill-rule="evenodd" fill="#ffffff" transform="translate(2.84,26.05)"/><path d="M.0,.0L206.4,.0L206.4,115.1L.0,115.1L.0,.0z" stroke-width="1" id="shape2" fill="none" transform="translate(2.84,26.05)" stroke="#000000"/><path d="M.0,.0L206.4,.0L206.4,57.3L.0,57.3L.0,.0z" id="shape3" fill-rule="evenodd" fill="#ffffff" transform="translate(2.84,141.18)"/><path d="M.0,.0L206.4,.0L206.4,57.3L.0,57.3L.0,.0z" stroke-width="1" id="shape4" fill="none" transform="translate(2.84,141.18)" stroke="#000000"/><g id="shape5" transform="translate(100.79,167.20)"><text style="fill:#000000;font-family:Arial;font-size:9.75pt" xml:space="preserve"><tspan x="-0.4" y="8.9">ZI</tspan></text></g><path d="M.0,.0L206.4,.0L206.4,57.6L.0,57.6L.0,.0z" id="shape6" fill-rule="evenodd" fill="#ffffff" transform="translate(2.84,198.50)"/><path d="M.0,.0L206.4,.0L206.4,57.6L.0,57.6L.0,.0z" stroke-width="1" id="shape7" fill="none" transform="translate(2.84,198.50)" stroke="#000000"/><g id="shape8" transform="translate(95.69,224.68)"><text style="fill:#000000;font-family:Arial;font-size:9.75pt" xml:space="preserve"><tspan x="-0.3" y="8.9">RW</tspan></text></g><path d="M.0,.0L206.4,.0L206.4,57.5L.0,57.5L.0,.0z" id="shape9" fill-rule="evenodd" fill="#ffffff" transform="translate(2.84,256.71)"/><path d="M.0,.0L206.4,.0L206.4,57.5L.0,57.5L.0,.0z" stroke-width="1" id="shape10" fill="none" transform="translate(2.84,256.06)" stroke="#000000"/><g id="shape11" transform="translate(97.00,282.33)"><text style="fill:#000000;font-family:Arial;font-size:9.75pt" xml:space="preserve"><tspan x="-0.0" y="8.9">RO</tspan></text></g><g id="shape12" transform="translate(11.73,36.81)"><text style="fill:#000000;font-family:Arial;font-size:9.75pt" xml:space="preserve"><tspan x="-0.4" y="8.8">STACK</tspan></text></g><g id="shape13" transform="translate(12.17,123.75)"><text style="fill:#000000;font-family:Arial;font-size:9.75pt" xml:space="preserve"><tspan x="-0.2" y="8.8">HEAP</tspan></text></g><path d="M27.5,45.1L55.1,27.4L37.0,27.4L37.0,.0L18.2,.0L18.2,27.4L.0,27.4L27.5,45.1z" id="shape14" fill-rule="evenodd" fill="#ffffff" transform="translate(73.39,26.05)"/><path d="M27.5,44.5L55.1,27.1L37.0,27.1L37.0,.0L18.2,.0L18.2,27.1L.0,27.1L27.5,44.5z" stroke-width="1" id="shape15" fill="none" transform="translate(73.39,26.05)" stroke="#000000"/><path d="M27.5,.0L55.1,17.7L37.0,17.7L37.0,45.1L18.2,45.1L18.2,17.7L.0,17.7L27.5,.0z" id="shape16" fill-rule="evenodd" fill="#ffffff" transform="translate(73.39,96.04)"/><path d="M.0,.0L17.3,.0" stroke-width="1" id="shape17" fill="none" transform="translate(209.24,26.05)" stroke="#000000"/><path d="M.0,.0L17.3,.0" stroke-width="1" id="shape18" fill="none" transform="translate(209.24,141.18)" stroke="#000000"/><path d="M.0,.0L17.3,.0" stroke-width="1" id="shape19" fill="none" transform="translate(209.24,313.63)" stroke="#000000"/><g id="shape20" transform="translate(231.11,10.20)"><text style="fill:#000000;font-family:Arial;font-size:8.25pt" xml:space="preserve"><tspan x="-0.1" y="7.2">From</tspan></text></g><g id="shape21" transform="translate(231.11,23.19)"><text style="fill:#000000;font-family:Arial;font-size:8.25pt" xml:space="preserve"><tspan x="-0.1" y="7.2">Semihosting</tspan></text></g><g id="shape22" transform="translate(231.40,132.96)"><text style="fill:#000000;font-family:Arial;font-size:8.25pt" xml:space="preserve"><tspan x="-0.4" y="7.2">Calculated</tspan></text></g><g id="shape23" transform="translate(231.40,145.95)"><text style="fill:#000000;font-family:Arial;font-size:8.25pt" xml:space="preserve"><tspan x="-0.3" y="7.2">by the linker</tspan></text></g><g id="shape24" transform="translate(231.11,35.79)"><text style="fill:#000000;font-family:Arial;font-size:8.25pt" xml:space="preserve"><tspan x="-0.1" y="7.2">call</tspan></text></g><path d="M27.5,.0L55.1,17.7L37.0,17.7L37.0,45.1L18.2,45.1L18.2,17.7L.0,17.7L27.5,.0z" stroke-width="1" id="shape25" fill="none" transform="translate(73.39,96.04)" stroke="#000000"/><g id="shape26" transform="translate(215.67,297.67)"><text style="fill:#000000;font-family:Arial;font-size:9.00pt" xml:space="preserve"><tspan x="23.5" y="13.9">0x8000</tspan></text></g></g></svg>