<svg xmlns="http://www.w3.org/2000/svg" id="Layer_1" width="1140" height="525" viewBox="0 0 1140 525"><rect x="105" y="45.5" width="449.5" height="164.5" fill="none" stroke="#95d600" stroke-miterlimit="10"/><rect x="105" y="240" width="450" height="254.5" fill="none" stroke="#00c1de" stroke-miterlimit="10"/><path d="m316.44,64.9l-3.71,9.14h-1.58l-3.71-9.14h1.45c.14,0,.25.03.34.1.09.07.15.15.18.25l2.19,5.62c.08.23.15.47.2.7.06.23.11.46.16.69.05-.23.1-.46.16-.68.06-.23.13-.46.22-.7l2.21-5.62c.04-.1.1-.19.19-.25.09-.07.2-.1.32-.1h1.38Z" fill="#333e48" stroke-width="0"/><path d="m327.19,71.28c.11,0,.2.04.28.13l.76.83c-.53.62-1.17,1.11-1.93,1.45-.76.34-1.67.51-2.74.51-.94,0-1.78-.16-2.54-.49-.76-.32-1.41-.78-1.94-1.36-.54-.58-.95-1.28-1.25-2.09-.29-.81-.44-1.7-.44-2.67s.15-1.86.46-2.67.74-1.51,1.3-2.09c.56-.58,1.23-1.04,2-1.36.78-.32,1.64-.49,2.58-.49s1.73.15,2.45.45c.71.3,1.33.7,1.86,1.2l-.63.89c-.04.07-.09.12-.16.16-.06.04-.15.06-.25.06-.11,0-.25-.06-.4-.17-.15-.11-.35-.24-.6-.38-.25-.14-.56-.27-.92-.38-.37-.11-.82-.17-1.37-.17-.64,0-1.23.11-1.76.34-.53.22-.99.55-1.38.97-.39.42-.69.94-.9,1.56s-.32,1.31-.32,2.08.11,1.49.33,2.1c.22.61.53,1.13.92,1.56s.85.75,1.38.97c.53.22,1.1.33,1.71.33.37,0,.71-.02,1-.07.3-.04.57-.11.82-.2s.48-.21.71-.35c.22-.14.44-.31.66-.51.05-.04.1-.08.15-.1.05-.03.11-.04.17-.04Z" fill="#333e48" stroke-width="0"/><path d="m334.08,61.12c.83,0,1.55.1,2.16.29s1.12.46,1.52.81.7.78.9,1.27.29,1.05.29,1.66-.1,1.16-.31,1.67c-.21.51-.52.94-.93,1.31-.41.37-.92.65-1.53.85s-1.31.3-2.1.3h-2v4.76h-1.92v-12.92h3.92Zm0,6.65c.49,0,.91-.06,1.28-.19s.68-.3.93-.54c.25-.23.44-.51.56-.83s.19-.68.19-1.07c0-.79-.24-1.4-.73-1.85-.49-.45-1.23-.67-2.23-.67h-2v5.15h2Z" fill="#333e48" stroke-width="0"/><path d="m346.09,72.51c.52,0,.98-.09,1.39-.26.41-.17.75-.42,1.04-.73.28-.32.5-.69.65-1.12.15-.43.22-.92.22-1.44v-7.82h1.91v7.82c0,.76-.12,1.46-.36,2.1-.24.64-.58,1.2-1.04,1.67-.45.47-1,.83-1.64,1.1-.64.26-1.36.4-2.17.4s-1.53-.13-2.17-.4c-.64-.26-1.19-.63-1.64-1.1-.45-.47-.8-1.02-1.04-1.67-.24-.64-.36-1.34-.36-2.1v-7.82h1.92v7.81c0,.53.07,1.01.22,1.45.15.44.36.81.64,1.13s.63.56,1.04.73c.41.17.87.26,1.39.26Z" fill="#333e48" stroke-width="0"/><path d="m283.59,466.22v12.92h-1.92v-5.82h-6.74v5.82h-1.93v-12.92h1.93v5.71h6.74v-5.71h1.92Z" fill="#333e48" stroke-width="0"/><path d="m294.22,470l-5.08,11.8c-.05.13-.13.23-.22.31-.09.07-.22.11-.4.11h-1.31l1.67-3.65-3.75-8.57h1.53c.15,0,.27.04.35.11.08.07.14.15.18.24l2.32,5.49c.05.14.09.28.14.42.05.14.08.28.11.42.04-.14.09-.29.13-.43.05-.14.1-.28.15-.42l2.24-5.48c.04-.1.11-.19.2-.25.09-.07.19-.1.31-.1h1.4Z" fill="#333e48" stroke-width="0"/><path d="m297.23,471.37c.19-.23.4-.44.62-.63.22-.19.45-.35.71-.49.25-.13.52-.24.81-.31s.59-.11.91-.11c.52,0,.99.1,1.42.31s.78.5,1.08.9c.3.4.53.88.7,1.47s.25,1.25.25,2.01c0,.68-.09,1.31-.27,1.89s-.44,1.08-.78,1.51c-.34.43-.75.76-1.24,1-.49.24-1.04.36-1.65.36-.55,0-1.01-.09-1.4-.27-.39-.18-.74-.43-1.04-.76v3.97h-1.75v-12.21h1.05c.25,0,.4.12.46.35l.15,1.02Zm.09,5.53c.29.38.6.64.93.79.33.15.71.23,1.12.23.8,0,1.43-.29,1.87-.87.44-.58.66-1.42.66-2.53,0-.58-.05-1.08-.15-1.49s-.24-.75-.43-1.01c-.19-.26-.42-.45-.7-.58s-.59-.18-.94-.18c-.51,0-.95.11-1.33.34-.38.23-.72.55-1.04.97v4.33Z" fill="#333e48" stroke-width="0"/><path d="m313.19,477.84c-.22.25-.46.47-.75.65-.28.18-.58.33-.9.45-.32.11-.65.2-.99.25-.34.05-.67.08-1,.08-.63,0-1.21-.11-1.75-.32s-1-.52-1.4-.94-.7-.92-.92-1.53c-.22-.61-.33-1.31-.33-2.1,0-.64.1-1.23.3-1.78.2-.55.48-1.03.85-1.44s.82-.73,1.35-.96c.53-.23,1.13-.35,1.8-.35.56,0,1.07.09,1.54.27.47.18.88.45,1.22.8.34.35.61.78.81,1.29.19.51.29,1.09.29,1.75,0,.27-.03.45-.09.54-.06.09-.17.14-.33.14h-5.99c.02.55.1,1.02.23,1.43s.33.74.57,1.01c.24.27.53.47.87.6s.71.2,1.12.2c.39,0,.73-.04,1.01-.13.28-.09.53-.19.74-.29.21-.1.38-.2.52-.29.14-.09.27-.14.37-.14.14,0,.25.05.33.16l.5.65Zm-1.45-4.28c0-.35-.05-.67-.15-.96s-.24-.55-.44-.76c-.19-.22-.43-.38-.7-.5s-.59-.18-.95-.18c-.74,0-1.32.21-1.74.64-.42.43-.69,1.02-.81,1.77h4.79Z" fill="#333e48" stroke-width="0"/><path d="m316.87,471.75c.29-.6.65-1.07,1.06-1.41s.91-.51,1.49-.51c.2,0,.39.02.56.07.18.04.33.11.46.2l-.12,1.32c-.04.16-.14.24-.3.24-.08,0-.21-.02-.38-.05-.17-.03-.35-.05-.54-.05-.28,0-.53.04-.75.12-.22.08-.41.2-.58.36-.17.16-.32.35-.45.58-.13.23-.25.49-.37.79v5.72h-1.75v-9.14h1.01c.19,0,.32.03.39.1.07.07.12.19.15.36l.11,1.29Z" fill="#333e48" stroke-width="0"/><path d="m329.75,470l-3.71,9.14h-1.58l-3.71-9.14h1.45c.14,0,.25.03.34.1.09.07.15.15.18.25l2.19,5.62c.08.23.15.47.2.7.06.23.11.46.16.69.05-.23.1-.46.16-.68.06-.23.13-.46.22-.7l2.21-5.62c.04-.1.1-.19.19-.25.09-.07.2-.1.32-.1h1.38Z" fill="#333e48" stroke-width="0"/><path d="m333.32,467.17c0,.16-.03.32-.1.46-.07.15-.15.28-.27.39-.11.11-.24.2-.39.26-.15.06-.31.09-.47.09s-.32-.03-.46-.09c-.14-.06-.27-.15-.38-.26s-.2-.24-.26-.39c-.06-.15-.09-.3-.09-.46s.03-.33.09-.47c.06-.15.15-.28.26-.39s.24-.2.38-.26c.14-.06.3-.09.46-.09s.32.03.47.09c.15.06.28.15.39.26.11.11.2.24.27.39.07.15.1.3.1.47Zm-.33,2.83v9.14h-1.75v-9.14h1.75Z" fill="#333e48" stroke-width="0"/><path d="m340.93,471.57c-.05.08-.1.13-.15.17-.05.03-.12.05-.21.05-.1,0-.2-.03-.32-.1-.12-.07-.26-.14-.42-.22s-.36-.15-.58-.22-.49-.1-.79-.1c-.25,0-.48.03-.69.09-.21.06-.38.15-.53.26-.14.11-.26.24-.33.4-.08.15-.12.32-.12.49,0,.23.07.42.2.57.13.15.31.28.53.39.22.11.47.21.75.29.28.09.56.18.85.27s.58.21.85.33c.28.12.53.28.75.46.22.18.4.4.53.66.13.26.2.57.2.94,0,.43-.08.82-.23,1.18-.15.36-.38.68-.67.94-.3.26-.66.47-1.1.62-.44.15-.94.23-1.5.23-.63,0-1.21-.11-1.75-.32s-.98-.48-1.34-.8l.41-.67c.05-.08.11-.15.18-.19.07-.05.17-.07.29-.07.11,0,.23.04.35.13.12.08.26.18.43.28.17.1.37.19.61.27.24.08.54.12.9.12.3,0,.56-.04.78-.11.22-.07.41-.18.55-.31s.26-.28.33-.45c.07-.17.11-.35.11-.53,0-.24-.07-.44-.2-.6-.14-.16-.31-.29-.53-.41s-.47-.21-.75-.3-.57-.17-.86-.27c-.29-.1-.58-.21-.86-.33s-.53-.29-.75-.48c-.22-.19-.4-.43-.53-.7-.14-.28-.2-.61-.2-1.01,0-.35.07-.69.22-1.02.15-.32.36-.61.64-.85.28-.25.62-.44,1.04-.59.41-.15.88-.22,1.41-.22.61,0,1.15.1,1.64.29.49.19.91.46,1.26.79l-.39.64Z" fill="#333e48" stroke-width="0"/><path d="m347.26,469.85c.67,0,1.28.11,1.82.33.54.22,1,.53,1.39.94.38.41.67.91.88,1.49s.31,1.23.31,1.95-.1,1.37-.31,1.95-.5,1.08-.88,1.49-.84.72-1.39.94c-.54.22-1.15.33-1.82.33s-1.29-.11-1.83-.33-1.01-.53-1.39-.94c-.38-.41-.68-.9-.89-1.49s-.31-1.23-.31-1.95.1-1.37.31-1.95.5-1.07.89-1.49c.38-.41.85-.73,1.39-.94s1.15-.33,1.83-.33Zm0,8.05c.86,0,1.51-.29,1.94-.87.43-.58.64-1.4.64-2.46s-.21-1.88-.64-2.46c-.43-.58-1.07-.88-1.94-.88s-1.53.29-1.96.88c-.43.58-.64,1.41-.64,2.46s.21,1.88.64,2.46c.43.58,1.08.87,1.96.87Z" fill="#333e48" stroke-width="0"/><path d="m355.26,471.75c.29-.6.65-1.07,1.06-1.41s.91-.51,1.49-.51c.2,0,.39.02.56.07.18.04.33.11.46.2l-.12,1.32c-.04.16-.14.24-.3.24-.08,0-.21-.02-.38-.05-.17-.03-.35-.05-.54-.05-.28,0-.53.04-.75.12-.22.08-.41.2-.58.36-.17.16-.32.35-.45.58-.13.23-.25.49-.37.79v5.72h-1.75v-9.14h1.01c.19,0,.32.03.39.1.07.07.12.19.15.36l.11,1.29Z" fill="#333e48" stroke-width="0"/><path d="m59.5,279.43v1.02c0,.1-.03.19-.1.26-.07.07-.16.11-.28.11h-1.49v3.33h-1.54v-3.33h-5.67c-.13,0-.24-.04-.33-.11-.09-.08-.15-.17-.18-.28l-.18-.9,6.25-8.31h1.66v8.22h1.87Zm-3.41,0v-5.04c0-.17,0-.36.01-.55,0-.19.03-.4.06-.61l-4.53,6.2h4.46Z" fill="#333e48" stroke-width="0"/><path d="m633.36,148.57c.66-.14,1.26-.21,1.79-.21.67,0,1.27.1,1.78.3.52.2.95.48,1.3.83.35.35.62.76.79,1.24.18.48.27.99.27,1.55,0,.68-.12,1.3-.36,1.86-.24.56-.57,1.04-.99,1.43-.42.4-.92.7-1.49.91-.57.21-1.19.32-1.85.32-.39,0-.76-.04-1.11-.12-.35-.08-.68-.18-.99-.31-.31-.13-.59-.28-.85-.45-.26-.17-.49-.34-.7-.53l.54-.76c.11-.17.27-.25.46-.25.13,0,.27.05.42.14.15.09.33.2.54.31s.46.22.75.31.63.14,1.03.14c.44,0,.83-.07,1.18-.21.35-.14.65-.34.89-.6.24-.26.43-.57.56-.93.13-.36.19-.76.19-1.2,0-.39-.06-.74-.17-1.05-.11-.31-.29-.58-.51-.8-.23-.22-.51-.39-.85-.51-.34-.12-.74-.17-1.2-.17-.64,0-1.31.11-2.03.34l-1.11-.32,1.05-6.1h6.19v.76c0,.25-.08.46-.24.62-.16.16-.42.24-.8.24h-3.93l-.56,3.2Z" fill="#333e48" stroke-width="0"/><rect x="134.5" y="90.5" width="390" height="44.5" fill="none" stroke="#333e48" stroke-miterlimit="10"/><rect x="134.5" y="150.5" width="390" height="45" fill="none" stroke="#333e48" stroke-miterlimit="10"/><path d="m157.83,114.58h-4.85l-.99,2.7h1.42c.18,0,.3.03.38.1s.11.16.11.27c0,.11-.04.19-.11.26s-.2.11-.38.11h-2.76c-.18,0-.3-.04-.38-.11s-.11-.16-.11-.26c0-.11.04-.2.11-.27s.2-.1.38-.1h.57l3.26-8.81h-2.18c-.18,0-.3-.03-.38-.1s-.11-.16-.11-.27.04-.2.11-.27.2-.1.38-.1h3.72l3.6,9.54h.57c.18,0,.3.03.38.1s.11.16.11.27c0,.11-.04.19-.11.26s-.2.11-.38.11h-2.75c-.18,0-.31-.04-.39-.11s-.11-.16-.11-.26c0-.11.04-.2.11-.27s.21-.1.39-.1h1.41l-1.01-2.7Zm-.28-.74l-2.04-5.37h-.27l-1.98,5.37h4.29Z" fill="#333e48" stroke-width="0"/><path d="m163.42,110.41v1.34c.44-.53.91-.93,1.42-1.2s1.1-.4,1.78-.4c.73,0,1.4.17,2.01.51s1.09.81,1.43,1.42.51,1.24.51,1.91c0,1.06-.38,1.97-1.14,2.72s-1.69,1.13-2.8,1.13c-1.32,0-2.39-.54-3.21-1.61v4.45h1.79c.18,0,.3.03.38.1s.11.16.11.27c0,.11-.04.19-.11.26s-.2.11-.38.11h-3.52c-.18,0-.3-.03-.38-.1s-.11-.16-.11-.27.04-.2.11-.27.2-.1.38-.1h.99v-9.52h-.99c-.18,0-.3-.04-.38-.11s-.11-.16-.11-.27c0-.11.04-.19.11-.26s.2-.11.38-.11h1.73Zm6.4,3.58c0-.85-.31-1.58-.93-2.18s-1.37-.91-2.26-.91-1.66.3-2.28.91-.93,1.34-.93,2.18.31,1.58.93,2.19,1.38.91,2.28.91,1.64-.3,2.26-.91.93-1.34.93-2.19Z" fill="#333e48" stroke-width="0"/><path d="m174.22,110.41v1.34c.44-.53.91-.93,1.42-1.2s1.1-.4,1.78-.4c.73,0,1.4.17,2.01.51s1.09.81,1.43,1.42.51,1.24.51,1.91c0,1.06-.38,1.97-1.14,2.72s-1.69,1.13-2.8,1.13c-1.32,0-2.39-.54-3.21-1.61v4.45h1.79c.18,0,.3.03.38.1s.11.16.11.27c0,.11-.04.19-.11.26s-.2.11-.38.11h-3.52c-.18,0-.3-.03-.38-.1s-.11-.16-.11-.27.04-.2.11-.27.2-.1.38-.1h.99v-9.52h-.99c-.18,0-.3-.04-.38-.11s-.11-.16-.11-.27c0-.11.04-.19.11-.26s.2-.11.38-.11h1.73Zm6.4,3.58c0-.85-.31-1.58-.93-2.18s-1.37-.91-2.26-.91-1.66.3-2.28.91-.93,1.34-.93,2.18.31,1.58.93,2.19,1.38.91,2.28.91,1.64-.3,2.26-.91.93-1.34.93-2.19Z" fill="#333e48" stroke-width="0"/><path d="m188.18,106.99v10.29h2.9c.18,0,.31.03.39.1s.11.16.11.27c0,.11-.04.19-.11.26s-.21.11-.39.11h-6.54c-.18,0-.3-.04-.38-.11s-.11-.16-.11-.26c0-.11.04-.2.11-.27s.2-.1.38-.1h2.9v-9.54h-2.13c-.18,0-.3-.04-.38-.11s-.12-.16-.12-.27c0-.11.04-.19.11-.26s.21-.11.39-.11h2.87Z" fill="#333e48" stroke-width="0"/><path d="m199,110.41v6.87h2.9c.18,0,.31.03.39.1s.11.16.11.27c0,.11-.04.19-.11.26s-.21.11-.39.11h-6.54c-.18,0-.3-.04-.38-.11s-.11-.16-.11-.26c0-.11.04-.2.11-.27s.2-.1.38-.1h2.9v-6.13h-2.15c-.18,0-.3-.04-.38-.11s-.12-.16-.12-.26c0-.11.04-.2.11-.27s.21-.11.39-.11h2.89Zm-.03-3.79v1.91h-1.09v-1.91h1.09Z" fill="#333e48" stroke-width="0"/><path d="m212.49,111.15v-.25c0-.18.04-.31.11-.39s.16-.11.26-.11c.11,0,.2.04.27.11s.11.21.11.39v1.67c0,.18-.04.31-.11.39s-.16.11-.27.11c-.1,0-.18-.03-.25-.1s-.11-.18-.12-.34c-.04-.42-.31-.81-.82-1.19s-1.2-.56-2.07-.56c-1.1,0-1.93.34-2.5,1.03s-.85,1.47-.85,2.36c0,.96.31,1.74.94,2.36s1.44.93,2.43.93c.57,0,1.16-.11,1.75-.32s1.13-.55,1.61-1.02c.12-.12.23-.18.33-.18.1,0,.18.03.25.1s.1.15.1.25c0,.25-.3.57-.89.96-.96.63-2.02.94-3.19.94s-2.17-.38-2.93-1.14-1.15-1.72-1.15-2.89.39-2.18,1.17-2.96,1.77-1.18,2.96-1.18,2.08.34,2.85,1.01Z" fill="#333e48" stroke-width="0"/><path d="m222.33,118.02v-1.06c-1.07.9-2.22,1.35-3.44,1.35-.88,0-1.58-.22-2.07-.67s-.75-1-.75-1.65c0-.71.33-1.34.98-1.87s1.61-.8,2.87-.8c.34,0,.71.02,1.11.07s.83.11,1.29.21v-1.2c0-.4-.19-.76-.56-1.05s-.94-.45-1.69-.45c-.57,0-1.38.17-2.42.5-.19.06-.31.09-.36.09-.09,0-.17-.04-.24-.11s-.1-.16-.1-.26c0-.1.03-.18.09-.24.08-.09.41-.21.99-.36.91-.25,1.61-.37,2.07-.37.93,0,1.66.23,2.18.69s.78.98.78,1.56v4.89h.98c.18,0,.31.03.39.1s.11.16.11.27c0,.11-.04.19-.11.26s-.21.11-.39.11h-1.73Zm0-3.67c-.35-.1-.71-.17-1.1-.22s-.79-.07-1.22-.07c-1.07,0-1.91.23-2.51.69-.46.35-.69.76-.69,1.24,0,.45.17.82.52,1.12s.86.46,1.52.46,1.23-.13,1.78-.38,1.11-.66,1.69-1.22v-1.63Z" fill="#333e48" stroke-width="0"/><path d="m229.5,110.41h4.01c.18,0,.3.04.38.11s.11.16.11.27c0,.11-.04.19-.11.26s-.2.11-.38.11h-4.01v4.91c0,.43.17.79.51,1.07s.85.43,1.51.43c.5,0,1.04-.07,1.62-.22s1.03-.32,1.35-.51c.12-.08.21-.11.29-.11.09,0,.18.04.25.11s.11.16.11.26c0,.09-.04.17-.11.25-.19.19-.64.4-1.37.63s-1.42.34-2.08.34c-.86,0-1.55-.2-2.06-.61s-.76-.95-.76-1.63v-4.91h-1.36c-.18,0-.3-.04-.38-.11s-.11-.16-.11-.27c0-.11.04-.19.11-.26s.2-.11.38-.11h1.36v-2.18c0-.18.04-.3.11-.38s.16-.11.26-.11c.11,0,.2.04.27.11s.11.2.11.38v2.18Z" fill="#333e48" stroke-width="0"/><path d="m242.21,110.41v6.87h2.9c.18,0,.31.03.39.1s.11.16.11.27c0,.11-.04.19-.11.26s-.21.11-.39.11h-6.54c-.18,0-.3-.04-.38-.11s-.11-.16-.11-.26c0-.11.04-.2.11-.27s.2-.1.38-.1h2.9v-6.13h-2.15c-.18,0-.3-.04-.38-.11s-.12-.16-.12-.26c0-.11.04-.2.11-.27s.21-.11.39-.11h2.89Zm-.03-3.79v1.91h-1.09v-1.91h1.09Z" fill="#333e48" stroke-width="0"/><path d="m256.74,114.23c0,1.12-.4,2.09-1.21,2.88s-1.78,1.2-2.91,1.2-2.12-.4-2.93-1.2-1.2-1.76-1.2-2.88.4-2.09,1.2-2.89,1.78-1.2,2.93-1.2,2.11.4,2.91,1.2,1.21,1.76,1.21,2.89Zm-.75,0c0-.93-.33-1.71-.99-2.36s-1.46-.98-2.4-.98-1.74.33-2.4.98-.99,1.44-.99,2.36.33,1.7.99,2.36,1.46.98,2.4.98,1.74-.33,2.4-.98.99-1.44.99-2.36Z" fill="#333e48" stroke-width="0"/><path d="m261.03,110.41v1.12c.52-.52.98-.88,1.4-1.08s.88-.3,1.41-.3c.56,0,1.08.12,1.54.36.33.18.63.47.89.88s.4.82.4,1.25v4.65h.62c.18,0,.3.03.38.1s.11.16.11.27c0,.11-.04.19-.11.26s-.2.11-.38.11h-1.98c-.18,0-.31-.04-.39-.11s-.11-.16-.11-.26c0-.11.04-.2.11-.27s.21-.1.39-.1h.62v-4.53c0-.52-.19-.96-.57-1.32s-.89-.54-1.53-.54c-.49,0-.91.1-1.27.29s-.87.68-1.53,1.46v4.63h.83c.18,0,.3.03.38.1s.11.16.11.27c0,.11-.04.19-.11.26s-.2.11-.38.11h-2.41c-.18,0-.3-.04-.38-.11s-.11-.16-.11-.26c0-.11.04-.2.11-.27s.2-.1.38-.1h.83v-6.13h-.62c-.18,0-.3-.04-.38-.11s-.11-.16-.11-.27c0-.11.04-.19.11-.26s.2-.11.38-.11h1.36Z" fill="#333e48" stroke-width="0"/><rect x="135" y="330" width="389.5" height="119.5" fill="none" stroke="#333e48" stroke-miterlimit="10"/><path d="m155.79,348.42v6.87h2.9c.18,0,.31.03.39.1s.11.16.11.27c0,.11-.04.19-.11.26s-.21.11-.39.11h-6.54c-.18,0-.3-.04-.38-.11s-.11-.16-.11-.26c0-.11.04-.2.11-.27s.2-.1.38-.1h2.9v-6.13h-2.15c-.18,0-.3-.04-.38-.11s-.12-.16-.12-.26c0-.11.04-.2.11-.27s.21-.11.39-.11h2.89Zm-.03-3.79v1.91h-1.09v-1.91h1.09Z" fill="#333e48" stroke-width="0"/><path d="m163.82,348.42v1.12c.52-.52.98-.88,1.4-1.08s.88-.3,1.41-.3c.56,0,1.08.12,1.54.36.33.18.63.47.89.88s.4.82.4,1.25v4.65h.62c.18,0,.3.03.38.1s.11.16.11.27c0,.11-.04.19-.11.26s-.2.11-.38.11h-1.98c-.18,0-.31-.04-.39-.11s-.11-.16-.11-.26c0-.11.04-.2.11-.27s.21-.1.39-.1h.62v-4.53c0-.52-.19-.96-.57-1.32s-.89-.54-1.53-.54c-.49,0-.91.1-1.27.29s-.87.68-1.53,1.46v4.63h.83c.18,0,.3.03.38.1s.11.16.11.27c0,.11-.04.19-.11.26s-.2.11-.38.11h-2.41c-.18,0-.3-.04-.38-.11s-.11-.16-.11-.26c0-.11.04-.2.11-.27s.2-.1.38-.1h.83v-6.13h-.62c-.18,0-.3-.04-.38-.11s-.11-.16-.11-.27c0-.11.04-.19.11-.26s.2-.11.38-.11h1.36Z" fill="#333e48" stroke-width="0"/><path d="m175.49,348.42h4.01c.18,0,.3.04.38.11s.11.16.11.27c0,.11-.04.19-.11.26s-.2.11-.38.11h-4.01v4.91c0,.43.17.79.51,1.07s.85.43,1.51.43c.5,0,1.04-.07,1.62-.22s1.03-.32,1.35-.51c.12-.08.21-.11.29-.11.09,0,.18.04.25.11s.11.16.11.26c0,.09-.04.17-.11.25-.19.19-.64.4-1.37.63s-1.42.34-2.08.34c-.86,0-1.55-.2-2.06-.61s-.76-.95-.76-1.63v-4.91h-1.36c-.18,0-.3-.04-.38-.11s-.11-.16-.11-.27c0-.11.04-.19.11-.26s.2-.11.38-.11h1.36v-2.18c0-.18.04-.3.11-.38s.16-.11.26-.11c.11,0,.2.04.27.11s.11.2.11.38v2.18Z" fill="#333e48" stroke-width="0"/><path d="m191.8,352.4h-7.52c.13.96.53,1.72,1.2,2.31s1.5.87,2.49.87c.55,0,1.13-.09,1.73-.27s1.1-.42,1.48-.72c.11-.09.21-.13.29-.13.09,0,.18.04.25.11s.11.16.11.26-.05.2-.14.29c-.28.29-.78.57-1.5.82s-1.45.38-2.21.38c-1.27,0-2.32-.41-3.17-1.24s-1.27-1.83-1.27-3.01c0-1.07.4-1.99,1.19-2.76s1.78-1.15,2.95-1.15,2.2.39,2.98,1.18,1.16,1.81,1.15,3.06Zm-.75-.75c-.15-.81-.53-1.48-1.16-1.99s-1.37-.76-2.23-.76-1.6.25-2.22.76-1.01,1.17-1.16,2h6.77Z" fill="#333e48" stroke-width="0"/><path d="m197.72,348.42v1.86c.96-.87,1.68-1.42,2.16-1.67s.92-.37,1.32-.37c.44,0,.85.15,1.23.44s.57.52.57.67c0,.11-.04.2-.11.28s-.17.11-.28.11c-.06,0-.11,0-.15-.03s-.12-.09-.23-.2c-.21-.21-.38-.35-.54-.42s-.3-.11-.45-.11c-.32,0-.71.13-1.16.39s-1.24.89-2.36,1.89v4.04h3.27c.18,0,.31.03.39.1s.11.16.11.27c0,.11-.04.19-.11.26s-.21.11-.39.11h-5.79c-.18,0-.3-.03-.38-.1s-.11-.15-.11-.26c0-.1.04-.18.11-.25s.2-.1.38-.1h1.78v-6.15h-1.36c-.18,0-.3-.04-.38-.11s-.11-.16-.11-.27c0-.11.04-.19.11-.26s.2-.11.38-.11h2.1Z" fill="#333e48" stroke-width="0"/><path d="m208.53,348.42v1.86c.96-.87,1.68-1.42,2.16-1.67s.92-.37,1.32-.37c.44,0,.85.15,1.23.44s.57.52.57.67c0,.11-.04.2-.11.28s-.17.11-.28.11c-.06,0-.11,0-.15-.03s-.12-.09-.23-.2c-.21-.21-.38-.35-.54-.42s-.3-.11-.45-.11c-.32,0-.71.13-1.16.39s-1.24.89-2.36,1.89v4.04h3.27c.18,0,.31.03.39.1s.11.16.11.27c0,.11-.04.19-.11.26s-.21.11-.39.11h-5.79c-.18,0-.3-.03-.38-.1s-.11-.15-.11-.26c0-.1.04-.18.11-.25s.2-.1.38-.1h1.78v-6.15h-1.36c-.18,0-.3-.04-.38-.11s-.11-.16-.11-.27c0-.11.04-.19.11-.26s.2-.11.38-.11h2.1Z" fill="#333e48" stroke-width="0"/><path d="m222.74,356.03v-1.08c-1.01.91-2.1,1.37-3.27,1.37-.72,0-1.27-.2-1.64-.59-.49-.52-.73-1.12-.73-1.8v-4.76h-.99c-.18,0-.3-.04-.38-.11s-.11-.16-.11-.27c0-.11.04-.19.11-.26s.2-.11.38-.11h1.73v5.51c0,.48.15.88.46,1.19s.69.47,1.14.47c1.2,0,2.3-.55,3.3-1.65v-4.76h-1.36c-.18,0-.3-.04-.38-.11s-.11-.16-.11-.27c0-.11.04-.19.11-.26s.2-.11.38-.11h2.1v6.87h.62c.18,0,.3.03.38.1s.11.16.11.27c0,.11-.04.19-.11.26s-.2.11-.38.11h-1.36Z" fill="#333e48" stroke-width="0"/><path d="m228.23,348.42v1.34c.44-.53.91-.93,1.42-1.2s1.1-.4,1.78-.4c.73,0,1.4.17,2.01.51s1.09.81,1.43,1.42.51,1.24.51,1.91c0,1.06-.38,1.97-1.14,2.72s-1.69,1.13-2.8,1.13c-1.32,0-2.39-.54-3.21-1.61v4.45h1.79c.18,0,.3.03.38.1s.11.16.11.27c0,.11-.04.19-.11.26s-.2.11-.38.11h-3.52c-.18,0-.3-.03-.38-.1s-.11-.16-.11-.27.04-.2.11-.27.2-.1.38-.1h.99v-9.52h-.99c-.18,0-.3-.04-.38-.11s-.11-.16-.11-.27c0-.11.04-.19.11-.26s.2-.11.38-.11h1.73Zm6.4,3.58c0-.85-.31-1.58-.93-2.18s-1.37-.91-2.26-.91-1.66.3-2.28.91-.93,1.34-.93,2.18.31,1.58.93,2.19,1.38.91,2.28.91,1.64-.3,2.26-.91.93-1.34.93-2.19Z" fill="#333e48" stroke-width="0"/><path d="m240.3,348.42h4.01c.18,0,.3.04.38.11s.11.16.11.27c0,.11-.04.19-.11.26s-.2.11-.38.11h-4.01v4.91c0,.43.17.79.51,1.07s.85.43,1.51.43c.5,0,1.04-.07,1.62-.22s1.03-.32,1.35-.51c.12-.08.21-.11.29-.11.09,0,.18.04.25.11s.11.16.11.26c0,.09-.04.17-.11.25-.19.19-.64.4-1.37.63s-1.42.34-2.08.34c-.86,0-1.55-.2-2.06-.61s-.76-.95-.76-1.63v-4.91h-1.36c-.18,0-.3-.04-.38-.11s-.11-.16-.11-.27c0-.11.04-.19.11-.26s.2-.11.38-.11h1.36v-2.18c0-.18.04-.3.11-.38s.16-.11.26-.11c.11,0,.2.04.27.11s.11.2.11.38v2.18Z" fill="#333e48" stroke-width="0"/><path d="m257.53,360.96h-9.82c-.18,0-.3-.03-.38-.1s-.11-.16-.11-.27.04-.2.11-.27.2-.1.38-.1h9.82c.18,0,.31.03.38.1s.11.16.11.27-.04.2-.11.27-.2.1-.38.1Z" fill="#333e48" stroke-width="0"/><path d="m260.99,345v4.54c.47-.51.92-.87,1.35-1.08s.91-.31,1.45-.31c.57,0,1.06.1,1.46.3s.74.51,1.01.93.4.86.4,1.32v4.58h.83c.18,0,.31.03.38.1s.11.16.11.27c0,.11-.04.19-.11.26s-.2.11-.38.11h-2.4c-.18,0-.31-.04-.39-.11s-.11-.16-.11-.26c0-.11.04-.2.11-.27s.21-.1.39-.1h.83v-4.53c0-.53-.19-.98-.58-1.34s-.92-.54-1.6-.54c-.54,0-1,.13-1.38.4-.28.19-.73.63-1.36,1.33v4.68h.83c.18,0,.3.03.38.1s.11.16.11.27c0,.11-.04.19-.11.26s-.2.11-.38.11h-2.41c-.18,0-.3-.04-.38-.11s-.11-.16-.11-.26c0-.11.04-.2.11-.27s.2-.1.38-.1h.83v-9.54h-.99c-.18,0-.3-.04-.38-.11s-.11-.16-.11-.27c0-.11.04-.19.11-.26s.2-.11.38-.11h1.73Z" fill="#333e48" stroke-width="0"/><path d="m276.34,356.03v-1.06c-1.07.9-2.22,1.35-3.44,1.35-.88,0-1.58-.22-2.07-.67s-.75-1-.75-1.65c0-.71.33-1.34.98-1.87s1.61-.8,2.87-.8c.34,0,.71.02,1.11.07s.83.11,1.29.21v-1.2c0-.4-.19-.76-.56-1.05s-.94-.45-1.69-.45c-.57,0-1.38.17-2.42.5-.19.06-.31.09-.36.09-.09,0-.17-.04-.24-.11s-.1-.16-.1-.26c0-.1.03-.18.09-.24.08-.09.41-.21.99-.36.91-.25,1.61-.37,2.07-.37.93,0,1.66.23,2.18.69s.78.98.78,1.56v4.89h.98c.18,0,.31.03.39.1s.11.16.11.27c0,.11-.04.19-.11.26s-.21.11-.39.11h-1.73Zm0-3.67c-.35-.1-.71-.17-1.1-.22s-.79-.07-1.22-.07c-1.07,0-1.91.23-2.51.69-.46.35-.69.76-.69,1.24,0,.45.17.82.52,1.12s.86.46,1.52.46,1.23-.13,1.78-.38,1.11-.66,1.69-1.22v-1.63Z" fill="#333e48" stroke-width="0"/><path d="m282.64,348.42v1.12c.52-.52.98-.88,1.4-1.08s.88-.3,1.41-.3c.56,0,1.08.12,1.54.36.33.18.63.47.89.88s.4.82.4,1.25v4.65h.62c.18,0,.3.03.38.1s.11.16.11.27c0,.11-.04.19-.11.26s-.2.11-.38.11h-1.98c-.18,0-.31-.04-.39-.11s-.11-.16-.11-.26c0-.11.04-.2.11-.27s.21-.1.39-.1h.62v-4.53c0-.52-.19-.96-.57-1.32s-.89-.54-1.53-.54c-.49,0-.91.1-1.27.29s-.87.68-1.53,1.46v4.63h.83c.18,0,.3.03.38.1s.11.16.11.27c0,.11-.04.19-.11.26s-.2.11-.38.11h-2.41c-.18,0-.3-.04-.38-.11s-.11-.16-.11-.26c0-.11.04-.2.11-.27s.2-.1.38-.1h.83v-6.13h-.62c-.18,0-.3-.04-.38-.11s-.11-.16-.11-.27c0-.11.04-.19.11-.26s.2-.11.38-.11h1.36Z" fill="#333e48" stroke-width="0"/><path d="m299.44,345v10.29h.98c.18,0,.31.03.39.1s.11.16.11.27c0,.11-.04.19-.11.26s-.21.11-.39.11h-1.73v-1.47c-.86,1.17-1.94,1.76-3.26,1.76-.67,0-1.31-.18-1.92-.53s-1.1-.86-1.45-1.52-.53-1.33-.53-2.03.18-1.38.53-2.03.84-1.16,1.45-1.52,1.26-.54,1.93-.54c1.29,0,2.37.59,3.25,1.76v-4.17h-.98c-.18,0-.31-.04-.39-.11s-.11-.16-.11-.27c0-.11.04-.19.11-.26s.21-.11.39-.11h1.73Zm-.75,7.24c0-.94-.32-1.73-.95-2.37s-1.39-.97-2.26-.97-1.63.32-2.27.97-.95,1.44-.95,2.37.32,1.72.95,2.37,1.39.97,2.27.97,1.63-.32,2.26-.97.95-1.44.95-2.37Z" fill="#333e48" stroke-width="0"/><path d="m307,345v10.29h2.9c.18,0,.31.03.39.1s.11.16.11.27c0,.11-.04.19-.11.26s-.21.11-.39.11h-6.54c-.18,0-.3-.04-.38-.11s-.11-.16-.11-.26c0-.11.04-.2.11-.27s.2-.1.38-.1h2.9v-9.54h-2.13c-.18,0-.3-.04-.38-.11s-.12-.16-.12-.27c0-.11.04-.19.11-.26s.21-.11.39-.11h2.87Z" fill="#333e48" stroke-width="0"/><path d="m321.42,352.4h-7.52c.13.96.53,1.72,1.2,2.31s1.5.87,2.49.87c.55,0,1.13-.09,1.73-.27s1.1-.42,1.48-.72c.11-.09.21-.13.29-.13.09,0,.18.04.25.11s.11.16.11.26-.05.2-.14.29c-.28.29-.78.57-1.5.82s-1.45.38-2.21.38c-1.27,0-2.32-.41-3.17-1.24s-1.27-1.83-1.27-3.01c0-1.07.4-1.99,1.19-2.76s1.78-1.15,2.95-1.15,2.2.39,2.98,1.18,1.16,1.81,1.15,3.06Zm-.75-.75c-.15-.81-.53-1.48-1.16-1.99s-1.37-.76-2.23-.76-1.6.25-2.22.76-1.01,1.17-1.16,2h6.77Z" fill="#333e48" stroke-width="0"/><path d="m327.35,348.42v1.86c.96-.87,1.68-1.42,2.16-1.67s.92-.37,1.32-.37c.44,0,.85.15,1.23.44s.57.52.57.67c0,.11-.04.2-.11.28s-.17.11-.28.11c-.06,0-.11,0-.15-.03s-.12-.09-.23-.2c-.21-.21-.38-.35-.54-.42s-.3-.11-.45-.11c-.32,0-.71.13-1.16.39s-1.24.89-2.36,1.89v4.04h3.27c.18,0,.31.03.39.1s.11.16.11.27c0,.11-.04.19-.11.26s-.21.11-.39.11h-5.79c-.18,0-.3-.03-.38-.1s-.11-.15-.11-.26c0-.1.04-.18.11-.25s.2-.1.38-.1h1.78v-6.15h-1.36c-.18,0-.3-.04-.38-.11s-.11-.16-.11-.27c0-.11.04-.19.11-.26s.2-.11.38-.11h2.1Z" fill="#333e48" stroke-width="0"/><path d="m338.88,348.42h.32c.33,0,.61.12.84.35s.35.51.35.83c0,.35-.12.63-.36.86s-.52.34-.84.34h-.32c-.33,0-.61-.12-.84-.35s-.35-.51-.35-.83c0-.35.12-.63.36-.86s.52-.34.84-.34Zm0,5.49h.32c.33,0,.61.12.84.35s.35.51.35.84-.12.62-.36.85-.52.34-.84.34h-.32c-.33,0-.61-.12-.84-.35s-.35-.51-.35-.84.12-.62.36-.85.52-.34.84-.34Z" fill="#333e48" stroke-width="0"/><path d="m187.79,370.02v6.87h2.9c.18,0,.31.03.39.1s.11.16.11.27c0,.11-.04.19-.11.26s-.21.11-.39.11h-6.54c-.18,0-.3-.04-.38-.11s-.11-.16-.11-.26c0-.11.04-.2.11-.27s.2-.1.38-.1h2.9v-6.13h-2.15c-.18,0-.3-.04-.38-.11s-.12-.16-.12-.26c0-.11.04-.2.11-.27s.21-.11.39-.11h2.89Zm-.03-3.79v1.91h-1.09v-1.91h1.09Z" fill="#333e48" stroke-width="0"/><path d="m201.82,366.6v10.29h.98c.18,0,.31.03.39.1s.11.16.11.27c0,.11-.04.19-.11.26s-.21.11-.39.11h-1.73v-1.47c-.86,1.17-1.94,1.76-3.26,1.76-.67,0-1.31-.18-1.92-.53s-1.1-.86-1.45-1.52-.53-1.33-.53-2.03.18-1.38.53-2.04.84-1.16,1.45-1.52,1.26-.54,1.93-.54c1.29,0,2.37.59,3.25,1.76v-4.17h-.98c-.18,0-.31-.04-.39-.11s-.11-.16-.11-.27c0-.11.04-.19.11-.26s.21-.11.39-.11h1.73Zm-.75,7.24c0-.94-.32-1.73-.95-2.37s-1.39-.97-2.26-.97-1.63.32-2.27.97-.95,1.44-.95,2.37.32,1.72.95,2.37,1.39.97,2.27.97,1.63-.32,2.26-.97.95-1.44.95-2.37Z" fill="#333e48" stroke-width="0"/><path d="m213,374h-7.52c.13.96.53,1.72,1.2,2.31s1.5.88,2.49.88c.55,0,1.13-.09,1.73-.27s1.1-.42,1.48-.72c.11-.09.21-.13.29-.13.09,0,.18.04.25.11s.11.16.11.26-.05.2-.14.29c-.28.29-.78.57-1.5.82s-1.45.38-2.21.38c-1.27,0-2.32-.42-3.17-1.24s-1.27-1.83-1.27-3.01c0-1.07.4-1.99,1.19-2.76s1.78-1.15,2.95-1.15,2.2.39,2.98,1.18,1.16,1.81,1.15,3.06Zm-.75-.75c-.15-.81-.53-1.48-1.16-1.99s-1.37-.76-2.23-.76-1.6.25-2.22.76-1.01,1.17-1.16,2h6.77Z" fill="#333e48" stroke-width="0"/><path d="m217.42,370.02v1.12c.52-.52.98-.88,1.4-1.08s.88-.3,1.41-.3c.56,0,1.08.12,1.54.36.33.18.63.47.89.87s.4.83.4,1.25v4.65h.62c.18,0,.3.03.38.1s.11.16.11.27c0,.11-.04.19-.11.26s-.2.11-.38.11h-1.98c-.18,0-.31-.04-.39-.11s-.11-.16-.11-.26c0-.11.04-.2.11-.27s.21-.1.39-.1h.62v-4.53c0-.52-.19-.96-.57-1.32s-.89-.54-1.53-.54c-.49,0-.91.1-1.27.29s-.87.68-1.53,1.46v4.63h.83c.18,0,.3.03.38.1s.11.16.11.27c0,.11-.04.19-.11.26s-.2.11-.38.11h-2.41c-.18,0-.3-.04-.38-.11s-.11-.16-.11-.26c0-.11.04-.2.11-.27s.2-.1.38-.1h.83v-6.13h-.62c-.18,0-.3-.04-.38-.11s-.11-.16-.11-.27c0-.11.04-.19.11-.26s.2-.11.38-.11h1.36Z" fill="#333e48" stroke-width="0"/><path d="m229.09,370.02h4.01c.18,0,.3.04.38.11s.11.16.11.27c0,.11-.04.19-.11.26s-.2.11-.38.11h-4.01v4.91c0,.43.17.79.51,1.07s.85.43,1.51.43c.5,0,1.04-.08,1.62-.22s1.03-.32,1.35-.5c.12-.08.21-.11.29-.11.09,0,.18.04.25.11s.11.16.11.26c0,.09-.04.17-.11.25-.19.19-.64.4-1.37.63s-1.42.34-2.08.34c-.86,0-1.55-.2-2.06-.61s-.76-.95-.76-1.63v-4.91h-1.36c-.18,0-.3-.04-.38-.11s-.11-.16-.11-.27c0-.11.04-.19.11-.26s.2-.11.38-.11h1.36v-2.18c0-.18.04-.3.11-.38s.16-.11.26-.11c.11,0,.2.04.27.11s.11.2.11.38v2.18Z" fill="#333e48" stroke-width="0"/><path d="m241.8,370.02v6.87h2.9c.18,0,.31.03.39.1s.11.16.11.27c0,.11-.04.19-.11.26s-.21.11-.39.11h-6.54c-.18,0-.3-.04-.38-.11s-.11-.16-.11-.26c0-.11.04-.2.11-.27s.2-.1.38-.1h2.9v-6.13h-2.15c-.18,0-.3-.04-.38-.11s-.12-.16-.12-.26c0-.11.04-.2.11-.27s.21-.11.39-.11h2.89Zm-.03-3.79v1.91h-1.09v-1.91h1.09Z" fill="#333e48" stroke-width="0"/><path d="m251.72,370.77v6.13h3.24c.18,0,.3.03.38.1s.11.16.11.27c0,.11-.04.19-.11.26s-.2.11-.38.11h-5.77c-.18,0-.3-.04-.38-.11s-.11-.16-.11-.26c0-.11.04-.2.11-.27s.2-.1.38-.1h1.78v-6.13h-1.6c-.18,0-.3-.04-.38-.11s-.11-.16-.11-.27c0-.11.04-.19.11-.26s.2-.11.38-.11h1.6v-1.12c0-.62.25-1.16.76-1.62s1.17-.69,2-.69c.7,0,1.44.06,2.23.19.3.05.48.1.54.17s.09.15.09.25-.04.19-.11.26-.16.1-.28.1c-.05,0-.13,0-.24-.03-.88-.13-1.63-.2-2.24-.2-.64,0-1.14.16-1.49.47s-.52.68-.52,1.08v1.12h3.45c.18,0,.3.04.38.11s.11.16.11.27c0,.11-.04.19-.11.26s-.2.11-.38.11h-3.45Z" fill="#333e48" stroke-width="0"/><path d="m263.06,377.63l-3.43-6.86h-.22c-.18,0-.3-.04-.38-.11s-.11-.16-.11-.26c0-.08.02-.15.06-.21s.09-.11.15-.13.16-.04.29-.04h2.02c.18,0,.3.04.38.11s.11.16.11.27c0,.11-.04.19-.11.26s-.2.11-.38.11h-.99l3.01,6.06,2.97-6.06h-.99c-.18,0-.3-.04-.38-.11s-.11-.16-.11-.27c0-.11.04-.19.11-.26s.2-.11.38-.11h2.01c.18,0,.31.04.39.11s.11.16.11.27c0,.08-.02.15-.07.21s-.1.11-.16.13-.22.03-.49.03l-4.68,9.52h1.15c.18,0,.3.03.38.1s.11.16.11.27c0,.11-.04.19-.11.26s-.2.11-.38.11h-4.25c-.18,0-.3-.03-.38-.1s-.11-.16-.11-.27.04-.2.11-.27.2-.1.38-.1h2.31l1.3-2.65Z" fill="#333e48" stroke-width="0"/><path d="m278.72,382.56h-9.82c-.18,0-.3-.03-.38-.1s-.11-.16-.11-.27.04-.2.11-.27.2-.1.38-.1h9.82c.18,0,.31.03.38.1s.11.16.11.27-.04.2-.11.27-.2.1-.38.1Z" fill="#333e48" stroke-width="0"/><path d="m285.01,370.02v6.87h2.9c.18,0,.31.03.39.1s.11.16.11.27c0,.11-.04.19-.11.26s-.21.11-.39.11h-6.54c-.18,0-.3-.04-.38-.11s-.11-.16-.11-.26c0-.11.04-.2.11-.27s.2-.1.38-.1h2.9v-6.13h-2.15c-.18,0-.3-.04-.38-.11s-.12-.16-.12-.26c0-.11.04-.2.11-.27s.21-.11.39-.11h2.89Zm-.03-3.79v1.91h-1.09v-1.91h1.09Z" fill="#333e48" stroke-width="0"/><path d="m293.03,370.02v1.12c.52-.52.98-.88,1.4-1.08s.88-.3,1.41-.3c.56,0,1.08.12,1.54.36.33.18.63.47.89.87s.4.83.4,1.25v4.65h.62c.18,0,.3.03.38.1s.11.16.11.27c0,.11-.04.19-.11.26s-.2.11-.38.11h-1.98c-.18,0-.31-.04-.39-.11s-.11-.16-.11-.26c0-.11.04-.2.11-.27s.21-.1.39-.1h.62v-4.53c0-.52-.19-.96-.57-1.32s-.89-.54-1.53-.54c-.49,0-.91.1-1.27.29s-.87.68-1.53,1.46v4.63h.83c.18,0,.3.03.38.1s.11.16.11.27c0,.11-.04.19-.11.26s-.2.11-.38.11h-2.41c-.18,0-.3-.04-.38-.11s-.11-.16-.11-.26c0-.11.04-.2.11-.27s.2-.1.38-.1h.83v-6.13h-.62c-.18,0-.3-.04-.38-.11s-.11-.16-.11-.27c0-.11.04-.19.11-.26s.2-.11.38-.11h1.36Z" fill="#333e48" stroke-width="0"/><path d="m304.7,370.02h4.01c.18,0,.3.04.38.11s.11.16.11.27c0,.11-.04.19-.11.26s-.2.11-.38.11h-4.01v4.91c0,.43.17.79.51,1.07s.85.43,1.51.43c.5,0,1.04-.08,1.62-.22s1.03-.32,1.35-.5c.12-.08.21-.11.29-.11.09,0,.18.04.25.11s.11.16.11.26c0,.09-.04.17-.11.25-.19.19-.64.4-1.37.63s-1.42.34-2.08.34c-.86,0-1.55-.2-2.06-.61s-.76-.95-.76-1.63v-4.91h-1.36c-.18,0-.3-.04-.38-.11s-.11-.16-.11-.27c0-.11.04-.19.11-.26s.2-.11.38-.11h1.36v-2.18c0-.18.04-.3.11-.38s.16-.11.26-.11c.11,0,.2.04.27.11s.11.2.11.38v2.18Z" fill="#333e48" stroke-width="0"/><path d="m321.02,374h-7.52c.13.96.53,1.72,1.2,2.31s1.5.88,2.49.88c.55,0,1.13-.09,1.73-.27s1.1-.42,1.48-.72c.11-.09.21-.13.29-.13.09,0,.18.04.25.11s.11.16.11.26-.05.2-.14.29c-.28.29-.78.57-1.5.82s-1.45.38-2.21.38c-1.27,0-2.32-.42-3.17-1.24s-1.27-1.83-1.27-3.01c0-1.07.4-1.99,1.19-2.76s1.78-1.15,2.95-1.15,2.2.39,2.98,1.18,1.16,1.81,1.15,3.06Zm-.75-.75c-.15-.81-.53-1.48-1.16-1.99s-1.37-.76-2.23-.76-1.6.25-2.22.76-1.01,1.17-1.16,2h6.77Z" fill="#333e48" stroke-width="0"/><path d="m326.94,370.02v1.86c.96-.87,1.68-1.43,2.16-1.67s.92-.37,1.32-.37c.44,0,.85.15,1.23.44s.57.52.57.67c0,.11-.04.2-.11.28s-.17.11-.28.11c-.06,0-.11-.01-.15-.03s-.12-.09-.23-.2c-.21-.21-.38-.35-.54-.42s-.3-.11-.45-.11c-.32,0-.71.13-1.16.39s-1.24.89-2.36,1.89v4.04h3.27c.18,0,.31.03.39.1s.11.16.11.27c0,.11-.04.19-.11.26s-.21.11-.39.11h-5.79c-.18,0-.3-.03-.38-.1s-.11-.15-.11-.26c0-.1.04-.18.11-.25s.2-.1.38-.1h1.78v-6.15h-1.36c-.18,0-.3-.04-.38-.11s-.11-.16-.11-.27c0-.11.04-.19.11-.26s.2-.11.38-.11h2.1Z" fill="#333e48" stroke-width="0"/><path d="m337.74,370.02v1.86c.96-.87,1.68-1.43,2.16-1.67s.92-.37,1.32-.37c.44,0,.85.15,1.23.44s.57.52.57.67c0,.11-.04.2-.11.28s-.17.11-.28.11c-.06,0-.11-.01-.15-.03s-.12-.09-.23-.2c-.21-.21-.38-.35-.54-.42s-.3-.11-.45-.11c-.32,0-.71.13-1.16.39s-1.24.89-2.36,1.89v4.04h3.27c.18,0,.31.03.39.1s.11.16.11.27c0,.11-.04.19-.11.26s-.21.11-.39.11h-5.79c-.18,0-.3-.03-.38-.1s-.11-.15-.11-.26c0-.1.04-.18.11-.25s.2-.1.38-.1h1.78v-6.15h-1.36c-.18,0-.3-.04-.38-.11s-.11-.16-.11-.27c0-.11.04-.19.11-.26s.2-.11.38-.11h2.1Z" fill="#333e48" stroke-width="0"/><path d="m351.95,377.63v-1.08c-1.01.91-2.1,1.37-3.27,1.37-.72,0-1.27-.2-1.64-.59-.49-.52-.73-1.12-.73-1.8v-4.76h-.99c-.18,0-.3-.04-.38-.11s-.11-.16-.11-.27c0-.11.04-.19.11-.26s.2-.11.38-.11h1.73v5.51c0,.48.15.88.46,1.19s.69.47,1.14.47c1.2,0,2.3-.55,3.3-1.65v-4.76h-1.36c-.18,0-.3-.04-.38-.11s-.11-.16-.11-.27c0-.11.04-.19.11-.26s.2-.11.38-.11h2.1v6.87h.62c.18,0,.3.03.38.1s.11.16.11.27c0,.11-.04.19-.11.26s-.2.11-.38.11h-1.36Z" fill="#333e48" stroke-width="0"/><path d="m357.45,370.02v1.34c.44-.53.91-.93,1.42-1.2s1.1-.4,1.78-.4c.73,0,1.4.17,2.01.51s1.09.81,1.43,1.42.51,1.24.51,1.91c0,1.06-.38,1.97-1.14,2.72s-1.69,1.13-2.8,1.13c-1.32,0-2.39-.54-3.21-1.61v4.45h1.79c.18,0,.3.03.38.1s.11.16.11.27c0,.11-.04.19-.11.26s-.2.11-.38.11h-3.52c-.18,0-.3-.03-.38-.1s-.11-.16-.11-.27.04-.2.11-.27.2-.1.38-.1h.99v-9.52h-.99c-.18,0-.3-.04-.38-.11s-.11-.16-.11-.27c0-.11.04-.19.11-.26s.2-.11.38-.11h1.73Zm6.4,3.58c0-.85-.31-1.58-.93-2.18s-1.37-.91-2.26-.91-1.66.3-2.28.91-.93,1.34-.93,2.18.31,1.58.93,2.19,1.38.91,2.28.91,1.64-.3,2.26-.91.93-1.34.93-2.19Z" fill="#333e48" stroke-width="0"/><path d="m369.51,370.02h4.01c.18,0,.3.04.38.11s.11.16.11.27c0,.11-.04.19-.11.26s-.2.11-.38.11h-4.01v4.91c0,.43.17.79.51,1.07s.85.43,1.51.43c.5,0,1.04-.08,1.62-.22s1.03-.32,1.35-.5c.12-.08.21-.11.29-.11.09,0,.18.04.25.11s.11.16.11.26c0,.09-.04.17-.11.25-.19.19-.64.4-1.37.63s-1.42.34-2.08.34c-.86,0-1.55-.2-2.06-.61s-.76-.95-.76-1.63v-4.91h-1.36c-.18,0-.3-.04-.38-.11s-.11-.16-.11-.27c0-.11.04-.19.11-.26s.2-.11.38-.11h1.36v-2.18c0-.18.04-.3.11-.38s.16-.11.26-.11c.11,0,.2.04.27.11s.11.2.11.38v2.18Z" fill="#333e48" stroke-width="0"/><path d="m381.75,373.26c0-.67.09-1.39.26-2.14s.51-1.63,1.01-2.62.86-1.59,1.09-1.79c.07-.06.15-.1.23-.1.11,0,.19.04.27.11s.11.16.11.25c0,.06-.02.12-.06.19-.64,1.18-1.1,2.26-1.38,3.22s-.41,1.92-.41,2.88.14,1.93.41,2.89.74,2.03,1.38,3.21c.04.07.06.13.06.19,0,.1-.04.19-.11.26s-.16.11-.27.11c-.08,0-.16-.03-.23-.1-.22-.2-.57-.78-1.06-1.75s-.83-1.82-1.02-2.57-.28-1.49-.28-2.25Z" fill="#333e48" stroke-width="0"/><path d="m392.85,373.27c0,.67-.09,1.39-.26,2.14s-.51,1.63-1.01,2.62-.86,1.59-1.09,1.79c-.07.07-.15.11-.23.11-.11,0-.19-.04-.27-.11s-.11-.16-.11-.26c0-.06.02-.12.06-.19.64-1.18,1.1-2.25,1.38-3.21s.41-1.92.41-2.88-.14-1.93-.41-2.89-.74-2.03-1.38-3.22c-.04-.07-.06-.13-.06-.19,0-.1.04-.18.11-.25s.16-.11.27-.11c.08,0,.16.03.23.1.22.2.57.78,1.06,1.75s.83,1.82,1.02,2.57.28,1.49.28,2.25Z" fill="#333e48" stroke-width="0"/><path d="m186.91,392.37v6.13h3.24c.18,0,.3.03.38.1s.11.16.11.27c0,.11-.04.19-.11.26s-.2.11-.38.11h-5.77c-.18,0-.3-.04-.38-.11s-.11-.16-.11-.26c0-.11.04-.2.11-.27s.2-.1.38-.1h1.78v-6.13h-1.6c-.18,0-.3-.04-.38-.11s-.11-.16-.11-.27c0-.11.04-.19.11-.26s.2-.11.38-.11h1.6v-1.12c0-.62.25-1.16.76-1.62s1.17-.69,2-.69c.7,0,1.44.06,2.23.19.3.05.48.1.54.17s.09.15.09.25-.04.19-.11.26-.16.1-.28.1c-.05,0-.13,0-.24-.03-.88-.13-1.63-.2-2.24-.2-.64,0-1.14.16-1.49.47s-.52.68-.52,1.08v1.12h3.45c.18,0,.3.04.38.11s.11.16.11.27c0,.11-.04.19-.11.26s-.2.11-.38.11h-3.45Z" fill="#333e48" stroke-width="0"/><path d="m202.33,395.45c0,1.12-.4,2.09-1.21,2.88s-1.78,1.2-2.91,1.2-2.12-.4-2.93-1.2-1.2-1.76-1.2-2.88.4-2.09,1.2-2.89,1.78-1.2,2.93-1.2,2.11.4,2.91,1.2,1.21,1.76,1.21,2.89Zm-.75,0c0-.93-.33-1.71-.99-2.36s-1.46-.98-2.4-.98-1.74.33-2.4.98-.99,1.44-.99,2.36.33,1.7.99,2.36,1.46.98,2.4.98,1.74-.33,2.4-.98.99-1.44.99-2.36Z" fill="#333e48" stroke-width="0"/><path d="m208.12,391.62v1.86c.96-.87,1.68-1.42,2.16-1.67s.92-.37,1.32-.37c.44,0,.85.15,1.23.44s.57.52.57.67c0,.11-.04.2-.11.28s-.17.11-.28.11c-.06,0-.11,0-.15-.03s-.12-.09-.23-.2c-.21-.21-.38-.35-.54-.42s-.3-.11-.45-.11c-.32,0-.71.13-1.16.39s-1.24.89-2.36,1.89v4.04h3.27c.18,0,.31.03.39.1s.11.16.11.27c0,.11-.04.19-.11.26s-.21.11-.39.11h-5.79c-.18,0-.3-.03-.38-.1s-.11-.15-.11-.26c0-.1.04-.18.11-.25s.2-.1.38-.1h1.78v-6.15h-1.36c-.18,0-.3-.04-.38-.11s-.11-.16-.11-.27c0-.11.04-.19.11-.26s.2-.11.38-.11h2.1Z" fill="#333e48" stroke-width="0"/><path d="m222.35,399.23h-.91s-1.63-4.74-1.63-4.74l-1.62,4.75h-.91s-1.53-6.87-1.53-6.87h-.36c-.18,0-.3-.04-.38-.11s-.11-.16-.11-.27c0-.11.04-.19.11-.26s.2-.11.38-.11h2.03c.18,0,.3.04.38.11s.11.16.11.27c0,.11-.04.19-.11.26s-.2.11-.38.11h-.94l1.31,5.85,1.57-4.68h.88l1.62,4.68,1.26-5.85h-.93c-.18,0-.3-.04-.38-.11s-.12-.16-.12-.27c0-.11.04-.19.11-.26s.21-.11.39-.11h2.02c.18,0,.31.04.39.11s.11.16.11.27c0,.11-.04.19-.11.26s-.21.11-.39.11h-.35l-1.5,6.86Z" fill="#333e48" stroke-width="0"/><path d="m232.73,399.23v-1.06c-1.07.9-2.22,1.35-3.44,1.35-.88,0-1.58-.22-2.07-.67s-.75-1-.75-1.65c0-.71.33-1.34.98-1.87s1.61-.8,2.87-.8c.34,0,.71.02,1.11.07s.83.11,1.29.21v-1.2c0-.4-.19-.76-.56-1.05s-.94-.45-1.69-.45c-.57,0-1.38.17-2.42.5-.19.06-.31.09-.36.09-.09,0-.17-.04-.24-.11s-.1-.16-.1-.26c0-.1.03-.18.09-.24.08-.09.41-.21.99-.36.91-.25,1.61-.37,2.07-.37.93,0,1.66.23,2.18.69s.78.98.78,1.56v4.89h.98c.18,0,.31.03.39.1s.11.16.11.27c0,.11-.04.19-.11.26s-.21.11-.39.11h-1.73Zm0-3.67c-.35-.1-.71-.17-1.1-.22s-.79-.07-1.22-.07c-1.07,0-1.91.23-2.51.69-.46.35-.69.76-.69,1.24,0,.45.17.82.52,1.12s.86.46,1.52.46,1.23-.13,1.78-.38,1.11-.66,1.69-1.22v-1.63Z" fill="#333e48" stroke-width="0"/><path d="m240.53,391.62v1.86c.96-.87,1.68-1.42,2.16-1.67s.92-.37,1.32-.37c.44,0,.85.15,1.23.44s.57.52.57.67c0,.11-.04.2-.11.28s-.17.11-.28.11c-.06,0-.11,0-.15-.03s-.12-.09-.23-.2c-.21-.21-.38-.35-.54-.42s-.3-.11-.45-.11c-.32,0-.71.13-1.16.39s-1.24.89-2.36,1.89v4.04h3.27c.18,0,.31.03.39.1s.11.16.11.27c0,.11-.04.19-.11.26s-.21.11-.39.11h-5.79c-.18,0-.3-.03-.38-.1s-.11-.15-.11-.26c0-.1.04-.18.11-.25s.2-.1.38-.1h1.78v-6.15h-1.36c-.18,0-.3-.04-.38-.11s-.11-.16-.11-.27c0-.11.04-.19.11-.26s.2-.11.38-.11h2.1Z" fill="#333e48" stroke-width="0"/><path d="m255.83,388.2v10.29h.98c.18,0,.31.03.39.1s.11.16.11.27c0,.11-.04.19-.11.26s-.21.11-.39.11h-1.73v-1.47c-.86,1.17-1.94,1.76-3.26,1.76-.67,0-1.31-.18-1.92-.53s-1.1-.86-1.45-1.52-.53-1.33-.53-2.03.18-1.38.53-2.03.84-1.16,1.45-1.52,1.26-.54,1.93-.54c1.29,0,2.37.59,3.25,1.76v-4.17h-.98c-.18,0-.31-.04-.39-.11s-.11-.16-.11-.27c0-.11.04-.19.11-.26s.21-.11.39-.11h1.73Zm-.75,7.24c0-.94-.32-1.73-.95-2.37s-1.39-.97-2.26-.97-1.63.32-2.27.97-.95,1.44-.95,2.37.32,1.72.95,2.37,1.39.97,2.27.97,1.63-.32,2.26-.97.95-1.44.95-2.37Z" fill="#333e48" stroke-width="0"/><path d="m267.92,404.16h-9.82c-.18,0-.3-.03-.38-.1s-.11-.16-.11-.27.04-.2.11-.27.2-.1.38-.1h9.82c.18,0,.31.03.38.1s.11.16.11.27-.04.2-.11.27-.2.1-.38.1Z" fill="#333e48" stroke-width="0"/><path d="m274.46,399.23h-1.25l-3.03-6.86h-.76c-.18,0-.3-.04-.38-.11s-.11-.16-.11-.27c0-.11.04-.19.11-.26s.2-.11.38-.11h2.77c.18,0,.3.04.38.11s.11.16.11.27c0,.11-.04.19-.11.26s-.2.11-.38.11h-1.22l2.71,6.13h.33l2.65-6.13h-1.23c-.18,0-.3-.04-.38-.11s-.11-.16-.11-.27c0-.11.04-.19.11-.26s.2-.11.38-.11h2.78c.18,0,.31.04.38.11s.11.16.11.27c0,.11-.04.19-.11.26s-.2.11-.38.11h-.75l-3,6.86Z" fill="#333e48" stroke-width="0"/><path d="m285.01,391.62v6.87h2.9c.18,0,.31.03.39.1s.11.16.11.27c0,.11-.04.19-.11.26s-.21.11-.39.11h-6.54c-.18,0-.3-.04-.38-.11s-.11-.16-.11-.26c0-.11.04-.2.11-.27s.2-.1.38-.1h2.9v-6.13h-2.15c-.18,0-.3-.04-.38-.11s-.12-.16-.12-.26c0-.11.04-.2.11-.27s.21-.11.39-.11h2.89Zm-.03-3.79v1.91h-1.09v-1.91h1.09Z" fill="#333e48" stroke-width="0"/><path d="m294.54,391.62v1.86c.96-.87,1.68-1.42,2.16-1.67s.92-.37,1.32-.37c.44,0,.85.15,1.23.44s.57.52.57.67c0,.11-.04.2-.11.28s-.17.11-.28.11c-.06,0-.11,0-.15-.03s-.12-.09-.23-.2c-.21-.21-.38-.35-.54-.42s-.3-.11-.45-.11c-.32,0-.71.13-1.16.39s-1.24.89-2.36,1.89v4.04h3.27c.18,0,.31.03.39.1s.11.16.11.27c0,.11-.04.19-.11.26s-.21.11-.39.11h-5.79c-.18,0-.3-.03-.38-.1s-.11-.15-.11-.26c0-.1.04-.18.11-.25s.2-.1.38-.1h1.78v-6.15h-1.36c-.18,0-.3-.04-.38-.11s-.11-.16-.11-.27c0-.11.04-.19.11-.26s.2-.11.38-.11h2.1Z" fill="#333e48" stroke-width="0"/><path d="m304.7,391.62h4.01c.18,0,.3.04.38.11s.11.16.11.27c0,.11-.04.19-.11.26s-.2.11-.38.11h-4.01v4.91c0,.43.17.79.51,1.07s.85.43,1.51.43c.5,0,1.04-.07,1.62-.22s1.03-.32,1.35-.51c.12-.08.21-.11.29-.11.09,0,.18.04.25.11s.11.16.11.26c0,.09-.04.17-.11.25-.19.19-.64.4-1.37.63s-1.42.34-2.08.34c-.86,0-1.55-.2-2.06-.61s-.76-.95-.76-1.63v-4.91h-1.36c-.18,0-.3-.04-.38-.11s-.11-.16-.11-.27c0-.11.04-.19.11-.26s.2-.11.38-.11h1.36v-2.18c0-.18.04-.3.11-.38s.16-.11.26-.11c.11,0,.2.04.27.11s.11.2.11.38v2.18Z" fill="#333e48" stroke-width="0"/><path d="m319.55,399.23v-1.08c-1.01.91-2.1,1.37-3.27,1.37-.72,0-1.27-.2-1.64-.59-.49-.52-.73-1.12-.73-1.8v-4.76h-.99c-.18,0-.3-.04-.38-.11s-.11-.16-.11-.27c0-.11.04-.19.11-.26s.2-.11.38-.11h1.73v5.51c0,.48.15.88.46,1.19s.69.47,1.14.47c1.2,0,2.3-.55,3.3-1.65v-4.76h-1.36c-.18,0-.3-.04-.38-.11s-.11-.16-.11-.27c0-.11.04-.19.11-.26s.2-.11.38-.11h2.1v6.87h.62c.18,0,.3.03.38.1s.11.16.11.27c0,.11-.04.19-.11.26s-.2.11-.38.11h-1.36Z" fill="#333e48" stroke-width="0"/><path d="m329.95,399.23v-1.06c-1.07.9-2.22,1.35-3.44,1.35-.88,0-1.58-.22-2.07-.67s-.75-1-.75-1.65c0-.71.33-1.34.98-1.87s1.61-.8,2.87-.8c.34,0,.71.02,1.11.07s.83.11,1.29.21v-1.2c0-.4-.19-.76-.56-1.05s-.94-.45-1.69-.45c-.57,0-1.38.17-2.42.5-.19.06-.31.09-.36.09-.09,0-.17-.04-.24-.11s-.1-.16-.1-.26c0-.1.03-.18.09-.24.08-.09.41-.21.99-.36.91-.25,1.61-.37,2.07-.37.93,0,1.66.23,2.18.69s.78.98.78,1.56v4.89h.98c.18,0,.31.03.39.1s.11.16.11.27c0,.11-.04.19-.11.26s-.21.11-.39.11h-1.73Zm0-3.67c-.35-.1-.71-.17-1.1-.22s-.79-.07-1.22-.07c-1.07,0-1.91.23-2.51.69-.46.35-.69.76-.69,1.24,0,.45.17.82.52,1.12s.86.46,1.52.46,1.23-.13,1.78-.38,1.11-.66,1.69-1.22v-1.63Z" fill="#333e48" stroke-width="0"/><path d="m339,388.2v10.29h2.9c.18,0,.31.03.39.1s.11.16.11.27c0,.11-.04.19-.11.26s-.21.11-.39.11h-6.54c-.18,0-.3-.04-.38-.11s-.11-.16-.11-.26c0-.11.04-.2.11-.27s.2-.1.38-.1h2.9v-9.54h-2.13c-.18,0-.3-.04-.38-.11s-.12-.16-.12-.27c0-.11.04-.19.11-.26s.21-.11.39-.11h2.87Z" fill="#333e48" stroke-width="0"/><path d="m354.34,404.16h-9.82c-.18,0-.3-.03-.38-.1s-.11-.16-.11-.27.04-.2.11-.27.2-.1.38-.1h9.82c.18,0,.31.03.38.1s.11.16.11.27-.04.2-.11.27-.2.1-.38.1Z" fill="#333e48" stroke-width="0"/><path d="m360.62,391.62v6.87h2.9c.18,0,.31.03.39.1s.11.16.11.27c0,.11-.04.19-.11.26s-.21.11-.39.11h-6.54c-.18,0-.3-.04-.38-.11s-.11-.16-.11-.26c0-.11.04-.2.11-.27s.2-.1.38-.1h2.9v-6.13h-2.15c-.18,0-.3-.04-.38-.11s-.12-.16-.12-.26c0-.11.04-.2.11-.27s.21-.11.39-.11h2.89Zm-.03-3.79v1.91h-1.09v-1.91h1.09Z" fill="#333e48" stroke-width="0"/><path d="m368.64,391.62v1.12c.52-.52.98-.88,1.4-1.08s.88-.3,1.41-.3c.56,0,1.08.12,1.54.36.33.18.63.47.89.88s.4.82.4,1.25v4.65h.62c.18,0,.3.03.38.1s.11.16.11.27c0,.11-.04.19-.11.26s-.2.11-.38.11h-1.98c-.18,0-.31-.04-.39-.11s-.11-.16-.11-.26c0-.11.04-.2.11-.27s.21-.1.39-.1h.62v-4.53c0-.52-.19-.96-.57-1.32s-.89-.54-1.53-.54c-.49,0-.91.1-1.27.29s-.87.68-1.53,1.46v4.63h.83c.18,0,.3.03.38.1s.11.16.11.27c0,.11-.04.19-.11.26s-.2.11-.38.11h-2.41c-.18,0-.3-.04-.38-.11s-.11-.16-.11-.26c0-.11.04-.2.11-.27s.2-.1.38-.1h.83v-6.13h-.62c-.18,0-.3-.04-.38-.11s-.11-.16-.11-.27c0-.11.04-.19.11-.26s.2-.11.38-.11h1.36Z" fill="#333e48" stroke-width="0"/><path d="m380.32,391.62h4.01c.18,0,.3.04.38.11s.11.16.11.27c0,.11-.04.19-.11.26s-.2.11-.38.11h-4.01v4.91c0,.43.17.79.51,1.07s.85.43,1.51.43c.5,0,1.04-.07,1.62-.22s1.03-.32,1.35-.51c.12-.08.21-.11.29-.11.09,0,.18.04.25.11s.11.16.11.26c0,.09-.04.17-.11.25-.19.19-.64.4-1.37.63s-1.42.34-2.08.34c-.86,0-1.55-.2-2.06-.61s-.76-.95-.76-1.63v-4.91h-1.36c-.18,0-.3-.04-.38-.11s-.11-.16-.11-.27c0-.11.04-.19.11-.26s.2-.11.38-.11h1.36v-2.18c0-.18.04-.3.11-.38s.16-.11.26-.11c.11,0,.2.04.27.11s.11.2.11.38v2.18Z" fill="#333e48" stroke-width="0"/><path d="m396.63,395.6h-7.52c.13.96.53,1.72,1.2,2.31s1.5.87,2.49.87c.55,0,1.13-.09,1.73-.27s1.1-.42,1.48-.72c.11-.09.21-.13.29-.13.09,0,.18.04.25.11s.11.16.11.26-.05.2-.14.29c-.28.29-.78.57-1.5.82s-1.45.38-2.21.38c-1.27,0-2.32-.41-3.17-1.24s-1.27-1.83-1.27-3.01c0-1.07.4-1.99,1.19-2.76s1.78-1.15,2.95-1.15,2.2.39,2.98,1.18,1.16,1.81,1.15,3.06Zm-.75-.75c-.15-.81-.53-1.48-1.16-1.99s-1.37-.76-2.23-.76-1.6.25-2.22.76-1.01,1.17-1.16,2h6.77Z" fill="#333e48" stroke-width="0"/><path d="m402.55,391.62v1.86c.96-.87,1.68-1.42,2.16-1.67s.92-.37,1.32-.37c.44,0,.85.15,1.23.44s.57.52.57.67c0,.11-.04.2-.11.28s-.17.11-.28.11c-.06,0-.11,0-.15-.03s-.12-.09-.23-.2c-.21-.21-.38-.35-.54-.42s-.3-.11-.45-.11c-.32,0-.71.13-1.16.39s-1.24.89-2.36,1.89v4.04h3.27c.18,0,.31.03.39.1s.11.16.11.27c0,.11-.04.19-.11.26s-.21.11-.39.11h-5.79c-.18,0-.3-.03-.38-.1s-.11-.15-.11-.26c0-.1.04-.18.11-.25s.2-.1.38-.1h1.78v-6.15h-1.36c-.18,0-.3-.04-.38-.11s-.11-.16-.11-.27c0-.11.04-.19.11-.26s.2-.11.38-.11h2.1Z" fill="#333e48" stroke-width="0"/><path d="m413.35,391.62v1.86c.96-.87,1.68-1.42,2.16-1.67s.92-.37,1.32-.37c.44,0,.85.15,1.23.44s.57.52.57.67c0,.11-.04.2-.11.28s-.17.11-.28.11c-.06,0-.11,0-.15-.03s-.12-.09-.23-.2c-.21-.21-.38-.35-.54-.42s-.3-.11-.45-.11c-.32,0-.71.13-1.16.39s-1.24.89-2.36,1.89v4.04h3.27c.18,0,.31.03.39.1s.11.16.11.27c0,.11-.04.19-.11.26s-.21.11-.39.11h-5.79c-.18,0-.3-.03-.38-.1s-.11-.15-.11-.26c0-.1.04-.18.11-.25s.2-.1.38-.1h1.78v-6.15h-1.36c-.18,0-.3-.04-.38-.11s-.11-.16-.11-.27c0-.11.04-.19.11-.26s.2-.11.38-.11h2.1Z" fill="#333e48" stroke-width="0"/><path d="m427.57,399.23v-1.08c-1.01.91-2.1,1.37-3.27,1.37-.72,0-1.27-.2-1.64-.59-.49-.52-.73-1.12-.73-1.8v-4.76h-.99c-.18,0-.3-.04-.38-.11s-.11-.16-.11-.27c0-.11.04-.19.11-.26s.2-.11.38-.11h1.73v5.51c0,.48.15.88.46,1.19s.69.47,1.14.47c1.2,0,2.3-.55,3.3-1.65v-4.76h-1.36c-.18,0-.3-.04-.38-.11s-.11-.16-.11-.27c0-.11.04-.19.11-.26s.2-.11.38-.11h2.1v6.87h.62c.18,0,.3.03.38.1s.11.16.11.27c0,.11-.04.19-.11.26s-.2.11-.38.11h-1.36Z" fill="#333e48" stroke-width="0"/><path d="m433.06,391.62v1.34c.44-.53.91-.93,1.42-1.2s1.1-.4,1.78-.4c.73,0,1.4.17,2.01.51s1.09.81,1.43,1.42.51,1.24.51,1.91c0,1.06-.38,1.97-1.14,2.72s-1.69,1.13-2.8,1.13c-1.32,0-2.39-.54-3.21-1.61v4.45h1.79c.18,0,.3.03.38.1s.11.16.11.27c0,.11-.04.19-.11.26s-.2.11-.38.11h-3.52c-.18,0-.3-.03-.38-.1s-.11-.16-.11-.27.04-.2.11-.27.2-.1.38-.1h.99v-9.52h-.99c-.18,0-.3-.04-.38-.11s-.11-.16-.11-.27c0-.11.04-.19.11-.26s.2-.11.38-.11h1.73Zm6.4,3.58c0-.85-.31-1.58-.93-2.18s-1.37-.91-2.26-.91-1.66.3-2.28.91-.93,1.34-.93,2.18.31,1.58.93,2.19,1.38.91,2.28.91,1.64-.3,2.26-.91.93-1.34.93-2.19Z" fill="#333e48" stroke-width="0"/><path d="m445.13,391.62h4.01c.18,0,.3.04.38.11s.11.16.11.27c0,.11-.04.19-.11.26s-.2.11-.38.11h-4.01v4.91c0,.43.17.79.51,1.07s.85.43,1.51.43c.5,0,1.04-.07,1.62-.22s1.03-.32,1.35-.51c.12-.08.21-.11.29-.11.09,0,.18.04.25.11s.11.16.11.26c0,.09-.04.17-.11.25-.19.19-.64.4-1.37.63s-1.42.34-2.08.34c-.86,0-1.55-.2-2.06-.61s-.76-.95-.76-1.63v-4.91h-1.36c-.18,0-.3-.04-.38-.11s-.11-.16-.11-.27c0-.11.04-.19.11-.26s.2-.11.38-.11h1.36v-2.18c0-.18.04-.3.11-.38s.16-.11.26-.11c.11,0,.2.04.27.11s.11.2.11.38v2.18Z" fill="#333e48" stroke-width="0"/><path d="m457.36,394.86c0-.67.09-1.39.26-2.14s.51-1.63,1.01-2.62.86-1.59,1.09-1.79c.07-.06.15-.1.23-.1.11,0,.19.04.27.11s.11.16.11.25c0,.06-.02.12-.06.19-.64,1.18-1.1,2.26-1.38,3.22s-.41,1.92-.41,2.88.14,1.93.41,2.89.74,2.03,1.38,3.21c.04.07.06.13.06.19,0,.1-.04.19-.11.26s-.16.11-.27.11c-.08,0-.16-.03-.23-.1-.22-.2-.57-.78-1.06-1.75s-.83-1.82-1.02-2.57-.28-1.49-.28-2.25Z" fill="#333e48" stroke-width="0"/><path d="m468.46,394.87c0,.67-.09,1.39-.26,2.14s-.51,1.63-1.01,2.62-.86,1.59-1.09,1.79c-.07.07-.15.11-.23.11-.11,0-.19-.04-.27-.11s-.11-.16-.11-.26c0-.06.02-.12.06-.19.64-1.18,1.1-2.25,1.38-3.21s.41-1.92.41-2.88-.14-1.93-.41-2.89-.74-2.03-1.38-3.22c-.04-.07-.06-.13-.06-.19,0-.1.04-.18.11-.25s.16-.11.27-.11c.08,0,.16.03.23.1.22.2.57.78,1.06,1.75s.83,1.82,1.02,2.57.28,1.49.28,2.25Z" fill="#333e48" stroke-width="0"/><path d="m186.52,413.22v1.86c.96-.87,1.68-1.43,2.16-1.67s.92-.37,1.32-.37c.44,0,.85.15,1.23.44s.57.52.57.67c0,.11-.04.2-.11.28s-.17.11-.28.11c-.06,0-.11-.01-.15-.03s-.12-.09-.23-.2c-.21-.21-.38-.35-.54-.42s-.3-.11-.45-.11c-.32,0-.71.13-1.16.39s-1.24.89-2.36,1.89v4.04h3.27c.18,0,.31.03.39.1s.11.16.11.27c0,.11-.04.19-.11.26s-.21.11-.39.11h-5.79c-.18,0-.3-.03-.38-.1s-.11-.15-.11-.26c0-.1.04-.18.11-.25s.2-.1.38-.1h1.78v-6.15h-1.36c-.18,0-.3-.04-.38-.11s-.11-.16-.11-.27c0-.11.04-.19.11-.26s.2-.11.38-.11h2.1Z" fill="#333e48" stroke-width="0"/><path d="m202.2,417.2h-7.52c.13.96.53,1.72,1.2,2.31s1.5.88,2.49.88c.55,0,1.13-.09,1.73-.27s1.1-.42,1.48-.72c.11-.09.21-.13.29-.13.09,0,.18.04.25.11s.11.16.11.26-.05.2-.14.29c-.28.29-.78.57-1.5.82s-1.45.38-2.21.38c-1.27,0-2.32-.42-3.17-1.24s-1.27-1.83-1.27-3.01c0-1.07.4-1.99,1.19-2.76s1.78-1.15,2.95-1.15,2.2.39,2.98,1.18,1.16,1.81,1.15,3.06Zm-.75-.75c-.15-.81-.53-1.48-1.16-1.99s-1.37-.76-2.23-.76-1.6.25-2.22.76-1.01,1.17-1.16,2h6.77Z" fill="#333e48" stroke-width="0"/><path d="m207.49,413.22h4.01c.18,0,.3.04.38.11s.11.16.11.27c0,.11-.04.19-.11.26s-.2.11-.38.11h-4.01v4.91c0,.43.17.79.51,1.07s.85.43,1.51.43c.5,0,1.04-.08,1.62-.22s1.03-.32,1.35-.5c.12-.08.21-.11.29-.11.09,0,.18.04.25.11s.11.16.11.26c0,.09-.04.17-.11.25-.19.19-.64.4-1.37.63s-1.42.34-2.08.34c-.86,0-1.55-.2-2.06-.61s-.76-.95-.76-1.63v-4.91h-1.36c-.18,0-.3-.04-.38-.11s-.11-.16-.11-.27c0-.11.04-.19.11-.26s.2-.11.38-.11h1.36v-2.18c0-.18.04-.3.11-.38s.16-.11.26-.11c.11,0,.2.04.27.11s.11.2.11.38v2.18Z" fill="#333e48" stroke-width="0"/><path d="m222.33,420.83v-1.08c-1.01.91-2.1,1.37-3.27,1.37-.72,0-1.27-.2-1.64-.59-.49-.52-.73-1.12-.73-1.8v-4.76h-.99c-.18,0-.3-.04-.38-.11s-.11-.16-.11-.27c0-.11.04-.19.11-.26s.2-.11.38-.11h1.73v5.51c0,.48.15.88.46,1.19s.69.47,1.14.47c1.2,0,2.3-.55,3.3-1.65v-4.76h-1.36c-.18,0-.3-.04-.38-.11s-.11-.16-.11-.27c0-.11.04-.19.11-.26s.2-.11.38-.11h2.1v6.87h.62c.18,0,.3.03.38.1s.11.16.11.27c0,.11-.04.19-.11.26s-.2.11-.38.11h-1.36Z" fill="#333e48" stroke-width="0"/><path d="m229.72,413.22v1.86c.96-.87,1.68-1.43,2.16-1.67s.92-.37,1.32-.37c.44,0,.85.15,1.23.44s.57.52.57.67c0,.11-.04.2-.11.28s-.17.11-.28.11c-.06,0-.11-.01-.15-.03s-.12-.09-.23-.2c-.21-.21-.38-.35-.54-.42s-.3-.11-.45-.11c-.32,0-.71.13-1.16.39s-1.24.89-2.36,1.89v4.04h3.27c.18,0,.31.03.39.1s.11.16.11.27c0,.11-.04.19-.11.26s-.21.11-.39.11h-5.79c-.18,0-.3-.03-.38-.1s-.11-.15-.11-.26c0-.1.04-.18.11-.25s.2-.1.38-.1h1.78v-6.15h-1.36c-.18,0-.3-.04-.38-.11s-.11-.16-.11-.27c0-.11.04-.19.11-.26s.2-.11.38-.11h2.1Z" fill="#333e48" stroke-width="0"/><path d="m239.02,413.22v1.12c.52-.52.98-.88,1.4-1.08s.88-.3,1.41-.3c.56,0,1.08.12,1.54.36.33.18.63.47.89.87s.4.83.4,1.25v4.65h.62c.18,0,.3.03.38.1s.11.16.11.27c0,.11-.04.19-.11.26s-.2.11-.38.11h-1.98c-.18,0-.31-.04-.39-.11s-.11-.16-.11-.26c0-.11.04-.2.11-.27s.21-.1.39-.1h.62v-4.53c0-.52-.19-.96-.57-1.32s-.89-.54-1.53-.54c-.49,0-.91.1-1.27.29s-.87.68-1.53,1.46v4.63h.83c.18,0,.3.03.38.1s.11.16.11.27c0,.11-.04.19-.11.26s-.2.11-.38.11h-2.41c-.18,0-.3-.04-.38-.11s-.11-.16-.11-.26c0-.11.04-.2.11-.27s.2-.1.38-.1h.83v-6.13h-.62c-.18,0-.3-.04-.38-.11s-.11-.16-.11-.27c0-.11.04-.19.11-.26s.2-.11.38-.11h1.36Z" fill="#333e48" stroke-width="0"/><path d="m257.12,425.76h-9.82c-.18,0-.3-.03-.38-.1s-.11-.16-.11-.27.04-.2.11-.27.2-.1.38-.1h9.82c.18,0,.31.03.38.1s.11.16.11.27-.04.2-.11.27-.2.1-.38.1Z" fill="#333e48" stroke-width="0"/><path d="m261.5,413.22h4.01c.18,0,.3.04.38.11s.11.16.11.27c0,.11-.04.19-.11.26s-.2.11-.38.11h-4.01v4.91c0,.43.17.79.51,1.07s.85.43,1.51.43c.5,0,1.04-.08,1.62-.22s1.03-.32,1.35-.5c.12-.08.21-.11.29-.11.09,0,.18.04.25.11s.11.16.11.26c0,.09-.04.17-.11.25-.19.19-.64.4-1.37.63s-1.42.34-2.08.34c-.86,0-1.55-.2-2.06-.61s-.76-.95-.76-1.63v-4.91h-1.36c-.18,0-.3-.04-.38-.11s-.11-.16-.11-.27c0-.11.04-.19.11-.26s.2-.11.38-.11h1.36v-2.18c0-.18.04-.3.11-.38s.16-.11.26-.11c.11,0,.2.04.27.11s.11.2.11.38v2.18Z" fill="#333e48" stroke-width="0"/><path d="m277.94,417.05c0,1.12-.4,2.09-1.21,2.88s-1.78,1.2-2.91,1.2-2.12-.4-2.93-1.2-1.2-1.76-1.2-2.88.4-2.09,1.2-2.89,1.78-1.2,2.93-1.2,2.11.4,2.91,1.2,1.21,1.76,1.21,2.89Zm-.75,0c0-.93-.33-1.71-.99-2.36s-1.46-.98-2.4-.98-1.74.33-2.4.98-.99,1.44-.99,2.36.33,1.7.99,2.36,1.46.98,2.4.98,1.74-.33,2.4-.98.99-1.44.99-2.36Z" fill="#333e48" stroke-width="0"/><path d="m289.53,425.76h-9.82c-.18,0-.3-.03-.38-.1s-.11-.16-.11-.27.04-.2.11-.27.2-.1.38-.1h9.82c.18,0,.31.03.38.1s.11.16.11.27-.04.2-.11.27-.2.1-.38.1Z" fill="#333e48" stroke-width="0"/><path d="m296.06,420.83h-1.25l-3.03-6.86h-.76c-.18,0-.3-.04-.38-.11s-.11-.16-.11-.27c0-.11.04-.19.11-.26s.2-.11.38-.11h2.77c.18,0,.3.04.38.11s.11.16.11.27c0,.11-.04.19-.11.26s-.2.11-.38.11h-1.22l2.71,6.13h.33l2.65-6.13h-1.23c-.18,0-.3-.04-.38-.11s-.11-.16-.11-.27c0-.11.04-.19.11-.26s.2-.11.38-.11h2.78c.18,0,.31.04.38.11s.11.16.11.27c0,.11-.04.19-.11.26s-.2.11-.38.11h-.75l-3,6.86Z" fill="#333e48" stroke-width="0"/><path d="m309.3,413.97v-.25c0-.18.04-.31.11-.39s.16-.11.26-.11c.11,0,.2.04.27.11s.11.21.11.39v1.67c0,.18-.04.31-.11.39s-.16.11-.27.11c-.1,0-.18-.03-.25-.1s-.11-.18-.12-.34c-.04-.42-.31-.81-.82-1.19s-1.2-.56-2.07-.56c-1.1,0-1.93.34-2.5,1.03s-.85,1.47-.85,2.36c0,.96.31,1.74.94,2.36s1.44.93,2.43.93c.57,0,1.16-.11,1.75-.32s1.13-.55,1.61-1.02c.12-.12.23-.18.33-.18.1,0,.18.03.25.1s.1.15.1.25c0,.25-.3.57-.89.96-.96.63-2.02.94-3.19.94s-2.17-.38-2.93-1.14-1.15-1.72-1.15-2.89.39-2.18,1.17-2.96,1.77-1.18,2.96-1.18,2.08.34,2.85,1.01Z" fill="#333e48" stroke-width="0"/><path d="m314.24,413.22v1.34c.44-.53.91-.93,1.42-1.2s1.1-.4,1.78-.4c.73,0,1.4.17,2.01.51s1.09.81,1.43,1.42.51,1.24.51,1.91c0,1.06-.38,1.97-1.14,2.72s-1.69,1.13-2.8,1.13c-1.32,0-2.39-.54-3.21-1.61v4.45h1.79c.18,0,.3.03.38.1s.11.16.11.27c0,.11-.04.19-.11.26s-.2.11-.38.11h-3.52c-.18,0-.3-.03-.38-.1s-.11-.16-.11-.27.04-.2.11-.27.2-.1.38-.1h.99v-9.52h-.99c-.18,0-.3-.04-.38-.11s-.11-.16-.11-.27c0-.11.04-.19.11-.26s.2-.11.38-.11h1.73Zm6.4,3.58c0-.85-.31-1.58-.93-2.18s-1.37-.91-2.26-.91-1.66.3-2.28.91-.93,1.34-.93,2.18.31,1.58.93,2.19,1.38.91,2.28.91,1.64-.3,2.26-.91.93-1.34.93-2.19Z" fill="#333e48" stroke-width="0"/><path d="m330.35,420.83v-1.08c-1.01.91-2.1,1.37-3.27,1.37-.72,0-1.27-.2-1.64-.59-.49-.52-.73-1.12-.73-1.8v-4.76h-.99c-.18,0-.3-.04-.38-.11s-.11-.16-.11-.27c0-.11.04-.19.11-.26s.2-.11.38-.11h1.73v5.51c0,.48.15.88.46,1.19s.69.47,1.14.47c1.2,0,2.3-.55,3.3-1.65v-4.76h-1.36c-.18,0-.3-.04-.38-.11s-.11-.16-.11-.27c0-.11.04-.19.11-.26s.2-.11.38-.11h2.1v6.87h.62c.18,0,.3.03.38.1s.11.16.11.27c0,.11-.04.19-.11.26s-.2.11-.38.11h-1.36Z" fill="#333e48" stroke-width="0"/><path d="m338.54,416.46c0-.67.09-1.39.26-2.14s.51-1.63,1.01-2.62.86-1.59,1.09-1.79c.07-.06.15-.1.23-.1.11,0,.19.04.27.11s.11.16.11.25c0,.06-.02.12-.06.19-.64,1.18-1.1,2.26-1.38,3.22s-.41,1.92-.41,2.88.14,1.93.41,2.89.74,2.03,1.38,3.21c.04.07.06.13.06.19,0,.1-.04.19-.11.26s-.16.11-.27.11c-.08,0-.16-.03-.23-.1-.22-.2-.57-.78-1.06-1.75s-.83-1.82-1.02-2.57-.28-1.49-.28-2.25Z" fill="#333e48" stroke-width="0"/><path d="m349.64,416.47c0,.67-.09,1.39-.26,2.14s-.51,1.63-1.01,2.62-.86,1.59-1.09,1.79c-.07.07-.15.11-.23.11-.11,0-.19-.04-.27-.11s-.11-.16-.11-.26c0-.06.02-.12.06-.19.64-1.18,1.1-2.25,1.38-3.21s.41-1.92.41-2.88-.14-1.93-.41-2.89-.74-2.03-1.38-3.22c-.04-.07-.06-.13-.06-.19,0-.1.04-.18.11-.25s.16-.11.27-.11c.08,0,.16.03.23.1.22.2.57.78,1.06,1.75s.83,1.82,1.02,2.57.28,1.49.28,2.25Z" fill="#333e48" stroke-width="0"/><path d="m202.29,293.04h-4.9v4.24h.99c.18,0,.3.03.38.1s.11.16.11.27c0,.11-.04.19-.11.26s-.2.11-.38.11h-2.57c-.18,0-.3-.04-.38-.11s-.11-.16-.11-.26c0-.11.04-.2.11-.27s.2-.1.38-.1h.83v-8.81h-.46c-.18,0-.31-.03-.39-.1s-.11-.16-.11-.27.04-.2.11-.27.21-.1.39-.1h2.19c.18,0,.3.03.38.1s.11.16.11.27-.04.2-.11.27-.2.1-.38.1h-.99v3.83h4.9v-3.83h-.98c-.18,0-.3-.03-.38-.1s-.11-.16-.11-.27.04-.2.11-.27.2-.1.38-.1h2.19c.18,0,.31.03.39.1s.11.16.11.27-.04.2-.11.27-.21.1-.39.1h-.46v8.81h.83c.18,0,.3.03.38.1s.11.16.11.27c0,.11-.04.19-.11.26s-.2.11-.38.11h-2.57c-.18,0-.3-.04-.38-.11s-.11-.16-.11-.26c0-.11.04-.2.11-.27s.2-.1.38-.1h.98v-4.24Z" fill="#333e48" stroke-width="0"/><path d="m213.84,288.74v-.52c0-.18.03-.3.1-.38s.16-.11.27-.11.2.04.27.11.1.2.1.38v2.05c0,.18-.03.31-.1.39s-.16.11-.27.11c-.1,0-.18-.04-.25-.11s-.11-.18-.12-.34c-.03-.49-.3-.93-.8-1.31-.68-.52-1.45-.78-2.32-.78-.57,0-1.1.13-1.61.38-.38.18-.67.4-.9.67-.39.46-.69.96-.92,1.52-.16.41-.25.87-.25,1.39v1.29c0,1.1.4,2.06,1.2,2.87s1.72,1.22,2.78,1.22c.63,0,1.2-.14,1.7-.41s.99-.69,1.45-1.25c.1-.12.21-.18.33-.18.11,0,.19.03.25.1s.1.15.1.25c0,.13-.13.34-.38.62-.48.54-1.02.95-1.62,1.22s-1.21.41-1.82.41c-.53,0-1.08-.1-1.63-.31-.42-.16-.77-.34-1.05-.55s-.61-.57-1.02-1.07-.68-.96-.82-1.39-.22-.89-.22-1.4v-1.5c0-.73.19-1.47.58-2.23s.92-1.34,1.6-1.75,1.41-.61,2.2-.61c1.22,0,2.27.42,3.15,1.25Z" fill="#333e48" stroke-width="0"/><path d="m218.99,293.43v3.85h1.36c.18,0,.31.03.39.1s.11.16.11.27c0,.11-.04.19-.11.26s-.21.11-.39.11h-3.09c-.18,0-.3-.04-.38-.11s-.11-.16-.11-.26c0-.11.04-.2.11-.27s.2-.1.38-.1h.99v-8.81h-.99c-.18,0-.3-.03-.38-.1s-.11-.16-.11-.27.04-.2.11-.27.2-.1.38-.1h4.46c.92,0,1.69.29,2.32.88s.94,1.24.94,1.97c0,.53-.19,1.02-.58,1.49s-1.04.85-1.96,1.16c.53.36.98.77,1.35,1.23s.98,1.39,1.8,2.81h.56c.18,0,.3.03.38.1s.11.16.11.27c0,.11-.04.19-.11.26s-.2.11-.38.11h-.98c-.91-1.63-1.62-2.73-2.12-3.29s-1.08-.99-1.73-1.3h-2.35Zm0-.74h2.01c.64,0,1.23-.12,1.75-.35s.91-.51,1.14-.83.36-.64.36-.97c0-.49-.25-.96-.74-1.41s-1.1-.67-1.81-.67h-2.72v4.22Z" fill="#333e48" stroke-width="0"/><path d="m237.1,302.95h-9.82c-.18,0-.3-.03-.38-.1s-.11-.16-.11-.27.04-.2.11-.27.2-.1.38-.1h9.82c.18,0,.31.03.38.1s.11.16.11.27-.04.2-.11.27-.2.1-.38.1Z" fill="#333e48" stroke-width="0"/><path d="m240.59,293.05v4.23h5.68v-2.18c0-.18.03-.3.1-.38s.16-.11.27-.11.2.04.27.11.1.2.1.38v2.92h-8.15c-.18,0-.3-.04-.38-.11s-.11-.16-.11-.26c0-.11.04-.2.11-.27s.2-.1.38-.1h.99v-8.81h-.99c-.18,0-.3-.03-.38-.1s-.11-.16-.11-.27.04-.2.11-.27.2-.1.38-.1h7.76v2.54c0,.18-.03.3-.1.38s-.16.11-.27.11-.2-.04-.27-.11-.1-.2-.1-.38v-1.8h-5.29v3.84h2.65v-.83c0-.18.04-.3.11-.38s.16-.11.27-.11c.11,0,.19.04.26.11s.11.2.11.38v2.41c0,.18-.04.3-.11.38s-.16.11-.26.11c-.11,0-.2-.04-.27-.11s-.11-.2-.11-.38v-.83h-2.65Z" fill="#333e48" stroke-width="0"/><path d="m252.52,288.47v8.81h4.9v-2.94c0-.18.04-.3.11-.38s.16-.11.27-.11c.11,0,.19.04.26.11s.11.2.11.38v3.67h-8.16c-.18,0-.3-.04-.38-.11s-.11-.16-.11-.26c0-.11.04-.2.11-.27s.2-.1.38-.1h1.76v-8.81h-1.76c-.18,0-.3-.03-.38-.1s-.11-.16-.11-.27.04-.2.11-.27.2-.1.38-.1h4.26c.18,0,.3.03.38.1s.11.16.11.27-.04.2-.11.27-.2.1-.38.1h-1.76Z" fill="#333e48" stroke-width="0"/><path d="m261.42,297.28h5.67v-.29c0-.18.04-.3.11-.38s.16-.11.27-.11c.11,0,.19.04.26.11s.11.2.11.38v1.03h-7.14v-1.09c1.5-1.35,2.96-2.72,4.38-4.11.66-.65,1.12-1.13,1.36-1.43s.41-.57.51-.8.14-.46.14-.7c0-.63-.25-1.19-.76-1.68s-1.12-.73-1.85-.73c-.64,0-1.22.18-1.71.55s-.82.83-.97,1.37c-.04.14-.08.23-.13.27-.07.06-.15.09-.25.09-.1,0-.18-.03-.25-.1s-.1-.15-.1-.24c0-.28.15-.66.46-1.14s.73-.86,1.27-1.13,1.1-.41,1.67-.41c.92,0,1.71.32,2.37.96s.99,1.36.99,2.17c0,.34-.06.65-.17.94s-.3.59-.57.93-.75.84-1.44,1.52c-1.73,1.71-3.15,3.04-4.24,3.98v.05Z" fill="#333e48" stroke-width="0"/><path d="m153.01,173.99v3.29h1.36c.18,0,.31.03.39.1s.11.16.11.27c0,.11-.04.19-.11.26s-.21.11-.39.11h-3.09c-.18,0-.3-.04-.38-.11s-.11-.16-.11-.26c0-.11.04-.2.11-.27s.2-.1.38-.1h.99v-8.81h-.99c-.18,0-.3-.03-.38-.1s-.11-.16-.11-.27.04-.2.11-.27.2-.1.38-.1h3.09c.18,0,.31.03.39.1s.11.16.11.27-.04.2-.11.27-.21.1-.39.1h-1.36v4.54l5.1-4.54h-.81c-.18,0-.31-.03-.39-.1s-.11-.16-.11-.27.04-.2.11-.27.21-.1.39-.1h2.17c.18,0,.3.03.38.1s.11.16.11.27-.04.2-.11.27-.2.1-.38.1h-.3l-4.06,3.63c.6.25,1.1.55,1.5.92s.78.89,1.15,1.57c.21.38.6,1.27,1.16,2.68h.92c.18,0,.31.03.39.1s.11.16.11.27c0,.11-.04.19-.11.26s-.21.11-.39.11h-1.42c-.77-2.12-1.42-3.48-1.95-4.08s-1.19-1.03-1.98-1.28l-1.49,1.34Z" fill="#333e48" stroke-width="0"/><path d="m170.2,174.39h-7.52c.13.96.53,1.72,1.2,2.31s1.5.87,2.49.87c.55,0,1.13-.09,1.73-.27s1.1-.42,1.48-.72c.11-.09.21-.13.29-.13.09,0,.18.04.25.11s.11.16.11.26-.05.2-.14.29c-.28.29-.78.57-1.5.82s-1.45.38-2.21.38c-1.27,0-2.32-.41-3.17-1.24s-1.27-1.83-1.27-3.01c0-1.07.4-1.99,1.19-2.76s1.78-1.15,2.95-1.15,2.2.39,2.98,1.18,1.16,1.81,1.15,3.06Zm-.75-.75c-.15-.81-.53-1.48-1.16-1.99s-1.37-.76-2.23-.76-1.6.25-2.22.76-1.01,1.17-1.16,2h6.77Z" fill="#333e48" stroke-width="0"/><path d="m176.12,170.41v1.86c.96-.87,1.68-1.42,2.16-1.67s.92-.37,1.32-.37c.44,0,.85.15,1.23.44s.57.52.57.67c0,.11-.04.2-.11.28s-.17.11-.28.11c-.06,0-.11,0-.15-.03s-.12-.09-.23-.2c-.21-.21-.38-.35-.54-.42s-.3-.11-.45-.11c-.32,0-.71.13-1.16.39s-1.24.89-2.36,1.89v4.04h3.27c.18,0,.31.03.39.1s.11.16.11.27c0,.11-.04.19-.11.26s-.21.11-.39.11h-5.79c-.18,0-.3-.03-.38-.1s-.11-.15-.11-.26c0-.1.04-.18.11-.25s.2-.1.38-.1h1.78v-6.15h-1.36c-.18,0-.3-.04-.38-.11s-.11-.16-.11-.27c0-.11.04-.19.11-.26s.2-.11.38-.11h2.1Z" fill="#333e48" stroke-width="0"/><path d="m185.42,170.41v1.12c.52-.52.98-.88,1.4-1.08s.88-.3,1.41-.3c.56,0,1.08.12,1.54.36.33.18.63.47.89.88s.4.82.4,1.25v4.65h.62c.18,0,.3.03.38.1s.11.16.11.27c0,.11-.04.19-.11.26s-.2.11-.38.11h-1.98c-.18,0-.31-.04-.39-.11s-.11-.16-.11-.26c0-.11.04-.2.11-.27s.21-.1.39-.1h.62v-4.53c0-.52-.19-.96-.57-1.32s-.89-.54-1.53-.54c-.49,0-.91.1-1.27.29s-.87.68-1.53,1.46v4.63h.83c.18,0,.3.03.38.1s.11.16.11.27c0,.11-.04.19-.11.26s-.2.11-.38.11h-2.41c-.18,0-.3-.04-.38-.11s-.11-.16-.11-.26c0-.11.04-.2.11-.27s.2-.1.38-.1h.83v-6.13h-.62c-.18,0-.3-.04-.38-.11s-.11-.16-.11-.27c0-.11.04-.19.11-.26s.2-.11.38-.11h1.36Z" fill="#333e48" stroke-width="0"/><path d="m202.6,174.39h-7.52c.13.96.53,1.72,1.2,2.31s1.5.87,2.49.87c.55,0,1.13-.09,1.73-.27s1.1-.42,1.48-.72c.11-.09.21-.13.29-.13.09,0,.18.04.25.11s.11.16.11.26-.05.2-.14.29c-.28.29-.78.57-1.5.82s-1.45.38-2.21.38c-1.27,0-2.32-.41-3.17-1.24s-1.27-1.83-1.27-3.01c0-1.07.4-1.99,1.19-2.76s1.78-1.15,2.95-1.15,2.2.39,2.98,1.18,1.16,1.81,1.15,3.06Zm-.75-.75c-.15-.81-.53-1.48-1.16-1.99s-1.37-.76-2.23-.76-1.6.25-2.22.76-1.01,1.17-1.16,2h6.77Z" fill="#333e48" stroke-width="0"/><path d="m209.78,166.99v10.29h2.9c.18,0,.31.03.39.1s.11.16.11.27c0,.11-.04.19-.11.26s-.21.11-.39.11h-6.54c-.18,0-.3-.04-.38-.11s-.11-.16-.11-.26c0-.11.04-.2.11-.27s.2-.1.38-.1h2.9v-9.54h-2.13c-.18,0-.3-.04-.38-.11s-.12-.16-.12-.27c0-.11.04-.19.11-.26s.21-.11.39-.11h2.87Z" fill="#333e48" stroke-width="0"/><rect x="285" y="270" width="240" height="45" fill="none" stroke="#333e48" stroke-miterlimit="10"/><path d="m305.77,288.47v8.81h2.53c.18,0,.3.03.38.1s.11.16.11.27c0,.11-.04.19-.11.26s-.2.11-.38.11h-5.8c-.18,0-.3-.04-.38-.11s-.11-.16-.11-.26c0-.11.04-.2.11-.27s.2-.1.38-.1h2.53v-8.81h-2.53c-.18,0-.3-.03-.38-.1s-.11-.16-.11-.27.04-.2.11-.27.2-.1.38-.1h5.8c.18,0,.3.03.38.1s.11.16.11.27-.04.2-.11.27-.2.1-.38.1h-2.53Z" fill="#333e48" stroke-width="0"/><path d="m316.69,294.93h-.84l-2.84-6.46h-.14v8.81h1.36c.18,0,.3.03.38.1s.11.16.11.27c0,.11-.04.19-.11.26s-.2.11-.38.11h-2.72c-.18,0-.3-.04-.38-.11s-.11-.16-.11-.26c0-.11.04-.2.11-.27s.2-.1.38-.1h.62v-8.81h-.47c-.18,0-.3-.03-.38-.1s-.11-.16-.11-.27.04-.2.11-.27.2-.1.38-.1h1.81l2.79,6.36,2.75-6.36h1.81c.18,0,.31.03.39.1s.11.16.11.27-.04.2-.11.27-.21.1-.39.1h-.46v8.81h.62c.18,0,.31.03.39.1s.11.16.11.27c0,.11-.04.19-.11.26s-.21.11-.39.11h-2.72c-.18,0-.3-.04-.38-.11s-.12-.16-.12-.26c0-.11.04-.2.11-.27s.21-.1.39-.1h1.36v-8.81h-.16l-2.79,6.46Z" fill="#333e48" stroke-width="0"/><path d="m331.52,292.9c0,.98-.2,1.9-.6,2.74s-.95,1.5-1.65,1.96-1.45.7-2.25.7c-1.19,0-2.24-.5-3.14-1.52s-1.36-2.31-1.36-3.89.45-2.89,1.36-3.89,1.95-1.51,3.14-1.51c.8,0,1.55.23,2.25.7s1.25,1.12,1.65,1.96.6,1.75.6,2.74Zm-.75,0c0-1.2-.35-2.28-1.05-3.23s-1.6-1.43-2.71-1.43c-1.04,0-1.92.46-2.66,1.37s-1.1,2.01-1.1,3.3c0,1.37.39,2.49,1.16,3.36s1.64,1.3,2.61,1.3c1.11,0,2.01-.48,2.71-1.43s1.05-2.03,1.05-3.24Z" fill="#333e48" stroke-width="0"/><path d="m341.84,291.91h-8.05c-.18,0-.3-.04-.38-.11s-.11-.16-.11-.27c0-.11.04-.19.11-.26s.2-.11.38-.11h8.05c.18,0,.3.04.38.11s.11.16.11.27c0,.11-.04.19-.11.26s-.2.11-.38.11Zm0,2.65h-8.05c-.18,0-.3-.03-.38-.1s-.11-.16-.11-.27.04-.2.11-.27.2-.1.38-.1h8.05c.18,0,.3.03.38.1s.11.16.11.27-.04.2-.11.27-.2.1-.38.1Z" fill="#333e48" stroke-width="0"/><path d="m348.97,286.84v10.44h2.53c.18,0,.3.03.38.1s.11.16.11.27c0,.11-.04.19-.11.26s-.2.11-.38.11h-5.8c-.18,0-.3-.04-.38-.11s-.11-.16-.11-.26c0-.11.04-.2.11-.27s.2-.1.38-.1h2.53v-9.42l-2.41.76c-.12.04-.2.05-.25.05-.09,0-.17-.04-.24-.11s-.11-.16-.11-.26c0-.09.03-.17.09-.25.05-.05.14-.1.29-.15l3.38-1.06Z" fill="#333e48" stroke-width="0"/><path d="m357.95,295.36h2.4l-2.61,4.85c-.16.29-.35.44-.57.44-.15,0-.27-.05-.37-.15s-.15-.23-.15-.37c0-.06,0-.12.03-.19l1.28-4.57Z" fill="#333e48" stroke-width="0"/><path d="m379.23,293.05v4.23h2.53c.18,0,.3.03.38.1s.11.16.11.27c0,.11-.04.19-.11.26s-.2.11-.38.11h-4.26c-.18,0-.3-.04-.38-.11s-.11-.16-.11-.26c0-.11.04-.2.11-.27s.2-.1.38-.1h.99v-8.81h-.99c-.18,0-.3-.03-.38-.1s-.11-.16-.11-.27.04-.21.13-.28c.06-.06.18-.09.36-.09h8.13v2.54c0,.18-.04.3-.11.38s-.16.11-.26.11c-.11,0-.2-.04-.27-.11s-.11-.2-.11-.38v-1.8h-5.65v3.84h2.65v-.83c0-.18.04-.3.11-.38s.16-.11.27-.11c.11,0,.19.04.26.11s.11.2.11.38v2.41c0,.18-.04.3-.11.38s-.16.11-.26.11c-.11,0-.2-.04-.27-.11s-.11-.2-.11-.38v-.83h-2.65Z" fill="#333e48" stroke-width="0"/><path d="m392.3,294.93h-.84l-2.84-6.46h-.14v8.81h1.36c.18,0,.3.03.38.1s.11.16.11.27c0,.11-.04.19-.11.26s-.2.11-.38.11h-2.72c-.18,0-.3-.04-.38-.11s-.11-.16-.11-.26c0-.11.04-.2.11-.27s.2-.1.38-.1h.62v-8.81h-.47c-.18,0-.3-.03-.38-.1s-.11-.16-.11-.27.04-.2.11-.27.2-.1.38-.1h1.81l2.79,6.36,2.75-6.36h1.81c.18,0,.31.03.39.1s.11.16.11.27-.04.2-.11.27-.21.1-.39.1h-.46v8.81h.62c.18,0,.31.03.39.1s.11.16.11.27c0,.11-.04.19-.11.26s-.21.11-.39.11h-2.72c-.18,0-.3-.04-.38-.11s-.12-.16-.12-.26c0-.11.04-.2.11-.27s.21-.1.39-.1h1.36v-8.81h-.16l-2.79,6.46Z" fill="#333e48" stroke-width="0"/><path d="m407.13,292.9c0,.98-.2,1.9-.6,2.74s-.95,1.5-1.65,1.96-1.45.7-2.25.7c-1.19,0-2.24-.5-3.14-1.52s-1.36-2.31-1.36-3.89.45-2.89,1.36-3.89,1.95-1.51,3.14-1.51c.8,0,1.55.23,2.25.7s1.25,1.12,1.65,1.96.6,1.75.6,2.74Zm-.75,0c0-1.2-.35-2.28-1.05-3.23s-1.6-1.43-2.71-1.43c-1.04,0-1.92.46-2.66,1.37s-1.1,2.01-1.1,3.3c0,1.37.39,2.49,1.16,3.36s1.64,1.3,2.61,1.3c1.11,0,2.01-.48,2.71-1.43s1.05-2.03,1.05-3.24Z" fill="#333e48" stroke-width="0"/><path d="m417.45,291.91h-8.05c-.18,0-.3-.04-.38-.11s-.11-.16-.11-.27c0-.11.04-.19.11-.26s.2-.11.38-.11h8.05c.18,0,.3.04.38.11s.11.16.11.27c0,.11-.04.19-.11.26s-.2.11-.38.11Zm0,2.65h-8.05c-.18,0-.3-.03-.38-.1s-.11-.16-.11-.27.04-.2.11-.27.2-.1.38-.1h8.05c.18,0,.3.03.38.1s.11.16.11.27-.04.2-.11.27-.2.1-.38.1Z" fill="#333e48" stroke-width="0"/><path d="m424.58,286.84v10.44h2.53c.18,0,.3.03.38.1s.11.16.11.27c0,.11-.04.19-.11.26s-.2.11-.38.11h-5.8c-.18,0-.3-.04-.38-.11s-.11-.16-.11-.26c0-.11.04-.2.11-.27s.2-.1.38-.1h2.53v-9.42l-2.41.76c-.12.04-.2.05-.25.05-.09,0-.17-.04-.24-.11s-.11-.16-.11-.26c0-.09.03-.17.09-.25.05-.05.14-.1.29-.15l3.38-1.06Z" fill="#333e48" stroke-width="0"/><path d="m433.56,295.36h2.4l-2.61,4.85c-.16.29-.35.44-.57.44-.15,0-.27-.05-.37-.15s-.15-.23-.15-.37c0-.06,0-.12.03-.19l1.28-4.57Z" fill="#333e48" stroke-width="0"/><path d="m459.06,294.58h-4.85l-.99,2.7h1.42c.18,0,.3.03.38.1s.11.16.11.27c0,.11-.04.19-.11.26s-.2.11-.38.11h-2.76c-.18,0-.3-.04-.38-.11s-.11-.16-.11-.26c0-.11.04-.2.11-.27s.2-.1.38-.1h.57l3.26-8.81h-2.18c-.18,0-.3-.03-.38-.1s-.11-.16-.11-.27.04-.2.11-.27.2-.1.38-.1h3.72l3.6,9.54h.57c.18,0,.3.03.38.1s.11.16.11.27c0,.11-.04.19-.11.26s-.2.11-.38.11h-2.75c-.18,0-.31-.04-.39-.11s-.11-.16-.11-.26c0-.11.04-.2.11-.27s.21-.1.39-.1h1.41l-1.01-2.7Zm-.28-.74l-2.04-5.37h-.27l-1.98,5.37h4.29Z" fill="#333e48" stroke-width="0"/><path d="m467.92,294.93h-.84l-2.84-6.46h-.14v8.81h1.36c.18,0,.3.03.38.1s.11.16.11.27c0,.11-.04.19-.11.26s-.2.11-.38.11h-2.72c-.18,0-.3-.04-.38-.11s-.11-.16-.11-.26c0-.11.04-.2.11-.27s.2-.1.38-.1h.62v-8.81h-.47c-.18,0-.3-.03-.38-.1s-.11-.16-.11-.27.04-.2.11-.27.2-.1.38-.1h1.81l2.79,6.36,2.75-6.36h1.81c.18,0,.31.03.39.1s.11.16.11.27-.04.2-.11.27-.21.1-.39.1h-.46v8.81h.62c.18,0,.31.03.39.1s.11.16.11.27c0,.11-.04.19-.11.26s-.21.11-.39.11h-2.72c-.18,0-.3-.04-.38-.11s-.12-.16-.12-.26c0-.11.04-.2.11-.27s.21-.1.39-.1h1.36v-8.81h-.16l-2.79,6.46Z" fill="#333e48" stroke-width="0"/><path d="m482.74,292.9c0,.98-.2,1.9-.6,2.74s-.95,1.5-1.65,1.96-1.45.7-2.25.7c-1.19,0-2.24-.5-3.14-1.52s-1.36-2.31-1.36-3.89.45-2.89,1.36-3.89,1.95-1.51,3.14-1.51c.8,0,1.55.23,2.25.7s1.25,1.12,1.65,1.96.6,1.75.6,2.74Zm-.75,0c0-1.2-.35-2.28-1.05-3.23s-1.6-1.43-2.71-1.43c-1.04,0-1.92.46-2.66,1.37s-1.1,2.01-1.1,3.3c0,1.37.39,2.49,1.16,3.36s1.64,1.3,2.61,1.3c1.11,0,2.01-.48,2.71-1.43s1.05-2.03,1.05-3.24Z" fill="#333e48" stroke-width="0"/><path d="m493.06,291.91h-8.05c-.18,0-.3-.04-.38-.11s-.11-.16-.11-.27c0-.11.04-.19.11-.26s.2-.11.38-.11h8.05c.18,0,.3.04.38.11s.11.16.11.27c0,.11-.04.19-.11.26s-.2.11-.38.11Zm0,2.65h-8.05c-.18,0-.3-.03-.38-.1s-.11-.16-.11-.27.04-.2.11-.27.2-.1.38-.1h8.05c.18,0,.3.03.38.1s.11.16.11.27-.04.2-.11.27-.2.1-.38.1Z" fill="#333e48" stroke-width="0"/><path d="m500.2,286.84v10.44h2.53c.18,0,.3.03.38.1s.11.16.11.27c0,.11-.04.19-.11.26s-.2.11-.38.11h-5.8c-.18,0-.3-.04-.38-.11s-.11-.16-.11-.26c0-.11.04-.2.11-.27s.2-.1.38-.1h2.53v-9.42l-2.41.76c-.12.04-.2.05-.25.05-.09,0-.17-.04-.24-.11s-.11-.16-.11-.26c0-.09.03-.17.09-.25.05-.05.14-.1.29-.15l3.38-1.06Z" fill="#333e48" stroke-width="0"/><polyline points="135 390 75 390 75 143.5 129.72 143.5" fill="none" stroke="#333e48" stroke-miterlimit="10" stroke-width=".92"/><polygon points="128.65 147.17 135 143.5 128.65 139.83 128.65 147.17" fill="#333e48" stroke-width="0"/><path d="m822.02,251.96v5.04c-.65.47-1.35.82-2.09,1.05-.74.23-1.54.35-2.41.35-1.04,0-1.99-.16-2.83-.49-.84-.32-1.56-.78-2.16-1.36-.59-.58-1.05-1.28-1.37-2.09-.32-.81-.48-1.7-.48-2.67s.15-1.87.46-2.69c.31-.81.75-1.51,1.33-2.09s1.27-1.03,2.09-1.35c.82-.32,1.74-.48,2.76-.48.52,0,1,.04,1.44.12.44.08.85.19,1.23.33.38.14.73.32,1.05.52s.62.43.9.68l-.55.86c-.08.14-.2.23-.33.26-.14.04-.29,0-.45-.1-.16-.09-.33-.19-.52-.31-.19-.12-.41-.23-.67-.33-.26-.1-.57-.19-.91-.26-.35-.07-.76-.11-1.23-.11-.71,0-1.35.12-1.92.35-.57.23-1.06.56-1.46.99-.4.43-.71.95-.93,1.56-.22.61-.32,1.29-.32,2.05s.11,1.5.34,2.13c.23.63.55,1.16.97,1.59.42.44.92.77,1.52,1,.6.23,1.26.34,2,.34.29,0,.56-.02.81-.05.25-.03.49-.08.71-.14.23-.06.45-.14.66-.23s.42-.19.63-.3v-2.71h-1.91c-.12,0-.22-.04-.29-.11-.08-.07-.11-.16-.11-.27v-1.09h4.05Z" fill="#333e48" stroke-width="0"/><path d="m826.53,258.25h-1.93v-12.92h1.93v12.92Z" fill="#333e48" stroke-width="0"/><path d="m838.74,255.48c.11,0,.2.04.28.13l.76.83c-.53.62-1.17,1.11-1.93,1.45s-1.67.51-2.74.51c-.94,0-1.78-.16-2.54-.49-.76-.32-1.41-.78-1.94-1.36-.54-.58-.95-1.28-1.25-2.09-.29-.81-.44-1.7-.44-2.67s.15-1.86.46-2.67c.31-.81.74-1.51,1.3-2.09.56-.58,1.23-1.03,2-1.36.78-.32,1.64-.49,2.58-.49s1.73.15,2.45.45c.71.3,1.33.7,1.86,1.2l-.63.89c-.04.07-.09.12-.16.16-.06.04-.15.06-.25.06-.11,0-.25-.06-.4-.17-.15-.11-.35-.24-.6-.38-.25-.14-.56-.27-.92-.38-.37-.11-.82-.17-1.37-.17-.64,0-1.23.11-1.76.34-.53.23-.99.55-1.38.97-.39.42-.69.94-.9,1.56s-.32,1.31-.32,2.08.11,1.48.33,2.1c.22.61.53,1.13.92,1.56.39.43.85.75,1.38.97.53.22,1.1.33,1.71.33.37,0,.71-.02,1-.07.3-.05.57-.11.82-.2s.48-.21.71-.35c.22-.14.44-.31.66-.51.05-.04.1-.08.15-.1.05-.03.11-.04.17-.04Z" fill="#333e48" stroke-width="0"/><path d="m751.21,279.85h-1.93v-12.92h1.93v12.92Z" fill="#333e48" stroke-width="0"/><path d="m755.55,271.97c.2-.21.41-.4.62-.58.22-.17.45-.32.69-.45s.5-.22.78-.29c.28-.07.58-.1.9-.1.5,0,.95.08,1.33.25s.7.4.96.71c.26.3.45.67.58,1.09.13.43.2.9.2,1.41v5.82h-1.76v-5.82c0-.65-.15-1.16-.45-1.53-.3-.36-.76-.54-1.38-.54-.45,0-.87.11-1.26.32-.39.21-.76.5-1.09.87v6.71h-1.75v-9.14h1.05c.25,0,.4.12.46.35l.13.92Z" fill="#333e48" stroke-width="0"/><path d="m766.71,279.99c-.74,0-1.31-.21-1.71-.62s-.6-1-.6-1.77v-5.47h-1.06c-.1,0-.19-.03-.26-.09-.07-.06-.1-.16-.1-.28v-.71l1.49-.21.4-2.73c.02-.1.07-.18.14-.24.07-.06.16-.08.27-.08h.89v3.07h2.59v1.28h-2.59v5.35c0,.36.09.63.27.81.18.18.4.27.68.27.16,0,.3-.02.42-.06.12-.04.22-.09.3-.14s.16-.1.22-.14c.06-.04.11-.06.16-.06.06,0,.11.01.14.04s.07.07.1.13l.52.85c-.29.26-.63.47-1.03.61-.4.14-.81.22-1.23.22Z" fill="#333e48" stroke-width="0"/><path d="m777.82,278.54c-.22.25-.46.47-.75.65-.28.18-.58.33-.9.45-.32.11-.65.2-.99.25-.34.05-.67.08-1,.08-.63,0-1.21-.11-1.75-.32s-1-.52-1.4-.94c-.39-.41-.7-.92-.92-1.53s-.33-1.31-.33-2.1c0-.64.1-1.23.3-1.78s.48-1.03.85-1.44.82-.73,1.35-.96c.53-.23,1.13-.35,1.8-.35.56,0,1.07.09,1.54.27.47.18.88.45,1.22.8.34.35.61.78.81,1.29s.29,1.09.29,1.75c0,.27-.03.45-.09.54-.06.09-.17.14-.33.14h-5.99c.02.55.1,1.02.23,1.43.14.41.33.74.57,1.01.24.27.53.47.87.6s.71.2,1.12.2c.39,0,.73-.04,1.01-.13.28-.09.53-.19.74-.29.21-.1.38-.2.52-.29s.27-.14.37-.14c.14,0,.25.05.33.16l.5.65Zm-1.45-4.28c0-.35-.05-.67-.15-.96-.1-.29-.25-.55-.44-.76-.19-.22-.43-.38-.7-.5-.28-.12-.59-.18-.95-.18-.74,0-1.32.21-1.74.64-.42.43-.69,1.02-.81,1.77h4.79Z" fill="#333e48" stroke-width="0"/><path d="m781.5,272.46c.29-.6.65-1.07,1.06-1.41s.91-.51,1.49-.51c.2,0,.39.02.56.07s.33.11.46.2l-.12,1.32c-.04.16-.14.24-.3.24-.08,0-.21-.02-.38-.05-.17-.03-.35-.05-.54-.05-.28,0-.53.04-.75.12-.22.08-.41.2-.58.36-.17.16-.32.35-.45.58-.13.23-.25.49-.37.79v5.72h-1.75v-9.14h1.01c.19,0,.32.03.39.1s.12.19.15.36l.11,1.29Z" fill="#333e48" stroke-width="0"/><path d="m788.1,272.46c.29-.6.65-1.07,1.06-1.41s.91-.51,1.49-.51c.2,0,.39.02.56.07s.33.11.46.2l-.12,1.32c-.04.16-.14.24-.3.24-.08,0-.21-.02-.38-.05-.17-.03-.35-.05-.54-.05-.28,0-.53.04-.75.12-.22.08-.41.2-.58.36-.17.16-.32.35-.45.58-.13.23-.25.49-.37.79v5.72h-1.75v-9.14h1.01c.19,0,.32.03.39.1s.12.19.15.36l.11,1.29Z" fill="#333e48" stroke-width="0"/><path d="m800.64,270.7v9.14h-1.05c-.24,0-.4-.12-.47-.35l-.13-.92c-.2.21-.41.4-.62.58-.22.17-.45.32-.69.45s-.51.22-.78.29c-.28.07-.57.1-.89.1-.5,0-.95-.08-1.33-.25s-.7-.4-.96-.71c-.26-.3-.45-.67-.58-1.09-.13-.43-.2-.9-.2-1.41v-5.82h1.76v5.82c0,.65.15,1.16.45,1.53.3.36.76.54,1.38.54.45,0,.87-.11,1.26-.32.39-.21.76-.5,1.1-.88v-6.7h1.75Z" fill="#333e48" stroke-width="0"/><path d="m804.76,272.07c.19-.23.4-.44.62-.63.22-.19.45-.35.71-.49.25-.13.52-.24.81-.31s.59-.11.91-.11c.52,0,1,.1,1.42.31s.78.5,1.08.9c.3.4.53.88.7,1.47s.25,1.25.25,2.01c0,.68-.09,1.31-.27,1.89-.18.58-.44,1.08-.78,1.51-.34.43-.75.76-1.24,1-.49.24-1.04.36-1.65.36-.55,0-1.01-.09-1.4-.27-.39-.18-.74-.43-1.04-.76v3.97h-1.75v-12.21h1.05c.25,0,.4.12.46.35l.15,1.02Zm.09,5.53c.29.38.6.64.93.79.33.15.71.23,1.12.23.8,0,1.43-.29,1.87-.87s.66-1.42.66-2.53c0-.58-.05-1.08-.15-1.49-.1-.41-.24-.75-.43-1.01-.19-.26-.42-.45-.7-.58-.28-.12-.59-.18-.94-.18-.51,0-.95.11-1.33.34-.38.23-.72.55-1.04.97v4.33Z" fill="#333e48" stroke-width="0"/><path d="m815.97,279.99c-.74,0-1.31-.21-1.71-.62s-.6-1-.6-1.77v-5.47h-1.06c-.1,0-.19-.03-.26-.09-.07-.06-.1-.16-.1-.28v-.71l1.49-.21.4-2.73c.02-.1.07-.18.14-.24.07-.06.16-.08.27-.08h.89v3.07h2.59v1.28h-2.59v5.35c0,.36.09.63.27.81.18.18.4.27.68.27.16,0,.3-.02.42-.06.12-.04.22-.09.3-.14s.16-.1.22-.14c.06-.04.11-.06.16-.06.06,0,.11.01.14.04s.07.07.1.13l.52.85c-.29.26-.63.47-1.03.61-.4.14-.81.22-1.23.22Z" fill="#333e48" stroke-width="0"/><path d="m833.56,277.08c.11,0,.2.04.28.13l.76.83c-.53.62-1.17,1.11-1.93,1.45-.76.34-1.67.51-2.74.51-.94,0-1.78-.16-2.54-.49s-1.41-.78-1.94-1.36c-.54-.58-.95-1.28-1.25-2.09-.29-.81-.44-1.7-.44-2.67s.15-1.86.46-2.67c.31-.81.74-1.51,1.3-2.09.56-.58,1.22-1.04,2-1.36.78-.32,1.64-.49,2.58-.49s1.73.15,2.45.45c.71.3,1.33.7,1.86,1.2l-.63.89c-.04.07-.09.12-.16.16-.06.04-.15.06-.25.06-.11,0-.25-.06-.4-.17s-.35-.24-.6-.38c-.25-.14-.56-.27-.92-.38-.37-.11-.82-.17-1.37-.17-.64,0-1.23.11-1.76.34-.53.22-1,.55-1.38.97s-.69.94-.9,1.56-.32,1.31-.32,2.08.11,1.49.33,2.1c.22.61.53,1.13.92,1.56.39.43.85.75,1.38.97.53.22,1.1.33,1.71.33.37,0,.71-.02,1-.07s.57-.11.82-.2.48-.21.71-.35.44-.31.66-.51c.05-.04.1-.08.15-.1.05-.03.11-.04.17-.04Z" fill="#333e48" stroke-width="0"/><path d="m839.88,270.56c.67,0,1.28.11,1.82.33s1,.53,1.39.94c.38.41.67.91.88,1.49s.31,1.23.31,1.95-.1,1.37-.31,1.95-.5,1.08-.88,1.49-.84.72-1.39.94-1.15.33-1.82.33-1.29-.11-1.83-.33-1.01-.53-1.39-.94c-.38-.41-.68-.9-.89-1.49s-.31-1.23-.31-1.95.1-1.37.31-1.95.5-1.07.89-1.49c.38-.41.85-.73,1.39-.94s1.15-.33,1.83-.33Zm0,8.05c.86,0,1.51-.29,1.93-.87.43-.58.64-1.4.64-2.46s-.21-1.88-.64-2.46-1.07-.88-1.93-.88-1.53.29-1.96.88c-.43.58-.64,1.41-.64,2.46s.21,1.88.64,2.46c.43.58,1.08.87,1.96.87Z" fill="#333e48" stroke-width="0"/><path d="m847.87,271.97c.2-.21.41-.4.62-.58.22-.17.45-.32.69-.45s.5-.22.78-.29c.28-.07.58-.1.9-.1.5,0,.95.08,1.33.25.38.17.7.4.96.71s.45.67.58,1.09c.13.43.2.9.2,1.41v5.82h-1.76v-5.82c0-.65-.15-1.16-.45-1.53-.3-.36-.76-.54-1.38-.54-.45,0-.87.11-1.26.32-.39.21-.76.5-1.09.87v6.71h-1.75v-9.14h1.05c.25,0,.4.12.46.35l.13.92Z" fill="#333e48" stroke-width="0"/><path d="m859.03,279.99c-.74,0-1.31-.21-1.71-.62s-.6-1-.6-1.77v-5.47h-1.06c-.1,0-.19-.03-.26-.09-.07-.06-.1-.16-.1-.28v-.71l1.49-.21.4-2.73c.02-.1.07-.18.14-.24.07-.06.16-.08.27-.08h.89v3.07h2.59v1.28h-2.59v5.35c0,.36.09.63.27.81.18.18.4.27.68.27.16,0,.3-.02.42-.06.12-.04.22-.09.3-.14s.16-.1.22-.14c.06-.04.11-.06.16-.06.06,0,.11.01.14.04s.07.07.1.13l.52.85c-.29.26-.63.47-1.03.61-.4.14-.81.22-1.23.22Z" fill="#333e48" stroke-width="0"/><path d="m864.34,272.46c.29-.6.65-1.07,1.06-1.41s.91-.51,1.49-.51c.2,0,.39.02.56.07.18.04.33.11.46.2l-.12,1.32c-.04.16-.14.24-.3.24-.08,0-.21-.02-.38-.05s-.35-.05-.54-.05c-.28,0-.53.04-.75.12s-.41.2-.58.36c-.17.16-.32.35-.46.58-.13.23-.25.49-.37.79v5.72h-1.75v-9.14h1.01c.19,0,.32.03.39.1.07.07.12.19.15.36l.11,1.29Z" fill="#333e48" stroke-width="0"/><path d="m872.84,270.56c.67,0,1.28.11,1.82.33.54.22,1,.53,1.39.94.38.41.67.91.88,1.49s.31,1.23.31,1.95-.1,1.37-.31,1.95-.5,1.08-.88,1.49-.84.72-1.39.94c-.54.22-1.15.33-1.82.33s-1.29-.11-1.83-.33-1.01-.53-1.39-.94-.68-.9-.89-1.49-.31-1.23-.31-1.95.1-1.37.31-1.95.5-1.07.89-1.49c.38-.41.85-.73,1.39-.94s1.15-.33,1.83-.33Zm0,8.05c.86,0,1.51-.29,1.94-.87.43-.58.64-1.4.64-2.46s-.21-1.88-.64-2.46c-.43-.58-1.07-.88-1.94-.88s-1.53.29-1.96.88-.64,1.41-.64,2.46.21,1.88.64,2.46c.43.58,1.08.87,1.96.87Z" fill="#333e48" stroke-width="0"/><path d="m880.98,266.56v13.28h-1.76v-13.28h1.76Z" fill="#333e48" stroke-width="0"/><path d="m885.29,266.56v13.28h-1.76v-13.28h1.76Z" fill="#333e48" stroke-width="0"/><path d="m895.29,278.54c-.22.25-.46.47-.75.65-.28.18-.58.33-.9.45-.32.11-.65.2-.99.25-.34.05-.67.08-1,.08-.63,0-1.21-.11-1.75-.32s-1-.52-1.39-.94c-.39-.41-.7-.92-.92-1.53-.22-.61-.33-1.31-.33-2.1,0-.64.1-1.23.3-1.78.2-.55.48-1.03.85-1.44s.82-.73,1.35-.96c.53-.23,1.13-.35,1.8-.35.56,0,1.07.09,1.54.27.47.18.88.45,1.22.8s.61.78.81,1.29c.19.51.29,1.09.29,1.75,0,.27-.03.45-.09.54-.06.09-.17.14-.33.14h-5.99c.02.55.1,1.02.23,1.43.14.41.33.74.57,1.01.24.27.53.47.87.6s.71.2,1.12.2c.39,0,.73-.04,1.01-.13s.53-.19.74-.29c.21-.1.38-.2.52-.29.14-.09.27-.14.37-.14.14,0,.25.05.33.16l.5.65Zm-1.45-4.28c0-.35-.05-.67-.15-.96-.1-.29-.24-.55-.44-.76-.19-.22-.43-.38-.7-.5-.28-.12-.59-.18-.95-.18-.74,0-1.32.21-1.74.64-.42.43-.69,1.02-.81,1.77h4.79Z" fill="#333e48" stroke-width="0"/><path d="m898.97,272.46c.29-.6.65-1.07,1.06-1.41s.91-.51,1.49-.51c.2,0,.39.02.56.07s.33.11.46.2l-.12,1.32c-.04.16-.14.24-.3.24-.08,0-.21-.02-.38-.05-.17-.03-.35-.05-.54-.05-.28,0-.53.04-.75.12-.22.08-.41.2-.58.36-.17.16-.32.35-.45.58-.13.23-.25.49-.37.79v5.72h-1.75v-9.14h1.01c.19,0,.32.03.39.1s.12.19.15.36l.11,1.29Z" fill="#333e48" stroke-width="0"/><polyline points="720 240 630 240 630 172.5 530.74 172.5" fill="none" stroke="#333e48" stroke-miterlimit="10"/><polygon points="531.91 168.51 525 172.5 531.91 176.49 531.91 168.51" fill="#333e48" stroke-width="0"/><polyline points="720 285 630 285 630 345 530.74 345" fill="none" stroke="#333e48" stroke-miterlimit="10"/><polygon points="531.91 341.01 525 345 531.91 348.99 531.91 341.01" fill="#333e48" stroke-width="0"/><path d="m653.87,319.98c.19,0,.34.06.45.17s.16.26.16.44v1.06h-8.68v-.6c0-.12.02-.25.07-.38.05-.13.13-.26.24-.36l4.09-4.09c.34-.34.65-.67.93-.99.28-.32.51-.63.7-.95.19-.32.34-.64.45-.97.1-.33.16-.68.16-1.04s-.06-.68-.17-.95c-.11-.27-.27-.5-.47-.68-.2-.18-.43-.32-.7-.41-.27-.09-.56-.13-.87-.13s-.6.04-.86.13c-.26.09-.49.22-.7.38s-.38.35-.51.58-.24.46-.3.72c-.08.23-.19.38-.32.46s-.32.1-.56.05l-.92-.16c.08-.6.25-1.13.5-1.58.25-.46.55-.84.93-1.15.37-.31.8-.54,1.28-.7.48-.16,1-.23,1.56-.23s1.08.08,1.56.25c.48.17.89.4,1.24.72.35.31.62.69.82,1.14.2.45.3.95.3,1.52,0,.48-.07.93-.21,1.34-.14.41-.33.8-.58,1.17s-.53.73-.85,1.08c-.32.35-.66.71-1.02,1.07l-3.28,3.35c.25-.07.5-.12.76-.16.26-.04.5-.06.72-.06h4.08Z" fill="#333e48" stroke-width="0"/><path d="m685.9,416.88c.09-.6.26-1.13.5-1.58s.55-.84.93-1.15c.37-.31.8-.54,1.28-.7.48-.16,1-.23,1.56-.23s1.07.08,1.54.24c.47.16.87.38,1.2.67s.59.64.78,1.05.28.86.28,1.35c0,.41-.05.78-.15,1.1-.1.32-.25.6-.44.84-.19.24-.42.44-.69.61-.27.17-.57.3-.91.41.82.23,1.44.6,1.85,1.11s.62,1.16.62,1.95c0,.61-.11,1.15-.34,1.63-.23.48-.54.89-.94,1.22-.4.33-.86.59-1.38.77-.52.18-1.08.27-1.68.27-.68,0-1.26-.08-1.75-.25-.49-.17-.9-.4-1.24-.69s-.63-.65-.85-1.07-.42-.87-.57-1.37l.76-.32c.2-.08.39-.11.58-.07.19.04.32.14.41.32.09.18.19.38.31.61.12.22.27.44.47.64.2.2.45.37.74.51.3.14.67.21,1.12.21s.81-.07,1.13-.21c.32-.14.59-.32.81-.55.22-.23.38-.48.49-.75.11-.28.16-.55.16-.82,0-.34-.04-.65-.13-.93-.08-.28-.24-.52-.48-.72-.24-.2-.57-.36-.99-.47-.42-.11-.97-.17-1.64-.17v-1.28c.55,0,1.02-.06,1.4-.17.38-.11.69-.26.92-.45.23-.19.4-.42.51-.68.11-.26.16-.56.16-.88,0-.35-.05-.66-.16-.93-.11-.26-.26-.48-.46-.66-.19-.18-.43-.31-.69-.4-.27-.09-.56-.13-.87-.13s-.6.04-.86.13c-.26.09-.5.22-.7.38-.2.16-.38.35-.51.58-.14.22-.24.46-.3.72-.08.23-.19.38-.32.46s-.31.1-.55.05l-.93-.16Z" fill="#333e48" stroke-width="0"/><path d="m964.18,245.33v1.34h-6.98v-1.34h2.74v-8.47c0-.27,0-.55.03-.84l-2.2,1.86c-.08.07-.17.11-.25.13s-.16.02-.24,0c-.08-.01-.14-.04-.2-.08s-.1-.08-.14-.12l-.55-.76,3.87-3.34h1.43v11.61h2.49Z" fill="#333e48" stroke-width="0"/><line x1="480" y1="397.5" x2="482.5" y2="397.5" fill="none" stroke="#333e48" stroke-miterlimit="10"/><line x1="485.51" y1="397.5" x2="821" y2="397.5" fill="none" stroke="#333e48" stroke-dasharray="0 0 5.01 3.01" stroke-miterlimit="10"/><polyline points="822.5 397.5 825 397.5 825 395" fill="none" stroke="#333e48" stroke-miterlimit="10"/><line x1="825" y1="392.13" x2="825" y2="324.68" fill="none" stroke="#333e48" stroke-dasharray="0 0 4.78 2.87" stroke-miterlimit="10"/><line x1="825" y1="323.24" x2="825" y2="320.74" fill="none" stroke="#333e48" stroke-miterlimit="10"/><polygon points="828.99 321.91 825 315 821.01 321.91 828.99 321.91" fill="#333e48" stroke-width="0"/><line x1="990" y1="262.5" x2="935.02" y2="262.5" fill="none" stroke="#333e48" stroke-miterlimit="10"/><polygon points="936.04 259.01 930 262.5 936.04 265.99 936.04 259.01" fill="#333e48" stroke-width="0"/><path d="m1099.1,277.41h-82.15c-1.58,0-2.99-.91-3.48-2.25l-7.59-23.45c-.78-2.12.99-4.29,3.48-4.29h97.34c2.49,0,4.26,2.17,3.48,4.29l-7.59,23.45c-.49,1.35-1.9,2.25-3.48,2.25Z" fill="none" stroke="#333e48" stroke-miterlimit="10"/><path d="m1080.36,271.75h-44.67c-.91,0-1.72-.55-2-1.36l-5.64-14.16c-.45-1.28.57-2.59,2-2.59h55.95c1.43,0,2.45,1.31,2,2.59l-5.64,14.16c-.28.81-1.09,1.36-2,1.36Z" fill="none" stroke="#333e48" stroke-miterlimit="10"/><ellipse cx="1036.59" cy="259.39" rx="2.22" ry="2.26" fill="#333e48" stroke-width="0"/><ellipse cx="1021.62" cy="263.82" rx="3.33" ry="3.4" fill="#333e48" stroke-width="0"/><ellipse cx="1045.14" cy="259.39" rx="2.22" ry="2.26" fill="#333e48" stroke-width="0"/><ellipse cx="1053.68" cy="259.39" rx="2.22" ry="2.26" fill="#333e48" stroke-width="0"/><ellipse cx="1062.22" cy="259.39" rx="2.22" ry="2.26" fill="#333e48" stroke-width="0"/><ellipse cx="1070.76" cy="259.39" rx="2.22" ry="2.26" fill="#333e48" stroke-width="0"/><ellipse cx="1079.3" cy="259.39" rx="2.22" ry="2.26" fill="#333e48" stroke-width="0"/><ellipse cx="1041.03" cy="266.18" rx="2.22" ry="2.26" fill="#333e48" stroke-width="0"/><ellipse cx="1049.57" cy="266.18" rx="2.22" ry="2.26" fill="#333e48" stroke-width="0"/><ellipse cx="1058.11" cy="266.18" rx="2.22" ry="2.26" fill="#333e48" stroke-width="0"/><ellipse cx="1066.65" cy="266.18" rx="2.22" ry="2.26" fill="#333e48" stroke-width="0"/><ellipse cx="1075.2" cy="266.18" rx="2.22" ry="2.26" fill="#333e48" stroke-width="0"/><polygon points="1026.61 266.76 1026.61 260.88 1021.62 257.94 1016.63 260.88 1016.63 266.76 1021.62 269.7 1026.61 266.76" fill="none" stroke="#333e48" stroke-miterlimit="10"/><ellipse cx="1094.83" cy="263.82" rx="3.33" ry="3.4" fill="#333e48" stroke-width="0"/><polygon points="1099.82 266.76 1099.82 260.88 1094.83 257.94 1089.84 260.88 1089.84 266.76 1094.83 269.7 1099.82 266.76" fill="none" stroke="#333e48" stroke-miterlimit="10"/><polyline points="615.16 134.89 600.16 149.89 615.16 149.89 600.16 164.89" fill="none" stroke="#ffc700" stroke-miterlimit="10"/><polyline points="615.16 299.5 600.16 314.5 615.16 314.5 600.16 329.5" fill="none" stroke="#ffc700" stroke-miterlimit="10"/><rect x="720" y="210" width="210" height="105" fill="none" stroke="#7d868c" stroke-miterlimit="10"/></svg>