<svg xmlns="http://www.w3.org/2000/svg" id="Diagrams" width="245mm" height="120mm" viewBox="0 0 694.49 340.16"><defs><style>.cls-1{fill:#333e48;}.cls-2{stroke:#0091bd;}.cls-2,.cls-3{fill:none;stroke-miterlimit:10;}.cls-3{stroke:#333e48;}.cls-4{fill:#002b49;font-family:CourierNewPSMT, 'Courier New';font-size:18px;}</style></defs><text class="cls-4" transform="translate(26.53 104.26)"><tspan x="0" y="0">NS.EL1: MRS x0, ICC_IAR1_EL1</tspan></text><line class="cls-3" x1="340.16" y1="99.61" x2="518.78" y2="43.3"/><polygon class="cls-1" points="524.41 42.13 516.41 39.85 518.43 47.92 524.41 42.13"/><text class="cls-4" transform="translate(26.53 259.62)"><tspan x="0" y="0">NS.EL1: MRS x0, ICC_IAR0_EL1</tspan></text><text class="cls-4" transform="translate(358.02 85.78) rotate(-17.77)"><tspan x="0" y="0">H</tspan></text><text class="cls-4" transform="translate(368.29 82.49) rotate(-17.77)"><tspan x="0" y="0">C</tspan></text><text class="cls-4" transform="translate(378.61 79.18) rotate(-17.77)"><tspan x="0" y="0">R</tspan></text><text class="cls-4" transform="translate(388.89 75.89) rotate(-17.77)"><tspan x="0" y="0">_</tspan></text><text class="cls-4" transform="translate(399.18 72.59) rotate(-17.77)"><tspan x="0" y="0">E</tspan></text><text class="cls-4" transform="translate(409.47 69.29) rotate(-17.77)"><tspan x="0" y="0">L</tspan></text><text class="cls-4" transform="translate(419.77 65.99) rotate(-17.77)"><tspan x="0" y="0">2</tspan></text><text class="cls-4" transform="translate(430.05 62.69) rotate(-17.77)"><tspan x="0" y="0">.</tspan></text><text class="cls-4" transform="translate(440.34 59.4) rotate(-17.77)"><tspan x="0" y="0">I</tspan></text><text class="cls-4" transform="translate(450.64 56.1) rotate(-17.77)"><tspan x="0" y="0">M</tspan></text><text class="cls-4" transform="translate(460.92 52.8) rotate(-17.77)"><tspan x="0" y="0">O</tspan></text><text class="cls-4" transform="translate(471.18 49.51) rotate(-17.77)"><tspan x="0" y="0">=</tspan></text><text class="cls-4" transform="translate(481.48 46.21) rotate(-17.77)"><tspan x="0" y="0">=</tspan></text><text class="cls-4" transform="translate(491.77 42.91) rotate(-17.77)"><tspan x="0" y="0">0</tspan></text><line class="cls-3" x1="340.16" y1="99.61" x2="517.9" y2="140.75"/><polygon class="cls-1" points="523.87 141.71 517.65 136.19 515.98 144.34 523.87 141.71"/><text class="cls-4" transform="translate(352.22 118.85) rotate(13.09)"><tspan x="0" y="0">H</tspan></text><text class="cls-4" transform="translate(362.72 121.29) rotate(13.09)"><tspan x="0" y="0">C</tspan></text><text class="cls-4" transform="translate(373.27 123.74) rotate(13.09)"><tspan x="0" y="0">R</tspan></text><text class="cls-4" transform="translate(383.8 126.19) rotate(13.09)"><tspan x="0" y="0">_</tspan></text><text class="cls-4" transform="translate(394.3 128.63) rotate(13.09)"><tspan x="0" y="0">E</tspan></text><text class="cls-4" transform="translate(404.83 131.08) rotate(13.09)"><tspan x="0" y="0">L</tspan></text><text class="cls-4" transform="translate(415.34 133.52) rotate(13.09)"><tspan x="0" y="0">2</tspan></text><text class="cls-4" transform="translate(425.88 135.97) rotate(13.09)"><tspan x="0" y="0">.</tspan></text><text class="cls-4" transform="translate(436.41 138.42) rotate(13.09)"><tspan x="0" y="0">I</tspan></text><text class="cls-4" transform="translate(446.93 140.87) rotate(13.09)"><tspan x="0" y="0">M</tspan></text><text class="cls-4" transform="translate(457.45 143.31) rotate(13.09)"><tspan x="0" y="0">O</tspan></text><text class="cls-4" transform="translate(467.98 145.76) rotate(13.09)"><tspan x="0" y="0">=</tspan></text><text class="cls-4" transform="translate(478.5 148.21) rotate(13.09)"><tspan x="0" y="0">=</tspan></text><text class="cls-4" transform="translate(489.02 150.65) rotate(13.09)"><tspan x="0" y="0">1</tspan></text><text class="cls-4" transform="translate(530.55 47.4)"><tspan x="0" y="0">ICC_IAR1_EL1</tspan></text><text class="cls-4" transform="translate(530.55 146.86)"><tspan x="0" y="0">ICV_IAR1_EL1</tspan></text><rect class="cls-2" x="524.43" y="28.49" width="141.73" height="28.35"/><rect class="cls-2" x="524.43" y="127.41" width="141.73" height="28.35"/><text class="cls-4" transform="translate(530.55 203.75)"><tspan x="0" y="0">ICC_IAR0_EL1</tspan></text><text class="cls-4" transform="translate(530.46 302.24)"><tspan x="0" y="0">ICV_IAR0_EL1</tspan></text><rect class="cls-2" x="524.43" y="184.39" width="141.73" height="28.35"/><rect class="cls-2" x="524.43" y="283.34" width="141.73" height="28.35"/><line class="cls-3" x1="339.94" y1="255.78" x2="518.57" y2="199.47"/><polygon class="cls-1" points="524.19 198.3 516.19 196.02 518.21 204.09 524.19 198.3"/><text class="cls-4" transform="translate(357.81 241.95) rotate(-17.77)"><tspan x="0" y="0">H</tspan></text><text class="cls-4" transform="translate(368.07 238.66) rotate(-17.77)"><tspan x="0" y="0">C</tspan></text><text class="cls-4" transform="translate(378.39 235.35) rotate(-17.77)"><tspan x="0" y="0">R</tspan></text><text class="cls-4" transform="translate(388.67 232.06) rotate(-17.77)"><tspan x="0" y="0">_</tspan></text><text class="cls-4" transform="translate(398.97 228.76) rotate(-17.77)"><tspan x="0" y="0">E</tspan></text><text class="cls-4" transform="translate(409.25 225.46) rotate(-17.77)"><tspan x="0" y="0">L</tspan></text><text class="cls-4" transform="translate(419.55 222.16) rotate(-17.77)"><tspan x="0" y="0">2</tspan></text><text class="cls-4" transform="translate(429.83 218.86) rotate(-17.77)"><tspan x="0" y="0">.</tspan></text><text class="cls-4" transform="translate(440.12 215.57) rotate(-17.77)"><tspan x="0" y="0">F</tspan></text><text class="cls-4" transform="translate(450.42 212.27) rotate(-17.77)"><tspan x="0" y="0">M</tspan></text><text class="cls-4" transform="translate(460.7 208.97) rotate(-17.77)"><tspan x="0" y="0">O</tspan></text><text class="cls-4" transform="translate(470.97 205.68) rotate(-17.77)"><tspan x="0" y="0">=</tspan></text><text class="cls-4" transform="translate(481.26 202.38) rotate(-17.77)"><tspan x="0" y="0">=</tspan></text><text class="cls-4" transform="translate(491.55 199.08) rotate(-17.77)"><tspan x="0" y="0">0</tspan></text><line class="cls-3" x1="339.94" y1="255.78" x2="517.69" y2="296.92"/><polygon class="cls-1" points="523.66 297.88 517.43 292.36 515.76 300.51 523.66 297.88"/><text class="cls-4" transform="translate(352 275.02) rotate(13.09)"><tspan x="0" y="0">H</tspan></text><text class="cls-4" transform="translate(362.5 277.46) rotate(13.09)"><tspan x="0" y="0">C</tspan></text><text class="cls-4" transform="translate(373.05 279.91) rotate(13.09)"><tspan x="0" y="0">R</tspan></text><text class="cls-4" transform="translate(383.58 282.36) rotate(13.09)"><tspan x="0" y="0">_</tspan></text><text class="cls-4" transform="translate(394.08 284.8) rotate(13.09)"><tspan x="0" y="0">E</tspan></text><text class="cls-4" transform="translate(404.61 287.25) rotate(13.09)"><tspan x="0" y="0">L</tspan></text><text class="cls-4" transform="translate(415.12 289.7) rotate(13.09)"><tspan x="0" y="0">2</tspan></text><text class="cls-4" transform="translate(425.66 292.14) rotate(13.09)"><tspan x="0" y="0">.</tspan></text><text class="cls-4" transform="translate(436.19 294.59) rotate(13.09)"><tspan x="0" y="0">F</tspan></text><text class="cls-4" transform="translate(446.71 297.04) rotate(13.09)"><tspan x="0" y="0">M</tspan></text><text class="cls-4" transform="translate(457.23 299.48) rotate(13.09)"><tspan x="0" y="0">O</tspan></text><text class="cls-4" transform="translate(467.76 301.93) rotate(13.09)"><tspan x="0" y="0">=</tspan></text><text class="cls-4" transform="translate(478.28 304.38) rotate(13.09)"><tspan x="0" y="0">=</tspan></text><text class="cls-4" transform="translate(488.8 306.82) rotate(13.09)"><tspan x="0" y="0">1</tspan></text></svg>