<svg xmlns="http://www.w3.org/2000/svg" id="Layer_1" width="615" height="525" viewBox="0 0 615 525"><line x1="285" y1="135" x2="285" y2="180" fill="none" stroke="#333e48" stroke-miterlimit="10"/><rect x="30" y="30" width="345" height="360" fill="none" stroke="#333e48" stroke-miterlimit="10"/><rect x="465" y="225" width="120" height="74.82" fill="none" stroke="#333e48" stroke-miterlimit="10"/><polyline points="240 237.5 240 240 242.5 240" fill="none" stroke="#333e48" stroke-miterlimit="10"/><line x1="245.57" y1="240" x2="325.96" y2="240" fill="none" stroke="#333e48" stroke-dasharray="0 0 5.12 3.07" stroke-miterlimit="10"/><polyline points="327.5 240 330 240 330 237.5" fill="none" stroke="#333e48" stroke-miterlimit="10"/><line x1="330" y1="234.28" x2="330" y2="184.29" fill="none" stroke="#333e48" stroke-dasharray="0 0 5.37 3.22" stroke-miterlimit="10"/><polyline points="330 182.68 330 180.18 327.5 180.18" fill="none" stroke="#333e48" stroke-miterlimit="10"/><line x1="324.43" y1="180.18" x2="244.04" y2="180.18" fill="none" stroke="#333e48" stroke-dasharray="0 0 5.12 3.07" stroke-miterlimit="10"/><polyline points="242.5 180.18 240 180.18 240 182.68" fill="none" stroke="#333e48" stroke-miterlimit="10"/><line x1="240" y1="185.9" x2="240" y2="235.89" fill="none" stroke="#333e48" stroke-dasharray="0 0 5.37 3.22" stroke-miterlimit="10"/><path d="m516.8,263.59c0,.97-.15,1.84-.46,2.64-.31.79-.75,1.47-1.31,2.04-.56.57-1.24,1.01-2.02,1.32-.79.31-1.66.47-2.62.47h-4.86v-12.92h4.86c.96,0,1.83.16,2.62.47.79.31,1.46.75,2.02,1.32.56.57,1,1.25,1.31,2.04.31.79.46,1.67.46,2.63Zm-1.96,0c0-.77-.11-1.46-.32-2.07s-.51-1.12-.9-1.55c-.39-.42-.85-.75-1.4-.97-.55-.22-1.16-.33-1.84-.33h-2.93v9.83h2.93c.68,0,1.29-.11,1.84-.33.55-.22,1.02-.54,1.4-.97.39-.42.69-.94.9-1.54.21-.61.32-1.3.32-2.07Z" fill="#333e48" stroke-width="0"/><path d="m532.8,257.13v12.92h-1.67v-9.2c0-.14,0-.28.01-.44s.02-.32.03-.48l-4.3,7.89c-.15.29-.38.44-.69.44h-.27c-.31,0-.54-.15-.68-.44l-4.38-7.92c.04.34.05.65.05.94v9.2h-1.68v-12.92h1.42c.17,0,.3.02.39.05.09.03.18.12.27.27l4.32,7.74c.08.16.16.32.23.5.07.17.14.35.21.52.13-.35.27-.7.44-1.03l4.24-7.73c.08-.15.16-.24.26-.27.09-.03.22-.05.39-.05h1.42Z" fill="#333e48" stroke-width="0"/><path d="m546.65,270.05h-1.48c-.17,0-.31-.04-.41-.13-.11-.08-.19-.19-.23-.32l-1.14-3h-5.7l-1.14,3c-.04.11-.12.22-.23.31-.11.09-.25.14-.41.14h-1.48l5.15-12.92h1.93l5.15,12.92Zm-3.79-4.82l-1.92-5.01c-.14-.34-.28-.77-.41-1.3-.07.26-.13.5-.2.72-.07.22-.14.42-.2.59l-1.91,4.99h4.64Z" fill="#333e48" stroke-width="0"/><path d="m276.76,204.81v12.92h-1.67v-9.2c0-.14,0-.28.01-.44s.02-.32.03-.48l-4.3,7.89c-.15.29-.38.44-.69.44h-.27c-.31,0-.54-.15-.68-.44l-4.38-7.92c.04.34.05.65.05.94v9.2h-1.68v-12.92h1.42c.17,0,.3.02.39.05.09.03.18.12.27.27l4.32,7.74c.08.16.16.32.23.5.07.17.14.35.21.52.13-.35.27-.7.44-1.03l4.24-7.73c.08-.15.16-.24.26-.27.09-.03.22-.05.39-.05h1.42Z" fill="#333e48" stroke-width="0"/><path d="m293.55,204.81v12.92h-1.67v-9.2c0-.14,0-.28.01-.44s.02-.32.03-.48l-4.3,7.89c-.15.29-.38.44-.69.44h-.27c-.31,0-.54-.15-.68-.44l-4.38-7.92c.04.34.05.65.05.94v9.2h-1.68v-12.92h1.42c.17,0,.3.02.39.05.09.03.18.12.27.27l4.32,7.74c.08.16.16.32.23.5.07.17.14.35.21.52.13-.35.27-.7.44-1.03l4.24-7.73c.08-.15.16-.24.26-.27.09-.03.22-.05.39-.05h1.42Z" fill="#333e48" stroke-width="0"/><path d="m301.78,216.19c.52,0,.98-.09,1.39-.26.41-.17.75-.42,1.04-.73.28-.32.5-.69.65-1.12.15-.44.22-.92.22-1.44v-7.82h1.91v7.82c0,.76-.12,1.45-.36,2.1-.24.64-.58,1.2-1.03,1.67-.45.47-1,.83-1.64,1.1-.64.26-1.37.4-2.17.4s-1.53-.13-2.17-.4-1.19-.63-1.64-1.1-.79-1.02-1.04-1.67c-.24-.64-.36-1.34-.36-2.1v-7.82h1.92v7.81c0,.53.07,1.01.22,1.45.15.44.36.81.64,1.13.28.31.63.56,1.04.73s.87.26,1.39.26Z" fill="#333e48" stroke-width="0"/><path d="m303.52,270.23h-1.93v-12.92h1.93v12.92Z" fill="#333e48" stroke-width="0"/><path d="m310.62,257.31c.83,0,1.55.1,2.16.29.61.19,1.12.46,1.52.81.4.35.7.78.9,1.27.19.5.29,1.05.29,1.66s-.11,1.16-.32,1.67-.52.94-.93,1.31-.92.65-1.53.85-1.31.3-2.1.3h-2v4.76h-1.92v-12.92h3.92Zm0,6.65c.49,0,.91-.06,1.28-.19.37-.13.68-.3.93-.54.25-.23.44-.51.56-.83.13-.32.19-.68.19-1.07,0-.79-.24-1.4-.73-1.85s-1.23-.67-2.23-.67h-2v5.15h2Z" fill="#333e48" stroke-width="0"/><path d="m327.35,270.23h-1.48c-.17,0-.31-.04-.41-.13-.11-.08-.19-.19-.23-.32l-1.14-3h-5.7l-1.14,3c-.04.11-.12.22-.23.31-.11.09-.25.14-.41.14h-1.48l5.15-12.92h1.93l5.15,12.92Zm-3.79-4.82l-1.92-5.01c-.14-.34-.28-.77-.41-1.3-.07.26-.13.5-.2.72-.07.22-.14.42-.2.59l-1.91,4.99h4.64Z" fill="#333e48" stroke-width="0"/><polyline points="240 342.5 240 345 242.5 345" fill="none" stroke="#333e48" stroke-miterlimit="10"/><line x1="245.57" y1="345" x2="325.96" y2="345" fill="none" stroke="#333e48" stroke-dasharray="0 0 5.12 3.07" stroke-miterlimit="10"/><polyline points="327.5 345 330 345 330 342.5" fill="none" stroke="#333e48" stroke-miterlimit="10"/><line x1="330" y1="339.28" x2="330" y2="289.29" fill="none" stroke="#333e48" stroke-dasharray="0 0 5.37 3.22" stroke-miterlimit="10"/><polyline points="330 287.68 330 285.18 327.5 285.18" fill="none" stroke="#333e48" stroke-miterlimit="10"/><line x1="324.43" y1="285.18" x2="244.04" y2="285.18" fill="none" stroke="#333e48" stroke-dasharray="0 0 5.12 3.07" stroke-miterlimit="10"/><polyline points="242.5 285.18 240 285.18 240 287.68" fill="none" stroke="#333e48" stroke-miterlimit="10"/><line x1="240" y1="290.9" x2="240" y2="340.89" fill="none" stroke="#333e48" stroke-dasharray="0 0 5.37 3.22" stroke-miterlimit="10"/><path d="m276.76,309.81v12.92h-1.67v-9.2c0-.14,0-.28.01-.44s.02-.32.03-.48l-4.3,7.89c-.15.29-.38.44-.69.44h-.27c-.31,0-.54-.15-.68-.44l-4.38-7.92c.04.34.05.65.05.94v9.2h-1.68v-12.92h1.42c.17,0,.3.02.39.05.09.03.18.12.27.27l4.32,7.74c.08.16.16.32.23.5.07.17.14.35.21.52.13-.35.27-.7.44-1.03l4.24-7.73c.08-.15.16-.24.26-.27.09-.03.22-.05.39-.05h1.42Z" fill="#333e48" stroke-width="0"/><path d="m293.55,309.81v12.92h-1.67v-9.2c0-.14,0-.28.01-.44s.02-.32.03-.48l-4.3,7.89c-.15.29-.38.44-.69.44h-.27c-.31,0-.54-.15-.68-.44l-4.38-7.92c.04.34.05.65.05.94v9.2h-1.68v-12.92h1.42c.17,0,.3.02.39.05.09.03.18.12.27.27l4.32,7.74c.08.16.16.32.23.5.07.17.14.35.21.52.13-.35.27-.7.44-1.03l4.24-7.73c.08-.15.16-.24.26-.27.09-.03.22-.05.39-.05h1.42Z" fill="#333e48" stroke-width="0"/><path d="m301.78,321.19c.52,0,.98-.09,1.39-.26.41-.17.75-.42,1.04-.73.28-.32.5-.69.65-1.12.15-.44.22-.92.22-1.44v-7.82h1.91v7.82c0,.76-.12,1.45-.36,2.1-.24.64-.58,1.2-1.03,1.67-.45.47-1,.83-1.64,1.1-.64.26-1.37.4-2.17.4s-1.53-.13-2.17-.4-1.19-.63-1.64-1.1-.79-1.02-1.04-1.67c-.24-.64-.36-1.34-.36-2.1v-7.82h1.92v7.81c0,.53.07,1.01.22,1.45.15.44.36.81.64,1.13.28.31.63.56,1.04.73s.87.26,1.39.26Z" fill="#333e48" stroke-width="0"/><path d="m305.51,362.31c.83,0,1.55.1,2.16.29.61.19,1.12.46,1.52.81.4.35.7.78.9,1.27.19.5.29,1.05.29,1.66s-.11,1.16-.32,1.67-.52.94-.93,1.31-.92.65-1.53.85-1.31.3-2.1.3h-2v4.76h-1.92v-12.92h3.92Zm0,6.65c.49,0,.91-.06,1.28-.19.37-.13.68-.3.93-.54.25-.23.44-.51.56-.83.13-.32.19-.68.19-1.07,0-.79-.24-1.4-.73-1.85s-1.23-.67-2.23-.67h-2v5.15h2Z" fill="#333e48" stroke-width="0"/><path d="m322.24,375.23h-1.48c-.17,0-.31-.04-.41-.13-.11-.08-.19-.19-.23-.32l-1.14-3h-5.7l-1.14,3c-.04.11-.12.22-.23.31-.11.09-.25.14-.41.14h-1.48l5.15-12.92h1.93l5.15,12.92Zm-3.79-4.82l-1.92-5.01c-.14-.34-.28-.77-.41-1.3-.07.26-.13.5-.2.72-.07.22-.14.42-.2.59l-1.91,4.99h4.64Z" fill="#333e48" stroke-width="0"/><path d="m312.25,152.31l-5.26,12.92h-1.72l-5.26-12.92h1.53c.17,0,.3.04.41.13.11.08.18.19.24.32l3.49,8.78c.08.22.17.45.25.71.08.26.15.53.22.81.06-.28.13-.55.2-.81.07-.26.15-.5.23-.71l3.48-8.78c.04-.12.12-.23.23-.32.11-.09.25-.13.41-.13h1.54Z" fill="#333e48" stroke-width="0"/><path d="m323.52,165.23h-1.48c-.17,0-.31-.04-.41-.13-.11-.08-.19-.19-.23-.32l-1.14-3h-5.7l-1.14,3c-.04.11-.12.22-.23.31-.11.09-.25.14-.41.14h-1.48l5.15-12.92h1.93l5.15,12.92Zm-3.79-4.82l-1.92-5.01c-.14-.34-.28-.77-.41-1.3-.07.26-.13.5-.2.72-.07.22-.14.42-.2.59l-1.91,4.99h4.64Z" fill="#333e48" stroke-width="0"/><rect x="30" y="420" width="555" height="74.82" fill="#95d600" stroke-width="0"/><path d="m260.69,465.05h-1.93v-12.92h1.93v12.92Z" fill="#333e48" stroke-width="0"/><path d="m265.02,457.18c.2-.21.41-.4.62-.58s.45-.32.69-.45.5-.22.78-.29c.28-.07.58-.1.9-.1.5,0,.95.08,1.33.25s.7.4.96.71c.26.3.45.67.58,1.09.13.43.2.9.2,1.41v5.82h-1.76v-5.82c0-.65-.15-1.16-.45-1.53-.3-.36-.76-.54-1.38-.54-.45,0-.87.11-1.26.32-.39.21-.76.5-1.09.87v6.71h-1.75v-9.14h1.05c.25,0,.4.12.46.35l.13.92Z" fill="#333e48" stroke-width="0"/><path d="m276.19,465.2c-.74,0-1.31-.21-1.71-.62-.4-.41-.6-1-.6-1.77v-5.47h-1.06c-.1,0-.19-.03-.26-.09-.07-.06-.1-.16-.1-.28v-.71l1.48-.21.4-2.73c.02-.1.07-.18.14-.24.07-.06.16-.09.27-.09h.89v3.07h2.59v1.28h-2.59v5.35c0,.36.09.63.27.81s.4.27.68.27c.16,0,.3-.02.42-.06.12-.04.22-.09.3-.14.08-.05.16-.1.22-.14.06-.04.11-.06.16-.06.06,0,.11.01.14.04.03.03.07.07.1.13l.52.85c-.29.26-.63.47-1.03.61-.4.14-.81.22-1.23.22Z" fill="#333e48" stroke-width="0"/><path d="m287.29,463.75c-.22.25-.46.47-.75.65-.28.18-.58.33-.9.45s-.65.2-.99.25-.67.08-1,.08c-.63,0-1.21-.11-1.75-.32s-1-.53-1.4-.94c-.39-.41-.7-.92-.92-1.53-.22-.61-.33-1.31-.33-2.1,0-.64.1-1.23.3-1.78.2-.55.48-1.03.85-1.44s.82-.73,1.35-.96c.53-.23,1.13-.35,1.8-.35.56,0,1.07.09,1.54.27.47.18.88.45,1.22.8.34.35.61.78.8,1.29.2.51.29,1.09.29,1.75,0,.27-.03.45-.09.54-.06.09-.17.14-.33.14h-5.99c.02.55.1,1.02.23,1.43.14.4.33.74.57,1.01.24.27.53.47.87.6s.71.2,1.12.2c.39,0,.73-.04,1.01-.13.29-.09.53-.19.74-.29.21-.1.38-.2.52-.29.14-.09.27-.13.37-.13.14,0,.25.05.33.16l.5.65Zm-1.45-4.28c0-.35-.05-.67-.15-.96s-.25-.55-.44-.77c-.19-.22-.43-.38-.7-.5s-.59-.18-.95-.18c-.74,0-1.32.21-1.74.64-.42.43-.69,1.02-.81,1.77h4.79Z" fill="#333e48" stroke-width="0"/><path d="m290.97,457.67c.29-.6.65-1.07,1.06-1.41s.91-.51,1.49-.51c.2,0,.38.02.56.07.18.04.33.11.46.2l-.12,1.32c-.04.16-.14.24-.3.24-.08,0-.21-.02-.38-.05s-.35-.05-.54-.05c-.28,0-.53.04-.75.12-.22.08-.41.2-.58.36s-.32.35-.45.58c-.13.23-.26.49-.37.79v5.72h-1.75v-9.14h1.01c.19,0,.32.03.39.1s.12.19.15.36l.11,1.29Z" fill="#333e48" stroke-width="0"/><path d="m301.98,457.62c-.05.07-.11.12-.16.16s-.12.06-.22.06-.2-.04-.3-.11c-.11-.08-.24-.16-.4-.24s-.35-.17-.58-.24c-.22-.08-.5-.11-.83-.11-.43,0-.81.08-1.14.23-.33.16-.6.38-.82.67s-.39.64-.5,1.05c-.11.41-.17.88-.17,1.39s.06,1.01.18,1.43.29.77.51,1.05.49.5.81.65c.32.15.67.22,1.06.22s.69-.05.94-.14c.25-.09.45-.19.61-.3.16-.11.3-.21.41-.3s.22-.14.33-.14c.14,0,.25.05.33.16l.5.65c-.21.26-.45.48-.71.66-.26.18-.54.33-.83.44s-.6.2-.92.25c-.32.05-.65.08-.98.08-.57,0-1.1-.11-1.6-.32s-.92-.52-1.29-.92c-.36-.4-.65-.9-.86-1.48-.21-.58-.32-1.25-.32-1.99,0-.68.09-1.3.28-1.88.19-.58.47-1.07.84-1.49.37-.42.82-.74,1.36-.98s1.16-.36,1.85-.36c.65,0,1.23.11,1.73.32s.94.51,1.33.89l-.47.65Z" fill="#333e48" stroke-width="0"/><path d="m307.92,455.77c.67,0,1.28.11,1.82.33.54.22,1,.53,1.39.95.38.41.67.91.88,1.49s.31,1.23.31,1.95-.1,1.37-.31,1.95-.5,1.08-.88,1.49c-.38.41-.84.72-1.39.94-.54.22-1.15.33-1.82.33s-1.29-.11-1.83-.33c-.54-.22-1.01-.53-1.39-.94-.38-.41-.68-.9-.89-1.49s-.31-1.23-.31-1.95.1-1.37.31-1.95.5-1.07.89-1.49.85-.73,1.39-.95c.54-.22,1.15-.33,1.83-.33Zm0,8.05c.86,0,1.51-.29,1.94-.87.43-.58.64-1.4.64-2.46s-.21-1.88-.64-2.46c-.43-.58-1.07-.88-1.94-.88s-1.53.29-1.96.88c-.43.58-.64,1.41-.64,2.46s.21,1.88.64,2.46c.43.58,1.08.87,1.96.87Z" fill="#333e48" stroke-width="0"/><path d="m315.91,457.18c.2-.21.41-.4.62-.58s.45-.32.69-.45.5-.22.78-.29c.28-.07.58-.1.9-.1.5,0,.95.08,1.33.25s.7.4.96.71c.26.3.45.67.58,1.09.13.43.2.9.2,1.41v5.82h-1.76v-5.82c0-.65-.15-1.16-.45-1.53-.3-.36-.76-.54-1.38-.54-.45,0-.87.11-1.26.32-.39.21-.76.5-1.09.87v6.71h-1.75v-9.14h1.05c.25,0,.4.12.46.35l.13.92Z" fill="#333e48" stroke-width="0"/><path d="m325.98,457.18c.2-.21.41-.4.62-.58s.45-.32.69-.45.5-.22.78-.29c.28-.07.58-.1.9-.1.5,0,.95.08,1.33.25s.7.4.96.71c.26.3.45.67.58,1.09.13.43.2.9.2,1.41v5.82h-1.76v-5.82c0-.65-.15-1.16-.45-1.53-.3-.36-.76-.54-1.38-.54-.45,0-.87.11-1.26.32-.39.21-.76.5-1.09.87v6.71h-1.75v-9.14h1.05c.25,0,.4.12.46.35l.13.92Z" fill="#333e48" stroke-width="0"/><path d="m341.91,463.75c-.22.25-.46.47-.75.65-.28.18-.58.33-.9.45s-.65.2-.99.25-.67.08-1,.08c-.63,0-1.21-.11-1.75-.32s-1-.53-1.4-.94c-.39-.41-.7-.92-.92-1.53-.22-.61-.33-1.31-.33-2.1,0-.64.1-1.23.3-1.78.2-.55.48-1.03.85-1.44s.82-.73,1.35-.96c.53-.23,1.13-.35,1.8-.35.56,0,1.07.09,1.54.27.47.18.88.45,1.22.8.34.35.61.78.8,1.29.2.51.29,1.09.29,1.75,0,.27-.03.45-.09.54-.06.09-.17.14-.33.14h-5.99c.02.55.1,1.02.23,1.43.14.4.33.74.57,1.01.24.27.53.47.87.6s.71.2,1.12.2c.39,0,.73-.04,1.01-.13.29-.09.53-.19.74-.29.21-.1.38-.2.52-.29.14-.09.27-.13.37-.13.14,0,.25.05.33.16l.5.65Zm-1.45-4.28c0-.35-.05-.67-.15-.96s-.25-.55-.44-.77c-.19-.22-.43-.38-.7-.5s-.59-.18-.95-.18c-.74,0-1.32.21-1.74.64-.42.43-.69,1.02-.81,1.77h4.79Z" fill="#333e48" stroke-width="0"/><path d="m350.35,457.62c-.05.07-.11.12-.16.16s-.12.06-.22.06-.2-.04-.3-.11c-.11-.08-.24-.16-.4-.24s-.35-.17-.58-.24c-.22-.08-.5-.11-.83-.11-.43,0-.81.08-1.14.23-.33.16-.6.38-.82.67s-.39.64-.5,1.05c-.11.41-.17.88-.17,1.39s.06,1.01.18,1.43.29.77.51,1.05.49.5.81.65c.32.15.67.22,1.06.22s.69-.05.94-.14c.25-.09.45-.19.61-.3.16-.11.3-.21.41-.3s.22-.14.33-.14c.14,0,.25.05.33.16l.5.65c-.21.26-.45.48-.71.66-.26.18-.54.33-.83.44s-.6.2-.92.25c-.32.05-.65.08-.98.08-.57,0-1.1-.11-1.6-.32s-.92-.52-1.29-.92c-.36-.4-.65-.9-.86-1.48-.21-.58-.32-1.25-.32-1.99,0-.68.09-1.3.28-1.88.19-.58.47-1.07.84-1.49.37-.42.82-.74,1.36-.98s1.16-.36,1.85-.36c.65,0,1.23.11,1.73.32s.94.51,1.33.89l-.47.65Z" fill="#333e48" stroke-width="0"/><path d="m355.41,465.2c-.74,0-1.31-.21-1.71-.62-.4-.41-.6-1-.6-1.77v-5.47h-1.06c-.1,0-.19-.03-.26-.09-.07-.06-.1-.16-.1-.28v-.71l1.48-.21.4-2.73c.02-.1.07-.18.14-.24.07-.06.16-.09.27-.09h.89v3.07h2.59v1.28h-2.59v5.35c0,.36.09.63.27.81s.4.27.68.27c.16,0,.3-.02.42-.06.12-.04.22-.09.3-.14.08-.05.16-.1.22-.14.06-.04.11-.06.16-.06.06,0,.11.01.14.04.03.03.07.07.1.13l.52.85c-.29.26-.63.47-1.03.61-.4.14-.81.22-1.23.22Z" fill="#333e48" stroke-width="0"/><rect x="210" y="45" width="150" height="90" fill="#00c1de" stroke-width="0"/><path d="m259.3,91.44v5.04c-.65.47-1.35.82-2.09,1.05-.74.23-1.54.35-2.41.35-1.04,0-1.99-.16-2.83-.49s-1.56-.78-2.16-1.36c-.59-.58-1.05-1.28-1.37-2.09-.32-.81-.48-1.7-.48-2.67s.15-1.87.46-2.69c.31-.81.75-1.51,1.33-2.09s1.27-1.03,2.09-1.35c.82-.32,1.74-.48,2.76-.48.52,0,.99.04,1.44.12.44.08.85.19,1.23.33.38.14.73.32,1.05.52s.62.43.9.68l-.55.86c-.08.14-.2.22-.33.26s-.29,0-.45-.1c-.16-.09-.33-.2-.52-.32-.19-.12-.41-.23-.67-.33-.26-.1-.57-.19-.91-.26-.35-.07-.76-.11-1.23-.11-.71,0-1.35.12-1.92.35s-1.06.56-1.46.99c-.4.43-.71.95-.93,1.56-.22.61-.32,1.29-.32,2.05s.11,1.5.34,2.13c.23.63.55,1.16.97,1.59.42.43.92.77,1.52.99.6.23,1.26.34,2,.34.29,0,.56-.02.81-.05.25-.03.49-.08.72-.14.23-.06.45-.13.66-.23.21-.09.42-.19.63-.3v-2.71h-1.91c-.12,0-.22-.04-.29-.11-.08-.07-.11-.16-.11-.27v-1.09h4.05Z" fill="#333e48" stroke-width="0"/><path d="m268.97,88.59v9.14h-1.05c-.24,0-.4-.12-.47-.35l-.13-.92c-.2.21-.41.4-.62.58-.22.17-.45.32-.69.45s-.51.22-.78.29c-.28.07-.57.1-.89.1-.5,0-.95-.08-1.33-.25-.38-.17-.7-.4-.96-.71s-.45-.67-.58-1.09c-.13-.43-.2-.9-.2-1.41v-5.82h1.76v5.82c0,.65.15,1.16.45,1.53.3.36.76.54,1.38.54.45,0,.87-.11,1.26-.32.39-.21.76-.51,1.1-.88v-6.7h1.75Z" fill="#333e48" stroke-width="0"/><path d="m278.93,96.43c-.22.25-.46.47-.75.65-.28.18-.58.33-.9.45s-.65.2-.99.25-.67.08-1,.08c-.63,0-1.21-.11-1.75-.32s-1-.53-1.4-.94c-.39-.41-.7-.92-.92-1.53-.22-.61-.33-1.31-.33-2.1,0-.64.1-1.23.3-1.78.2-.55.48-1.03.85-1.44s.82-.73,1.35-.96c.53-.23,1.13-.35,1.8-.35.56,0,1.07.09,1.54.27.47.18.88.45,1.22.8.34.35.61.78.8,1.29.2.51.29,1.09.29,1.75,0,.27-.03.45-.09.54-.06.09-.17.14-.33.14h-5.99c.02.55.1,1.02.23,1.43.14.4.33.74.57,1.01.24.27.53.47.87.6s.71.2,1.12.2c.39,0,.73-.04,1.01-.13.29-.09.53-.19.74-.29.21-.1.38-.2.52-.29.14-.09.27-.13.37-.13.14,0,.25.05.33.16l.5.65Zm-1.45-4.28c0-.35-.05-.67-.15-.96s-.25-.55-.44-.77c-.19-.22-.43-.38-.7-.5s-.59-.18-.95-.18c-.74,0-1.32.21-1.74.64-.42.43-.69,1.02-.81,1.77h4.79Z" fill="#333e48" stroke-width="0"/><path d="m286.35,90.16c-.05.08-.1.13-.15.17-.05.03-.12.05-.21.05-.1,0-.2-.03-.32-.1-.12-.07-.26-.14-.42-.22s-.36-.15-.58-.22c-.22-.07-.49-.1-.79-.1-.25,0-.48.03-.69.09-.21.06-.38.15-.53.26-.14.11-.25.24-.33.4-.08.15-.12.32-.12.49,0,.23.07.42.2.57.13.15.31.28.53.39.22.11.47.21.75.29.28.09.56.18.85.27s.58.21.86.33c.28.12.53.28.75.46.22.18.4.4.53.66.14.26.2.57.2.95,0,.43-.08.82-.23,1.18-.15.36-.38.68-.67.94-.3.26-.67.47-1.1.62-.44.15-.94.22-1.5.22-.63,0-1.21-.1-1.75-.31-.53-.21-.98-.48-1.34-.8l.41-.68c.05-.08.11-.15.18-.19.07-.04.17-.07.29-.07.11,0,.23.04.35.13s.26.18.43.27c.17.1.37.19.61.27s.54.12.9.12c.3,0,.56-.04.78-.11.22-.08.41-.18.55-.31.15-.13.26-.28.33-.45.07-.17.11-.34.11-.53,0-.24-.07-.44-.2-.6s-.31-.3-.53-.41c-.22-.11-.47-.21-.75-.3-.28-.08-.57-.17-.86-.27s-.58-.21-.86-.33-.53-.29-.75-.48c-.22-.19-.4-.43-.53-.7-.13-.28-.2-.61-.2-1.01,0-.35.07-.69.22-1.02.15-.32.36-.61.64-.85.28-.25.62-.44,1.03-.59s.88-.22,1.41-.22c.61,0,1.15.1,1.64.29.49.19.91.46,1.25.79l-.39.64Z" fill="#333e48" stroke-width="0"/><path d="m291.64,97.87c-.74,0-1.31-.21-1.71-.62-.4-.41-.6-1-.6-1.77v-5.47h-1.06c-.1,0-.19-.03-.26-.09-.07-.06-.1-.16-.1-.28v-.71l1.48-.21.4-2.73c.02-.1.07-.18.14-.24.07-.06.16-.09.27-.09h.89v3.07h2.59v1.28h-2.59v5.35c0,.36.09.63.27.81s.4.27.68.27c.16,0,.3-.02.42-.06.12-.04.22-.09.3-.14.08-.05.16-.1.22-.14.06-.04.11-.06.16-.06.06,0,.11.01.14.04.03.03.07.07.1.13l.52.85c-.29.26-.63.47-1.03.61-.4.14-.81.22-1.23.22Z" fill="#333e48" stroke-width="0"/><path d="m312.24,91.27c0,.97-.15,1.85-.46,2.66-.31.81-.75,1.5-1.31,2.09-.56.58-1.24,1.04-2.03,1.36-.79.32-1.66.49-2.62.49s-1.83-.16-2.61-.49c-.79-.32-1.46-.78-2.03-1.36-.56-.58-1-1.28-1.31-2.09-.31-.81-.47-1.69-.47-2.66s.16-1.84.47-2.66c.31-.81.75-1.51,1.31-2.09.56-.58,1.24-1.04,2.03-1.37s1.66-.49,2.61-.49,1.83.16,2.62.49,1.46.78,2.03,1.37c.56.59,1,1.28,1.31,2.09.31.81.46,1.7.46,2.66Zm-1.96,0c0-.77-.1-1.46-.31-2.07-.21-.61-.51-1.13-.9-1.56-.39-.43-.86-.75-1.4-.98-.55-.23-1.16-.34-1.84-.34s-1.29.11-1.84.34c-.55.23-1.02.56-1.41.98-.39.43-.69.95-.9,1.56-.21.61-.32,1.3-.32,2.07s.11,1.47.32,2.07c.21.61.51,1.13.9,1.55.39.43.86.75,1.41.98.55.22,1.16.34,1.84.34s1.29-.11,1.84-.34c.55-.23,1.02-.55,1.4-.98.39-.43.68-.94.9-1.55.21-.61.31-1.3.31-2.07Z" fill="#333e48" stroke-width="0"/><path d="m321.33,86.91c-.06.1-.12.18-.19.23-.07.05-.15.07-.25.07s-.23-.05-.37-.15c-.14-.1-.31-.21-.52-.33-.21-.12-.45-.23-.74-.33-.29-.1-.63-.15-1.04-.15-.38,0-.71.05-.99.15-.29.1-.52.23-.72.41s-.34.37-.44.6c-.1.23-.15.48-.15.75,0,.35.09.64.27.86.18.23.41.42.7.58s.62.3.98.42c.37.12.74.25,1.12.37s.76.28,1.12.45c.37.17.69.38.98.63.29.26.52.57.7.94.18.37.26.82.26,1.35,0,.57-.1,1.1-.29,1.6-.2.5-.48.93-.85,1.31s-.83.66-1.37.88c-.54.21-1.16.32-1.85.32-.41,0-.82-.04-1.21-.12-.39-.08-.76-.2-1.11-.34-.35-.15-.67-.32-.98-.53s-.57-.44-.81-.7l.55-.92c.05-.07.12-.13.19-.18.08-.05.16-.07.26-.07.13,0,.27.07.44.2.17.13.37.28.61.44.24.16.53.3.87.44.34.13.75.2,1.24.2.4,0,.75-.05,1.06-.16.31-.1.58-.25.79-.45.21-.19.38-.43.49-.71.11-.28.17-.58.17-.92,0-.38-.09-.69-.26-.93-.17-.24-.41-.44-.69-.6s-.62-.3-.98-.41c-.37-.11-.74-.23-1.12-.36s-.76-.27-1.12-.43c-.37-.16-.69-.37-.98-.63-.29-.26-.52-.59-.69-.98-.17-.39-.26-.88-.26-1.45,0-.46.09-.91.27-1.34.18-.43.44-.81.79-1.15s.77-.6,1.27-.8,1.08-.3,1.73-.3c.73,0,1.39.12,2,.35.61.23,1.14.56,1.59,1l-.47.91Z" fill="#333e48" stroke-width="0"/><line x1="525" y1="300" x2="525" y2="420" fill="none" stroke="#333e48" stroke-miterlimit="10"/><path d="m50.51,47.54c.83,0,1.55.1,2.16.29.61.19,1.12.46,1.52.81.4.35.7.78.9,1.27.19.5.29,1.05.29,1.66s-.11,1.16-.32,1.67-.52.94-.93,1.31-.92.65-1.53.85-1.31.3-2.1.3h-2v4.76h-1.92v-12.92h3.92Zm0,6.65c.49,0,.91-.06,1.28-.19.37-.13.68-.3.93-.54.25-.23.44-.51.56-.83.13-.32.19-.68.19-1.07,0-.79-.24-1.4-.73-1.85s-1.23-.67-2.23-.67h-2v5.15h2Z" fill="#333e48" stroke-width="0"/><path d="m58.62,53.07c.29-.6.65-1.07,1.06-1.41s.91-.51,1.49-.51c.2,0,.38.02.56.07.18.04.33.11.46.2l-.12,1.32c-.04.16-.14.24-.3.24-.08,0-.21-.02-.38-.05s-.35-.05-.54-.05c-.28,0-.53.04-.75.12-.22.08-.41.2-.58.36s-.32.35-.45.58c-.13.23-.26.49-.37.79v5.72h-1.75v-9.14h1.01c.19,0,.32.03.39.1s.12.19.15.36l.11,1.29Z" fill="#333e48" stroke-width="0"/><path d="m67.11,51.17c.67,0,1.28.11,1.82.33.54.22,1,.53,1.39.95.38.41.67.91.88,1.49s.31,1.23.31,1.95-.1,1.37-.31,1.95-.5,1.08-.88,1.49c-.38.41-.84.72-1.39.94-.54.22-1.15.33-1.82.33s-1.29-.11-1.83-.33c-.54-.22-1.01-.53-1.39-.94-.38-.41-.68-.9-.89-1.49s-.31-1.23-.31-1.95.1-1.37.31-1.95.5-1.07.89-1.49.85-.73,1.39-.95c.54-.22,1.15-.33,1.83-.33Zm0,8.05c.86,0,1.51-.29,1.94-.87.43-.58.64-1.4.64-2.46s-.21-1.88-.64-2.46c-.43-.58-1.07-.88-1.94-.88s-1.53.29-1.96.88c-.43.58-.64,1.41-.64,2.46s.21,1.88.64,2.46c.43.58,1.08.87,1.96.87Z" fill="#333e48" stroke-width="0"/><path d="m79.86,53.03c-.05.07-.11.12-.16.16s-.12.06-.22.06-.2-.04-.3-.11c-.11-.08-.24-.16-.4-.24s-.35-.17-.58-.24c-.22-.08-.5-.11-.83-.11-.43,0-.81.08-1.14.23-.33.16-.6.38-.82.67s-.39.64-.5,1.05c-.11.41-.17.88-.17,1.39s.06,1.01.18,1.43.29.77.51,1.05.49.5.81.65c.32.15.67.22,1.06.22s.69-.05.94-.14c.25-.09.45-.19.61-.3.16-.11.3-.21.41-.3s.22-.14.33-.14c.14,0,.25.05.33.16l.5.65c-.21.26-.45.48-.71.66-.26.18-.54.33-.83.44s-.6.2-.92.25c-.32.05-.65.08-.98.08-.57,0-1.1-.11-1.6-.32s-.92-.52-1.29-.92c-.36-.4-.65-.9-.86-1.48-.21-.58-.32-1.25-.32-1.99,0-.68.09-1.3.28-1.88.19-.58.47-1.07.84-1.49.37-.42.82-.74,1.36-.98s1.16-.36,1.85-.36c.65,0,1.23.11,1.73.32s.94.51,1.33.89l-.47.65Z" fill="#333e48" stroke-width="0"/><path d="m89.41,59.16c-.22.25-.46.47-.75.65-.28.18-.58.33-.9.45s-.65.2-.99.25-.67.08-1,.08c-.63,0-1.21-.11-1.75-.32s-1-.53-1.4-.94c-.39-.41-.7-.92-.92-1.53-.22-.61-.33-1.31-.33-2.1,0-.64.1-1.23.3-1.78.2-.55.48-1.03.85-1.44s.82-.73,1.35-.96c.53-.23,1.13-.35,1.8-.35.56,0,1.07.09,1.54.27.47.18.88.45,1.22.8.34.35.61.78.8,1.29.2.51.29,1.09.29,1.75,0,.27-.03.45-.09.54-.06.09-.17.14-.33.14h-5.99c.02.55.1,1.02.23,1.43.14.4.33.74.57,1.01.24.27.53.47.87.6s.71.2,1.12.2c.39,0,.73-.04,1.01-.13.29-.09.53-.19.74-.29.21-.1.38-.2.52-.29.14-.09.27-.13.37-.13.14,0,.25.05.33.16l.5.65Zm-1.45-4.28c0-.35-.05-.67-.15-.96s-.25-.55-.44-.77c-.19-.22-.43-.38-.7-.5s-.59-.18-.95-.18c-.74,0-1.32.21-1.74.64-.42.43-.69,1.02-.81,1.77h4.79Z" fill="#333e48" stroke-width="0"/><path d="m96.83,52.89c-.05.08-.1.13-.15.17-.05.03-.12.05-.21.05-.1,0-.2-.03-.32-.1-.12-.07-.26-.14-.42-.22s-.36-.15-.58-.22c-.22-.07-.49-.1-.79-.1-.25,0-.48.03-.69.09-.21.06-.38.15-.53.26-.14.11-.25.24-.33.4-.08.15-.12.32-.12.49,0,.23.07.42.2.57.13.15.31.28.53.39.22.11.47.21.75.29.28.09.56.18.85.27s.58.21.86.33c.28.12.53.28.75.46.22.18.4.4.53.66.14.26.2.57.2.95,0,.43-.08.82-.23,1.18-.15.36-.38.68-.67.94-.3.26-.67.47-1.1.62-.44.15-.94.22-1.5.22-.63,0-1.21-.1-1.75-.31-.53-.21-.98-.48-1.34-.8l.41-.68c.05-.08.11-.15.18-.19.07-.04.17-.07.29-.07.11,0,.23.04.35.13s.26.18.43.27c.17.1.37.19.61.27s.54.12.9.12c.3,0,.56-.04.78-.11.22-.08.41-.18.55-.31.15-.13.26-.28.33-.45.07-.17.11-.34.11-.53,0-.24-.07-.44-.2-.6s-.31-.3-.53-.41c-.22-.11-.47-.21-.75-.3-.28-.08-.57-.17-.86-.27s-.58-.21-.86-.33-.53-.29-.75-.48c-.22-.19-.4-.43-.53-.7-.13-.28-.2-.61-.2-1.01,0-.35.07-.69.22-1.02.15-.32.36-.61.64-.85.28-.25.62-.44,1.03-.59s.88-.22,1.41-.22c.61,0,1.15.1,1.64.29.49.19.91.46,1.25.79l-.39.64Z" fill="#333e48" stroke-width="0"/><path d="m104.65,52.89c-.05.08-.1.13-.15.17-.05.03-.12.05-.21.05-.1,0-.2-.03-.32-.1-.12-.07-.26-.14-.42-.22s-.36-.15-.58-.22c-.22-.07-.49-.1-.79-.1-.25,0-.48.03-.69.09-.21.06-.38.15-.53.26-.14.11-.25.24-.33.4-.08.15-.12.32-.12.49,0,.23.07.42.2.57.13.15.31.28.53.39.22.11.47.21.75.29.28.09.56.18.85.27s.58.21.86.33c.28.12.53.28.75.46.22.18.4.4.53.66.14.26.2.57.2.95,0,.43-.08.82-.23,1.18-.15.36-.38.68-.67.94-.3.26-.67.47-1.1.62-.44.15-.94.22-1.5.22-.63,0-1.21-.1-1.75-.31-.53-.21-.98-.48-1.34-.8l.41-.68c.05-.08.11-.15.18-.19.07-.04.17-.07.29-.07.11,0,.23.04.35.13s.26.18.43.27c.17.1.37.19.61.27s.54.12.9.12c.3,0,.56-.04.78-.11.22-.08.41-.18.55-.31.15-.13.26-.28.33-.45.07-.17.11-.34.11-.53,0-.24-.07-.44-.2-.6s-.31-.3-.53-.41c-.22-.11-.47-.21-.75-.3-.28-.08-.57-.17-.86-.27s-.58-.21-.86-.33-.53-.29-.75-.48c-.22-.19-.4-.43-.53-.7-.13-.28-.2-.61-.2-1.01,0-.35.07-.69.22-1.02.15-.32.36-.61.64-.85.28-.25.62-.44,1.03-.59s.88-.22,1.41-.22c.61,0,1.15.1,1.64.29.49.19.91.46,1.25.79l-.39.64Z" fill="#333e48" stroke-width="0"/><path d="m110.98,51.17c.67,0,1.28.11,1.82.33.54.22,1,.53,1.39.95.38.41.67.91.88,1.49s.31,1.23.31,1.95-.1,1.37-.31,1.95-.5,1.08-.88,1.49c-.38.41-.84.72-1.39.94-.54.22-1.15.33-1.82.33s-1.29-.11-1.83-.33c-.54-.22-1.01-.53-1.39-.94-.38-.41-.68-.9-.89-1.49s-.31-1.23-.31-1.95.1-1.37.31-1.95.5-1.07.89-1.49.85-.73,1.39-.95c.54-.22,1.15-.33,1.83-.33Zm0,8.05c.86,0,1.51-.29,1.94-.87.43-.58.64-1.4.64-2.46s-.21-1.88-.64-2.46c-.43-.58-1.07-.88-1.94-.88s-1.53.29-1.96.88c-.43.58-.64,1.41-.64,2.46s.21,1.88.64,2.46c.43.58,1.08.87,1.96.87Z" fill="#333e48" stroke-width="0"/><path d="m118.98,53.07c.29-.6.65-1.07,1.06-1.41s.91-.51,1.49-.51c.2,0,.38.02.56.07.18.04.33.11.46.2l-.12,1.32c-.04.16-.14.24-.3.24-.08,0-.21-.02-.38-.05s-.35-.05-.54-.05c-.28,0-.53.04-.75.12-.22.08-.41.2-.58.36s-.32.35-.45.58c-.13.23-.26.49-.37.79v5.72h-1.75v-9.14h1.01c.19,0,.32.03.39.1s.12.19.15.36l.11,1.29Z" fill="#333e48" stroke-width="0"/><line x1="285" y1="240" x2="285" y2="285" fill="none" stroke="#333e48" stroke-miterlimit="10"/><line x1="285" y1="345" x2="285" y2="420" fill="none" stroke="#333e48" stroke-miterlimit="10"/></svg>