<svg xmlns="http://www.w3.org/2000/svg" id="Layer_1" width="795" height="600" viewBox="0 0 795 600">
  <rect x="90" y="60" width="345" height="285" fill="#e5eceb"/>
  <rect x="30" y="480" width="345" height="60" fill="#0091bd"/>
  <rect x="585" y="375" width="180" height="60" fill="#0091bd"/>
  <rect x="105" y="75" width="150" height="30" fill="#fff"/>
  <rect x="105" y="120" width="150" height="30" fill="#fff"/>
  <rect x="105" y="165" width="150" height="30" fill="#fff"/>
  <rect x="105" y="210" width="150" height="30" fill="#fff"/>
  <rect x="105" y="255" width="150" height="30" fill="#fff"/>
  <rect x="105" y="300" width="150" height="30" fill="#fff"/>
  <rect x="405" y="375" width="180" height="60" fill="#e5eceb"/>
  <rect x="45" y="495" width="150" height="30" fill="#fff"/>
  <rect x="210" y="495" width="150" height="30" fill="#fff"/>
  <rect x="270" y="75" width="150" height="30" fill="#fff"/>
  <rect x="270" y="120" width="150" height="30" fill="#fff"/>
  <rect x="270" y="165" width="150" height="30" fill="#fff"/>
  <rect x="270" y="210" width="150" height="30" fill="#fff"/>
  <rect x="270" y="255" width="150" height="30" fill="#fff"/>
  <rect x="270" y="300" width="150" height="30" fill="#fff"/>
  <text transform="translate(148.67 96.64)" fill="#333e48" font-family="Lato" font-size="18" font-weight="500"><tspan x="0" y="0" letter-spacing="-.05em">P</tspan><tspan x="9.99" y="0" letter-spacing="-.03em">A</tspan><tspan x="21.65" y="0" xml:space="preserve"> base</tspan></text>
  <text transform="translate(305.13 96.64)" fill="#333e48" font-family="Lato" font-size="18" font-weight="500"><tspan x="0" y="0" letter-spacing="-.03em">A</tspan><tspan x="11.73" y="0">ttribu</tspan><tspan x="55.92" y="0" letter-spacing="0em">t</tspan><tspan x="62.38" y="0">es</tspan></text>
  <text transform="translate(305.13 141.64)" fill="#333e48" font-family="Lato" font-size="18" font-weight="500"><tspan x="0" y="0" letter-spacing="-.03em">A</tspan><tspan x="11.73" y="0">ttribu</tspan><tspan x="55.92" y="0" letter-spacing="0em">t</tspan><tspan x="62.38" y="0">es</tspan></text>
  <text transform="translate(305.13 186.64)" fill="#333e48" font-family="Lato" font-size="18" font-weight="500"><tspan x="0" y="0" letter-spacing="-.03em">A</tspan><tspan x="11.73" y="0">ttribu</tspan><tspan x="55.92" y="0" letter-spacing="0em">t</tspan><tspan x="62.38" y="0">es</tspan></text>
  <text transform="translate(305.13 231.64)" fill="#333e48" font-family="Lato" font-size="18" font-weight="500"><tspan x="0" y="0" letter-spacing="-.03em">A</tspan><tspan x="11.73" y="0">ttribu</tspan><tspan x="55.92" y="0" letter-spacing="0em">t</tspan><tspan x="62.38" y="0">es</tspan></text>
  <text transform="translate(305.13 276.64)" fill="#333e48" font-family="Lato" font-size="18" font-weight="500"><tspan x="0" y="0" letter-spacing="-.03em">A</tspan><tspan x="11.73" y="0">ttribu</tspan><tspan x="55.92" y="0" letter-spacing="0em">t</tspan><tspan x="62.38" y="0">es</tspan></text>
  <text transform="translate(305.13 321.64)" fill="#333e48" font-family="Lato" font-size="18" font-weight="500"><tspan x="0" y="0" letter-spacing="-.03em">A</tspan><tspan x="11.73" y="0">ttribu</tspan><tspan x="55.92" y="0" letter-spacing="0em">t</tspan><tspan x="62.38" y="0">es</tspan></text>
  <text transform="translate(148.67 141.64)" fill="#333e48" font-family="Lato" font-size="18" font-weight="500"><tspan x="0" y="0" letter-spacing="-.05em">P</tspan><tspan x="9.99" y="0" letter-spacing="-.03em">A</tspan><tspan x="21.65" y="0" xml:space="preserve"> base</tspan></text>
  <text transform="translate(148.67 186.64)" fill="#333e48" font-family="Lato" font-size="18" font-weight="500"><tspan x="0" y="0" letter-spacing="-.05em">P</tspan><tspan x="9.99" y="0" letter-spacing="-.03em">A</tspan><tspan x="21.65" y="0" xml:space="preserve"> base</tspan></text>
  <text transform="translate(148.67 231.64)" fill="#333e48" font-family="Lato" font-size="18" font-weight="500"><tspan x="0" y="0" letter-spacing="-.05em">P</tspan><tspan x="9.99" y="0" letter-spacing="-.03em">A</tspan><tspan x="21.65" y="0" xml:space="preserve"> base</tspan></text>
  <text transform="translate(148.67 276.64)" fill="#333e48" font-family="Lato" font-size="18" font-weight="500"><tspan x="0" y="0" letter-spacing="-.05em">P</tspan><tspan x="9.99" y="0" letter-spacing="-.03em">A</tspan><tspan x="21.65" y="0" xml:space="preserve"> base</tspan></text>
  <text transform="translate(148.67 321.64)" fill="#333e48" font-family="Lato" font-size="18" font-weight="500"><tspan x="0" y="0" letter-spacing="-.05em">P</tspan><tspan x="9.99" y="0" letter-spacing="-.03em">A</tspan><tspan x="21.65" y="0" xml:space="preserve"> base</tspan></text>
  <rect x="420" y="390" width="150" height="30" fill="#fff"/>
  <text transform="translate(463.67 411.64)" fill="#333e48" font-family="Lato" font-size="18" font-weight="500"><tspan x="0" y="0" letter-spacing="-.05em">P</tspan><tspan x="9.99" y="0" letter-spacing="-.03em">A</tspan><tspan x="21.65" y="0" xml:space="preserve"> base</tspan></text>
  <rect x="600" y="390" width="150" height="30" fill="#fff"/>
  <text transform="translate(616.53 411.64)" fill="#333e48" font-family="Lato" font-size="18" font-weight="500"><tspan x="0" y="0" letter-spacing="0em">O</tspan><tspan x="14.37" y="0">ffs</tspan><tspan x="34.88" y="0" letter-spacing="0em">e</tspan><tspan x="44.34" y="0">t in block</tspan></text>
  <text transform="translate(71.11 516.64)" fill="#333e48" font-family="Lato" font-size="18" font-weight="500"><tspan x="0" y="0" letter-spacing="0em">W</tspan><tspan x="18.61" y="0">hich e</tspan><tspan x="65.83" y="0" letter-spacing="0em">n</tspan><tspan x="75.77" y="0">tr</tspan><tspan x="88.88" y="0" letter-spacing="-.02em">y</tspan></text>
  <text transform="translate(39.6 470.52)" fill="#333e48" font-family="Courier" font-size="18"><tspan x="0" y="0">N</tspan></text>
  <text transform="translate(354.6 470.52)" fill="#333e48" font-family="Courier" font-size="18"><tspan x="0" y="0">0</tspan></text>
  <text transform="translate(226.53 516.64)" fill="#333e48" font-family="Lato" font-size="18" font-weight="500"><tspan x="0" y="0" letter-spacing="0em">O</tspan><tspan x="14.37" y="0">ffs</tspan><tspan x="34.88" y="0" letter-spacing="0em">e</tspan><tspan x="44.34" y="0">t in block</tspan></text>
  <text transform="translate(196.48 44.14)" fill="#333e48" font-family="Lato" font-size="18" font-weight="500"><tspan x="0" y="0" letter-spacing="-.11em">T</tspan><tspan x="8.74" y="0" letter-spacing="0em">r</tspan><tspan x="15.19" y="0">ansl</tspan><tspan x="46.38" y="0" letter-spacing="0em">a</tspan><tspan x="55.25" y="0">tion</tspan><tspan x="86.46" y="0" letter-spacing="-.03em"> </tspan><tspan x="90.47" y="0" letter-spacing="-.11em">T</tspan><tspan x="99.11" y="0">able</tspan></text>
  <text transform="translate(67.48 569.14)" fill="#333e48" font-family="Lato" font-size="18" font-weight="500"><tspan x="0" y="0">Virtual add</tspan><tspan x="86.88" y="0" letter-spacing="-.02em">r</tspan><tspan x="93.14" y="0">ess issued </tspan><tspan x="177.14" y="0" letter-spacing="-.01em">b</tspan><tspan x="187.01" y="0" letter-spacing="-.02em">y</tspan><tspan x="195.9" y="0" xml:space="preserve"> s</tspan><tspan x="208.27" y="0" letter-spacing="-.01em">o</tspan><tspan x="218.3" y="0">ft</tspan><tspan x="231.17" y="0" letter-spacing="0em">w</tspan><tspan x="245.27" y="0" letter-spacing="0em">a</tspan><tspan x="254.26" y="0" letter-spacing="-.02em">r</tspan><tspan x="260.51" y="0">e</tspan></text>
  <text transform="translate(517.4 351.64)" fill="#333e48" font-family="Lato" font-size="18" font-weight="500"><tspan x="0" y="0" letter-spacing="-.11em">T</tspan><tspan x="8.74" y="0" letter-spacing="0em">r</tspan><tspan x="15.19" y="0">ansl</tspan><tspan x="46.38" y="0" letter-spacing="0em">a</tspan><tspan x="55.25" y="0" letter-spacing="0em">t</tspan><tspan x="61.71" y="0">ed add</tspan><tspan x="115.13" y="0" letter-spacing="-.02em">r</tspan><tspan x="121.38" y="0">ess f</tspan><tspan x="157.45" y="0" letter-spacing="-.02em">r</tspan><tspan x="163.7" y="0">om MMU</tspan></text>
  <g>
    <polyline points="60 480 60 210 85.26 210" fill="none" stroke="#333e48" stroke-miterlimit="10"/>
    <polygon points="84.09 213.99 91 210 84.09 206.01 84.09 213.99" fill="#333e48"/>
  </g>
  <g>
    <polyline points="435 210 495 210 495 369.26" fill="none" stroke="#333e48" stroke-miterlimit="10"/>
    <polygon points="491.01 368.09 495 375 498.99 368.09 491.01 368.09" fill="#333e48"/>
  </g>
  <g>
    <polyline points="375 510 675 510 675 440.74" fill="none" stroke="#333e48" stroke-miterlimit="10"/>
    <polygon points="678.99 441.91 675 435 671.01 441.91 678.99 441.91" fill="#333e48"/>
  </g>
</svg>