<svg xmlns="http://www.w3.org/2000/svg" id="Layer_1" width="900" height="345" viewBox="0 0 900 345">
  <defs>
    <style>
      .cls-1 {
        letter-spacing: 0em;
      }

      .cls-2 {
        letter-spacing: 0em;
      }

      .cls-3 {
        letter-spacing: -.02em;
      }

      .cls-4 {
        letter-spacing: -.02em;
      }

      .cls-5 {
        letter-spacing: 0em;
      }

      .cls-6 {
        letter-spacing: 0em;
      }

      .cls-7 {
        fill: #00c1de;
      }

      .cls-8, .cls-9 {
        fill: #333e48;
      }

      .cls-10 {
        letter-spacing: 0em;
      }

      .cls-11 {
        letter-spacing: -.02em;
      }

      .cls-12 {
        letter-spacing: -.01em;
      }

      .cls-13 {
        letter-spacing: 0em;
      }

      .cls-14 {
        letter-spacing: -.02em;
      }

      .cls-15 {
        letter-spacing: -.02em;
      }

      .cls-16 {
        letter-spacing: -.01em;
      }

      .cls-17 {
        letter-spacing: -.02em;
      }

      .cls-18 {
        letter-spacing: -.04em;
      }

      .cls-19 {
        letter-spacing: 0em;
      }

      .cls-20 {
        letter-spacing: 0em;
      }

      .cls-21 {
        letter-spacing: -.02em;
      }

      .cls-9 {
        font-family: Lato;
        font-size: 18px;
        font-weight: 500;
      }

      .cls-22 {
        letter-spacing: 0em;
      }

      .cls-23 {
        fill: none;
        stroke: #333e48;
        stroke-miterlimit: 10;
      }

      .cls-24 {
        letter-spacing: -.01em;
      }

      .cls-25 {
        letter-spacing: -.01em;
      }

      .cls-26 {
        letter-spacing: -.02em;
      }

      .cls-27 {
        letter-spacing: 0em;
      }

      .cls-28 {
        letter-spacing: 0em;
      }

      .cls-29 {
        letter-spacing: 0em;
      }

      .cls-30 {
        letter-spacing: -.03em;
      }

      .cls-31 {
        letter-spacing: 0em;
      }
    </style>
  </defs>
  <rect class="cls-7" x="210" y="240" width="210" height="60"/>
  <rect class="cls-7" x="210" y="135" width="210" height="60"/>
  <rect class="cls-7" x="210" y="30" width="210" height="60"/>
  <text class="cls-9" transform="translate(727.16 66.64)"><tspan class="cls-29" x="0" y="0">G</tspan><tspan x="12.98" y="0">uest OS</tspan></text>
  <rect class="cls-23" x="660" y="30" width="210" height="60"/>
  <text class="cls-9" transform="translate(721.41 170.14)"><tspan class="cls-16" x="0" y="0">H</tspan><tspan class="cls-31" x="13.58" y="0">yperviso</tspan><tspan class="cls-4" x="80.95" y="0">r</tspan><tspan x="-44.66" y="43.2">(3) </tspan><tspan class="cls-24" x="-19.99" y="43.2">H</tspan><tspan class="cls-2" x="-6.41" y="43.2">yperviso</tspan><tspan class="cls-4" x="60.96" y="43.2">r</tspan><tspan x="67.18" y="43.2" xml:space="preserve"> decides </tspan><tspan class="cls-1" x="-13.56" y="64.8">t</tspan><tspan x="-7.1" y="64.8">o </tspan><tspan class="cls-21" x="7.69" y="64.8">f</tspan><tspan x="13.75" y="64.8">or</tspan><tspan class="cls-6" x="30.59" y="64.8">w</tspan><tspan x="44.69" y="64.8">a</tspan><tspan class="cls-14" x="53.69" y="64.8">r</tspan><tspan x="59.96" y="64.8">d the </tspan><tspan x="-17.42" y="86.4">i</tspan><tspan class="cls-22" x="-13.04" y="86.4">n</tspan><tspan class="cls-1" x="-3.09" y="86.4">t</tspan><tspan x="3.37" y="86.4">erru</tspan><tspan class="cls-20" x="36.16" y="86.4">p</tspan><tspan x="46.17" y="86.4">t </tspan><tspan class="cls-13" x="57.23" y="86.4">t</tspan><tspan x="63.69" y="86.4">o the </tspan><tspan x="-41.63" y="108">cur</tspan><tspan class="cls-17" x="-16.36" y="108">r</tspan><tspan x="-10.1" y="108">e</tspan><tspan class="cls-22" x="-.57" y="108">n</tspan><tspan x="9.37" y="108">tl</tspan><tspan class="cls-15" x="20.19" y="108">y</tspan><tspan x="29.08" y="108" xml:space="preserve"> running</tspan><tspan class="cls-11" x="94.28" y="108"> </tspan><tspan class="cls-25" x="98.39" y="108">v</tspan><tspan x="107.53" y="108">PE</tspan></text>
  <text class="cls-9" transform="translate(45.68 255.04)"><tspan x="0" y="0">(1) </tspan><tspan class="cls-1" x="24.67" y="0">P</tspan><tspan class="cls-12" x="35.5" y="0">h</tspan><tspan class="cls-5" x="45.35" y="0">y</tspan><tspan x="54.52" y="0">sical </tspan><tspan x="-11.87" y="21.6">i</tspan><tspan class="cls-22" x="-7.48" y="21.6">n</tspan><tspan class="cls-1" x="2.46" y="21.6">t</tspan><tspan x="8.92" y="21.6">erru</tspan><tspan class="cls-20" x="41.71" y="21.6">p</tspan><tspan x="51.72" y="21.6">t f</tspan><tspan class="cls-26" x="69.12" y="21.6">r</tspan><tspan x="75.38" y="21.6">om </tspan><tspan class="cls-30" x="-7.29" y="43.2">R</tspan><tspan x="3.47" y="43.2">edistribu</tspan><tspan class="cls-1" x="72.99" y="43.2">t</tspan><tspan x="79.46" y="43.2">o</tspan><tspan class="cls-4" x="89.7" y="43.2">r</tspan></text>
  <text class="cls-9" transform="translate(501.44 85.84)"><tspan x="0" y="0">(5)</tspan><tspan class="cls-18" x="20.12" y="0"> </tspan><tspan x="24.01" y="0">Virtual</tspan><tspan x="-32.19" y="21.6">i</tspan><tspan class="cls-22" x="-27.81" y="21.6">n</tspan><tspan class="cls-1" x="-17.87" y="21.6">t</tspan><tspan x="-11.4" y="21.6">erru</tspan><tspan class="cls-20" x="21.38" y="21.6">p</tspan><tspan x="31.39" y="21.6">t asser</tspan><tspan class="cls-13" x="83.21" y="21.6">t</tspan><tspan x="89.67" y="21.6">ed</tspan></text>
  <text class="cls-9" transform="translate(457.49 187.54)"><tspan x="0" y="0">(4) </tspan><tspan class="cls-16" x="24.67" y="0">H</tspan><tspan class="cls-31" x="38.25" y="0">yperviso</tspan><tspan class="cls-4" x="105.62" y="0">r</tspan><tspan class="cls-3" x="111.84" y="0"> </tspan><tspan x="116.02" y="0">wri</tspan><tspan class="cls-1" x="141.21" y="0">t</tspan><tspan x="147.67" y="0">es</tspan><tspan x="-8.5" y="21.6">List </tspan><tspan class="cls-30" x="24.03" y="21.6">R</tspan><tspan x="34.79" y="21.6">egis</tspan><tspan class="cls-1" x="65.92" y="21.6">t</tspan><tspan x="72.38" y="21.6">e</tspan><tspan class="cls-4" x="81.91" y="21.6">r</tspan><tspan x="88.13" y="21.6"> </tspan><tspan class="cls-1" x="92.68" y="21.6">t</tspan><tspan x="99.14" y="21.6">o </tspan><tspan class="cls-17" x="113.92" y="21.6">r</tspan><tspan x="120.18" y="21.6">egis</tspan><tspan class="cls-13" x="151.31" y="21.6">t</tspan><tspan x="157.77" y="21.6">e</tspan><tspan class="cls-4" x="167.3" y="21.6">r</tspan><tspan x="13.54" y="43.2">a</tspan><tspan class="cls-11" x="22.53" y="43.2"> </tspan><tspan x="26.64" y="43.2">virtual i</tspan><tspan class="cls-22" x="85.76" y="43.2">n</tspan><tspan class="cls-1" x="95.71" y="43.2">t</tspan><tspan x="102.17" y="43.2">erru</tspan><tspan class="cls-10" x="134.96" y="43.2">p</tspan><tspan x="144.96" y="43.2">t</tspan></text>
  <text class="cls-9" transform="translate(458.36 295.84)"><tspan x="0" y="0">(2) </tspan><tspan class="cls-1" x="24.67" y="0">P</tspan><tspan class="cls-12" x="35.5" y="0">h</tspan><tspan class="cls-5" x="45.35" y="0">y</tspan><tspan x="54.52" y="0">sical i</tspan><tspan class="cls-22" x="97.56" y="0">n</tspan><tspan class="cls-1" x="107.5" y="0">t</tspan><tspan x="113.97" y="0">erru</tspan><tspan class="cls-10" x="146.75" y="0">p</tspan><tspan x="156.76" y="0">t </tspan><tspan x="48.2" y="21.6">asser</tspan><tspan class="cls-1" x="88.97" y="21.6">t</tspan><tspan x="95.43" y="21.6">ed</tspan></text>
  <g>
    <line class="cls-23" x1="315" y1="135" x2="315" y2="95.74"/>
    <polygon class="cls-8" points="318.99 96.91 315 90 311.01 96.91 318.99 96.91"/>
  </g>
  <g>
    <line class="cls-23" x1="165" y1="270" x2="204.26" y2="270"/>
    <polygon class="cls-8" points="203.09 273.99 210 270 203.09 266.01 203.09 273.99"/>
  </g>
  <g>
    <line class="cls-23" x1="420" y1="270" x2="654.26" y2="270"/>
    <polygon class="cls-8" points="653.09 273.99 660 270 653.09 266.01 653.09 273.99"/>
  </g>
  <g>
    <line class="cls-23" x1="660" y1="165" x2="425.74" y2="165"/>
    <polygon class="cls-8" points="426.91 161.01 420 165 426.91 168.99 426.91 161.01"/>
  </g>
  <g>
    <line class="cls-23" x1="420" y1="60" x2="654.26" y2="60"/>
    <polygon class="cls-8" points="653.09 63.99 660 60 653.09 56.01 653.09 63.99"/>
  </g>
  <rect class="cls-23" x="660" y="135" width="210" height="165"/>
  <text class="cls-9" transform="translate(225 276.64)"><tspan class="cls-1" x="0" y="0">P</tspan><tspan class="cls-12" x="10.84" y="0">h</tspan><tspan class="cls-5" x="20.68" y="0">y</tspan><tspan x="29.85" y="0">sical CPU </tspan><tspan class="cls-19" x="109.21" y="0">I</tspan><tspan class="cls-22" x="114.19" y="0">n</tspan><tspan class="cls-1" x="124.14" y="0">t</tspan><tspan x="130.6" y="0">er</tspan><tspan class="cls-27" x="146.73" y="0">f</tspan><tspan x="153.03" y="0">a</tspan><tspan class="cls-5" x="162.02" y="0">c</tspan><tspan x="170.47" y="0">e</tspan></text>
  <text class="cls-9" transform="translate(230.19 171.64)"><tspan x="0" y="0">Virtualiz</tspan><tspan class="cls-10" x="65.67" y="0">a</tspan><tspan x="74.54" y="0">tion </tspan><tspan class="cls-28" x="110.3" y="0">C</tspan><tspan x="122.12" y="0">o</tspan><tspan class="cls-22" x="132.36" y="0">n</tspan><tspan x="142.31" y="0">t</tspan><tspan class="cls-17" x="148.82" y="0">r</tspan><tspan x="155.08" y="0">ol</tspan></text>
  <text class="cls-9" transform="translate(230.42 66.64)"><tspan x="0" y="0">Virtual CPU </tspan><tspan class="cls-19" x="98.37" y="0">I</tspan><tspan class="cls-22" x="103.34" y="0">n</tspan><tspan class="cls-1" x="113.29" y="0">t</tspan><tspan x="119.75" y="0">er</tspan><tspan class="cls-27" x="135.88" y="0">f</tspan><tspan x="142.18" y="0">a</tspan><tspan class="cls-5" x="151.17" y="0">c</tspan><tspan x="159.62" y="0">e</tspan></text>
</svg>