<svg xmlns="http://www.w3.org/2000/svg" id="Layer_1" width="945" height="435" viewBox="0 0 945 435">
  <rect x="285" y="105" width="180" height="300" fill="#0091bd"/>
  <rect x="300" y="120" width="150" height="105" fill="#fff"/>
  <rect x="300" y="285" width="150" height="105" fill="#fff"/>
  <text transform="translate(288.98 45.04)" fill="#333e48" font-family="Lato" font-size="18" font-weight="500"><tspan x="0" y="0">Virtual</tspan><tspan x="53.12" y="0" letter-spacing="-.03em"> </tspan><tspan x="57.06" y="0" letter-spacing="-.01em">A</tspan><tspan x="69.13" y="0">dd</tspan><tspan x="89.36" y="0" letter-spacing="-.02em">r</tspan><tspan x="95.61" y="0">ess </tspan><tspan x="125.33" y="0" letter-spacing="-.01em">S</tspan><tspan x="134.94" y="0">pa</tspan><tspan x="154.05" y="0" letter-spacing="0em">c</tspan><tspan x="162.5" y="0">e</tspan><tspan x="19.76" y="21.6" letter-spacing="-.04em">F</tspan><tspan x="29.15" y="21.6">o</tspan><tspan x="39.39" y="21.6" letter-spacing="-.02em">r</tspan><tspan x="45.61" y="21.6" xml:space="preserve"> EL0/EL1 and </tspan><tspan x="-2.22" y="43.2">EL0/EL2</tspan><tspan x="66.17" y="43.2" letter-spacing="-.02em"> </tspan><tspan x="70.34" y="43.2">when E2H=1</tspan></text>
  <text transform="translate(331.17 344.14)" fill="#333e48" font-family="Lato" font-size="18" font-weight="500"><tspan x="0" y="0" letter-spacing="-.02em">U</tspan><tspan x="12.85" y="0">se</tspan><tspan x="30.2" y="0" letter-spacing="-.02em">r</tspan><tspan x="36.42" y="0"> </tspan><tspan x="40.97" y="0" letter-spacing="-.01em">S</tspan><tspan x="50.57" y="0">pa</tspan><tspan x="69.69" y="0" letter-spacing="0em">c</tspan><tspan x="78.14" y="0">e</tspan></text>
  <text transform="translate(323.69 179.14)" fill="#333e48" font-family="Lato" font-size="18" font-weight="500"><tspan x="0" y="0" letter-spacing="-.04em">K</tspan><tspan x="11.35" y="0">ernel </tspan><tspan x="55.93" y="0" letter-spacing="-.01em">S</tspan><tspan x="65.53" y="0">pa</tspan><tspan x="84.65" y="0" letter-spacing="0em">c</tspan><tspan x="93.1" y="0">e</tspan></text>
  <rect x="735" y="105" width="180" height="300" fill="#0091bd"/>
  <rect x="750" y="285" width="150" height="105" fill="#fff"/>
  <text transform="translate(738.98 45.04)" fill="#333e48" font-family="Lato" font-size="18" font-weight="500"><tspan x="0" y="0">Virtual</tspan><tspan x="53.12" y="0" letter-spacing="-.03em"> </tspan><tspan x="57.06" y="0" letter-spacing="-.01em">A</tspan><tspan x="69.13" y="0">dd</tspan><tspan x="89.36" y="0" letter-spacing="-.02em">r</tspan><tspan x="95.61" y="0">ess </tspan><tspan x="125.33" y="0" letter-spacing="-.01em">S</tspan><tspan x="134.94" y="0">pa</tspan><tspan x="154.05" y="0" letter-spacing="0em">c</tspan><tspan x="162.5" y="0">e</tspan><tspan x="38.91" y="21.6" letter-spacing="-.04em">F</tspan><tspan x="48.3" y="21.6">o</tspan><tspan x="58.54" y="21.6" letter-spacing="-.02em">r</tspan><tspan x="64.76" y="21.6" xml:space="preserve"> EL3 and </tspan><tspan x="16.92" y="43.2">EL2</tspan><tspan x="47.02" y="43.2" letter-spacing="-.02em"> </tspan><tspan x="51.2" y="43.2">when E2H=0</tspan></text>
  <text transform="translate(775.68 344.14)" fill="#333e48" font-family="Lato" font-size="18" font-weight="500"><tspan x="0" y="0" letter-spacing="0em">S</tspan><tspan x="9.72" y="0">ingle </tspan><tspan x="51.95" y="0" letter-spacing="-.01em">S</tspan><tspan x="61.55" y="0">pa</tspan><tspan x="80.67" y="0" letter-spacing="0em">c</tspan><tspan x="89.12" y="0">e</tspan></text>
  <text transform="translate(36.58 147.99)" fill="#333e48" font-family="Courier" font-size="18"><tspan x="0" y="0">0xFFFF_FFFF_FFFF_FFFF</tspan></text>
  <text transform="translate(36.58 222.99)" fill="#333e48" font-family="Courier" font-size="18"><tspan x="0" y="0">0xFFF0_0000_0000_0000</tspan></text>
  <text transform="translate(36.58 297.99)" fill="#333e48" font-family="Courier" font-size="18"><tspan x="0" y="0">0x000F_FFFF_FFFF_FFFF</tspan></text>
  <text transform="translate(486.58 297.99)" fill="#333e48" font-family="Courier" font-size="18"><tspan x="0" y="0">0x000F_FFFF_FFFF_FFFF</tspan></text>
  <text transform="translate(36.58 372.99)" fill="#333e48" font-family="Courier" font-size="18"><tspan x="0" y="0">0x0000_0000_0000_0000</tspan></text>
  <text transform="translate(486.58 372.99)" fill="#333e48" font-family="Courier" font-size="18"><tspan x="0" y="0">0x0000_0000_0000_0000</tspan></text>
  <path d="m367.58,148.13c1.93,0,1.93-3,0-3s-1.93,3,0,3h0Z" fill="#333e48"/>
</svg>