<svg xmlns="http://www.w3.org/2000/svg" id="Layer_1" width="510" height="585" viewBox="0 0 510 585"><path d="m275.8,101.98v4.33h5.18v1.56h-5.18v5.48h-1.93v-12.92h8.01v1.56h-6.08Z" fill="#333e48" stroke-width="0"/><path d="m286.8,104.06c.67,0,1.28.11,1.82.33.54.22,1,.53,1.39.95.38.41.67.91.88,1.49s.31,1.23.31,1.95-.1,1.37-.31,1.95-.5,1.08-.88,1.49c-.38.41-.84.72-1.39.94-.54.22-1.15.33-1.82.33s-1.29-.11-1.83-.33c-.54-.22-1.01-.53-1.39-.94-.38-.41-.68-.9-.89-1.49s-.31-1.23-.31-1.95.1-1.37.31-1.95.5-1.07.89-1.49.85-.73,1.39-.95c.54-.22,1.15-.33,1.83-.33Zm0,8.05c.86,0,1.51-.29,1.94-.87.43-.58.64-1.4.64-2.46s-.21-1.88-.64-2.46c-.43-.58-1.07-.88-1.94-.88s-1.53.29-1.96.88c-.43.58-.64,1.41-.64,2.46s.21,1.88.64,2.46c.43.58,1.08.87,1.96.87Z" fill="#333e48" stroke-width="0"/><path d="m294.8,105.96c.29-.6.65-1.07,1.06-1.41s.91-.51,1.49-.51c.2,0,.38.02.56.07.18.04.33.11.46.2l-.12,1.32c-.04.16-.14.24-.3.24-.08,0-.21-.02-.38-.05s-.35-.05-.54-.05c-.28,0-.53.04-.75.12-.22.08-.41.2-.58.36s-.32.35-.45.58c-.13.23-.26.49-.37.79v5.72h-1.75v-9.14h1.01c.19,0,.32.03.39.1s.12.19.15.36l.11,1.29Z" fill="#333e48" stroke-width="0"/><path d="m312.29,111.79v1.56h-8.02v-12.92h8.01v1.56h-6.08v4.09h4.9v1.5h-4.9v4.21h6.09Z" fill="#333e48" stroke-width="0"/><path d="m322.05,111.74v1.61h-7.4v-12.92h1.92v11.31h5.48Z" fill="#333e48" stroke-width="0"/><path d="m332.25,106.89c0,1.13-.12,2.11-.36,2.93s-.58,1.51-1,2.06-.92.95-1.49,1.21c-.57.26-1.19.4-1.85.4s-1.28-.13-1.85-.4c-.57-.26-1.07-.67-1.49-1.21s-.75-1.23-.99-2.06-.36-1.81-.36-2.93.12-2.11.36-2.94.57-1.52.99-2.06c.42-.54.92-.95,1.49-1.21s1.19-.4,1.85-.4,1.28.13,1.85.4,1.07.67,1.49,1.21c.42.54.76,1.23,1,2.06s.36,1.81.36,2.94Zm-1.82,0c0-.97-.08-1.79-.24-2.44-.16-.65-.37-1.18-.64-1.58-.27-.4-.58-.68-.92-.85s-.71-.25-1.09-.25-.74.08-1.09.25-.66.45-.92.85c-.27.4-.48.93-.63,1.58-.16.65-.23,1.47-.23,2.44s.08,1.79.23,2.44c.16.65.37,1.18.63,1.58.27.4.58.68.92.85s.71.25,1.09.25.74-.08,1.09-.25.66-.45.92-.85c.27-.4.48-.92.64-1.58.16-.65.24-1.47.24-2.44Z" fill="#333e48" stroke-width="0"/><path d="m335.04,113.49c-.08.23-.22.4-.4.51s-.37.17-.56.17h-.74l5.36-13.46c.08-.2.21-.36.36-.47.16-.11.34-.17.55-.17h.75l-5.34,13.43Z" fill="#333e48" stroke-width="0"/><path d="m350.58,111.79v1.56h-8.02v-12.92h8.01v1.56h-6.08v4.09h4.9v1.5h-4.9v4.21h6.09Z" fill="#333e48" stroke-width="0"/><path d="m360.34,111.74v1.61h-7.4v-12.92h1.92v11.31h5.48Z" fill="#333e48" stroke-width="0"/><path d="m369.82,112.01v1.34h-6.98v-1.34h2.74v-8.47c0-.27,0-.55.03-.84l-2.2,1.86c-.08.07-.17.11-.25.13-.08.02-.16.02-.24,0-.07-.01-.14-.04-.2-.08-.06-.04-.1-.08-.14-.12l-.55-.77,3.87-3.34h1.43v11.61h2.49Z" fill="#333e48" stroke-width="0"/><path d="m376.61,105.48c.51-.49,1.06-.85,1.66-1.09.6-.24,1.25-.36,1.97-.36.52,0,.98.09,1.39.26.4.17.74.41,1.02.72.28.31.48.67.62,1.1s.21.9.21,1.41v5.83h-.78c-.17,0-.31-.03-.4-.09-.09-.06-.16-.16-.22-.32l-.19-.8c-.23.22-.46.41-.69.57-.23.17-.47.31-.72.42-.25.12-.51.21-.8.27-.28.06-.59.09-.94.09s-.7-.05-1.01-.15c-.32-.1-.59-.25-.82-.45-.23-.2-.42-.46-.55-.76-.14-.31-.2-.66-.2-1.07,0-.36.1-.71.29-1.04.19-.33.51-.63.95-.9.44-.26,1.02-.48,1.73-.65s1.59-.26,2.62-.29v-.67c0-.69-.15-1.21-.44-1.55s-.73-.51-1.3-.51c-.38,0-.71.05-.97.14s-.49.2-.67.32c-.19.12-.35.22-.5.32-.14.1-.29.14-.44.14-.12,0-.22-.03-.31-.1-.09-.07-.16-.14-.21-.23l-.32-.57Zm5.15,3.81c-.71.02-1.32.08-1.82.17s-.9.2-1.21.35c-.31.14-.54.31-.67.51-.14.19-.21.41-.21.65,0,.23.04.42.11.59s.18.3.31.41c.13.11.28.18.46.23.17.05.36.07.57.07.27,0,.52-.03.74-.08.23-.05.44-.13.63-.23s.39-.22.57-.36c.18-.14.36-.31.53-.5v-1.8Z" fill="#333e48" stroke-width="0"/><path d="m387.48,105.47c.2-.21.41-.4.62-.58s.45-.32.69-.45.5-.22.78-.29c.28-.07.58-.1.9-.1.5,0,.95.08,1.33.25s.7.4.96.71c.26.3.45.67.58,1.09.13.43.2.9.2,1.41v5.82h-1.76v-5.82c0-.65-.15-1.16-.45-1.53-.3-.36-.76-.54-1.38-.54-.45,0-.87.11-1.26.32-.39.21-.76.5-1.09.87v6.71h-1.75v-9.14h1.05c.25,0,.4.12.46.35l.13.92Z" fill="#333e48" stroke-width="0"/><path d="m403.56,100.07v13.28h-1.06c-.25,0-.4-.12-.46-.35l-.15-1.05c-.39.46-.83.83-1.33,1.11-.5.28-1.07.42-1.71.42-.52,0-.99-.1-1.42-.31-.42-.2-.79-.5-1.08-.9-.3-.39-.53-.88-.69-1.46-.16-.58-.24-1.25-.24-2.01,0-.68.09-1.31.27-1.89.18-.58.44-1.09.78-1.51.34-.43.76-.76,1.24-1,.49-.24,1.04-.37,1.65-.37.55,0,1.02.09,1.41.27.39.18.73.43,1.04.76v-5h1.76Zm-1.76,6.35c-.29-.38-.6-.64-.93-.79-.33-.15-.71-.23-1.12-.23-.8,0-1.43.29-1.87.87-.44.58-.66,1.42-.66,2.53,0,.58.05,1.08.15,1.49.1.41.24.75.43,1.01.19.26.42.45.7.58.28.12.59.18.94.18.51,0,.95-.11,1.32-.34.37-.23.72-.55,1.04-.96v-4.34Z" fill="#333e48" stroke-width="0"/><path d="m418.94,111.79v1.56h-8.02v-12.92h8.01v1.56h-6.08v4.09h4.9v1.5h-4.9v4.21h6.09Z" fill="#333e48" stroke-width="0"/><path d="m428.71,111.74v1.61h-7.4v-12.92h1.92v11.31h5.48Z" fill="#333e48" stroke-width="0"/><path d="m438.9,106.89c0,1.13-.12,2.11-.36,2.93s-.58,1.51-1,2.06-.92.95-1.49,1.21c-.57.26-1.19.4-1.85.4s-1.28-.13-1.85-.4c-.57-.26-1.07-.67-1.49-1.21s-.75-1.23-.99-2.06-.36-1.81-.36-2.93.12-2.11.36-2.94.57-1.52.99-2.06c.42-.54.92-.95,1.49-1.21s1.19-.4,1.85-.4,1.28.13,1.85.4,1.07.67,1.49,1.21c.42.54.76,1.23,1,2.06s.36,1.81.36,2.94Zm-1.82,0c0-.97-.08-1.79-.24-2.44-.16-.65-.37-1.18-.64-1.58-.27-.4-.58-.68-.92-.85s-.71-.25-1.09-.25-.74.08-1.09.25-.66.45-.92.85c-.27.4-.48.93-.63,1.58-.16.65-.23,1.47-.23,2.44s.08,1.79.23,2.44c.16.65.37,1.18.63,1.58.27.4.58.68.92.85s.71.25,1.09.25.74-.08,1.09-.25.66-.45.92-.85c.27-.4.48-.92.64-1.58.16-.65.24-1.47.24-2.44Z" fill="#333e48" stroke-width="0"/><path d="m441.7,113.49c-.08.23-.22.4-.4.51s-.37.17-.56.17h-.74l5.36-13.46c.08-.2.21-.36.36-.47.16-.11.34-.17.55-.17h.75l-5.34,13.43Z" fill="#333e48" stroke-width="0"/><path d="m457.24,111.79v1.56h-8.02v-12.92h8.01v1.56h-6.08v4.09h4.9v1.5h-4.9v4.21h6.09Z" fill="#333e48" stroke-width="0"/><path d="m467,111.74v1.61h-7.4v-12.92h1.92v11.31h5.48Z" fill="#333e48" stroke-width="0"/><path d="m476.15,111.68c.19,0,.34.06.45.17.11.11.16.26.16.44v1.06h-8.68v-.6c0-.12.02-.25.07-.38s.13-.26.24-.36l4.09-4.1c.34-.34.65-.67.93-.99.28-.32.51-.63.7-.95.19-.31.34-.64.45-.97.11-.33.16-.68.16-1.04s-.06-.68-.17-.95c-.11-.27-.27-.5-.47-.68-.2-.18-.43-.31-.7-.4-.27-.09-.56-.14-.87-.14s-.6.05-.86.14c-.26.09-.49.22-.7.38s-.38.35-.51.58c-.14.22-.24.46-.3.72-.08.23-.19.38-.32.46-.13.08-.32.1-.56.05l-.92-.16c.08-.6.25-1.13.5-1.58s.56-.84.93-1.15c.37-.31.8-.54,1.28-.7.48-.16,1-.23,1.56-.23s1.08.08,1.56.25c.48.17.89.4,1.24.71.35.31.62.69.82,1.14.2.45.3.95.3,1.52,0,.48-.07.93-.21,1.34-.14.41-.33.8-.58,1.17-.24.37-.52.73-.85,1.08s-.66.71-1.02,1.07l-3.28,3.35c.25-.07.51-.12.76-.16s.5-.06.72-.06h4.08Z" fill="#333e48" stroke-width="0"/><path d="m336.99,125.81l-2.94,9.14h-1.4c-.17,0-.28-.11-.34-.33l-1.93-5.96c-.05-.15-.09-.3-.13-.45-.04-.15-.07-.3-.1-.45-.05.31-.13.61-.23.91l-1.95,5.94c-.06.22-.19.33-.39.33h-1.33l-2.95-9.14h1.39c.14,0,.25.03.35.1.09.07.15.15.18.25l1.65,5.62c.05.23.1.45.14.67s.08.43.12.65c.05-.22.11-.43.18-.65.06-.22.13-.44.19-.67l1.83-5.65c.03-.1.09-.18.17-.25.08-.06.19-.09.31-.09h.77c.13,0,.24.03.33.09.09.06.15.15.18.25l1.78,5.65c.07.23.13.45.19.67.06.22.11.44.16.66.04-.22.08-.43.13-.65.05-.22.1-.45.16-.68l1.67-5.62c.03-.1.09-.19.18-.25s.2-.1.32-.1h1.32Z" fill="#333e48" stroke-width="0"/><path d="m340.24,126.97c.38-.39.81-.7,1.27-.94s1-.36,1.61-.36c.5,0,.95.08,1.33.25s.7.4.96.71c.26.3.45.67.58,1.09.13.43.2.9.2,1.41v5.82h-1.76v-5.82c0-.65-.15-1.16-.45-1.53-.3-.36-.76-.54-1.38-.54-.45,0-.87.11-1.26.32-.39.21-.76.5-1.09.87v6.71h-1.75v-13.28h1.75v5.3Z" fill="#333e48" stroke-width="0"/><path d="m356.07,133.65c-.22.25-.46.47-.75.65-.28.18-.58.33-.9.45s-.65.2-.99.25-.67.08-1,.08c-.63,0-1.21-.11-1.75-.32s-1-.53-1.4-.94c-.39-.41-.7-.92-.92-1.53-.22-.61-.33-1.31-.33-2.1,0-.64.1-1.23.3-1.78.2-.55.48-1.03.85-1.44s.82-.73,1.35-.96c.53-.23,1.13-.35,1.8-.35.56,0,1.07.09,1.54.27.47.18.88.45,1.22.8.34.35.61.78.8,1.29.2.51.29,1.09.29,1.75,0,.27-.03.45-.09.54-.06.09-.17.14-.33.14h-5.99c.02.55.1,1.02.23,1.43.14.4.33.74.57,1.01.24.27.53.47.87.6s.71.2,1.12.2c.39,0,.73-.04,1.01-.13.29-.09.53-.19.74-.29.21-.1.38-.2.52-.29.14-.09.27-.13.37-.13.14,0,.25.05.33.16l.5.65Zm-1.45-4.28c0-.35-.05-.67-.15-.96s-.25-.55-.44-.77c-.19-.22-.43-.38-.7-.5s-.59-.18-.95-.18c-.74,0-1.32.21-1.74.64-.42.43-.69,1.02-.81,1.77h4.79Z" fill="#333e48" stroke-width="0"/><path d="m359.74,127.08c.2-.21.41-.4.62-.58s.45-.32.69-.45.5-.22.78-.29c.28-.07.58-.1.9-.1.5,0,.95.08,1.33.25s.7.4.96.71c.26.3.45.67.58,1.09.13.43.2.9.2,1.41v5.82h-1.76v-5.82c0-.65-.15-1.16-.45-1.53-.3-.36-.76-.54-1.38-.54-.45,0-.87.11-1.26.32-.39.21-.76.5-1.09.87v6.71h-1.75v-9.14h1.05c.25,0,.4.12.46.35l.13.92Z" fill="#333e48" stroke-width="0"/><path d="m381.09,133.39v1.56h-8.02v-12.92h8.01v1.56h-6.08v4.09h4.9v1.5h-4.9v4.21h6.09Z" fill="#333e48" stroke-width="0"/><path d="m390.73,133.29c.19,0,.34.06.45.17.11.11.16.26.16.44v1.06h-8.68v-.6c0-.12.02-.25.07-.38s.13-.26.24-.36l4.09-4.1c.34-.34.65-.67.93-.99.28-.32.51-.63.7-.95.19-.31.34-.64.45-.97.11-.33.16-.68.16-1.04s-.06-.68-.17-.95c-.11-.27-.27-.5-.47-.68-.2-.18-.43-.31-.7-.4-.27-.09-.56-.14-.87-.14s-.6.05-.86.14c-.26.09-.49.22-.7.38s-.38.35-.51.58c-.14.22-.24.46-.3.72-.08.23-.19.38-.32.46-.13.08-.32.1-.56.05l-.92-.16c.08-.6.25-1.13.5-1.58s.56-.84.93-1.15c.37-.31.8-.54,1.28-.7.48-.16,1-.23,1.56-.23s1.08.08,1.56.25c.48.17.89.4,1.24.71.35.31.62.69.82,1.14.2.45.3.95.3,1.52,0,.48-.07.93-.21,1.34-.14.41-.33.8-.58,1.17-.24.37-.52.73-.85,1.08s-.66.71-1.02,1.07l-3.28,3.35c.25-.07.51-.12.76-.16s.5-.06.72-.06h4.08Z" fill="#333e48" stroke-width="0"/><path d="m404.48,122.03v12.92h-1.92v-5.82h-6.74v5.82h-1.93v-12.92h1.93v5.71h6.74v-5.71h1.92Z" fill="#333e48" stroke-width="0"/><path d="m407.4,126.7h7.79v1.33h-7.79v-1.33Zm0,3.06h7.79v1.33h-7.79v-1.33Z" fill="#333e48" stroke-width="0"/><path d="m425.71,133.61v1.34h-6.98v-1.34h2.74v-8.47c0-.27,0-.55.03-.84l-2.2,1.86c-.08.07-.17.11-.25.13-.08.02-.16.02-.24,0-.07-.01-.14-.04-.2-.08-.06-.04-.1-.08-.14-.12l-.55-.77,3.87-3.34h1.43v11.61h2.49Z" fill="#333e48" stroke-width="0"/><path d="m316.16,32.75l-6.42,15.8h-2.1l-6.42-15.8h1.87c.21,0,.37.05.5.15.13.1.23.23.29.4l4.27,10.74c.1.26.2.55.3.87.1.32.19.64.27.99.07-.34.15-.67.24-.99s.18-.61.29-.87l4.26-10.74c.05-.15.15-.28.28-.38.14-.11.3-.17.5-.17h1.88Z" fill="#333e48" stroke-width="0"/><path d="m320.34,33.92c0,.2-.04.39-.12.57-.08.18-.19.34-.32.47-.14.14-.3.24-.48.32-.18.08-.37.12-.57.12s-.38-.04-.56-.12c-.18-.08-.33-.18-.47-.32s-.24-.29-.32-.47-.12-.37-.12-.57.04-.4.12-.58.18-.34.32-.47.29-.24.47-.32c.18-.08.36-.12.56-.12s.39.04.57.12c.18.08.34.18.48.32.13.14.24.29.32.47.08.18.12.37.12.58Zm-.41,3.45v11.18h-2.14v-11.18h2.14Z" fill="#333e48" stroke-width="0"/><path d="m325.07,39.52c.36-.73.79-1.31,1.3-1.73s1.11-.63,1.83-.63c.24,0,.47.03.69.08.22.06.41.14.57.25l-.14,1.62c-.05.2-.17.3-.36.3-.1,0-.26-.02-.46-.06-.21-.04-.43-.06-.66-.06-.34,0-.65.05-.91.15-.26.1-.5.25-.71.44s-.39.43-.56.71c-.16.28-.31.6-.45.96v7h-2.15v-11.18h1.23c.23,0,.39.04.48.13.08.08.14.23.18.45l.13,1.57Z" fill="#333e48" stroke-width="0"/><path d="m334.6,48.73c-.9,0-1.6-.25-2.08-.76-.49-.51-.73-1.23-.73-2.17v-6.69h-1.3c-.12,0-.23-.04-.31-.12-.08-.08-.13-.19-.13-.35v-.87l1.81-.25.48-3.33c.03-.12.09-.22.17-.29.08-.07.19-.1.32-.1h1.09v3.75h3.17v1.56h-3.17v6.55c0,.44.11.77.32.98.22.22.49.32.83.32.2,0,.37-.03.51-.08.14-.05.27-.11.37-.17.1-.06.19-.12.26-.17.07-.05.14-.08.2-.08.07,0,.13.02.17.05.04.03.08.09.13.16l.64,1.03c-.35.32-.77.57-1.25.75-.48.18-.99.26-1.51.26Z" fill="#333e48" stroke-width="0"/><path d="m348.36,37.37v11.18h-1.29c-.29,0-.48-.14-.57-.43l-.15-1.12c-.24.26-.5.49-.76.7-.26.21-.55.39-.85.54s-.62.27-.96.35c-.34.08-.7.13-1.09.13-.62,0-1.16-.1-1.62-.31s-.86-.49-1.17-.86-.55-.82-.71-1.34-.24-1.1-.24-1.73v-7.12h2.16v7.12c0,.8.18,1.42.55,1.86.37.44.93.67,1.68.67.55,0,1.06-.13,1.54-.39.48-.26.92-.62,1.34-1.07v-8.18h2.14Z" fill="#333e48" stroke-width="0"/><path d="m351.08,38.94c.62-.59,1.3-1.04,2.03-1.33.73-.29,1.53-.44,2.4-.44.64,0,1.2.1,1.69.31s.91.5,1.24.87.59.82.76,1.34c.17.52.26,1.1.26,1.73v7.13h-.96c-.21,0-.37-.04-.48-.1-.11-.07-.2-.2-.26-.39l-.23-.98c-.29.26-.57.5-.85.7-.28.2-.57.37-.88.52-.3.14-.63.25-.97.33-.34.07-.73.11-1.14.11-.44,0-.85-.06-1.24-.18s-.72-.31-1.01-.55c-.29-.25-.51-.56-.68-.94s-.25-.81-.25-1.31c0-.44.12-.86.36-1.27.24-.41.63-.77,1.17-1.09s1.24-.59,2.11-.79,1.94-.32,3.21-.35v-.81c0-.84-.18-1.47-.54-1.89-.36-.42-.89-.63-1.58-.63-.47,0-.86.06-1.18.18-.32.12-.59.25-.82.39-.23.14-.43.27-.61.39-.17.12-.35.18-.53.18-.15,0-.27-.04-.38-.12-.11-.08-.19-.18-.26-.29l-.39-.69Zm6.29,4.65c-.87.03-1.61.1-2.22.2-.61.11-1.1.25-1.49.42-.38.18-.66.38-.82.62-.17.24-.25.5-.25.8s.05.52.14.72c.09.2.22.37.37.5.16.13.34.22.56.28s.44.09.69.09c.33,0,.63-.03.91-.1.28-.07.53-.16.78-.28.24-.12.47-.27.69-.45.22-.18.44-.38.65-.6v-2.2Z" fill="#333e48" stroke-width="0"/><path d="m364.56,32.31v16.24h-2.16v-16.24h2.16Z" fill="#333e48" stroke-width="0"/><path d="m385.9,48.55h-1.8c-.21,0-.37-.05-.51-.15-.13-.1-.23-.23-.29-.4l-1.4-3.66h-6.96l-1.4,3.66c-.05.14-.15.27-.29.38-.14.11-.31.17-.51.17h-1.8l6.29-15.8h2.36l6.29,15.8Zm-4.63-5.88l-2.34-6.13c-.17-.42-.34-.95-.51-1.58-.08.32-.16.61-.25.88-.08.27-.17.51-.25.73l-2.33,6.11h5.68Z" fill="#333e48" stroke-width="0"/><path d="m396.55,32.31v16.24h-1.3c-.3,0-.49-.14-.56-.43l-.19-1.29c-.48.56-1.02,1.02-1.62,1.36-.6.34-1.3.51-2.1.51-.64,0-1.21-.12-1.73-.37-.52-.25-.96-.61-1.33-1.09-.37-.48-.65-1.08-.85-1.79-.2-.71-.3-1.53-.3-2.45,0-.83.11-1.6.33-2.31.22-.71.54-1.33.96-1.85s.92-.93,1.52-1.23,1.26-.45,2.01-.45c.67,0,1.25.11,1.72.33.47.22.9.53,1.27.93v-6.12h2.16Zm-2.16,7.77c-.35-.46-.73-.79-1.14-.97-.41-.18-.86-.27-1.37-.27-.98,0-1.74.35-2.28,1.06s-.81,1.74-.81,3.1c0,.71.06,1.32.18,1.82.12.5.3.91.53,1.23.23.32.52.55.85.7.34.15.72.23,1.14.23.62,0,1.16-.14,1.62-.42.46-.28.88-.67,1.28-1.18v-5.3Z" fill="#333e48" stroke-width="0"/><path d="m408.91,32.31v16.24h-1.3c-.3,0-.49-.14-.56-.43l-.19-1.29c-.48.56-1.02,1.02-1.62,1.36-.6.34-1.3.51-2.1.51-.64,0-1.21-.12-1.73-.37-.52-.25-.96-.61-1.33-1.09-.37-.48-.65-1.08-.85-1.79-.2-.71-.3-1.53-.3-2.45,0-.83.11-1.6.33-2.31.22-.71.54-1.33.96-1.85s.92-.93,1.52-1.23,1.26-.45,2.01-.45c.67,0,1.25.11,1.72.33.47.22.9.53,1.27.93v-6.12h2.16Zm-2.16,7.77c-.35-.46-.73-.79-1.14-.97-.41-.18-.86-.27-1.37-.27-.98,0-1.74.35-2.28,1.06s-.81,1.74-.81,3.1c0,.71.06,1.32.18,1.82.12.5.3.91.53,1.23.23.32.52.55.85.7.34.15.72.23,1.14.23.62,0,1.16-.14,1.62-.42.46-.28.88-.67,1.28-1.18v-5.3Z" fill="#333e48" stroke-width="0"/><path d="m413.94,39.52c.36-.73.79-1.31,1.3-1.73s1.11-.63,1.83-.63c.24,0,.47.03.69.08.22.06.41.14.57.25l-.14,1.62c-.05.2-.17.3-.36.3-.1,0-.26-.02-.46-.06-.21-.04-.43-.06-.66-.06-.34,0-.65.05-.91.15-.26.1-.5.25-.71.44s-.39.43-.56.71c-.16.28-.31.6-.45.96v7h-2.15v-11.18h1.23c.23,0,.39.04.48.13.08.08.14.23.18.45l.13,1.57Z" fill="#333e48" stroke-width="0"/><path d="m428.73,46.96c-.26.31-.57.57-.91.8-.34.22-.71.41-1.1.54s-.79.24-1.2.31c-.42.07-.82.1-1.23.1-.77,0-1.48-.13-2.14-.39-.66-.26-1.22-.64-1.71-1.14-.48-.5-.85-1.12-1.12-1.87-.27-.74-.4-1.6-.4-2.57,0-.78.12-1.5.36-2.17.24-.67.59-1.26,1.04-1.75.45-.5,1-.89,1.66-1.18.65-.29,1.39-.43,2.2-.43.68,0,1.31.11,1.89.33.58.22,1.07.55,1.49.97.42.43.75.95.98,1.57s.36,1.33.36,2.13c0,.33-.04.55-.11.67-.07.11-.21.17-.41.17h-7.33c.02.67.12,1.25.29,1.74s.4.91.7,1.24c.3.33.65.58,1.06.74.41.16.87.24,1.38.24.48,0,.89-.05,1.24-.17.35-.11.65-.23.9-.36s.47-.25.64-.36c.17-.11.33-.17.46-.17.18,0,.31.07.41.2l.62.79Zm-1.77-5.24c0-.42-.06-.82-.18-1.18s-.3-.67-.53-.94c-.24-.26-.52-.47-.86-.62-.34-.15-.73-.22-1.17-.22-.9,0-1.61.26-2.13.78-.52.52-.85,1.24-.99,2.17h5.85Z" fill="#333e48" stroke-width="0"/><path d="m437.79,39.3c-.06.1-.12.16-.19.2-.07.04-.15.06-.25.06-.12,0-.25-.04-.39-.12-.14-.08-.32-.17-.52-.26-.2-.09-.44-.18-.71-.26-.27-.08-.59-.12-.97-.12-.31,0-.59.04-.84.12s-.47.18-.64.32-.31.3-.41.48c-.09.19-.14.39-.14.6,0,.28.08.51.25.69s.38.34.65.47.57.25.91.36c.34.11.69.22,1.04.34s.7.25,1.04.4.65.34.91.56c.27.22.48.49.65.81.17.32.25.7.25,1.16,0,.52-.09,1-.28,1.45-.19.44-.46.83-.83,1.15-.36.32-.81.58-1.35.76-.54.18-1.15.27-1.84.27-.77,0-1.48-.13-2.13-.38-.65-.26-1.2-.58-1.64-.98l.51-.82c.06-.1.13-.18.22-.24.09-.06.21-.08.35-.08s.28.05.43.15c.15.1.32.21.53.33s.46.23.75.33c.29.1.66.15,1.1.15.37,0,.69-.05.96-.14.27-.09.5-.22.68-.37.18-.16.31-.34.4-.54.09-.21.13-.42.13-.65,0-.29-.08-.54-.25-.73s-.38-.36-.65-.5c-.27-.14-.57-.26-.92-.36s-.7-.21-1.06-.33-.71-.25-1.06-.41c-.34-.15-.65-.35-.92-.58-.27-.23-.48-.52-.65-.86-.17-.34-.25-.75-.25-1.23,0-.43.09-.85.27-1.24.18-.4.44-.74.78-1.04.34-.3.76-.54,1.27-.72.5-.18,1.08-.27,1.72-.27.74,0,1.41.12,2.01.35s1.11.56,1.54.97l-.47.78Z" fill="#333e48" stroke-width="0"/><path d="m447.35,39.3c-.06.1-.12.16-.19.2-.07.04-.15.06-.25.06-.12,0-.25-.04-.39-.12-.14-.08-.32-.17-.52-.26-.2-.09-.44-.18-.71-.26-.27-.08-.59-.12-.97-.12-.31,0-.59.04-.84.12s-.47.18-.64.32-.31.3-.41.48c-.09.19-.14.39-.14.6,0,.28.08.51.25.69s.38.34.65.47.57.25.91.36c.34.11.69.22,1.04.34s.7.25,1.04.4.65.34.91.56c.27.22.48.49.65.81.17.32.25.7.25,1.16,0,.52-.09,1-.28,1.45-.19.44-.46.83-.83,1.15-.36.32-.81.58-1.35.76-.54.18-1.15.27-1.84.27-.77,0-1.48-.13-2.13-.38-.65-.26-1.2-.58-1.64-.98l.51-.82c.06-.1.13-.18.22-.24.09-.06.21-.08.35-.08s.28.05.43.15c.15.1.32.21.53.33s.46.23.75.33c.29.1.66.15,1.1.15.37,0,.69-.05.96-.14.27-.09.5-.22.68-.37.18-.16.31-.34.4-.54.09-.21.13-.42.13-.65,0-.29-.08-.54-.25-.73s-.38-.36-.65-.5c-.27-.14-.57-.26-.92-.36s-.7-.21-1.06-.33-.71-.25-1.06-.41c-.34-.15-.65-.35-.92-.58-.27-.23-.48-.52-.65-.86-.17-.34-.25-.75-.25-1.23,0-.43.09-.85.27-1.24.18-.4.44-.74.78-1.04.34-.3.76-.54,1.27-.72.5-.18,1.08-.27,1.72-.27.74,0,1.41.12,2.01.35s1.11.56,1.54.97l-.47.78Z" fill="#333e48" stroke-width="0"/><path d="m356.58,61.73c-.07.12-.15.22-.23.27-.08.06-.18.09-.31.09-.13,0-.28-.06-.45-.18-.17-.12-.38-.26-.63-.41-.25-.15-.55-.29-.91-.41-.35-.12-.77-.18-1.26-.18-.46,0-.87.06-1.22.18s-.64.29-.87.5c-.24.21-.41.46-.53.74s-.18.59-.18.92c0,.43.11.78.33,1.06.22.28.5.52.85.72.35.2.75.37,1.2.52.45.15.91.3,1.38.46.47.16.93.34,1.38.54.45.21.85.46,1.2.78.35.31.64.69.85,1.14.22.45.33,1,.33,1.66,0,.7-.12,1.35-.36,1.96s-.58,1.14-1.04,1.59c-.46.46-1.01.81-1.68,1.07-.66.26-1.42.39-2.26.39-.51,0-1-.05-1.47-.15-.48-.1-.93-.24-1.35-.42-.43-.18-.82-.4-1.19-.65-.37-.25-.7-.54-1-.85l.67-1.12c.07-.09.14-.16.24-.22.09-.06.2-.09.31-.09.15,0,.33.08.53.24.2.16.45.34.75.53.3.19.65.37,1.07.53s.92.24,1.51.24c.48,0,.92-.06,1.3-.19.38-.13.7-.31.96-.55.26-.24.46-.53.6-.86.14-.34.21-.71.21-1.12,0-.46-.11-.84-.32-1.13s-.5-.54-.85-.74c-.35-.2-.75-.37-1.2-.51s-.91-.28-1.38-.43c-.47-.15-.93-.32-1.38-.52s-.85-.46-1.2-.78c-.35-.32-.63-.72-.85-1.2s-.32-1.07-.32-1.78c0-.56.11-1.11.33-1.64.22-.53.54-1,.96-1.4.42-.41.94-.73,1.56-.98.62-.25,1.32-.37,2.11-.37.89,0,1.7.14,2.45.42.74.28,1.39.69,1.94,1.22l-.57,1.11Z" fill="#333e48" stroke-width="0"/><path d="m361.74,65.45c.23-.28.49-.53.75-.76.27-.23.55-.43.86-.59.31-.17.64-.29.98-.38s.72-.14,1.12-.14c.64,0,1.22.12,1.73.37.52.25.96.62,1.33,1.1.37.48.65,1.08.85,1.79.2.71.3,1.53.3,2.45,0,.83-.11,1.6-.33,2.3s-.54,1.32-.96,1.84c-.42.52-.92.93-1.52,1.23-.6.3-1.27.45-2.02.45-.67,0-1.24-.11-1.72-.33-.48-.22-.9-.53-1.28-.92v4.85h-2.15v-14.93h1.29c.3,0,.49.14.56.43l.19,1.24Zm.11,6.75c.35.46.73.79,1.14.97.41.18.86.28,1.37.28.98,0,1.74-.35,2.28-1.06s.81-1.74.81-3.1c0-.71-.06-1.32-.18-1.82s-.3-.91-.53-1.23c-.23-.32-.51-.55-.85-.7-.34-.15-.72-.23-1.14-.23-.62,0-1.16.14-1.62.42-.46.28-.88.67-1.27,1.19v5.29Z" fill="#333e48" stroke-width="0"/><path d="m371.79,65.34c.62-.59,1.3-1.04,2.03-1.33.73-.29,1.53-.44,2.4-.44.64,0,1.2.1,1.69.31s.91.5,1.24.87.59.82.76,1.34c.17.52.26,1.1.26,1.73v7.13h-.96c-.21,0-.37-.04-.48-.1-.11-.07-.2-.2-.26-.39l-.23-.98c-.29.26-.57.5-.85.7-.28.2-.57.37-.88.52-.3.14-.63.25-.97.33-.34.07-.73.11-1.14.11-.44,0-.85-.06-1.24-.18s-.72-.31-1.01-.55c-.29-.25-.51-.56-.68-.94s-.25-.81-.25-1.31c0-.44.12-.86.36-1.27.24-.41.63-.77,1.17-1.09s1.24-.59,2.11-.79,1.94-.32,3.21-.35v-.81c0-.84-.18-1.47-.54-1.89-.36-.42-.89-.63-1.58-.63-.47,0-.86.06-1.18.18-.32.12-.59.25-.82.39-.23.14-.43.27-.61.39-.17.12-.35.18-.53.18-.15,0-.27-.04-.38-.12-.11-.08-.19-.18-.26-.29l-.39-.69Zm6.29,4.65c-.87.03-1.61.1-2.22.2-.61.11-1.1.25-1.49.42-.38.18-.66.38-.82.62-.17.24-.25.5-.25.8s.05.52.14.72c.09.2.22.37.37.5.16.13.34.22.56.28s.44.09.69.09c.33,0,.63-.03.91-.1.28-.07.53-.16.78-.28.24-.12.47-.27.69-.45.22-.18.44-.38.65-.6v-2.2Z" fill="#333e48" stroke-width="0"/><path d="m390.9,65.86c-.07.08-.13.14-.19.19s-.15.07-.27.07-.24-.05-.37-.14c-.13-.09-.29-.19-.48-.3-.19-.11-.43-.21-.7-.3-.27-.09-.61-.14-1.02-.14-.53,0-.99.1-1.4.29-.4.19-.74.46-1.01.81-.27.35-.47.78-.61,1.29-.14.51-.21,1.07-.21,1.71s.07,1.23.22,1.74.36.94.63,1.29.6.61.99.79.82.27,1.3.27.84-.06,1.14-.17c.3-.11.55-.24.75-.37.2-.13.36-.25.49-.37.13-.11.27-.17.41-.17.18,0,.31.07.41.2l.62.79c-.26.32-.54.58-.86.8-.32.22-.66.4-1.02.54-.36.14-.74.24-1.13.31-.39.07-.79.1-1.19.1-.7,0-1.35-.13-1.95-.39-.61-.26-1.13-.63-1.57-1.12-.44-.49-.79-1.09-1.05-1.81-.26-.72-.38-1.53-.38-2.44,0-.83.12-1.6.35-2.3.23-.7.57-1.31,1.02-1.82s1.01-.91,1.67-1.2c.66-.29,1.42-.43,2.27-.43.8,0,1.5.13,2.11.38.61.26,1.15.62,1.63,1.09l-.57.79Z" fill="#333e48" stroke-width="0"/><path d="m402.57,73.36c-.26.31-.57.57-.91.8-.34.22-.71.41-1.1.54s-.79.24-1.2.31c-.42.07-.82.1-1.23.1-.77,0-1.48-.13-2.14-.39-.66-.26-1.22-.64-1.71-1.14-.48-.5-.85-1.12-1.12-1.87-.27-.74-.4-1.6-.4-2.57,0-.78.12-1.5.36-2.17.24-.67.59-1.26,1.04-1.75.45-.5,1-.89,1.66-1.18.65-.29,1.39-.43,2.2-.43.68,0,1.31.11,1.89.33.58.22,1.07.55,1.49.97.42.43.75.95.98,1.57s.36,1.33.36,2.13c0,.33-.04.55-.11.67-.07.11-.21.17-.41.17h-7.33c.02.67.12,1.25.29,1.74s.4.91.7,1.24c.3.33.65.58,1.06.74.41.16.87.24,1.38.24.48,0,.89-.05,1.24-.17.35-.11.65-.23.9-.36s.47-.25.64-.36c.17-.11.33-.17.46-.17.18,0,.31.07.41.2l.62.79Zm-1.77-5.24c0-.42-.06-.82-.18-1.18s-.3-.67-.53-.94c-.24-.26-.52-.47-.86-.62-.34-.15-.73-.22-1.17-.22-.9,0-1.61.26-2.13.78-.52.52-.85,1.24-.99,2.17h5.85Z" fill="#333e48" stroke-width="0"/><path d="m36.95,187.72v1.83c0,1.59-.38,2.84-1.13,3.77-.59.73-1.34,1.09-2.24,1.09-.43,0-.84-.09-1.23-.26-.38-.17-.71-.41-.98-.72-.17-.19-.36-.5-.56-.93-.2-.43-.35-.82-.44-1.18-.13-.5-.2-1.09-.2-1.77v-1.83c0-1.59.38-2.85,1.13-3.78.59-.73,1.34-1.09,2.24-1.09.44,0,.85.09,1.23.26.38.17.71.42.98.73.18.2.36.51.56.94s.35.82.44,1.17c.13.5.19,1.1.19,1.78Zm-.74.1c0-.7-.1-1.35-.29-1.95-.2-.6-.42-1.08-.66-1.44-.15-.21-.34-.38-.57-.53-.33-.21-.71-.31-1.12-.31-.83,0-1.47.42-1.94,1.27s-.7,1.83-.7,2.95v1.63c0,.7.1,1.35.29,1.95s.42,1.08.67,1.44c.14.2.33.37.56.52.33.21.71.32,1.13.32.82,0,1.46-.42,1.93-1.27s.7-1.83.7-2.96v-1.63Z" fill="#333e48" stroke-width="0"/><path d="m44.87,190.16l3.38,3.24c.22,0,.36.01.42.03s.11.06.15.13c.04.06.07.13.07.21,0,.11-.04.19-.11.26s-.21.11-.39.11h-2.37c-.18,0-.31-.04-.39-.11s-.11-.16-.11-.26c0-.11.04-.2.11-.27s.21-.1.39-.1h1.22l-2.87-2.75-2.86,2.75h1.23c.18,0,.3.03.38.1s.11.16.11.27c0,.11-.04.19-.11.26s-.2.11-.38.11h-2.4c-.18,0-.3-.04-.38-.11s-.11-.16-.11-.26c0-.08.02-.15.07-.21.04-.06.09-.11.15-.13.05-.02.19-.03.42-.03l3.38-3.24-3.01-2.88c-.21,0-.34-.01-.4-.04s-.11-.07-.15-.13c-.04-.06-.07-.13-.07-.21,0-.11.04-.19.11-.26s.21-.11.39-.11h2.01c.18,0,.31.04.38.11.07.07.11.16.11.27,0,.11-.04.19-.11.26-.07.07-.2.11-.38.11h-.88l2.49,2.4,2.5-2.4h-.88c-.18,0-.3-.04-.38-.11-.08-.07-.12-.16-.12-.27,0-.11.04-.19.11-.26s.21-.11.39-.11h2.01c.18,0,.3.04.38.11s.11.16.11.27c0,.07-.02.14-.07.2-.04.06-.09.11-.15.13s-.19.04-.4.04l-3.01,2.88Z" fill="#333e48" stroke-width="0"/><path d="m53.39,189.18v4.23h2.53c.18,0,.3.03.38.1s.11.16.11.27c0,.11-.04.19-.11.26s-.2.11-.38.11h-4.26c-.18,0-.3-.04-.38-.11s-.11-.16-.11-.26c0-.11.04-.2.11-.27s.2-.1.38-.1h.99v-8.81h-.99c-.18,0-.3-.03-.38-.1-.08-.07-.11-.16-.11-.27s.04-.21.13-.28c.06-.06.18-.09.36-.09h8.13v2.54c0,.18-.04.3-.11.38s-.16.11-.26.11c-.11,0-.2-.04-.27-.11s-.11-.2-.11-.38v-1.8h-5.65v3.84h2.65v-.83c0-.18.04-.3.11-.38s.16-.11.27-.11c.11,0,.19.04.26.11s.11.2.11.38v2.41c0,.18-.04.3-.11.38s-.16.11-.26.11c-.11,0-.2-.04-.27-.11s-.11-.2-.11-.38v-.83h-2.65Z" fill="#333e48" stroke-width="0"/><path d="m64.19,189.18v4.23h2.53c.18,0,.3.03.38.1s.11.16.11.27c0,.11-.04.19-.11.26s-.2.11-.38.11h-4.26c-.18,0-.3-.04-.38-.11s-.11-.16-.11-.26c0-.11.04-.2.11-.27s.2-.1.38-.1h.99v-8.81h-.99c-.18,0-.3-.03-.38-.1-.08-.07-.11-.16-.11-.27s.04-.21.13-.28c.06-.06.18-.09.36-.09h8.13v2.54c0,.18-.04.3-.11.38s-.16.11-.26.11c-.11,0-.2-.04-.27-.11s-.11-.2-.11-.38v-1.8h-5.65v3.84h2.65v-.83c0-.18.04-.3.11-.38s.16-.11.27-.11c.11,0,.19.04.26.11s.11.2.11.38v2.41c0,.18-.04.3-.11.38s-.16.11-.26.11c-.11,0-.2-.04-.27-.11s-.11-.2-.11-.38v-.83h-2.65Z" fill="#333e48" stroke-width="0"/><path d="m74.99,189.18v4.23h2.53c.18,0,.3.03.38.1s.11.16.11.27c0,.11-.04.19-.11.26s-.2.11-.38.11h-4.26c-.18,0-.3-.04-.38-.11s-.11-.16-.11-.26c0-.11.04-.2.11-.27s.2-.1.38-.1h.99v-8.81h-.99c-.18,0-.3-.03-.38-.1-.08-.07-.11-.16-.11-.27s.04-.21.13-.28c.06-.06.18-.09.36-.09h8.13v2.54c0,.18-.04.3-.11.38s-.16.11-.26.11c-.11,0-.2-.04-.27-.11s-.11-.2-.11-.38v-1.8h-5.65v3.84h2.65v-.83c0-.18.04-.3.11-.38s.16-.11.27-.11c.11,0,.19.04.26.11s.11.2.11.38v2.41c0,.18-.04.3-.11.38s-.16.11-.26.11c-.11,0-.2-.04-.27-.11s-.11-.2-.11-.38v-.83h-2.65Z" fill="#333e48" stroke-width="0"/><path d="m85.79,189.18v4.23h2.53c.18,0,.3.03.38.1s.11.16.11.27c0,.11-.04.19-.11.26s-.2.11-.38.11h-4.26c-.18,0-.3-.04-.38-.11s-.11-.16-.11-.26c0-.11.04-.2.11-.27s.2-.1.38-.1h.99v-8.81h-.99c-.18,0-.3-.03-.38-.1-.08-.07-.11-.16-.11-.27s.04-.21.13-.28c.06-.06.18-.09.36-.09h8.13v2.54c0,.18-.04.3-.11.38s-.16.11-.26.11c-.11,0-.2-.04-.27-.11s-.11-.2-.11-.38v-1.8h-5.65v3.84h2.65v-.83c0-.18.04-.3.11-.38s.16-.11.27-.11c.11,0,.19.04.26.11s.11.2.11.38v2.41c0,.18-.04.3-.11.38s-.16.11-.26.11c-.11,0-.2-.04-.27-.11s-.11-.2-.11-.38v-.83h-2.65Z" fill="#333e48" stroke-width="0"/><path d="m103.28,199.07h-9.82c-.18,0-.3-.03-.38-.1-.08-.07-.11-.16-.11-.27s.04-.2.11-.27.2-.1.38-.1h9.82c.18,0,.31.03.38.1s.11.16.11.27-.04.2-.11.27c-.07.07-.2.1-.38.1Z" fill="#333e48" stroke-width="0"/><path d="m107.4,189.18v4.23h2.53c.18,0,.3.03.38.1s.11.16.11.27c0,.11-.04.19-.11.26s-.2.11-.38.11h-4.26c-.18,0-.3-.04-.38-.11s-.11-.16-.11-.26c0-.11.04-.2.11-.27s.2-.1.38-.1h.99v-8.81h-.99c-.18,0-.3-.03-.38-.1-.08-.07-.11-.16-.11-.27s.04-.21.13-.28c.06-.06.18-.09.36-.09h8.13v2.54c0,.18-.04.3-.11.38s-.16.11-.26.11c-.11,0-.2-.04-.27-.11s-.11-.2-.11-.38v-1.8h-5.65v3.84h2.65v-.83c0-.18.04-.3.11-.38s.16-.11.27-.11c.11,0,.19.04.26.11s.11.2.11.38v2.41c0,.18-.04.3-.11.38s-.16.11-.26.11c-.11,0-.2-.04-.27-.11s-.11-.2-.11-.38v-.83h-2.65Z" fill="#333e48" stroke-width="0"/><path d="m118.2,189.18v4.23h2.53c.18,0,.3.03.38.1s.11.16.11.27c0,.11-.04.19-.11.26s-.2.11-.38.11h-4.26c-.18,0-.3-.04-.38-.11s-.11-.16-.11-.26c0-.11.04-.2.11-.27s.2-.1.38-.1h.99v-8.81h-.99c-.18,0-.3-.03-.38-.1-.08-.07-.11-.16-.11-.27s.04-.21.13-.28c.06-.06.18-.09.36-.09h8.13v2.54c0,.18-.04.3-.11.38s-.16.11-.26.11c-.11,0-.2-.04-.27-.11s-.11-.2-.11-.38v-1.8h-5.65v3.84h2.65v-.83c0-.18.04-.3.11-.38s.16-.11.27-.11c.11,0,.19.04.26.11s.11.2.11.38v2.41c0,.18-.04.3-.11.38s-.16.11-.26.11c-.11,0-.2-.04-.27-.11s-.11-.2-.11-.38v-.83h-2.65Z" fill="#333e48" stroke-width="0"/><path d="m129,189.18v4.23h2.53c.18,0,.3.03.38.1s.11.16.11.27c0,.11-.04.19-.11.26s-.2.11-.38.11h-4.26c-.18,0-.3-.04-.38-.11s-.11-.16-.11-.26c0-.11.04-.2.11-.27s.2-.1.38-.1h.99v-8.81h-.99c-.18,0-.3-.03-.38-.1-.08-.07-.11-.16-.11-.27s.04-.21.13-.28c.06-.06.18-.09.36-.09h8.13v2.54c0,.18-.04.3-.11.38s-.16.11-.26.11c-.11,0-.2-.04-.27-.11s-.11-.2-.11-.38v-1.8h-5.65v3.84h2.65v-.83c0-.18.04-.3.11-.38s.16-.11.27-.11c.11,0,.19.04.26.11s.11.2.11.38v2.41c0,.18-.04.3-.11.38s-.16.11-.26.11c-.11,0-.2-.04-.27-.11s-.11-.2-.11-.38v-.83h-2.65Z" fill="#333e48" stroke-width="0"/><path d="m139.8,189.18v4.23h2.53c.18,0,.3.03.38.1s.11.16.11.27c0,.11-.04.19-.11.26s-.2.11-.38.11h-4.26c-.18,0-.3-.04-.38-.11s-.11-.16-.11-.26c0-.11.04-.2.11-.27s.2-.1.38-.1h.99v-8.81h-.99c-.18,0-.3-.03-.38-.1-.08-.07-.11-.16-.11-.27s.04-.21.13-.28c.06-.06.18-.09.36-.09h8.13v2.54c0,.18-.04.3-.11.38s-.16.11-.26.11c-.11,0-.2-.04-.27-.11s-.11-.2-.11-.38v-1.8h-5.65v3.84h2.65v-.83c0-.18.04-.3.11-.38s.16-.11.27-.11c.11,0,.19.04.26.11s.11.2.11.38v2.41c0,.18-.04.3-.11.38s-.16.11-.26.11c-.11,0-.2-.04-.27-.11s-.11-.2-.11-.38v-.83h-2.65Z" fill="#333e48" stroke-width="0"/><path d="m157.29,199.07h-9.82c-.18,0-.3-.03-.38-.1-.08-.07-.11-.16-.11-.27s.04-.2.11-.27.2-.1.38-.1h9.82c.18,0,.31.03.38.1s.11.16.11.27-.04.2-.11.27c-.07.07-.2.1-.38.1Z" fill="#333e48" stroke-width="0"/><path d="m161.4,189.18v4.23h2.53c.18,0,.3.03.38.1s.11.16.11.27c0,.11-.04.19-.11.26s-.2.11-.38.11h-4.26c-.18,0-.3-.04-.38-.11s-.11-.16-.11-.26c0-.11.04-.2.11-.27s.2-.1.38-.1h.99v-8.81h-.99c-.18,0-.3-.03-.38-.1-.08-.07-.11-.16-.11-.27s.04-.21.13-.28c.06-.06.18-.09.36-.09h8.13v2.54c0,.18-.04.3-.11.38s-.16.11-.26.11c-.11,0-.2-.04-.27-.11s-.11-.2-.11-.38v-1.8h-5.65v3.84h2.65v-.83c0-.18.04-.3.11-.38s.16-.11.27-.11c.11,0,.19.04.26.11s.11.2.11.38v2.41c0,.18-.04.3-.11.38s-.16.11-.26.11c-.11,0-.2-.04-.27-.11s-.11-.2-.11-.38v-.83h-2.65Z" fill="#333e48" stroke-width="0"/><path d="m172.21,189.18v4.23h2.53c.18,0,.3.03.38.1s.11.16.11.27c0,.11-.04.19-.11.26s-.2.11-.38.11h-4.26c-.18,0-.3-.04-.38-.11s-.11-.16-.11-.26c0-.11.04-.2.11-.27s.2-.1.38-.1h.99v-8.81h-.99c-.18,0-.3-.03-.38-.1-.08-.07-.11-.16-.11-.27s.04-.21.13-.28c.06-.06.18-.09.36-.09h8.13v2.54c0,.18-.04.3-.11.38s-.16.11-.26.11c-.11,0-.2-.04-.27-.11s-.11-.2-.11-.38v-1.8h-5.65v3.84h2.65v-.83c0-.18.04-.3.11-.38s.16-.11.27-.11c.11,0,.19.04.26.11s.11.2.11.38v2.41c0,.18-.04.3-.11.38s-.16.11-.26.11c-.11,0-.2-.04-.27-.11s-.11-.2-.11-.38v-.83h-2.65Z" fill="#333e48" stroke-width="0"/><path d="m183.01,189.18v4.23h2.53c.18,0,.3.03.38.1s.11.16.11.27c0,.11-.04.19-.11.26s-.2.11-.38.11h-4.26c-.18,0-.3-.04-.38-.11s-.11-.16-.11-.26c0-.11.04-.2.11-.27s.2-.1.38-.1h.99v-8.81h-.99c-.18,0-.3-.03-.38-.1-.08-.07-.11-.16-.11-.27s.04-.21.13-.28c.06-.06.18-.09.36-.09h8.13v2.54c0,.18-.04.3-.11.38s-.16.11-.26.11c-.11,0-.2-.04-.27-.11s-.11-.2-.11-.38v-1.8h-5.65v3.84h2.65v-.83c0-.18.04-.3.11-.38s.16-.11.27-.11c.11,0,.19.04.26.11s.11.2.11.38v2.41c0,.18-.04.3-.11.38s-.16.11-.26.11c-.11,0-.2-.04-.27-.11s-.11-.2-.11-.38v-.83h-2.65Z" fill="#333e48" stroke-width="0"/><path d="m193.81,189.18v4.23h2.53c.18,0,.3.03.38.1s.11.16.11.27c0,.11-.04.19-.11.26s-.2.11-.38.11h-4.26c-.18,0-.3-.04-.38-.11s-.11-.16-.11-.26c0-.11.04-.2.11-.27s.2-.1.38-.1h.99v-8.81h-.99c-.18,0-.3-.03-.38-.1-.08-.07-.11-.16-.11-.27s.04-.21.13-.28c.06-.06.18-.09.36-.09h8.13v2.54c0,.18-.04.3-.11.38s-.16.11-.26.11c-.11,0-.2-.04-.27-.11s-.11-.2-.11-.38v-1.8h-5.65v3.84h2.65v-.83c0-.18.04-.3.11-.38s.16-.11.27-.11c.11,0,.19.04.26.11s.11.2.11.38v2.41c0,.18-.04.3-.11.38s-.16.11-.26.11c-.11,0-.2-.04-.27-.11s-.11-.2-.11-.38v-.83h-2.65Z" fill="#333e48" stroke-width="0"/><path d="m211.3,199.07h-9.82c-.18,0-.3-.03-.38-.1-.08-.07-.11-.16-.11-.27s.04-.2.11-.27.2-.1.38-.1h9.82c.18,0,.31.03.38.1s.11.16.11.27-.04.2-.11.27c-.07.07-.2.1-.38.1Z" fill="#333e48" stroke-width="0"/><path d="m215.41,189.18v4.23h2.53c.18,0,.3.03.38.1s.11.16.11.27c0,.11-.04.19-.11.26s-.2.11-.38.11h-4.26c-.18,0-.3-.04-.38-.11s-.11-.16-.11-.26c0-.11.04-.2.11-.27s.2-.1.38-.1h.99v-8.81h-.99c-.18,0-.3-.03-.38-.1-.08-.07-.11-.16-.11-.27s.04-.21.13-.28c.06-.06.18-.09.36-.09h8.13v2.54c0,.18-.04.3-.11.38s-.16.11-.26.11c-.11,0-.2-.04-.27-.11s-.11-.2-.11-.38v-1.8h-5.65v3.84h2.65v-.83c0-.18.04-.3.11-.38s.16-.11.27-.11c.11,0,.19.04.26.11s.11.2.11.38v2.41c0,.18-.04.3-.11.38s-.16.11-.26.11c-.11,0-.2-.04-.27-.11s-.11-.2-.11-.38v-.83h-2.65Z" fill="#333e48" stroke-width="0"/><path d="m226.22,189.18v4.23h2.53c.18,0,.3.03.38.1s.11.16.11.27c0,.11-.04.19-.11.26s-.2.11-.38.11h-4.26c-.18,0-.3-.04-.38-.11s-.11-.16-.11-.26c0-.11.04-.2.11-.27s.2-.1.38-.1h.99v-8.81h-.99c-.18,0-.3-.03-.38-.1-.08-.07-.11-.16-.11-.27s.04-.21.13-.28c.06-.06.18-.09.36-.09h8.13v2.54c0,.18-.04.3-.11.38s-.16.11-.26.11c-.11,0-.2-.04-.27-.11s-.11-.2-.11-.38v-1.8h-5.65v3.84h2.65v-.83c0-.18.04-.3.11-.38s.16-.11.27-.11c.11,0,.19.04.26.11s.11.2.11.38v2.41c0,.18-.04.3-.11.38s-.16.11-.26.11c-.11,0-.2-.04-.27-.11s-.11-.2-.11-.38v-.83h-2.65Z" fill="#333e48" stroke-width="0"/><path d="m237.02,189.18v4.23h2.53c.18,0,.3.03.38.1s.11.16.11.27c0,.11-.04.19-.11.26s-.2.11-.38.11h-4.26c-.18,0-.3-.04-.38-.11s-.11-.16-.11-.26c0-.11.04-.2.11-.27s.2-.1.38-.1h.99v-8.81h-.99c-.18,0-.3-.03-.38-.1-.08-.07-.11-.16-.11-.27s.04-.21.13-.28c.06-.06.18-.09.36-.09h8.13v2.54c0,.18-.04.3-.11.38s-.16.11-.26.11c-.11,0-.2-.04-.27-.11s-.11-.2-.11-.38v-1.8h-5.65v3.84h2.65v-.83c0-.18.04-.3.11-.38s.16-.11.27-.11c.11,0,.19.04.26.11s.11.2.11.38v2.41c0,.18-.04.3-.11.38s-.16.11-.26.11c-.11,0-.2-.04-.27-.11s-.11-.2-.11-.38v-.83h-2.65Z" fill="#333e48" stroke-width="0"/><path d="m247.82,189.18v4.23h2.53c.18,0,.3.03.38.1s.11.16.11.27c0,.11-.04.19-.11.26s-.2.11-.38.11h-4.26c-.18,0-.3-.04-.38-.11s-.11-.16-.11-.26c0-.11.04-.2.11-.27s.2-.1.38-.1h.99v-8.81h-.99c-.18,0-.3-.03-.38-.1-.08-.07-.11-.16-.11-.27s.04-.21.13-.28c.06-.06.18-.09.36-.09h8.13v2.54c0,.18-.04.3-.11.38s-.16.11-.26.11c-.11,0-.2-.04-.27-.11s-.11-.2-.11-.38v-1.8h-5.65v3.84h2.65v-.83c0-.18.04-.3.11-.38s.16-.11.27-.11c.11,0,.19.04.26.11s.11.2.11.38v2.41c0,.18-.04.3-.11.38s-.16.11-.26.11c-.11,0-.2-.04-.27-.11s-.11-.2-.11-.38v-.83h-2.65Z" fill="#333e48" stroke-width="0"/><path d="m36.95,277.72v1.83c0,1.59-.38,2.84-1.13,3.77-.59.73-1.34,1.09-2.24,1.09-.43,0-.84-.09-1.23-.26-.38-.17-.71-.41-.98-.72-.17-.19-.36-.5-.56-.93-.2-.43-.35-.82-.44-1.18-.13-.5-.2-1.09-.2-1.77v-1.83c0-1.59.38-2.85,1.13-3.78.59-.73,1.34-1.09,2.24-1.09.44,0,.85.09,1.23.26.38.17.71.42.98.73.18.2.36.51.56.94s.35.82.44,1.17c.13.5.19,1.1.19,1.78Zm-.74.1c0-.7-.1-1.35-.29-1.95-.2-.6-.42-1.08-.66-1.44-.15-.21-.34-.38-.57-.53-.33-.21-.71-.31-1.12-.31-.83,0-1.47.42-1.94,1.27s-.7,1.83-.7,2.95v1.63c0,.7.1,1.35.29,1.95s.42,1.08.67,1.44c.14.2.33.37.56.52.33.21.71.32,1.13.32.82,0,1.46-.42,1.93-1.27s.7-1.83.7-2.96v-1.63Z" fill="#333e48" stroke-width="0"/><path d="m44.87,280.16l3.38,3.24c.22,0,.36.01.42.03s.11.06.15.13c.04.06.07.13.07.21,0,.11-.04.19-.11.26s-.21.11-.39.11h-2.37c-.18,0-.31-.04-.39-.11s-.11-.16-.11-.26c0-.11.04-.2.11-.27s.21-.1.39-.1h1.22l-2.87-2.75-2.86,2.75h1.23c.18,0,.3.03.38.1s.11.16.11.27c0,.11-.04.19-.11.26s-.2.11-.38.11h-2.4c-.18,0-.3-.04-.38-.11s-.11-.16-.11-.26c0-.08.02-.15.07-.21.04-.06.09-.11.15-.13.05-.02.19-.03.42-.03l3.38-3.24-3.01-2.88c-.21,0-.34-.01-.4-.04s-.11-.07-.15-.13c-.04-.06-.07-.13-.07-.21,0-.11.04-.19.11-.26s.21-.11.39-.11h2.01c.18,0,.31.04.38.11.07.07.11.16.11.27,0,.11-.04.19-.11.26-.07.07-.2.11-.38.11h-.88l2.49,2.4,2.5-2.4h-.88c-.18,0-.3-.04-.38-.11-.08-.07-.12-.16-.12-.27,0-.11.04-.19.11-.26s.21-.11.39-.11h2.01c.18,0,.3.04.38.11s.11.16.11.27c0,.07-.02.14-.07.2-.04.06-.09.11-.15.13s-.19.04-.4.04l-3.01,2.88Z" fill="#333e48" stroke-width="0"/><path d="m53.39,279.18v4.23h2.53c.18,0,.3.03.38.1s.11.16.11.27c0,.11-.04.19-.11.26s-.2.11-.38.11h-4.26c-.18,0-.3-.04-.38-.11s-.11-.16-.11-.26c0-.11.04-.2.11-.27s.2-.1.38-.1h.99v-8.81h-.99c-.18,0-.3-.03-.38-.1-.08-.07-.11-.16-.11-.27s.04-.21.13-.28c.06-.06.18-.09.36-.09h8.13v2.54c0,.18-.04.3-.11.38s-.16.11-.26.11c-.11,0-.2-.04-.27-.11s-.11-.2-.11-.38v-1.8h-5.65v3.84h2.65v-.83c0-.18.04-.3.11-.38s.16-.11.27-.11c.11,0,.19.04.26.11s.11.2.11.38v2.41c0,.18-.04.3-.11.38s-.16.11-.26.11c-.11,0-.2-.04-.27-.11s-.11-.2-.11-.38v-.83h-2.65Z" fill="#333e48" stroke-width="0"/><path d="m64.19,279.18v4.23h2.53c.18,0,.3.03.38.1s.11.16.11.27c0,.11-.04.19-.11.26s-.2.11-.38.11h-4.26c-.18,0-.3-.04-.38-.11s-.11-.16-.11-.26c0-.11.04-.2.11-.27s.2-.1.38-.1h.99v-8.81h-.99c-.18,0-.3-.03-.38-.1-.08-.07-.11-.16-.11-.27s.04-.21.13-.28c.06-.06.18-.09.36-.09h8.13v2.54c0,.18-.04.3-.11.38s-.16.11-.26.11c-.11,0-.2-.04-.27-.11s-.11-.2-.11-.38v-1.8h-5.65v3.84h2.65v-.83c0-.18.04-.3.11-.38s.16-.11.27-.11c.11,0,.19.04.26.11s.11.2.11.38v2.41c0,.18-.04.3-.11.38s-.16.11-.26.11c-.11,0-.2-.04-.27-.11s-.11-.2-.11-.38v-.83h-2.65Z" fill="#333e48" stroke-width="0"/><path d="m74.99,279.18v4.23h2.53c.18,0,.3.03.38.1s.11.16.11.27c0,.11-.04.19-.11.26s-.2.11-.38.11h-4.26c-.18,0-.3-.04-.38-.11s-.11-.16-.11-.26c0-.11.04-.2.11-.27s.2-.1.38-.1h.99v-8.81h-.99c-.18,0-.3-.03-.38-.1-.08-.07-.11-.16-.11-.27s.04-.21.13-.28c.06-.06.18-.09.36-.09h8.13v2.54c0,.18-.04.3-.11.38s-.16.11-.26.11c-.11,0-.2-.04-.27-.11s-.11-.2-.11-.38v-1.8h-5.65v3.84h2.65v-.83c0-.18.04-.3.11-.38s.16-.11.27-.11c.11,0,.19.04.26.11s.11.2.11.38v2.41c0,.18-.04.3-.11.38s-.16.11-.26.11c-.11,0-.2-.04-.27-.11s-.11-.2-.11-.38v-.83h-2.65Z" fill="#333e48" stroke-width="0"/><path d="m90.96,277.72v1.83c0,1.59-.38,2.84-1.13,3.77-.59.73-1.34,1.09-2.24,1.09-.43,0-.84-.09-1.23-.26-.38-.17-.71-.41-.98-.72-.17-.19-.36-.5-.56-.93-.2-.43-.35-.82-.44-1.18-.13-.5-.2-1.09-.2-1.77v-1.83c0-1.59.38-2.85,1.13-3.78.59-.73,1.34-1.09,2.24-1.09.44,0,.85.09,1.23.26.38.17.71.42.98.73.18.2.36.51.56.94s.35.82.44,1.17c.13.5.19,1.1.19,1.78Zm-.74.1c0-.7-.1-1.35-.29-1.95-.2-.6-.42-1.08-.66-1.44-.15-.21-.34-.38-.57-.53-.33-.21-.71-.31-1.12-.31-.83,0-1.47.42-1.94,1.27s-.7,1.83-.7,2.95v1.63c0,.7.1,1.35.29,1.95s.42,1.08.67,1.44c.14.2.33.37.56.52.33.21.71.32,1.13.32.82,0,1.46-.42,1.93-1.27s.7-1.83.7-2.96v-1.63Z" fill="#333e48" stroke-width="0"/><path d="m103.28,289.07h-9.82c-.18,0-.3-.03-.38-.1-.08-.07-.11-.16-.11-.27s.04-.2.11-.27.2-.1.38-.1h9.82c.18,0,.31.03.38.1s.11.16.11.27-.04.2-.11.27c-.07.07-.2.1-.38.1Z" fill="#333e48" stroke-width="0"/><path d="m112.56,277.72v1.83c0,1.59-.38,2.84-1.13,3.77-.59.73-1.34,1.09-2.24,1.09-.43,0-.84-.09-1.23-.26-.38-.17-.71-.41-.98-.72-.17-.19-.36-.5-.56-.93-.2-.43-.35-.82-.44-1.18-.13-.5-.2-1.09-.2-1.77v-1.83c0-1.59.38-2.85,1.13-3.78.59-.73,1.34-1.09,2.24-1.09.44,0,.85.09,1.23.26.38.17.71.42.98.73.18.2.36.51.56.94s.35.82.44,1.17c.13.5.19,1.1.19,1.78Zm-.74.1c0-.7-.1-1.35-.29-1.95-.2-.6-.42-1.08-.66-1.44-.15-.21-.34-.38-.57-.53-.33-.21-.71-.31-1.12-.31-.83,0-1.47.42-1.94,1.27s-.7,1.83-.7,2.95v1.63c0,.7.1,1.35.29,1.95s.42,1.08.67,1.44c.14.2.33.37.56.52.33.21.71.32,1.13.32.82,0,1.46-.42,1.93-1.27s.7-1.83.7-2.96v-1.63Z" fill="#333e48" stroke-width="0"/><path d="m123.37,277.72v1.83c0,1.59-.38,2.84-1.13,3.77-.59.73-1.34,1.09-2.24,1.09-.43,0-.84-.09-1.23-.26-.38-.17-.71-.41-.98-.72-.17-.19-.36-.5-.56-.93-.2-.43-.35-.82-.44-1.18-.13-.5-.2-1.09-.2-1.77v-1.83c0-1.59.38-2.85,1.13-3.78.59-.73,1.34-1.09,2.24-1.09.44,0,.85.09,1.23.26.38.17.71.42.98.73.18.2.36.51.56.94s.35.82.44,1.17c.13.5.19,1.1.19,1.78Zm-.74.1c0-.7-.1-1.35-.29-1.95-.2-.6-.42-1.08-.66-1.44-.15-.21-.34-.38-.57-.53-.33-.21-.71-.31-1.12-.31-.83,0-1.47.42-1.94,1.27s-.7,1.83-.7,2.95v1.63c0,.7.1,1.35.29,1.95s.42,1.08.67,1.44c.14.2.33.37.56.52.33.21.71.32,1.13.32.82,0,1.46-.42,1.93-1.27s.7-1.83.7-2.96v-1.63Z" fill="#333e48" stroke-width="0"/><path d="m134.17,277.72v1.83c0,1.59-.38,2.84-1.13,3.77-.59.73-1.34,1.09-2.24,1.09-.43,0-.84-.09-1.23-.26-.38-.17-.71-.41-.98-.72-.17-.19-.36-.5-.56-.93-.2-.43-.35-.82-.44-1.18-.13-.5-.2-1.09-.2-1.77v-1.83c0-1.59.38-2.85,1.13-3.78.59-.73,1.34-1.09,2.24-1.09.44,0,.85.09,1.23.26.38.17.71.42.98.73.18.2.36.51.56.94s.35.82.44,1.17c.13.5.19,1.1.19,1.78Zm-.74.1c0-.7-.1-1.35-.29-1.95-.2-.6-.42-1.08-.66-1.44-.15-.21-.34-.38-.57-.53-.33-.21-.71-.31-1.12-.31-.83,0-1.47.42-1.94,1.27s-.7,1.83-.7,2.95v1.63c0,.7.1,1.35.29,1.95s.42,1.08.67,1.44c.14.2.33.37.56.52.33.21.71.32,1.13.32.82,0,1.46-.42,1.93-1.27s.7-1.83.7-2.96v-1.63Z" fill="#333e48" stroke-width="0"/><path d="m144.97,277.72v1.83c0,1.59-.38,2.84-1.13,3.77-.59.73-1.34,1.09-2.24,1.09-.43,0-.84-.09-1.23-.26-.38-.17-.71-.41-.98-.72-.17-.19-.36-.5-.56-.93-.2-.43-.35-.82-.44-1.18-.13-.5-.2-1.09-.2-1.77v-1.83c0-1.59.38-2.85,1.13-3.78.59-.73,1.34-1.09,2.24-1.09.44,0,.85.09,1.23.26.38.17.71.42.98.73.18.2.36.51.56.94s.35.82.44,1.17c.13.5.19,1.1.19,1.78Zm-.74.1c0-.7-.1-1.35-.29-1.95-.2-.6-.42-1.08-.66-1.44-.15-.21-.34-.38-.57-.53-.33-.21-.71-.31-1.12-.31-.83,0-1.47.42-1.94,1.27s-.7,1.83-.7,2.95v1.63c0,.7.1,1.35.29,1.95s.42,1.08.67,1.44c.14.2.33.37.56.52.33.21.71.32,1.13.32.82,0,1.46-.42,1.93-1.27s.7-1.83.7-2.96v-1.63Z" fill="#333e48" stroke-width="0"/><path d="m157.29,289.07h-9.82c-.18,0-.3-.03-.38-.1-.08-.07-.11-.16-.11-.27s.04-.2.11-.27.2-.1.38-.1h9.82c.18,0,.31.03.38.1s.11.16.11.27-.04.2-.11.27c-.07.07-.2.1-.38.1Z" fill="#333e48" stroke-width="0"/><path d="m166.57,277.72v1.83c0,1.59-.38,2.84-1.13,3.77-.59.73-1.34,1.09-2.24,1.09-.43,0-.84-.09-1.23-.26-.38-.17-.71-.41-.98-.72-.17-.19-.36-.5-.56-.93-.2-.43-.35-.82-.44-1.18-.13-.5-.2-1.09-.2-1.77v-1.83c0-1.59.38-2.85,1.13-3.78.59-.73,1.34-1.09,2.24-1.09.44,0,.85.09,1.23.26.38.17.71.42.98.73.18.2.36.51.56.94s.35.82.44,1.17c.13.5.19,1.1.19,1.78Zm-.74.1c0-.7-.1-1.35-.29-1.95-.2-.6-.42-1.08-.66-1.44-.15-.21-.34-.38-.57-.53-.33-.21-.71-.31-1.12-.31-.83,0-1.47.42-1.94,1.27s-.7,1.83-.7,2.95v1.63c0,.7.1,1.35.29,1.95s.42,1.08.67,1.44c.14.2.33.37.56.52.33.21.71.32,1.13.32.82,0,1.46-.42,1.93-1.27s.7-1.83.7-2.96v-1.63Z" fill="#333e48" stroke-width="0"/><path d="m177.37,277.72v1.83c0,1.59-.38,2.84-1.13,3.77-.59.73-1.34,1.09-2.24,1.09-.43,0-.84-.09-1.23-.26-.38-.17-.71-.41-.98-.72-.17-.19-.36-.5-.56-.93-.2-.43-.35-.82-.44-1.18-.13-.5-.2-1.09-.2-1.77v-1.83c0-1.59.38-2.85,1.13-3.78.59-.73,1.34-1.09,2.24-1.09.44,0,.85.09,1.23.26.38.17.71.42.98.73.18.2.36.51.56.94s.35.82.44,1.17c.13.5.19,1.1.19,1.78Zm-.74.1c0-.7-.1-1.35-.29-1.95-.2-.6-.42-1.08-.66-1.44-.15-.21-.34-.38-.57-.53-.33-.21-.71-.31-1.12-.31-.83,0-1.47.42-1.94,1.27s-.7,1.83-.7,2.95v1.63c0,.7.1,1.35.29,1.95s.42,1.08.67,1.44c.14.2.33.37.56.52.33.21.71.32,1.13.32.82,0,1.46-.42,1.93-1.27s.7-1.83.7-2.96v-1.63Z" fill="#333e48" stroke-width="0"/><path d="m188.18,277.72v1.83c0,1.59-.38,2.84-1.13,3.77-.59.73-1.34,1.09-2.24,1.09-.43,0-.84-.09-1.23-.26-.38-.17-.71-.41-.98-.72-.17-.19-.36-.5-.56-.93-.2-.43-.35-.82-.44-1.18-.13-.5-.2-1.09-.2-1.77v-1.83c0-1.59.38-2.85,1.13-3.78.59-.73,1.34-1.09,2.24-1.09.44,0,.85.09,1.23.26.38.17.71.42.98.73.18.2.36.51.56.94s.35.82.44,1.17c.13.5.19,1.1.19,1.78Zm-.74.1c0-.7-.1-1.35-.29-1.95-.2-.6-.42-1.08-.66-1.44-.15-.21-.34-.38-.57-.53-.33-.21-.71-.31-1.12-.31-.83,0-1.47.42-1.94,1.27s-.7,1.83-.7,2.95v1.63c0,.7.1,1.35.29,1.95s.42,1.08.67,1.44c.14.2.33.37.56.52.33.21.71.32,1.13.32.82,0,1.46-.42,1.93-1.27s.7-1.83.7-2.96v-1.63Z" fill="#333e48" stroke-width="0"/><path d="m198.98,277.72v1.83c0,1.59-.38,2.84-1.13,3.77-.59.73-1.34,1.09-2.24,1.09-.43,0-.84-.09-1.23-.26-.38-.17-.71-.41-.98-.72-.17-.19-.36-.5-.56-.93-.2-.43-.35-.82-.44-1.18-.13-.5-.2-1.09-.2-1.77v-1.83c0-1.59.38-2.85,1.13-3.78.59-.73,1.34-1.09,2.24-1.09.44,0,.85.09,1.23.26.38.17.71.42.98.73.18.2.36.51.56.94s.35.82.44,1.17c.13.5.19,1.1.19,1.78Zm-.74.1c0-.7-.1-1.35-.29-1.95-.2-.6-.42-1.08-.66-1.44-.15-.21-.34-.38-.57-.53-.33-.21-.71-.31-1.12-.31-.83,0-1.47.42-1.94,1.27s-.7,1.83-.7,2.95v1.63c0,.7.1,1.35.29,1.95s.42,1.08.67,1.44c.14.2.33.37.56.52.33.21.71.32,1.13.32.82,0,1.46-.42,1.93-1.27s.7-1.83.7-2.96v-1.63Z" fill="#333e48" stroke-width="0"/><path d="m211.3,289.07h-9.82c-.18,0-.3-.03-.38-.1-.08-.07-.11-.16-.11-.27s.04-.2.11-.27.2-.1.38-.1h9.82c.18,0,.31.03.38.1s.11.16.11.27-.04.2-.11.27c-.07.07-.2.1-.38.1Z" fill="#333e48" stroke-width="0"/><path d="m220.58,277.72v1.83c0,1.59-.38,2.84-1.13,3.77-.59.73-1.34,1.09-2.24,1.09-.43,0-.84-.09-1.23-.26-.38-.17-.71-.41-.98-.72-.17-.19-.36-.5-.56-.93-.2-.43-.35-.82-.44-1.18-.13-.5-.2-1.09-.2-1.77v-1.83c0-1.59.38-2.85,1.13-3.78.59-.73,1.34-1.09,2.24-1.09.44,0,.85.09,1.23.26.38.17.71.42.98.73.18.2.36.51.56.94s.35.82.44,1.17c.13.5.19,1.1.19,1.78Zm-.74.1c0-.7-.1-1.35-.29-1.95-.2-.6-.42-1.08-.66-1.44-.15-.21-.34-.38-.57-.53-.33-.21-.71-.31-1.12-.31-.83,0-1.47.42-1.94,1.27s-.7,1.83-.7,2.95v1.63c0,.7.1,1.35.29,1.95s.42,1.08.67,1.44c.14.2.33.37.56.52.33.21.71.32,1.13.32.82,0,1.46-.42,1.93-1.27s.7-1.83.7-2.96v-1.63Z" fill="#333e48" stroke-width="0"/><path d="m231.38,277.72v1.83c0,1.59-.38,2.84-1.13,3.77-.59.73-1.34,1.09-2.24,1.09-.43,0-.84-.09-1.23-.26-.38-.17-.71-.41-.98-.72-.17-.19-.36-.5-.56-.93-.2-.43-.35-.82-.44-1.18-.13-.5-.2-1.09-.2-1.77v-1.83c0-1.59.38-2.85,1.13-3.78.59-.73,1.34-1.09,2.24-1.09.44,0,.85.09,1.23.26.38.17.71.42.98.73.18.2.36.51.56.94s.35.82.44,1.17c.13.5.19,1.1.19,1.78Zm-.74.1c0-.7-.1-1.35-.29-1.95-.2-.6-.42-1.08-.66-1.44-.15-.21-.34-.38-.57-.53-.33-.21-.71-.31-1.12-.31-.83,0-1.47.42-1.94,1.27s-.7,1.83-.7,2.95v1.63c0,.7.1,1.35.29,1.95s.42,1.08.67,1.44c.14.2.33.37.56.52.33.21.71.32,1.13.32.82,0,1.46-.42,1.93-1.27s.7-1.83.7-2.96v-1.63Z" fill="#333e48" stroke-width="0"/><path d="m242.19,277.72v1.83c0,1.59-.38,2.84-1.13,3.77-.59.73-1.34,1.09-2.24,1.09-.43,0-.84-.09-1.23-.26-.38-.17-.71-.41-.98-.72-.17-.19-.36-.5-.56-.93-.2-.43-.35-.82-.44-1.18-.13-.5-.2-1.09-.2-1.77v-1.83c0-1.59.38-2.85,1.13-3.78.59-.73,1.34-1.09,2.24-1.09.44,0,.85.09,1.23.26.38.17.71.42.98.73.18.2.36.51.56.94s.35.82.44,1.17c.13.5.19,1.1.19,1.78Zm-.74.1c0-.7-.1-1.35-.29-1.95-.2-.6-.42-1.08-.66-1.44-.15-.21-.34-.38-.57-.53-.33-.21-.71-.31-1.12-.31-.83,0-1.47.42-1.94,1.27s-.7,1.83-.7,2.95v1.63c0,.7.1,1.35.29,1.95s.42,1.08.67,1.44c.14.2.33.37.56.52.33.21.71.32,1.13.32.82,0,1.46-.42,1.93-1.27s.7-1.83.7-2.96v-1.63Z" fill="#333e48" stroke-width="0"/><path d="m252.99,277.72v1.83c0,1.59-.38,2.84-1.13,3.77-.59.73-1.34,1.09-2.24,1.09-.43,0-.84-.09-1.23-.26-.38-.17-.71-.41-.98-.72-.17-.19-.36-.5-.56-.93-.2-.43-.35-.82-.44-1.18-.13-.5-.2-1.09-.2-1.77v-1.83c0-1.59.38-2.85,1.13-3.78.59-.73,1.34-1.09,2.24-1.09.44,0,.85.09,1.23.26.38.17.71.42.98.73.18.2.36.51.56.94s.35.82.44,1.17c.13.5.19,1.1.19,1.78Zm-.74.1c0-.7-.1-1.35-.29-1.95-.2-.6-.42-1.08-.66-1.44-.15-.21-.34-.38-.57-.53-.33-.21-.71-.31-1.12-.31-.83,0-1.47.42-1.94,1.27s-.7,1.83-.7,2.95v1.63c0,.7.1,1.35.29,1.95s.42,1.08.67,1.44c.14.2.33.37.56.52.33.21.71.32,1.13.32.82,0,1.46-.42,1.93-1.27s.7-1.83.7-2.96v-1.63Z" fill="#333e48" stroke-width="0"/><rect x="270" y="165" width="210" height="390" fill="#0091bd" stroke-width="0"/><rect x="285" y="180" width="180" height="90" fill="#fff" stroke-width="0"/><path d="m328.09,225.4h.63c.23,0,.41-.03.55-.09.14-.06.27-.15.38-.29l4.11-4.78c.13-.16.27-.27.4-.34.14-.06.31-.09.51-.09h1.64l-4.79,5.51c-.12.16-.24.28-.36.38s-.24.18-.36.24c.33.11.62.34.86.69l4.98,6.1h-1.67c-.12,0-.22,0-.31-.03-.09-.02-.16-.04-.22-.08-.06-.03-.12-.07-.17-.12-.05-.05-.1-.11-.14-.17l-4.26-5.04c-.06-.08-.12-.14-.18-.2-.06-.05-.13-.1-.21-.13s-.17-.06-.27-.07c-.1-.01-.22-.02-.36-.02h-.78v5.86h-1.92v-12.92h1.92v5.59Z" fill="#333e48" stroke-width="0"/><path d="m344.67,231.43c-.22.25-.46.47-.75.65-.28.18-.58.33-.9.45s-.65.2-.99.25-.67.08-1,.08c-.63,0-1.21-.11-1.75-.32s-1-.53-1.4-.94c-.39-.41-.7-.92-.92-1.53-.22-.61-.33-1.31-.33-2.1,0-.64.1-1.23.3-1.78.2-.55.48-1.03.85-1.44s.82-.73,1.35-.96c.53-.23,1.13-.35,1.8-.35.56,0,1.07.09,1.54.27.47.18.88.45,1.22.8.34.35.61.78.8,1.29.2.51.29,1.09.29,1.75,0,.27-.03.45-.09.54-.06.09-.17.14-.33.14h-5.99c.02.55.1,1.02.23,1.43.14.4.33.74.57,1.01.24.27.53.47.87.6s.71.2,1.12.2c.39,0,.73-.04,1.01-.13.29-.09.53-.19.74-.29.21-.1.38-.2.52-.29.14-.09.27-.13.37-.13.14,0,.25.05.33.16l.5.65Zm-1.45-4.28c0-.35-.05-.67-.15-.96s-.25-.55-.44-.77c-.19-.22-.43-.38-.7-.5s-.59-.18-.95-.18c-.74,0-1.32.21-1.74.64-.42.43-.69,1.02-.81,1.77h4.79Z" fill="#333e48" stroke-width="0"/><path d="m348.35,225.34c.29-.6.65-1.07,1.06-1.41s.91-.51,1.49-.51c.2,0,.38.02.56.07.18.04.33.11.46.2l-.12,1.32c-.04.16-.14.24-.3.24-.08,0-.21-.02-.38-.05s-.35-.05-.54-.05c-.28,0-.53.04-.75.12-.22.08-.41.2-.58.36s-.32.35-.45.58c-.13.23-.26.49-.37.79v5.72h-1.75v-9.14h1.01c.19,0,.32.03.39.1s.12.19.15.36l.11,1.29Z" fill="#333e48" stroke-width="0"/><path d="m354.94,224.86c.2-.21.41-.4.62-.58s.45-.32.69-.45.5-.22.78-.29c.28-.07.58-.1.9-.1.5,0,.95.08,1.33.25s.7.4.96.71c.26.3.45.67.58,1.09.13.43.2.9.2,1.41v5.82h-1.76v-5.82c0-.65-.15-1.16-.45-1.53-.3-.36-.76-.54-1.38-.54-.45,0-.87.11-1.26.32-.39.21-.76.5-1.09.87v6.71h-1.75v-9.14h1.05c.25,0,.4.12.46.35l.13.92Z" fill="#333e48" stroke-width="0"/><path d="m370.87,231.43c-.22.25-.46.47-.75.65-.28.18-.58.33-.9.45s-.65.2-.99.25-.67.08-1,.08c-.63,0-1.21-.11-1.75-.32s-1-.53-1.4-.94c-.39-.41-.7-.92-.92-1.53-.22-.61-.33-1.31-.33-2.1,0-.64.1-1.23.3-1.78.2-.55.48-1.03.85-1.44s.82-.73,1.35-.96c.53-.23,1.13-.35,1.8-.35.56,0,1.07.09,1.54.27.47.18.88.45,1.22.8.34.35.61.78.8,1.29.2.51.29,1.09.29,1.75,0,.27-.03.45-.09.54-.06.09-.17.14-.33.14h-5.99c.02.55.1,1.02.23,1.43.14.4.33.74.57,1.01.24.27.53.47.87.6s.71.2,1.12.2c.39,0,.73-.04,1.01-.13.29-.09.53-.19.74-.29.21-.1.38-.2.52-.29.14-.09.27-.13.37-.13.14,0,.25.05.33.16l.5.65Zm-1.45-4.28c0-.35-.05-.67-.15-.96s-.25-.55-.44-.77c-.19-.22-.43-.38-.7-.5s-.59-.18-.95-.18c-.74,0-1.32.21-1.74.64-.42.43-.69,1.02-.81,1.77h4.79Z" fill="#333e48" stroke-width="0"/><path d="m374.69,219.45v13.28h-1.76v-13.28h1.76Z" fill="#333e48" stroke-width="0"/><path d="m387.13,225.16c-.05.08-.1.13-.15.17-.05.03-.12.05-.21.05-.1,0-.2-.03-.32-.1-.12-.07-.26-.14-.42-.22s-.36-.15-.58-.22c-.22-.07-.49-.1-.79-.1-.25,0-.48.03-.69.09-.21.06-.38.15-.53.26-.14.11-.25.24-.33.4-.08.15-.12.32-.12.49,0,.23.07.42.2.57.13.15.31.28.53.39.22.11.47.21.75.29.28.09.56.18.85.27s.58.21.86.33c.28.12.53.28.75.46.22.18.4.4.53.66.14.26.2.57.2.95,0,.43-.08.82-.23,1.18-.15.36-.38.68-.67.94-.3.26-.67.47-1.1.62-.44.15-.94.22-1.5.22-.63,0-1.21-.1-1.75-.31-.53-.21-.98-.48-1.34-.8l.41-.68c.05-.08.11-.15.18-.19.07-.04.17-.07.29-.07.11,0,.23.04.35.13s.26.18.43.27c.17.1.37.19.61.27s.54.12.9.12c.3,0,.56-.04.78-.11.22-.08.41-.18.55-.31.15-.13.26-.28.33-.45.07-.17.11-.34.11-.53,0-.24-.07-.44-.2-.6s-.31-.3-.53-.41c-.22-.11-.47-.21-.75-.3-.28-.08-.57-.17-.86-.27s-.58-.21-.86-.33-.53-.29-.75-.48c-.22-.19-.4-.43-.53-.7-.13-.28-.2-.61-.2-1.01,0-.35.07-.69.22-1.02.15-.32.36-.61.64-.85.28-.25.62-.44,1.03-.59s.88-.22,1.41-.22c.61,0,1.15.1,1.64.29.49.19.91.46,1.25.79l-.39.64Z" fill="#333e48" stroke-width="0"/><path d="m391.22,224.95c.19-.23.4-.44.62-.62.22-.19.45-.35.71-.49s.52-.24.81-.31.59-.11.91-.11c.52,0,.99.1,1.42.31s.78.5,1.08.9c.3.4.53.89.7,1.47s.25,1.25.25,2.01c0,.68-.09,1.31-.27,1.89-.18.58-.44,1.08-.78,1.51-.34.43-.75.76-1.24,1-.49.24-1.04.36-1.65.36-.55,0-1.01-.09-1.4-.27-.39-.18-.74-.43-1.04-.76v3.97h-1.75v-12.21h1.05c.25,0,.4.12.46.35l.15,1.02Zm.09,5.53c.29.38.6.64.93.79.33.15.71.22,1.12.22.8,0,1.43-.29,1.87-.87.44-.58.66-1.42.66-2.53,0-.58-.05-1.08-.15-1.49-.1-.41-.24-.75-.43-1.01-.19-.26-.42-.45-.7-.58-.28-.12-.59-.18-.94-.18-.51,0-.95.11-1.33.34-.38.23-.72.55-1.04.97v4.33Z" fill="#333e48" stroke-width="0"/><path d="m399.45,224.86c.51-.49,1.06-.85,1.66-1.09.6-.24,1.25-.36,1.97-.36.52,0,.98.09,1.39.26.4.17.74.41,1.02.72.28.31.48.67.62,1.1s.21.9.21,1.41v5.83h-.78c-.17,0-.31-.03-.4-.09-.09-.06-.16-.16-.22-.32l-.19-.8c-.23.22-.46.41-.69.57-.23.17-.47.31-.72.42-.25.12-.51.21-.8.27-.28.06-.59.09-.94.09s-.7-.05-1.01-.15c-.32-.1-.59-.25-.82-.45-.23-.2-.42-.46-.55-.76-.14-.31-.2-.66-.2-1.07,0-.36.1-.71.29-1.04.19-.33.51-.63.95-.9.44-.26,1.02-.48,1.73-.65s1.59-.26,2.62-.29v-.67c0-.69-.15-1.21-.44-1.55s-.73-.51-1.3-.51c-.38,0-.71.05-.97.14s-.49.2-.67.32c-.19.12-.35.22-.5.32-.14.1-.29.14-.44.14-.12,0-.22-.03-.31-.1-.09-.07-.16-.14-.21-.23l-.32-.57Zm5.15,3.81c-.71.02-1.32.08-1.82.17s-.9.2-1.21.35c-.31.14-.54.31-.67.51-.14.19-.21.41-.21.65,0,.23.04.42.11.59s.18.3.31.41c.13.11.28.18.46.23.17.05.36.07.57.07.27,0,.52-.03.74-.08.23-.05.44-.13.63-.23s.39-.22.57-.36c.18-.14.36-.31.53-.5v-1.8Z" fill="#333e48" stroke-width="0"/><path d="m415.08,225.3c-.05.07-.11.12-.16.16s-.12.06-.22.06-.2-.04-.3-.11c-.11-.08-.24-.16-.4-.24s-.35-.17-.58-.24c-.22-.08-.5-.11-.83-.11-.43,0-.81.08-1.14.23-.33.16-.6.38-.82.67s-.39.64-.5,1.05c-.11.41-.17.88-.17,1.39s.06,1.01.18,1.43.29.77.51,1.05.49.5.81.65c.32.15.67.22,1.06.22s.69-.05.94-.14c.25-.09.45-.19.61-.3.16-.11.3-.21.41-.3s.22-.14.33-.14c.14,0,.25.05.33.16l.5.65c-.21.26-.45.48-.71.66-.26.18-.54.33-.83.44s-.6.2-.92.25c-.32.05-.65.08-.98.08-.57,0-1.1-.11-1.6-.32s-.92-.52-1.29-.92c-.36-.4-.65-.9-.86-1.48-.21-.58-.32-1.25-.32-1.99,0-.68.09-1.3.28-1.88.19-.58.47-1.07.84-1.49.37-.42.82-.74,1.36-.98s1.16-.36,1.85-.36c.65,0,1.23.11,1.73.32s.94.51,1.33.89l-.47.65Z" fill="#333e48" stroke-width="0"/><path d="m424.63,231.43c-.22.25-.46.47-.75.65-.28.18-.58.33-.9.45s-.65.2-.99.25-.67.08-1,.08c-.63,0-1.21-.11-1.75-.32s-1-.53-1.4-.94c-.39-.41-.7-.92-.92-1.53-.22-.61-.33-1.31-.33-2.1,0-.64.1-1.23.3-1.78.2-.55.48-1.03.85-1.44s.82-.73,1.35-.96c.53-.23,1.13-.35,1.8-.35.56,0,1.07.09,1.54.27.47.18.88.45,1.22.8.34.35.61.78.8,1.29.2.51.29,1.09.29,1.75,0,.27-.03.45-.09.54-.06.09-.17.14-.33.14h-5.99c.02.55.1,1.02.23,1.43.14.4.33.74.57,1.01.24.27.53.47.87.6s.71.2,1.12.2c.39,0,.73-.04,1.01-.13.29-.09.53-.19.74-.29.21-.1.38-.2.52-.29.14-.09.27-.13.37-.13.14,0,.25.05.33.16l.5.65Zm-1.45-4.28c0-.35-.05-.67-.15-.96s-.25-.55-.44-.77c-.19-.22-.43-.38-.7-.5s-.59-.18-.95-.18c-.74,0-1.32.21-1.74.64-.42.43-.69,1.02-.81,1.77h4.79Z" fill="#333e48" stroke-width="0"/><path d="m36.95,457.72v1.83c0,1.59-.38,2.84-1.13,3.77-.59.73-1.34,1.09-2.24,1.09-.43,0-.84-.09-1.23-.26-.38-.17-.71-.41-.98-.72-.17-.19-.36-.5-.56-.93-.2-.43-.35-.82-.44-1.18-.13-.5-.2-1.09-.2-1.77v-1.83c0-1.59.38-2.85,1.13-3.78.59-.73,1.34-1.09,2.24-1.09.44,0,.85.09,1.23.26.38.17.71.42.98.73.18.2.36.51.56.94s.35.82.44,1.17c.13.5.19,1.1.19,1.78Zm-.74.1c0-.7-.1-1.35-.29-1.95-.2-.6-.42-1.08-.66-1.44-.15-.21-.34-.38-.57-.53-.33-.21-.71-.31-1.12-.31-.83,0-1.47.42-1.94,1.27s-.7,1.83-.7,2.95v1.63c0,.7.1,1.35.29,1.95s.42,1.08.67,1.44c.14.2.33.37.56.52.33.21.71.32,1.13.32.82,0,1.46-.42,1.93-1.27s.7-1.83.7-2.96v-1.63Z" fill="#333e48" stroke-width="0"/><path d="m44.87,460.16l3.38,3.24c.22,0,.36.01.42.03s.11.06.15.13c.04.06.07.13.07.21,0,.11-.04.19-.11.26s-.21.11-.39.11h-2.37c-.18,0-.31-.04-.39-.11s-.11-.16-.11-.26c0-.11.04-.2.11-.27s.21-.1.39-.1h1.22l-2.87-2.75-2.86,2.75h1.23c.18,0,.3.03.38.1s.11.16.11.27c0,.11-.04.19-.11.26s-.2.11-.38.11h-2.4c-.18,0-.3-.04-.38-.11s-.11-.16-.11-.26c0-.08.02-.15.07-.21.04-.06.09-.11.15-.13.05-.02.19-.03.42-.03l3.38-3.24-3.01-2.88c-.21,0-.34-.01-.4-.04s-.11-.07-.15-.13c-.04-.06-.07-.13-.07-.21,0-.11.04-.19.11-.26s.21-.11.39-.11h2.01c.18,0,.31.04.38.11.07.07.11.16.11.27,0,.11-.04.19-.11.26-.07.07-.2.11-.38.11h-.88l2.49,2.4,2.5-2.4h-.88c-.18,0-.3-.04-.38-.11-.08-.07-.12-.16-.12-.27,0-.11.04-.19.11-.26s.21-.11.39-.11h2.01c.18,0,.3.04.38.11s.11.16.11.27c0,.07-.02.14-.07.2-.04.06-.09.11-.15.13s-.19.04-.4.04l-3.01,2.88Z" fill="#333e48" stroke-width="0"/><path d="m58.56,457.72v1.83c0,1.59-.38,2.84-1.13,3.77-.59.73-1.34,1.09-2.24,1.09-.43,0-.84-.09-1.23-.26-.38-.17-.71-.41-.98-.72-.17-.19-.36-.5-.56-.93-.2-.43-.35-.82-.44-1.18-.13-.5-.2-1.09-.2-1.77v-1.83c0-1.59.38-2.85,1.13-3.78.59-.73,1.34-1.09,2.24-1.09.44,0,.85.09,1.23.26.38.17.71.42.98.73.18.2.36.51.56.94s.35.82.44,1.17c.13.5.19,1.1.19,1.78Zm-.74.1c0-.7-.1-1.35-.29-1.95-.2-.6-.42-1.08-.66-1.44-.15-.21-.34-.38-.57-.53-.33-.21-.71-.31-1.12-.31-.83,0-1.47.42-1.94,1.27s-.7,1.83-.7,2.95v1.63c0,.7.1,1.35.29,1.95s.42,1.08.67,1.44c.14.2.33.37.56.52.33.21.71.32,1.13.32.82,0,1.46-.42,1.93-1.27s.7-1.83.7-2.96v-1.63Z" fill="#333e48" stroke-width="0"/><path d="m69.36,457.72v1.83c0,1.59-.38,2.84-1.13,3.77-.59.73-1.34,1.09-2.24,1.09-.43,0-.84-.09-1.23-.26-.38-.17-.71-.41-.98-.72-.17-.19-.36-.5-.56-.93-.2-.43-.35-.82-.44-1.18-.13-.5-.2-1.09-.2-1.77v-1.83c0-1.59.38-2.85,1.13-3.78.59-.73,1.34-1.09,2.24-1.09.44,0,.85.09,1.23.26.38.17.71.42.98.73.18.2.36.51.56.94s.35.82.44,1.17c.13.5.19,1.1.19,1.78Zm-.74.1c0-.7-.1-1.35-.29-1.95-.2-.6-.42-1.08-.66-1.44-.15-.21-.34-.38-.57-.53-.33-.21-.71-.31-1.12-.31-.83,0-1.47.42-1.94,1.27s-.7,1.83-.7,2.95v1.63c0,.7.1,1.35.29,1.95s.42,1.08.67,1.44c.14.2.33.37.56.52.33.21.71.32,1.13.32.82,0,1.46-.42,1.93-1.27s.7-1.83.7-2.96v-1.63Z" fill="#333e48" stroke-width="0"/><path d="m80.16,457.72v1.83c0,1.59-.38,2.84-1.13,3.77-.59.73-1.34,1.09-2.24,1.09-.43,0-.84-.09-1.23-.26-.38-.17-.71-.41-.98-.72-.17-.19-.36-.5-.56-.93-.2-.43-.35-.82-.44-1.18-.13-.5-.2-1.09-.2-1.77v-1.83c0-1.59.38-2.85,1.13-3.78.59-.73,1.34-1.09,2.24-1.09.44,0,.85.09,1.23.26.38.17.71.42.98.73.18.2.36.51.56.94s.35.82.44,1.17c.13.5.19,1.1.19,1.78Zm-.74.1c0-.7-.1-1.35-.29-1.95-.2-.6-.42-1.08-.66-1.44-.15-.21-.34-.38-.57-.53-.33-.21-.71-.31-1.12-.31-.83,0-1.47.42-1.94,1.27s-.7,1.83-.7,2.95v1.63c0,.7.1,1.35.29,1.95s.42,1.08.67,1.44c.14.2.33.37.56.52.33.21.71.32,1.13.32.82,0,1.46-.42,1.93-1.27s.7-1.83.7-2.96v-1.63Z" fill="#333e48" stroke-width="0"/><path d="m85.79,459.18v4.23h2.53c.18,0,.3.03.38.1s.11.16.11.27c0,.11-.04.19-.11.26s-.2.11-.38.11h-4.26c-.18,0-.3-.04-.38-.11s-.11-.16-.11-.26c0-.11.04-.2.11-.27s.2-.1.38-.1h.99v-8.81h-.99c-.18,0-.3-.03-.38-.1-.08-.07-.11-.16-.11-.27s.04-.21.13-.28c.06-.06.18-.09.36-.09h8.13v2.54c0,.18-.04.3-.11.38s-.16.11-.26.11c-.11,0-.2-.04-.27-.11s-.11-.2-.11-.38v-1.8h-5.65v3.84h2.65v-.83c0-.18.04-.3.11-.38s.16-.11.27-.11c.11,0,.19.04.26.11s.11.2.11.38v2.41c0,.18-.04.3-.11.38s-.16.11-.26.11c-.11,0-.2-.04-.27-.11s-.11-.2-.11-.38v-.83h-2.65Z" fill="#333e48" stroke-width="0"/><path d="m103.28,469.07h-9.82c-.18,0-.3-.03-.38-.1-.08-.07-.11-.16-.11-.27s.04-.2.11-.27.2-.1.38-.1h9.82c.18,0,.31.03.38.1s.11.16.11.27-.04.2-.11.27c-.07.07-.2.1-.38.1Z" fill="#333e48" stroke-width="0"/><path d="m107.4,459.18v4.23h2.53c.18,0,.3.03.38.1s.11.16.11.27c0,.11-.04.19-.11.26s-.2.11-.38.11h-4.26c-.18,0-.3-.04-.38-.11s-.11-.16-.11-.26c0-.11.04-.2.11-.27s.2-.1.38-.1h.99v-8.81h-.99c-.18,0-.3-.03-.38-.1-.08-.07-.11-.16-.11-.27s.04-.21.13-.28c.06-.06.18-.09.36-.09h8.13v2.54c0,.18-.04.3-.11.38s-.16.11-.26.11c-.11,0-.2-.04-.27-.11s-.11-.2-.11-.38v-1.8h-5.65v3.84h2.65v-.83c0-.18.04-.3.11-.38s.16-.11.27-.11c.11,0,.19.04.26.11s.11.2.11.38v2.41c0,.18-.04.3-.11.38s-.16.11-.26.11c-.11,0-.2-.04-.27-.11s-.11-.2-.11-.38v-.83h-2.65Z" fill="#333e48" stroke-width="0"/><path d="m118.2,459.18v4.23h2.53c.18,0,.3.03.38.1s.11.16.11.27c0,.11-.04.19-.11.26s-.2.11-.38.11h-4.26c-.18,0-.3-.04-.38-.11s-.11-.16-.11-.26c0-.11.04-.2.11-.27s.2-.1.38-.1h.99v-8.81h-.99c-.18,0-.3-.03-.38-.1-.08-.07-.11-.16-.11-.27s.04-.21.13-.28c.06-.06.18-.09.36-.09h8.13v2.54c0,.18-.04.3-.11.38s-.16.11-.26.11c-.11,0-.2-.04-.27-.11s-.11-.2-.11-.38v-1.8h-5.65v3.84h2.65v-.83c0-.18.04-.3.11-.38s.16-.11.27-.11c.11,0,.19.04.26.11s.11.2.11.38v2.41c0,.18-.04.3-.11.38s-.16.11-.26.11c-.11,0-.2-.04-.27-.11s-.11-.2-.11-.38v-.83h-2.65Z" fill="#333e48" stroke-width="0"/><path d="m129,459.18v4.23h2.53c.18,0,.3.03.38.1s.11.16.11.27c0,.11-.04.19-.11.26s-.2.11-.38.11h-4.26c-.18,0-.3-.04-.38-.11s-.11-.16-.11-.26c0-.11.04-.2.11-.27s.2-.1.38-.1h.99v-8.81h-.99c-.18,0-.3-.03-.38-.1-.08-.07-.11-.16-.11-.27s.04-.21.13-.28c.06-.06.18-.09.36-.09h8.13v2.54c0,.18-.04.3-.11.38s-.16.11-.26.11c-.11,0-.2-.04-.27-.11s-.11-.2-.11-.38v-1.8h-5.65v3.84h2.65v-.83c0-.18.04-.3.11-.38s.16-.11.27-.11c.11,0,.19.04.26.11s.11.2.11.38v2.41c0,.18-.04.3-.11.38s-.16.11-.26.11c-.11,0-.2-.04-.27-.11s-.11-.2-.11-.38v-.83h-2.65Z" fill="#333e48" stroke-width="0"/><path d="m139.8,459.18v4.23h2.53c.18,0,.3.03.38.1s.11.16.11.27c0,.11-.04.19-.11.26s-.2.11-.38.11h-4.26c-.18,0-.3-.04-.38-.11s-.11-.16-.11-.26c0-.11.04-.2.11-.27s.2-.1.38-.1h.99v-8.81h-.99c-.18,0-.3-.03-.38-.1-.08-.07-.11-.16-.11-.27s.04-.21.13-.28c.06-.06.18-.09.36-.09h8.13v2.54c0,.18-.04.3-.11.38s-.16.11-.26.11c-.11,0-.2-.04-.27-.11s-.11-.2-.11-.38v-1.8h-5.65v3.84h2.65v-.83c0-.18.04-.3.11-.38s.16-.11.27-.11c.11,0,.19.04.26.11s.11.2.11.38v2.41c0,.18-.04.3-.11.38s-.16.11-.26.11c-.11,0-.2-.04-.27-.11s-.11-.2-.11-.38v-.83h-2.65Z" fill="#333e48" stroke-width="0"/><path d="m157.29,469.07h-9.82c-.18,0-.3-.03-.38-.1-.08-.07-.11-.16-.11-.27s.04-.2.11-.27.2-.1.38-.1h9.82c.18,0,.31.03.38.1s.11.16.11.27-.04.2-.11.27c-.07.07-.2.1-.38.1Z" fill="#333e48" stroke-width="0"/><path d="m161.4,459.18v4.23h2.53c.18,0,.3.03.38.1s.11.16.11.27c0,.11-.04.19-.11.26s-.2.11-.38.11h-4.26c-.18,0-.3-.04-.38-.11s-.11-.16-.11-.26c0-.11.04-.2.11-.27s.2-.1.38-.1h.99v-8.81h-.99c-.18,0-.3-.03-.38-.1-.08-.07-.11-.16-.11-.27s.04-.21.13-.28c.06-.06.18-.09.36-.09h8.13v2.54c0,.18-.04.3-.11.38s-.16.11-.26.11c-.11,0-.2-.04-.27-.11s-.11-.2-.11-.38v-1.8h-5.65v3.84h2.65v-.83c0-.18.04-.3.11-.38s.16-.11.27-.11c.11,0,.19.04.26.11s.11.2.11.38v2.41c0,.18-.04.3-.11.38s-.16.11-.26.11c-.11,0-.2-.04-.27-.11s-.11-.2-.11-.38v-.83h-2.65Z" fill="#333e48" stroke-width="0"/><path d="m172.21,459.18v4.23h2.53c.18,0,.3.03.38.1s.11.16.11.27c0,.11-.04.19-.11.26s-.2.11-.38.11h-4.26c-.18,0-.3-.04-.38-.11s-.11-.16-.11-.26c0-.11.04-.2.11-.27s.2-.1.38-.1h.99v-8.81h-.99c-.18,0-.3-.03-.38-.1-.08-.07-.11-.16-.11-.27s.04-.21.13-.28c.06-.06.18-.09.36-.09h8.13v2.54c0,.18-.04.3-.11.38s-.16.11-.26.11c-.11,0-.2-.04-.27-.11s-.11-.2-.11-.38v-1.8h-5.65v3.84h2.65v-.83c0-.18.04-.3.11-.38s.16-.11.27-.11c.11,0,.19.04.26.11s.11.2.11.38v2.41c0,.18-.04.3-.11.38s-.16.11-.26.11c-.11,0-.2-.04-.27-.11s-.11-.2-.11-.38v-.83h-2.65Z" fill="#333e48" stroke-width="0"/><path d="m183.01,459.18v4.23h2.53c.18,0,.3.03.38.1s.11.16.11.27c0,.11-.04.19-.11.26s-.2.11-.38.11h-4.26c-.18,0-.3-.04-.38-.11s-.11-.16-.11-.26c0-.11.04-.2.11-.27s.2-.1.38-.1h.99v-8.81h-.99c-.18,0-.3-.03-.38-.1-.08-.07-.11-.16-.11-.27s.04-.21.13-.28c.06-.06.18-.09.36-.09h8.13v2.54c0,.18-.04.3-.11.38s-.16.11-.26.11c-.11,0-.2-.04-.27-.11s-.11-.2-.11-.38v-1.8h-5.65v3.84h2.65v-.83c0-.18.04-.3.11-.38s.16-.11.27-.11c.11,0,.19.04.26.11s.11.2.11.38v2.41c0,.18-.04.3-.11.38s-.16.11-.26.11c-.11,0-.2-.04-.27-.11s-.11-.2-.11-.38v-.83h-2.65Z" fill="#333e48" stroke-width="0"/><path d="m193.81,459.18v4.23h2.53c.18,0,.3.03.38.1s.11.16.11.27c0,.11-.04.19-.11.26s-.2.11-.38.11h-4.26c-.18,0-.3-.04-.38-.11s-.11-.16-.11-.26c0-.11.04-.2.11-.27s.2-.1.38-.1h.99v-8.81h-.99c-.18,0-.3-.03-.38-.1-.08-.07-.11-.16-.11-.27s.04-.21.13-.28c.06-.06.18-.09.36-.09h8.13v2.54c0,.18-.04.3-.11.38s-.16.11-.26.11c-.11,0-.2-.04-.27-.11s-.11-.2-.11-.38v-1.8h-5.65v3.84h2.65v-.83c0-.18.04-.3.11-.38s.16-.11.27-.11c.11,0,.19.04.26.11s.11.2.11.38v2.41c0,.18-.04.3-.11.38s-.16.11-.26.11c-.11,0-.2-.04-.27-.11s-.11-.2-.11-.38v-.83h-2.65Z" fill="#333e48" stroke-width="0"/><path d="m211.3,469.07h-9.82c-.18,0-.3-.03-.38-.1-.08-.07-.11-.16-.11-.27s.04-.2.11-.27.2-.1.38-.1h9.82c.18,0,.31.03.38.1s.11.16.11.27-.04.2-.11.27c-.07.07-.2.1-.38.1Z" fill="#333e48" stroke-width="0"/><path d="m215.41,459.18v4.23h2.53c.18,0,.3.03.38.1s.11.16.11.27c0,.11-.04.19-.11.26s-.2.11-.38.11h-4.26c-.18,0-.3-.04-.38-.11s-.11-.16-.11-.26c0-.11.04-.2.11-.27s.2-.1.38-.1h.99v-8.81h-.99c-.18,0-.3-.03-.38-.1-.08-.07-.11-.16-.11-.27s.04-.21.13-.28c.06-.06.18-.09.36-.09h8.13v2.54c0,.18-.04.3-.11.38s-.16.11-.26.11c-.11,0-.2-.04-.27-.11s-.11-.2-.11-.38v-1.8h-5.65v3.84h2.65v-.83c0-.18.04-.3.11-.38s.16-.11.27-.11c.11,0,.19.04.26.11s.11.2.11.38v2.41c0,.18-.04.3-.11.38s-.16.11-.26.11c-.11,0-.2-.04-.27-.11s-.11-.2-.11-.38v-.83h-2.65Z" fill="#333e48" stroke-width="0"/><path d="m226.22,459.18v4.23h2.53c.18,0,.3.03.38.1s.11.16.11.27c0,.11-.04.19-.11.26s-.2.11-.38.11h-4.26c-.18,0-.3-.04-.38-.11s-.11-.16-.11-.26c0-.11.04-.2.11-.27s.2-.1.38-.1h.99v-8.81h-.99c-.18,0-.3-.03-.38-.1-.08-.07-.11-.16-.11-.27s.04-.21.13-.28c.06-.06.18-.09.36-.09h8.13v2.54c0,.18-.04.3-.11.38s-.16.11-.26.11c-.11,0-.2-.04-.27-.11s-.11-.2-.11-.38v-1.8h-5.65v3.84h2.65v-.83c0-.18.04-.3.11-.38s.16-.11.27-.11c.11,0,.19.04.26.11s.11.2.11.38v2.41c0,.18-.04.3-.11.38s-.16.11-.26.11c-.11,0-.2-.04-.27-.11s-.11-.2-.11-.38v-.83h-2.65Z" fill="#333e48" stroke-width="0"/><path d="m237.02,459.18v4.23h2.53c.18,0,.3.03.38.1s.11.16.11.27c0,.11-.04.19-.11.26s-.2.11-.38.11h-4.26c-.18,0-.3-.04-.38-.11s-.11-.16-.11-.26c0-.11.04-.2.11-.27s.2-.1.38-.1h.99v-8.81h-.99c-.18,0-.3-.03-.38-.1-.08-.07-.11-.16-.11-.27s.04-.21.13-.28c.06-.06.18-.09.36-.09h8.13v2.54c0,.18-.04.3-.11.38s-.16.11-.26.11c-.11,0-.2-.04-.27-.11s-.11-.2-.11-.38v-1.8h-5.65v3.84h2.65v-.83c0-.18.04-.3.11-.38s.16-.11.27-.11c.11,0,.19.04.26.11s.11.2.11.38v2.41c0,.18-.04.3-.11.38s-.16.11-.26.11c-.11,0-.2-.04-.27-.11s-.11-.2-.11-.38v-.83h-2.65Z" fill="#333e48" stroke-width="0"/><path d="m247.82,459.18v4.23h2.53c.18,0,.3.03.38.1s.11.16.11.27c0,.11-.04.19-.11.26s-.2.11-.38.11h-4.26c-.18,0-.3-.04-.38-.11s-.11-.16-.11-.26c0-.11.04-.2.11-.27s.2-.1.38-.1h.99v-8.81h-.99c-.18,0-.3-.03-.38-.1-.08-.07-.11-.16-.11-.27s.04-.21.13-.28c.06-.06.18-.09.36-.09h8.13v2.54c0,.18-.04.3-.11.38s-.16.11-.26.11c-.11,0-.2-.04-.27-.11s-.11-.2-.11-.38v-1.8h-5.65v3.84h2.65v-.83c0-.18.04-.3.11-.38s.16-.11.27-.11c.11,0,.19.04.26.11s.11.2.11.38v2.41c0,.18-.04.3-.11.38s-.16.11-.26.11c-.11,0-.2-.04-.27-.11s-.11-.2-.11-.38v-.83h-2.65Z" fill="#333e48" stroke-width="0"/><path d="m36.95,547.72v1.83c0,1.59-.38,2.84-1.13,3.77-.59.73-1.34,1.09-2.24,1.09-.43,0-.84-.09-1.23-.26-.38-.17-.71-.41-.98-.72-.17-.19-.36-.5-.56-.93-.2-.43-.35-.82-.44-1.18-.13-.5-.2-1.09-.2-1.77v-1.83c0-1.59.38-2.85,1.13-3.78.59-.73,1.34-1.09,2.24-1.09.44,0,.85.09,1.23.26.38.17.71.42.98.73.18.2.36.51.56.94s.35.82.44,1.17c.13.5.19,1.1.19,1.78Zm-.74.1c0-.7-.1-1.35-.29-1.95-.2-.6-.42-1.08-.66-1.44-.15-.21-.34-.38-.57-.53-.33-.21-.71-.31-1.12-.31-.83,0-1.47.42-1.94,1.27s-.7,1.83-.7,2.95v1.63c0,.7.1,1.35.29,1.95s.42,1.08.67,1.44c.14.2.33.37.56.52.33.21.71.32,1.13.32.82,0,1.46-.42,1.93-1.27s.7-1.83.7-2.96v-1.63Z" fill="#333e48" stroke-width="0"/><path d="m44.87,550.16l3.38,3.24c.22,0,.36.01.42.03s.11.06.15.13c.04.06.07.13.07.21,0,.11-.04.19-.11.26s-.21.11-.39.11h-2.37c-.18,0-.31-.04-.39-.11s-.11-.16-.11-.26c0-.11.04-.2.11-.27s.21-.1.39-.1h1.22l-2.87-2.75-2.86,2.75h1.23c.18,0,.3.03.38.1s.11.16.11.27c0,.11-.04.19-.11.26s-.2.11-.38.11h-2.4c-.18,0-.3-.04-.38-.11s-.11-.16-.11-.26c0-.08.02-.15.07-.21.04-.06.09-.11.15-.13.05-.02.19-.03.42-.03l3.38-3.24-3.01-2.88c-.21,0-.34-.01-.4-.04s-.11-.07-.15-.13c-.04-.06-.07-.13-.07-.21,0-.11.04-.19.11-.26s.21-.11.39-.11h2.01c.18,0,.31.04.38.11.07.07.11.16.11.27,0,.11-.04.19-.11.26-.07.07-.2.11-.38.11h-.88l2.49,2.4,2.5-2.4h-.88c-.18,0-.3-.04-.38-.11-.08-.07-.12-.16-.12-.27,0-.11.04-.19.11-.26s.21-.11.39-.11h2.01c.18,0,.3.04.38.11s.11.16.11.27c0,.07-.02.14-.07.2-.04.06-.09.11-.15.13s-.19.04-.4.04l-3.01,2.88Z" fill="#333e48" stroke-width="0"/><path d="m58.56,547.72v1.83c0,1.59-.38,2.84-1.13,3.77-.59.73-1.34,1.09-2.24,1.09-.43,0-.84-.09-1.23-.26-.38-.17-.71-.41-.98-.72-.17-.19-.36-.5-.56-.93-.2-.43-.35-.82-.44-1.18-.13-.5-.2-1.09-.2-1.77v-1.83c0-1.59.38-2.85,1.13-3.78.59-.73,1.34-1.09,2.24-1.09.44,0,.85.09,1.23.26.38.17.71.42.98.73.18.2.36.51.56.94s.35.82.44,1.17c.13.5.19,1.1.19,1.78Zm-.74.1c0-.7-.1-1.35-.29-1.95-.2-.6-.42-1.08-.66-1.44-.15-.21-.34-.38-.57-.53-.33-.21-.71-.31-1.12-.31-.83,0-1.47.42-1.94,1.27s-.7,1.83-.7,2.95v1.63c0,.7.1,1.35.29,1.95s.42,1.08.67,1.44c.14.2.33.37.56.52.33.21.71.32,1.13.32.82,0,1.46-.42,1.93-1.27s.7-1.83.7-2.96v-1.63Z" fill="#333e48" stroke-width="0"/><path d="m69.36,547.72v1.83c0,1.59-.38,2.84-1.13,3.77-.59.73-1.34,1.09-2.24,1.09-.43,0-.84-.09-1.23-.26-.38-.17-.71-.41-.98-.72-.17-.19-.36-.5-.56-.93-.2-.43-.35-.82-.44-1.18-.13-.5-.2-1.09-.2-1.77v-1.83c0-1.59.38-2.85,1.13-3.78.59-.73,1.34-1.09,2.24-1.09.44,0,.85.09,1.23.26.38.17.71.42.98.73.18.2.36.51.56.94s.35.82.44,1.17c.13.5.19,1.1.19,1.78Zm-.74.1c0-.7-.1-1.35-.29-1.95-.2-.6-.42-1.08-.66-1.44-.15-.21-.34-.38-.57-.53-.33-.21-.71-.31-1.12-.31-.83,0-1.47.42-1.94,1.27s-.7,1.83-.7,2.95v1.63c0,.7.1,1.35.29,1.95s.42,1.08.67,1.44c.14.2.33.37.56.52.33.21.71.32,1.13.32.82,0,1.46-.42,1.93-1.27s.7-1.83.7-2.96v-1.63Z" fill="#333e48" stroke-width="0"/><path d="m80.16,547.72v1.83c0,1.59-.38,2.84-1.13,3.77-.59.73-1.34,1.09-2.24,1.09-.43,0-.84-.09-1.23-.26-.38-.17-.71-.41-.98-.72-.17-.19-.36-.5-.56-.93-.2-.43-.35-.82-.44-1.18-.13-.5-.2-1.09-.2-1.77v-1.83c0-1.59.38-2.85,1.13-3.78.59-.73,1.34-1.09,2.24-1.09.44,0,.85.09,1.23.26.38.17.71.42.98.73.18.2.36.51.56.94s.35.82.44,1.17c.13.5.19,1.1.19,1.78Zm-.74.1c0-.7-.1-1.35-.29-1.95-.2-.6-.42-1.08-.66-1.44-.15-.21-.34-.38-.57-.53-.33-.21-.71-.31-1.12-.31-.83,0-1.47.42-1.94,1.27s-.7,1.83-.7,2.95v1.63c0,.7.1,1.35.29,1.95s.42,1.08.67,1.44c.14.2.33.37.56.52.33.21.71.32,1.13.32.82,0,1.46-.42,1.93-1.27s.7-1.83.7-2.96v-1.63Z" fill="#333e48" stroke-width="0"/><path d="m90.96,547.72v1.83c0,1.59-.38,2.84-1.13,3.77-.59.73-1.34,1.09-2.24,1.09-.43,0-.84-.09-1.23-.26-.38-.17-.71-.41-.98-.72-.17-.19-.36-.5-.56-.93-.2-.43-.35-.82-.44-1.18-.13-.5-.2-1.09-.2-1.77v-1.83c0-1.59.38-2.85,1.13-3.78.59-.73,1.34-1.09,2.24-1.09.44,0,.85.09,1.23.26.38.17.71.42.98.73.18.2.36.51.56.94s.35.82.44,1.17c.13.5.19,1.1.19,1.78Zm-.74.1c0-.7-.1-1.35-.29-1.95-.2-.6-.42-1.08-.66-1.44-.15-.21-.34-.38-.57-.53-.33-.21-.71-.31-1.12-.31-.83,0-1.47.42-1.94,1.27s-.7,1.83-.7,2.95v1.63c0,.7.1,1.35.29,1.95s.42,1.08.67,1.44c.14.2.33.37.56.52.33.21.71.32,1.13.32.82,0,1.46-.42,1.93-1.27s.7-1.83.7-2.96v-1.63Z" fill="#333e48" stroke-width="0"/><path d="m103.28,559.07h-9.82c-.18,0-.3-.03-.38-.1-.08-.07-.11-.16-.11-.27s.04-.2.11-.27.2-.1.38-.1h9.82c.18,0,.31.03.38.1s.11.16.11.27-.04.2-.11.27c-.07.07-.2.1-.38.1Z" fill="#333e48" stroke-width="0"/><path d="m112.56,547.72v1.83c0,1.59-.38,2.84-1.13,3.77-.59.73-1.34,1.09-2.24,1.09-.43,0-.84-.09-1.23-.26-.38-.17-.71-.41-.98-.72-.17-.19-.36-.5-.56-.93-.2-.43-.35-.82-.44-1.18-.13-.5-.2-1.09-.2-1.77v-1.83c0-1.59.38-2.85,1.13-3.78.59-.73,1.34-1.09,2.24-1.09.44,0,.85.09,1.23.26.38.17.71.42.98.73.18.2.36.51.56.94s.35.82.44,1.17c.13.5.19,1.1.19,1.78Zm-.74.1c0-.7-.1-1.35-.29-1.95-.2-.6-.42-1.08-.66-1.44-.15-.21-.34-.38-.57-.53-.33-.21-.71-.31-1.12-.31-.83,0-1.47.42-1.94,1.27s-.7,1.83-.7,2.95v1.63c0,.7.1,1.35.29,1.95s.42,1.08.67,1.44c.14.2.33.37.56.52.33.21.71.32,1.13.32.82,0,1.46-.42,1.93-1.27s.7-1.83.7-2.96v-1.63Z" fill="#333e48" stroke-width="0"/><path d="m123.37,547.72v1.83c0,1.59-.38,2.84-1.13,3.77-.59.73-1.34,1.09-2.24,1.09-.43,0-.84-.09-1.23-.26-.38-.17-.71-.41-.98-.72-.17-.19-.36-.5-.56-.93-.2-.43-.35-.82-.44-1.18-.13-.5-.2-1.09-.2-1.77v-1.83c0-1.59.38-2.85,1.13-3.78.59-.73,1.34-1.09,2.24-1.09.44,0,.85.09,1.23.26.38.17.71.42.98.73.18.2.36.51.56.94s.35.82.44,1.17c.13.5.19,1.1.19,1.78Zm-.74.1c0-.7-.1-1.35-.29-1.95-.2-.6-.42-1.08-.66-1.44-.15-.21-.34-.38-.57-.53-.33-.21-.71-.31-1.12-.31-.83,0-1.47.42-1.94,1.27s-.7,1.83-.7,2.95v1.63c0,.7.1,1.35.29,1.95s.42,1.08.67,1.44c.14.2.33.37.56.52.33.21.71.32,1.13.32.82,0,1.46-.42,1.93-1.27s.7-1.83.7-2.96v-1.63Z" fill="#333e48" stroke-width="0"/><path d="m134.17,547.72v1.83c0,1.59-.38,2.84-1.13,3.77-.59.73-1.34,1.09-2.24,1.09-.43,0-.84-.09-1.23-.26-.38-.17-.71-.41-.98-.72-.17-.19-.36-.5-.56-.93-.2-.43-.35-.82-.44-1.18-.13-.5-.2-1.09-.2-1.77v-1.83c0-1.59.38-2.85,1.13-3.78.59-.73,1.34-1.09,2.24-1.09.44,0,.85.09,1.23.26.38.17.71.42.98.73.18.2.36.51.56.94s.35.82.44,1.17c.13.5.19,1.1.19,1.78Zm-.74.1c0-.7-.1-1.35-.29-1.95-.2-.6-.42-1.08-.66-1.44-.15-.21-.34-.38-.57-.53-.33-.21-.71-.31-1.12-.31-.83,0-1.47.42-1.94,1.27s-.7,1.83-.7,2.95v1.63c0,.7.1,1.35.29,1.95s.42,1.08.67,1.44c.14.2.33.37.56.52.33.21.71.32,1.13.32.82,0,1.46-.42,1.93-1.27s.7-1.83.7-2.96v-1.63Z" fill="#333e48" stroke-width="0"/><path d="m144.97,547.72v1.83c0,1.59-.38,2.84-1.13,3.77-.59.73-1.34,1.09-2.24,1.09-.43,0-.84-.09-1.23-.26-.38-.17-.71-.41-.98-.72-.17-.19-.36-.5-.56-.93-.2-.43-.35-.82-.44-1.18-.13-.5-.2-1.09-.2-1.77v-1.83c0-1.59.38-2.85,1.13-3.78.59-.73,1.34-1.09,2.24-1.09.44,0,.85.09,1.23.26.38.17.71.42.98.73.18.2.36.51.56.94s.35.82.44,1.17c.13.5.19,1.1.19,1.78Zm-.74.1c0-.7-.1-1.35-.29-1.95-.2-.6-.42-1.08-.66-1.44-.15-.21-.34-.38-.57-.53-.33-.21-.71-.31-1.12-.31-.83,0-1.47.42-1.94,1.27s-.7,1.83-.7,2.95v1.63c0,.7.1,1.35.29,1.95s.42,1.08.67,1.44c.14.2.33.37.56.52.33.21.71.32,1.13.32.82,0,1.46-.42,1.93-1.27s.7-1.83.7-2.96v-1.63Z" fill="#333e48" stroke-width="0"/><path d="m157.29,559.07h-9.82c-.18,0-.3-.03-.38-.1-.08-.07-.11-.16-.11-.27s.04-.2.11-.27.2-.1.38-.1h9.82c.18,0,.31.03.38.1s.11.16.11.27-.04.2-.11.27c-.07.07-.2.1-.38.1Z" fill="#333e48" stroke-width="0"/><path d="m166.57,547.72v1.83c0,1.59-.38,2.84-1.13,3.77-.59.73-1.34,1.09-2.24,1.09-.43,0-.84-.09-1.23-.26-.38-.17-.71-.41-.98-.72-.17-.19-.36-.5-.56-.93-.2-.43-.35-.82-.44-1.18-.13-.5-.2-1.09-.2-1.77v-1.83c0-1.59.38-2.85,1.13-3.78.59-.73,1.34-1.09,2.24-1.09.44,0,.85.09,1.23.26.38.17.71.42.98.73.18.2.36.51.56.94s.35.82.44,1.17c.13.5.19,1.1.19,1.78Zm-.74.1c0-.7-.1-1.35-.29-1.95-.2-.6-.42-1.08-.66-1.44-.15-.21-.34-.38-.57-.53-.33-.21-.71-.31-1.12-.31-.83,0-1.47.42-1.94,1.27s-.7,1.83-.7,2.95v1.63c0,.7.1,1.35.29,1.95s.42,1.08.67,1.44c.14.2.33.37.56.52.33.21.71.32,1.13.32.82,0,1.46-.42,1.93-1.27s.7-1.83.7-2.96v-1.63Z" fill="#333e48" stroke-width="0"/><path d="m177.37,547.72v1.83c0,1.59-.38,2.84-1.13,3.77-.59.73-1.34,1.09-2.24,1.09-.43,0-.84-.09-1.23-.26-.38-.17-.71-.41-.98-.72-.17-.19-.36-.5-.56-.93-.2-.43-.35-.82-.44-1.18-.13-.5-.2-1.09-.2-1.77v-1.83c0-1.59.38-2.85,1.13-3.78.59-.73,1.34-1.09,2.24-1.09.44,0,.85.09,1.23.26.38.17.71.42.98.73.18.2.36.51.56.94s.35.82.44,1.17c.13.5.19,1.1.19,1.78Zm-.74.1c0-.7-.1-1.35-.29-1.95-.2-.6-.42-1.08-.66-1.44-.15-.21-.34-.38-.57-.53-.33-.21-.71-.31-1.12-.31-.83,0-1.47.42-1.94,1.27s-.7,1.83-.7,2.95v1.63c0,.7.1,1.35.29,1.95s.42,1.08.67,1.44c.14.2.33.37.56.52.33.21.71.32,1.13.32.82,0,1.46-.42,1.93-1.27s.7-1.83.7-2.96v-1.63Z" fill="#333e48" stroke-width="0"/><path d="m188.18,547.72v1.83c0,1.59-.38,2.84-1.13,3.77-.59.73-1.34,1.09-2.24,1.09-.43,0-.84-.09-1.23-.26-.38-.17-.71-.41-.98-.72-.17-.19-.36-.5-.56-.93-.2-.43-.35-.82-.44-1.18-.13-.5-.2-1.09-.2-1.77v-1.83c0-1.59.38-2.85,1.13-3.78.59-.73,1.34-1.09,2.24-1.09.44,0,.85.09,1.23.26.38.17.71.42.98.73.18.2.36.51.56.94s.35.82.44,1.17c.13.5.19,1.1.19,1.78Zm-.74.1c0-.7-.1-1.35-.29-1.95-.2-.6-.42-1.08-.66-1.44-.15-.21-.34-.38-.57-.53-.33-.21-.71-.31-1.12-.31-.83,0-1.47.42-1.94,1.27s-.7,1.83-.7,2.95v1.63c0,.7.1,1.35.29,1.95s.42,1.08.67,1.44c.14.2.33.37.56.52.33.21.71.32,1.13.32.82,0,1.46-.42,1.93-1.27s.7-1.83.7-2.96v-1.63Z" fill="#333e48" stroke-width="0"/><path d="m198.98,547.72v1.83c0,1.59-.38,2.84-1.13,3.77-.59.73-1.34,1.09-2.24,1.09-.43,0-.84-.09-1.23-.26-.38-.17-.71-.41-.98-.72-.17-.19-.36-.5-.56-.93-.2-.43-.35-.82-.44-1.18-.13-.5-.2-1.09-.2-1.77v-1.83c0-1.59.38-2.85,1.13-3.78.59-.73,1.34-1.09,2.24-1.09.44,0,.85.09,1.23.26.38.17.71.42.98.73.18.2.36.51.56.94s.35.82.44,1.17c.13.5.19,1.1.19,1.78Zm-.74.1c0-.7-.1-1.35-.29-1.95-.2-.6-.42-1.08-.66-1.44-.15-.21-.34-.38-.57-.53-.33-.21-.71-.31-1.12-.31-.83,0-1.47.42-1.94,1.27s-.7,1.83-.7,2.95v1.63c0,.7.1,1.35.29,1.95s.42,1.08.67,1.44c.14.2.33.37.56.52.33.21.71.32,1.13.32.82,0,1.46-.42,1.93-1.27s.7-1.83.7-2.96v-1.63Z" fill="#333e48" stroke-width="0"/><path d="m211.3,559.07h-9.82c-.18,0-.3-.03-.38-.1-.08-.07-.11-.16-.11-.27s.04-.2.11-.27.2-.1.38-.1h9.82c.18,0,.31.03.38.1s.11.16.11.27-.04.2-.11.27c-.07.07-.2.1-.38.1Z" fill="#333e48" stroke-width="0"/><path d="m220.58,547.72v1.83c0,1.59-.38,2.84-1.13,3.77-.59.73-1.34,1.09-2.24,1.09-.43,0-.84-.09-1.23-.26-.38-.17-.71-.41-.98-.72-.17-.19-.36-.5-.56-.93-.2-.43-.35-.82-.44-1.18-.13-.5-.2-1.09-.2-1.77v-1.83c0-1.59.38-2.85,1.13-3.78.59-.73,1.34-1.09,2.24-1.09.44,0,.85.09,1.23.26.38.17.71.42.98.73.18.2.36.51.56.94s.35.82.44,1.17c.13.5.19,1.1.19,1.78Zm-.74.1c0-.7-.1-1.35-.29-1.95-.2-.6-.42-1.08-.66-1.44-.15-.21-.34-.38-.57-.53-.33-.21-.71-.31-1.12-.31-.83,0-1.47.42-1.94,1.27s-.7,1.83-.7,2.95v1.63c0,.7.1,1.35.29,1.95s.42,1.08.67,1.44c.14.2.33.37.56.52.33.21.71.32,1.13.32.82,0,1.46-.42,1.93-1.27s.7-1.83.7-2.96v-1.63Z" fill="#333e48" stroke-width="0"/><path d="m231.38,547.72v1.83c0,1.59-.38,2.84-1.13,3.77-.59.73-1.34,1.09-2.24,1.09-.43,0-.84-.09-1.23-.26-.38-.17-.71-.41-.98-.72-.17-.19-.36-.5-.56-.93-.2-.43-.35-.82-.44-1.18-.13-.5-.2-1.09-.2-1.77v-1.83c0-1.59.38-2.85,1.13-3.78.59-.73,1.34-1.09,2.24-1.09.44,0,.85.09,1.23.26.38.17.71.42.98.73.18.2.36.51.56.94s.35.82.44,1.17c.13.5.19,1.1.19,1.78Zm-.74.1c0-.7-.1-1.35-.29-1.95-.2-.6-.42-1.08-.66-1.44-.15-.21-.34-.38-.57-.53-.33-.21-.71-.31-1.12-.31-.83,0-1.47.42-1.94,1.27s-.7,1.83-.7,2.95v1.63c0,.7.1,1.35.29,1.95s.42,1.08.67,1.44c.14.2.33.37.56.52.33.21.71.32,1.13.32.82,0,1.46-.42,1.93-1.27s.7-1.83.7-2.96v-1.63Z" fill="#333e48" stroke-width="0"/><path d="m242.19,547.72v1.83c0,1.59-.38,2.84-1.13,3.77-.59.73-1.34,1.09-2.24,1.09-.43,0-.84-.09-1.23-.26-.38-.17-.71-.41-.98-.72-.17-.19-.36-.5-.56-.93-.2-.43-.35-.82-.44-1.18-.13-.5-.2-1.09-.2-1.77v-1.83c0-1.59.38-2.85,1.13-3.78.59-.73,1.34-1.09,2.24-1.09.44,0,.85.09,1.23.26.38.17.71.42.98.73.18.2.36.51.56.94s.35.82.44,1.17c.13.5.19,1.1.19,1.78Zm-.74.1c0-.7-.1-1.35-.29-1.95-.2-.6-.42-1.08-.66-1.44-.15-.21-.34-.38-.57-.53-.33-.21-.71-.31-1.12-.31-.83,0-1.47.42-1.94,1.27s-.7,1.83-.7,2.95v1.63c0,.7.1,1.35.29,1.95s.42,1.08.67,1.44c.14.2.33.37.56.52.33.21.71.32,1.13.32.82,0,1.46-.42,1.93-1.27s.7-1.83.7-2.96v-1.63Z" fill="#333e48" stroke-width="0"/><path d="m252.99,547.72v1.83c0,1.59-.38,2.84-1.13,3.77-.59.73-1.34,1.09-2.24,1.09-.43,0-.84-.09-1.23-.26-.38-.17-.71-.41-.98-.72-.17-.19-.36-.5-.56-.93-.2-.43-.35-.82-.44-1.18-.13-.5-.2-1.09-.2-1.77v-1.83c0-1.59.38-2.85,1.13-3.78.59-.73,1.34-1.09,2.24-1.09.44,0,.85.09,1.23.26.38.17.71.42.98.73.18.2.36.51.56.94s.35.82.44,1.17c.13.5.19,1.1.19,1.78Zm-.74.1c0-.7-.1-1.35-.29-1.95-.2-.6-.42-1.08-.66-1.44-.15-.21-.34-.38-.57-.53-.33-.21-.71-.31-1.12-.31-.83,0-1.47.42-1.94,1.27s-.7,1.83-.7,2.95v1.63c0,.7.1,1.35.29,1.95s.42,1.08.67,1.44c.14.2.33.37.56.52.33.21.71.32,1.13.32.82,0,1.46-.42,1.93-1.27s.7-1.83.7-2.96v-1.63Z" fill="#333e48" stroke-width="0"/><rect x="285" y="450" width="180" height="90" fill="#fff" stroke-width="0"/><path d="m338.69,501.19c.52,0,.98-.09,1.39-.26.41-.17.75-.42,1.04-.73.28-.32.5-.69.65-1.12.15-.44.22-.92.22-1.44v-7.82h1.91v7.82c0,.76-.12,1.45-.36,2.1-.24.64-.58,1.2-1.03,1.67-.45.47-1,.83-1.64,1.1-.64.26-1.37.4-2.17.4s-1.53-.13-2.17-.4-1.19-.63-1.64-1.1-.79-1.02-1.04-1.67c-.24-.64-.36-1.34-.36-2.1v-7.82h1.92v7.81c0,.53.07,1.01.22,1.45.15.44.36.81.64,1.13.28.31.63.56,1.04.73s.87.26,1.39.26Z" fill="#333e48" stroke-width="0"/><path d="m351.53,495.16c-.05.08-.1.13-.15.17-.05.03-.12.05-.21.05-.1,0-.2-.03-.32-.1-.12-.07-.26-.14-.42-.22s-.36-.15-.58-.22c-.22-.07-.49-.1-.79-.1-.25,0-.48.03-.69.09-.21.06-.38.15-.53.26-.14.11-.25.24-.33.4-.08.15-.12.32-.12.49,0,.23.07.42.2.57.13.15.31.28.53.39.22.11.47.21.75.29.28.09.56.18.85.27s.58.21.86.33c.28.12.53.28.75.46.22.18.4.4.53.66.14.26.2.57.2.95,0,.43-.08.82-.23,1.18-.15.36-.38.68-.67.94-.3.26-.67.47-1.1.62-.44.15-.94.22-1.5.22-.63,0-1.21-.1-1.75-.31-.53-.21-.98-.48-1.34-.8l.41-.68c.05-.08.11-.15.18-.19.07-.04.17-.07.29-.07.11,0,.23.04.35.13s.26.18.43.27c.17.1.37.19.61.27s.54.12.9.12c.3,0,.56-.04.78-.11.22-.08.41-.18.55-.31.15-.13.26-.28.33-.45.07-.17.11-.34.11-.53,0-.24-.07-.44-.2-.6s-.31-.3-.53-.41c-.22-.11-.47-.21-.75-.3-.28-.08-.57-.17-.86-.27s-.58-.21-.86-.33-.53-.29-.75-.48c-.22-.19-.4-.43-.53-.7-.13-.28-.2-.61-.2-1.01,0-.35.07-.69.22-1.02.15-.32.36-.61.64-.85.28-.25.62-.44,1.03-.59s.88-.22,1.41-.22c.61,0,1.15.1,1.64.29.49.19.91.46,1.25.79l-.39.64Z" fill="#333e48" stroke-width="0"/><path d="m361.47,501.43c-.22.25-.46.47-.75.65-.28.18-.58.33-.9.45s-.65.2-.99.25-.67.08-1,.08c-.63,0-1.21-.11-1.75-.32s-1-.53-1.4-.94c-.39-.41-.7-.92-.92-1.53-.22-.61-.33-1.31-.33-2.1,0-.64.1-1.23.3-1.78.2-.55.48-1.03.85-1.44s.82-.73,1.35-.96c.53-.23,1.13-.35,1.8-.35.56,0,1.07.09,1.54.27.47.18.88.45,1.22.8.34.35.61.78.8,1.29.2.51.29,1.09.29,1.75,0,.27-.03.45-.09.54-.06.09-.17.14-.33.14h-5.99c.02.55.1,1.02.23,1.43.14.4.33.74.57,1.01.24.27.53.47.87.6s.71.2,1.12.2c.39,0,.73-.04,1.01-.13.29-.09.53-.19.74-.29.21-.1.38-.2.52-.29.14-.09.27-.13.37-.13.14,0,.25.05.33.16l.5.65Zm-1.45-4.28c0-.35-.05-.67-.15-.96s-.25-.55-.44-.77c-.19-.22-.43-.38-.7-.5s-.59-.18-.95-.18c-.74,0-1.32.21-1.74.64-.42.43-.69,1.02-.81,1.77h4.79Z" fill="#333e48" stroke-width="0"/><path d="m365.15,495.34c.29-.6.65-1.07,1.06-1.41s.91-.51,1.49-.51c.2,0,.38.02.56.07.18.04.33.11.46.2l-.12,1.32c-.04.16-.14.24-.3.24-.08,0-.21-.02-.38-.05s-.35-.05-.54-.05c-.28,0-.53.04-.75.12-.22.08-.41.2-.58.36s-.32.35-.45.58c-.13.23-.26.49-.37.79v5.72h-1.75v-9.14h1.01c.19,0,.32.03.39.1s.12.19.15.36l.11,1.29Z" fill="#333e48" stroke-width="0"/><path d="m379.65,495.16c-.05.08-.1.13-.15.17-.05.03-.12.05-.21.05-.1,0-.2-.03-.32-.1-.12-.07-.26-.14-.42-.22s-.36-.15-.58-.22c-.22-.07-.49-.1-.79-.1-.25,0-.48.03-.69.09-.21.06-.38.15-.53.26-.14.11-.25.24-.33.4-.08.15-.12.32-.12.49,0,.23.07.42.2.57.13.15.31.28.53.39.22.11.47.21.75.29.28.09.56.18.85.27s.58.21.86.33c.28.12.53.28.75.46.22.18.4.4.53.66.14.26.2.57.2.95,0,.43-.08.82-.23,1.18-.15.36-.38.68-.67.94-.3.26-.67.47-1.1.62-.44.15-.94.22-1.5.22-.63,0-1.21-.1-1.75-.31-.53-.21-.98-.48-1.34-.8l.41-.68c.05-.08.11-.15.18-.19.07-.04.17-.07.29-.07.11,0,.23.04.35.13s.26.18.43.27c.17.1.37.19.61.27s.54.12.9.12c.3,0,.56-.04.78-.11.22-.08.41-.18.55-.31.15-.13.26-.28.33-.45.07-.17.11-.34.11-.53,0-.24-.07-.44-.2-.6s-.31-.3-.53-.41c-.22-.11-.47-.21-.75-.3-.28-.08-.57-.17-.86-.27s-.58-.21-.86-.33-.53-.29-.75-.48c-.22-.19-.4-.43-.53-.7-.13-.28-.2-.61-.2-1.01,0-.35.07-.69.22-1.02.15-.32.36-.61.64-.85.28-.25.62-.44,1.03-.59s.88-.22,1.41-.22c.61,0,1.15.1,1.64.29.49.19.91.46,1.25.79l-.39.64Z" fill="#333e48" stroke-width="0"/><path d="m383.74,494.95c.19-.23.4-.44.62-.62.22-.19.45-.35.71-.49s.52-.24.81-.31.59-.11.91-.11c.52,0,.99.1,1.42.31s.78.5,1.08.9c.3.4.53.89.7,1.47s.25,1.25.25,2.01c0,.68-.09,1.31-.27,1.89-.18.58-.44,1.08-.78,1.51-.34.43-.75.76-1.24,1-.49.24-1.04.36-1.65.36-.55,0-1.01-.09-1.4-.27-.39-.18-.74-.43-1.04-.76v3.97h-1.75v-12.21h1.05c.25,0,.4.12.46.35l.15,1.02Zm.09,5.53c.29.38.6.64.93.79.33.15.71.22,1.12.22.8,0,1.43-.29,1.87-.87.44-.58.66-1.42.66-2.53,0-.58-.05-1.08-.15-1.49-.1-.41-.24-.75-.43-1.01-.19-.26-.42-.45-.7-.58-.28-.12-.59-.18-.94-.18-.51,0-.95.11-1.33.34-.38.23-.72.55-1.04.97v4.33Z" fill="#333e48" stroke-width="0"/><path d="m391.97,494.86c.51-.49,1.06-.85,1.66-1.09.6-.24,1.25-.36,1.97-.36.52,0,.98.09,1.39.26.4.17.74.41,1.02.72.28.31.48.67.62,1.1s.21.9.21,1.41v5.83h-.78c-.17,0-.31-.03-.4-.09-.09-.06-.16-.16-.22-.32l-.19-.8c-.23.22-.46.41-.69.57-.23.17-.47.31-.72.42-.25.12-.51.21-.8.27-.28.06-.59.09-.94.09s-.7-.05-1.01-.15c-.32-.1-.59-.25-.82-.45-.23-.2-.42-.46-.55-.76-.14-.31-.2-.66-.2-1.07,0-.36.1-.71.29-1.04.19-.33.51-.63.95-.9.44-.26,1.02-.48,1.73-.65s1.59-.26,2.62-.29v-.67c0-.69-.15-1.21-.44-1.55s-.73-.51-1.3-.51c-.38,0-.71.05-.97.14s-.49.2-.67.32c-.19.12-.35.22-.5.32-.14.1-.29.14-.44.14-.12,0-.22-.03-.31-.1-.09-.07-.16-.14-.21-.23l-.32-.57Zm5.15,3.81c-.71.02-1.32.08-1.82.17s-.9.2-1.21.35c-.31.14-.54.31-.67.51-.14.19-.21.41-.21.65,0,.23.04.42.11.59s.18.3.31.41c.13.11.28.18.46.23.17.05.36.07.57.07.27,0,.52-.03.74-.08.23-.05.44-.13.63-.23s.39-.22.57-.36c.18-.14.36-.31.53-.5v-1.8Z" fill="#333e48" stroke-width="0"/><path d="m407.6,495.3c-.05.07-.11.12-.16.16s-.12.06-.22.06-.2-.04-.3-.11c-.11-.08-.24-.16-.4-.24s-.35-.17-.58-.24c-.22-.08-.5-.11-.83-.11-.43,0-.81.08-1.14.23-.33.16-.6.38-.82.67s-.39.64-.5,1.05c-.11.41-.17.88-.17,1.39s.06,1.01.18,1.43.29.77.51,1.05.49.5.81.65c.32.15.67.22,1.06.22s.69-.05.94-.14c.25-.09.45-.19.61-.3.16-.11.3-.21.41-.3s.22-.14.33-.14c.14,0,.25.05.33.16l.5.65c-.21.26-.45.48-.71.66-.26.18-.54.33-.83.44s-.6.2-.92.25c-.32.05-.65.08-.98.08-.57,0-1.1-.11-1.6-.32s-.92-.52-1.29-.92c-.36-.4-.65-.9-.86-1.48-.21-.58-.32-1.25-.32-1.99,0-.68.09-1.3.28-1.88.19-.58.47-1.07.84-1.49.37-.42.82-.74,1.36-.98s1.16-.36,1.85-.36c.65,0,1.23.11,1.73.32s.94.51,1.33.89l-.47.65Z" fill="#333e48" stroke-width="0"/><path d="m417.15,501.43c-.22.25-.46.47-.75.65-.28.18-.58.33-.9.45s-.65.2-.99.25-.67.08-1,.08c-.63,0-1.21-.11-1.75-.32s-1-.53-1.4-.94c-.39-.41-.7-.92-.92-1.53-.22-.61-.33-1.31-.33-2.1,0-.64.1-1.23.3-1.78.2-.55.48-1.03.85-1.44s.82-.73,1.35-.96c.53-.23,1.13-.35,1.8-.35.56,0,1.07.09,1.54.27.47.18.88.45,1.22.8.34.35.61.78.8,1.29.2.51.29,1.09.29,1.75,0,.27-.03.45-.09.54-.06.09-.17.14-.33.14h-5.99c.02.55.1,1.02.23,1.43.14.4.33.74.57,1.01.24.27.53.47.87.6s.71.2,1.12.2c.39,0,.73-.04,1.01-.13.29-.09.53-.19.74-.29.21-.1.38-.2.52-.29.14-.09.27-.13.37-.13.14,0,.25.05.33.16l.5.65Zm-1.45-4.28c0-.35-.05-.67-.15-.96s-.25-.55-.44-.77c-.19-.22-.43-.38-.7-.5s-.59-.18-.95-.18c-.74,0-1.32.21-1.74.64-.42.43-.69,1.02-.81,1.77h4.79Z" fill="#333e48" stroke-width="0"/></svg>