<svg xmlns="http://www.w3.org/2000/svg" id="Layer_1" width="1155" height="930" viewBox="0 0 1155 930">
  <rect x="255" y="300" width="180" height="240" fill="#e5eceb"/>
  <rect x="270" y="315" width="150" height="30" fill="#fff"/>
  <text transform="translate(324.21 336.64)" fill="#333e48" font-family="Lato" font-size="18" font-weight="500"><tspan x="0" y="0" letter-spacing="-.11em">T</tspan><tspan x="8.64" y="0">able</tspan></text>
  <rect x="270" y="360" width="150" height="30" fill="#fff"/>
  <rect x="270" y="405" width="150" height="30" fill="#fff"/>
  <text transform="translate(323.03 426.64)" fill="#333e48" font-family="Lato" font-size="18" font-weight="500"><tspan x="0" y="0" letter-spacing="0em">B</tspan><tspan x="11.52" y="0">lock</tspan></text>
  <rect x="270" y="450" width="150" height="30" fill="#fff"/>
  <rect x="270" y="495" width="150" height="30" fill="#fff"/>
  <text transform="translate(324.21 516.64)" fill="#333e48" font-family="Lato" font-size="18" font-weight="500"><tspan x="0" y="0" letter-spacing="-.11em">T</tspan><tspan x="8.64" y="0">able</tspan></text>
  <rect x="495" y="60" width="180" height="330" fill="#e5eceb"/>
  <rect x="510" y="165" width="150" height="30" fill="#fff"/>
  <rect x="510" y="210" width="150" height="30" fill="#fff"/>
  <rect x="510" y="75" width="150" height="30" fill="#fff"/>
  <rect x="510" y="120" width="150" height="30" fill="#fff"/>
  <rect x="510" y="255" width="150" height="30" fill="#fff"/>
  <rect x="510" y="300" width="150" height="30" fill="#fff"/>
  <rect x="510" y="345" width="150" height="30" fill="#fff"/>
  <text transform="translate(563.03 366.64)" fill="#333e48" font-family="Lato" font-size="18" font-weight="500"><tspan x="0" y="0" letter-spacing="0em">B</tspan><tspan x="11.52" y="0">lock</tspan></text>
  <rect x="495" y="450" width="180" height="330" fill="#e5eceb"/>
  <rect x="510" y="465" width="150" height="30" fill="#fff"/>
  <text transform="translate(564.21 486.64)" fill="#333e48" font-family="Lato" font-size="18" font-weight="500"><tspan x="0" y="0" letter-spacing="-.11em">T</tspan><tspan x="8.64" y="0">able</tspan></text>
  <text transform="translate(534.26 809.14)" fill="#333e48" font-family="Lato" font-size="18" font-weight="500"><tspan x="0" y="0" letter-spacing="-.03em">L</tspan><tspan x="8.67" y="0" letter-spacing="-.01em">e</tspan><tspan x="17.99" y="0" letter-spacing="-.01em">v</tspan><tspan x="27.07" y="0">el 2</tspan><tspan x="55.89" y="0" letter-spacing="-.03em"> </tspan><tspan x="59.89" y="0" letter-spacing="-.11em">T</tspan><tspan x="68.53" y="0">able</tspan></text>
  <text transform="translate(535.05 44.14)" fill="#333e48" font-family="Lato" font-size="18" font-weight="500"><tspan x="0" y="0" letter-spacing="-.03em">L</tspan><tspan x="8.67" y="0" letter-spacing="-.01em">e</tspan><tspan x="17.99" y="0" letter-spacing="-.01em">v</tspan><tspan x="27.07" y="0">el 2 table</tspan></text>
  <text transform="translate(759.26 899.14)" fill="#333e48" font-family="Lato" font-size="18" font-weight="500"><tspan x="0" y="0" letter-spacing="-.03em">L</tspan><tspan x="8.67" y="0" letter-spacing="-.01em">e</tspan><tspan x="17.99" y="0" letter-spacing="-.01em">v</tspan><tspan x="27.07" y="0">el 3</tspan><tspan x="55.89" y="0" letter-spacing="-.03em"> </tspan><tspan x="59.89" y="0" letter-spacing="-.11em">T</tspan><tspan x="68.53" y="0">able</tspan></text>
  <rect x="510" y="510" width="150" height="30" fill="#fff"/>
  <rect x="510" y="555" width="150" height="30" fill="#fff"/>
  <rect x="510" y="600" width="150" height="30" fill="#fff"/>
  <rect x="510" y="645" width="150" height="30" fill="#fff"/>
  <rect x="510" y="690" width="150" height="30" fill="#fff"/>
  <rect x="510" y="735" width="150" height="30" fill="#fff"/>
  <rect x="720" y="450" width="180" height="420" fill="#e5eceb"/>
  <rect x="735" y="465" width="150" height="30" fill="#fff"/>
  <text transform="translate(788.03 486.64)" fill="#333e48" font-family="Lato" font-size="18" font-weight="500"><tspan x="0" y="0" letter-spacing="0em">B</tspan><tspan x="11.52" y="0">lock</tspan></text>
  <rect x="735" y="510" width="150" height="30" fill="#fff"/>
  <rect x="735" y="555" width="150" height="30" fill="#fff"/>
  <rect x="735" y="600" width="150" height="30" fill="#fff"/>
  <rect x="735" y="645" width="150" height="30" fill="#fff"/>
  <rect x="735" y="690" width="150" height="30" fill="#fff"/>
  <rect x="735" y="735" width="150" height="30" fill="#fff"/>
  <rect x="735" y="780" width="150" height="30" fill="#fff"/>
  <rect x="735" y="825" width="150" height="30" fill="#fff"/>
  <rect x="30" y="240" width="180" height="360" fill="#0091bd"/>
  <rect x="45" y="255" width="150" height="30" fill="#fff"/>
  <rect x="45" y="330" width="150" height="180" fill="#fff"/>
  <rect x="45" y="555" width="150" height="30" fill="#fff"/>
  <rect x="945" y="240" width="180" height="360" fill="#ffc500"/>
  <rect x="960" y="255" width="150" height="30" fill="#fff"/>
  <rect x="960" y="330" width="150" height="180" fill="#fff"/>
  <rect x="960" y="555" width="150" height="30" fill="#fff"/>
  <text transform="translate(33.98 224.14)" fill="#333e48" font-family="Lato" font-size="18" font-weight="500"><tspan x="0" y="0">Virtual</tspan><tspan x="53.12" y="0" letter-spacing="-.03em"> </tspan><tspan x="57.06" y="0" letter-spacing="-.01em">A</tspan><tspan x="69.13" y="0">dd</tspan><tspan x="89.36" y="0" letter-spacing="-.02em">r</tspan><tspan x="95.61" y="0">ess </tspan><tspan x="125.33" y="0" letter-spacing="-.01em">S</tspan><tspan x="134.94" y="0">pa</tspan><tspan x="154.05" y="0" letter-spacing="0em">c</tspan><tspan x="162.5" y="0">e</tspan></text>
  <text transform="translate(943.56 224.14)" fill="#333e48" font-family="Lato" font-size="18" font-weight="500"><tspan x="0" y="0" letter-spacing="0em">P</tspan><tspan x="10.84" y="0" letter-spacing="-.01em">h</tspan><tspan x="20.68" y="0" letter-spacing="0em">y</tspan><tspan x="29.85" y="0">sical</tspan><tspan x="63.96" y="0" letter-spacing="-.03em"> </tspan><tspan x="67.91" y="0" letter-spacing="-.01em">A</tspan><tspan x="79.97" y="0">dd</tspan><tspan x="100.21" y="0" letter-spacing="-.02em">r</tspan><tspan x="106.46" y="0">ess </tspan><tspan x="136.18" y="0" letter-spacing="-.01em">S</tspan><tspan x="145.78" y="0">pa</tspan><tspan x="164.9" y="0" letter-spacing="0em">c</tspan><tspan x="173.35" y="0">e</tspan></text>
  <g>
    <line x1="210" y1="420" x2="249.26" y2="420" fill="none" stroke="#333e48" stroke-miterlimit="10"/>
    <polygon points="248.09 423.99 255 420 248.09 416.01 248.09 423.99" fill="#333e48"/>
  </g>
  <g>
    <line x1="435" y1="420.5" x2="939.26" y2="420.5" fill="none" stroke="#333e48" stroke-miterlimit="10"/>
    <polygon points="938.09 424.49 945 420.5 938.09 416.51 938.09 424.49" fill="#333e48"/>
  </g>
  <g>
    <polyline points="210 270 239.5 270 239.5 330 249.26 330" fill="none" stroke="#333e48" stroke-miterlimit="10"/>
    <polygon points="248.09 333.99 255 330 248.09 326.01 248.09 333.99" fill="#333e48"/>
  </g>
  <g>
    <polyline points="210 570 240.5 570 240.5 510 249.26 510" fill="none" stroke="#333e48" stroke-miterlimit="10"/>
    <polygon points="248.09 513.99 255 510 248.09 506.01 248.09 513.99" fill="#333e48"/>
  </g>
  <g>
    <polyline points="435 510 465 510 465 750 489.26 750" fill="none" stroke="#333e48" stroke-miterlimit="10"/>
    <polygon points="488.09 753.99 495 750 488.09 746.01 488.09 753.99" fill="#333e48"/>
  </g>
  <g>
    <polyline points="435 330 465 330 465 360 489.26 360" fill="none" stroke="#333e48" stroke-miterlimit="10"/>
    <polygon points="488.09 363.99 495 360 488.09 356.01 488.09 363.99" fill="#333e48"/>
  </g>
  <g>
    <polyline points="675 480 705.5 480 705.5 840 714.26 840" fill="none" stroke="#333e48" stroke-miterlimit="10"/>
    <polygon points="713.09 843.99 720 840 713.09 836.01 713.09 843.99" fill="#333e48"/>
  </g>
  <g>
    <polyline points="900 480 930.5 480 930.5 570 939.26 570" fill="none" stroke="#333e48" stroke-miterlimit="10"/>
    <polygon points="938.09 573.99 945 570 938.09 566.01 938.09 573.99" fill="#333e48"/>
  </g>
  <g>
    <polyline points="675 360.5 915 360 915 270 940.26 270" fill="none" stroke="#333e48" stroke-miterlimit="10"/>
    <polygon points="939.09 273.99 946 270 939.09 266.01 939.09 273.99" fill="#333e48"/>
  </g>
</svg>