<svg xmlns="http://www.w3.org/2000/svg" id="Diagrams" width="390mm" height="110mm" viewBox="0 0 1105.51 311.81"><defs><style>.cls-1{font-family:Lato-Regular, Lato;}.cls-1,.cls-2,.cls-3{fill:#333e48;}.cls-1,.cls-3{font-size:18px;}.cls-4{fill:#e5eceb;}.cls-4,.cls-5,.cls-6{stroke-miterlimit:10;}.cls-4,.cls-6{stroke:#333e48;}.cls-5{stroke:#002b49;}.cls-5,.cls-6{fill:none;}.cls-3{font-family:CourierNewPSMT, 'Courier New';}</style></defs><text class="cls-3" transform="translate(121.83 39.38)"><tspan x="0" y="0">ICH_VMCR_EL2</tspan></text><line class="cls-6" x1="113" y1="170.4" x2="216.06" y2="103.38"/><polygon class="cls-2" points="221.21 99.68 212.95 100.66 217.93 107.33 221.21 99.68"/><text class="cls-3" transform="translate(54.22 187.78)"><tspan x="0" y="0">ICV_PMR_EL1</tspan></text><rect class="cls-5" x="28.33" y="170.35" width="170.09" height="28.35"/><rect class="cls-6" x="113.54" y="56.69" width="212.6" height="42.52"/><rect class="cls-6" x="325.61" y="56.69" width="85.04" height="42.52"/><rect class="cls-6" x="410.61" y="56.69" width="85.04" height="42.52"/><rect class="cls-4" x="496.06" y="56.69" width="113.39" height="42.52"/><rect class="cls-6" x="609.45" y="56.69" width="28.35" height="42.52"/><rect class="cls-4" x="637.8" y="56.69" width="85.04" height="42.52"/><rect class="cls-6" x="722.83" y="56.69" width="28.35" height="42.52"/><rect class="cls-5" x="751.18" y="56.69" width="28.35" height="42.52"/><rect class="cls-6" x="779.53" y="56.69" width="28.35" height="42.52"/><rect class="cls-6" x="807.87" y="56.69" width="28.35" height="42.52"/><rect class="cls-6" x="836.22" y="56.69" width="28.35" height="42.52"/><text class="cls-1" transform="translate(201.11 84.14)"><tspan x="0" y="0">VPMR</tspan></text><text class="cls-1" transform="translate(339.96 84.07)"><tspan x="0" y="0">VBPR0</tspan></text><text class="cls-1" transform="translate(424.95 84.89)"><tspan x="0" y="0">VBPR1</tspan></text><text class="cls-3" transform="translate(190.2 230.06)"><tspan x="0" y="0">ICV_BPR0_EL1</tspan></text><rect class="cls-5" x="169.7" y="212.63" width="170.09" height="28.35"/><text class="cls-3" transform="translate(332.29 187.51)"><tspan x="0" y="0">ICV_BPR1_EL1</tspan></text><rect class="cls-5" x="311.8" y="170.08" width="170.09" height="28.35"/><text class="cls-3" transform="translate(466 230.27)"><tspan x="0" y="0">ICV_CTLR_EL1.EOImode</tspan></text><rect class="cls-5" x="453.55" y="212.85" width="240.94" height="28.35"/><text class="cls-3" transform="translate(623.14 272.82)"><tspan x="0" y="0">ICV_CTLR_EL1.CBPR</tspan></text><rect class="cls-5" x="594.48" y="255.39" width="240.94" height="28.35"/><text class="cls-3" transform="translate(754.23 230.18)"><tspan x="0" y="0">ICV_IGRPEN1_EL1</tspan></text><rect class="cls-5" x="737.01" y="212.75" width="198.43" height="28.35"/><text class="cls-3" transform="translate(896.65 187.57)"><tspan x="0" y="0">ICV_IGRPEN0_EL1</tspan></text><rect class="cls-5" x="878.74" y="170.14" width="198.43" height="28.35"/><line class="cls-6" x1="254.97" y1="212.53" x2="364.62" y2="104.19"/><polygon class="cls-2" points="368.65 99.64 360.82 102.45 367.17 107.83 368.65 99.64"/><line class="cls-6" x1="395.25" y1="170.2" x2="449.88" y2="104.33"/><polygon class="cls-2" points="453.67 99.51 445.96 102.66 452.54 107.76 453.67 99.51"/><line class="cls-6" x1="572.62" y1="212.63" x2="621.02" y2="105.69"/><polygon class="cls-2" points="623.61 99.76 616.96 104.76 624.62 108.02 623.61 99.76"/><line class="cls-6" x1="715.16" y1="255.15" x2="735.87" y2="106.31"/><polygon class="cls-2" points="737.01 99.76 731.73 106.19 739.94 107.55 737.01 99.76"/><line class="cls-6" x1="836.22" y1="212.63" x2="823.09" y2="106.04"/><line class="cls-6" x1="978.06" y1="170.04" x2="855.87" y2="103.97"/><polygon class="cls-2" points="822.09 99.72 818.96 107.43 827.21 106.28 822.09 99.72"/><polygon class="cls-2" points="850.43 99.8 853.39 107.58 858.65 101.12 850.43 99.8"/></svg>