<svg xmlns="http://www.w3.org/2000/svg" id="Layer_1" viewBox="0 0 735 495">
  <rect x="60" y="90" width="165" height="375" fill="#0091bd"/>
  <rect x="540" y="195" width="165" height="270" fill="#ffc700"/>
  <rect x="300" y="255" width="165" height="90" fill="#7d868c"/>
  <rect x="315" y="270" width="135" height="60" fill="#fff"/>
  <rect x="75" y="105" width="135" height="30" fill="#fff"/>
  <rect x="75" y="150" width="135" height="30" fill="#fff"/>
  <rect x="75" y="195" width="135" height="30" fill="#fff"/>
  <rect x="75" y="255" width="135" height="90" fill="#fff"/>
  <rect x="75" y="360" width="135" height="90" fill="#fff"/>
  <text transform="translate(339.27 296.93)" fill="#333e48" font-family="Lato-Medium, Lato" font-size="18" font-weight="500"><tspan x="0" y="0" letter-spacing="-.11em">T</tspan><tspan x="8.74" y="0" letter-spacing="0em">r</tspan><tspan x="15.19" y="0">ansl</tspan><tspan x="46.38" y="0" letter-spacing="0em">a</tspan><tspan x="55.25" y="0">tion </tspan><tspan x="18.53" y="21.6" letter-spacing="-.11em">T</tspan><tspan x="27.17" y="21.6">ables</tspan></text>
  <text transform="translate(97.57 296.93)" fill="#333e48" font-family="Lato-Medium, Lato" font-size="18" font-weight="500"><tspan x="0" y="0" letter-spacing="0em">A</tspan><tspan x="12.23" y="0">pplic</tspan><tspan x="49.78" y="0" letter-spacing="0em">a</tspan><tspan x="58.65" y="0">tion </tspan><tspan x="26.01" y="21.6" letter-spacing="-.01em">D</tspan><tspan x="39.47" y="21.6" letter-spacing="0em">a</tspan><tspan x="48.34" y="21.6">ta</tspan></text>
  <text transform="translate(97.57 401.93)" fill="#333e48" font-family="Lato-Medium, Lato" font-size="18" font-weight="500"><tspan x="0" y="0" letter-spacing="0em">A</tspan><tspan x="12.23" y="0">pplic</tspan><tspan x="49.78" y="0" letter-spacing="0em">a</tspan><tspan x="58.65" y="0">tion </tspan><tspan x="24.08" y="21.6" letter-spacing="0em">C</tspan><tspan x="35.9" y="21.6">ode</tspan></text>
  <rect x="555" y="210" width="135" height="60" fill="#fff"/>
  <text transform="translate(603.14 247.73)" fill="#333e48" font-family="Lato-Medium, Lato" font-size="18" font-weight="500"><tspan x="0" y="0">DDR</tspan></text>
  <text transform="translate(98.38 127.73)" fill="#333e48" font-family="Lato-Medium, Lato" font-size="18" font-weight="500"><tspan x="0" y="0" letter-spacing="-.03em">P</tspan><tspan x="10.43" y="0">eriphe</tspan><tspan x="60.67" y="0" letter-spacing="0em">r</tspan><tspan x="67.12" y="0">als</tspan></text>
  <rect x="555" y="285" width="135" height="30" fill="#fff"/>
  <text transform="translate(578.38 307.73)" fill="#333e48" font-family="Lato-Medium, Lato" font-size="18" font-weight="500"><tspan x="0" y="0" letter-spacing="-.03em">P</tspan><tspan x="10.43" y="0">eriphe</tspan><tspan x="60.67" y="0" letter-spacing="0em">r</tspan><tspan x="67.12" y="0">als</tspan></text>
  <rect x="555" y="330" width="135" height="30" fill="#fff"/>
  <text transform="translate(601.89 352.73)" fill="#333e48" font-family="Lato-Medium, Lato" font-size="18" font-weight="500"><tspan x="0" y="0" letter-spacing="0em">F</tspan><tspan x="10.03" y="0">lash</tspan></text>
  <rect x="555" y="375" width="135" height="30" fill="#fff"/>
  <text transform="translate(597.4 397.73)" fill="#333e48" font-family="Lato-Medium, Lato" font-size="18" font-weight="500"><tspan x="0" y="0">SRAM</tspan></text>
  <rect x="555" y="420" width="135" height="30" fill="#fff"/>
  <text transform="translate(601.28 442.73)" fill="#333e48" font-family="Lato-Medium, Lato" font-size="18" font-weight="500"><tspan x="0" y="0" letter-spacing="0em">R</tspan><tspan x="11.21" y="0">OM</tspan></text>
  <text transform="translate(56.48 49.43)" fill="#333e48" font-family="Lato-Medium, Lato" font-size="18" font-weight="500"><tspan x="0" y="0">Virtual</tspan><tspan x="53.12" y="0" letter-spacing="-.03em"> </tspan><tspan x="57.06" y="0" letter-spacing="-.01em">A</tspan><tspan x="69.13" y="0">dd</tspan><tspan x="89.36" y="0" letter-spacing="-.02em">r</tspan><tspan x="95.61" y="0">ess </tspan><tspan x="125.33" y="0" letter-spacing="-.01em">S</tspan><tspan x="134.94" y="0">pa</tspan><tspan x="154.05" y="0" letter-spacing="0em">c</tspan><tspan x="162.5" y="0">e</tspan><tspan x="-28.63" y="21.6">(</tspan><tspan x="-23.79" y="21.6" letter-spacing="-.01em">A</tspan><tspan x="-11.72" y="21.6" letter-spacing="0em">dd</tspan><tspan x="8.51" y="21.6" letter-spacing="-.02em">r</tspan><tspan x="14.76" y="21.6">esses seen </tspan><tspan x="103.34" y="21.6" letter-spacing="-.01em">b</tspan><tspan x="113.21" y="21.6" letter-spacing="-.02em">y</tspan><tspan x="122.1" y="21.6" xml:space="preserve"> s</tspan><tspan x="134.47" y="21.6" letter-spacing="-.01em">o</tspan><tspan x="144.5" y="21.6">ft</tspan><tspan x="157.36" y="21.6" letter-spacing="0em">w</tspan><tspan x="171.47" y="21.6">a</tspan><tspan x="180.46" y="21.6" letter-spacing="-.02em">r</tspan><tspan x="186.71" y="21.6" letter-spacing="-.02em">e</tspan><tspan x="195.83" y="21.6">)</tspan></text>
  <g>
    <path d="m596.03,141.51c.83,0,1.55.1,2.16.29.61.19,1.12.46,1.52.81.4.35.7.78.9,1.27.19.5.29,1.05.29,1.66s-.11,1.16-.32,1.67-.52.94-.93,1.31-.92.65-1.53.85-1.31.3-2.1.3h-2v4.76h-1.92v-12.92h3.92Zm0,6.65c.49,0,.91-.06,1.28-.19.37-.13.68-.3.93-.54.25-.23.44-.51.56-.83.13-.32.19-.68.19-1.07,0-.79-.24-1.4-.73-1.85s-1.23-.67-2.23-.67h-2v5.15h2Z" fill="#333e48"/>
    <path d="m604.34,146.45c.38-.39.81-.7,1.27-.94s1-.36,1.61-.36c.5,0,.95.08,1.33.25s.7.4.96.71c.26.3.45.67.58,1.09.13.43.2.9.2,1.41v5.82h-1.76v-5.82c0-.65-.15-1.16-.45-1.53-.3-.36-.76-.54-1.38-.54-.45,0-.87.11-1.26.32-.39.21-.76.5-1.09.87v6.71h-1.75v-13.28h1.75v5.3Z" fill="#333e48"/>
    <path d="m620.43,145.29l-5.08,11.8c-.05.13-.13.23-.22.31-.09.07-.22.11-.4.11h-1.3l1.67-3.65-3.75-8.57h1.53c.15,0,.27.04.35.11s.14.15.18.24l2.32,5.49c.05.14.09.28.14.42.04.14.08.28.11.42.04-.14.09-.29.13-.43s.1-.28.15-.42l2.24-5.48c.04-.1.11-.19.2-.25.09-.07.19-.1.31-.1h1.4Z" fill="#333e48"/>
    <path d="m627,146.86c-.05.08-.1.13-.15.17-.05.03-.12.05-.21.05-.1,0-.2-.03-.32-.1-.12-.07-.26-.14-.42-.22s-.36-.15-.58-.22c-.22-.07-.49-.1-.79-.1-.25,0-.48.03-.69.09-.21.06-.38.15-.53.26-.14.11-.25.24-.33.4-.08.15-.12.32-.12.49,0,.23.07.42.2.57.13.15.31.28.53.39.22.11.47.21.75.29.28.09.56.18.85.27s.58.21.86.33c.28.12.53.28.75.46.22.18.4.4.53.66.14.26.2.57.2.95,0,.43-.08.82-.23,1.18-.15.36-.38.68-.67.94-.3.26-.67.47-1.1.62-.44.15-.94.22-1.5.22-.63,0-1.21-.1-1.75-.31-.53-.21-.98-.48-1.34-.8l.41-.68c.05-.08.11-.15.18-.19.07-.04.17-.07.29-.07.11,0,.23.04.35.13s.26.18.43.27c.17.1.37.19.61.27s.54.12.9.12c.3,0,.56-.04.78-.11.22-.08.41-.18.55-.31.15-.13.26-.28.33-.45.07-.17.11-.34.11-.53,0-.24-.07-.44-.2-.6s-.31-.3-.53-.41c-.22-.11-.47-.21-.75-.3-.28-.08-.57-.17-.86-.27s-.58-.21-.86-.33-.53-.29-.75-.48c-.22-.19-.4-.43-.53-.7-.13-.28-.2-.61-.2-1.01,0-.35.07-.69.22-1.02.15-.32.36-.61.64-.85.28-.25.62-.44,1.03-.59s.88-.22,1.41-.22c.61,0,1.15.1,1.64.29.49.19.91.46,1.25.79l-.39.64Z" fill="#333e48"/>
    <path d="m631.6,142.46c0,.16-.03.32-.1.46-.07.15-.15.28-.27.39s-.24.2-.39.26c-.15.06-.31.09-.47.09s-.31-.03-.46-.09c-.14-.06-.27-.15-.38-.26s-.2-.24-.26-.39c-.06-.15-.09-.3-.09-.46s.03-.33.09-.47c.06-.15.15-.28.26-.39.11-.11.24-.2.38-.26.14-.06.3-.09.46-.09s.32.03.47.09c.15.06.28.15.39.26.11.11.2.24.27.39.07.15.1.3.1.47Zm-.33,2.83v9.14h-1.75v-9.14h1.75Z" fill="#333e48"/>
    <path d="m640.22,147c-.05.07-.11.12-.16.16s-.12.06-.22.06-.2-.04-.3-.11c-.11-.08-.24-.16-.4-.24s-.35-.17-.58-.24c-.22-.08-.5-.11-.83-.11-.43,0-.81.08-1.14.23-.33.16-.6.38-.82.67s-.39.64-.5,1.05c-.11.41-.17.88-.17,1.39s.06,1.01.18,1.43.29.77.51,1.05.49.5.81.65c.32.15.67.22,1.06.22s.69-.05.94-.14c.25-.09.45-.19.61-.3.16-.11.3-.21.41-.3s.22-.14.33-.14c.14,0,.25.05.33.16l.5.65c-.21.26-.45.48-.71.66-.26.18-.54.33-.83.44s-.6.2-.92.25c-.32.05-.65.08-.98.08-.57,0-1.1-.11-1.6-.32s-.92-.52-1.29-.92c-.36-.4-.65-.9-.86-1.48-.21-.58-.32-1.25-.32-1.99,0-.68.09-1.3.28-1.88.19-.58.47-1.07.84-1.49.37-.42.82-.74,1.36-.98s1.16-.36,1.85-.36c.65,0,1.23.11,1.73.32s.94.51,1.33.89l-.47.65Z" fill="#333e48"/>
    <path d="m642.19,146.56c.51-.49,1.06-.85,1.66-1.09.6-.24,1.25-.36,1.97-.36.52,0,.98.09,1.39.26.4.17.74.41,1.02.72.28.31.48.67.62,1.1s.21.9.21,1.41v5.83h-.78c-.17,0-.31-.03-.4-.09-.09-.06-.16-.16-.22-.32l-.19-.8c-.23.22-.46.41-.69.57-.23.17-.47.31-.72.42-.25.12-.51.21-.8.27-.28.06-.59.09-.94.09s-.7-.05-1.01-.15c-.32-.1-.59-.25-.82-.45-.23-.2-.42-.46-.55-.76-.14-.31-.2-.66-.2-1.07,0-.36.1-.71.29-1.04.19-.33.51-.63.95-.9.44-.26,1.02-.48,1.73-.65s1.59-.26,2.62-.29v-.67c0-.69-.15-1.21-.44-1.55s-.73-.51-1.3-.51c-.38,0-.71.05-.97.14s-.49.2-.67.32c-.19.12-.35.22-.5.32-.14.1-.29.14-.44.14-.12,0-.22-.03-.31-.1-.09-.07-.16-.14-.21-.23l-.32-.57Zm5.15,3.81c-.71.02-1.32.08-1.82.17s-.9.2-1.21.35c-.31.14-.54.31-.67.51-.14.19-.21.41-.21.65,0,.23.04.42.11.59s.18.3.31.41c.13.11.28.18.46.23.17.05.36.07.57.07.27,0,.52-.03.74-.08.23-.05.44-.13.63-.23s.39-.22.57-.36c.18-.14.36-.31.53-.5v-1.8Z" fill="#333e48"/>
    <path d="m653.21,141.15v13.28h-1.76v-13.28h1.76Z" fill="#333e48"/>
    <path d="m577.26,176.03h-1.48c-.17,0-.31-.04-.41-.13-.11-.08-.19-.19-.23-.32l-1.14-3h-5.7l-1.14,3c-.04.11-.12.22-.23.31-.11.09-.25.14-.41.14h-1.48l5.15-12.92h1.93l5.15,12.92Zm-3.79-4.82l-1.92-5.01c-.14-.34-.28-.77-.41-1.3-.07.26-.13.5-.2.72-.07.22-.14.42-.2.59l-1.91,4.99h4.64Z" fill="#333e48"/>
    <path d="m585.97,162.75v13.28h-1.06c-.25,0-.4-.12-.46-.35l-.15-1.05c-.39.46-.83.83-1.33,1.11-.5.28-1.07.42-1.71.42-.52,0-.99-.1-1.42-.31-.42-.2-.79-.5-1.08-.9-.3-.39-.53-.88-.69-1.46-.16-.58-.24-1.25-.24-2.01,0-.68.09-1.31.27-1.89.18-.58.44-1.09.78-1.51.34-.43.76-.76,1.24-1,.49-.24,1.04-.37,1.65-.37.55,0,1.02.09,1.41.27.39.18.73.43,1.04.76v-5h1.76Zm-1.76,6.35c-.29-.38-.6-.64-.93-.79-.33-.15-.71-.23-1.12-.23-.8,0-1.43.29-1.87.87-.44.58-.66,1.42-.66,2.53,0,.58.05,1.08.15,1.49.1.41.24.75.43,1.01.19.26.42.45.7.58.28.12.59.18.94.18.51,0,.95-.11,1.32-.34.37-.23.72-.55,1.04-.96v-4.34Z" fill="#333e48"/>
    <path d="m596.09,162.75v13.28h-1.06c-.25,0-.4-.12-.46-.35l-.15-1.05c-.39.46-.83.83-1.33,1.11-.5.28-1.07.42-1.71.42-.52,0-.99-.1-1.42-.31-.42-.2-.79-.5-1.08-.9-.3-.39-.53-.88-.69-1.46-.16-.58-.24-1.25-.24-2.01,0-.68.09-1.31.27-1.89.18-.58.44-1.09.78-1.51.34-.43.76-.76,1.24-1,.49-.24,1.04-.37,1.65-.37.55,0,1.02.09,1.41.27.39.18.73.43,1.04.76v-5h1.76Zm-1.76,6.35c-.29-.38-.6-.64-.93-.79-.33-.15-.71-.23-1.12-.23-.8,0-1.43.29-1.87.87-.44.58-.66,1.42-.66,2.53,0,.58.05,1.08.15,1.49.1.41.24.75.43,1.01.19.26.42.45.7.58.28.12.59.18.94.18.51,0,.95-.11,1.32-.34.37-.23.72-.55,1.04-.96v-4.34Z" fill="#333e48"/>
    <path d="m600.2,168.64c.29-.6.65-1.07,1.06-1.41s.91-.51,1.49-.51c.2,0,.38.02.56.07.18.04.33.11.46.2l-.12,1.32c-.04.16-.14.24-.3.24-.08,0-.21-.02-.38-.05s-.35-.05-.54-.05c-.28,0-.53.04-.75.12-.22.08-.41.2-.58.36s-.32.35-.45.58c-.13.23-.26.49-.37.79v5.72h-1.75v-9.14h1.01c.19,0,.32.03.39.1s.12.19.15.36l.11,1.29Z" fill="#333e48"/>
    <path d="m612.31,174.73c-.22.25-.46.47-.75.65-.28.18-.58.33-.9.45s-.65.2-.99.25-.67.08-1,.08c-.63,0-1.21-.11-1.75-.32s-1-.53-1.4-.94c-.39-.41-.7-.92-.92-1.53-.22-.61-.33-1.31-.33-2.1,0-.64.1-1.23.3-1.78.2-.55.48-1.03.85-1.44s.82-.73,1.35-.96c.53-.23,1.13-.35,1.8-.35.56,0,1.07.09,1.54.27.47.18.88.45,1.22.8.34.35.61.78.8,1.29.2.51.29,1.09.29,1.75,0,.27-.03.45-.09.54-.06.09-.17.14-.33.14h-5.99c.02.55.1,1.02.23,1.43.14.4.33.74.57,1.01.24.27.53.47.87.6s.71.2,1.12.2c.39,0,.73-.04,1.01-.13.29-.09.53-.19.74-.29.21-.1.38-.2.52-.29.14-.09.27-.13.37-.13.14,0,.25.05.33.16l.5.65Zm-1.45-4.28c0-.35-.05-.67-.15-.96s-.25-.55-.44-.77c-.19-.22-.43-.38-.7-.5s-.59-.18-.95-.18c-.74,0-1.32.21-1.74.64-.42.43-.69,1.02-.81,1.77h4.79Z" fill="#333e48"/>
    <path d="m619.72,168.46c-.05.08-.1.13-.15.17-.05.03-.12.05-.21.05-.1,0-.2-.03-.32-.1-.12-.07-.26-.14-.42-.22s-.36-.15-.58-.22c-.22-.07-.49-.1-.79-.1-.25,0-.48.03-.69.09-.21.06-.38.15-.53.26-.14.11-.25.24-.33.4-.08.15-.12.32-.12.49,0,.23.07.42.2.57.13.15.31.28.53.39.22.11.47.21.75.29.28.09.56.18.85.27s.58.21.86.33c.28.12.53.28.75.46.22.18.4.4.53.66.14.26.2.57.2.95,0,.43-.08.82-.23,1.18-.15.36-.38.68-.67.94-.3.26-.67.47-1.1.62-.44.15-.94.22-1.5.22-.63,0-1.21-.1-1.75-.31-.53-.21-.98-.48-1.34-.8l.41-.68c.05-.08.11-.15.18-.19.07-.04.17-.07.29-.07.11,0,.23.04.35.13s.26.18.43.27c.17.1.37.19.61.27s.54.12.9.12c.3,0,.56-.04.78-.11.22-.08.41-.18.55-.31.15-.13.26-.28.33-.45.07-.17.11-.34.11-.53,0-.24-.07-.44-.2-.6s-.31-.3-.53-.41c-.22-.11-.47-.21-.75-.3-.28-.08-.57-.17-.86-.27s-.58-.21-.86-.33-.53-.29-.75-.48c-.22-.19-.4-.43-.53-.7-.13-.28-.2-.61-.2-1.01,0-.35.07-.69.22-1.02.15-.32.36-.61.64-.85.28-.25.62-.44,1.03-.59s.88-.22,1.41-.22c.61,0,1.15.1,1.64.29.49.19.91.46,1.25.79l-.39.64Z" fill="#333e48"/>
    <path d="m627.54,168.46c-.05.08-.1.13-.15.17-.05.03-.12.05-.21.05-.1,0-.2-.03-.32-.1-.12-.07-.26-.14-.42-.22s-.36-.15-.58-.22c-.22-.07-.49-.1-.79-.1-.25,0-.48.03-.69.09-.21.06-.38.15-.53.26-.14.11-.25.24-.33.4-.08.15-.12.32-.12.49,0,.23.07.42.2.57.13.15.31.28.53.39.22.11.47.21.75.29.28.09.56.18.85.27s.58.21.86.33c.28.12.53.28.75.46.22.18.4.4.53.66.14.26.2.57.2.95,0,.43-.08.82-.23,1.18-.15.36-.38.68-.67.94-.3.26-.67.47-1.1.62-.44.15-.94.22-1.5.22-.63,0-1.21-.1-1.75-.31-.53-.21-.98-.48-1.34-.8l.41-.68c.05-.08.11-.15.18-.19.07-.04.17-.07.29-.07.11,0,.23.04.35.13s.26.18.43.27c.17.1.37.19.61.27s.54.12.9.12c.3,0,.56-.04.78-.11.22-.08.41-.18.55-.31.15-.13.26-.28.33-.45.07-.17.11-.34.11-.53,0-.24-.07-.44-.2-.6s-.31-.3-.53-.41c-.22-.11-.47-.21-.75-.3-.28-.08-.57-.17-.86-.27s-.58-.21-.86-.33-.53-.29-.75-.48c-.22-.19-.4-.43-.53-.7-.13-.28-.2-.61-.2-1.01,0-.35.07-.69.22-1.02.15-.32.36-.61.64-.85.28-.25.62-.44,1.03-.59s.88-.22,1.41-.22c.61,0,1.15.1,1.64.29.49.19.91.46,1.25.79l-.39.64Z" fill="#333e48"/>
    <path d="m641.57,165.21c-.06.1-.12.18-.19.23-.07.05-.15.07-.25.07s-.23-.05-.37-.15c-.14-.1-.31-.21-.52-.33-.21-.12-.45-.23-.74-.33-.29-.1-.63-.15-1.04-.15-.38,0-.71.05-.99.15-.29.1-.52.23-.72.41s-.34.37-.44.6c-.1.23-.15.48-.15.75,0,.35.09.64.27.86.18.23.41.42.7.58s.62.3.98.42c.37.12.74.25,1.12.37s.76.28,1.12.45c.37.17.69.38.98.63.29.26.52.57.7.94.18.37.26.82.26,1.35,0,.57-.1,1.1-.29,1.6-.2.5-.48.93-.85,1.31s-.83.66-1.37.88c-.54.21-1.16.32-1.85.32-.41,0-.82-.04-1.21-.12-.39-.08-.76-.2-1.11-.34-.35-.15-.67-.32-.98-.53s-.57-.44-.81-.7l.55-.92c.05-.07.12-.13.19-.18.08-.05.16-.07.26-.07.13,0,.27.07.44.2.17.13.37.28.61.44.24.16.53.3.87.44.34.13.75.2,1.24.2.4,0,.75-.05,1.06-.16.31-.1.58-.25.79-.45.21-.19.38-.43.49-.71.11-.28.17-.58.17-.92,0-.38-.09-.69-.26-.93-.17-.24-.41-.44-.69-.6s-.62-.3-.98-.41c-.37-.11-.74-.23-1.12-.36s-.76-.27-1.12-.43c-.37-.16-.69-.37-.98-.63-.29-.26-.52-.59-.69-.98-.17-.39-.26-.88-.26-1.45,0-.46.09-.91.27-1.34.18-.43.44-.81.79-1.15s.77-.6,1.27-.8,1.08-.3,1.73-.3c.73,0,1.39.12,2,.35.61.23,1.14.56,1.59,1l-.47.91Z" fill="#333e48"/>
    <path d="m645.79,168.25c.19-.23.4-.44.62-.62.22-.19.45-.35.71-.49s.52-.24.81-.31.59-.11.91-.11c.52,0,.99.1,1.42.31s.78.5,1.08.9c.3.4.53.89.7,1.47s.25,1.25.25,2.01c0,.68-.09,1.31-.27,1.89-.18.58-.44,1.08-.78,1.51-.34.43-.75.76-1.24,1-.49.24-1.04.36-1.65.36-.55,0-1.01-.09-1.4-.27-.39-.18-.74-.43-1.04-.76v3.97h-1.75v-12.21h1.05c.25,0,.4.12.46.35l.15,1.02Zm.09,5.53c.29.38.6.64.93.79.33.15.71.22,1.12.22.8,0,1.43-.29,1.87-.87.44-.58.66-1.42.66-2.53,0-.58-.05-1.08-.15-1.49-.1-.41-.24-.75-.43-1.01-.19-.26-.42-.45-.7-.58-.28-.12-.59-.18-.94-.18-.51,0-.95.11-1.33.34-.38.23-.72.55-1.04.97v4.33Z" fill="#333e48"/>
    <path d="m654.01,168.17c.51-.49,1.06-.85,1.66-1.09.6-.24,1.25-.36,1.97-.36.52,0,.98.09,1.39.26.4.17.74.41,1.02.72.28.31.48.67.62,1.1s.21.9.21,1.41v5.83h-.78c-.17,0-.31-.03-.4-.09-.09-.06-.16-.16-.22-.32l-.19-.8c-.23.22-.46.41-.69.57-.23.17-.47.31-.72.42-.25.12-.51.21-.8.27-.28.06-.59.09-.94.09s-.7-.05-1.01-.15c-.32-.1-.59-.25-.82-.45-.23-.2-.42-.46-.55-.76-.14-.31-.2-.66-.2-1.07,0-.36.1-.71.29-1.04.19-.33.51-.63.95-.9.44-.26,1.02-.48,1.73-.65s1.59-.26,2.62-.29v-.67c0-.69-.15-1.21-.44-1.55s-.73-.51-1.3-.51c-.38,0-.71.05-.97.14s-.49.2-.67.32c-.19.12-.35.22-.5.32-.14.1-.29.14-.44.14-.12,0-.22-.03-.31-.1-.09-.07-.16-.14-.21-.23l-.32-.57Zm5.15,3.81c-.71.02-1.32.08-1.82.17s-.9.2-1.21.35c-.31.14-.54.31-.67.51-.14.19-.21.41-.21.65,0,.23.04.42.11.59s.18.3.31.41c.13.11.28.18.46.23.17.05.36.07.57.07.27,0,.52-.03.74-.08.23-.05.44-.13.63-.23s.39-.22.57-.36c.18-.14.36-.31.53-.5v-1.8Z" fill="#333e48"/>
    <path d="m669.65,168.6c-.05.07-.11.12-.16.16s-.12.06-.22.06-.2-.04-.3-.11c-.11-.08-.24-.16-.4-.24s-.35-.17-.58-.24c-.22-.08-.5-.11-.83-.11-.43,0-.81.08-1.14.23-.33.16-.6.38-.82.67s-.39.64-.5,1.05c-.11.41-.17.88-.17,1.39s.06,1.01.18,1.43.29.77.51,1.05.49.5.81.65c.32.15.67.22,1.06.22s.69-.05.94-.14c.25-.09.45-.19.61-.3.16-.11.3-.21.41-.3s.22-.14.33-.14c.14,0,.25.05.33.16l.5.65c-.21.26-.45.48-.71.66-.26.18-.54.33-.83.44s-.6.2-.92.25c-.32.05-.65.08-.98.08-.57,0-1.1-.11-1.6-.32s-.92-.52-1.29-.92c-.36-.4-.65-.9-.86-1.48-.21-.58-.32-1.25-.32-1.99,0-.68.09-1.3.28-1.88.19-.58.47-1.07.84-1.49.37-.42.82-.74,1.36-.98s1.16-.36,1.85-.36c.65,0,1.23.11,1.73.32s.94.51,1.33.89l-.47.65Z" fill="#333e48"/>
    <path d="m679.2,174.73c-.22.25-.46.47-.75.65-.28.18-.58.33-.9.45s-.65.2-.99.25-.67.08-1,.08c-.63,0-1.21-.11-1.75-.32s-1-.53-1.4-.94c-.39-.41-.7-.92-.92-1.53-.22-.61-.33-1.31-.33-2.1,0-.64.1-1.23.3-1.78.2-.55.48-1.03.85-1.44s.82-.73,1.35-.96c.53-.23,1.13-.35,1.8-.35.56,0,1.07.09,1.54.27.47.18.88.45,1.22.8.34.35.61.78.8,1.29.2.51.29,1.09.29,1.75,0,.27-.03.45-.09.54-.06.09-.17.14-.33.14h-5.99c.02.55.1,1.02.23,1.43.14.4.33.74.57,1.01.24.27.53.47.87.6s.71.2,1.12.2c.39,0,.73-.04,1.01-.13.29-.09.53-.19.74-.29.21-.1.38-.2.52-.29.14-.09.27-.13.37-.13.14,0,.25.05.33.16l.5.65Zm-1.45-4.28c0-.35-.05-.67-.15-.96s-.25-.55-.44-.77c-.19-.22-.43-.38-.7-.5s-.59-.18-.95-.18c-.74,0-1.32.21-1.74.64-.42.43-.69,1.02-.81,1.77h4.79Z" fill="#333e48"/>
  </g>
  <text transform="translate(95.62 172.73)" fill="#333e48" font-family="Lato-Medium, Lato" font-size="18" font-weight="500"><tspan x="0" y="0" letter-spacing="-.04em">K</tspan><tspan x="11.35" y="0">ernel </tspan><tspan x="55.93" y="0" letter-spacing="-.01em">D</tspan><tspan x="69.38" y="0" letter-spacing="0em">a</tspan><tspan x="78.26" y="0">ta</tspan></text>
  <text transform="translate(93.68 217.73)" fill="#333e48" font-family="Lato-Medium, Lato" font-size="18" font-weight="500"><tspan x="0" y="0" letter-spacing="-.04em">K</tspan><tspan x="11.35" y="0">ernel </tspan><tspan x="55.93" y="0" letter-spacing="-.01em">C</tspan><tspan x="67.74" y="0">ode</tspan></text>
  <polyline points="210 120 255 120 255 405 210 405" fill="none" stroke="#333e48" stroke-miterlimit="10"/>
  <line x1="210" y1="165" x2="255" y2="165" fill="none" stroke="#333e48" stroke-miterlimit="10"/>
  <line x1="210" y1="210" x2="255" y2="210" fill="none" stroke="#333e48" stroke-miterlimit="10"/>
  <line x1="210" y1="285" x2="255" y2="285" fill="none" stroke="#333e48" stroke-miterlimit="10"/>
  <line x1="300" y1="300" x2="255" y2="300" fill="none" stroke="#333e48" stroke-miterlimit="10"/>
  <g>
    <line x1="534.26" y1="300" x2="465" y2="300" fill="none" stroke="#333e48" stroke-miterlimit="10"/>
    <polygon points="533.09 296.01 540 300 533.09 303.99 533.09 296.01" fill="#333e48"/>
  </g>
  <g>
    <line x1="534.26" y1="345" x2="510" y2="345" fill="none" stroke="#333e48" stroke-miterlimit="10"/>
    <polygon points="533.09 341.01 540 345 533.09 348.99 533.09 341.01" fill="#333e48"/>
  </g>
  <g>
    <line x1="534.26" y1="390" x2="510" y2="390" fill="none" stroke="#333e48" stroke-miterlimit="10"/>
    <polygon points="533.09 386.01 540 390 533.09 393.99 533.09 386.01" fill="#333e48"/>
  </g>
  <g>
    <polyline points="549.26 240 510 240 510 435 549.26 435" fill="none" stroke="#333e48" stroke-miterlimit="10"/>
    <polygon points="548.09 236.01 555 240 548.09 243.99 548.09 236.01" fill="#333e48"/>
    <polygon points="548.09 438.99 555 435 548.09 431.01 548.09 438.99" fill="#333e48"/>
  </g>
</svg>