<svg xmlns="http://www.w3.org/2000/svg" id="Layer_1" width="945" height="450" viewBox="0 0 945 450">
  <text transform="translate(315 44.14)" fill="#333e48" font-family="Lato" font-size="18" font-weight="500"><tspan x="0" y="0" letter-spacing="-.11em">T</tspan><tspan x="8.64" y="0">able </tspan><tspan x="46.12" y="0" letter-spacing="0em">D</tspan><tspan x="59.69" y="0">escri</tspan><tspan x="96.63" y="0" letter-spacing="0em">p</tspan><tspan x="106.64" y="0" letter-spacing="0em">t</tspan><tspan x="113.1" y="0">o</tspan><tspan x="123.34" y="0" letter-spacing="-.02em">r</tspan><tspan x="129.56" y="0" xml:space="preserve"> (</tspan><tspan x="138.95" y="0" letter-spacing="-.03em">L</tspan><tspan x="147.62" y="0" letter-spacing="-.01em">e</tspan><tspan x="156.94" y="0" letter-spacing="-.01em">v</tspan><tspan x="166.02" y="0">els 0, 1, 2)</tspan></text>
  <text transform="translate(34.2 43.02)" fill="#333e48" font-family="Courier" font-size="18"><tspan x="0" y="0">63</tspan></text>
  <text transform="translate(894.6 43.02)" fill="#333e48" font-family="Courier" font-size="18"><tspan x="0" y="0">0</tspan></text>
  <text transform="translate(894.6 148.02)" fill="#333e48" font-family="Courier" font-size="18"><tspan x="0" y="0">0</tspan></text>
  <text transform="translate(894.6 253.02)" fill="#333e48" font-family="Courier" font-size="18"><tspan x="0" y="0">0</tspan></text>
  <text transform="translate(894.6 358.02)" fill="#333e48" font-family="Courier" font-size="18"><tspan x="0" y="0">0</tspan></text>
  <text transform="translate(34.2 148.02)" fill="#333e48" font-family="Courier" font-size="18"><tspan x="0" y="0">63</tspan></text>
  <text transform="translate(34.2 253.02)" fill="#333e48" font-family="Courier" font-size="18"><tspan x="0" y="0">63</tspan></text>
  <text transform="translate(34.2 358.02)" fill="#333e48" font-family="Courier" font-size="18"><tspan x="0" y="0">63</tspan></text>
  <text transform="translate(315 149.14)" fill="#333e48" font-family="Lato" font-size="18" font-weight="500"><tspan x="0" y="0" letter-spacing="0em">B</tspan><tspan x="11.52" y="0">lock </tspan><tspan x="48.48" y="0" letter-spacing="0em">D</tspan><tspan x="62.04" y="0">escri</tspan><tspan x="98.99" y="0" letter-spacing="0em">p</tspan><tspan x="109" y="0" letter-spacing="0em">t</tspan><tspan x="115.46" y="0">o</tspan><tspan x="125.7" y="0" letter-spacing="-.02em">r</tspan><tspan x="131.92" y="0" xml:space="preserve"> (</tspan><tspan x="141.31" y="0" letter-spacing="-.03em">L</tspan><tspan x="149.97" y="0" letter-spacing="-.01em">e</tspan><tspan x="159.3" y="0" letter-spacing="-.01em">v</tspan><tspan x="168.38" y="0">els 1, 2)</tspan></text>
  <text transform="translate(315 254.14)" fill="#333e48" font-family="Lato" font-size="18" font-weight="500"><tspan x="0" y="0" letter-spacing="-.02em">P</tspan><tspan x="10.6" y="0">a</tspan><tspan x="19.59" y="0" letter-spacing="0em">g</tspan><tspan x="28.84" y="0">e </tspan><tspan x="42.92" y="0" letter-spacing="0em">D</tspan><tspan x="56.48" y="0">escri</tspan><tspan x="93.43" y="0" letter-spacing="0em">p</tspan><tspan x="103.44" y="0" letter-spacing="0em">t</tspan><tspan x="109.9" y="0">o</tspan><tspan x="120.14" y="0" letter-spacing="-.02em">r</tspan><tspan x="126.36" y="0" xml:space="preserve"> (</tspan><tspan x="135.75" y="0" letter-spacing="-.03em">L</tspan><tspan x="144.41" y="0" letter-spacing="-.01em">e</tspan><tspan x="153.74" y="0" letter-spacing="-.01em">v</tspan><tspan x="162.82" y="0">els 3)</tspan></text>
  <text transform="translate(315 359.14)" fill="#333e48" font-family="Lato" font-size="18" font-weight="500"><tspan x="0" y="0" letter-spacing="-.07em">F</tspan><tspan x="8.92" y="0">ault </tspan><tspan x="43.33" y="0" letter-spacing="0em">D</tspan><tspan x="56.9" y="0">escri</tspan><tspan x="93.84" y="0" letter-spacing="0em">p</tspan><tspan x="103.85" y="0" letter-spacing="0em">t</tspan><tspan x="110.31" y="0">o</tspan><tspan x="120.55" y="0" letter-spacing="-.02em">r</tspan><tspan x="126.77" y="0" xml:space="preserve"> (</tspan><tspan x="136.16" y="0" letter-spacing="0em">I</tspan><tspan x="141.14" y="0" letter-spacing="-.01em">n</tspan><tspan x="151.01" y="0" letter-spacing="-.01em">v</tspan><tspan x="160.15" y="0">alid </tspan><tspan x="192.48" y="0" letter-spacing="-.01em">E</tspan><tspan x="202.63" y="0" letter-spacing="0em">n</tspan><tspan x="212.58" y="0">tr</tspan><tspan x="225.69" y="0" letter-spacing="-.02em">y</tspan><tspan x="234.65" y="0">)</tspan></text>
  <rect x="30" y="60" width="885" height="45" fill="#e5eceb"/>
  <rect x="30" y="60" width="150" height="45" fill="#00c1de"/>
  <rect x="300" y="60" width="300" height="45" fill="#ff6b00"/>
  <rect x="855" y="60" width="60" height="45" fill="#ff6b00"/>
  <rect x="30" y="165" width="885" height="45" fill="#e5eceb"/>
  <rect x="30" y="165" width="195" height="45" fill="#00c1de"/>
  <rect x="300" y="165" width="345" height="45" fill="#ff6b00"/>
  <rect x="855" y="165" width="60" height="45" fill="#ff6b00"/>
  <rect x="30" y="270" width="885" height="45" fill="#e5eceb"/>
  <rect x="30" y="270" width="195" height="45" fill="#00c1de"/>
  <rect x="660" y="270" width="195" height="45" fill="#00c1de"/>
  <rect x="705" y="165" width="150" height="45" fill="#00c1de"/>
  <rect x="300" y="270" width="405" height="45" fill="#ff6b00"/>
  <rect x="855" y="270" width="60" height="45" fill="#ff6b00"/>
  <rect x="30" y="375" width="885" height="45" fill="#e5eceb"/>
  <rect x="855" y="375" width="60" height="45" fill="#ff6b00"/>
  <text transform="translate(352.51 89.14)" fill="#333e48" font-family="Lato" font-size="18" font-weight="500"><tspan x="0" y="0" letter-spacing="-.02em">N</tspan><tspan x="13.5" y="0" letter-spacing="0em">e</tspan><tspan x="22.91" y="0">xt-l</tspan><tspan x="49.49" y="0" letter-spacing="-.01em">e</tspan><tspan x="58.82" y="0" letter-spacing="-.01em">v</tspan><tspan x="67.9" y="0">el</tspan><tspan x="81.73" y="0" letter-spacing="-.03em"> </tspan><tspan x="85.73" y="0" letter-spacing="-.11em">T</tspan><tspan x="94.37" y="0">able</tspan><tspan x="127.31" y="0" letter-spacing="-.03em"> </tspan><tspan x="131.26" y="0" letter-spacing="-.01em">A</tspan><tspan x="143.33" y="0">dd</tspan><tspan x="163.56" y="0" letter-spacing="-.02em">r</tspan><tspan x="169.81" y="0">ess</tspan></text>
  <text transform="translate(864.6 88.02)" fill="#333e48" font-family="Courier" font-size="18"><tspan x="0" y="0">1</tspan></text>
  <text transform="translate(894.6 88.02)" fill="#333e48" font-family="Courier" font-size="18"><tspan x="0" y="0">1</tspan></text>
  <text transform="translate(864.6 193.02)" fill="#333e48" font-family="Courier" font-size="18"><tspan x="0" y="0">0</tspan></text>
  <text transform="translate(894.6 193.02)" fill="#333e48" font-family="Courier" font-size="18"><tspan x="0" y="0">1</tspan></text>
  <text transform="translate(864.6 298.02)" fill="#333e48" font-family="Courier" font-size="18"><tspan x="0" y="0">1</tspan></text>
  <text transform="translate(894.6 298.02)" fill="#333e48" font-family="Courier" font-size="18"><tspan x="0" y="0">1</tspan></text>
  <text transform="translate(864.6 403.02)" fill="#333e48" font-family="Courier" font-size="18"><tspan x="0" y="0">x</tspan></text>
  <text transform="translate(894.6 403.02)" fill="#333e48" font-family="Courier" font-size="18"><tspan x="0" y="0">0</tspan></text>
  <text transform="translate(363.13 194.14)" fill="#333e48" font-family="Lato" font-size="18" font-weight="500"><tspan x="0" y="0" letter-spacing="0em">O</tspan><tspan x="14.31" y="0">utput </tspan><tspan x="62.13" y="0" letter-spacing="0em">B</tspan><tspan x="73.65" y="0">lock</tspan><tspan x="106.07" y="0" letter-spacing="-.03em"> </tspan><tspan x="110.01" y="0" letter-spacing="-.01em">A</tspan><tspan x="122.08" y="0">dd</tspan><tspan x="142.31" y="0" letter-spacing="-.02em">r</tspan><tspan x="148.57" y="0">ess</tspan></text>
  <text transform="translate(363.13 299.14)" fill="#333e48" font-family="Lato" font-size="18" font-weight="500"><tspan x="0" y="0" letter-spacing="0em">O</tspan><tspan x="14.31" y="0">utput </tspan><tspan x="62.13" y="0" letter-spacing="0em">B</tspan><tspan x="73.65" y="0">lock</tspan><tspan x="106.07" y="0" letter-spacing="-.03em"> </tspan><tspan x="110.01" y="0" letter-spacing="-.01em">A</tspan><tspan x="122.08" y="0">dd</tspan><tspan x="142.31" y="0" letter-spacing="-.02em">r</tspan><tspan x="148.57" y="0">ess</tspan></text>
  <text transform="translate(329.79 404.14)" fill="#333e48" font-family="Lato" font-size="18" font-weight="500"><tspan x="0" y="0" letter-spacing="-.02em">I</tspan><tspan x="4.82" y="0">gno</tspan><tspan x="34.52" y="0" letter-spacing="-.02em">r</tspan><tspan x="40.78" y="0">ed</tspan></text>
  <text transform="translate(61.17 299.14)" fill="#333e48" font-family="Lato" font-size="18" font-weight="500"><tspan x="0" y="0" letter-spacing="-.02em">U</tspan><tspan x="13" y="0">ppe</tspan><tspan x="42.78" y="0" letter-spacing="-.02em">r</tspan><tspan x="49" y="0" letter-spacing="-.03em"> </tspan><tspan x="52.94" y="0" letter-spacing="-.03em">A</tspan><tspan x="64.66" y="0">ttribu</tspan><tspan x="108.85" y="0" letter-spacing="0em">t</tspan><tspan x="115.31" y="0">es</tspan></text>
  <text transform="translate(61.17 194.14)" fill="#333e48" font-family="Lato" font-size="18" font-weight="500"><tspan x="0" y="0" letter-spacing="-.02em">U</tspan><tspan x="13" y="0">ppe</tspan><tspan x="42.78" y="0" letter-spacing="-.02em">r</tspan><tspan x="49" y="0" letter-spacing="-.03em"> </tspan><tspan x="52.94" y="0" letter-spacing="-.03em">A</tspan><tspan x="64.66" y="0">ttribu</tspan><tspan x="108.85" y="0" letter-spacing="0em">t</tspan><tspan x="115.31" y="0">es</tspan></text>
  <text transform="translate(713.86 299.14)" fill="#333e48" font-family="Lato" font-size="18" font-weight="500"><tspan x="0" y="0" letter-spacing="-.03em">L</tspan><tspan x="8.67" y="0" letter-spacing="0em">ow</tspan><tspan x="32.85" y="0">e</tspan><tspan x="42.38" y="0" letter-spacing="-.02em">r</tspan><tspan x="48.6" y="0" letter-spacing="-.03em"> </tspan><tspan x="52.54" y="0" letter-spacing="-.03em">A</tspan><tspan x="64.27" y="0">ttribu</tspan><tspan x="108.46" y="0" letter-spacing="0em">t</tspan><tspan x="114.92" y="0">es</tspan></text>
  <text transform="translate(713.86 194.14)" fill="#333e48" font-family="Lato" font-size="18" font-weight="500"><tspan x="0" y="0" letter-spacing="-.03em">L</tspan><tspan x="8.67" y="0" letter-spacing="0em">ow</tspan><tspan x="32.85" y="0">e</tspan><tspan x="42.38" y="0" letter-spacing="-.02em">r</tspan><tspan x="48.6" y="0" letter-spacing="-.03em"> </tspan><tspan x="52.54" y="0" letter-spacing="-.03em">A</tspan><tspan x="64.27" y="0">ttribu</tspan><tspan x="108.46" y="0" letter-spacing="0em">t</tspan><tspan x="114.92" y="0">es</tspan></text>
  <text transform="translate(65.13 89.14)" fill="#333e48" font-family="Lato" font-size="18" font-weight="500"><tspan x="0" y="0" letter-spacing="-.03em">A</tspan><tspan x="11.73" y="0">ttribu</tspan><tspan x="55.92" y="0" letter-spacing="0em">t</tspan><tspan x="62.38" y="0">es</tspan></text>
</svg>