<svg xmlns="http://www.w3.org/2000/svg" id="Layer_1" width="360" height="375" viewBox="0 0 360 375"><rect x="75" y="30" width="120" height="60" fill="none" stroke="#95d600" stroke-miterlimit="10"/><path d="m39.52,65.21v1.55h-8.02v-12.87h8.01v1.55h-6.08v4.08h4.9v1.5h-4.9v4.2h6.09Z" fill="#333e48" stroke-width="0"/><path d="m49.28,65.15v1.6h-7.4v-12.87h1.92v11.27h5.48Z" fill="#333e48" stroke-width="0"/><path d="m59.48,60.32c0,1.12-.12,2.1-.36,2.92-.24.83-.58,1.51-1,2.05-.42.54-.92.94-1.49,1.21-.57.26-1.19.39-1.85.39s-1.28-.13-1.85-.39c-.57-.26-1.07-.67-1.49-1.21s-.75-1.22-.99-2.05c-.24-.82-.36-1.8-.36-2.92s.12-2.1.36-2.93c.24-.83.57-1.51.99-2.05.42-.54.92-.94,1.49-1.21.57-.26,1.19-.39,1.85-.39s1.28.13,1.85.39c.57.26,1.07.67,1.49,1.21.42.54.76,1.23,1,2.05.24.83.36,1.8.36,2.93Zm-1.82,0c0-.97-.08-1.78-.24-2.43-.16-.65-.37-1.18-.64-1.57-.27-.4-.57-.68-.92-.85-.35-.17-.71-.25-1.09-.25s-.74.08-1.09.25c-.35.17-.66.45-.92.85-.27.4-.48.92-.63,1.57s-.23,1.46-.23,2.43.08,1.78.23,2.43.37,1.17.63,1.57c.27.39.57.68.92.84.35.17.71.25,1.09.25s.74-.08,1.09-.25c.35-.17.66-.45.92-.84.27-.39.48-.92.64-1.57.16-.65.24-1.46.24-2.43Z" fill="#333e48" stroke-width="0"/><path d="m122.62,66.76h-1.48c-.17,0-.31-.04-.41-.13-.11-.08-.19-.19-.23-.32l-1.14-2.99h-5.7l-1.14,2.99c-.04.11-.12.22-.23.31-.11.09-.25.14-.41.14h-1.48l5.15-12.87h1.94l5.15,12.87Zm-3.79-4.8l-1.92-4.99c-.14-.34-.28-.77-.41-1.29-.07.26-.13.5-.2.72-.07.22-.14.42-.2.59l-1.91,4.98h4.64Z" fill="#333e48" stroke-width="0"/><path d="m125.5,59.01c.19-.23.4-.44.62-.62.22-.19.45-.35.71-.48s.52-.24.81-.31c.29-.08.59-.11.91-.11.52,0,.99.1,1.42.3.42.2.78.5,1.08.9.3.39.53.88.7,1.46.17.58.25,1.25.25,2,0,.68-.09,1.3-.27,1.88-.18.58-.44,1.08-.78,1.5-.34.42-.75.76-1.24,1-.49.24-1.04.36-1.65.36-.55,0-1.01-.09-1.4-.27-.39-.18-.74-.43-1.04-.75v3.95h-1.75v-12.17h1.05c.25,0,.4.12.46.35l.15,1.01Zm.09,5.5c.29.38.6.64.93.79s.71.22,1.12.22c.8,0,1.43-.29,1.87-.86.44-.58.66-1.42.66-2.52,0-.58-.05-1.07-.15-1.48s-.24-.74-.43-1c-.19-.26-.42-.45-.7-.57-.28-.12-.59-.18-.94-.18-.51,0-.95.11-1.33.34-.38.23-.72.55-1.04.97v4.31Z" fill="#333e48" stroke-width="0"/><path d="m135.62,59.01c.19-.23.4-.44.62-.62.22-.19.45-.35.71-.48s.52-.24.81-.31c.29-.08.59-.11.91-.11.52,0,.99.1,1.42.3.42.2.78.5,1.08.9.3.39.53.88.7,1.46.17.58.25,1.25.25,2,0,.68-.09,1.3-.27,1.88-.18.58-.44,1.08-.78,1.5-.34.42-.75.76-1.24,1-.49.24-1.04.36-1.65.36-.55,0-1.01-.09-1.4-.27-.39-.18-.74-.43-1.04-.75v3.95h-1.75v-12.17h1.05c.25,0,.4.12.46.35l.15,1.01Zm.09,5.5c.29.38.6.64.93.79s.71.22,1.12.22c.8,0,1.43-.29,1.87-.86.44-.58.66-1.42.66-2.52,0-.58-.05-1.07-.15-1.48s-.24-.74-.43-1c-.19-.26-.42-.45-.7-.57-.28-.12-.59-.18-.94-.18-.51,0-.95.11-1.33.34-.38.23-.72.55-1.04.97v4.31Z" fill="#333e48" stroke-width="0"/><path d="m145.16,61.13c0,1.27.16,2.5.48,3.7.32,1.2.78,2.34,1.39,3.42.1.2.13.35.08.46-.05.11-.12.19-.22.26l-.78.48c-.45-.69-.83-1.37-1.15-2.05-.31-.68-.57-1.36-.77-2.04s-.34-1.38-.43-2.08c-.09-.7-.14-1.41-.14-2.14s.04-1.45.14-2.15c.09-.7.23-1.39.43-2.08s.45-1.37.77-2.04c.31-.68.7-1.36,1.15-2.05l.78.48c.1.07.18.15.22.26.05.11.02.26-.08.46-.61,1.08-1.08,2.22-1.39,3.42-.32,1.2-.48,2.44-.48,3.71Z" fill="#333e48" stroke-width="0"/><path d="m153.99,59.22c-.05.08-.1.13-.15.17-.05.03-.12.05-.21.05-.1,0-.2-.03-.32-.1-.12-.07-.26-.14-.42-.21-.17-.08-.36-.15-.58-.22-.22-.07-.49-.1-.79-.1-.25,0-.48.03-.69.09s-.38.15-.53.26-.26.24-.33.39c-.08.15-.12.32-.12.49,0,.23.07.42.2.57.13.15.31.28.53.38.22.11.47.21.75.29.28.09.56.18.85.27s.58.2.85.33c.28.12.53.27.75.46.22.18.4.4.53.66.13.26.2.57.2.94,0,.42-.08.82-.23,1.18-.15.36-.38.67-.67.94s-.66.47-1.1.62-.94.22-1.5.22c-.63,0-1.21-.1-1.75-.31-.53-.21-.98-.48-1.34-.8l.41-.67c.05-.08.11-.15.18-.19.07-.04.17-.07.29-.07.11,0,.23.04.35.12.12.08.26.17.43.27s.37.19.61.27c.24.08.54.12.9.12.3,0,.56-.04.78-.11.22-.08.41-.18.55-.3s.26-.28.33-.44c.07-.17.11-.34.11-.53,0-.24-.07-.44-.2-.6-.14-.16-.31-.29-.53-.41-.22-.11-.47-.21-.75-.3s-.57-.17-.86-.27c-.29-.09-.58-.21-.86-.33-.28-.13-.53-.28-.75-.48s-.4-.42-.53-.7c-.14-.27-.2-.61-.2-1,0-.35.07-.69.22-1.01.15-.32.36-.61.64-.85.28-.25.62-.44,1.04-.59.41-.15.88-.22,1.41-.22.61,0,1.15.1,1.64.29.49.19.91.45,1.26.79l-.39.64Z" fill="#333e48" stroke-width="0"/><path d="m157.32,61.13c0-1.27-.16-2.5-.48-3.71-.32-1.2-.79-2.34-1.4-3.42-.1-.2-.13-.35-.08-.46.05-.11.13-.19.23-.26l.78-.48c.45.69.83,1.37,1.14,2.05.31.68.57,1.36.77,2.04.2.68.34,1.38.43,2.08.09.7.13,1.42.13,2.15s-.04,1.44-.13,2.14c-.09.7-.23,1.39-.43,2.08-.2.68-.45,1.37-.77,2.04-.31.68-.69,1.36-1.14,2.05l-.78-.48c-.1-.07-.18-.15-.23-.26-.05-.11-.03-.26.08-.46.61-1.08,1.08-2.21,1.4-3.42.32-1.2.48-2.43.48-3.7Z" fill="#333e48" stroke-width="0"/><rect x="75" y="105" width="120" height="90" fill="none" stroke="#95d600" stroke-miterlimit="10"/><path d="m109.3,150.49v5.02c-.65.47-1.35.81-2.09,1.04-.74.23-1.54.35-2.41.35-1.04,0-1.99-.16-2.83-.48-.84-.32-1.56-.77-2.16-1.35-.59-.58-1.05-1.27-1.37-2.08-.32-.81-.48-1.69-.48-2.66s.15-1.87.46-2.68c.31-.81.75-1.5,1.33-2.08.58-.58,1.27-1.03,2.09-1.34s1.74-.48,2.76-.48c.52,0,.99.04,1.44.12.44.08.85.19,1.23.33s.73.32,1.05.52c.32.2.62.43.9.68l-.55.86c-.08.14-.19.22-.33.26-.14.04-.29,0-.45-.1-.16-.09-.33-.19-.52-.31s-.41-.23-.68-.33c-.26-.1-.57-.19-.91-.26-.35-.07-.76-.11-1.23-.11-.71,0-1.35.12-1.92.34-.57.23-1.06.56-1.46.99-.4.43-.71.95-.93,1.55-.22.61-.32,1.29-.32,2.04s.11,1.5.34,2.12c.23.62.55,1.15.97,1.59s.92.76,1.52.99c.6.23,1.26.34,2,.34.29,0,.56-.02.81-.05.25-.03.49-.08.72-.14s.45-.13.66-.22c.21-.09.42-.19.63-.3v-2.7h-1.91c-.12,0-.22-.04-.29-.11-.08-.07-.11-.16-.11-.27v-1.08h4.05Z" fill="#333e48" stroke-width="0"/><path d="m118.97,147.65v9.11h-1.05c-.24,0-.4-.12-.47-.35l-.13-.91c-.2.21-.4.4-.62.57-.22.17-.45.32-.69.44-.25.12-.51.22-.78.29-.28.07-.57.1-.89.1-.5,0-.95-.08-1.33-.25s-.7-.4-.96-.7-.45-.67-.58-1.09c-.13-.42-.2-.89-.2-1.41v-5.8h1.76v5.8c0,.65.15,1.16.45,1.52.3.36.76.54,1.38.54.45,0,.87-.11,1.26-.32s.76-.5,1.1-.87v-6.67h1.75Z" fill="#333e48" stroke-width="0"/><path d="m128.93,155.46c-.22.25-.47.47-.75.65-.28.18-.58.33-.9.44-.32.11-.65.2-.99.25s-.67.08-1,.08c-.63,0-1.21-.11-1.75-.32-.54-.21-1-.52-1.4-.93s-.7-.92-.92-1.52c-.22-.61-.33-1.3-.33-2.09,0-.63.1-1.22.3-1.77.2-.55.48-1.02.85-1.43.37-.41.82-.73,1.35-.96.53-.23,1.13-.35,1.8-.35.56,0,1.07.09,1.54.27.47.18.88.45,1.22.79.34.35.61.77.81,1.28.19.51.29,1.09.29,1.74,0,.27-.03.45-.09.54-.06.09-.17.14-.33.14h-5.99c.02.54.1,1.02.23,1.42s.33.74.57,1.01c.24.27.53.47.87.6s.71.2,1.12.2c.39,0,.73-.04,1.01-.13.28-.09.53-.19.74-.29s.38-.2.52-.29c.14-.09.27-.13.37-.13.14,0,.25.05.33.16l.5.65Zm-1.45-4.27c0-.35-.05-.67-.15-.96s-.24-.55-.44-.76c-.19-.22-.43-.38-.7-.5-.28-.12-.59-.18-.95-.18-.74,0-1.32.21-1.74.64-.42.42-.69,1.01-.81,1.77h4.79Z" fill="#333e48" stroke-width="0"/><path d="m136.35,149.22c-.05.08-.1.13-.15.17-.05.03-.12.05-.21.05-.1,0-.2-.03-.32-.1-.12-.07-.26-.14-.42-.21-.17-.08-.36-.15-.58-.22-.22-.07-.49-.1-.79-.1-.25,0-.48.03-.69.09s-.38.15-.53.26-.26.24-.33.39c-.08.15-.12.32-.12.49,0,.23.07.42.2.57.13.15.31.28.53.38.22.11.47.21.75.29.28.09.56.18.85.27s.58.2.85.33c.28.12.53.27.75.46.22.18.4.4.53.66.13.26.2.57.2.94,0,.42-.08.82-.23,1.18-.15.36-.38.67-.67.94s-.66.47-1.1.62-.94.22-1.5.22c-.63,0-1.21-.1-1.75-.31-.53-.21-.98-.48-1.34-.8l.41-.67c.05-.08.11-.15.18-.19.07-.04.17-.07.29-.07.11,0,.23.04.35.12.12.08.26.17.43.27s.37.19.61.27c.24.08.54.12.9.12.3,0,.56-.04.78-.11.22-.08.41-.18.55-.3s.26-.28.33-.44c.07-.17.11-.34.11-.53,0-.24-.07-.44-.2-.6-.14-.16-.31-.29-.53-.41-.22-.11-.47-.21-.75-.3s-.57-.17-.86-.27c-.29-.09-.58-.21-.86-.33-.28-.13-.53-.28-.75-.48s-.4-.42-.53-.7c-.14-.27-.2-.61-.2-1,0-.35.07-.69.22-1.01.15-.32.36-.61.64-.85.28-.25.62-.44,1.04-.59.41-.15.88-.22,1.41-.22.61,0,1.15.1,1.64.29.49.19.91.45,1.26.79l-.39.64Z" fill="#333e48" stroke-width="0"/><path d="m141.64,156.9c-.74,0-1.31-.21-1.71-.62-.4-.41-.6-1-.6-1.77v-5.45h-1.06c-.1,0-.19-.03-.26-.09-.07-.06-.1-.16-.1-.28v-.71l1.48-.21.4-2.72c.02-.1.07-.18.14-.24.07-.06.16-.08.27-.08h.89v3.06h2.59v1.27h-2.59v5.33c0,.36.09.63.27.8.18.18.4.26.68.26.16,0,.3-.02.42-.06.12-.04.22-.09.3-.14s.16-.1.22-.14c.06-.04.11-.06.16-.06.06,0,.11.01.14.04.03.03.07.07.1.13l.52.84c-.29.26-.63.47-1.03.61-.4.14-.81.21-1.23.21Z" fill="#333e48" stroke-width="0"/><path d="m162.24,150.32c0,.96-.15,1.84-.46,2.65-.31.8-.75,1.5-1.31,2.08-.56.58-1.24,1.04-2.02,1.36s-1.66.48-2.62.48-1.83-.16-2.61-.48-1.46-.78-2.02-1.36c-.56-.58-1-1.28-1.31-2.08-.31-.8-.47-1.69-.47-2.65s.16-1.84.47-2.64.75-1.5,1.31-2.08c.56-.58,1.24-1.04,2.02-1.36.79-.33,1.66-.49,2.61-.49s1.83.16,2.62.49c.79.33,1.46.78,2.02,1.36.56.58,1,1.28,1.31,2.08s.46,1.69.46,2.64Zm-1.96,0c0-.76-.1-1.45-.31-2.06-.21-.61-.51-1.13-.9-1.55-.39-.42-.85-.75-1.4-.98-.55-.23-1.16-.34-1.84-.34s-1.29.11-1.84.34c-.55.23-1.02.55-1.41.98-.39.42-.69.94-.9,1.55-.21.61-.31,1.3-.31,2.06s.1,1.46.31,2.07.51,1.12.9,1.55c.39.42.86.75,1.41.97.55.22,1.16.34,1.84.34s1.29-.11,1.84-.34c.55-.22,1.02-.55,1.4-.97.39-.42.69-.94.9-1.55s.31-1.3.31-2.07Z" fill="#333e48" stroke-width="0"/><path d="m171.33,145.98c-.06.1-.12.18-.19.22s-.15.07-.25.07c-.11,0-.23-.05-.37-.15-.14-.1-.31-.21-.52-.33-.21-.12-.45-.23-.74-.33s-.63-.15-1.04-.15c-.38,0-.71.05-.99.15-.29.1-.52.23-.72.4s-.34.37-.44.6c-.1.23-.15.48-.15.75,0,.35.09.63.27.86.18.23.41.42.7.58.29.16.62.3.98.42.37.12.74.24,1.12.37.38.13.76.28,1.12.44.37.17.69.38.98.63s.52.56.7.93c.18.37.27.82.27,1.35,0,.57-.1,1.1-.29,1.6-.2.5-.48.93-.85,1.3s-.83.66-1.37.87-1.16.32-1.85.32c-.41,0-.82-.04-1.21-.12-.39-.08-.76-.19-1.11-.34-.35-.15-.67-.32-.98-.53-.3-.21-.57-.44-.81-.7l.55-.91c.05-.07.12-.13.19-.18s.16-.07.26-.07c.13,0,.27.07.44.2.17.13.37.28.61.43.24.16.53.3.87.43.34.13.75.2,1.24.2.4,0,.75-.05,1.06-.16.31-.1.57-.25.79-.45.21-.19.38-.43.49-.7.11-.28.17-.58.17-.92,0-.38-.09-.68-.26-.92-.17-.24-.4-.44-.69-.6s-.62-.3-.98-.41c-.37-.11-.74-.23-1.12-.35-.38-.12-.76-.26-1.12-.43-.37-.16-.69-.37-.98-.63-.29-.26-.52-.59-.69-.98s-.26-.87-.26-1.45c0-.46.09-.91.27-1.34.18-.43.44-.81.79-1.14.35-.33.77-.6,1.27-.8.5-.2,1.08-.3,1.73-.3.73,0,1.39.12,2,.34.61.23,1.14.56,1.59.99l-.47.91Z" fill="#333e48" stroke-width="0"/><path d="m108.25,310.98c-.06.1-.12.18-.19.22s-.15.07-.25.07c-.11,0-.23-.05-.37-.15-.14-.1-.31-.21-.52-.33-.21-.12-.45-.23-.74-.33s-.63-.15-1.04-.15c-.38,0-.71.05-.99.15-.29.1-.52.23-.72.4s-.34.37-.44.6c-.1.23-.15.48-.15.75,0,.35.09.63.27.86.18.23.41.42.7.58.29.16.62.3.98.42.37.12.74.24,1.12.37.38.13.76.28,1.12.44.37.17.69.38.98.63s.52.56.7.93c.18.37.27.82.27,1.35,0,.57-.1,1.1-.29,1.6-.2.5-.48.93-.85,1.3s-.83.66-1.37.87-1.16.32-1.85.32c-.41,0-.82-.04-1.21-.12-.39-.08-.76-.19-1.11-.34-.35-.15-.67-.32-.98-.53-.3-.21-.57-.44-.81-.7l.55-.91c.05-.07.12-.13.19-.18s.16-.07.26-.07c.13,0,.27.07.44.2.17.13.37.28.61.43.24.16.53.3.87.43.34.13.75.2,1.24.2.4,0,.75-.05,1.06-.16.31-.1.57-.25.79-.45.21-.19.38-.43.49-.7.11-.28.17-.58.17-.92,0-.38-.09-.68-.26-.92-.17-.24-.4-.44-.69-.6s-.62-.3-.98-.41c-.37-.11-.74-.23-1.12-.35-.38-.12-.76-.26-1.12-.43-.37-.16-.69-.37-.98-.63-.29-.26-.52-.59-.69-.98s-.26-.87-.26-1.45c0-.46.09-.91.27-1.34.18-.43.44-.81.79-1.14.35-.33.77-.6,1.27-.8.5-.2,1.08-.3,1.73-.3.73,0,1.39.12,2,.34.61.23,1.14.56,1.59.99l-.47.91Z" fill="#333e48" stroke-width="0"/><path d="m118.46,320.46c-.22.25-.47.47-.75.65-.28.18-.58.33-.9.44-.32.11-.65.2-.99.25s-.67.08-1,.08c-.63,0-1.21-.11-1.75-.32-.54-.21-1-.52-1.4-.93s-.7-.92-.92-1.52c-.22-.61-.33-1.3-.33-2.09,0-.63.1-1.22.3-1.77.2-.55.48-1.02.85-1.43.37-.41.82-.73,1.35-.96.53-.23,1.13-.35,1.8-.35.56,0,1.07.09,1.54.27.47.18.88.45,1.22.79.34.35.61.77.81,1.28.19.51.29,1.09.29,1.74,0,.27-.03.45-.09.54-.06.09-.17.14-.33.14h-5.99c.02.54.1,1.02.23,1.42s.33.74.57,1.01c.24.27.53.47.87.6s.71.2,1.12.2c.39,0,.73-.04,1.01-.13.28-.09.53-.19.74-.29s.38-.2.52-.29c.14-.09.27-.13.37-.13.14,0,.25.05.33.16l.5.65Zm-1.45-4.27c0-.35-.05-.67-.15-.96s-.24-.55-.44-.76c-.19-.22-.43-.38-.7-.5-.28-.12-.59-.18-.95-.18-.74,0-1.32.21-1.74.64-.42.42-.69,1.01-.81,1.77h4.79Z" fill="#333e48" stroke-width="0"/><path d="m126.89,314.35c-.05.07-.11.12-.16.16-.05.04-.12.06-.22.06s-.2-.04-.3-.11c-.1-.07-.24-.16-.4-.24-.16-.09-.35-.17-.58-.24-.23-.07-.5-.11-.83-.11-.43,0-.81.08-1.14.23-.33.16-.6.38-.82.66-.22.29-.39.64-.5,1.05-.11.41-.17.88-.17,1.39s.06,1.01.18,1.42c.12.42.29.77.51,1.05.22.28.49.5.81.64.32.15.67.22,1.06.22s.69-.05.94-.14.45-.19.61-.3c.16-.11.3-.21.41-.3s.22-.14.33-.14c.14,0,.25.05.33.16l.5.65c-.21.26-.45.47-.71.65-.26.18-.54.33-.83.44s-.6.2-.92.25c-.32.05-.65.08-.98.08-.57,0-1.1-.11-1.6-.31-.49-.21-.92-.51-1.29-.91-.36-.4-.65-.89-.86-1.47-.21-.58-.31-1.25-.31-1.99,0-.67.09-1.3.28-1.87.19-.57.47-1.07.84-1.48.37-.42.82-.74,1.36-.98s1.16-.35,1.85-.35c.65,0,1.23.11,1.73.31s.94.5,1.33.89l-.47.65Z" fill="#333e48" stroke-width="0"/><path d="m136.7,312.65v9.11h-1.05c-.24,0-.4-.12-.47-.35l-.13-.91c-.2.21-.4.4-.62.57-.22.17-.45.32-.69.44-.25.12-.51.22-.78.29-.28.07-.57.1-.89.1-.5,0-.95-.08-1.33-.25s-.7-.4-.96-.7-.45-.67-.58-1.09c-.13-.42-.2-.89-.2-1.41v-5.8h1.76v5.8c0,.65.15,1.16.45,1.52.3.36.76.54,1.38.54.45,0,.87-.11,1.26-.32s.76-.5,1.1-.87v-6.67h1.75Z" fill="#333e48" stroke-width="0"/><path d="m140.81,314.4c.29-.6.65-1.07,1.06-1.41s.91-.51,1.49-.51c.2,0,.39.02.56.07.18.04.33.11.46.2l-.12,1.32c-.04.16-.14.24-.3.24-.08,0-.21-.02-.38-.05-.17-.03-.35-.05-.54-.05-.28,0-.53.04-.75.12-.22.08-.41.2-.58.36s-.32.35-.45.58c-.13.23-.25.49-.37.79v5.7h-1.75v-9.11h1.01c.19,0,.32.04.39.1s.12.19.15.36l.11,1.28Z" fill="#333e48" stroke-width="0"/><path d="m152.92,320.46c-.22.25-.47.47-.75.65-.28.18-.58.33-.9.44-.32.11-.65.2-.99.25s-.67.08-1,.08c-.63,0-1.21-.11-1.75-.32-.54-.21-1-.52-1.4-.93s-.7-.92-.92-1.52c-.22-.61-.33-1.3-.33-2.09,0-.63.1-1.22.3-1.77.2-.55.48-1.02.85-1.43.37-.41.82-.73,1.35-.96.53-.23,1.13-.35,1.8-.35.56,0,1.07.09,1.54.27.47.18.88.45,1.22.79.34.35.61.77.81,1.28.19.51.29,1.09.29,1.74,0,.27-.03.45-.09.54-.06.09-.17.14-.33.14h-5.99c.02.54.1,1.02.23,1.42s.33.74.57,1.01c.24.27.53.47.87.6s.71.2,1.12.2c.39,0,.73-.04,1.01-.13.28-.09.53-.19.74-.29s.38-.2.52-.29c.14-.09.27-.13.37-.13.14,0,.25.05.33.16l.5.65Zm-1.45-4.27c0-.35-.05-.67-.15-.96s-.24-.55-.44-.76c-.19-.22-.43-.38-.7-.5-.28-.12-.59-.18-.95-.18-.74,0-1.32.21-1.74.64-.42.42-.69,1.01-.81,1.77h4.79Z" fill="#333e48" stroke-width="0"/><path d="m173.44,308.88v12.87h-1.67v-9.16c0-.14,0-.28.01-.44,0-.16.02-.31.03-.47l-4.3,7.86c-.15.29-.38.44-.69.44h-.27c-.31,0-.54-.15-.68-.44l-4.38-7.89c.04.33.05.65.05.94v9.16h-1.68v-12.87h1.42c.17,0,.3.02.39.05.09.03.18.12.27.27l4.32,7.71c.08.16.16.32.23.49.07.17.14.35.21.52.13-.35.27-.69.44-1.02l4.24-7.7c.08-.15.16-.24.26-.27.09-.03.22-.05.39-.05h1.42Z" fill="#333e48" stroke-width="0"/><path d="m179.89,312.51c.67,0,1.28.11,1.82.33.54.22,1,.53,1.39.94.38.41.67.9.88,1.48.2.58.31,1.22.31,1.94s-.1,1.37-.31,1.95c-.2.58-.5,1.07-.88,1.48s-.84.72-1.39.94c-.54.22-1.15.33-1.82.33s-1.29-.11-1.83-.33c-.54-.22-1.01-.53-1.39-.94-.38-.41-.68-.9-.89-1.48-.21-.58-.31-1.23-.31-1.95s.1-1.36.31-1.94.5-1.07.89-1.48c.38-.41.85-.72,1.39-.94.54-.22,1.15-.33,1.83-.33Zm0,8.01c.86,0,1.51-.29,1.94-.87.43-.58.64-1.4.64-2.45s-.21-1.87-.64-2.45c-.43-.58-1.07-.87-1.94-.87s-1.53.29-1.96.87c-.43.58-.64,1.4-.64,2.45s.21,1.87.64,2.45c.43.58,1.08.87,1.96.87Z" fill="#333e48" stroke-width="0"/><path d="m187.88,313.91c.2-.21.41-.4.62-.57.22-.17.45-.32.69-.44.24-.12.5-.22.78-.29.28-.07.58-.1.9-.1.5,0,.95.08,1.33.25.38.17.7.4.96.7.26.3.45.67.59,1.09.13.42.2.89.2,1.41v5.8h-1.76v-5.8c0-.65-.15-1.16-.45-1.52-.3-.36-.76-.54-1.38-.54-.45,0-.87.11-1.26.32s-.76.5-1.09.87v6.68h-1.75v-9.11h1.05c.25,0,.4.12.46.35l.13.92Z" fill="#333e48" stroke-width="0"/><path d="m198.47,309.83c0,.16-.03.32-.1.46-.07.15-.15.27-.27.38-.11.11-.24.2-.39.26-.15.06-.31.09-.47.09s-.32-.03-.46-.09c-.14-.06-.27-.15-.38-.26-.11-.11-.2-.24-.26-.38s-.09-.3-.09-.46.03-.32.09-.47.15-.28.26-.39.24-.2.38-.26c.14-.06.3-.09.46-.09s.32.03.47.09.28.15.39.26c.11.11.2.24.27.39.07.15.1.3.1.47Zm-.33,2.81v9.11h-1.75v-9.11h1.75Z" fill="#333e48" stroke-width="0"/><path d="m203.55,321.9c-.74,0-1.31-.21-1.71-.62-.4-.41-.6-1-.6-1.77v-5.45h-1.06c-.1,0-.19-.03-.26-.09-.07-.06-.1-.16-.1-.28v-.71l1.48-.21.4-2.72c.02-.1.07-.18.14-.24.07-.06.16-.08.27-.08h.89v3.06h2.59v1.27h-2.59v5.33c0,.36.09.63.27.8.18.18.4.26.68.26.16,0,.3-.02.42-.06.12-.04.22-.09.3-.14s.16-.1.22-.14c.06-.04.11-.06.16-.06.06,0,.11.01.14.04.03.03.07.07.1.13l.52.84c-.29.26-.63.47-1.03.61-.4.14-.81.21-1.23.21Z" fill="#333e48" stroke-width="0"/><path d="m211.05,312.51c.67,0,1.28.11,1.82.33.54.22,1,.53,1.39.94.38.41.67.9.88,1.48.2.58.31,1.22.31,1.94s-.1,1.37-.31,1.95c-.2.58-.5,1.07-.88,1.48s-.84.72-1.39.94c-.54.22-1.15.33-1.82.33s-1.29-.11-1.83-.33c-.54-.22-1.01-.53-1.39-.94-.38-.41-.68-.9-.89-1.48-.21-.58-.31-1.23-.31-1.95s.1-1.36.31-1.94.5-1.07.89-1.48c.38-.41.85-.72,1.39-.94.54-.22,1.15-.33,1.83-.33Zm0,8.01c.86,0,1.51-.29,1.94-.87.43-.58.64-1.4.64-2.45s-.21-1.87-.64-2.45c-.43-.58-1.07-.87-1.94-.87s-1.53.29-1.96.87c-.43.58-.64,1.4-.64,2.45s.21,1.87.64,2.45c.43.58,1.08.87,1.96.87Z" fill="#333e48" stroke-width="0"/><path d="m219.05,314.4c.29-.6.65-1.07,1.06-1.41s.91-.51,1.49-.51c.2,0,.39.02.56.07.18.04.33.11.46.2l-.12,1.32c-.04.16-.14.24-.3.24-.08,0-.21-.02-.38-.05-.17-.03-.35-.05-.54-.05-.28,0-.53.04-.75.12-.22.08-.41.2-.58.36s-.32.35-.45.58c-.13.23-.25.49-.37.79v5.7h-1.75v-9.11h1.01c.19,0,.32.04.39.1s.12.19.15.36l.11,1.28Z" fill="#333e48" stroke-width="0"/><path d="m224.28,321.9c-.08.23-.22.4-.4.51-.18.11-.37.17-.56.17h-.74l5.36-13.41c.08-.2.21-.36.36-.47.16-.11.34-.17.55-.17h.75l-5.34,13.38Z" fill="#333e48" stroke-width="0"/><path d="m233.73,310.44v4.31h5.18v1.55h-5.18v5.46h-1.93v-12.87h8.01v1.55h-6.08Z" fill="#333e48" stroke-width="0"/><path d="m243.75,309.83c0,.16-.03.32-.1.46-.07.15-.15.27-.27.38-.11.11-.24.2-.39.26-.15.06-.31.09-.47.09s-.32-.03-.46-.09c-.14-.06-.27-.15-.38-.26-.11-.11-.2-.24-.26-.38s-.09-.3-.09-.46.03-.32.09-.47.15-.28.26-.39.24-.2.38-.26c.14-.06.3-.09.46-.09s.32.03.47.09.28.15.39.26c.11.11.2.24.27.39.07.15.1.3.1.47Zm-.33,2.81v9.11h-1.75v-9.11h1.75Z" fill="#333e48" stroke-width="0"/><path d="m247.62,314.4c.29-.6.65-1.07,1.06-1.41s.91-.51,1.49-.51c.2,0,.39.02.56.07.18.04.33.11.46.2l-.12,1.32c-.04.16-.14.24-.3.24-.08,0-.21-.02-.38-.05-.17-.03-.35-.05-.54-.05-.28,0-.53.04-.75.12-.22.08-.41.2-.58.36s-.32.35-.45.58c-.13.23-.25.49-.37.79v5.7h-1.75v-9.11h1.01c.19,0,.32.04.39.1s.12.19.15.36l.11,1.28Z" fill="#333e48" stroke-width="0"/><path d="m252.56,321.76v-9.11h1.05c.25,0,.4.12.46.35l.13.87c.34-.4.71-.73,1.12-.98.41-.25.89-.38,1.44-.38.61,0,1.1.17,1.48.5s.65.78.83,1.35c.13-.32.3-.6.51-.83.21-.23.44-.42.7-.57.26-.15.53-.26.82-.33.29-.07.59-.11.89-.11.49,0,.92.08,1.3.23.38.15.7.38.97.67.26.29.46.66.6,1.08.14.43.21.92.21,1.47v5.8h-1.76v-5.8c0-.68-.15-1.2-.45-1.54-.3-.35-.73-.52-1.3-.52-.25,0-.49.04-.72.13-.23.09-.43.22-.6.39-.17.17-.31.39-.4.65-.1.26-.15.56-.15.9v5.8h-1.76v-5.8c0-.71-.14-1.23-.42-1.56-.28-.33-.7-.5-1.24-.5-.38,0-.73.1-1.05.3-.32.2-.62.47-.89.81v6.76h-1.75Z" fill="#333e48" stroke-width="0"/><path d="m280.1,312.65l-2.94,9.11h-1.4c-.17,0-.28-.11-.34-.33l-1.93-5.93c-.05-.15-.09-.3-.13-.44s-.07-.29-.1-.44c-.05.31-.13.61-.22.91l-1.95,5.92c-.06.22-.19.33-.39.33h-1.33l-2.95-9.11h1.39c.14,0,.25.03.35.1.09.07.15.15.18.25l1.65,5.59c.05.23.1.45.14.66.04.21.08.43.12.65.05-.22.11-.43.18-.65s.13-.44.19-.66l1.83-5.63c.03-.1.09-.18.17-.25s.19-.09.31-.09h.77c.13,0,.24.03.33.09s.15.15.18.25l1.78,5.63c.07.23.13.45.19.67.06.22.11.44.16.66.04-.21.08-.43.13-.65.05-.22.1-.44.16-.68l1.67-5.59c.03-.1.09-.18.18-.25.09-.07.2-.1.32-.1h1.32Z" fill="#333e48" stroke-width="0"/><path d="m281.25,313.92c.51-.48,1.06-.85,1.66-1.08.6-.24,1.25-.36,1.97-.36.52,0,.98.08,1.39.25.4.17.74.41,1.02.71s.48.67.63,1.09c.14.42.21.89.21,1.41v5.81h-.78c-.17,0-.31-.03-.4-.08s-.16-.16-.22-.32l-.19-.8c-.23.21-.47.41-.69.57s-.47.3-.72.42c-.25.12-.51.21-.8.26-.28.06-.59.09-.94.09-.36,0-.7-.05-1.01-.15s-.59-.25-.82-.45c-.23-.2-.42-.46-.55-.76-.13-.31-.2-.66-.2-1.07,0-.36.1-.7.29-1.04.2-.33.51-.63.95-.89.44-.26,1.02-.48,1.73-.64.71-.17,1.59-.26,2.62-.29v-.66c0-.69-.15-1.2-.44-1.54-.29-.34-.73-.51-1.3-.51-.38,0-.71.05-.97.14-.26.1-.49.2-.67.32s-.35.22-.5.32-.29.14-.44.14c-.12,0-.22-.03-.31-.1s-.16-.14-.21-.23l-.31-.56Zm5.15,3.79c-.71.02-1.32.08-1.82.17-.5.09-.9.2-1.22.34s-.54.31-.67.51-.21.41-.21.65.04.42.11.59c.07.16.18.3.31.4s.28.18.45.23.36.07.57.07c.27,0,.52-.03.74-.08s.44-.13.63-.23c.2-.1.39-.22.57-.36.18-.14.36-.31.53-.49v-1.79Z" fill="#333e48" stroke-width="0"/><path d="m292.13,314.4c.29-.6.65-1.07,1.06-1.41s.91-.51,1.49-.51c.2,0,.39.02.56.07.18.04.33.11.46.2l-.12,1.32c-.04.16-.14.24-.3.24-.08,0-.21-.02-.38-.05-.17-.03-.35-.05-.54-.05-.28,0-.53.04-.75.12-.22.08-.41.2-.58.36s-.32.35-.45.58c-.13.23-.25.49-.37.79v5.7h-1.75v-9.11h1.01c.19,0,.32.04.39.1s.12.19.15.36l.11,1.28Z" fill="#333e48" stroke-width="0"/><path d="m304.24,320.46c-.22.25-.47.47-.75.65-.28.18-.58.33-.9.44-.32.11-.65.2-.99.25s-.67.08-1,.08c-.63,0-1.21-.11-1.75-.32-.54-.21-1-.52-1.4-.93s-.7-.92-.92-1.52c-.22-.61-.33-1.3-.33-2.09,0-.63.1-1.22.3-1.77.2-.55.48-1.02.85-1.43.37-.41.82-.73,1.35-.96.53-.23,1.13-.35,1.8-.35.56,0,1.07.09,1.54.27.47.18.88.45,1.22.79.34.35.61.77.81,1.28.19.51.29,1.09.29,1.74,0,.27-.03.45-.09.54-.06.09-.17.14-.33.14h-5.99c.02.54.1,1.02.23,1.42s.33.74.57,1.01c.24.27.53.47.87.6s.71.2,1.12.2c.39,0,.73-.04,1.01-.13.28-.09.53-.19.74-.29s.38-.2.52-.29c.14-.09.27-.13.37-.13.14,0,.25.05.33.16l.5.65Zm-1.45-4.27c0-.35-.05-.67-.15-.96s-.24-.55-.44-.76c-.19-.22-.43-.38-.7-.5-.28-.12-.59-.18-.95-.18-.74,0-1.32.21-1.74.64-.42.42-.69,1.01-.81,1.77h4.79Z" fill="#333e48" stroke-width="0"/><rect x="75" y="210" width="255" height="60" fill="#00c1de" stroke-width="0"/><rect x="75" y="285" width="255" height="60" fill="none" stroke="#00c1de" stroke-miterlimit="10"/><path d="m163.59,233.88v12.87h-1.92v-5.8h-6.74v5.8h-1.93v-12.87h1.93v5.68h6.74v-5.68h1.92Z" fill="#333e48" stroke-width="0"/><path d="m174.22,237.65l-5.08,11.75c-.05.13-.13.23-.22.3-.09.07-.22.11-.4.11h-1.31l1.67-3.63-3.75-8.53h1.53c.15,0,.27.04.35.11.08.07.14.15.18.24l2.32,5.47c.05.14.09.28.14.42.05.14.08.28.11.42.04-.14.09-.29.13-.43.05-.14.1-.28.15-.42l2.24-5.46c.04-.1.11-.18.2-.25.09-.07.19-.1.31-.1h1.4Z" fill="#333e48" stroke-width="0"/><path d="m177.23,239.01c.19-.23.4-.44.62-.62.22-.19.45-.35.71-.48s.52-.24.81-.31c.29-.08.59-.11.91-.11.52,0,.99.1,1.42.3.42.2.78.5,1.08.9.3.39.53.88.7,1.46.17.58.25,1.25.25,2,0,.68-.09,1.3-.27,1.88-.18.58-.44,1.08-.78,1.5-.34.42-.75.76-1.24,1-.49.24-1.04.36-1.65.36-.55,0-1.01-.09-1.4-.27-.39-.18-.74-.43-1.04-.75v3.95h-1.75v-12.17h1.05c.25,0,.4.12.46.35l.15,1.01Zm.09,5.5c.29.38.6.64.93.79s.71.22,1.12.22c.8,0,1.43-.29,1.87-.86.44-.58.66-1.42.66-2.52,0-.58-.05-1.07-.15-1.48s-.24-.74-.43-1c-.19-.26-.42-.45-.7-.57-.28-.12-.59-.18-.94-.18-.51,0-.95.11-1.33.34-.38.23-.72.55-1.04.97v4.31Z" fill="#333e48" stroke-width="0"/><path d="m193.19,245.46c-.22.25-.47.47-.75.65-.28.18-.58.33-.9.44-.32.11-.65.2-.99.25s-.67.08-1,.08c-.63,0-1.21-.11-1.75-.32-.54-.21-1-.52-1.4-.93s-.7-.92-.92-1.52c-.22-.61-.33-1.3-.33-2.09,0-.63.1-1.22.3-1.77.2-.55.48-1.02.85-1.43.37-.41.82-.73,1.35-.96.53-.23,1.13-.35,1.8-.35.56,0,1.07.09,1.54.27.47.18.88.45,1.22.79.34.35.61.77.81,1.28.19.51.29,1.09.29,1.74,0,.27-.03.45-.09.54-.06.09-.17.14-.33.14h-5.99c.02.54.1,1.02.23,1.42s.33.74.57,1.01c.24.27.53.47.87.6s.71.2,1.12.2c.39,0,.73-.04,1.01-.13.28-.09.53-.19.74-.29s.38-.2.52-.29c.14-.09.27-.13.37-.13.14,0,.25.05.33.16l.5.65Zm-1.45-4.27c0-.35-.05-.67-.15-.96s-.24-.55-.44-.76c-.19-.22-.43-.38-.7-.5-.28-.12-.59-.18-.95-.18-.74,0-1.32.21-1.74.64-.42.42-.69,1.01-.81,1.77h4.79Z" fill="#333e48" stroke-width="0"/><path d="m196.87,239.4c.29-.6.65-1.07,1.06-1.41s.91-.51,1.49-.51c.2,0,.39.02.56.07.18.04.33.11.46.2l-.12,1.32c-.04.16-.14.24-.3.24-.08,0-.21-.02-.38-.05-.17-.03-.35-.05-.54-.05-.28,0-.53.04-.75.12-.22.08-.41.2-.58.36s-.32.35-.45.58c-.13.23-.25.49-.37.79v5.7h-1.75v-9.11h1.01c.19,0,.32.04.39.1s.12.19.15.36l.11,1.28Z" fill="#333e48" stroke-width="0"/><path d="m209.75,237.65l-3.71,9.11h-1.58l-3.71-9.11h1.45c.14,0,.25.03.34.1.09.07.15.15.18.25l2.19,5.59c.08.23.15.46.2.69.06.23.11.46.16.69.05-.23.1-.45.16-.68.06-.23.13-.46.22-.7l2.21-5.59c.04-.1.1-.18.19-.25.09-.07.2-.1.32-.1h1.38Z" fill="#333e48" stroke-width="0"/><path d="m213.32,234.83c0,.16-.03.32-.1.46-.07.15-.15.27-.27.38-.11.11-.24.2-.39.26-.15.06-.31.09-.47.09s-.32-.03-.46-.09c-.14-.06-.27-.15-.38-.26-.11-.11-.2-.24-.26-.38s-.09-.3-.09-.46.03-.32.09-.47.15-.28.26-.39.24-.2.38-.26c.14-.06.3-.09.46-.09s.32.03.47.09.28.15.39.26c.11.11.2.24.27.39.07.15.1.3.1.47Zm-.33,2.81v9.11h-1.75v-9.11h1.75Z" fill="#333e48" stroke-width="0"/><path d="m220.93,239.22c-.05.08-.1.13-.15.17-.05.03-.12.05-.21.05-.1,0-.2-.03-.32-.1-.12-.07-.26-.14-.42-.21-.17-.08-.36-.15-.58-.22-.22-.07-.49-.1-.79-.1-.25,0-.48.03-.69.09s-.38.15-.53.26-.26.24-.33.39c-.08.15-.12.32-.12.49,0,.23.07.42.2.57.13.15.31.28.53.38.22.11.47.21.75.29.28.09.56.18.85.27s.58.2.85.33c.28.12.53.27.75.46.22.18.4.4.53.66.13.26.2.57.2.94,0,.42-.08.82-.23,1.18-.15.36-.38.67-.67.94s-.66.47-1.1.62-.94.22-1.5.22c-.63,0-1.21-.1-1.75-.31-.53-.21-.98-.48-1.34-.8l.41-.67c.05-.08.11-.15.18-.19.07-.04.17-.07.29-.07.11,0,.23.04.35.12.12.08.26.17.43.27s.37.19.61.27c.24.08.54.12.9.12.3,0,.56-.04.78-.11.22-.08.41-.18.55-.3s.26-.28.33-.44c.07-.17.11-.34.11-.53,0-.24-.07-.44-.2-.6-.14-.16-.31-.29-.53-.41-.22-.11-.47-.21-.75-.3s-.57-.17-.86-.27c-.29-.09-.58-.21-.86-.33-.28-.13-.53-.28-.75-.48s-.4-.42-.53-.7c-.14-.27-.2-.61-.2-1,0-.35.07-.69.22-1.01.15-.32.36-.61.64-.85.28-.25.62-.44,1.04-.59.41-.15.88-.22,1.41-.22.61,0,1.15.1,1.64.29.49.19.91.45,1.26.79l-.39.64Z" fill="#333e48" stroke-width="0"/><path d="m227.26,237.51c.67,0,1.28.11,1.82.33.54.22,1,.53,1.39.94.38.41.67.9.88,1.48.2.58.31,1.22.31,1.94s-.1,1.37-.31,1.95c-.2.58-.5,1.07-.88,1.48s-.84.72-1.39.94c-.54.22-1.15.33-1.82.33s-1.29-.11-1.83-.33c-.54-.22-1.01-.53-1.39-.94-.38-.41-.68-.9-.89-1.48-.21-.58-.31-1.23-.31-1.95s.1-1.36.31-1.94.5-1.07.89-1.48c.38-.41.85-.72,1.39-.94.54-.22,1.15-.33,1.83-.33Zm0,8.01c.86,0,1.51-.29,1.94-.87.43-.58.64-1.4.64-2.45s-.21-1.87-.64-2.45c-.43-.58-1.07-.87-1.94-.87s-1.53.29-1.96.87c-.43.58-.64,1.4-.64,2.45s.21,1.87.64,2.45c.43.58,1.08.87,1.96.87Z" fill="#333e48" stroke-width="0"/><path d="m235.26,239.4c.29-.6.65-1.07,1.06-1.41s.91-.51,1.49-.51c.2,0,.39.02.56.07.18.04.33.11.46.2l-.12,1.32c-.04.16-.14.24-.3.24-.08,0-.21-.02-.38-.05-.17-.03-.35-.05-.54-.05-.28,0-.53.04-.75.12-.22.08-.41.2-.58.36s-.32.35-.45.58c-.13.23-.25.49-.37.79v5.7h-1.75v-9.11h1.01c.19,0,.32.04.39.1s.12.19.15.36l.11,1.28Z" fill="#333e48" stroke-width="0"/><rect x="210" y="105" width="120" height="90" fill="none" stroke="#95d600" stroke-miterlimit="10"/><path d="m244.3,150.49v5.02c-.65.47-1.35.81-2.09,1.04-.74.23-1.54.35-2.41.35-1.04,0-1.99-.16-2.83-.48-.84-.32-1.56-.77-2.16-1.35-.59-.58-1.05-1.27-1.37-2.08-.32-.81-.48-1.69-.48-2.66s.15-1.87.46-2.68c.31-.81.75-1.5,1.33-2.08.58-.58,1.27-1.03,2.09-1.34s1.74-.48,2.76-.48c.52,0,.99.04,1.44.12.44.08.85.19,1.23.33s.73.32,1.05.52c.32.2.62.43.9.68l-.55.86c-.08.14-.19.22-.33.26-.14.04-.29,0-.45-.1-.16-.09-.33-.19-.52-.31s-.41-.23-.68-.33c-.26-.1-.57-.19-.91-.26-.35-.07-.76-.11-1.23-.11-.71,0-1.35.12-1.92.34-.57.23-1.06.56-1.46.99-.4.43-.71.95-.93,1.55-.22.61-.32,1.29-.32,2.04s.11,1.5.34,2.12c.23.62.55,1.15.97,1.59s.92.76,1.52.99c.6.23,1.26.34,2,.34.29,0,.56-.02.81-.05.25-.03.49-.08.72-.14s.45-.13.66-.22c.21-.09.42-.19.63-.3v-2.7h-1.91c-.12,0-.22-.04-.29-.11-.08-.07-.11-.16-.11-.27v-1.08h4.05Z" fill="#333e48" stroke-width="0"/><path d="m253.97,147.65v9.11h-1.05c-.24,0-.4-.12-.47-.35l-.13-.91c-.2.21-.4.4-.62.57-.22.17-.45.32-.69.44-.25.12-.51.22-.78.29-.28.07-.57.1-.89.1-.5,0-.95-.08-1.33-.25s-.7-.4-.96-.7-.45-.67-.58-1.09c-.13-.42-.2-.89-.2-1.41v-5.8h1.76v5.8c0,.65.15,1.16.45,1.52.3.36.76.54,1.38.54.45,0,.87-.11,1.26-.32s.76-.5,1.1-.87v-6.67h1.75Z" fill="#333e48" stroke-width="0"/><path d="m263.93,155.46c-.22.25-.47.47-.75.65-.28.18-.58.33-.9.44-.32.11-.65.2-.99.25s-.67.08-1,.08c-.63,0-1.21-.11-1.75-.32-.54-.21-1-.52-1.4-.93s-.7-.92-.92-1.52c-.22-.61-.33-1.3-.33-2.09,0-.63.1-1.22.3-1.77.2-.55.48-1.02.85-1.43.37-.41.82-.73,1.35-.96.53-.23,1.13-.35,1.8-.35.56,0,1.07.09,1.54.27.47.18.88.45,1.22.79.34.35.61.77.81,1.28.19.51.29,1.09.29,1.74,0,.27-.03.45-.09.54-.06.09-.17.14-.33.14h-5.99c.02.54.1,1.02.23,1.42s.33.74.57,1.01c.24.27.53.47.87.6s.71.2,1.12.2c.39,0,.73-.04,1.01-.13.28-.09.53-.19.74-.29s.38-.2.52-.29c.14-.09.27-.13.37-.13.14,0,.25.05.33.16l.5.65Zm-1.45-4.27c0-.35-.05-.67-.15-.96s-.24-.55-.44-.76c-.19-.22-.43-.38-.7-.5-.28-.12-.59-.18-.95-.18-.74,0-1.32.21-1.74.64-.42.42-.69,1.01-.81,1.77h4.79Z" fill="#333e48" stroke-width="0"/><path d="m271.35,149.22c-.05.08-.1.13-.15.17-.05.03-.12.05-.21.05-.1,0-.2-.03-.32-.1-.12-.07-.26-.14-.42-.21-.17-.08-.36-.15-.58-.22-.22-.07-.49-.1-.79-.1-.25,0-.48.03-.69.09s-.38.15-.53.26-.26.24-.33.39c-.08.15-.12.32-.12.49,0,.23.07.42.2.57.13.15.31.28.53.38.22.11.47.21.75.29.28.09.56.18.85.27s.58.2.85.33c.28.12.53.27.75.46.22.18.4.4.53.66.13.26.2.57.2.94,0,.42-.08.82-.23,1.18-.15.36-.38.67-.67.94s-.66.47-1.1.62-.94.22-1.5.22c-.63,0-1.21-.1-1.75-.31-.53-.21-.98-.48-1.34-.8l.41-.67c.05-.08.11-.15.18-.19.07-.04.17-.07.29-.07.11,0,.23.04.35.12.12.08.26.17.43.27s.37.19.61.27c.24.08.54.12.9.12.3,0,.56-.04.78-.11.22-.08.41-.18.55-.3s.26-.28.33-.44c.07-.17.11-.34.11-.53,0-.24-.07-.44-.2-.6-.14-.16-.31-.29-.53-.41-.22-.11-.47-.21-.75-.3s-.57-.17-.86-.27c-.29-.09-.58-.21-.86-.33-.28-.13-.53-.28-.75-.48s-.4-.42-.53-.7c-.14-.27-.2-.61-.2-1,0-.35.07-.69.22-1.01.15-.32.36-.61.64-.85.28-.25.62-.44,1.04-.59.41-.15.88-.22,1.41-.22.61,0,1.15.1,1.64.29.49.19.91.45,1.26.79l-.39.64Z" fill="#333e48" stroke-width="0"/><path d="m276.64,156.9c-.74,0-1.31-.21-1.71-.62-.4-.41-.6-1-.6-1.77v-5.45h-1.06c-.1,0-.19-.03-.26-.09-.07-.06-.1-.16-.1-.28v-.71l1.48-.21.4-2.72c.02-.1.07-.18.14-.24.07-.06.16-.08.27-.08h.89v3.06h2.59v1.27h-2.59v5.33c0,.36.09.63.27.8.18.18.4.26.68.26.16,0,.3-.02.42-.06.12-.04.22-.09.3-.14s.16-.1.22-.14c.06-.04.11-.06.16-.06.06,0,.11.01.14.04.03.03.07.07.1.13l.52.84c-.29.26-.63.47-1.03.61-.4.14-.81.21-1.23.21Z" fill="#333e48" stroke-width="0"/><path d="m297.24,150.32c0,.96-.15,1.84-.46,2.65-.31.8-.75,1.5-1.31,2.08-.56.58-1.24,1.04-2.02,1.36s-1.66.48-2.62.48-1.83-.16-2.61-.48-1.46-.78-2.02-1.36c-.56-.58-1-1.28-1.31-2.08-.31-.8-.47-1.69-.47-2.65s.16-1.84.47-2.64.75-1.5,1.31-2.08c.56-.58,1.24-1.04,2.02-1.36.79-.33,1.66-.49,2.61-.49s1.83.16,2.62.49c.79.33,1.46.78,2.02,1.36.56.58,1,1.28,1.31,2.08s.46,1.69.46,2.64Zm-1.96,0c0-.76-.1-1.45-.31-2.06-.21-.61-.51-1.13-.9-1.55-.39-.42-.85-.75-1.4-.98-.55-.23-1.16-.34-1.84-.34s-1.29.11-1.84.34c-.55.23-1.02.55-1.41.98-.39.42-.69.94-.9,1.55-.21.61-.31,1.3-.31,2.06s.1,1.46.31,2.07.51,1.12.9,1.55c.39.42.86.75,1.41.97.55.22,1.16.34,1.84.34s1.29-.11,1.84-.34c.55-.22,1.02-.55,1.4-.97.39-.42.69-.94.9-1.55s.31-1.3.31-2.07Z" fill="#333e48" stroke-width="0"/><path d="m306.33,145.98c-.06.1-.12.18-.19.22s-.15.07-.25.07c-.11,0-.23-.05-.37-.15-.14-.1-.31-.21-.52-.33-.21-.12-.45-.23-.74-.33s-.63-.15-1.04-.15c-.38,0-.71.05-.99.15-.29.1-.52.23-.72.4s-.34.37-.44.6c-.1.23-.15.48-.15.75,0,.35.09.63.27.86.18.23.41.42.7.58.29.16.62.3.98.42.37.12.74.24,1.12.37.38.13.76.28,1.12.44.37.17.69.38.98.63s.52.56.7.93c.18.37.27.82.27,1.35,0,.57-.1,1.1-.29,1.6-.2.5-.48.93-.85,1.3s-.83.66-1.37.87-1.16.32-1.85.32c-.41,0-.82-.04-1.21-.12-.39-.08-.76-.19-1.11-.34-.35-.15-.67-.32-.98-.53-.3-.21-.57-.44-.81-.7l.55-.91c.05-.07.12-.13.19-.18s.16-.07.26-.07c.13,0,.27.07.44.2.17.13.37.28.61.43.24.16.53.3.87.43.34.13.75.2,1.24.2.4,0,.75-.05,1.06-.16.31-.1.57-.25.79-.45.21-.19.38-.43.49-.7.11-.28.17-.58.17-.92,0-.38-.09-.68-.26-.92-.17-.24-.4-.44-.69-.6s-.62-.3-.98-.41c-.37-.11-.74-.23-1.12-.35-.38-.12-.76-.26-1.12-.43-.37-.16-.69-.37-.98-.63-.29-.26-.52-.59-.69-.98s-.26-.87-.26-1.45c0-.46.09-.91.27-1.34.18-.43.44-.81.79-1.14.35-.33.77-.6,1.27-.8.5-.2,1.08-.3,1.73-.3.73,0,1.39.12,2,.34.61.23,1.14.56,1.59.99l-.47.91Z" fill="#333e48" stroke-width="0"/><rect x="210" y="30" width="120" height="60" fill="none" stroke="#95d600" stroke-miterlimit="10"/><path d="m257.62,66.76h-1.48c-.17,0-.31-.04-.41-.13-.11-.08-.19-.19-.23-.32l-1.14-2.99h-5.7l-1.14,2.99c-.04.11-.12.22-.23.31-.11.09-.25.14-.41.14h-1.48l5.15-12.87h1.94l5.15,12.87Zm-3.79-4.8l-1.92-4.99c-.14-.34-.28-.77-.41-1.29-.07.26-.13.5-.2.72-.07.22-.14.42-.2.59l-1.91,4.98h4.64Z" fill="#333e48" stroke-width="0"/><path d="m260.5,59.01c.19-.23.4-.44.62-.62.22-.19.45-.35.71-.48s.52-.24.81-.31c.29-.08.59-.11.91-.11.52,0,.99.1,1.42.3.42.2.78.5,1.08.9.3.39.53.88.7,1.46.17.58.25,1.25.25,2,0,.68-.09,1.3-.27,1.88-.18.58-.44,1.08-.78,1.5-.34.42-.75.76-1.24,1-.49.24-1.04.36-1.65.36-.55,0-1.01-.09-1.4-.27-.39-.18-.74-.43-1.04-.75v3.95h-1.75v-12.17h1.05c.25,0,.4.12.46.35l.15,1.01Zm.09,5.5c.29.38.6.64.93.79s.71.22,1.12.22c.8,0,1.43-.29,1.87-.86.44-.58.66-1.42.66-2.52,0-.58-.05-1.07-.15-1.48s-.24-.74-.43-1c-.19-.26-.42-.45-.7-.57-.28-.12-.59-.18-.94-.18-.51,0-.95.11-1.33.34-.38.23-.72.55-1.04.97v4.31Z" fill="#333e48" stroke-width="0"/><path d="m270.62,59.01c.19-.23.4-.44.62-.62.22-.19.45-.35.71-.48s.52-.24.81-.31c.29-.08.59-.11.91-.11.52,0,.99.1,1.42.3.42.2.78.5,1.08.9.3.39.53.88.7,1.46.17.58.25,1.25.25,2,0,.68-.09,1.3-.27,1.88-.18.58-.44,1.08-.78,1.5-.34.42-.75.76-1.24,1-.49.24-1.04.36-1.65.36-.55,0-1.01-.09-1.4-.27-.39-.18-.74-.43-1.04-.75v3.95h-1.75v-12.17h1.05c.25,0,.4.12.46.35l.15,1.01Zm.09,5.5c.29.38.6.64.93.79s.71.22,1.12.22c.8,0,1.43-.29,1.87-.86.44-.58.66-1.42.66-2.52,0-.58-.05-1.07-.15-1.48s-.24-.74-.43-1c-.19-.26-.42-.45-.7-.57-.28-.12-.59-.18-.94-.18-.51,0-.95.11-1.33.34-.38.23-.72.55-1.04.97v4.31Z" fill="#333e48" stroke-width="0"/><path d="m280.16,61.13c0,1.27.16,2.5.48,3.7.32,1.2.78,2.34,1.39,3.42.1.2.13.35.08.46-.05.11-.12.19-.22.26l-.78.48c-.45-.69-.83-1.37-1.15-2.05-.31-.68-.57-1.36-.77-2.04s-.34-1.38-.43-2.08c-.09-.7-.14-1.41-.14-2.14s.04-1.45.14-2.15c.09-.7.23-1.39.43-2.08s.45-1.37.77-2.04c.31-.68.7-1.36,1.15-2.05l.78.48c.1.07.18.15.22.26.05.11.02.26-.08.46-.61,1.08-1.08,2.22-1.39,3.42-.32,1.2-.48,2.44-.48,3.71Z" fill="#333e48" stroke-width="0"/><path d="m288.99,59.22c-.05.08-.1.13-.15.17-.05.03-.12.05-.21.05-.1,0-.2-.03-.32-.1-.12-.07-.26-.14-.42-.21-.17-.08-.36-.15-.58-.22-.22-.07-.49-.1-.79-.1-.25,0-.48.03-.69.09s-.38.15-.53.26-.26.24-.33.39c-.08.15-.12.32-.12.49,0,.23.07.42.2.57.13.15.31.28.53.38.22.11.47.21.75.29.28.09.56.18.85.27s.58.2.85.33c.28.12.53.27.75.46.22.18.4.4.53.66.13.26.2.57.2.94,0,.42-.08.82-.23,1.18-.15.36-.38.67-.67.94s-.66.47-1.1.62-.94.22-1.5.22c-.63,0-1.21-.1-1.75-.31-.53-.21-.98-.48-1.34-.8l.41-.67c.05-.08.11-.15.18-.19.07-.04.17-.07.29-.07.11,0,.23.04.35.12.12.08.26.17.43.27s.37.19.61.27c.24.08.54.12.9.12.3,0,.56-.04.78-.11.22-.08.41-.18.55-.3s.26-.28.33-.44c.07-.17.11-.34.11-.53,0-.24-.07-.44-.2-.6-.14-.16-.31-.29-.53-.41-.22-.11-.47-.21-.75-.3s-.57-.17-.86-.27c-.29-.09-.58-.21-.86-.33-.28-.13-.53-.28-.75-.48s-.4-.42-.53-.7c-.14-.27-.2-.61-.2-1,0-.35.07-.69.22-1.01.15-.32.36-.61.64-.85.28-.25.62-.44,1.04-.59.41-.15.88-.22,1.41-.22.61,0,1.15.1,1.64.29.49.19.91.45,1.26.79l-.39.64Z" fill="#333e48" stroke-width="0"/><path d="m292.32,61.13c0-1.27-.16-2.5-.48-3.71-.32-1.2-.79-2.34-1.4-3.42-.1-.2-.13-.35-.08-.46.05-.11.13-.19.23-.26l.78-.48c.45.69.83,1.37,1.14,2.05.31.68.57,1.36.77,2.04.2.68.34,1.38.43,2.08.09.7.13,1.42.13,2.15s-.04,1.44-.13,2.14c-.09.7-.23,1.39-.43,2.08-.2.68-.45,1.37-.77,2.04-.31.68-.69,1.36-1.14,2.05l-.78-.48c-.1-.07-.18-.15-.23-.26-.05-.11-.03-.26.08-.46.61-1.08,1.08-2.21,1.4-3.42.32-1.2.48-2.43.48-3.7Z" fill="#333e48" stroke-width="0"/><path d="m39.52,155.21v1.55h-8.02v-12.87h8.01v1.55h-6.08v4.08h4.9v1.5h-4.9v4.2h6.09Z" fill="#333e48" stroke-width="0"/><path d="m49.28,155.15v1.6h-7.4v-12.87h1.92v11.27h5.48Z" fill="#333e48" stroke-width="0"/><path d="m58.76,155.42v1.34h-6.98v-1.34h2.74v-8.44c0-.27,0-.55.03-.83l-2.2,1.86c-.08.07-.17.11-.25.13s-.16.02-.24,0c-.08-.01-.14-.04-.2-.08-.06-.04-.1-.08-.14-.12l-.55-.76,3.87-3.33h1.43v11.56h2.49Z" fill="#333e48" stroke-width="0"/><path d="m39.52,245.21v1.55h-8.02v-12.87h8.01v1.55h-6.08v4.08h4.9v1.5h-4.9v4.2h6.09Z" fill="#333e48" stroke-width="0"/><path d="m49.28,245.15v1.6h-7.4v-12.87h1.92v11.27h5.48Z" fill="#333e48" stroke-width="0"/><path d="m58.43,245.1c.19,0,.34.05.45.17.11.11.16.25.16.43v1.06h-8.68v-.6c0-.12.02-.25.07-.38.05-.13.13-.26.24-.36l4.09-4.08c.34-.34.65-.67.93-.99.28-.32.51-.63.7-.95s.34-.63.45-.96c.1-.33.16-.67.16-1.04s-.06-.67-.17-.95c-.11-.27-.27-.5-.47-.68-.2-.18-.43-.31-.7-.4-.27-.09-.56-.13-.87-.13s-.6.04-.86.13c-.26.09-.49.21-.7.38s-.38.35-.51.57c-.14.22-.24.46-.3.72-.08.23-.19.38-.32.46-.13.08-.32.1-.56.05l-.92-.16c.08-.6.25-1.12.5-1.58.25-.45.55-.83.93-1.14s.8-.54,1.28-.69c.48-.16,1-.23,1.56-.23s1.08.08,1.56.25c.48.17.89.4,1.24.71s.62.69.82,1.13c.2.45.3.95.3,1.51,0,.48-.07.92-.21,1.33-.14.41-.33.8-.58,1.17-.24.37-.52.73-.85,1.08-.32.35-.66.7-1.02,1.06l-3.28,3.33c.25-.07.51-.12.76-.16.25-.04.5-.06.72-.06h4.08Z" fill="#333e48" stroke-width="0"/><path d="m39.52,320.21v1.55h-8.02v-12.87h8.01v1.55h-6.08v4.08h4.9v1.5h-4.9v4.2h6.09Z" fill="#333e48" stroke-width="0"/><path d="m49.28,320.15v1.6h-7.4v-12.87h1.92v11.27h5.48Z" fill="#333e48" stroke-width="0"/><path d="m50.68,312.39c.09-.6.26-1.12.5-1.58.25-.45.55-.83.93-1.14s.8-.54,1.28-.69c.48-.16,1-.23,1.56-.23s1.07.08,1.54.24c.47.16.87.38,1.2.67s.59.64.78,1.04c.19.41.28.85.28,1.34,0,.41-.05.78-.15,1.09s-.25.59-.44.83-.42.44-.69.6c-.27.17-.57.3-.91.41.82.23,1.44.6,1.85,1.11.41.51.62,1.16.62,1.94,0,.6-.11,1.15-.34,1.63-.23.48-.54.89-.94,1.22-.4.33-.86.59-1.38.76-.52.18-1.08.26-1.68.26-.68,0-1.26-.08-1.75-.25-.49-.16-.9-.39-1.24-.69-.34-.3-.63-.65-.85-1.07-.22-.42-.42-.87-.57-1.37l.77-.32c.2-.08.39-.11.58-.07.19.04.32.14.41.31.09.18.19.38.31.6.12.22.27.44.47.64.2.2.45.37.74.51s.67.21,1.12.21.81-.07,1.13-.21c.32-.14.59-.32.81-.55.22-.22.38-.47.49-.75.11-.28.16-.55.16-.82,0-.33-.04-.64-.13-.92-.08-.28-.24-.52-.48-.72s-.57-.36-.99-.47-.97-.17-1.64-.17v-1.27c.55,0,1.02-.06,1.4-.17.38-.11.69-.26.92-.45.23-.19.4-.42.51-.68s.16-.56.16-.88c0-.35-.05-.66-.16-.92-.11-.26-.26-.48-.45-.66-.19-.18-.43-.31-.69-.39-.27-.09-.56-.13-.87-.13s-.6.04-.86.13c-.26.09-.5.21-.7.38-.2.16-.38.35-.51.57-.14.22-.24.46-.3.72-.08.23-.19.38-.32.46-.13.08-.31.1-.55.05l-.93-.16Z" fill="#333e48" stroke-width="0"/></svg>