<svg xmlns="http://www.w3.org/2000/svg" id="Layer_1" width="1230" height="735" viewBox="0 0 1230 735">
  <rect x="105" y="90" width="180" height="180" fill="#00c1de"/>
  <rect x="120" y="105" width="150" height="60" fill="#fff"/>
  <rect x="120" y="195" width="150" height="60" fill="#fff"/>
  <rect x="555" y="90" width="180" height="270" fill="#95d600"/>
  <rect x="570" y="105" width="150" height="60" fill="#fff"/>
  <rect x="570" y="195" width="150" height="60" fill="#fff"/>
  <rect x="570" y="285" width="150" height="60" fill="#fff"/>
  <rect x="1020" y="210" width="180" height="390" fill="#ffc700"/>
  <rect x="1035" y="225" width="150" height="45" fill="#fff"/>
  <rect x="1035" y="285" width="150" height="45" fill="#fff"/>
  <rect x="1035" y="345" width="150" height="45" fill="#fff"/>
  <rect x="1035" y="405" width="150" height="105" fill="#fff"/>
  <rect x="105" y="390" width="180" height="90" fill="#00c1de"/>
  <rect x="120" y="405" width="150" height="60" fill="#fff"/>
  <rect x="330" y="135" width="180" height="90" fill="#7d868c"/>
  <rect x="345" y="150" width="150" height="60" fill="#fff"/>
  <rect x="780" y="135" width="180" height="90" fill="#7d868c"/>
  <rect x="795" y="150" width="150" height="60" fill="#fff"/>
  <rect x="1035" y="525" width="150" height="60" fill="#fff"/>
  <rect x="330" y="390" width="180" height="90" fill="#7d868c"/>
  <rect x="345" y="405" width="150" height="60" fill="#fff"/>
  <rect x="330" y="585" width="180" height="90" fill="#7d868c"/>
  <rect x="345" y="600" width="150" height="60" fill="#fff"/>
  <rect x="105" y="585" width="180" height="90" fill="#00c1de"/>
  <rect x="120" y="600" width="150" height="60" fill="#fff"/>
  <text transform="translate(182.88 141.64)" fill="#333e48" font-family="Lato" font-size="18" font-weight="500"><tspan x="0" y="0">OS</tspan></text>
  <text transform="translate(157.16 48.34)" fill="#333e48" font-family="Lato" font-size="18" font-weight="500"><tspan x="0" y="0" letter-spacing="0em">G</tspan><tspan x="12.98" y="0">uest OS</tspan><tspan x="-44.4" y="21.6">Virtual </tspan><tspan x="13.26" y="21.6" letter-spacing="-.02em">M</tspan><tspan x="29.77" y="21.6">emor</tspan><tspan x="71.01" y="21.6" letter-spacing="-.02em">y</tspan><tspan x="79.91" y="21.6"> </tspan><tspan x="84.45" y="21.6" letter-spacing="-.01em">M</tspan><tspan x="100.98" y="21.6">ap</tspan></text>
  <text transform="translate(390.67 59.14)" fill="#333e48" font-family="Lato" font-size="18" font-weight="500"><tspan x="0" y="0" letter-spacing="-.02em">S</tspan><tspan x="9.39" y="0">ta</tspan><tspan x="24.89" y="0" letter-spacing="0em">g</tspan><tspan x="34.15" y="0">e 1</tspan></text>
  <text transform="translate(371.39 253.02)" fill="#333e48" font-family="Courier" font-size="18"><tspan x="0" y="0">TTBRn_EL1</tspan></text>
  <text transform="translate(815.99 253.02)" fill="#333e48" font-family="Courier" font-size="18"><tspan x="0" y="0">VTTBR0_EL2</tspan></text>
  <text transform="translate(371.39 508.02)" fill="#333e48" font-family="Courier" font-size="18"><tspan x="0" y="0">TTBR0_EL2</tspan></text>
  <text transform="translate(371.39 703.02)" fill="#333e48" font-family="Courier" font-size="18"><tspan x="0" y="0">TTBR0_EL3</tspan></text>
  <text transform="translate(557.33 48.34)" fill="#333e48" font-family="Lato" font-size="18" font-weight="500"><tspan x="0" y="0" letter-spacing="0em">P</tspan><tspan x="10.84" y="0" letter-spacing="-.01em">h</tspan><tspan x="20.68" y="0" letter-spacing="0em">y</tspan><tspan x="29.85" y="0">sical </tspan><tspan x="68.51" y="0" letter-spacing="-.02em">M</tspan><tspan x="85.01" y="0">emor</tspan><tspan x="126.26" y="0" letter-spacing="-.02em">y</tspan><tspan x="135.15" y="0"> </tspan><tspan x="139.7" y="0" letter-spacing="-.01em">M</tspan><tspan x="156.22" y="0">ap </tspan><tspan x="16.46" y="21.6" letter-spacing="0em">S</tspan><tspan x="26.2" y="21.6">een </tspan><tspan x="59.88" y="21.6" letter-spacing="-.01em">b</tspan><tspan x="69.76" y="21.6" letter-spacing="-.02em">y</tspan><tspan x="78.65" y="21.6"> </tspan><tspan x="83.19" y="21.6" letter-spacing="0em">G</tspan><tspan x="96.17" y="21.6">uest OS</tspan></text>
  <text transform="translate(840.67 59.14)" fill="#333e48" font-family="Lato" font-size="18" font-weight="500"><tspan x="0" y="0" letter-spacing="-.02em">S</tspan><tspan x="9.39" y="0">ta</tspan><tspan x="24.89" y="0" letter-spacing="0em">g</tspan><tspan x="34.15" y="0">e 2</tspan></text>
  <text transform="translate(31.04 141.64)" fill="#333e48" font-family="Lato" font-size="18" font-weight="500"><tspan x="0" y="0">NS.EL1</tspan></text>
  <text transform="translate(31.04 231.64)" fill="#333e48" font-family="Lato" font-size="18" font-weight="500"><tspan x="0" y="0">NS.EL0</tspan></text>
  <text transform="translate(31.04 441.64)" fill="#333e48" font-family="Lato" font-size="18" font-weight="500"><tspan x="0" y="0">NS.EL2</tspan></text>
  <text transform="translate(44.95 636.64)" fill="#333e48" font-family="Lato" font-size="18" font-weight="500"><tspan x="0" y="0">EL3</tspan></text>
  <text transform="translate(151.41 348.34)" fill="#333e48" font-family="Lato" font-size="18" font-weight="500"><tspan x="0" y="0" letter-spacing="-.01em">H</tspan><tspan x="13.58" y="0" letter-spacing="0em">yperviso</tspan><tspan x="80.95" y="0" letter-spacing="-.02em">r</tspan><tspan x="-37.02" y="21.6">Virtual memor</tspan><tspan x="76.76" y="21.6" letter-spacing="-.02em">y</tspan><tspan x="85.66" y="21.6" xml:space="preserve"> map</tspan></text>
  <text transform="translate(133.8 543.34)" fill="#333e48" font-family="Lato" font-size="18" font-weight="500"><tspan x="0" y="0" letter-spacing="0em">S</tspan><tspan x="9.75" y="0">ecu</tspan><tspan x="37.95" y="0" letter-spacing="-.02em">r</tspan><tspan x="44.21" y="0">e </tspan><tspan x="58.28" y="0" letter-spacing="-.02em">M</tspan><tspan x="74.79" y="0">oni</tspan><tspan x="99.49" y="0" letter-spacing="0em">t</tspan><tspan x="105.95" y="0">o</tspan><tspan x="116.19" y="0" letter-spacing="-.02em">r</tspan><tspan x="-19.4" y="21.6">Virtual memor</tspan><tspan x="94.38" y="21.6" letter-spacing="-.02em">y</tspan><tspan x="103.27" y="21.6" xml:space="preserve"> map</tspan></text>
  <text transform="translate(150.07 231.64)" fill="#333e48" font-family="Lato" font-size="18" font-weight="500"><tspan x="0" y="0" letter-spacing="0em">A</tspan><tspan x="12.23" y="0">pplic</tspan><tspan x="49.78" y="0" letter-spacing="0em">a</tspan><tspan x="58.65" y="0">tion</tspan></text>
  <text transform="translate(151.41 441.64)" fill="#333e48" font-family="Lato" font-size="18" font-weight="500"><tspan x="0" y="0" letter-spacing="-.01em">H</tspan><tspan x="13.58" y="0" letter-spacing="0em">yperviso</tspan><tspan x="80.95" y="0" letter-spacing="-.02em">r</tspan></text>
  <text transform="translate(133.8 636.64)" fill="#333e48" font-family="Lato" font-size="18" font-weight="500"><tspan x="0" y="0" letter-spacing="0em">S</tspan><tspan x="9.75" y="0">ecu</tspan><tspan x="37.95" y="0" letter-spacing="-.02em">r</tspan><tspan x="44.21" y="0">e </tspan><tspan x="58.28" y="0" letter-spacing="-.02em">M</tspan><tspan x="74.79" y="0">oni</tspan><tspan x="99.49" y="0" letter-spacing="0em">t</tspan><tspan x="105.95" y="0">o</tspan><tspan x="116.19" y="0" letter-spacing="-.02em">r</tspan></text>
  <text transform="translate(358.8 625.84)" fill="#333e48" font-family="Lato" font-size="18" font-weight="500"><tspan x="0" y="0" letter-spacing="0em">S</tspan><tspan x="9.75" y="0">ecu</tspan><tspan x="37.95" y="0" letter-spacing="-.02em">r</tspan><tspan x="44.21" y="0">e </tspan><tspan x="58.28" y="0" letter-spacing="-.02em">M</tspan><tspan x="74.79" y="0">oni</tspan><tspan x="99.49" y="0" letter-spacing="0em">t</tspan><tspan x="105.95" y="0">o</tspan><tspan x="116.19" y="0" letter-spacing="-.02em">r</tspan><tspan x="36.5" y="21.6" letter-spacing="-.11em">T</tspan><tspan x="45.14" y="21.6">ables</tspan></text>
  <text transform="translate(376.41 430.84)" fill="#333e48" font-family="Lato" font-size="18" font-weight="500"><tspan x="0" y="0" letter-spacing="-.01em">H</tspan><tspan x="13.58" y="0" letter-spacing="0em">yperviso</tspan><tspan x="80.95" y="0" letter-spacing="-.02em">r</tspan><tspan x="18.89" y="21.6" letter-spacing="-.11em">T</tspan><tspan x="27.53" y="21.6">ables</tspan></text>
  <g>
    <path d="m394.3,169.55v5.04c-.65.47-1.35.82-2.09,1.05-.74.23-1.54.35-2.41.35-1.04,0-1.99-.16-2.83-.49s-1.56-.78-2.16-1.36c-.59-.58-1.05-1.28-1.37-2.09-.32-.81-.48-1.7-.48-2.67s.15-1.87.46-2.69c.31-.81.75-1.51,1.33-2.09s1.27-1.03,2.09-1.35c.82-.32,1.74-.48,2.76-.48.52,0,.99.04,1.44.12.44.08.85.19,1.23.33.38.14.73.32,1.05.52.32.2.62.43.9.68l-.55.86c-.08.14-.2.22-.33.26s-.29,0-.45-.1c-.16-.09-.33-.2-.52-.32-.19-.12-.41-.23-.67-.33s-.57-.19-.91-.26c-.35-.07-.76-.11-1.23-.11-.71,0-1.35.12-1.92.35s-1.06.56-1.46,1c-.4.43-.71.95-.93,1.56-.22.61-.32,1.29-.32,2.05s.11,1.5.34,2.13c.23.63.55,1.16.97,1.59s.92.77,1.52.99c.6.23,1.26.34,2,.34.29,0,.56-.02.81-.05s.49-.08.72-.14c.23-.06.45-.14.66-.23s.42-.19.63-.3v-2.71h-1.91c-.12,0-.22-.04-.29-.11s-.11-.16-.11-.27v-1.09h4.05Z" fill="#333e48"/>
    <path d="m403.97,166.7v9.14h-1.05c-.24,0-.4-.12-.47-.35l-.13-.92c-.2.21-.41.4-.62.58-.22.17-.45.32-.69.45s-.51.22-.78.29c-.28.07-.57.1-.89.1-.5,0-.95-.08-1.33-.25-.38-.17-.7-.4-.96-.71s-.45-.67-.58-1.09-.2-.9-.2-1.41v-5.82h1.76v5.82c0,.65.15,1.16.45,1.53.3.36.76.54,1.38.54.45,0,.87-.11,1.26-.32.39-.21.76-.51,1.1-.88v-6.7h1.75Z" fill="#333e48"/>
    <path d="m413.93,174.54c-.22.25-.46.47-.75.65s-.58.33-.9.45c-.32.11-.65.2-.99.25-.34.05-.67.08-1,.08-.63,0-1.21-.11-1.75-.32s-1-.53-1.4-.94c-.39-.41-.7-.92-.92-1.53-.22-.61-.33-1.31-.33-2.1,0-.63.1-1.23.3-1.78.2-.55.48-1.03.85-1.44.37-.41.82-.73,1.35-.96.53-.23,1.13-.35,1.8-.35.56,0,1.07.09,1.54.27.47.18.88.45,1.22.8.34.35.61.78.8,1.29.2.51.29,1.09.29,1.75,0,.27-.03.45-.09.54-.06.09-.17.14-.33.14h-5.99c.02.55.1,1.02.23,1.43.14.41.33.74.57,1.01.24.27.53.47.87.6s.71.2,1.12.2c.39,0,.73-.04,1.01-.13s.53-.19.74-.29.38-.2.52-.29.27-.13.37-.13c.14,0,.25.05.33.16l.5.65Zm-1.45-4.28c0-.35-.05-.67-.15-.96s-.25-.55-.44-.76c-.19-.22-.43-.38-.7-.5-.28-.12-.59-.18-.95-.18-.74,0-1.32.21-1.74.64-.42.43-.69,1.02-.81,1.77h4.79Z" fill="#333e48"/>
    <path d="m421.35,168.27c-.05.08-.1.13-.15.17-.05.03-.12.05-.21.05-.1,0-.2-.03-.32-.1-.12-.07-.26-.14-.42-.22s-.36-.15-.58-.22c-.22-.07-.49-.1-.79-.1-.25,0-.48.03-.69.09s-.38.15-.53.26c-.14.11-.25.24-.33.4-.08.15-.12.32-.12.49,0,.23.07.42.2.57s.31.28.53.39c.22.11.47.21.75.29.28.09.56.18.85.27.29.1.58.21.86.33.28.12.53.28.75.46.22.18.4.4.53.66.14.26.2.57.2.95,0,.43-.08.82-.23,1.18-.15.36-.38.68-.67.94-.3.26-.67.47-1.1.62-.44.15-.94.23-1.5.23-.63,0-1.21-.11-1.75-.32-.53-.21-.98-.48-1.34-.8l.41-.67c.05-.08.11-.15.18-.19.07-.05.17-.07.29-.07.11,0,.23.04.35.13.12.08.26.18.43.27.17.1.37.19.61.27s.54.12.9.12c.3,0,.56-.04.78-.11.22-.07.41-.18.55-.31.15-.13.26-.28.33-.45.07-.17.11-.34.11-.53,0-.24-.07-.44-.2-.6-.13-.16-.31-.29-.53-.41-.22-.11-.47-.21-.75-.3-.28-.08-.57-.17-.86-.27s-.58-.21-.86-.33-.53-.29-.75-.48c-.22-.19-.4-.43-.53-.7-.13-.28-.2-.61-.2-1.01,0-.35.07-.69.22-1.02.15-.32.36-.61.64-.86.28-.25.62-.44,1.03-.59s.88-.22,1.41-.22c.61,0,1.15.1,1.64.29.49.19.91.46,1.25.79l-.39.64Z" fill="#333e48"/>
    <path d="m426.64,175.99c-.74,0-1.31-.21-1.71-.62-.4-.41-.6-1.01-.6-1.77v-5.47h-1.06c-.1,0-.19-.03-.26-.09-.07-.06-.1-.16-.1-.28v-.71l1.48-.21.4-2.73c.02-.1.07-.18.14-.24.07-.06.16-.08.27-.08h.89v3.07h2.59v1.28h-2.59v5.36c0,.36.09.63.27.81s.4.27.68.27c.16,0,.3-.02.42-.06.12-.04.22-.09.3-.14s.16-.1.22-.14c.06-.04.11-.06.16-.06.06,0,.11.01.14.04s.07.07.1.13l.52.85c-.29.26-.63.47-1.03.61-.4.14-.81.22-1.23.22Z" fill="#333e48"/>
    <path d="m447.24,169.38c0,.97-.15,1.85-.46,2.66-.31.81-.75,1.5-1.31,2.09-.56.59-1.24,1.04-2.03,1.36-.79.32-1.66.49-2.62.49s-1.83-.16-2.61-.49c-.79-.32-1.46-.78-2.03-1.36-.56-.58-1-1.28-1.31-2.09-.31-.81-.47-1.69-.47-2.66s.16-1.84.47-2.66c.31-.81.75-1.51,1.31-2.09.56-.59,1.24-1.04,2.03-1.37.79-.33,1.66-.49,2.61-.49s1.83.16,2.62.49c.79.33,1.46.78,2.03,1.37.56.58,1,1.28,1.31,2.09.31.81.46,1.7.46,2.66Zm-1.96,0c0-.77-.1-1.46-.31-2.07-.21-.61-.51-1.13-.9-1.56-.39-.43-.86-.75-1.4-.98-.55-.23-1.16-.34-1.84-.34s-1.29.11-1.84.34c-.55.23-1.02.55-1.41.98-.39.43-.69.94-.9,1.56s-.32,1.3-.32,2.07.11,1.47.32,2.07c.21.61.51,1.13.9,1.55.39.43.86.75,1.41.98.55.23,1.16.34,1.84.34s1.29-.11,1.84-.34,1.02-.55,1.4-.98c.39-.43.68-.94.9-1.55.21-.61.31-1.3.31-2.07Z" fill="#333e48"/>
    <path d="m456.33,165.02c-.06.1-.12.18-.19.23-.07.05-.15.07-.25.07s-.23-.05-.37-.15c-.14-.1-.31-.21-.52-.33s-.45-.23-.74-.33c-.29-.1-.63-.15-1.04-.15-.38,0-.71.05-.99.15-.29.1-.52.23-.72.41s-.34.37-.44.6c-.1.23-.15.48-.15.75,0,.35.09.64.27.86s.41.42.7.58.62.3.98.42c.37.12.74.25,1.12.37s.76.28,1.12.45c.37.17.69.38.98.63.29.25.52.57.7.94.18.37.26.82.26,1.35,0,.57-.1,1.1-.29,1.6-.2.5-.48.93-.85,1.3s-.83.66-1.37.88c-.54.21-1.16.32-1.85.32-.41,0-.82-.04-1.21-.12-.39-.08-.76-.19-1.11-.34s-.67-.32-.98-.53-.57-.44-.81-.7l.55-.92c.05-.07.12-.13.19-.18.08-.05.16-.07.26-.07.13,0,.27.07.44.2.17.13.37.28.61.44.24.16.53.3.87.44.34.13.75.2,1.24.2.4,0,.75-.05,1.06-.16.31-.1.58-.25.79-.45s.38-.43.49-.71c.11-.28.17-.58.17-.92,0-.38-.09-.69-.26-.93-.17-.24-.41-.44-.69-.6s-.62-.3-.98-.41c-.37-.11-.74-.23-1.12-.36s-.76-.27-1.12-.43c-.37-.16-.69-.37-.98-.63-.29-.26-.52-.59-.69-.98-.17-.39-.26-.88-.26-1.45,0-.46.09-.91.27-1.34s.44-.81.79-1.15c.34-.33.77-.6,1.27-.8.5-.2,1.08-.3,1.73-.3.73,0,1.39.12,2,.35.61.23,1.14.56,1.59,1l-.47.91Z" fill="#333e48"/>
    <path d="m405.7,186.12h-4.1v11.32h-1.91v-11.32h-4.12v-1.6h10.13v1.6Z" fill="#333e48"/>
    <path d="m404.94,189.58c.51-.49,1.06-.85,1.66-1.09.6-.24,1.25-.36,1.97-.36.52,0,.98.09,1.39.26.4.17.74.41,1.02.72.28.3.48.67.62,1.1s.21.9.21,1.41v5.83h-.78c-.17,0-.31-.03-.4-.08-.09-.06-.16-.16-.22-.32l-.19-.8c-.23.21-.46.41-.69.57-.23.17-.47.31-.72.42s-.51.21-.8.27c-.28.06-.59.09-.94.09s-.7-.05-1.01-.15c-.32-.1-.59-.25-.82-.46-.23-.2-.42-.46-.55-.76-.14-.31-.2-.66-.2-1.07,0-.36.1-.71.29-1.04.19-.33.51-.63.95-.9.44-.26,1.02-.48,1.73-.65s1.59-.26,2.62-.29v-.67c0-.69-.15-1.21-.44-1.55-.29-.34-.73-.51-1.3-.51-.38,0-.71.05-.97.14s-.49.2-.67.32c-.19.12-.35.22-.5.32s-.29.14-.44.14c-.12,0-.22-.03-.31-.1s-.16-.14-.21-.23l-.32-.57Zm5.15,3.81c-.71.02-1.32.08-1.82.17-.5.09-.9.2-1.21.35-.31.14-.54.31-.67.51-.14.2-.21.41-.21.65s.04.42.11.59.18.3.31.4c.13.11.28.18.46.23.17.05.36.07.57.07.27,0,.52-.03.74-.08.23-.05.44-.13.63-.23.2-.1.39-.22.57-.37.18-.14.36-.31.53-.49v-1.8Z" fill="#333e48"/>
    <path d="m415.92,189.56c.38-.42.81-.76,1.29-1.02.48-.26,1.03-.39,1.64-.39.53,0,1.02.1,1.44.31s.79.5,1.09.89.53.86.69,1.41c.16.55.24,1.18.24,1.87,0,.74-.09,1.41-.27,2.02-.18.61-.44,1.12-.78,1.56s-.75.77-1.24,1c-.49.24-1.03.36-1.64.36-.29,0-.56-.03-.81-.09s-.47-.14-.68-.25c-.21-.11-.4-.24-.57-.4-.17-.16-.34-.33-.49-.53l-.08.76c-.05.25-.2.37-.45.37h-1.13v-13.28h1.75v5.4Zm0,5.63c.29.38.6.64.94.79.34.15.7.22,1.1.22.82,0,1.44-.29,1.88-.87.44-.58.66-1.46.66-2.64,0-1.09-.2-1.88-.58-2.39-.39-.51-.94-.76-1.66-.76-.5,0-.94.11-1.31.34-.37.23-.71.55-1.03.97v4.33Z" fill="#333e48"/>
    <path d="m426.08,184.16v13.28h-1.76v-13.28h1.76Z" fill="#333e48"/>
    <path d="m436.09,196.14c-.22.25-.46.47-.75.65-.28.18-.58.33-.9.45-.32.12-.65.2-.99.25-.34.05-.67.08-1,.08-.63,0-1.21-.11-1.75-.32s-1-.52-1.4-.94c-.39-.41-.7-.92-.92-1.53-.22-.61-.33-1.31-.33-2.1,0-.64.1-1.23.3-1.78.2-.55.48-1.03.85-1.44.37-.41.82-.73,1.35-.96s1.13-.35,1.8-.35c.56,0,1.07.09,1.54.27.47.18.88.45,1.22.8.34.35.61.78.8,1.29.2.51.29,1.09.29,1.75,0,.27-.03.45-.09.54-.06.09-.17.14-.33.14h-5.99c.02.55.1,1.02.23,1.43.14.41.33.74.57,1.01s.53.47.87.6c.34.13.71.2,1.12.2.39,0,.73-.04,1.01-.13s.53-.19.74-.29c.21-.1.38-.2.52-.29s.27-.14.37-.14c.14,0,.25.05.33.16l.5.65Zm-1.45-4.28c0-.35-.05-.67-.15-.96-.1-.29-.25-.55-.44-.77-.19-.22-.43-.38-.7-.5s-.59-.18-.95-.18c-.74,0-1.32.21-1.74.64s-.69,1.02-.81,1.77h4.79Z" fill="#333e48"/>
    <path d="m443.5,189.87c-.05.08-.1.13-.15.17-.05.03-.12.05-.21.05-.1,0-.2-.03-.32-.1s-.26-.14-.42-.22-.36-.15-.58-.21c-.22-.07-.49-.1-.79-.1-.25,0-.48.03-.69.09-.21.06-.38.15-.53.26-.14.11-.25.24-.33.4-.08.15-.12.32-.12.49,0,.23.07.42.2.57.13.15.31.28.53.39.22.11.47.21.75.29.28.09.56.18.85.27.29.1.58.21.86.33.28.12.53.28.75.46.22.18.4.4.53.66.14.26.2.57.2.94,0,.43-.08.82-.23,1.18-.15.36-.38.68-.67.94-.3.26-.67.47-1.1.62-.44.15-.94.22-1.5.22-.63,0-1.21-.11-1.75-.31-.53-.21-.98-.48-1.34-.8l.41-.67c.05-.08.11-.15.18-.19.07-.04.17-.07.29-.07.11,0,.23.04.35.13s.26.18.43.27.37.19.61.27c.24.08.54.12.9.12.3,0,.56-.04.78-.11.22-.07.41-.18.55-.31.15-.13.26-.28.33-.45.07-.17.11-.34.11-.53,0-.24-.07-.44-.2-.6-.13-.16-.31-.29-.53-.41s-.47-.21-.75-.3c-.28-.08-.57-.17-.86-.27-.29-.1-.58-.21-.86-.33-.28-.13-.53-.29-.75-.48-.22-.19-.4-.43-.53-.7-.13-.28-.2-.61-.2-1.01,0-.35.07-.69.22-1.02.15-.32.36-.61.64-.85.28-.25.62-.44,1.03-.59.41-.15.88-.22,1.41-.22.61,0,1.15.1,1.64.29.49.19.91.46,1.25.79l-.39.64Z" fill="#333e48"/>
  </g>
  <text transform="translate(600.88 141.64)" fill="#333e48" font-family="Lato" font-size="18" font-weight="500"><tspan x="0" y="0" letter-spacing="-.03em">P</tspan><tspan x="10.43" y="0">eriphe</tspan><tspan x="60.67" y="0" letter-spacing="0em">r</tspan><tspan x="67.12" y="0">als</tspan></text>
  <text transform="translate(1065.88 254.14)" fill="#333e48" font-family="Lato" font-size="18" font-weight="500"><tspan x="0" y="0" letter-spacing="-.03em">P</tspan><tspan x="10.43" y="0">eriphe</tspan><tspan x="60.67" y="0" letter-spacing="0em">r</tspan><tspan x="67.12" y="0">als</tspan></text>
  <text transform="translate(1065.88 374.14)" fill="#333e48" font-family="Lato" font-size="18" font-weight="500"><tspan x="0" y="0" letter-spacing="-.03em">P</tspan><tspan x="10.43" y="0">eriphe</tspan><tspan x="60.67" y="0" letter-spacing="0em">r</tspan><tspan x="67.12" y="0">als</tspan></text>
  <text transform="translate(1089.39 561.64)" fill="#333e48" font-family="Lato" font-size="18" font-weight="500"><tspan x="0" y="0" letter-spacing="0em">F</tspan><tspan x="10.03" y="0">lash</tspan></text>
  <text transform="translate(817.12 175.84)" fill="#333e48" font-family="Lato" font-size="18" font-weight="500"><tspan x="0" y="0">Virtualiz</tspan><tspan x="65.67" y="0" letter-spacing="0em">a</tspan><tspan x="74.54" y="0">tion</tspan><tspan x="28.18" y="21.6" letter-spacing="-.11em">T</tspan><tspan x="36.82" y="21.6">ables</tspan></text>
  <text transform="translate(624.8 231.64)" fill="#333e48" font-family="Lato" font-size="18" font-weight="500"><tspan x="0" y="0">RAM</tspan></text>
  <text transform="translate(1089.8 314.14)" fill="#333e48" font-family="Lato" font-size="18" font-weight="500"><tspan x="0" y="0">RAM</tspan></text>
  <text transform="translate(1089.8 464.14)" fill="#333e48" font-family="Lato" font-size="18" font-weight="500"><tspan x="0" y="0">RAM</tspan></text>
  <text transform="translate(624.39 321.64)" fill="#333e48" font-family="Lato" font-size="18" font-weight="500"><tspan x="0" y="0" letter-spacing="0em">F</tspan><tspan x="10.03" y="0">lash</tspan></text>
  <g>
    <line x1="735" y1="180" x2="774.26" y2="180" fill="none" stroke="#333e48" stroke-miterlimit="10"/>
    <polygon points="773.09 183.99 780 180 773.09 176.01 773.09 183.99" fill="#333e48"/>
  </g>
  <g>
    <line x1="285" y1="435" x2="324.26" y2="435" fill="none" stroke="#333e48" stroke-miterlimit="10"/>
    <polygon points="323.09 438.99 330 435 323.09 431.01 323.09 438.99" fill="#333e48"/>
  </g>
  <g>
    <line x1="285" y1="630.5" x2="324.26" y2="630.5" fill="none" stroke="#333e48" stroke-miterlimit="10"/>
    <polygon points="323.09 634.49 330 630.5 323.09 626.51 323.09 634.49" fill="#333e48"/>
  </g>
  <g>
    <line x1="285" y1="180" x2="324.26" y2="180" fill="none" stroke="#333e48" stroke-miterlimit="10"/>
    <polygon points="323.09 183.99 330 180 323.09 176.01 323.09 183.99" fill="#333e48"/>
  </g>
  <g>
    <line x1="510" y1="180" x2="549.26" y2="180" fill="none" stroke="#333e48" stroke-miterlimit="10"/>
    <polygon points="548.09 183.99 555 180 548.09 176.01 548.09 183.99" fill="#333e48"/>
  </g>
  <g>
    <line x1="510" y1="435" x2="1014.26" y2="435" fill="none" stroke="#333e48" stroke-miterlimit="10"/>
    <polygon points="1013.09 438.99 1020 435 1013.09 431.01 1013.09 438.99" fill="#333e48"/>
  </g>
  <polyline points="510 630 990 630 990 180 960 180" fill="none" stroke="#333e48" stroke-miterlimit="10"/>
</svg>