<svg xmlns="http://www.w3.org/2000/svg" id="Layer_1" width="405" height="345" viewBox="0 0 405 345"><rect x="90" y="180" width="285" height="60" fill="#00c1de" stroke-width="0"/><path d="m39.52,66.17v1.56h-8.02v-12.92h8.01v1.56h-6.08v4.09h4.9v1.5h-4.9v4.21h6.09Z" fill="#333e48" stroke-width="0"/><path d="m49.28,66.12v1.61h-7.4v-12.92h1.92v11.31h5.48Z" fill="#333e48" stroke-width="0"/><path d="m59.48,61.27c0,1.13-.12,2.11-.36,2.93s-.58,1.51-1,2.06-.92.95-1.49,1.21c-.57.26-1.19.4-1.85.4s-1.28-.13-1.85-.4c-.57-.26-1.07-.67-1.49-1.21s-.75-1.23-.99-2.06-.36-1.81-.36-2.93.12-2.11.36-2.94.57-1.52.99-2.06c.42-.54.92-.95,1.49-1.21s1.19-.4,1.85-.4,1.28.13,1.85.4,1.07.67,1.49,1.21c.42.54.76,1.23,1,2.06s.36,1.81.36,2.94Zm-1.82,0c0-.97-.08-1.79-.24-2.44-.16-.65-.37-1.18-.64-1.58-.27-.4-.58-.68-.92-.85s-.71-.25-1.09-.25-.74.08-1.09.25-.66.45-.92.85c-.27.4-.48.93-.63,1.58-.16.65-.23,1.47-.23,2.44s.08,1.79.23,2.44c.16.65.37,1.18.63,1.58.27.4.58.68.92.85s.71.25,1.09.25.74-.08,1.09-.25.66-.45.92-.85c.27-.4.48-.92.64-1.58.16-.65.24-1.47.24-2.44Z" fill="#333e48" stroke-width="0"/><path d="m145.12,67.73h-1.48c-.17,0-.31-.04-.41-.13-.11-.08-.19-.19-.23-.32l-1.14-3h-5.7l-1.14,3c-.04.11-.12.22-.23.31-.11.09-.25.14-.41.14h-1.48l5.15-12.92h1.93l5.15,12.92Zm-3.79-4.82l-1.92-5.01c-.14-.34-.28-.77-.41-1.3-.07.26-.13.5-.2.72-.07.22-.14.42-.2.59l-1.91,4.99h4.64Z" fill="#333e48" stroke-width="0"/><path d="m148,59.95c.19-.23.4-.44.62-.62.22-.19.45-.35.71-.49s.52-.24.81-.31.59-.11.91-.11c.52,0,.99.1,1.42.31s.78.5,1.08.9c.3.4.53.89.7,1.47s.25,1.25.25,2.01c0,.68-.09,1.31-.27,1.89-.18.58-.44,1.08-.78,1.51-.34.43-.75.76-1.24,1-.49.24-1.04.36-1.65.36-.55,0-1.01-.09-1.4-.27-.39-.18-.74-.43-1.04-.76v3.97h-1.75v-12.21h1.05c.25,0,.4.12.46.35l.15,1.02Zm.09,5.53c.29.38.6.64.93.79.33.15.71.22,1.12.22.8,0,1.43-.29,1.87-.87.44-.58.66-1.42.66-2.53,0-.58-.05-1.08-.15-1.49-.1-.41-.24-.75-.43-1.01-.19-.26-.42-.45-.7-.58-.28-.12-.59-.18-.94-.18-.51,0-.95.11-1.33.34-.38.23-.72.55-1.04.97v4.33Z" fill="#333e48" stroke-width="0"/><path d="m158.12,59.95c.19-.23.4-.44.62-.62.22-.19.45-.35.71-.49s.52-.24.81-.31.59-.11.91-.11c.52,0,.99.1,1.42.31s.78.5,1.08.9c.3.4.53.89.7,1.47s.25,1.25.25,2.01c0,.68-.09,1.31-.27,1.89-.18.58-.44,1.08-.78,1.51-.34.43-.75.76-1.24,1-.49.24-1.04.36-1.65.36-.55,0-1.01-.09-1.4-.27-.39-.18-.74-.43-1.04-.76v3.97h-1.75v-12.21h1.05c.25,0,.4.12.46.35l.15,1.02Zm.09,5.53c.29.38.6.64.93.79.33.15.71.22,1.12.22.8,0,1.43-.29,1.87-.87.44-.58.66-1.42.66-2.53,0-.58-.05-1.08-.15-1.49-.1-.41-.24-.75-.43-1.01-.19-.26-.42-.45-.7-.58-.28-.12-.59-.18-.94-.18-.51,0-.95.11-1.33.34-.38.23-.72.55-1.04.97v4.33Z" fill="#333e48" stroke-width="0"/><path d="m167.66,62.08c0,1.27.16,2.51.48,3.72.32,1.21.78,2.35,1.39,3.43.1.2.13.35.08.46-.05.11-.12.19-.22.26l-.78.48c-.45-.69-.83-1.38-1.15-2.06-.32-.68-.57-1.37-.76-2.05-.2-.69-.34-1.38-.43-2.08s-.13-1.42-.13-2.15.04-1.46.13-2.16c.09-.7.23-1.4.43-2.08.19-.69.45-1.37.76-2.05.31-.68.7-1.37,1.15-2.06l.78.48c.1.07.18.15.22.26.05.11.02.26-.08.46-.61,1.08-1.08,2.22-1.39,3.43-.32,1.21-.48,2.45-.48,3.72Z" fill="#333e48" stroke-width="0"/><path d="m176.48,60.16c-.05.08-.1.13-.15.17-.05.03-.12.05-.21.05-.1,0-.2-.03-.32-.1-.12-.07-.26-.14-.42-.22s-.36-.15-.58-.22c-.22-.07-.49-.1-.79-.1-.25,0-.48.03-.69.09-.21.06-.38.15-.53.26-.14.11-.25.24-.33.4-.08.15-.12.32-.12.49,0,.23.07.42.2.57.13.15.31.28.53.39.22.11.47.21.75.29.28.09.56.18.85.27s.58.21.86.33c.28.12.53.28.75.46.22.18.4.4.53.66.14.26.2.57.2.95,0,.43-.08.82-.23,1.18-.15.36-.38.68-.67.94-.3.26-.67.47-1.1.62-.44.15-.94.22-1.5.22-.63,0-1.21-.1-1.75-.31-.53-.21-.98-.48-1.34-.8l.41-.68c.05-.08.11-.15.18-.19.07-.04.17-.07.29-.07.11,0,.23.04.35.13s.26.18.43.27c.17.1.37.19.61.27s.54.12.9.12c.3,0,.56-.04.78-.11.22-.08.41-.18.55-.31.15-.13.26-.28.33-.45.07-.17.11-.34.11-.53,0-.24-.07-.44-.2-.6s-.31-.3-.53-.41c-.22-.11-.47-.21-.75-.3-.28-.08-.57-.17-.86-.27s-.58-.21-.86-.33-.53-.29-.75-.48c-.22-.19-.4-.43-.53-.7-.13-.28-.2-.61-.2-1.01,0-.35.07-.69.22-1.02.15-.32.36-.61.64-.85.28-.25.62-.44,1.03-.59s.88-.22,1.41-.22c.61,0,1.15.1,1.64.29.49.19.91.46,1.25.79l-.39.64Z" fill="#333e48" stroke-width="0"/><path d="m179.82,62.08c0-1.27-.16-2.51-.48-3.72-.32-1.21-.79-2.35-1.4-3.43-.1-.2-.13-.35-.08-.46.05-.11.13-.2.23-.26l.78-.48c.45.69.83,1.38,1.14,2.06.31.68.57,1.37.76,2.05.2.69.34,1.38.43,2.08.09.7.14,1.42.14,2.16s-.04,1.45-.14,2.15c-.09.7-.23,1.4-.43,2.08-.2.69-.45,1.37-.76,2.05-.31.68-.69,1.37-1.14,2.06l-.78-.48c-.1-.07-.18-.15-.23-.26-.05-.11-.03-.26.08-.46.61-1.08,1.08-2.22,1.4-3.43.32-1.21.48-2.45.48-3.72Z" fill="#333e48" stroke-width="0"/><rect x="90" y="30" width="135" height="60" fill="none" stroke="#95d600" stroke-miterlimit="10"/><path d="m39.52,141.17v1.56h-8.02v-12.92h8.01v1.56h-6.08v4.09h4.9v1.5h-4.9v4.21h6.09Z" fill="#333e48" stroke-width="0"/><path d="m49.28,141.12v1.61h-7.4v-12.92h1.92v11.31h5.48Z" fill="#333e48" stroke-width="0"/><path d="m58.76,141.39v1.34h-6.98v-1.34h2.74v-8.47c0-.27,0-.55.03-.84l-2.2,1.86c-.08.07-.17.11-.25.13-.08.02-.16.02-.24,0-.07-.01-.14-.04-.2-.08-.06-.04-.1-.08-.14-.12l-.55-.77,3.87-3.34h1.43v11.61h2.49Z" fill="#333e48" stroke-width="0"/><path d="m39.52,216.17v1.56h-8.02v-12.92h8.01v1.56h-6.08v4.09h4.9v1.5h-4.9v4.21h6.09Z" fill="#333e48" stroke-width="0"/><path d="m49.28,216.12v1.61h-7.4v-12.92h1.92v11.31h5.48Z" fill="#333e48" stroke-width="0"/><path d="m58.43,216.07c.19,0,.34.06.45.17.11.11.16.26.16.44v1.06h-8.68v-.6c0-.12.02-.25.07-.38s.13-.26.24-.36l4.09-4.1c.34-.34.65-.67.93-.99.28-.32.51-.63.7-.95.19-.31.34-.64.45-.97.11-.33.16-.68.16-1.04s-.06-.68-.17-.95c-.11-.27-.27-.5-.47-.68-.2-.18-.43-.31-.7-.4-.27-.09-.56-.14-.87-.14s-.6.05-.86.14c-.26.09-.49.22-.7.38s-.38.35-.51.58c-.14.22-.24.46-.3.72-.08.23-.19.38-.32.46-.13.08-.32.1-.56.05l-.92-.16c.08-.6.25-1.13.5-1.58s.56-.84.93-1.15c.37-.31.8-.54,1.28-.7.48-.16,1-.23,1.56-.23s1.08.08,1.56.25c.48.17.89.4,1.24.71.35.31.62.69.82,1.14.2.45.3.95.3,1.52,0,.48-.07.93-.21,1.34-.14.41-.33.8-.58,1.17-.24.37-.52.73-.85,1.08s-.66.71-1.02,1.07l-3.28,3.35c.25-.07.51-.12.76-.16s.5-.06.72-.06h4.08Z" fill="#333e48" stroke-width="0"/><path d="m131.8,136.44v5.04c-.65.47-1.35.82-2.09,1.05-.74.23-1.54.35-2.41.35-1.04,0-1.99-.16-2.83-.49s-1.56-.78-2.16-1.36c-.59-.58-1.05-1.28-1.37-2.09-.32-.81-.48-1.7-.48-2.67s.15-1.87.46-2.69c.31-.81.75-1.51,1.33-2.09s1.27-1.03,2.09-1.35c.82-.32,1.74-.48,2.76-.48.52,0,.99.04,1.44.12.44.08.85.19,1.23.33.38.14.73.32,1.05.52s.62.43.9.68l-.55.86c-.08.14-.2.22-.33.26s-.29,0-.45-.1c-.16-.09-.33-.2-.52-.32-.19-.12-.41-.23-.67-.33-.26-.1-.57-.19-.91-.26-.35-.07-.76-.11-1.23-.11-.71,0-1.35.12-1.92.35s-1.06.56-1.46.99c-.4.43-.71.95-.93,1.56-.22.61-.32,1.29-.32,2.05s.11,1.5.34,2.13c.23.63.55,1.16.97,1.59.42.43.92.77,1.52.99.6.23,1.26.34,2,.34.29,0,.56-.02.81-.05.25-.03.49-.08.72-.14.23-.06.45-.13.66-.23.21-.09.42-.19.63-.3v-2.71h-1.91c-.12,0-.22-.04-.29-.11-.08-.07-.11-.16-.11-.27v-1.09h4.05Z" fill="#333e48" stroke-width="0"/><path d="m141.47,133.59v9.14h-1.05c-.24,0-.4-.12-.47-.35l-.13-.92c-.2.21-.41.4-.62.58-.22.17-.45.32-.69.45s-.51.22-.78.29c-.28.07-.57.1-.89.1-.5,0-.95-.08-1.33-.25-.38-.17-.7-.4-.96-.71s-.45-.67-.58-1.09c-.13-.43-.2-.9-.2-1.41v-5.82h1.76v5.82c0,.65.15,1.16.45,1.53.3.36.76.54,1.38.54.45,0,.87-.11,1.26-.32.39-.21.76-.51,1.1-.88v-6.7h1.75Z" fill="#333e48" stroke-width="0"/><path d="m151.43,141.43c-.22.25-.46.47-.75.65-.28.18-.58.33-.9.45s-.65.2-.99.25-.67.08-1,.08c-.63,0-1.21-.11-1.75-.32s-1-.53-1.4-.94c-.39-.41-.7-.92-.92-1.53-.22-.61-.33-1.31-.33-2.1,0-.64.1-1.23.3-1.78.2-.55.48-1.03.85-1.44s.82-.73,1.35-.96c.53-.23,1.13-.35,1.8-.35.56,0,1.07.09,1.54.27.47.18.88.45,1.22.8.34.35.61.78.8,1.29.2.51.29,1.09.29,1.75,0,.27-.03.45-.09.54-.06.09-.17.14-.33.14h-5.99c.02.55.1,1.02.23,1.43.14.4.33.74.57,1.01.24.27.53.47.87.6s.71.2,1.12.2c.39,0,.73-.04,1.01-.13.29-.09.53-.19.74-.29.21-.1.38-.2.52-.29.14-.09.27-.13.37-.13.14,0,.25.05.33.16l.5.65Zm-1.45-4.28c0-.35-.05-.67-.15-.96s-.25-.55-.44-.77c-.19-.22-.43-.38-.7-.5s-.59-.18-.95-.18c-.74,0-1.32.21-1.74.64-.42.43-.69,1.02-.81,1.77h4.79Z" fill="#333e48" stroke-width="0"/><path d="m158.85,135.16c-.05.08-.1.13-.15.17-.05.03-.12.05-.21.05-.1,0-.2-.03-.32-.1-.12-.07-.26-.14-.42-.22s-.36-.15-.58-.22c-.22-.07-.49-.1-.79-.1-.25,0-.48.03-.69.09-.21.06-.38.15-.53.26-.14.11-.25.24-.33.4-.08.15-.12.32-.12.49,0,.23.07.42.2.57.13.15.31.28.53.39.22.11.47.21.75.29.28.09.56.18.85.27s.58.21.86.33c.28.12.53.28.75.46.22.18.4.4.53.66.14.26.2.57.2.95,0,.43-.08.82-.23,1.18-.15.36-.38.68-.67.94-.3.26-.67.47-1.1.62-.44.15-.94.22-1.5.22-.63,0-1.21-.1-1.75-.31-.53-.21-.98-.48-1.34-.8l.41-.68c.05-.08.11-.15.18-.19.07-.04.17-.07.29-.07.11,0,.23.04.35.13s.26.18.43.27c.17.1.37.19.61.27s.54.12.9.12c.3,0,.56-.04.78-.11.22-.08.41-.18.55-.31.15-.13.26-.28.33-.45.07-.17.11-.34.11-.53,0-.24-.07-.44-.2-.6s-.31-.3-.53-.41c-.22-.11-.47-.21-.75-.3-.28-.08-.57-.17-.86-.27s-.58-.21-.86-.33-.53-.29-.75-.48c-.22-.19-.4-.43-.53-.7-.13-.28-.2-.61-.2-1.01,0-.35.07-.69.22-1.02.15-.32.36-.61.64-.85.28-.25.62-.44,1.03-.59s.88-.22,1.41-.22c.61,0,1.15.1,1.64.29.49.19.91.46,1.25.79l-.39.64Z" fill="#333e48" stroke-width="0"/><path d="m164.14,142.87c-.74,0-1.31-.21-1.71-.62-.4-.41-.6-1-.6-1.77v-5.47h-1.06c-.1,0-.19-.03-.26-.09-.07-.06-.1-.16-.1-.28v-.71l1.48-.21.4-2.73c.02-.1.07-.18.14-.24.07-.06.16-.09.27-.09h.89v3.07h2.59v1.28h-2.59v5.35c0,.36.09.63.27.81s.4.27.68.27c.16,0,.3-.02.42-.06.12-.04.22-.09.3-.14.08-.05.16-.1.22-.14.06-.04.11-.06.16-.06.06,0,.11.01.14.04.03.03.07.07.1.13l.52.85c-.29.26-.63.47-1.03.61-.4.14-.81.22-1.23.22Z" fill="#333e48" stroke-width="0"/><path d="m184.74,136.27c0,.97-.15,1.85-.46,2.66-.31.81-.75,1.5-1.31,2.09-.56.58-1.24,1.04-2.03,1.36-.79.32-1.66.49-2.62.49s-1.83-.16-2.61-.49c-.79-.32-1.46-.78-2.03-1.36-.56-.58-1-1.28-1.31-2.09-.31-.81-.47-1.69-.47-2.66s.16-1.84.47-2.66c.31-.81.75-1.51,1.31-2.09.56-.58,1.24-1.04,2.03-1.37s1.66-.49,2.61-.49,1.83.16,2.62.49,1.46.78,2.03,1.37c.56.59,1,1.28,1.31,2.09.31.81.46,1.7.46,2.66Zm-1.96,0c0-.77-.1-1.46-.31-2.07-.21-.61-.51-1.13-.9-1.56-.39-.43-.86-.75-1.4-.98-.55-.23-1.16-.34-1.84-.34s-1.29.11-1.84.34c-.55.23-1.02.56-1.41.98-.39.43-.69.95-.9,1.56-.21.61-.32,1.3-.32,2.07s.11,1.47.32,2.07c.21.61.51,1.13.9,1.55.39.43.86.75,1.41.98.55.22,1.16.34,1.84.34s1.29-.11,1.84-.34c.55-.23,1.02-.55,1.4-.98.39-.43.68-.94.9-1.55.21-.61.31-1.3.31-2.07Z" fill="#333e48" stroke-width="0"/><path d="m193.83,131.91c-.06.1-.12.18-.19.23-.07.05-.15.07-.25.07s-.23-.05-.37-.15c-.14-.1-.31-.21-.52-.33-.21-.12-.45-.23-.74-.33-.29-.1-.63-.15-1.04-.15-.38,0-.71.05-.99.15-.29.1-.52.23-.72.41s-.34.37-.44.6c-.1.23-.15.48-.15.75,0,.35.09.64.27.86.18.23.41.42.7.58s.62.3.98.42c.37.12.74.25,1.12.37s.76.28,1.12.45c.37.17.69.38.98.63.29.26.52.57.7.94.18.37.26.82.26,1.35,0,.57-.1,1.1-.29,1.6-.2.5-.48.93-.85,1.31s-.83.66-1.37.88c-.54.21-1.16.32-1.85.32-.41,0-.82-.04-1.21-.12-.39-.08-.76-.2-1.11-.34-.35-.15-.67-.32-.98-.53s-.57-.44-.81-.7l.55-.92c.05-.07.12-.13.19-.18.08-.05.16-.07.26-.07.13,0,.27.07.44.2.17.13.37.28.61.44.24.16.53.3.87.44.34.13.75.2,1.24.2.4,0,.75-.05,1.06-.16.31-.1.58-.25.79-.45.21-.19.38-.43.49-.71.11-.28.17-.58.17-.92,0-.38-.09-.69-.26-.93-.17-.24-.41-.44-.69-.6s-.62-.3-.98-.41c-.37-.11-.74-.23-1.12-.36s-.76-.27-1.12-.43c-.37-.16-.69-.37-.98-.63-.29-.26-.52-.59-.69-.98-.17-.39-.26-.88-.26-1.45,0-.46.09-.91.27-1.34.18-.43.44-.81.79-1.15s.77-.6,1.27-.8,1.08-.3,1.73-.3c.73,0,1.39.12,2,.35.61.23,1.14.56,1.59,1l-.47.91Z" fill="#333e48" stroke-width="0"/><rect x="90" y="105" width="135" height="60" fill="none" stroke="#95d600" stroke-miterlimit="10"/><path d="m39.52,291.17v1.56h-8.02v-12.92h8.01v1.56h-6.08v4.09h4.9v1.5h-4.9v4.21h6.09Z" fill="#333e48" stroke-width="0"/><path d="m49.28,291.12v1.61h-7.4v-12.92h1.92v11.31h5.48Z" fill="#333e48" stroke-width="0"/><path d="m50.68,283.33c.09-.6.26-1.13.5-1.58s.55-.84.93-1.15c.37-.31.8-.54,1.28-.7.48-.16,1-.23,1.56-.23s1.07.08,1.54.24c.47.16.87.38,1.2.67s.59.64.78,1.05c.19.41.28.86.28,1.35,0,.41-.05.78-.15,1.1-.1.32-.25.6-.44.84-.19.24-.42.44-.69.61-.27.17-.57.3-.91.41.82.23,1.44.6,1.85,1.11.41.51.62,1.16.62,1.95,0,.61-.11,1.15-.34,1.63-.23.48-.54.89-.94,1.22-.4.33-.86.59-1.38.77-.53.18-1.08.26-1.68.26-.68,0-1.26-.08-1.75-.25-.49-.17-.9-.4-1.24-.69-.34-.3-.63-.65-.85-1.07-.23-.42-.42-.88-.57-1.37l.77-.32c.2-.08.39-.11.58-.07.19.04.32.14.4.31.09.18.19.38.31.61.12.23.27.44.47.64s.45.37.74.51c.3.14.67.21,1.12.21s.81-.07,1.13-.21.59-.32.81-.55c.22-.23.38-.48.49-.75.11-.28.16-.55.16-.82,0-.34-.04-.64-.13-.93s-.24-.52-.48-.72c-.24-.2-.57-.36-.99-.47-.42-.11-.97-.17-1.64-.17v-1.28c.55,0,1.02-.06,1.4-.17.38-.11.69-.26.92-.45.23-.19.4-.42.51-.68.1-.26.16-.56.16-.88,0-.35-.05-.66-.16-.93-.11-.26-.26-.48-.45-.66-.2-.18-.43-.31-.69-.4-.27-.09-.56-.13-.87-.13s-.6.05-.86.14c-.26.09-.5.22-.7.38s-.38.35-.51.58c-.14.22-.24.46-.3.72-.08.23-.19.38-.32.46s-.31.1-.55.05l-.93-.16Z" fill="#333e48" stroke-width="0"/><path d="m138.25,281.91c-.06.1-.12.18-.19.23-.07.05-.15.07-.25.07s-.23-.05-.37-.15c-.14-.1-.31-.21-.52-.33-.21-.12-.45-.23-.74-.33-.29-.1-.63-.15-1.04-.15-.38,0-.71.05-.99.15-.29.1-.52.23-.72.41s-.34.37-.44.6c-.1.23-.15.48-.15.75,0,.35.09.64.27.86.18.23.41.42.7.58s.62.3.98.42c.37.12.74.25,1.12.37s.76.28,1.12.45c.37.17.69.38.98.63.29.26.52.57.7.94.18.37.26.82.26,1.35,0,.57-.1,1.1-.29,1.6-.2.5-.48.93-.85,1.31s-.83.66-1.37.88c-.54.21-1.16.32-1.85.32-.41,0-.82-.04-1.21-.12-.39-.08-.76-.2-1.11-.34-.35-.15-.67-.32-.98-.53s-.57-.44-.81-.7l.55-.92c.05-.07.12-.13.19-.18.08-.05.16-.07.26-.07.13,0,.27.07.44.2.17.13.37.28.61.44.24.16.53.3.87.44.34.13.75.2,1.24.2.4,0,.75-.05,1.06-.16.31-.1.58-.25.79-.45.21-.19.38-.43.49-.71.11-.28.17-.58.17-.92,0-.38-.09-.69-.26-.93-.17-.24-.41-.44-.69-.6s-.62-.3-.98-.41c-.37-.11-.74-.23-1.12-.36s-.76-.27-1.12-.43c-.37-.16-.69-.37-.98-.63-.29-.26-.52-.59-.69-.98-.17-.39-.26-.88-.26-1.45,0-.46.09-.91.27-1.34.18-.43.44-.81.79-1.15s.77-.6,1.27-.8,1.08-.3,1.73-.3c.73,0,1.39.12,2,.35.61.23,1.14.56,1.59,1l-.47.91Z" fill="#333e48" stroke-width="0"/><path d="m148.46,291.43c-.22.25-.46.47-.75.65-.28.18-.58.33-.9.45s-.65.2-.99.25-.67.08-1,.08c-.63,0-1.21-.11-1.75-.32s-1-.53-1.4-.94c-.39-.41-.7-.92-.92-1.53-.22-.61-.33-1.31-.33-2.1,0-.64.1-1.23.3-1.78.2-.55.48-1.03.85-1.44s.82-.73,1.35-.96c.53-.23,1.13-.35,1.8-.35.56,0,1.07.09,1.54.27.47.18.88.45,1.22.8.34.35.61.78.8,1.29.2.51.29,1.09.29,1.75,0,.27-.03.45-.09.54-.06.09-.17.14-.33.14h-5.99c.02.55.1,1.02.23,1.43.14.4.33.74.57,1.01.24.27.53.47.87.6s.71.2,1.12.2c.39,0,.73-.04,1.01-.13.29-.09.53-.19.74-.29.21-.1.38-.2.52-.29.14-.09.27-.13.37-.13.14,0,.25.05.33.16l.5.65Zm-1.45-4.28c0-.35-.05-.67-.15-.96s-.25-.55-.44-.77c-.19-.22-.43-.38-.7-.5s-.59-.18-.95-.18c-.74,0-1.32.21-1.74.64-.42.43-.69,1.02-.81,1.77h4.79Z" fill="#333e48" stroke-width="0"/><path d="m156.89,285.3c-.05.07-.11.12-.16.16s-.12.06-.22.06-.2-.04-.3-.11c-.11-.08-.24-.16-.4-.24s-.35-.17-.58-.24c-.22-.08-.5-.11-.83-.11-.43,0-.81.08-1.14.23-.33.16-.6.38-.82.67s-.39.64-.5,1.05c-.11.41-.17.88-.17,1.39s.06,1.01.18,1.43.29.77.51,1.05.49.5.81.65c.32.15.67.22,1.06.22s.69-.05.94-.14c.25-.09.45-.19.61-.3.16-.11.3-.21.41-.3s.22-.14.33-.14c.14,0,.25.05.33.16l.5.65c-.21.26-.45.48-.71.66-.26.18-.54.33-.83.44s-.6.2-.92.25c-.32.05-.65.08-.98.08-.57,0-1.1-.11-1.6-.32s-.92-.52-1.29-.92c-.36-.4-.65-.9-.86-1.48-.21-.58-.32-1.25-.32-1.99,0-.68.09-1.3.28-1.88.19-.58.47-1.07.84-1.49.37-.42.82-.74,1.36-.98s1.16-.36,1.85-.36c.65,0,1.23.11,1.73.32s.94.51,1.33.89l-.47.65Z" fill="#333e48" stroke-width="0"/><path d="m166.7,283.59v9.14h-1.05c-.24,0-.4-.12-.47-.35l-.13-.92c-.2.21-.41.4-.62.58-.22.17-.45.32-.69.45s-.51.22-.78.29c-.28.07-.57.1-.89.1-.5,0-.95-.08-1.33-.25-.38-.17-.7-.4-.96-.71s-.45-.67-.58-1.09c-.13-.43-.2-.9-.2-1.41v-5.82h1.76v5.82c0,.65.15,1.16.45,1.53.3.36.76.54,1.38.54.45,0,.87-.11,1.26-.32.39-.21.76-.51,1.1-.88v-6.7h1.75Z" fill="#333e48" stroke-width="0"/><path d="m170.81,285.34c.29-.6.65-1.07,1.06-1.41s.91-.51,1.49-.51c.2,0,.38.02.56.07.18.04.33.11.46.2l-.12,1.32c-.04.16-.14.24-.3.24-.08,0-.21-.02-.38-.05s-.35-.05-.54-.05c-.28,0-.53.04-.75.12-.22.08-.41.2-.58.36s-.32.35-.45.58c-.13.23-.26.49-.37.79v5.72h-1.75v-9.14h1.01c.19,0,.32.03.39.1s.12.19.15.36l.11,1.29Z" fill="#333e48" stroke-width="0"/><path d="m182.92,291.43c-.22.25-.46.47-.75.65-.28.18-.58.33-.9.45s-.65.2-.99.25-.67.08-1,.08c-.63,0-1.21-.11-1.75-.32s-1-.53-1.4-.94c-.39-.41-.7-.92-.92-1.53-.22-.61-.33-1.31-.33-2.1,0-.64.1-1.23.3-1.78.2-.55.48-1.03.85-1.44s.82-.73,1.35-.96c.53-.23,1.13-.35,1.8-.35.56,0,1.07.09,1.54.27.47.18.88.45,1.22.8.34.35.61.78.8,1.29.2.51.29,1.09.29,1.75,0,.27-.03.45-.09.54-.06.09-.17.14-.33.14h-5.99c.02.55.1,1.02.23,1.43.14.4.33.74.57,1.01.24.27.53.47.87.6s.71.2,1.12.2c.39,0,.73-.04,1.01-.13.29-.09.53-.19.74-.29.21-.1.38-.2.52-.29.14-.09.27-.13.37-.13.14,0,.25.05.33.16l.5.65Zm-1.45-4.28c0-.35-.05-.67-.15-.96s-.25-.55-.44-.77c-.19-.22-.43-.38-.7-.5s-.59-.18-.95-.18c-.74,0-1.32.21-1.74.64-.42.43-.69,1.02-.81,1.77h4.79Z" fill="#333e48" stroke-width="0"/><path d="m203.43,279.81v12.92h-1.67v-9.2c0-.14,0-.28.01-.44s.02-.32.03-.48l-4.3,7.89c-.15.29-.38.44-.69.44h-.27c-.31,0-.54-.15-.68-.44l-4.38-7.92c.04.34.05.65.05.94v9.2h-1.68v-12.92h1.42c.17,0,.3.02.39.05.09.03.18.12.27.27l4.32,7.74c.08.16.16.32.23.5.07.17.14.35.21.52.13-.35.27-.7.44-1.03l4.24-7.73c.08-.15.16-.24.26-.27.09-.03.22-.05.39-.05h1.42Z" fill="#333e48" stroke-width="0"/><path d="m209.89,283.44c.67,0,1.28.11,1.82.33.54.22,1,.53,1.39.95.38.41.67.91.88,1.49s.31,1.23.31,1.95-.1,1.37-.31,1.95-.5,1.08-.88,1.49c-.38.41-.84.72-1.39.94-.54.22-1.15.33-1.82.33s-1.29-.11-1.83-.33c-.54-.22-1.01-.53-1.39-.94-.38-.41-.68-.9-.89-1.49s-.31-1.23-.31-1.95.1-1.37.31-1.95.5-1.07.89-1.49.85-.73,1.39-.95c.54-.22,1.15-.33,1.83-.33Zm0,8.05c.86,0,1.51-.29,1.94-.87.43-.58.64-1.4.64-2.46s-.21-1.88-.64-2.46c-.43-.58-1.07-.88-1.94-.88s-1.53.29-1.96.88c-.43.58-.64,1.41-.64,2.46s.21,1.88.64,2.46c.43.58,1.08.87,1.96.87Z" fill="#333e48" stroke-width="0"/><path d="m217.88,284.86c.2-.21.41-.4.62-.58s.45-.32.69-.45.5-.22.78-.29c.28-.07.58-.1.9-.1.5,0,.95.08,1.33.25s.7.4.96.71c.26.3.45.67.58,1.09.13.43.2.9.2,1.41v5.82h-1.76v-5.82c0-.65-.15-1.16-.45-1.53-.3-.36-.76-.54-1.38-.54-.45,0-.87.11-1.26.32-.39.21-.76.5-1.09.87v6.71h-1.75v-9.14h1.05c.25,0,.4.12.46.35l.13.92Z" fill="#333e48" stroke-width="0"/><path d="m228.47,280.76c0,.16-.03.32-.1.46-.07.15-.15.28-.27.39s-.24.2-.39.26c-.15.06-.31.09-.47.09s-.31-.03-.46-.09c-.14-.06-.27-.15-.38-.26s-.2-.24-.26-.39c-.06-.15-.09-.3-.09-.46s.03-.33.09-.47c.06-.15.15-.28.26-.39.11-.11.24-.2.38-.26.14-.06.3-.09.46-.09s.32.03.47.09c.15.06.28.15.39.26.11.11.2.24.27.39.07.15.1.3.1.47Zm-.33,2.83v9.14h-1.75v-9.14h1.75Z" fill="#333e48" stroke-width="0"/><path d="m233.55,292.87c-.74,0-1.31-.21-1.71-.62-.4-.41-.6-1-.6-1.77v-5.47h-1.06c-.1,0-.19-.03-.26-.09-.07-.06-.1-.16-.1-.28v-.71l1.48-.21.4-2.73c.02-.1.07-.18.14-.24.07-.06.16-.09.27-.09h.89v3.07h2.59v1.28h-2.59v5.35c0,.36.09.63.27.81s.4.27.68.27c.16,0,.3-.02.42-.06.12-.04.22-.09.3-.14.08-.05.16-.1.22-.14.06-.04.11-.06.16-.06.06,0,.11.01.14.04.03.03.07.07.1.13l.52.85c-.29.26-.63.47-1.03.61-.4.14-.81.22-1.23.22Z" fill="#333e48" stroke-width="0"/><path d="m241.05,283.44c.67,0,1.28.11,1.82.33.54.22,1,.53,1.39.95.38.41.67.91.88,1.49s.31,1.23.31,1.95-.1,1.37-.31,1.95-.5,1.08-.88,1.49c-.38.41-.84.72-1.39.94-.54.22-1.15.33-1.82.33s-1.29-.11-1.83-.33c-.54-.22-1.01-.53-1.39-.94-.38-.41-.68-.9-.89-1.49s-.31-1.23-.31-1.95.1-1.37.31-1.95.5-1.07.89-1.49.85-.73,1.39-.95c.54-.22,1.15-.33,1.83-.33Zm0,8.05c.86,0,1.51-.29,1.94-.87.43-.58.64-1.4.64-2.46s-.21-1.88-.64-2.46c-.43-.58-1.07-.88-1.94-.88s-1.53.29-1.96.88c-.43.58-.64,1.41-.64,2.46s.21,1.88.64,2.46c.43.58,1.08.87,1.96.87Z" fill="#333e48" stroke-width="0"/><path d="m249.05,285.34c.29-.6.65-1.07,1.06-1.41s.91-.51,1.49-.51c.2,0,.38.02.56.07.18.04.33.11.46.2l-.12,1.32c-.04.16-.14.24-.3.24-.08,0-.21-.02-.38-.05s-.35-.05-.54-.05c-.28,0-.53.04-.75.12-.22.08-.41.2-.58.36s-.32.35-.45.58c-.13.23-.26.49-.37.79v5.72h-1.75v-9.14h1.01c.19,0,.32.03.39.1s.12.19.15.36l.11,1.29Z" fill="#333e48" stroke-width="0"/><path d="m254.29,292.87c-.08.23-.22.4-.4.51s-.37.17-.56.17h-.74l5.36-13.46c.08-.2.21-.36.36-.47.16-.11.34-.17.55-.17h.75l-5.34,13.43Z" fill="#333e48" stroke-width="0"/><path d="m263.73,281.36v4.33h5.18v1.56h-5.18v5.48h-1.93v-12.92h8.01v1.56h-6.08Z" fill="#333e48" stroke-width="0"/><path d="m273.75,280.76c0,.16-.03.32-.1.46-.07.15-.15.28-.27.39s-.24.2-.39.26c-.15.06-.31.09-.47.09s-.31-.03-.46-.09c-.14-.06-.27-.15-.38-.26s-.2-.24-.26-.39c-.06-.15-.09-.3-.09-.46s.03-.33.09-.47c.06-.15.15-.28.26-.39.11-.11.24-.2.38-.26.14-.06.3-.09.46-.09s.32.03.47.09c.15.06.28.15.39.26.11.11.2.24.27.39.07.15.1.3.1.47Zm-.33,2.83v9.14h-1.75v-9.14h1.75Z" fill="#333e48" stroke-width="0"/><path d="m277.62,285.34c.29-.6.65-1.07,1.06-1.41s.91-.51,1.49-.51c.2,0,.38.02.56.07.18.04.33.11.46.2l-.12,1.32c-.04.16-.14.24-.3.24-.08,0-.21-.02-.38-.05s-.35-.05-.54-.05c-.28,0-.53.04-.75.12-.22.08-.41.2-.58.36s-.32.35-.45.58c-.13.23-.26.49-.37.79v5.72h-1.75v-9.14h1.01c.19,0,.32.03.39.1s.12.19.15.36l.11,1.29Z" fill="#333e48" stroke-width="0"/><path d="m282.56,292.73v-9.14h1.05c.25,0,.4.12.46.35l.13.87c.34-.4.71-.73,1.12-.99s.89-.38,1.44-.38c.61,0,1.1.17,1.48.5s.65.78.83,1.35c.13-.32.3-.6.51-.84.21-.23.44-.43.7-.58.26-.15.53-.26.82-.33.29-.07.59-.11.89-.11.49,0,.92.08,1.3.23.38.15.7.38.97.67.26.29.46.66.6,1.09.14.43.21.92.21,1.48v5.82h-1.76v-5.82c0-.68-.15-1.2-.45-1.55s-.73-.52-1.3-.52c-.25,0-.49.04-.72.13-.23.09-.43.22-.6.39-.17.17-.31.39-.4.65-.1.26-.15.56-.15.9v5.82h-1.76v-5.82c0-.71-.14-1.23-.42-1.57s-.7-.5-1.24-.5c-.38,0-.73.1-1.05.3-.32.2-.62.47-.89.81v6.79h-1.75Z" fill="#333e48" stroke-width="0"/><path d="m310.1,283.59l-2.94,9.14h-1.4c-.17,0-.28-.11-.34-.33l-1.93-5.96c-.05-.15-.09-.3-.13-.45-.04-.15-.07-.3-.1-.45-.05.31-.13.61-.23.91l-1.95,5.94c-.06.22-.19.33-.39.33h-1.33l-2.95-9.14h1.39c.14,0,.25.03.35.1.09.07.15.15.18.25l1.65,5.62c.05.23.1.45.14.67s.08.43.12.65c.05-.22.11-.43.18-.65.06-.22.13-.44.19-.67l1.83-5.65c.03-.1.09-.18.17-.25.08-.06.19-.09.31-.09h.77c.13,0,.24.03.33.09.09.06.15.15.18.25l1.78,5.65c.07.23.13.45.19.67.06.22.11.44.16.66.04-.22.08-.43.13-.65.05-.22.1-.45.16-.68l1.67-5.62c.03-.1.09-.19.18-.25s.2-.1.32-.1h1.32Z" fill="#333e48" stroke-width="0"/><path d="m311.25,284.86c.51-.49,1.06-.85,1.66-1.09.6-.24,1.25-.36,1.97-.36.52,0,.98.09,1.39.26.4.17.74.41,1.02.72.28.31.48.67.62,1.1s.21.9.21,1.41v5.83h-.78c-.17,0-.31-.03-.4-.09-.09-.06-.16-.16-.22-.32l-.19-.8c-.23.22-.46.41-.69.57-.23.17-.47.31-.72.42-.25.12-.51.21-.8.27-.28.06-.59.09-.94.09s-.7-.05-1.01-.15c-.32-.1-.59-.25-.82-.45-.23-.2-.42-.46-.55-.76-.14-.31-.2-.66-.2-1.07,0-.36.1-.71.29-1.04.19-.33.51-.63.95-.9.44-.26,1.02-.48,1.73-.65s1.59-.26,2.62-.29v-.67c0-.69-.15-1.21-.44-1.55s-.73-.51-1.3-.51c-.38,0-.71.05-.97.14s-.49.2-.67.32c-.19.12-.35.22-.5.32-.14.1-.29.14-.44.14-.12,0-.22-.03-.31-.1-.09-.07-.16-.14-.21-.23l-.32-.57Zm5.15,3.81c-.71.02-1.32.08-1.82.17s-.9.2-1.21.35c-.31.14-.54.31-.67.51-.14.19-.21.41-.21.65,0,.23.04.42.11.59s.18.3.31.41c.13.11.28.18.46.23.17.05.36.07.57.07.27,0,.52-.03.74-.08.23-.05.44-.13.63-.23s.39-.22.57-.36c.18-.14.36-.31.53-.5v-1.8Z" fill="#333e48" stroke-width="0"/><path d="m322.14,285.34c.29-.6.65-1.07,1.06-1.41s.91-.51,1.49-.51c.2,0,.38.02.56.07.18.04.33.11.46.2l-.12,1.32c-.04.16-.14.24-.3.24-.08,0-.21-.02-.38-.05s-.35-.05-.54-.05c-.28,0-.53.04-.75.12-.22.08-.41.2-.58.36s-.32.35-.45.58c-.13.23-.26.49-.37.79v5.72h-1.75v-9.14h1.01c.19,0,.32.03.39.1s.12.19.15.36l.11,1.29Z" fill="#333e48" stroke-width="0"/><path d="m334.24,291.43c-.22.25-.46.47-.75.65-.28.18-.58.33-.9.45s-.65.2-.99.25-.67.08-1,.08c-.63,0-1.21-.11-1.75-.32s-1-.53-1.4-.94c-.39-.41-.7-.92-.92-1.53-.22-.61-.33-1.31-.33-2.1,0-.64.1-1.23.3-1.78.2-.55.48-1.03.85-1.44s.82-.73,1.35-.96c.53-.23,1.13-.35,1.8-.35.56,0,1.07.09,1.54.27.47.18.88.45,1.22.8.34.35.61.78.8,1.29.2.51.29,1.09.29,1.75,0,.27-.03.45-.09.54-.06.09-.17.14-.33.14h-5.99c.02.55.1,1.02.23,1.43.14.4.33.74.57,1.01.24.27.53.47.87.6s.71.2,1.12.2c.39,0,.73-.04,1.01-.13.29-.09.53-.19.74-.29.21-.1.38-.2.52-.29.14-.09.27-.13.37-.13.14,0,.25.05.33.16l.5.65Zm-1.45-4.28c0-.35-.05-.67-.15-.96s-.25-.55-.44-.77c-.19-.22-.43-.38-.7-.5s-.59-.18-.95-.18c-.74,0-1.32.21-1.74.64-.42.43-.69,1.02-.81,1.77h4.79Z" fill="#333e48" stroke-width="0"/><rect x="90" y="255" width="285" height="60" fill="none" stroke="#95d600" stroke-miterlimit="10"/><path d="m295.12,67.73h-1.48c-.17,0-.31-.04-.41-.13-.11-.08-.19-.19-.23-.32l-1.14-3h-5.7l-1.14,3c-.04.11-.12.22-.23.31-.11.09-.25.14-.41.14h-1.48l5.15-12.92h1.93l5.15,12.92Zm-3.79-4.82l-1.92-5.01c-.14-.34-.28-.77-.41-1.3-.07.26-.13.5-.2.72-.07.22-.14.42-.2.59l-1.91,4.99h4.64Z" fill="#333e48" stroke-width="0"/><path d="m298,59.95c.19-.23.4-.44.62-.62.22-.19.45-.35.71-.49s.52-.24.81-.31.59-.11.91-.11c.52,0,.99.1,1.42.31s.78.5,1.08.9c.3.4.53.89.7,1.47s.25,1.25.25,2.01c0,.68-.09,1.31-.27,1.89-.18.58-.44,1.08-.78,1.51-.34.43-.75.76-1.24,1-.49.24-1.04.36-1.65.36-.55,0-1.01-.09-1.4-.27-.39-.18-.74-.43-1.04-.76v3.97h-1.75v-12.21h1.05c.25,0,.4.12.46.35l.15,1.02Zm.09,5.53c.29.38.6.64.93.79.33.15.71.22,1.12.22.8,0,1.43-.29,1.87-.87.44-.58.66-1.42.66-2.53,0-.58-.05-1.08-.15-1.49-.1-.41-.24-.75-.43-1.01-.19-.26-.42-.45-.7-.58-.28-.12-.59-.18-.94-.18-.51,0-.95.11-1.33.34-.38.23-.72.55-1.04.97v4.33Z" fill="#333e48" stroke-width="0"/><path d="m308.12,59.95c.19-.23.4-.44.62-.62.22-.19.45-.35.71-.49s.52-.24.81-.31.59-.11.91-.11c.52,0,.99.1,1.42.31s.78.5,1.08.9c.3.4.53.89.7,1.47s.25,1.25.25,2.01c0,.68-.09,1.31-.27,1.89-.18.58-.44,1.08-.78,1.51-.34.43-.75.76-1.24,1-.49.24-1.04.36-1.65.36-.55,0-1.01-.09-1.4-.27-.39-.18-.74-.43-1.04-.76v3.97h-1.75v-12.21h1.05c.25,0,.4.12.46.35l.15,1.02Zm.09,5.53c.29.38.6.64.93.79.33.15.71.22,1.12.22.8,0,1.43-.29,1.87-.87.44-.58.66-1.42.66-2.53,0-.58-.05-1.08-.15-1.49-.1-.41-.24-.75-.43-1.01-.19-.26-.42-.45-.7-.58-.28-.12-.59-.18-.94-.18-.51,0-.95.11-1.33.34-.38.23-.72.55-1.04.97v4.33Z" fill="#333e48" stroke-width="0"/><path d="m317.66,62.08c0,1.27.16,2.51.48,3.72.32,1.21.78,2.35,1.39,3.43.1.2.13.35.08.46-.05.11-.12.19-.22.26l-.78.48c-.45-.69-.83-1.38-1.15-2.06-.32-.68-.57-1.37-.76-2.05-.2-.69-.34-1.38-.43-2.08s-.13-1.42-.13-2.15.04-1.46.13-2.16c.09-.7.23-1.4.43-2.08.19-.69.45-1.37.76-2.05.31-.68.7-1.37,1.15-2.06l.78.48c.1.07.18.15.22.26.05.11.02.26-.08.46-.61,1.08-1.08,2.22-1.39,3.43-.32,1.21-.48,2.45-.48,3.72Z" fill="#333e48" stroke-width="0"/><path d="m326.48,60.16c-.05.08-.1.13-.15.17-.05.03-.12.05-.21.05-.1,0-.2-.03-.32-.1-.12-.07-.26-.14-.42-.22s-.36-.15-.58-.22c-.22-.07-.49-.1-.79-.1-.25,0-.48.03-.69.09-.21.06-.38.15-.53.26-.14.11-.25.24-.33.4-.08.15-.12.32-.12.49,0,.23.07.42.2.57.13.15.31.28.53.39.22.11.47.21.75.29.28.09.56.18.85.27s.58.21.86.33c.28.12.53.28.75.46.22.18.4.4.53.66.14.26.2.57.2.95,0,.43-.08.82-.23,1.18-.15.36-.38.68-.67.94-.3.26-.67.47-1.1.62-.44.15-.94.22-1.5.22-.63,0-1.21-.1-1.75-.31-.53-.21-.98-.48-1.34-.8l.41-.68c.05-.08.11-.15.18-.19.07-.04.17-.07.29-.07.11,0,.23.04.35.13s.26.18.43.27c.17.1.37.19.61.27s.54.12.9.12c.3,0,.56-.04.78-.11.22-.08.41-.18.55-.31.15-.13.26-.28.33-.45.07-.17.11-.34.11-.53,0-.24-.07-.44-.2-.6s-.31-.3-.53-.41c-.22-.11-.47-.21-.75-.3-.28-.08-.57-.17-.86-.27s-.58-.21-.86-.33-.53-.29-.75-.48c-.22-.19-.4-.43-.53-.7-.13-.28-.2-.61-.2-1.01,0-.35.07-.69.22-1.02.15-.32.36-.61.64-.85.28-.25.62-.44,1.03-.59s.88-.22,1.41-.22c.61,0,1.15.1,1.64.29.49.19.91.46,1.25.79l-.39.64Z" fill="#333e48" stroke-width="0"/><path d="m329.82,62.08c0-1.27-.16-2.51-.48-3.72-.32-1.21-.79-2.35-1.4-3.43-.1-.2-.13-.35-.08-.46.05-.11.13-.2.23-.26l.78-.48c.45.69.83,1.38,1.14,2.06.31.68.57,1.37.76,2.05.2.69.34,1.38.43,2.08.09.7.14,1.42.14,2.16s-.04,1.45-.14,2.15c-.09.7-.23,1.4-.43,2.08-.2.69-.45,1.37-.76,2.05-.31.68-.69,1.37-1.14,2.06l-.78-.48c-.1-.07-.18-.15-.23-.26-.05-.11-.03-.26.08-.46.61-1.08,1.08-2.22,1.4-3.43.32-1.21.48-2.45.48-3.72Z" fill="#333e48" stroke-width="0"/><rect x="240" y="30" width="135" height="60" fill="none" stroke="#00c1de" stroke-miterlimit="10"/><path d="m286.25,129.81v12.92h-1.92v-5.82h-6.74v5.82h-1.93v-12.92h1.93v5.71h6.74v-5.71h1.92Z" fill="#333e48" stroke-width="0"/><path d="m292.7,133.44c.67,0,1.28.11,1.82.33.54.22,1,.53,1.39.95.38.41.67.91.88,1.49s.31,1.23.31,1.95-.1,1.37-.31,1.95-.5,1.08-.88,1.49c-.38.41-.84.72-1.39.94-.54.22-1.15.33-1.82.33s-1.29-.11-1.83-.33c-.54-.22-1.01-.53-1.39-.94-.38-.41-.68-.9-.89-1.49s-.31-1.23-.31-1.95.1-1.37.31-1.95.5-1.07.89-1.49.85-.73,1.39-.95c.54-.22,1.15-.33,1.83-.33Zm0,8.05c.86,0,1.51-.29,1.94-.87.43-.58.64-1.4.64-2.46s-.21-1.88-.64-2.46c-.43-.58-1.07-.88-1.94-.88s-1.53.29-1.96.88c-.43.58-.64,1.41-.64,2.46s.21,1.88.64,2.46c.43.58,1.08.87,1.96.87Z" fill="#333e48" stroke-width="0"/><path d="m304.44,135.16c-.05.08-.1.13-.15.17-.05.03-.12.05-.21.05-.1,0-.2-.03-.32-.1-.12-.07-.26-.14-.42-.22s-.36-.15-.58-.22c-.22-.07-.49-.1-.79-.1-.25,0-.48.03-.69.09-.21.06-.38.15-.53.26-.14.11-.25.24-.33.4-.08.15-.12.32-.12.49,0,.23.07.42.2.57.13.15.31.28.53.39.22.11.47.21.75.29.28.09.56.18.85.27s.58.21.86.33c.28.12.53.28.75.46.22.18.4.4.53.66.14.26.2.57.2.95,0,.43-.08.82-.23,1.18-.15.36-.38.68-.67.94-.3.26-.67.47-1.1.62-.44.15-.94.22-1.5.22-.63,0-1.21-.1-1.75-.31-.53-.21-.98-.48-1.34-.8l.41-.68c.05-.08.11-.15.18-.19.07-.04.17-.07.29-.07.11,0,.23.04.35.13s.26.18.43.27c.17.1.37.19.61.27s.54.12.9.12c.3,0,.56-.04.78-.11.22-.08.41-.18.55-.31.15-.13.26-.28.33-.45.07-.17.11-.34.11-.53,0-.24-.07-.44-.2-.6s-.31-.3-.53-.41c-.22-.11-.47-.21-.75-.3-.28-.08-.57-.17-.86-.27s-.58-.21-.86-.33-.53-.29-.75-.48c-.22-.19-.4-.43-.53-.7-.13-.28-.2-.61-.2-1.01,0-.35.07-.69.22-1.02.15-.32.36-.61.64-.85.28-.25.62-.44,1.03-.59s.88-.22,1.41-.22c.61,0,1.15.1,1.64.29.49.19.91.46,1.25.79l-.39.64Z" fill="#333e48" stroke-width="0"/><path d="m309.73,142.87c-.74,0-1.31-.21-1.71-.62-.4-.41-.6-1-.6-1.77v-5.47h-1.06c-.1,0-.19-.03-.26-.09-.07-.06-.1-.16-.1-.28v-.71l1.48-.21.4-2.73c.02-.1.07-.18.14-.24.07-.06.16-.09.27-.09h.89v3.07h2.59v1.28h-2.59v5.35c0,.36.09.63.27.81s.4.27.68.27c.16,0,.3-.02.42-.06.12-.04.22-.09.3-.14.08-.05.16-.1.22-.14.06-.04.11-.06.16-.06.06,0,.11.01.14.04.03.03.07.07.1.13l.52.85c-.29.26-.63.47-1.03.61-.4.14-.81.22-1.23.22Z" fill="#333e48" stroke-width="0"/><path d="m330.33,136.27c0,.97-.15,1.85-.46,2.66-.31.81-.75,1.5-1.31,2.09-.56.58-1.24,1.04-2.03,1.36-.79.32-1.66.49-2.62.49s-1.83-.16-2.61-.49c-.79-.32-1.46-.78-2.03-1.36-.56-.58-1-1.28-1.31-2.09-.31-.81-.47-1.69-.47-2.66s.16-1.84.47-2.66c.31-.81.75-1.51,1.31-2.09.56-.58,1.24-1.04,2.03-1.37s1.66-.49,2.61-.49,1.83.16,2.62.49,1.46.78,2.03,1.37c.56.59,1,1.28,1.31,2.09.31.81.46,1.7.46,2.66Zm-1.96,0c0-.77-.1-1.46-.31-2.07-.21-.61-.51-1.13-.9-1.56-.39-.43-.86-.75-1.4-.98-.55-.23-1.16-.34-1.84-.34s-1.29.11-1.84.34c-.55.23-1.02.56-1.41.98-.39.43-.69.95-.9,1.56-.21.61-.32,1.3-.32,2.07s.11,1.47.32,2.07c.21.61.51,1.13.9,1.55.39.43.86.75,1.41.98.55.22,1.16.34,1.84.34s1.29-.11,1.84-.34c.55-.23,1.02-.55,1.4-.98.39-.43.68-.94.9-1.55.21-.61.31-1.3.31-2.07Z" fill="#333e48" stroke-width="0"/><path d="m339.42,131.91c-.06.1-.12.18-.19.23-.07.05-.15.07-.25.07s-.23-.05-.37-.15c-.14-.1-.31-.21-.52-.33-.21-.12-.45-.23-.74-.33-.29-.1-.63-.15-1.04-.15-.38,0-.71.05-.99.15-.29.1-.52.23-.72.41s-.34.37-.44.6c-.1.23-.15.48-.15.75,0,.35.09.64.27.86.18.23.41.42.7.58s.62.3.98.42c.37.12.74.25,1.12.37s.76.28,1.12.45c.37.17.69.38.98.63.29.26.52.57.7.94.18.37.26.82.26,1.35,0,.57-.1,1.1-.29,1.6-.2.5-.48.93-.85,1.31s-.83.66-1.37.88c-.54.21-1.16.32-1.85.32-.41,0-.82-.04-1.21-.12-.39-.08-.76-.2-1.11-.34-.35-.15-.67-.32-.98-.53s-.57-.44-.81-.7l.55-.92c.05-.07.12-.13.19-.18.08-.05.16-.07.26-.07.13,0,.27.07.44.2.17.13.37.28.61.44.24.16.53.3.87.44.34.13.75.2,1.24.2.4,0,.75-.05,1.06-.16.31-.1.58-.25.79-.45.21-.19.38-.43.49-.71.11-.28.17-.58.17-.92,0-.38-.09-.69-.26-.93-.17-.24-.41-.44-.69-.6s-.62-.3-.98-.41c-.37-.11-.74-.23-1.12-.36s-.76-.27-1.12-.43c-.37-.16-.69-.37-.98-.63-.29-.26-.52-.59-.69-.98-.17-.39-.26-.88-.26-1.45,0-.46.09-.91.27-1.34.18-.43.44-.81.79-1.15s.77-.6,1.27-.8,1.08-.3,1.73-.3c.73,0,1.39.12,2,.35.61.23,1.14.56,1.59,1l-.47.91Z" fill="#333e48" stroke-width="0"/><rect x="240" y="105" width="135" height="60" fill="none" stroke="#00c1de" stroke-miterlimit="10"/><path d="m201.09,204.81v12.92h-1.92v-5.82h-6.74v5.82h-1.93v-12.92h1.93v5.71h6.74v-5.71h1.92Z" fill="#333e48" stroke-width="0"/><path d="m211.72,208.59l-5.08,11.8c-.05.13-.13.23-.22.31-.09.07-.22.11-.4.11h-1.3l1.67-3.65-3.75-8.57h1.53c.15,0,.27.04.35.11s.14.15.18.24l2.32,5.49c.05.14.09.28.14.42.04.14.08.28.11.42.04-.14.09-.29.13-.43s.1-.28.15-.42l2.24-5.48c.04-.1.11-.19.2-.25.09-.07.19-.1.31-.1h1.4Z" fill="#333e48" stroke-width="0"/><path d="m214.72,209.95c.19-.23.4-.44.62-.62.22-.19.45-.35.71-.49s.52-.24.81-.31.59-.11.91-.11c.52,0,.99.1,1.42.31s.78.5,1.08.9c.3.4.53.89.7,1.47s.25,1.25.25,2.01c0,.68-.09,1.31-.27,1.89-.18.58-.44,1.08-.78,1.51-.34.43-.75.76-1.24,1-.49.24-1.04.36-1.65.36-.55,0-1.01-.09-1.4-.27-.39-.18-.74-.43-1.04-.76v3.97h-1.75v-12.21h1.05c.25,0,.4.12.46.35l.15,1.02Zm.09,5.53c.29.38.6.64.93.79.33.15.71.22,1.12.22.8,0,1.43-.29,1.87-.87.44-.58.66-1.42.66-2.53,0-.58-.05-1.08-.15-1.49-.1-.41-.24-.75-.43-1.01-.19-.26-.42-.45-.7-.58-.28-.12-.59-.18-.94-.18-.51,0-.95.11-1.33.34-.38.23-.72.55-1.04.97v4.33Z" fill="#333e48" stroke-width="0"/><path d="m230.69,216.43c-.22.25-.46.47-.75.65-.28.18-.58.33-.9.45s-.65.2-.99.25-.67.08-1,.08c-.63,0-1.21-.11-1.75-.32s-1-.53-1.4-.94c-.39-.41-.7-.92-.92-1.53-.22-.61-.33-1.31-.33-2.1,0-.64.1-1.23.3-1.78.2-.55.48-1.03.85-1.44s.82-.73,1.35-.96c.53-.23,1.13-.35,1.8-.35.56,0,1.07.09,1.54.27.47.18.88.45,1.22.8.34.35.61.78.8,1.29.2.51.29,1.09.29,1.75,0,.27-.03.45-.09.54-.06.09-.17.14-.33.14h-5.99c.02.55.1,1.02.23,1.43.14.4.33.74.57,1.01.24.27.53.47.87.6s.71.2,1.12.2c.39,0,.73-.04,1.01-.13.29-.09.53-.19.74-.29.21-.1.38-.2.52-.29.14-.09.27-.13.37-.13.14,0,.25.05.33.16l.5.65Zm-1.45-4.28c0-.35-.05-.67-.15-.96s-.25-.55-.44-.77c-.19-.22-.43-.38-.7-.5s-.59-.18-.95-.18c-.74,0-1.32.21-1.74.64-.42.43-.69,1.02-.81,1.77h4.79Z" fill="#333e48" stroke-width="0"/><path d="m234.37,210.34c.29-.6.65-1.07,1.06-1.41s.91-.51,1.49-.51c.2,0,.38.02.56.07.18.04.33.11.46.2l-.12,1.32c-.04.16-.14.24-.3.24-.08,0-.21-.02-.38-.05s-.35-.05-.54-.05c-.28,0-.53.04-.75.12-.22.08-.41.2-.58.36s-.32.35-.45.58c-.13.23-.26.49-.37.79v5.72h-1.75v-9.14h1.01c.19,0,.32.03.39.1s.12.19.15.36l.11,1.29Z" fill="#333e48" stroke-width="0"/><path d="m247.25,208.59l-3.71,9.14h-1.58l-3.71-9.14h1.45c.14,0,.25.03.34.1s.15.15.18.25l2.19,5.62c.08.23.15.47.2.7.06.23.11.46.16.69.05-.23.1-.46.16-.68.06-.23.13-.46.22-.7l2.21-5.62c.04-.1.1-.19.19-.25s.2-.1.32-.1h1.38Z" fill="#333e48" stroke-width="0"/><path d="m250.82,205.76c0,.16-.03.32-.1.46-.07.15-.15.28-.27.39s-.24.2-.39.26c-.15.06-.31.09-.47.09s-.31-.03-.46-.09c-.14-.06-.27-.15-.38-.26s-.2-.24-.26-.39c-.06-.15-.09-.3-.09-.46s.03-.33.09-.47c.06-.15.15-.28.26-.39.11-.11.24-.2.38-.26.14-.06.3-.09.46-.09s.32.03.47.09c.15.06.28.15.39.26.11.11.2.24.27.39.07.15.1.3.1.47Zm-.33,2.83v9.14h-1.75v-9.14h1.75Z" fill="#333e48" stroke-width="0"/><path d="m258.43,210.16c-.05.08-.1.13-.15.17-.05.03-.12.05-.21.05-.1,0-.2-.03-.32-.1-.12-.07-.26-.14-.42-.22s-.36-.15-.58-.22c-.22-.07-.49-.1-.79-.1-.25,0-.48.03-.69.09-.21.06-.38.15-.53.26-.14.11-.25.24-.33.4-.08.15-.12.32-.12.49,0,.23.07.42.2.57.13.15.31.28.53.39.22.11.47.21.75.29.28.09.56.18.85.27s.58.21.86.33c.28.12.53.28.75.46.22.18.4.4.53.66.14.26.2.57.2.95,0,.43-.08.82-.23,1.18-.15.36-.38.68-.67.94-.3.26-.67.47-1.1.62-.44.15-.94.22-1.5.22-.63,0-1.21-.1-1.75-.31-.53-.21-.98-.48-1.34-.8l.41-.68c.05-.08.11-.15.18-.19.07-.04.17-.07.29-.07.11,0,.23.04.35.13s.26.18.43.27c.17.1.37.19.61.27s.54.12.9.12c.3,0,.56-.04.78-.11.22-.08.41-.18.55-.31.15-.13.26-.28.33-.45.07-.17.11-.34.11-.53,0-.24-.07-.44-.2-.6s-.31-.3-.53-.41c-.22-.11-.47-.21-.75-.3-.28-.08-.57-.17-.86-.27s-.58-.21-.86-.33-.53-.29-.75-.48c-.22-.19-.4-.43-.53-.7-.13-.28-.2-.61-.2-1.01,0-.35.07-.69.22-1.02.15-.32.36-.61.64-.85.28-.25.62-.44,1.03-.59s.88-.22,1.41-.22c.61,0,1.15.1,1.64.29.49.19.91.46,1.25.79l-.39.64Z" fill="#333e48" stroke-width="0"/><path d="m264.75,208.44c.67,0,1.28.11,1.82.33.54.22,1,.53,1.39.95.38.41.67.91.88,1.49s.31,1.23.31,1.95-.1,1.37-.31,1.95-.5,1.08-.88,1.49c-.38.41-.84.72-1.39.94-.54.22-1.15.33-1.82.33s-1.29-.11-1.83-.33c-.54-.22-1.01-.53-1.39-.94-.38-.41-.68-.9-.89-1.49s-.31-1.23-.31-1.95.1-1.37.31-1.95.5-1.07.89-1.49.85-.73,1.39-.95c.54-.22,1.15-.33,1.83-.33Zm0,8.05c.86,0,1.51-.29,1.94-.87.43-.58.64-1.4.64-2.46s-.21-1.88-.64-2.46c-.43-.58-1.07-.88-1.94-.88s-1.53.29-1.96.88c-.43.58-.64,1.41-.64,2.46s.21,1.88.64,2.46c.43.58,1.08.87,1.96.87Z" fill="#333e48" stroke-width="0"/><path d="m272.76,210.34c.29-.6.65-1.07,1.06-1.41s.91-.51,1.49-.51c.2,0,.38.02.56.07.18.04.33.11.46.2l-.12,1.32c-.04.16-.14.24-.3.24-.08,0-.21-.02-.38-.05s-.35-.05-.54-.05c-.28,0-.53.04-.75.12-.22.08-.41.2-.58.36s-.32.35-.45.58c-.13.23-.26.49-.37.79v5.72h-1.75v-9.14h1.01c.19,0,.32.03.39.1s.12.19.15.36l.11,1.29Z" fill="#333e48" stroke-width="0"/></svg>