<svg xmlns="http://www.w3.org/2000/svg" id="Layer_1" viewBox="0 0 870 315">
  <text transform="translate(305.64 49.43)" fill="#333e48" font-family="Lato-Medium, Lato" font-size="18" font-weight="500"><tspan x="0" y="0" letter-spacing="-.01em">A</tspan><tspan x="12.07" y="0" letter-spacing="0em">dd</tspan><tspan x="32.3" y="0" letter-spacing="-.02em">r</tspan><tspan x="38.56" y="0">ess </tspan><tspan x="-11.37" y="21.6" letter-spacing="-.11em">T</tspan><tspan x="-2.63" y="21.6" letter-spacing="0em">r</tspan><tspan x="3.82" y="21.6">ansl</tspan><tspan x="35.01" y="21.6" letter-spacing="0em">a</tspan><tspan x="43.88" y="21.6">tion</tspan></text>
  <g>
    <path d="m71.86,36.51l-5.26,12.92h-1.72l-5.26-12.92h1.53c.17,0,.3.04.41.13.11.08.18.19.24.32l3.49,8.78c.08.22.17.45.25.71.08.26.15.53.22.81.06-.28.13-.55.2-.81.07-.26.15-.5.23-.71l3.48-8.78c.04-.12.12-.23.23-.32.11-.09.25-.13.41-.13h1.54Z" fill="#333e48"/>
    <path d="m75.28,37.46c0,.16-.03.32-.1.46-.07.15-.15.28-.27.39s-.24.2-.39.26c-.15.06-.31.09-.47.09s-.31-.03-.46-.09c-.14-.06-.27-.15-.38-.26s-.2-.24-.26-.39c-.06-.15-.09-.3-.09-.46s.03-.33.09-.47c.06-.15.15-.28.26-.39.11-.11.24-.2.38-.26.14-.06.3-.09.46-.09s.32.03.47.09c.15.06.28.15.39.26.11.11.2.24.27.39.07.15.1.3.1.47Zm-.33,2.83v9.14h-1.75v-9.14h1.75Z" fill="#333e48"/>
    <path d="m79.14,42.04c.29-.6.65-1.07,1.06-1.41s.91-.51,1.49-.51c.2,0,.38.02.56.07.18.04.33.11.46.2l-.12,1.32c-.04.16-.14.24-.3.24-.08,0-.21-.02-.38-.05s-.35-.05-.54-.05c-.28,0-.53.04-.75.12-.22.08-.41.2-.58.36s-.32.35-.45.58c-.13.23-.26.49-.37.79v5.72h-1.75v-9.14h1.01c.19,0,.32.03.39.1s.12.19.15.36l.11,1.29Z" fill="#333e48"/>
    <path d="m86.95,49.57c-.74,0-1.31-.21-1.71-.62-.4-.41-.6-1-.6-1.77v-5.47h-1.06c-.1,0-.19-.03-.26-.09-.07-.06-.1-.16-.1-.28v-.71l1.48-.21.4-2.73c.02-.1.07-.18.14-.24.07-.06.16-.09.27-.09h.89v3.07h2.59v1.28h-2.59v5.35c0,.36.09.63.27.81s.4.27.68.27c.16,0,.3-.02.42-.06.12-.04.22-.09.3-.14.08-.05.16-.1.22-.14.06-.04.11-.06.16-.06.06,0,.11.01.14.04.03.03.07.07.1.13l.52.85c-.29.26-.63.47-1.03.61-.4.14-.81.22-1.23.22Z" fill="#333e48"/>
    <path d="m98.21,40.29v9.14h-1.05c-.24,0-.4-.12-.47-.35l-.13-.92c-.2.21-.41.4-.62.58-.22.17-.45.32-.69.45s-.51.22-.78.29c-.28.07-.57.1-.89.1-.5,0-.95-.08-1.33-.25-.38-.17-.7-.4-.96-.71s-.45-.67-.58-1.09c-.13-.43-.2-.9-.2-1.41v-5.82h1.76v5.82c0,.65.15,1.16.45,1.53.3.36.76.54,1.38.54.45,0,.87-.11,1.26-.32.39-.21.76-.51,1.1-.88v-6.7h1.75Z" fill="#333e48"/>
    <path d="m100.43,41.56c.51-.49,1.06-.85,1.66-1.09.6-.24,1.25-.36,1.97-.36.52,0,.98.09,1.39.26.4.17.74.41,1.02.72.28.31.48.67.62,1.1s.21.9.21,1.41v5.83h-.78c-.17,0-.31-.03-.4-.09-.09-.06-.16-.16-.22-.32l-.19-.8c-.23.22-.46.41-.69.57-.23.17-.47.31-.72.42-.25.12-.51.21-.8.27-.28.06-.59.09-.94.09s-.7-.05-1.01-.15c-.32-.1-.59-.25-.82-.45-.23-.2-.42-.46-.55-.76-.14-.31-.2-.66-.2-1.07,0-.36.1-.71.29-1.04.19-.33.51-.63.95-.9.44-.26,1.02-.48,1.73-.65s1.59-.26,2.62-.29v-.67c0-.69-.15-1.21-.44-1.55s-.73-.51-1.3-.51c-.38,0-.71.05-.97.14s-.49.2-.67.32c-.19.12-.35.22-.5.32-.14.1-.29.14-.44.14-.12,0-.22-.03-.31-.1-.09-.07-.16-.14-.21-.23l-.32-.57Zm5.15,3.81c-.71.02-1.32.08-1.82.17s-.9.2-1.21.35c-.31.14-.54.31-.67.51-.14.19-.21.41-.21.65,0,.23.04.42.11.59s.18.3.31.41c.13.11.28.18.46.23.17.05.36.07.57.07.27,0,.52-.03.74-.08.23-.05.44-.13.63-.23s.39-.22.57-.36c.18-.14.36-.31.53-.5v-1.8Z" fill="#333e48"/>
    <path d="m111.45,36.15v13.28h-1.76v-13.28h1.76Z" fill="#333e48"/>
    <path d="m128.91,49.43h-1.48c-.17,0-.31-.04-.41-.13-.11-.08-.19-.19-.23-.32l-1.14-3h-5.7l-1.14,3c-.04.11-.12.22-.23.31-.11.09-.25.14-.41.14h-1.48l5.15-12.92h1.93l5.15,12.92Zm-3.79-4.82l-1.92-5.01c-.14-.34-.28-.77-.41-1.3-.07.26-.13.5-.2.72-.07.22-.14.42-.2.59l-1.91,4.99h4.64Z" fill="#333e48"/>
    <path d="m137.62,36.15v13.28h-1.06c-.25,0-.4-.12-.46-.35l-.15-1.05c-.39.46-.83.83-1.33,1.11-.5.28-1.07.42-1.71.42-.52,0-.99-.1-1.42-.31-.42-.2-.79-.5-1.08-.9-.3-.39-.53-.88-.69-1.46-.16-.58-.24-1.25-.24-2.01,0-.68.09-1.31.27-1.89.18-.58.44-1.09.78-1.51.34-.43.76-.76,1.24-1,.49-.24,1.04-.37,1.65-.37.55,0,1.02.09,1.41.27.39.18.73.43,1.04.76v-5h1.76Zm-1.76,6.35c-.29-.38-.6-.64-.93-.79-.33-.15-.71-.23-1.12-.23-.8,0-1.43.29-1.87.87-.44.58-.66,1.42-.66,2.53,0,.58.05,1.08.15,1.49.1.41.24.75.43,1.01.19.26.42.45.7.58.28.12.59.18.94.18.51,0,.95-.11,1.32-.34.37-.23.72-.55,1.04-.96v-4.34Z" fill="#333e48"/>
    <path d="m147.74,36.15v13.28h-1.06c-.25,0-.4-.12-.46-.35l-.15-1.05c-.39.46-.83.83-1.33,1.11-.5.28-1.07.42-1.71.42-.52,0-.99-.1-1.42-.31-.42-.2-.79-.5-1.08-.9-.3-.39-.53-.88-.69-1.46-.16-.58-.24-1.25-.24-2.01,0-.68.09-1.31.27-1.89.18-.58.44-1.09.78-1.51.34-.43.76-.76,1.24-1,.49-.24,1.04-.37,1.65-.37.55,0,1.02.09,1.41.27.39.18.73.43,1.04.76v-5h1.76Zm-1.76,6.35c-.29-.38-.6-.64-.93-.79-.33-.15-.71-.23-1.12-.23-.8,0-1.43.29-1.87.87-.44.58-.66,1.42-.66,2.53,0,.58.05,1.08.15,1.49.1.41.24.75.43,1.01.19.26.42.45.7.58.28.12.59.18.94.18.51,0,.95-.11,1.32-.34.37-.23.72-.55,1.04-.96v-4.34Z" fill="#333e48"/>
    <path d="m151.85,42.04c.29-.6.65-1.07,1.06-1.41s.91-.51,1.49-.51c.2,0,.38.02.56.07.18.04.33.11.46.2l-.12,1.32c-.04.16-.14.24-.3.24-.08,0-.21-.02-.38-.05s-.35-.05-.54-.05c-.28,0-.53.04-.75.12-.22.08-.41.2-.58.36s-.32.35-.45.58c-.13.23-.26.49-.37.79v5.72h-1.75v-9.14h1.01c.19,0,.32.03.39.1s.12.19.15.36l.11,1.29Z" fill="#333e48"/>
    <path d="m163.96,48.13c-.22.25-.46.47-.75.65-.28.18-.58.33-.9.45s-.65.2-.99.25-.67.08-1,.08c-.63,0-1.21-.11-1.75-.32s-1-.53-1.4-.94c-.39-.41-.7-.92-.92-1.53-.22-.61-.33-1.31-.33-2.1,0-.64.1-1.23.3-1.78.2-.55.48-1.03.85-1.44s.82-.73,1.35-.96c.53-.23,1.13-.35,1.8-.35.56,0,1.07.09,1.54.27.47.18.88.45,1.22.8.34.35.61.78.8,1.29.2.51.29,1.09.29,1.75,0,.27-.03.45-.09.54-.06.09-.17.14-.33.14h-5.99c.02.55.1,1.02.23,1.43.14.4.33.74.57,1.01.24.27.53.47.87.6s.71.2,1.12.2c.39,0,.73-.04,1.01-.13.29-.09.53-.19.74-.29.21-.1.38-.2.52-.29.14-.09.27-.13.37-.13.14,0,.25.05.33.16l.5.65Zm-1.45-4.28c0-.35-.05-.67-.15-.96s-.25-.55-.44-.77c-.19-.22-.43-.38-.7-.5s-.59-.18-.95-.18c-.74,0-1.32.21-1.74.64-.42.43-.69,1.02-.81,1.77h4.79Z" fill="#333e48"/>
    <path d="m171.38,41.86c-.05.08-.1.13-.15.17-.05.03-.12.05-.21.05-.1,0-.2-.03-.32-.1-.12-.07-.26-.14-.42-.22s-.36-.15-.58-.22c-.22-.07-.49-.1-.79-.1-.25,0-.48.03-.69.09-.21.06-.38.15-.53.26-.14.11-.25.24-.33.4-.08.15-.12.32-.12.49,0,.23.07.42.2.57.13.15.31.28.53.39.22.11.47.21.75.29.28.09.56.18.85.27s.58.21.86.33c.28.12.53.28.75.46.22.18.4.4.53.66.14.26.2.57.2.95,0,.43-.08.82-.23,1.18-.15.36-.38.68-.67.94-.3.26-.67.47-1.1.62-.44.15-.94.22-1.5.22-.63,0-1.21-.1-1.75-.31-.53-.21-.98-.48-1.34-.8l.41-.68c.05-.08.11-.15.18-.19.07-.04.17-.07.29-.07.11,0,.23.04.35.13s.26.18.43.27c.17.1.37.19.61.27s.54.12.9.12c.3,0,.56-.04.78-.11.22-.08.41-.18.55-.31.15-.13.26-.28.33-.45.07-.17.11-.34.11-.53,0-.24-.07-.44-.2-.6s-.31-.3-.53-.41c-.22-.11-.47-.21-.75-.3-.28-.08-.57-.17-.86-.27s-.58-.21-.86-.33-.53-.29-.75-.48c-.22-.19-.4-.43-.53-.7-.13-.28-.2-.61-.2-1.01,0-.35.07-.69.22-1.02.15-.32.36-.61.64-.85.28-.25.62-.44,1.03-.59s.88-.22,1.41-.22c.61,0,1.15.1,1.64.29.49.19.91.46,1.25.79l-.39.64Z" fill="#333e48"/>
    <path d="m179.2,41.86c-.05.08-.1.13-.15.17-.05.03-.12.05-.21.05-.1,0-.2-.03-.32-.1-.12-.07-.26-.14-.42-.22s-.36-.15-.58-.22c-.22-.07-.49-.1-.79-.1-.25,0-.48.03-.69.09-.21.06-.38.15-.53.26-.14.11-.25.24-.33.4-.08.15-.12.32-.12.49,0,.23.07.42.2.57.13.15.31.28.53.39.22.11.47.21.75.29.28.09.56.18.85.27s.58.21.86.33c.28.12.53.28.75.46.22.18.4.4.53.66.14.26.2.57.2.95,0,.43-.08.82-.23,1.18-.15.36-.38.68-.67.94-.3.26-.67.47-1.1.62-.44.15-.94.22-1.5.22-.63,0-1.21-.1-1.75-.31-.53-.21-.98-.48-1.34-.8l.41-.68c.05-.08.11-.15.18-.19.07-.04.17-.07.29-.07.11,0,.23.04.35.13s.26.18.43.27c.17.1.37.19.61.27s.54.12.9.12c.3,0,.56-.04.78-.11.22-.08.41-.18.55-.31.15-.13.26-.28.33-.45.07-.17.11-.34.11-.53,0-.24-.07-.44-.2-.6s-.31-.3-.53-.41c-.22-.11-.47-.21-.75-.3-.28-.08-.57-.17-.86-.27s-.58-.21-.86-.33-.53-.29-.75-.48c-.22-.19-.4-.43-.53-.7-.13-.28-.2-.61-.2-1.01,0-.35.07-.69.22-1.02.15-.32.36-.61.64-.85.28-.25.62-.44,1.03-.59s.88-.22,1.41-.22c.61,0,1.15.1,1.64.29.49.19.91.46,1.25.79l-.39.64Z" fill="#333e48"/>
    <path d="m80,65.38c0,1.27.16,2.51.48,3.72.32,1.21.78,2.35,1.39,3.43.1.2.13.35.08.46-.05.11-.12.19-.22.26l-.78.48c-.45-.69-.83-1.38-1.15-2.06-.32-.68-.57-1.37-.76-2.05-.2-.69-.34-1.38-.43-2.08s-.13-1.42-.13-2.15.04-1.46.13-2.16c.09-.7.23-1.4.43-2.08.19-.69.45-1.37.76-2.05.31-.68.7-1.37,1.15-2.06l.78.48c.1.07.18.15.22.26.05.11.02.26-.08.46-.61,1.08-1.08,2.22-1.39,3.43-.32,1.21-.48,2.45-.48,3.72Z" fill="#333e48"/>
    <path d="m94.92,58.11l-5.26,12.92h-1.72l-5.26-12.92h1.53c.17,0,.3.04.41.13.11.08.18.19.24.32l3.49,8.78c.08.22.17.45.25.71.08.26.15.53.22.81.06-.28.13-.55.2-.81.07-.26.15-.5.23-.71l3.48-8.78c.04-.12.12-.23.23-.32.11-.09.25-.13.41-.13h1.54Z" fill="#333e48"/>
    <path d="m106.2,71.03h-1.48c-.17,0-.31-.04-.41-.13-.11-.08-.19-.19-.23-.32l-1.14-3h-5.7l-1.14,3c-.04.11-.12.22-.23.31-.11.09-.25.14-.41.14h-1.48l5.15-12.92h1.93l5.15,12.92Zm-3.79-4.82l-1.92-5.01c-.14-.34-.28-.77-.41-1.3-.07.26-.13.5-.2.72-.07.22-.14.42-.2.59l-1.91,4.99h4.64Z" fill="#333e48"/>
    <path d="m108.75,65.38c0-1.27-.16-2.51-.48-3.72-.32-1.21-.79-2.35-1.4-3.43-.1-.2-.13-.35-.08-.46.05-.11.13-.2.23-.26l.78-.48c.45.69.83,1.38,1.14,2.06.31.68.57,1.37.76,2.05.2.69.34,1.38.43,2.08.09.7.14,1.42.14,2.16s-.04,1.45-.14,2.15c-.09.7-.23,1.4-.43,2.08-.2.69-.45,1.37-.76,2.05-.31.68-.69,1.37-1.14,2.06l-.78-.48c-.1-.07-.18-.15-.23-.26-.05-.11-.03-.26.08-.46.61-1.08,1.08-2.22,1.4-3.43.32-1.21.48-2.45.48-3.72Z" fill="#333e48"/>
    <path d="m123.88,60.21c-.06.1-.12.18-.19.23-.07.05-.15.07-.25.07s-.23-.05-.37-.15c-.14-.1-.31-.21-.52-.33-.21-.12-.45-.23-.74-.33-.29-.1-.63-.15-1.04-.15-.38,0-.71.05-.99.15-.29.1-.52.23-.72.41s-.34.37-.44.6c-.1.23-.15.48-.15.75,0,.35.09.64.27.86.18.23.41.42.7.58s.62.3.98.42c.37.12.74.25,1.12.37s.76.28,1.12.45c.37.17.69.38.98.63.29.26.52.57.7.94.18.37.26.82.26,1.35,0,.57-.1,1.1-.29,1.6-.2.5-.48.93-.85,1.31s-.83.66-1.37.88c-.54.21-1.16.32-1.85.32-.41,0-.82-.04-1.21-.12-.39-.08-.76-.2-1.11-.34-.35-.15-.67-.32-.98-.53s-.57-.44-.81-.7l.55-.92c.05-.07.12-.13.19-.18.08-.05.16-.07.26-.07.13,0,.27.07.44.2.17.13.37.28.61.44.24.16.53.3.87.44.34.13.75.2,1.24.2.4,0,.75-.05,1.06-.16.31-.1.58-.25.79-.45.21-.19.38-.43.49-.71.11-.28.17-.58.17-.92,0-.38-.09-.69-.26-.93-.17-.24-.41-.44-.69-.6s-.62-.3-.98-.41c-.37-.11-.74-.23-1.12-.36s-.76-.27-1.12-.43c-.37-.16-.69-.37-.98-.63-.29-.26-.52-.59-.69-.98-.17-.39-.26-.88-.26-1.45,0-.46.09-.91.27-1.34.18-.43.44-.81.79-1.15s.77-.6,1.27-.8,1.08-.3,1.73-.3c.73,0,1.39.12,2,.35.61.23,1.14.56,1.59,1l-.47.91Z" fill="#333e48"/>
    <path d="m128.1,63.25c.19-.23.4-.44.62-.62.22-.19.45-.35.71-.49s.52-.24.81-.31.59-.11.91-.11c.52,0,.99.1,1.42.31s.78.5,1.08.9c.3.4.53.89.7,1.47s.25,1.25.25,2.01c0,.68-.09,1.31-.27,1.89-.18.58-.44,1.08-.78,1.51-.34.43-.75.76-1.24,1-.49.24-1.04.36-1.65.36-.55,0-1.01-.09-1.4-.27-.39-.18-.74-.43-1.04-.76v3.97h-1.75v-12.21h1.05c.25,0,.4.12.46.35l.15,1.02Zm.09,5.53c.29.38.6.64.93.79.33.15.71.22,1.12.22.8,0,1.43-.29,1.87-.87.44-.58.66-1.42.66-2.53,0-.58-.05-1.08-.15-1.49-.1-.41-.24-.75-.43-1.01-.19-.26-.42-.45-.7-.58-.28-.12-.59-.18-.94-.18-.51,0-.95.11-1.33.34-.38.23-.72.55-1.04.97v4.33Z" fill="#333e48"/>
    <path d="m136.33,63.17c.51-.49,1.06-.85,1.66-1.09.6-.24,1.25-.36,1.97-.36.52,0,.98.09,1.39.26.4.17.74.41,1.02.72.28.31.48.67.62,1.1s.21.9.21,1.41v5.83h-.78c-.17,0-.31-.03-.4-.09-.09-.06-.16-.16-.22-.32l-.19-.8c-.23.22-.46.41-.69.57-.23.17-.47.31-.72.42-.25.12-.51.21-.8.27-.28.06-.59.09-.94.09s-.7-.05-1.01-.15c-.32-.1-.59-.25-.82-.45-.23-.2-.42-.46-.55-.76-.14-.31-.2-.66-.2-1.07,0-.36.1-.71.29-1.04.19-.33.51-.63.95-.9.44-.26,1.02-.48,1.73-.65s1.59-.26,2.62-.29v-.67c0-.69-.15-1.21-.44-1.55s-.73-.51-1.3-.51c-.38,0-.71.05-.97.14s-.49.2-.67.32c-.19.12-.35.22-.5.32-.14.1-.29.14-.44.14-.12,0-.22-.03-.31-.1-.09-.07-.16-.14-.21-.23l-.32-.57Zm5.15,3.81c-.71.02-1.32.08-1.82.17s-.9.2-1.21.35c-.31.14-.54.31-.67.51-.14.19-.21.41-.21.65,0,.23.04.42.11.59s.18.3.31.41c.13.11.28.18.46.23.17.05.36.07.57.07.27,0,.52-.03.74-.08.23-.05.44-.13.63-.23s.39-.22.57-.36c.18-.14.36-.31.53-.5v-1.8Z" fill="#333e48"/>
    <path d="m151.96,63.6c-.05.07-.11.12-.16.16s-.12.06-.22.06-.2-.04-.3-.11c-.11-.08-.24-.16-.4-.24s-.35-.17-.58-.24c-.22-.08-.5-.11-.83-.11-.43,0-.81.08-1.14.23-.33.16-.6.38-.82.67s-.39.64-.5,1.05c-.11.41-.17.88-.17,1.39s.06,1.01.18,1.43.29.77.51,1.05.49.5.81.65c.32.15.67.22,1.06.22s.69-.05.94-.14c.25-.09.45-.19.61-.3.16-.11.3-.21.41-.3s.22-.14.33-.14c.14,0,.25.05.33.16l.5.65c-.21.26-.45.48-.71.66-.26.18-.54.33-.83.44s-.6.2-.92.25c-.32.05-.65.08-.98.08-.57,0-1.1-.11-1.6-.32s-.92-.52-1.29-.92c-.36-.4-.65-.9-.86-1.48-.21-.58-.32-1.25-.32-1.99,0-.68.09-1.3.28-1.88.19-.58.47-1.07.84-1.49.37-.42.82-.74,1.36-.98s1.16-.36,1.85-.36c.65,0,1.23.11,1.73.32s.94.51,1.33.89l-.47.65Z" fill="#333e48"/>
    <path d="m161.51,69.73c-.22.25-.46.47-.75.65-.28.18-.58.33-.9.45s-.65.2-.99.25-.67.08-1,.08c-.63,0-1.21-.11-1.75-.32s-1-.53-1.4-.94c-.39-.41-.7-.92-.92-1.53-.22-.61-.33-1.31-.33-2.1,0-.64.1-1.23.3-1.78.2-.55.48-1.03.85-1.44s.82-.73,1.35-.96c.53-.23,1.13-.35,1.8-.35.56,0,1.07.09,1.54.27.47.18.88.45,1.22.8.34.35.61.78.8,1.29.2.51.29,1.09.29,1.75,0,.27-.03.45-.09.54-.06.09-.17.14-.33.14h-5.99c.02.55.1,1.02.23,1.43.14.4.33.74.57,1.01.24.27.53.47.87.6s.71.2,1.12.2c.39,0,.73-.04,1.01-.13.29-.09.53-.19.74-.29.21-.1.38-.2.52-.29.14-.09.27-.13.37-.13.14,0,.25.05.33.16l.5.65Zm-1.45-4.28c0-.35-.05-.67-.15-.96s-.25-.55-.44-.77c-.19-.22-.43-.38-.7-.5s-.59-.18-.95-.18c-.74,0-1.32.21-1.74.64-.42.43-.69,1.02-.81,1.77h4.79Z" fill="#333e48"/>
  </g>
  <g>
    <path d="m592.19,36.51c.83,0,1.55.1,2.16.29.61.19,1.12.46,1.52.81.4.35.7.78.9,1.27.19.5.29,1.05.29,1.66s-.11,1.16-.32,1.67-.52.94-.93,1.31-.92.65-1.53.85-1.31.3-2.1.3h-2v4.76h-1.92v-12.92h3.92Zm0,6.65c.49,0,.91-.06,1.28-.19.37-.13.68-.3.93-.54.25-.23.44-.51.56-.83.13-.32.19-.68.19-1.07,0-.79-.24-1.4-.73-1.85s-1.23-.67-2.23-.67h-2v5.15h2Z" fill="#333e48"/>
    <path d="m600.51,41.45c.38-.39.81-.7,1.27-.94s1-.36,1.61-.36c.5,0,.95.08,1.33.25s.7.4.96.71c.26.3.45.67.58,1.09.13.43.2.9.2,1.41v5.82h-1.76v-5.82c0-.65-.15-1.16-.45-1.53-.3-.36-.76-.54-1.38-.54-.45,0-.87.11-1.26.32-.39.21-.76.5-1.09.87v6.71h-1.75v-13.28h1.75v5.3Z" fill="#333e48"/>
    <path d="m616.59,40.29l-5.08,11.8c-.05.13-.13.23-.22.31-.09.07-.22.11-.4.11h-1.3l1.67-3.65-3.75-8.57h1.53c.15,0,.27.04.35.11s.14.15.18.24l2.32,5.49c.05.14.09.28.14.42.04.14.08.28.11.42.04-.14.09-.29.13-.43s.1-.28.15-.42l2.24-5.48c.04-.1.11-.19.2-.25.09-.07.19-.1.31-.1h1.4Z" fill="#333e48"/>
    <path d="m623.16,41.86c-.05.08-.1.13-.15.17-.05.03-.12.05-.21.05-.1,0-.2-.03-.32-.1-.12-.07-.26-.14-.42-.22s-.36-.15-.58-.22c-.22-.07-.49-.1-.79-.1-.25,0-.48.03-.69.09-.21.06-.38.15-.53.26-.14.11-.25.24-.33.4-.08.15-.12.32-.12.49,0,.23.07.42.2.57.13.15.31.28.53.39.22.11.47.21.75.29.28.09.56.18.85.27s.58.21.86.33c.28.12.53.28.75.46.22.18.4.4.53.66.14.26.2.57.2.95,0,.43-.08.82-.23,1.18-.15.36-.38.68-.67.94-.3.26-.67.47-1.1.62-.44.15-.94.22-1.5.22-.63,0-1.21-.1-1.75-.31-.53-.21-.98-.48-1.34-.8l.41-.68c.05-.08.11-.15.18-.19.07-.04.17-.07.29-.07.11,0,.23.04.35.13s.26.18.43.27c.17.1.37.19.61.27s.54.12.9.12c.3,0,.56-.04.78-.11.22-.08.41-.18.55-.31.15-.13.26-.28.33-.45.07-.17.11-.34.11-.53,0-.24-.07-.44-.2-.6s-.31-.3-.53-.41c-.22-.11-.47-.21-.75-.3-.28-.08-.57-.17-.86-.27s-.58-.21-.86-.33-.53-.29-.75-.48c-.22-.19-.4-.43-.53-.7-.13-.28-.2-.61-.2-1.01,0-.35.07-.69.22-1.02.15-.32.36-.61.64-.85.28-.25.62-.44,1.03-.59s.88-.22,1.41-.22c.61,0,1.15.1,1.64.29.49.19.91.46,1.25.79l-.39.64Z" fill="#333e48"/>
    <path d="m627.76,37.46c0,.16-.03.32-.1.46-.07.15-.15.28-.27.39s-.24.2-.39.26c-.15.06-.31.09-.47.09s-.31-.03-.46-.09c-.14-.06-.27-.15-.38-.26s-.2-.24-.26-.39c-.06-.15-.09-.3-.09-.46s.03-.33.09-.47c.06-.15.15-.28.26-.39.11-.11.24-.2.38-.26.14-.06.3-.09.46-.09s.32.03.47.09c.15.06.28.15.39.26.11.11.2.24.27.39.07.15.1.3.1.47Zm-.33,2.83v9.14h-1.75v-9.14h1.75Z" fill="#333e48"/>
    <path d="m636.38,42c-.05.07-.11.12-.16.16s-.12.06-.22.06-.2-.04-.3-.11c-.11-.08-.24-.16-.4-.24s-.35-.17-.58-.24c-.22-.08-.5-.11-.83-.11-.43,0-.81.08-1.14.23-.33.16-.6.38-.82.67s-.39.64-.5,1.05c-.11.41-.17.88-.17,1.39s.06,1.01.18,1.43.29.77.51,1.05.49.5.81.65c.32.15.67.22,1.06.22s.69-.05.94-.14c.25-.09.45-.19.61-.3.16-.11.3-.21.41-.3s.22-.14.33-.14c.14,0,.25.05.33.16l.5.65c-.21.26-.45.48-.71.66-.26.18-.54.33-.83.44s-.6.2-.92.25c-.32.05-.65.08-.98.08-.57,0-1.1-.11-1.6-.32s-.92-.52-1.29-.92c-.36-.4-.65-.9-.86-1.48-.21-.58-.32-1.25-.32-1.99,0-.68.09-1.3.28-1.88.19-.58.47-1.07.84-1.49.37-.42.82-.74,1.36-.98s1.16-.36,1.85-.36c.65,0,1.23.11,1.73.32s.94.51,1.33.89l-.47.65Z" fill="#333e48"/>
    <path d="m638.35,41.56c.51-.49,1.06-.85,1.66-1.09.6-.24,1.25-.36,1.97-.36.52,0,.98.09,1.39.26.4.17.74.41,1.02.72.28.31.48.67.62,1.1s.21.9.21,1.41v5.83h-.78c-.17,0-.31-.03-.4-.09-.09-.06-.16-.16-.22-.32l-.19-.8c-.23.22-.46.41-.69.57-.23.17-.47.31-.72.42-.25.12-.51.21-.8.27-.28.06-.59.09-.94.09s-.7-.05-1.01-.15c-.32-.1-.59-.25-.82-.45-.23-.2-.42-.46-.55-.76-.14-.31-.2-.66-.2-1.07,0-.36.1-.71.29-1.04.19-.33.51-.63.95-.9.44-.26,1.02-.48,1.73-.65s1.59-.26,2.62-.29v-.67c0-.69-.15-1.21-.44-1.55s-.73-.51-1.3-.51c-.38,0-.71.05-.97.14s-.49.2-.67.32c-.19.12-.35.22-.5.32-.14.1-.29.14-.44.14-.12,0-.22-.03-.31-.1-.09-.07-.16-.14-.21-.23l-.32-.57Zm5.15,3.81c-.71.02-1.32.08-1.82.17s-.9.2-1.21.35c-.31.14-.54.31-.67.51-.14.19-.21.41-.21.65,0,.23.04.42.11.59s.18.3.31.41c.13.11.28.18.46.23.17.05.36.07.57.07.27,0,.52-.03.74-.08.23-.05.44-.13.63-.23s.39-.22.57-.36c.18-.14.36-.31.53-.5v-1.8Z" fill="#333e48"/>
    <path d="m649.38,36.15v13.28h-1.76v-13.28h1.76Z" fill="#333e48"/>
    <path d="m666.84,49.43h-1.48c-.17,0-.31-.04-.41-.13-.11-.08-.19-.19-.23-.32l-1.14-3h-5.7l-1.14,3c-.04.11-.12.22-.23.31-.11.09-.25.14-.41.14h-1.48l5.15-12.92h1.93l5.15,12.92Zm-3.79-4.82l-1.92-5.01c-.14-.34-.28-.77-.41-1.3-.07.26-.13.5-.2.72-.07.22-.14.42-.2.59l-1.91,4.99h4.64Z" fill="#333e48"/>
    <path d="m675.55,36.15v13.28h-1.06c-.25,0-.4-.12-.46-.35l-.15-1.05c-.39.46-.83.83-1.33,1.11-.5.28-1.07.42-1.71.42-.52,0-.99-.1-1.42-.31-.42-.2-.79-.5-1.08-.9-.3-.39-.53-.88-.69-1.46-.16-.58-.24-1.25-.24-2.01,0-.68.09-1.31.27-1.89.18-.58.44-1.09.78-1.51.34-.43.76-.76,1.24-1,.49-.24,1.04-.37,1.65-.37.55,0,1.02.09,1.41.27.39.18.73.43,1.04.76v-5h1.76Zm-1.76,6.35c-.29-.38-.6-.64-.93-.79-.33-.15-.71-.23-1.12-.23-.8,0-1.43.29-1.87.87-.44.58-.66,1.42-.66,2.53,0,.58.05,1.08.15,1.49.1.41.24.75.43,1.01.19.26.42.45.7.58.28.12.59.18.94.18.51,0,.95-.11,1.32-.34.37-.23.72-.55,1.04-.96v-4.34Z" fill="#333e48"/>
    <path d="m685.67,36.15v13.28h-1.06c-.25,0-.4-.12-.46-.35l-.15-1.05c-.39.46-.83.83-1.33,1.11-.5.28-1.07.42-1.71.42-.52,0-.99-.1-1.42-.31-.42-.2-.79-.5-1.08-.9-.3-.39-.53-.88-.69-1.46-.16-.58-.24-1.25-.24-2.01,0-.68.09-1.31.27-1.89.18-.58.44-1.09.78-1.51.34-.43.76-.76,1.24-1,.49-.24,1.04-.37,1.65-.37.55,0,1.02.09,1.41.27.39.18.73.43,1.04.76v-5h1.76Zm-1.76,6.35c-.29-.38-.6-.64-.93-.79-.33-.15-.71-.23-1.12-.23-.8,0-1.43.29-1.87.87-.44.58-.66,1.42-.66,2.53,0,.58.05,1.08.15,1.49.1.41.24.75.43,1.01.19.26.42.45.7.58.28.12.59.18.94.18.51,0,.95-.11,1.32-.34.37-.23.72-.55,1.04-.96v-4.34Z" fill="#333e48"/>
    <path d="m689.78,42.04c.29-.6.65-1.07,1.06-1.41s.91-.51,1.49-.51c.2,0,.38.02.56.07.18.04.33.11.46.2l-.12,1.32c-.04.16-.14.24-.3.24-.08,0-.21-.02-.38-.05s-.35-.05-.54-.05c-.28,0-.53.04-.75.12-.22.08-.41.2-.58.36s-.32.35-.45.58c-.13.23-.26.49-.37.79v5.72h-1.75v-9.14h1.01c.19,0,.32.03.39.1s.12.19.15.36l.11,1.29Z" fill="#333e48"/>
    <path d="m701.88,48.13c-.22.25-.46.47-.75.65-.28.18-.58.33-.9.45s-.65.2-.99.25-.67.08-1,.08c-.63,0-1.21-.11-1.75-.32s-1-.53-1.4-.94c-.39-.41-.7-.92-.92-1.53-.22-.61-.33-1.31-.33-2.1,0-.64.1-1.23.3-1.78.2-.55.48-1.03.85-1.44s.82-.73,1.35-.96c.53-.23,1.13-.35,1.8-.35.56,0,1.07.09,1.54.27.47.18.88.45,1.22.8.34.35.61.78.8,1.29.2.51.29,1.09.29,1.75,0,.27-.03.45-.09.54-.06.09-.17.14-.33.14h-5.99c.02.55.1,1.02.23,1.43.14.4.33.74.57,1.01.24.27.53.47.87.6s.71.2,1.12.2c.39,0,.73-.04,1.01-.13.29-.09.53-.19.74-.29.21-.1.38-.2.52-.29.14-.09.27-.13.37-.13.14,0,.25.05.33.16l.5.65Zm-1.45-4.28c0-.35-.05-.67-.15-.96s-.25-.55-.44-.77c-.19-.22-.43-.38-.7-.5s-.59-.18-.95-.18c-.74,0-1.32.21-1.74.64-.42.43-.69,1.02-.81,1.77h4.79Z" fill="#333e48"/>
    <path d="m709.3,41.86c-.05.08-.1.13-.15.17-.05.03-.12.05-.21.05-.1,0-.2-.03-.32-.1-.12-.07-.26-.14-.42-.22s-.36-.15-.58-.22c-.22-.07-.49-.1-.79-.1-.25,0-.48.03-.69.09-.21.06-.38.15-.53.26-.14.11-.25.24-.33.4-.08.15-.12.32-.12.49,0,.23.07.42.2.57.13.15.31.28.53.39.22.11.47.21.75.29.28.09.56.18.85.27s.58.21.86.33c.28.12.53.28.75.46.22.18.4.4.53.66.14.26.2.57.2.95,0,.43-.08.82-.23,1.18-.15.36-.38.68-.67.94-.3.26-.67.47-1.1.62-.44.15-.94.22-1.5.22-.63,0-1.21-.1-1.75-.31-.53-.21-.98-.48-1.34-.8l.41-.68c.05-.08.11-.15.18-.19.07-.04.17-.07.29-.07.11,0,.23.04.35.13s.26.18.43.27c.17.1.37.19.61.27s.54.12.9.12c.3,0,.56-.04.78-.11.22-.08.41-.18.55-.31.15-.13.26-.28.33-.45.07-.17.11-.34.11-.53,0-.24-.07-.44-.2-.6s-.31-.3-.53-.41c-.22-.11-.47-.21-.75-.3-.28-.08-.57-.17-.86-.27s-.58-.21-.86-.33-.53-.29-.75-.48c-.22-.19-.4-.43-.53-.7-.13-.28-.2-.61-.2-1.01,0-.35.07-.69.22-1.02.15-.32.36-.61.64-.85.28-.25.62-.44,1.03-.59s.88-.22,1.41-.22c.61,0,1.15.1,1.64.29.49.19.91.46,1.25.79l-.39.64Z" fill="#333e48"/>
    <path d="m717.12,41.86c-.05.08-.1.13-.15.17-.05.03-.12.05-.21.05-.1,0-.2-.03-.32-.1-.12-.07-.26-.14-.42-.22s-.36-.15-.58-.22c-.22-.07-.49-.1-.79-.1-.25,0-.48.03-.69.09-.21.06-.38.15-.53.26-.14.11-.25.24-.33.4-.08.15-.12.32-.12.49,0,.23.07.42.2.57.13.15.31.28.53.39.22.11.47.21.75.29.28.09.56.18.85.27s.58.21.86.33c.28.12.53.28.75.46.22.18.4.4.53.66.14.26.2.57.2.95,0,.43-.08.82-.23,1.18-.15.36-.38.68-.67.94-.3.26-.67.47-1.1.62-.44.15-.94.22-1.5.22-.63,0-1.21-.1-1.75-.31-.53-.21-.98-.48-1.34-.8l.41-.68c.05-.08.11-.15.18-.19.07-.04.17-.07.29-.07.11,0,.23.04.35.13s.26.18.43.27c.17.1.37.19.61.27s.54.12.9.12c.3,0,.56-.04.78-.11.22-.08.41-.18.55-.31.15-.13.26-.28.33-.45.07-.17.11-.34.11-.53,0-.24-.07-.44-.2-.6s-.31-.3-.53-.41c-.22-.11-.47-.21-.75-.3-.28-.08-.57-.17-.86-.27s-.58-.21-.86-.33-.53-.29-.75-.48c-.22-.19-.4-.43-.53-.7-.13-.28-.2-.61-.2-1.01,0-.35.07-.69.22-1.02.15-.32.36-.61.64-.85.28-.25.62-.44,1.03-.59s.88-.22,1.41-.22c.61,0,1.15.1,1.64.29.49.19.91.46,1.25.79l-.39.64Z" fill="#333e48"/>
    <path d="m613.21,65.38c0,1.27.16,2.51.48,3.72.32,1.21.78,2.35,1.39,3.43.1.2.13.35.08.46-.05.11-.12.19-.22.26l-.78.48c-.45-.69-.83-1.38-1.15-2.06-.32-.68-.57-1.37-.76-2.05-.2-.69-.34-1.38-.43-2.08s-.13-1.42-.13-2.15.04-1.46.13-2.16c.09-.7.23-1.4.43-2.08.19-.69.45-1.37.76-2.05.31-.68.7-1.37,1.15-2.06l.78.48c.1.07.18.15.22.26.05.11.02.26-.08.46-.61,1.08-1.08,2.22-1.39,3.43-.32,1.21-.48,2.45-.48,3.72Z" fill="#333e48"/>
    <path d="m621.26,58.11c.83,0,1.55.1,2.16.29.61.19,1.12.46,1.52.81.4.35.7.78.9,1.27.19.5.29,1.05.29,1.66s-.11,1.16-.32,1.67-.52.94-.93,1.31-.92.65-1.53.85-1.31.3-2.1.3h-2v4.76h-1.92v-12.92h3.92Zm0,6.65c.49,0,.91-.06,1.28-.19.37-.13.68-.3.93-.54.25-.23.44-.51.56-.83.13-.32.19-.68.19-1.07,0-.79-.24-1.4-.73-1.85s-1.23-.67-2.23-.67h-2v5.15h2Z" fill="#333e48"/>
    <path d="m637.99,71.03h-1.48c-.17,0-.31-.04-.41-.13-.11-.08-.19-.19-.23-.32l-1.14-3h-5.7l-1.14,3c-.04.11-.12.22-.23.31-.11.09-.25.14-.41.14h-1.48l5.15-12.92h1.93l5.15,12.92Zm-3.79-4.82l-1.92-5.01c-.14-.34-.28-.77-.41-1.3-.07.26-.13.5-.2.72-.07.22-.14.42-.2.59l-1.91,4.99h4.64Z" fill="#333e48"/>
    <path d="m640.54,65.38c0-1.27-.16-2.51-.48-3.72-.32-1.21-.79-2.35-1.4-3.43-.1-.2-.13-.35-.08-.46.05-.11.13-.2.23-.26l.78-.48c.45.69.83,1.38,1.14,2.06.31.68.57,1.37.76,2.05.2.69.34,1.38.43,2.08.09.7.14,1.42.14,2.16s-.04,1.45-.14,2.15c-.09.7-.23,1.4-.43,2.08-.2.69-.45,1.37-.76,2.05-.31.68-.69,1.37-1.14,2.06l-.78-.48c-.1-.07-.18-.15-.23-.26-.05-.11-.03-.26.08-.46.61-1.08,1.08-2.22,1.4-3.43.32-1.21.48-2.45.48-3.72Z" fill="#333e48"/>
    <path d="m655.67,60.21c-.06.1-.12.18-.19.23-.07.05-.15.07-.25.07s-.23-.05-.37-.15c-.14-.1-.31-.21-.52-.33-.21-.12-.45-.23-.74-.33-.29-.1-.63-.15-1.04-.15-.38,0-.71.05-.99.15-.29.1-.52.23-.72.41s-.34.37-.44.6c-.1.23-.15.48-.15.75,0,.35.09.64.27.86.18.23.41.42.7.58s.62.3.98.42c.37.12.74.25,1.12.37s.76.28,1.12.45c.37.17.69.38.98.63.29.26.52.57.7.94.18.37.26.82.26,1.35,0,.57-.1,1.1-.29,1.6-.2.5-.48.93-.85,1.31s-.83.66-1.37.88c-.54.21-1.16.32-1.85.32-.41,0-.82-.04-1.21-.12-.39-.08-.76-.2-1.11-.34-.35-.15-.67-.32-.98-.53s-.57-.44-.81-.7l.55-.92c.05-.07.12-.13.19-.18.08-.05.16-.07.26-.07.13,0,.27.07.44.2.17.13.37.28.61.44.24.16.53.3.87.44.34.13.75.2,1.24.2.4,0,.75-.05,1.06-.16.31-.1.58-.25.79-.45.21-.19.38-.43.49-.71.11-.28.17-.58.17-.92,0-.38-.09-.69-.26-.93-.17-.24-.41-.44-.69-.6s-.62-.3-.98-.41c-.37-.11-.74-.23-1.12-.36s-.76-.27-1.12-.43c-.37-.16-.69-.37-.98-.63-.29-.26-.52-.59-.69-.98-.17-.39-.26-.88-.26-1.45,0-.46.09-.91.27-1.34.18-.43.44-.81.79-1.15s.77-.6,1.27-.8,1.08-.3,1.73-.3c.73,0,1.39.12,2,.35.61.23,1.14.56,1.59,1l-.47.91Z" fill="#333e48"/>
    <path d="m659.89,63.25c.19-.23.4-.44.62-.62.22-.19.45-.35.71-.49s.52-.24.81-.31.59-.11.91-.11c.52,0,.99.1,1.42.31s.78.5,1.08.9c.3.4.53.89.7,1.47s.25,1.25.25,2.01c0,.68-.09,1.31-.27,1.89-.18.58-.44,1.08-.78,1.51-.34.43-.75.76-1.24,1-.49.24-1.04.36-1.65.36-.55,0-1.01-.09-1.4-.27-.39-.18-.74-.43-1.04-.76v3.97h-1.75v-12.21h1.05c.25,0,.4.12.46.35l.15,1.02Zm.09,5.53c.29.38.6.64.93.79.33.15.71.22,1.12.22.8,0,1.43-.29,1.87-.87.44-.58.66-1.42.66-2.53,0-.58-.05-1.08-.15-1.49-.1-.41-.24-.75-.43-1.01-.19-.26-.42-.45-.7-.58-.28-.12-.59-.18-.94-.18-.51,0-.95.11-1.33.34-.38.23-.72.55-1.04.97v4.33Z" fill="#333e48"/>
    <path d="m668.12,63.17c.51-.49,1.06-.85,1.66-1.09.6-.24,1.25-.36,1.97-.36.52,0,.98.09,1.39.26.4.17.74.41,1.02.72.28.31.48.67.62,1.1s.21.9.21,1.41v5.83h-.78c-.17,0-.31-.03-.4-.09-.09-.06-.16-.16-.22-.32l-.19-.8c-.23.22-.46.41-.69.57-.23.17-.47.31-.72.42-.25.12-.51.21-.8.27-.28.06-.59.09-.94.09s-.7-.05-1.01-.15c-.32-.1-.59-.25-.82-.45-.23-.2-.42-.46-.55-.76-.14-.31-.2-.66-.2-1.07,0-.36.1-.71.29-1.04.19-.33.51-.63.95-.9.44-.26,1.02-.48,1.73-.65s1.59-.26,2.62-.29v-.67c0-.69-.15-1.21-.44-1.55s-.73-.51-1.3-.51c-.38,0-.71.05-.97.14s-.49.2-.67.32c-.19.12-.35.22-.5.32-.14.1-.29.14-.44.14-.12,0-.22-.03-.31-.1-.09-.07-.16-.14-.21-.23l-.32-.57Zm5.15,3.81c-.71.02-1.32.08-1.82.17s-.9.2-1.21.35c-.31.14-.54.31-.67.51-.14.19-.21.41-.21.65,0,.23.04.42.11.59s.18.3.31.41c.13.11.28.18.46.23.17.05.36.07.57.07.27,0,.52-.03.74-.08.23-.05.44-.13.63-.23s.39-.22.57-.36c.18-.14.36-.31.53-.5v-1.8Z" fill="#333e48"/>
    <path d="m683.75,63.6c-.05.07-.11.12-.16.16s-.12.06-.22.06-.2-.04-.3-.11c-.11-.08-.24-.16-.4-.24s-.35-.17-.58-.24c-.22-.08-.5-.11-.83-.11-.43,0-.81.08-1.14.23-.33.16-.6.38-.82.67s-.39.64-.5,1.05c-.11.41-.17.88-.17,1.39s.06,1.01.18,1.43.29.77.51,1.05.49.5.81.65c.32.15.67.22,1.06.22s.69-.05.94-.14c.25-.09.45-.19.61-.3.16-.11.3-.21.41-.3s.22-.14.33-.14c.14,0,.25.05.33.16l.5.65c-.21.26-.45.48-.71.66-.26.18-.54.33-.83.44s-.6.2-.92.25c-.32.05-.65.08-.98.08-.57,0-1.1-.11-1.6-.32s-.92-.52-1.29-.92c-.36-.4-.65-.9-.86-1.48-.21-.58-.32-1.25-.32-1.99,0-.68.09-1.3.28-1.88.19-.58.47-1.07.84-1.49.37-.42.82-.74,1.36-.98s1.16-.36,1.85-.36c.65,0,1.23.11,1.73.32s.94.51,1.33.89l-.47.65Z" fill="#333e48"/>
    <path d="m693.3,69.73c-.22.25-.46.47-.75.65-.28.18-.58.33-.9.45s-.65.2-.99.25-.67.08-1,.08c-.63,0-1.21-.11-1.75-.32s-1-.53-1.4-.94c-.39-.41-.7-.92-.92-1.53-.22-.61-.33-1.31-.33-2.1,0-.64.1-1.23.3-1.78.2-.55.48-1.03.85-1.44s.82-.73,1.35-.96c.53-.23,1.13-.35,1.8-.35.56,0,1.07.09,1.54.27.47.18.88.45,1.22.8.34.35.61.78.8,1.29.2.51.29,1.09.29,1.75,0,.27-.03.45-.09.54-.06.09-.17.14-.33.14h-5.99c.02.55.1,1.02.23,1.43.14.4.33.74.57,1.01.24.27.53.47.87.6s.71.2,1.12.2c.39,0,.73-.04,1.01-.13.29-.09.53-.19.74-.29.21-.1.38-.2.52-.29.14-.09.27-.13.37-.13.14,0,.25.05.33.16l.5.65Zm-1.45-4.28c0-.35-.05-.67-.15-.96s-.25-.55-.44-.77c-.19-.22-.43-.38-.7-.5s-.59-.18-.95-.18c-.74,0-1.32.21-1.74.64-.42.43-.69,1.02-.81,1.77h4.79Z" fill="#333e48"/>
  </g>
  <rect x="30" y="90" width="435" height="165" fill="#00c1de"/>
  <rect x="525" y="135" width="105" height="90" fill="#ffc700"/>
  <rect x="690" y="90" width="150" height="150" fill="#ffc700"/>
  <rect x="705" y="165" width="120" height="60" fill="#fff"/>
  <text transform="translate(721.77 191.93)" fill="#333e48" font-family="Lato-Medium, Lato" font-size="18" font-weight="500"><tspan x="0" y="0" letter-spacing="-.11em">T</tspan><tspan x="8.74" y="0" letter-spacing="0em">r</tspan><tspan x="15.19" y="0">ansl</tspan><tspan x="46.38" y="0" letter-spacing="0em">a</tspan><tspan x="55.25" y="0">tion </tspan><tspan x="18.53" y="21.6" letter-spacing="-.11em">T</tspan><tspan x="27.17" y="21.6">ables</tspan></text>
  <text transform="translate(731.68 135.23)" fill="#333e48" font-family="Lato-Medium, Lato" font-size="18" font-weight="500"><tspan x="0" y="0" letter-spacing="-.02em">M</tspan><tspan x="16.51" y="0">emor</tspan><tspan x="57.75" y="0" letter-spacing="-.02em">y</tspan></text>
  <text transform="translate(548.99 187.73)" fill="#333e48" font-family="Lato-Medium, Lato" font-size="18" font-weight="500"><tspan x="0" y="0">Caches</tspan></text>
  <rect x="330" y="135" width="105" height="90" fill="#ffc700"/>
  <rect x="45" y="135" width="105" height="90" fill="#ff6b00"/>
  <rect x="240" y="135" width="75" height="90" fill="#ffc700"/>
  <text transform="translate(361.71 166.13)" fill="#333e48" font-family="Lato-Medium, Lato" font-size="18" font-weight="500"><tspan x="0" y="0" letter-spacing="-.11em">T</tspan><tspan x="8.64" y="0">able </tspan><tspan x=".67" y="21.6" letter-spacing="-.06em">W</tspan><tspan x="18.35" y="21.6">alk </tspan><tspan x="3.81" y="43.2" letter-spacing="-.02em">U</tspan><tspan x="16.8" y="43.2">nit</tspan></text>
  <text transform="translate(257.95 187.73)" fill="#333e48" font-family="Lato-Medium, Lato" font-size="18" font-weight="500"><tspan x="0" y="0">TL</tspan><tspan x="19.94" y="0" letter-spacing="-.02em">B</tspan><tspan x="31.28" y="0">s</tspan></text>
  <text transform="translate(61.74 187.73)" fill="#333e48" font-family="Lato-Medium, Lato" font-size="18" font-weight="500"><tspan x="0" y="0" letter-spacing="0em">S</tspan><tspan x="9.75" y="0" letter-spacing="-.01em">o</tspan><tspan x="19.78" y="0">ft</tspan><tspan x="32.64" y="0" letter-spacing="0em">w</tspan><tspan x="46.75" y="0">a</tspan><tspan x="55.74" y="0" letter-spacing="-.02em">r</tspan><tspan x="61.99" y="0">e</tspan></text>
  <text transform="translate(168.53 202.73)" fill="#333e48" font-family="Lato-Medium, Lato" font-size="18" font-weight="500"><tspan x="0" y="0" letter-spacing="-.06em">V</tspan><tspan x="11.28" y="0" letter-spacing="-.03em">A</tspan></text>
  <text transform="translate(484.17 202.73)" fill="#333e48" font-family="Lato-Medium, Lato" font-size="18" font-weight="500"><tspan x="0" y="0" letter-spacing="-.05em">P</tspan><tspan x="9.99" y="0" letter-spacing="-.03em">A</tspan></text>
  <text transform="translate(46.14 127.73)" fill="#333e48" font-family="Lato-Medium, Lato" font-size="18" font-weight="500"><tspan x="0" y="0" letter-spacing="0em">A</tspan><tspan x="12.23" y="0">rm </tspan><tspan x="38.25" y="0" letter-spacing="0em">c</tspan><tspan x="46.7" y="0">o</tspan><tspan x="56.94" y="0" letter-spacing="-.02em">r</tspan><tspan x="63.2" y="0">e</tspan></text>
  <text transform="translate(314.08 125.82)" fill="#333e48" font-family="Lato-Medium, Lato" font-size="18" font-weight="500"><tspan x="0" y="0">MMU</tspan></text>
  <line x1="210" y1="30" x2="210" y2="270" fill="none" stroke="#333e48" stroke-dasharray="0 0 5 3" stroke-miterlimit="10"/>
  <line x1="465" y1="30" x2="465" y2="270" fill="none" stroke="#333e48" stroke-dasharray="0 0 5 3" stroke-miterlimit="10"/>
  <g>
    <line x1="150" y1="165" x2="234.26" y2="165" fill="none" stroke="#333e48" stroke-miterlimit="10"/>
    <polygon points="233.09 168.99 240 165 233.09 161.01 233.09 168.99" fill="#333e48"/>
  </g>
  <g>
    <line x1="435" y1="180" x2="519.26" y2="180" fill="none" stroke="#333e48" stroke-miterlimit="10"/>
    <polygon points="518.09 183.99 525 180 518.09 176.01 518.09 183.99" fill="#333e48"/>
  </g>
  <g>
    <line x1="630" y1="180" x2="684.26" y2="180" fill="none" stroke="#333e48" stroke-miterlimit="10"/>
    <polygon points="683.09 183.99 690 180 683.09 176.01 683.09 183.99" fill="#333e48"/>
  </g>
  <g>
    <polyline points="390 225 390 285 765 285 765 230.74" fill="none" stroke="#333e48" stroke-dasharray="0 0 5 3" stroke-miterlimit="10"/>
    <polygon points="768.99 231.91 765 225 761.01 231.91 768.99 231.91" fill="#333e48"/>
  </g>
  <rect x="225" y="105" width="225" height="135" fill="none" stroke="#333e48" stroke-miterlimit="10"/>
</svg>