<svg xmlns="http://www.w3.org/2000/svg" id="Diagrams" width="215mm" height="85mm" viewBox="0 0 609.45 240.94"><defs><style>.cls-1{letter-spacing:-.02em;}.cls-2{fill:#333e48;font-family:Lato-Regular, Lato;font-size:18px;}.cls-3{letter-spacing:-.02em;}.cls-4{letter-spacing:0em;}.cls-5{letter-spacing:-.01em;}.cls-6{letter-spacing:0em;}.cls-7{stroke:#00c1de;}.cls-7,.cls-8,.cls-9,.cls-10{fill:none;stroke-miterlimit:10;}.cls-8,.cls-9,.cls-10{stroke:#333e48;}.cls-9{stroke-dasharray:0 0 5.01 3;}.cls-10{stroke-dasharray:0 0 5.01 3;}.cls-11{letter-spacing:-.02em;}</style></defs><g><polyline class="cls-8" points="581.1 210.1 581.1 212.6 578.6 212.6"/><line class="cls-10" x1="575.6" y1="212.6" x2="32.35" y2="212.6"/><polyline class="cls-8" points="30.85 212.6 28.35 212.6 28.35 210.1"/><line class="cls-9" x1="28.35" y1="207.09" x2="28.35" y2="32.35"/><polyline class="cls-8" points="28.35 30.85 28.35 28.35 30.85 28.35"/><line class="cls-10" x1="33.85" y1="28.35" x2="577.1" y2="28.35"/><polyline class="cls-8" points="578.6 28.35 581.1 28.35 581.1 30.85"/><line class="cls-9" x1="581.1" y1="33.85" x2="581.1" y2="208.6"/></g><rect class="cls-7" x="42.52" y="70.87" width="255.12" height="127.56"/><rect class="cls-7" x="311.81" y="70.87" width="255.12" height="127.56"/><rect class="cls-7" x="56.69" y="127.93" width="99.21" height="56.32"/><rect class="cls-7" x="184.25" y="127.56" width="99.21" height="56.69"/><rect class="cls-7" x="325.98" y="127.56" width="99.21" height="56.69"/><rect class="cls-7" x="453.54" y="127.56" width="99.21" height="56.69"/><text class="cls-2" transform="translate(240.2 55.79)"><tspan x="0" y="0">Virtual </tspan><tspan class="cls-11" x="57.35" y="0">M</tspan><tspan x="73.79" y="0">achine</tspan></text><text class="cls-2" transform="translate(100.98 98.7)"><tspan x="0" y="0">Virtual </tspan><tspan class="cls-6" x="57.35" y="0">P</tspan><tspan class="cls-3" x="67.98" y="0">r</tspan><tspan x="74.17" y="0">o</tspan><tspan class="cls-4" x="84.37" y="0">c</tspan><tspan x="92.81" y="0">esso</tspan><tspan class="cls-1" x="128.1" y="0">r</tspan></text><text class="cls-2" transform="translate(370.11 98.7)"><tspan x="0" y="0">Virtual </tspan><tspan class="cls-6" x="57.35" y="0">P</tspan><tspan class="cls-3" x="67.98" y="0">r</tspan><tspan x="74.17" y="0">o</tspan><tspan class="cls-4" x="84.37" y="0">c</tspan><tspan x="92.81" y="0">esso</tspan><tspan class="cls-1" x="128.1" y="0">r</tspan></text><text class="cls-2" transform="translate(90.35 161.5)"><tspan class="cls-5" x="0" y="0">v</tspan><tspan x="9.07" y="0">PE</tspan></text><text class="cls-2" transform="translate(217.71 161.5)"><tspan class="cls-5" x="0" y="0">v</tspan><tspan x="9.07" y="0">PE</tspan></text><text class="cls-2" transform="translate(359.88 161.5)"><tspan class="cls-5" x="0" y="0">v</tspan><tspan x="9.07" y="0">PE</tspan></text><text class="cls-2" transform="translate(487.2 161.5)"><tspan class="cls-5" x="0" y="0">v</tspan><tspan x="9.07" y="0">PE</tspan></text></svg>