<svg xmlns="http://www.w3.org/2000/svg" id="Layer_1" width="810" height="975" viewBox="0 0 810 975">
  <g>
    <line x1="210" y1="375.5" x2="339.26" y2="375.5" fill="none" stroke="#333e48" stroke-miterlimit="10"/>
    <polygon points="338.09 379.49 345 375.5 338.09 371.51 338.09 379.49" fill="#333e48"/>
  </g>
  <g>
    <line x1="495" y1="375.5" x2="624.26" y2="375.5" fill="none" stroke="#333e48" stroke-miterlimit="10"/>
    <polygon points="623.09 379.49 630 375.5 623.09 371.51 623.09 379.49" fill="#333e48"/>
  </g>
  <g>
    <line x1="495" y1="629.5" x2="624.26" y2="629.5" fill="none" stroke="#333e48" stroke-miterlimit="10"/>
    <polygon points="623.09 633.49 630 629.5 623.09 625.51 623.09 633.49" fill="#333e48"/>
  </g>
  <g>
    <line x1="495" y1="104.5" x2="624.26" y2="104.5" fill="none" stroke="#333e48" stroke-miterlimit="10"/>
    <polygon points="623.09 108.49 630 104.5 623.09 100.51 623.09 108.49" fill="#333e48"/>
  </g>
  <g>
    <line x1="210" y1="585.5" x2="339.26" y2="585.5" fill="none" stroke="#333e48" stroke-miterlimit="10"/>
    <polygon points="338.09 589.49 345 585.5 338.09 581.51 338.09 589.49" fill="#333e48"/>
  </g>
  <line x1="210" y1="810.5" x2="285" y2="810.5" fill="none" stroke="#333e48" stroke-miterlimit="10"/>
  <g>
    <line x1="210" y1="104.5" x2="339.26" y2="104.5" fill="none" stroke="#333e48" stroke-miterlimit="10"/>
    <polygon points="338.09 108.49 345 104.5 338.09 100.51 338.09 108.49" fill="#333e48"/>
  </g>
  <g>
    <line x1="210" y1="225.5" x2="339.26" y2="225.5" fill="none" stroke="#333e48" stroke-miterlimit="10"/>
    <polygon points="338.09 229.49 345 225.5 338.09 221.51 338.09 229.49" fill="#333e48"/>
  </g>
  <rect x="60" y="75" width="150" height="180" fill="#0091bd"/>
  <rect x="60" y="285" width="150" height="180" fill="#0091bd"/>
  <rect x="60" y="495" width="150" height="180" fill="#0091bd"/>
  <rect x="60" y="750.34" width="150" height="119.66" fill="#0091bd"/>
  <rect x="345" y="285" width="150" height="180" fill="#0091bd"/>
  <rect x="630" y="285" width="150" height="180" fill="#7d868c"/>
  <rect x="630" y="495" width="150" height="180" fill="#ffc700"/>
  <rect x="630" y="705" width="150" height="165" fill="#002b49"/>
  <rect x="630" y="75" width="150" height="180" fill="#95d600"/>
  <rect x="345" y="75" width="150" height="60" fill="#0091bd"/>
  <rect x="345" y="195" width="150" height="60" fill="#0091bd"/>
  <rect x="345" y="495" width="150" height="180" fill="#0091bd"/>
  <text transform="translate(123.53 171.64)" fill="#fff" font-family="Lato" font-size="18" font-weight="500"><tspan x="0" y="0" letter-spacing="-.06em">V</tspan><tspan x="11.28" y="0" letter-spacing="-.03em">A</tspan></text>
  <text transform="translate(123.53 381.64)" fill="#fff" font-family="Lato" font-size="18" font-weight="500"><tspan x="0" y="0" letter-spacing="-.06em">V</tspan><tspan x="11.28" y="0" letter-spacing="-.03em">A</tspan></text>
  <text transform="translate(406.62 381.64)" fill="#fff" font-family="Lato" font-size="18" font-weight="500"><tspan x="0" y="0">I</tspan><tspan x="5.11" y="0" letter-spacing="-.05em">P</tspan><tspan x="15.1" y="0" letter-spacing="-.03em">A</tspan></text>
  <text transform="translate(406.62 231.64)" fill="#fff" font-family="Lato" font-size="18" font-weight="500"><tspan x="0" y="0">I</tspan><tspan x="5.11" y="0" letter-spacing="-.05em">P</tspan><tspan x="15.1" y="0" letter-spacing="-.03em">A</tspan></text>
  <text transform="translate(406.62 111.64)" fill="#fff" font-family="Lato" font-size="18" font-weight="500"><tspan x="0" y="0">I</tspan><tspan x="5.11" y="0" letter-spacing="-.05em">P</tspan><tspan x="15.1" y="0" letter-spacing="-.03em">A</tspan></text>
  <text transform="translate(406.62 591.64)" fill="#fff" font-family="Lato" font-size="18" font-weight="500"><tspan x="0" y="0">I</tspan><tspan x="5.11" y="0" letter-spacing="-.05em">P</tspan><tspan x="15.1" y="0" letter-spacing="-.03em">A</tspan></text>
  <text transform="translate(123.53 591.64)" fill="#fff" font-family="Lato" font-size="18" font-weight="500"><tspan x="0" y="0" letter-spacing="-.06em">V</tspan><tspan x="11.28" y="0" letter-spacing="-.03em">A</tspan></text>
  <text transform="translate(123.53 816.64)" fill="#fff" font-family="Lato" font-size="18" font-weight="500"><tspan x="0" y="0" letter-spacing="-.06em">V</tspan><tspan x="11.28" y="0" letter-spacing="-.03em">A</tspan></text>
  <text transform="translate(255.28 88.14)" fill="#333e48" font-family="Lato" font-size="18" font-weight="500"><tspan x="0" y="0">NS=0</tspan></text>
  <text transform="translate(532.78 614.14)" fill="#333e48" font-family="Lato" font-size="18" font-weight="500"><tspan x="0" y="0">NS=0</tspan></text>
  <text transform="translate(532.78 524.14)" fill="#333e48" font-family="Lato" font-size="18" font-weight="500"><tspan x="0" y="0">NS=1</tspan></text>
  <text transform="translate(255.28 209.14)" fill="#333e48" font-family="Lato" font-size="18" font-weight="500"><tspan x="0" y="0">NS=1</tspan></text>
  <text transform="translate(665.03 171.64)" fill="#333e48" font-family="Lato" font-size="18" font-weight="500"><tspan x="0" y="0" letter-spacing="0em">S</tspan><tspan x="9.75" y="0">ecu</tspan><tspan x="37.95" y="0" letter-spacing="-.02em">r</tspan><tspan x="44.21" y="0">e </tspan><tspan x="58.28" y="0" letter-spacing="-.05em">P</tspan><tspan x="68.27" y="0" letter-spacing="-.03em">A</tspan></text>
  <text transform="translate(619.51 40.84)" fill="#333e48" font-family="Lato" font-size="18" font-weight="500"><tspan x="0" y="0" letter-spacing="0em">A</tspan><tspan x="12.23" y="0" letter-spacing="-.02em">r</tspan><tspan x="18.49" y="0">chi</tspan><tspan x="41.55" y="0" letter-spacing="0em">t</tspan><tspan x="48.01" y="0">ectu</tspan><tspan x="82.73" y="0" letter-spacing="0em">r</tspan><tspan x="89.19" y="0" letter-spacing="0em">al </tspan><tspan x="107.03" y="0" letter-spacing="0em">P</tspan><tspan x="117.86" y="0" letter-spacing="-.01em">h</tspan><tspan x="127.71" y="0" letter-spacing="0em">y</tspan><tspan x="136.88" y="0">sical </tspan><tspan x="24.1" y="21.6" letter-spacing="-.01em">A</tspan><tspan x="36.17" y="21.6" letter-spacing="0em">dd</tspan><tspan x="56.4" y="21.6" letter-spacing="-.02em">r</tspan><tspan x="62.65" y="21.6">ess </tspan><tspan x="92.37" y="21.6" letter-spacing="-.01em">S</tspan><tspan x="101.97" y="21.6">pa</tspan><tspan x="121.09" y="21.6" letter-spacing="0em">c</tspan><tspan x="129.54" y="21.6">es</tspan></text>
  <text transform="translate(44.04 851.45) rotate(-90)" fill="#333e48" font-family="Lato" font-size="18" font-weight="500"><tspan x="0" y="0" letter-spacing="-.03em">R</tspan><tspan x="10.75" y="0">o</tspan><tspan x="21" y="0" letter-spacing="0em">o</tspan><tspan x="31.07" y="0">t </tspan><tspan x="42.13" y="0" letter-spacing="-.02em">S</tspan><tspan x="51.52" y="0">t</tspan><tspan x="58.03" y="0" letter-spacing="0em">a</tspan><tspan x="66.91" y="0" letter-spacing="0em">t</tspan><tspan x="73.37" y="0">e</tspan></text>
  <text transform="translate(44.04 633.34) rotate(-90)" fill="#333e48" font-family="Lato" font-size="18" font-weight="500"><tspan x="0" y="0" letter-spacing="-.03em">R</tspan><tspan x="10.75" y="0">ealm </tspan><tspan x="53" y="0" letter-spacing="-.02em">S</tspan><tspan x="62.39" y="0">ta</tspan><tspan x="77.89" y="0" letter-spacing="0em">g</tspan><tspan x="87.15" y="0">e</tspan></text>
  <text transform="translate(44.04 443.82) rotate(-90)" fill="#333e48" font-family="Lato" font-size="18" font-weight="500"><tspan x="0" y="0" letter-spacing="-.02em">N</tspan><tspan x="13.5" y="0">on-secu</tspan><tspan x="76.54" y="0" letter-spacing="-.02em">r</tspan><tspan x="82.79" y="0">e </tspan><tspan x="96.87" y="0" letter-spacing="-.02em">S</tspan><tspan x="106.25" y="0">t</tspan><tspan x="112.77" y="0" letter-spacing="0em">a</tspan><tspan x="121.64" y="0" letter-spacing="0em">t</tspan><tspan x="128.11" y="0">e</tspan></text>
  <text transform="translate(44.04 214.52) rotate(-90)" fill="#333e48" font-family="Lato" font-size="18" font-weight="500"><tspan x="0" y="0" letter-spacing="0em">S</tspan><tspan x="9.75" y="0">ecu</tspan><tspan x="37.95" y="0" letter-spacing="-.02em">r</tspan><tspan x="44.21" y="0">e </tspan><tspan x="58.28" y="0" letter-spacing="-.02em">S</tspan><tspan x="67.67" y="0">t</tspan><tspan x="74.19" y="0" letter-spacing="0em">a</tspan><tspan x="83.06" y="0" letter-spacing="0em">t</tspan><tspan x="89.52" y="0">e</tspan></text>
  <text transform="translate(667.67 591.64)" fill="#333e48" font-family="Lato" font-size="18" font-weight="500"><tspan x="0" y="0" letter-spacing="-.03em">R</tspan><tspan x="10.75" y="0">ealm </tspan><tspan x="53" y="0" letter-spacing="-.05em">P</tspan><tspan x="62.99" y="0" letter-spacing="-.03em">A</tspan></text>
  <text transform="translate(645.74 381.64)" fill="#fff" font-family="Lato" font-size="18" font-weight="500"><tspan x="0" y="0" letter-spacing="-.02em">N</tspan><tspan x="13.5" y="0">on-secu</tspan><tspan x="76.54" y="0" letter-spacing="-.02em">r</tspan><tspan x="82.79" y="0">e </tspan><tspan x="96.87" y="0" letter-spacing="-.05em">P</tspan><tspan x="106.86" y="0" letter-spacing="-.03em">A</tspan></text>
  <text transform="translate(673.11 794.14)" fill="#fff" font-family="Lato" font-size="18" font-weight="500"><tspan x="0" y="0" letter-spacing="-.03em">R</tspan><tspan x="10.75" y="0">o</tspan><tspan x="21" y="0" letter-spacing="0em">o</tspan><tspan x="31.07" y="0">t </tspan><tspan x="42.13" y="0" letter-spacing="-.05em">P</tspan><tspan x="52.12" y="0" letter-spacing="-.03em">A</tspan></text>
  <text transform="translate(366.4 749.14)" fill="#333e48" font-family="Lato" font-size="18" font-weight="500"><tspan x="0" y="0">(NSE, NS)=11</tspan></text>
  <text transform="translate(366.4 839.14)" fill="#333e48" font-family="Lato" font-size="18" font-weight="500"><tspan x="0" y="0">(NSE, NS)=10</tspan></text>
  <g>
    <path d="m48.11,905.42v12.92h-.97c-.15,0-.27-.03-.37-.08-.1-.05-.2-.14-.3-.26l-7.3-9.44c.01.16.02.32.03.48,0,.16.01.3.01.44v8.87h-1.68v-12.92h.99c.17,0,.29.02.38.06s.18.13.28.27l7.32,9.45c-.02-.17-.03-.34-.04-.51s-.01-.32-.01-.46v-8.8h1.67Z" fill="#333e48"/>
    <path d="m54.56,909.05c.67,0,1.28.11,1.82.33s1,.53,1.39.94c.38.41.67.91.88,1.49s.31,1.23.31,1.95-.1,1.37-.31,1.95-.5,1.08-.88,1.49c-.38.41-.84.72-1.39.94-.54.22-1.15.33-1.82.33s-1.29-.11-1.83-.33c-.54-.22-1.01-.53-1.39-.94s-.68-.9-.89-1.49-.31-1.23-.31-1.95.1-1.37.31-1.95.5-1.07.89-1.49.85-.73,1.39-.94,1.15-.33,1.83-.33Zm0,8.05c.86,0,1.51-.29,1.94-.87.43-.58.64-1.4.64-2.46s-.21-1.88-.64-2.46c-.43-.59-1.07-.88-1.94-.88s-1.53.29-1.96.88c-.43.58-.64,1.41-.64,2.46s.21,1.88.64,2.46c.43.58,1.08.87,1.96.87Z" fill="#333e48"/>
    <path d="m63.6,918.49c-.74,0-1.31-.21-1.71-.62-.4-.41-.6-1.01-.6-1.77v-5.47h-1.06c-.1,0-.19-.03-.26-.09-.07-.06-.1-.16-.1-.28v-.71l1.48-.21.4-2.73c.02-.1.07-.18.14-.24.07-.06.16-.08.27-.08h.89v3.07h2.59v1.28h-2.59v5.36c0,.36.09.63.27.81s.4.27.68.27c.16,0,.3-.02.42-.06.12-.04.22-.09.3-.14s.16-.1.22-.14c.06-.04.11-.06.16-.06.06,0,.11.01.14.04s.07.07.1.13l.52.85c-.29.26-.63.47-1.03.61-.4.14-.81.22-1.23.22Z" fill="#333e48"/>
    <path d="m74.7,917.04c-.22.25-.46.47-.75.65s-.58.33-.9.45c-.32.11-.65.2-.99.25-.34.05-.67.08-1,.08-.63,0-1.21-.11-1.75-.32s-1-.53-1.4-.94c-.39-.41-.7-.92-.92-1.53-.22-.61-.33-1.31-.33-2.1,0-.63.1-1.23.3-1.78.2-.55.48-1.03.85-1.44.37-.41.82-.73,1.35-.96.53-.23,1.13-.35,1.8-.35.56,0,1.07.09,1.54.27.47.18.88.45,1.22.8.34.35.61.78.8,1.29.2.51.29,1.09.29,1.75,0,.27-.03.45-.09.54-.06.09-.17.14-.33.14h-5.99c.02.55.1,1.02.23,1.43.14.41.33.74.57,1.01.24.27.53.47.87.6s.71.2,1.12.2c.39,0,.73-.04,1.01-.13s.53-.19.74-.29.38-.2.52-.29.27-.13.37-.13c.14,0,.25.05.33.16l.5.65Zm-1.45-4.28c0-.35-.05-.67-.15-.96s-.25-.55-.44-.76c-.19-.22-.43-.38-.7-.5-.28-.12-.59-.18-.95-.18-.74,0-1.32.21-1.74.64-.42.43-.69,1.02-.81,1.77h4.79Z" fill="#333e48"/>
    <path d="m76.58,910.63c0-.16.03-.31.09-.46.06-.14.14-.27.25-.38.1-.11.23-.19.37-.26.14-.06.3-.09.47-.09s.32.03.46.09c.14.06.27.15.38.26.11.11.19.23.26.38.06.14.09.3.09.46s-.03.32-.09.47c-.06.14-.15.27-.26.38s-.23.19-.38.25c-.14.06-.3.09-.46.09s-.32-.03-.47-.09c-.14-.06-.27-.14-.37-.25-.11-.11-.19-.23-.25-.38-.06-.14-.09-.3-.09-.47Zm0,6.66c0-.16.03-.32.09-.46.06-.14.14-.27.25-.38.1-.11.23-.19.37-.26.14-.06.3-.09.47-.09s.32.03.46.09c.14.06.27.15.38.26.11.11.19.23.26.38.06.14.09.3.09.46s-.03.32-.09.47c-.06.14-.15.27-.26.38-.11.11-.23.19-.38.25-.14.06-.3.09-.46.09s-.32-.03-.47-.09c-.14-.06-.27-.14-.37-.25-.11-.11-.19-.23-.25-.38-.06-.14-.09-.3-.09-.47Z" fill="#333e48"/>
    <path d="m95.86,918.34h-1.71c-.34,0-.59-.13-.75-.4l-3.2-4.48c-.1-.15-.21-.26-.33-.32-.12-.06-.3-.09-.54-.09h-1.25v5.3h-1.92v-12.92h3.73c.83,0,1.55.09,2.16.26.6.17,1.1.41,1.49.73.39.32.68.69.87,1.14.19.44.28.94.28,1.49,0,.45-.07.87-.21,1.27s-.34.75-.61,1.07c-.27.32-.59.59-.98.81-.38.23-.82.4-1.3.52.24.14.45.34.62.6l3.64,5.03Zm-6.03-6.7c.49,0,.93-.06,1.3-.18s.69-.29.94-.51.44-.48.57-.78c.13-.3.19-.64.19-1,0-.74-.24-1.31-.73-1.68-.49-.38-1.22-.57-2.2-.57h-1.81v4.73h1.75Z" fill="#333e48"/>
    <path d="m100.46,909.05c.67,0,1.28.11,1.82.33s1,.53,1.39.94c.38.41.67.91.88,1.49s.31,1.23.31,1.95-.1,1.37-.31,1.95-.5,1.08-.88,1.49c-.38.41-.84.72-1.39.94-.54.22-1.15.33-1.82.33s-1.29-.11-1.83-.33c-.54-.22-1.01-.53-1.39-.94s-.68-.9-.89-1.49-.31-1.23-.31-1.95.1-1.37.31-1.95.5-1.07.89-1.49.85-.73,1.39-.94,1.15-.33,1.83-.33Zm0,8.05c.86,0,1.51-.29,1.94-.87.43-.58.64-1.4.64-2.46s-.21-1.88-.64-2.46c-.43-.59-1.07-.88-1.94-.88s-1.53.29-1.96.88c-.43.58-.64,1.41-.64,2.46s.21,1.88.64,2.46c.43.58,1.08.87,1.96.87Z" fill="#333e48"/>
    <path d="m110.7,909.05c.67,0,1.28.11,1.82.33s1,.53,1.39.94c.38.41.67.91.88,1.49s.31,1.23.31,1.95-.1,1.37-.31,1.95-.5,1.08-.88,1.49c-.38.41-.84.72-1.39.94-.54.22-1.15.33-1.82.33s-1.29-.11-1.83-.33c-.54-.22-1.01-.53-1.39-.94s-.68-.9-.89-1.49-.31-1.23-.31-1.95.1-1.37.31-1.95.5-1.07.89-1.49.85-.73,1.39-.94,1.15-.33,1.83-.33Zm0,8.05c.86,0,1.51-.29,1.94-.87.43-.58.64-1.4.64-2.46s-.21-1.88-.64-2.46c-.43-.59-1.07-.88-1.94-.88s-1.53.29-1.96.88c-.43.58-.64,1.41-.64,2.46s.21,1.88.64,2.46c.43.58,1.08.87,1.96.87Z" fill="#333e48"/>
    <path d="m119.74,918.49c-.74,0-1.31-.21-1.71-.62-.4-.41-.6-1.01-.6-1.77v-5.47h-1.06c-.1,0-.19-.03-.26-.09-.07-.06-.1-.16-.1-.28v-.71l1.48-.21.4-2.73c.02-.1.07-.18.14-.24.07-.06.16-.08.27-.08h.89v3.07h2.59v1.28h-2.59v5.36c0,.36.09.63.27.81s.4.27.68.27c.16,0,.3-.02.42-.06.12-.04.22-.09.3-.14s.16-.1.22-.14c.06-.04.11-.06.16-.06.06,0,.11.01.14.04s.07.07.1.13l.52.85c-.29.26-.63.47-1.03.61-.4.14-.81.22-1.23.22Z" fill="#333e48"/>
    <path d="m138.3,905.42l-5.26,12.92h-1.72l-5.26-12.92h1.53c.17,0,.3.04.41.13.11.08.18.19.24.32l3.49,8.79c.08.21.17.45.25.71s.15.53.22.81c.06-.28.13-.55.2-.81.07-.26.15-.5.23-.71l3.48-8.79c.04-.12.12-.22.23-.31.11-.09.25-.13.41-.13h1.54Z" fill="#333e48"/>
    <path d="m149.57,918.34h-1.48c-.17,0-.31-.04-.41-.13-.11-.08-.19-.19-.23-.32l-1.14-3h-5.7l-1.14,3c-.04.11-.12.22-.23.31-.11.09-.25.14-.41.14h-1.48l5.15-12.92h1.93l5.15,12.92Zm-3.79-4.81l-1.92-5.01c-.14-.34-.28-.77-.41-1.3-.07.26-.13.5-.2.72-.07.22-.14.42-.2.59l-1.91,5h4.64Z" fill="#333e48"/>
    <path d="m156.21,910.77c-.05.08-.1.13-.15.17-.05.03-.12.05-.21.05-.1,0-.2-.03-.32-.1-.12-.07-.26-.14-.42-.22s-.36-.15-.58-.22c-.22-.07-.49-.1-.79-.1-.25,0-.48.03-.69.09s-.38.15-.53.26c-.14.11-.25.24-.33.4-.08.15-.12.32-.12.49,0,.23.07.42.2.57s.31.28.53.39c.22.11.47.21.75.29.28.09.56.18.85.27.29.1.58.21.86.33.28.12.53.28.75.46.22.18.4.4.53.66.14.26.2.57.2.95,0,.43-.08.82-.23,1.18-.15.36-.38.68-.67.94-.3.26-.67.47-1.1.62-.44.15-.94.23-1.5.23-.63,0-1.21-.11-1.75-.32-.53-.21-.98-.48-1.34-.8l.41-.67c.05-.08.11-.15.18-.19.07-.05.17-.07.29-.07.11,0,.23.04.35.13.12.08.26.18.43.27.17.1.37.19.61.27s.54.12.9.12c.3,0,.56-.04.78-.11.22-.07.41-.18.55-.31.15-.13.26-.28.33-.45.07-.17.11-.34.11-.53,0-.24-.07-.44-.2-.6-.13-.16-.31-.29-.53-.41-.22-.11-.47-.21-.75-.3-.28-.08-.57-.17-.86-.27s-.58-.21-.86-.33-.53-.29-.75-.48c-.22-.19-.4-.43-.53-.7-.13-.28-.2-.61-.2-1.01,0-.35.07-.69.22-1.02.15-.32.36-.61.64-.86.28-.25.62-.44,1.03-.59s.88-.22,1.41-.22c.61,0,1.15.1,1.64.29.49.19.91.46,1.25.79l-.39.64Z" fill="#333e48"/>
    <path d="m169.6,910.91c-.05.07-.11.12-.16.16s-.12.06-.22.06-.2-.04-.3-.11c-.11-.08-.24-.16-.4-.24-.16-.09-.35-.17-.58-.24-.22-.08-.5-.11-.83-.11-.43,0-.81.08-1.14.23s-.6.38-.82.67c-.22.29-.39.64-.5,1.05-.11.41-.17.88-.17,1.4s.06,1.01.18,1.43.29.77.51,1.05.49.5.81.65c.32.15.67.22,1.06.22s.69-.05.94-.14c.25-.09.45-.19.61-.3.16-.11.3-.21.41-.3s.22-.14.33-.14c.14,0,.25.05.33.16l.5.65c-.21.26-.45.48-.71.66-.26.18-.54.33-.83.44-.29.11-.6.2-.92.25-.32.05-.65.08-.98.08-.57,0-1.1-.1-1.6-.32-.5-.21-.92-.52-1.29-.92-.36-.4-.65-.89-.86-1.48-.21-.58-.32-1.25-.32-1.99,0-.68.09-1.31.28-1.88.19-.58.47-1.07.84-1.49.37-.42.82-.74,1.36-.98s1.16-.36,1.85-.36c.65,0,1.23.1,1.73.32.5.21.94.51,1.33.89l-.47.65Z" fill="#333e48"/>
    <path d="m171.57,910.48c.51-.49,1.06-.85,1.66-1.09.6-.24,1.25-.36,1.97-.36.52,0,.98.08,1.39.26.4.17.74.41,1.02.72.28.31.48.67.62,1.1.14.43.21.9.21,1.41v5.83h-.78c-.17,0-.31-.03-.4-.09-.09-.06-.16-.16-.22-.32l-.19-.8c-.23.22-.46.41-.69.57-.23.17-.47.31-.72.42-.25.12-.51.21-.8.27-.28.06-.59.09-.94.09s-.7-.05-1.01-.15c-.32-.1-.59-.25-.82-.46-.23-.2-.42-.46-.55-.77-.14-.3-.2-.66-.2-1.07,0-.36.1-.71.29-1.04.19-.33.51-.63.95-.9.44-.26,1.02-.48,1.73-.65s1.59-.26,2.62-.29v-.67c0-.69-.15-1.21-.44-1.55-.29-.34-.73-.51-1.3-.51-.38,0-.71.05-.97.14-.26.1-.49.2-.67.32-.19.12-.35.22-.5.32-.14.1-.29.14-.44.14-.12,0-.22-.03-.31-.1-.09-.07-.16-.14-.21-.23l-.32-.57Zm5.15,3.81c-.71.02-1.32.08-1.82.17s-.9.2-1.21.35c-.31.14-.54.31-.67.51-.14.2-.21.41-.21.65s.04.42.11.59c.08.16.18.3.31.4s.28.18.46.23c.17.05.36.07.57.07.27,0,.52-.03.74-.08.23-.05.44-.13.63-.23s.39-.22.57-.36c.18-.14.36-.31.53-.5v-1.8Z" fill="#333e48"/>
    <path d="m182.44,910.47c.2-.21.41-.4.62-.58s.45-.32.69-.45.5-.22.78-.29.58-.1.9-.1c.5,0,.95.08,1.33.25s.7.4.96.71c.26.3.45.67.58,1.09s.2.9.2,1.41v5.82h-1.76v-5.82c0-.65-.15-1.16-.45-1.53-.3-.36-.76-.54-1.38-.54-.45,0-.87.11-1.26.32-.39.21-.76.5-1.09.87v6.71h-1.75v-9.14h1.05c.25,0,.4.12.46.35l.13.92Z" fill="#333e48"/>
    <path d="m195.18,910.48c.51-.49,1.06-.85,1.66-1.09.6-.24,1.25-.36,1.97-.36.52,0,.98.08,1.39.26.4.17.74.41,1.02.72.28.31.48.67.62,1.1.14.43.21.9.21,1.41v5.83h-.78c-.17,0-.31-.03-.4-.09-.09-.06-.16-.16-.22-.32l-.19-.8c-.23.22-.46.41-.69.57-.23.17-.47.31-.72.42-.25.12-.51.21-.8.27-.28.06-.59.09-.94.09s-.7-.05-1.01-.15c-.32-.1-.59-.25-.82-.46-.23-.2-.42-.46-.55-.77-.14-.3-.2-.66-.2-1.07,0-.36.1-.71.29-1.04.19-.33.51-.63.95-.9.44-.26,1.02-.48,1.73-.65s1.59-.26,2.62-.29v-.67c0-.69-.15-1.21-.44-1.55-.29-.34-.73-.51-1.3-.51-.38,0-.71.05-.97.14-.26.1-.49.2-.67.32-.19.12-.35.22-.5.32-.14.1-.29.14-.44.14-.12,0-.22-.03-.31-.1-.09-.07-.16-.14-.21-.23l-.32-.57Zm5.15,3.81c-.71.02-1.32.08-1.82.17s-.9.2-1.21.35c-.31.14-.54.31-.67.51-.14.2-.21.41-.21.65s.04.42.11.59c.08.16.18.3.31.4s.28.18.46.23c.17.05.36.07.57.07.27,0,.52-.03.74-.08.23-.05.44-.13.63-.23s.39-.22.57-.36c.18-.14.36-.31.53-.5v-1.8Z" fill="#333e48"/>
    <path d="m206.2,905.06v13.28h-1.76v-13.28h1.76Z" fill="#333e48"/>
    <path d="m214.09,910.77c-.05.08-.1.13-.15.17-.05.03-.12.05-.21.05-.1,0-.2-.03-.32-.1-.12-.07-.26-.14-.42-.22s-.36-.15-.58-.22c-.22-.07-.49-.1-.79-.1-.25,0-.48.03-.69.09s-.38.15-.53.26c-.14.11-.25.24-.33.4-.08.15-.12.32-.12.49,0,.23.07.42.2.57s.31.28.53.39c.22.11.47.21.75.29.28.09.56.18.85.27.29.1.58.21.86.33.28.12.53.28.75.46.22.18.4.4.53.66.14.26.2.57.2.95,0,.43-.08.82-.23,1.18-.15.36-.38.68-.67.94-.3.26-.67.47-1.1.62-.44.15-.94.23-1.5.23-.63,0-1.21-.11-1.75-.32-.53-.21-.98-.48-1.34-.8l.41-.67c.05-.08.11-.15.18-.19.07-.05.17-.07.29-.07.11,0,.23.04.35.13.12.08.26.18.43.27.17.1.37.19.61.27s.54.12.9.12c.3,0,.56-.04.78-.11.22-.07.41-.18.55-.31.15-.13.26-.28.33-.45.07-.17.11-.34.11-.53,0-.24-.07-.44-.2-.6-.13-.16-.31-.29-.53-.41-.22-.11-.47-.21-.75-.3-.28-.08-.57-.17-.86-.27s-.58-.21-.86-.33-.53-.29-.75-.48c-.22-.19-.4-.43-.53-.7-.13-.28-.2-.61-.2-1.01,0-.35.07-.69.22-1.02.15-.32.36-.61.64-.86.28-.25.62-.44,1.03-.59s.88-.22,1.41-.22c.61,0,1.15.1,1.64.29.49.19.91.46,1.25.79l-.39.64Z" fill="#333e48"/>
    <path d="m220.42,909.05c.67,0,1.28.11,1.82.33s1,.53,1.39.94c.38.41.67.91.88,1.49s.31,1.23.31,1.95-.1,1.37-.31,1.95-.5,1.08-.88,1.49c-.38.41-.84.72-1.39.94-.54.22-1.15.33-1.82.33s-1.29-.11-1.83-.33c-.54-.22-1.01-.53-1.39-.94s-.68-.9-.89-1.49-.31-1.23-.31-1.95.1-1.37.31-1.95.5-1.07.89-1.49.85-.73,1.39-.94,1.15-.33,1.83-.33Zm0,8.05c.86,0,1.51-.29,1.94-.87.43-.58.64-1.4.64-2.46s-.21-1.88-.64-2.46c-.43-.59-1.07-.88-1.94-.88s-1.53.29-1.96.88c-.43.58-.64,1.41-.64,2.46s.21,1.88.64,2.46c.43.58,1.08.87,1.96.87Z" fill="#333e48"/>
    <path d="m231.31,918.34v-9.14h1.05c.25,0,.4.12.46.35l.13.87c.34-.4.71-.73,1.12-.99s.89-.38,1.44-.38c.61,0,1.1.17,1.48.5.38.33.65.79.83,1.36.13-.32.3-.6.51-.84.21-.23.44-.43.7-.58.26-.15.53-.26.82-.33s.59-.11.89-.11c.49,0,.92.08,1.3.23.38.15.7.38.97.67.26.29.46.66.6,1.09.14.43.21.92.21,1.48v5.82h-1.76v-5.82c0-.68-.15-1.2-.45-1.55s-.73-.52-1.3-.52c-.25,0-.49.04-.72.13-.23.09-.43.22-.6.39-.17.17-.31.39-.4.65-.1.26-.15.56-.15.9v5.82h-1.76v-5.82c0-.71-.14-1.23-.42-1.57s-.7-.5-1.24-.5c-.38,0-.73.1-1.05.3-.32.2-.62.47-.89.81v6.79h-1.75Z" fill="#333e48"/>
    <path d="m245.95,910.48c.51-.49,1.06-.85,1.66-1.09.6-.24,1.25-.36,1.97-.36.52,0,.98.08,1.39.26.4.17.74.41,1.02.72.28.31.48.67.62,1.1.14.43.21.9.21,1.41v5.83h-.78c-.17,0-.31-.03-.4-.09-.09-.06-.16-.16-.22-.32l-.19-.8c-.23.22-.46.41-.69.57-.23.17-.47.31-.72.42-.25.12-.51.21-.8.27-.28.06-.59.09-.94.09s-.7-.05-1.01-.15c-.32-.1-.59-.25-.82-.46-.23-.2-.42-.46-.55-.77-.14-.3-.2-.66-.2-1.07,0-.36.1-.71.29-1.04.19-.33.51-.63.95-.9.44-.26,1.02-.48,1.73-.65s1.59-.26,2.62-.29v-.67c0-.69-.15-1.21-.44-1.55-.29-.34-.73-.51-1.3-.51-.38,0-.71.05-.97.14-.26.1-.49.2-.67.32-.19.12-.35.22-.5.32-.14.1-.29.14-.44.14-.12,0-.22-.03-.31-.1-.09-.07-.16-.14-.21-.23l-.32-.57Zm5.15,3.81c-.71.02-1.32.08-1.82.17s-.9.2-1.21.35c-.31.14-.54.31-.67.51-.14.2-.21.41-.21.65s.04.42.11.59c.08.16.18.3.31.4s.28.18.46.23c.17.05.36.07.57.07.27,0,.52-.03.74-.08.23-.05.44-.13.63-.23s.39-.22.57-.36c.18-.14.36-.31.53-.5v-1.8Z" fill="#333e48"/>
    <path d="m256.84,910.57c.19-.23.4-.44.62-.63.22-.19.45-.35.71-.49.25-.13.52-.24.81-.32.29-.07.59-.11.91-.11.52,0,.99.1,1.42.31s.78.5,1.08.9c.3.4.53.88.7,1.47s.25,1.25.25,2.01c0,.68-.09,1.31-.27,1.88-.18.58-.44,1.08-.78,1.51s-.75.76-1.24,1c-.49.24-1.04.36-1.65.36-.55,0-1.01-.09-1.4-.27-.39-.18-.74-.43-1.04-.76v3.97h-1.75v-12.21h1.05c.25,0,.4.12.46.35l.15,1.02Zm.09,5.53c.29.38.6.64.93.79s.71.23,1.12.23c.8,0,1.43-.29,1.87-.87.44-.58.66-1.42.66-2.53,0-.58-.05-1.08-.15-1.49-.1-.41-.24-.75-.43-1.01-.19-.26-.42-.45-.7-.58s-.59-.18-.94-.18c-.51,0-.95.11-1.33.34s-.72.55-1.04.97v4.33Z" fill="#333e48"/>
    <path d="m40.35,940.09c-.74,0-1.31-.21-1.71-.62-.4-.41-.6-1-.6-1.77v-5.47h-1.06c-.1,0-.19-.03-.26-.09-.07-.06-.1-.16-.1-.28v-.71l1.48-.21.4-2.73c.02-.1.07-.18.14-.24.07-.06.16-.09.27-.09h.89v3.07h2.59v1.28h-2.59v5.35c0,.36.09.63.27.81.18.18.4.27.68.27.16,0,.3-.02.42-.06.12-.04.22-.09.3-.14s.16-.1.22-.14c.06-.04.11-.06.16-.06.06,0,.11.01.14.04s.07.07.1.13l.52.85c-.29.26-.63.47-1.03.61-.4.14-.81.22-1.23.22Z" fill="#333e48"/>
    <path d="m47.85,930.65c.67,0,1.28.11,1.82.33s1,.53,1.39.95c.38.41.67.91.88,1.48.2.58.31,1.23.31,1.95s-.1,1.37-.31,1.95-.5,1.08-.88,1.48c-.38.41-.84.72-1.39.94-.54.22-1.15.33-1.82.33s-1.29-.11-1.83-.33c-.54-.22-1.01-.53-1.39-.94s-.68-.9-.89-1.48-.31-1.23-.31-1.95.1-1.37.31-1.95c.21-.58.5-1.07.89-1.48.38-.41.85-.73,1.39-.95s1.15-.33,1.83-.33Zm0,8.04c.86,0,1.51-.29,1.94-.87.43-.58.64-1.4.64-2.46s-.21-1.88-.64-2.46c-.43-.58-1.07-.88-1.94-.88s-1.53.29-1.96.88c-.43.58-.64,1.41-.64,2.46s.21,1.88.64,2.46c.43.58,1.08.87,1.96.87Z" fill="#333e48"/>
    <path d="m65.79,929.12c-.06.1-.12.18-.19.23-.07.05-.15.07-.25.07s-.23-.05-.37-.15c-.14-.1-.31-.21-.52-.33s-.45-.23-.74-.33-.63-.15-1.04-.15c-.38,0-.71.05-.99.15s-.52.23-.72.41c-.19.17-.34.37-.44.6-.1.23-.15.48-.15.75,0,.35.09.64.27.87.18.23.41.42.7.58s.62.3.98.42c.37.12.74.24,1.12.37s.76.28,1.12.45c.37.17.69.38.98.63s.52.57.7.94c.18.37.26.82.26,1.36,0,.57-.1,1.1-.29,1.6-.2.5-.48.93-.85,1.3-.37.37-.83.67-1.37.88-.54.21-1.16.32-1.85.32-.41,0-.82-.04-1.21-.12-.39-.08-.76-.2-1.11-.34-.35-.15-.67-.32-.98-.53s-.57-.44-.81-.7l.55-.92c.05-.07.12-.13.19-.18.08-.05.16-.07.26-.07.13,0,.27.07.44.2s.37.28.61.44.53.3.87.44.75.2,1.24.2c.4,0,.75-.05,1.06-.16.31-.11.58-.26.79-.45.21-.19.38-.43.49-.71s.17-.58.17-.92c0-.38-.09-.69-.26-.93s-.41-.44-.69-.6-.62-.3-.98-.41c-.37-.11-.74-.23-1.12-.36s-.76-.27-1.12-.43c-.37-.16-.69-.37-.98-.63s-.52-.59-.69-.98c-.17-.39-.26-.88-.26-1.45,0-.46.09-.91.27-1.34.18-.43.44-.81.79-1.15s.77-.6,1.27-.8,1.08-.3,1.73-.3c.73,0,1.39.12,2,.35.61.23,1.14.56,1.59.99l-.47.91Z" fill="#333e48"/>
    <path d="m76,938.64c-.22.25-.46.47-.75.65-.28.18-.58.33-.9.45-.32.12-.65.2-.99.25-.34.05-.67.08-1,.08-.63,0-1.21-.11-1.75-.32s-1-.52-1.4-.94c-.39-.41-.7-.92-.92-1.53-.22-.61-.33-1.31-.33-2.1,0-.64.1-1.23.3-1.78.2-.55.48-1.03.85-1.44.37-.41.82-.73,1.35-.96s1.13-.35,1.8-.35c.56,0,1.07.09,1.54.27.47.18.88.45,1.22.8.34.35.61.78.8,1.29.2.51.29,1.09.29,1.75,0,.27-.03.45-.09.54-.06.09-.17.14-.33.14h-5.99c.02.55.1,1.02.23,1.43.14.41.33.74.57,1.01s.53.47.87.6c.34.13.71.2,1.12.2.39,0,.73-.04,1.01-.13s.53-.19.74-.29c.21-.1.38-.2.52-.29s.27-.14.37-.14c.14,0,.25.05.33.16l.5.65Zm-1.45-4.28c0-.35-.05-.67-.15-.96-.1-.29-.25-.55-.44-.77-.19-.22-.43-.38-.7-.5s-.59-.18-.95-.18c-.74,0-1.32.21-1.74.64s-.69,1.02-.81,1.77h4.79Z" fill="#333e48"/>
    <path d="m84.43,932.51c-.05.07-.11.12-.16.16s-.12.06-.22.06-.2-.04-.3-.11c-.11-.07-.24-.16-.4-.24s-.35-.17-.58-.24c-.22-.07-.5-.11-.83-.11-.43,0-.81.08-1.14.23-.33.16-.6.38-.82.67s-.39.64-.5,1.05c-.11.41-.17.88-.17,1.4s.06,1.01.18,1.43c.12.42.29.77.51,1.05.22.29.49.5.81.65.32.15.67.22,1.06.22s.69-.05.94-.14c.25-.09.45-.19.61-.3.16-.11.3-.21.41-.3.11-.09.22-.14.33-.14.14,0,.25.05.33.16l.5.65c-.21.26-.45.48-.71.66-.26.18-.54.33-.83.44-.29.12-.6.2-.92.25-.32.05-.65.08-.98.08-.57,0-1.1-.11-1.6-.32s-.92-.52-1.29-.92c-.36-.4-.65-.9-.86-1.48-.21-.58-.32-1.25-.32-1.99,0-.68.09-1.31.28-1.88.19-.58.47-1.07.84-1.49.37-.42.82-.74,1.36-.98.54-.24,1.16-.36,1.85-.36.65,0,1.23.1,1.73.31.5.21.94.51,1.33.89l-.47.65Z" fill="#333e48"/>
    <path d="m94.24,930.8v9.14h-1.05c-.24,0-.4-.12-.47-.35l-.13-.92c-.2.21-.41.4-.62.58-.22.17-.45.32-.69.45s-.51.22-.78.29c-.28.07-.57.1-.89.1-.5,0-.95-.08-1.33-.25-.38-.17-.7-.4-.96-.71-.26-.3-.45-.67-.58-1.09-.13-.43-.2-.9-.2-1.41v-5.82h1.76v5.82c0,.65.15,1.16.45,1.53.3.36.76.54,1.38.54.45,0,.87-.11,1.26-.32.39-.21.76-.5,1.1-.88v-6.7h1.75Z" fill="#333e48"/>
    <path d="m98.35,932.55c.29-.6.65-1.07,1.06-1.41.41-.34.91-.51,1.49-.51.2,0,.38.02.56.07.18.04.33.11.46.2l-.12,1.32c-.04.16-.14.24-.3.24-.08,0-.21-.02-.38-.05-.17-.03-.35-.05-.54-.05-.28,0-.53.04-.75.12-.22.08-.41.2-.58.36-.17.16-.32.35-.45.58-.13.23-.26.49-.37.79v5.72h-1.75v-9.14h1.01c.19,0,.32.03.39.1.07.07.12.19.15.36l.11,1.29Z" fill="#333e48"/>
    <path d="m110.46,938.64c-.22.25-.46.47-.75.65-.28.18-.58.33-.9.45-.32.12-.65.2-.99.25-.34.05-.67.08-1,.08-.63,0-1.21-.11-1.75-.32s-1-.52-1.4-.94c-.39-.41-.7-.92-.92-1.53-.22-.61-.33-1.31-.33-2.1,0-.64.1-1.23.3-1.78.2-.55.48-1.03.85-1.44.37-.41.82-.73,1.35-.96s1.13-.35,1.8-.35c.56,0,1.07.09,1.54.27.47.18.88.45,1.22.8.34.35.61.78.8,1.29.2.51.29,1.09.29,1.75,0,.27-.03.45-.09.54-.06.09-.17.14-.33.14h-5.99c.02.55.1,1.02.23,1.43.14.41.33.74.57,1.01s.53.47.87.6c.34.13.71.2,1.12.2.39,0,.73-.04,1.01-.13s.53-.19.74-.29c.21-.1.38-.2.52-.29s.27-.14.37-.14c.14,0,.25.05.33.16l.5.65Zm-1.45-4.28c0-.35-.05-.67-.15-.96-.1-.29-.25-.55-.44-.77-.19-.22-.43-.38-.7-.5s-.59-.18-.95-.18c-.74,0-1.32.21-1.74.64s-.69,1.02-.81,1.77h4.79Z" fill="#333e48"/>
    <path d="m120.92,930.65c.67,0,1.28.11,1.82.33s1,.53,1.39.95c.38.41.67.91.88,1.48.2.58.31,1.23.31,1.95s-.1,1.37-.31,1.95-.5,1.08-.88,1.48c-.38.41-.84.72-1.39.94-.54.22-1.15.33-1.82.33s-1.29-.11-1.83-.33c-.54-.22-1.01-.53-1.39-.94s-.68-.9-.89-1.48-.31-1.23-.31-1.95.1-1.37.31-1.95c.21-.58.5-1.07.89-1.48.38-.41.85-.73,1.39-.95s1.15-.33,1.83-.33Zm0,8.04c.86,0,1.51-.29,1.94-.87.43-.58.64-1.4.64-2.46s-.21-1.88-.64-2.46c-.43-.58-1.07-.88-1.94-.88s-1.53.29-1.96.88c-.43.58-.64,1.41-.64,2.46s.21,1.88.64,2.46c.43.58,1.08.87,1.96.87Z" fill="#333e48"/>
    <path d="m128.92,932.55c.29-.6.65-1.07,1.06-1.41.41-.34.91-.51,1.49-.51.2,0,.38.02.56.07.18.04.33.11.46.2l-.12,1.32c-.04.16-.14.24-.3.24-.08,0-.21-.02-.38-.05-.17-.03-.35-.05-.54-.05-.28,0-.53.04-.75.12-.22.08-.41.2-.58.36-.17.16-.32.35-.45.58-.13.23-.26.49-.37.79v5.72h-1.75v-9.14h1.01c.19,0,.32.03.39.1.07.07.12.19.15.36l.11,1.29Z" fill="#333e48"/>
    <path d="m148.97,927.02v12.92h-.97c-.15,0-.27-.03-.37-.08-.1-.05-.2-.14-.3-.26l-7.3-9.44c.01.16.02.32.03.48,0,.16.01.3.01.44v8.87h-1.68v-12.92h.99c.17,0,.29.02.38.06s.18.13.28.27l7.32,9.45c-.02-.17-.03-.34-.04-.51,0-.16-.01-.32-.01-.46v-8.8h1.67Z" fill="#333e48"/>
    <path d="m155.43,930.65c.67,0,1.28.11,1.82.33s1,.53,1.39.95c.38.41.67.91.88,1.48.2.58.31,1.23.31,1.95s-.1,1.37-.31,1.95-.5,1.08-.88,1.48c-.38.41-.84.72-1.39.94-.54.22-1.15.33-1.82.33s-1.29-.11-1.83-.33c-.54-.22-1.01-.53-1.39-.94s-.68-.9-.89-1.48-.31-1.23-.31-1.95.1-1.37.31-1.95c.21-.58.5-1.07.89-1.48.38-.41.85-.73,1.39-.95s1.15-.33,1.83-.33Zm0,8.04c.86,0,1.51-.29,1.94-.87.43-.58.64-1.4.64-2.46s-.21-1.88-.64-2.46c-.43-.58-1.07-.88-1.94-.88s-1.53.29-1.96.88c-.43.58-.64,1.41-.64,2.46s.21,1.88.64,2.46c.43.58,1.08.87,1.96.87Z" fill="#333e48"/>
    <path d="m163.42,932.07c.2-.21.41-.4.62-.58.22-.17.45-.32.69-.45s.5-.22.78-.29c.28-.07.58-.1.9-.1.5,0,.95.08,1.33.25s.7.4.96.71c.26.3.45.67.58,1.09.13.43.2.9.2,1.41v5.82h-1.76v-5.82c0-.65-.15-1.16-.45-1.53-.3-.36-.76-.54-1.38-.54-.45,0-.87.11-1.26.32-.39.21-.76.5-1.09.87v6.71h-1.75v-9.14h1.05c.25,0,.4.12.46.35l.13.92Z" fill="#333e48"/>
    <path d="m171.71,933.79h4.5v1.49h-4.5v-1.49Z" fill="#333e48"/>
    <path d="m183.93,932.37c-.05.08-.1.13-.15.17-.05.03-.12.05-.21.05-.1,0-.2-.03-.32-.1s-.26-.14-.42-.22-.36-.15-.58-.21c-.22-.07-.49-.1-.79-.1-.25,0-.48.03-.69.09-.21.06-.38.15-.53.26-.14.11-.25.24-.33.4-.08.15-.12.32-.12.49,0,.23.07.42.2.57.13.15.31.28.53.39.22.11.47.21.75.29.28.09.56.18.85.27.29.1.58.21.86.33.28.12.53.28.75.46.22.18.4.4.53.66.14.26.2.57.2.94,0,.43-.08.82-.23,1.18-.15.36-.38.68-.67.94-.3.26-.67.47-1.1.62-.44.15-.94.22-1.5.22-.63,0-1.21-.11-1.75-.31-.53-.21-.98-.48-1.34-.8l.41-.67c.05-.08.11-.15.18-.19.07-.04.17-.07.29-.07.11,0,.23.04.35.13s.26.18.43.27.37.19.61.27c.24.08.54.12.9.12.3,0,.56-.04.78-.11.22-.07.41-.18.55-.31.15-.13.26-.28.33-.45.07-.17.11-.34.11-.53,0-.24-.07-.44-.2-.6-.13-.16-.31-.29-.53-.41s-.47-.21-.75-.3c-.28-.08-.57-.17-.86-.27-.29-.1-.58-.21-.86-.33-.28-.13-.53-.29-.75-.48-.22-.19-.4-.43-.53-.7-.13-.28-.2-.61-.2-1.01,0-.35.07-.69.22-1.02.15-.32.36-.61.64-.85.28-.25.62-.44,1.03-.59.41-.15.88-.22,1.41-.22.61,0,1.15.1,1.64.29.49.19.91.46,1.25.79l-.39.64Z" fill="#333e48"/>
    <path d="m193.87,938.64c-.22.25-.46.47-.75.65-.28.18-.58.33-.9.45-.32.12-.65.2-.99.25-.34.05-.67.08-1,.08-.63,0-1.21-.11-1.75-.32s-1-.52-1.4-.94c-.39-.41-.7-.92-.92-1.53-.22-.61-.33-1.31-.33-2.1,0-.64.1-1.23.3-1.78.2-.55.48-1.03.85-1.44.37-.41.82-.73,1.35-.96s1.13-.35,1.8-.35c.56,0,1.07.09,1.54.27.47.18.88.45,1.22.8.34.35.61.78.8,1.29.2.51.29,1.09.29,1.75,0,.27-.03.45-.09.54-.06.09-.17.14-.33.14h-5.99c.02.55.1,1.02.23,1.43.14.41.33.74.57,1.01s.53.47.87.6c.34.13.71.2,1.12.2.39,0,.73-.04,1.01-.13s.53-.19.74-.29c.21-.1.38-.2.52-.29s.27-.14.37-.14c.14,0,.25.05.33.16l.5.65Zm-1.45-4.28c0-.35-.05-.67-.15-.96-.1-.29-.25-.55-.44-.77-.19-.22-.43-.38-.7-.5s-.59-.18-.95-.18c-.74,0-1.32.21-1.74.64s-.69,1.02-.81,1.77h4.79Z" fill="#333e48"/>
    <path d="m202.3,932.51c-.05.07-.11.12-.16.16s-.12.06-.22.06-.2-.04-.3-.11c-.11-.07-.24-.16-.4-.24s-.35-.17-.58-.24c-.22-.07-.5-.11-.83-.11-.43,0-.81.08-1.14.23-.33.16-.6.38-.82.67s-.39.64-.5,1.05c-.11.41-.17.88-.17,1.4s.06,1.01.18,1.43c.12.42.29.77.51,1.05.22.29.49.5.81.65.32.15.67.22,1.06.22s.69-.05.94-.14c.25-.09.45-.19.61-.3.16-.11.3-.21.41-.3.11-.09.22-.14.33-.14.14,0,.25.05.33.16l.5.65c-.21.26-.45.48-.71.66-.26.18-.54.33-.83.44-.29.12-.6.2-.92.25-.32.05-.65.08-.98.08-.57,0-1.1-.11-1.6-.32s-.92-.52-1.29-.92c-.36-.4-.65-.9-.86-1.48-.21-.58-.32-1.25-.32-1.99,0-.68.09-1.31.28-1.88.19-.58.47-1.07.84-1.49.37-.42.82-.74,1.36-.98.54-.24,1.16-.36,1.85-.36.65,0,1.23.1,1.73.31.5.21.94.51,1.33.89l-.47.65Z" fill="#333e48"/>
    <path d="m212.11,930.8v9.14h-1.05c-.24,0-.4-.12-.47-.35l-.13-.92c-.2.21-.41.4-.62.58-.22.17-.45.32-.69.45s-.51.22-.78.29c-.28.07-.57.1-.89.1-.5,0-.95-.08-1.33-.25-.38-.17-.7-.4-.96-.71-.26-.3-.45-.67-.58-1.09-.13-.43-.2-.9-.2-1.41v-5.82h1.76v5.82c0,.65.15,1.16.45,1.53.3.36.76.54,1.38.54.45,0,.87-.11,1.26-.32.39-.21.76-.5,1.1-.88v-6.7h1.75Z" fill="#333e48"/>
    <path d="m216.22,932.55c.29-.6.65-1.07,1.06-1.41.41-.34.91-.51,1.49-.51.2,0,.38.02.56.07.18.04.33.11.46.2l-.12,1.32c-.04.16-.14.24-.3.24-.08,0-.21-.02-.38-.05-.17-.03-.35-.05-.54-.05-.28,0-.53.04-.75.12-.22.08-.41.2-.58.36-.17.16-.32.35-.45.58-.13.23-.26.49-.37.79v5.72h-1.75v-9.14h1.01c.19,0,.32.03.39.1.07.07.12.19.15.36l.11,1.29Z" fill="#333e48"/>
    <path d="m228.33,938.64c-.22.25-.46.47-.75.65-.28.18-.58.33-.9.45-.32.12-.65.2-.99.25-.34.05-.67.08-1,.08-.63,0-1.21-.11-1.75-.32s-1-.52-1.4-.94c-.39-.41-.7-.92-.92-1.53-.22-.61-.33-1.31-.33-2.1,0-.64.1-1.23.3-1.78.2-.55.48-1.03.85-1.44.37-.41.82-.73,1.35-.96s1.13-.35,1.8-.35c.56,0,1.07.09,1.54.27.47.18.88.45,1.22.8.34.35.61.78.8,1.29.2.51.29,1.09.29,1.75,0,.27-.03.45-.09.54-.06.09-.17.14-.33.14h-5.99c.02.55.1,1.02.23,1.43.14.41.33.74.57,1.01s.53.47.87.6c.34.13.71.2,1.12.2.39,0,.73-.04,1.01-.13s.53-.19.74-.29c.21-.1.38-.2.52-.29s.27-.14.37-.14c.14,0,.25.05.33.16l.5.65Zm-1.45-4.28c0-.35-.05-.67-.15-.96-.1-.29-.25-.55-.44-.77-.19-.22-.43-.38-.7-.5s-.59-.18-.95-.18c-.74,0-1.32.21-1.74.64s-.69,1.02-.81,1.77h4.79Z" fill="#333e48"/>
    <path d="m239.17,927.02c.83,0,1.55.1,2.16.29s1.12.46,1.52.82c.4.35.7.78.9,1.27.19.5.29,1.05.29,1.66s-.11,1.16-.32,1.67c-.21.51-.52.94-.93,1.31-.41.37-.92.65-1.53.85s-1.31.3-2.1.3h-2v4.76h-1.92v-12.92h3.92Zm0,6.65c.49,0,.91-.06,1.28-.19.37-.13.68-.3.93-.54s.44-.51.56-.83.19-.68.19-1.07c0-.79-.24-1.4-.73-1.85-.49-.45-1.23-.67-2.23-.67h-2v5.15h2Z" fill="#333e48"/>
    <path d="m255.9,939.94h-1.48c-.17,0-.31-.04-.41-.12-.11-.08-.19-.19-.23-.32l-1.14-3h-5.7l-1.14,3c-.04.11-.12.22-.23.31-.11.09-.25.14-.41.14h-1.48l5.15-12.92h1.93l5.15,12.92Zm-3.79-4.81l-1.92-5.01c-.14-.34-.28-.77-.41-1.29-.07.26-.13.5-.2.72-.07.22-.14.42-.2.59l-1.91,5h4.64Z" fill="#333e48"/>
    <path d="m262.54,932.37c-.05.08-.1.13-.15.17-.05.03-.12.05-.21.05-.1,0-.2-.03-.32-.1s-.26-.14-.42-.22-.36-.15-.58-.21c-.22-.07-.49-.1-.79-.1-.25,0-.48.03-.69.09-.21.06-.38.15-.53.26-.14.11-.25.24-.33.4-.08.15-.12.32-.12.49,0,.23.07.42.2.57.13.15.31.28.53.39.22.11.47.21.75.29.28.09.56.18.85.27.29.1.58.21.86.33.28.12.53.28.75.46.22.18.4.4.53.66.14.26.2.57.2.94,0,.43-.08.82-.23,1.18-.15.36-.38.68-.67.94-.3.26-.67.47-1.1.62-.44.15-.94.22-1.5.22-.63,0-1.21-.11-1.75-.31-.53-.21-.98-.48-1.34-.8l.41-.67c.05-.08.11-.15.18-.19.07-.04.17-.07.29-.07.11,0,.23.04.35.13s.26.18.43.27.37.19.61.27c.24.08.54.12.9.12.3,0,.56-.04.78-.11.22-.07.41-.18.55-.31.15-.13.26-.28.33-.45.07-.17.11-.34.11-.53,0-.24-.07-.44-.2-.6-.13-.16-.31-.29-.53-.41s-.47-.21-.75-.3c-.28-.08-.57-.17-.86-.27-.29-.1-.58-.21-.86-.33-.28-.13-.53-.29-.75-.48-.22-.19-.4-.43-.53-.7-.13-.28-.2-.61-.2-1.01,0-.35.07-.69.22-1.02.15-.32.36-.61.64-.85.28-.25.62-.44,1.03-.59.41-.15.88-.22,1.41-.22.61,0,1.15.1,1.64.29.49.19.91.46,1.25.79l-.39.64Z" fill="#333e48"/>
  </g>
  <g>
    <polyline points="495 225 615 225 615 300 624.26 300" fill="none" stroke="#333e48" stroke-miterlimit="10"/>
    <polygon points="623.09 303.99 630 300 623.09 296.01 623.09 303.99" fill="#333e48"/>
  </g>
  <g>
    <polyline points="495 540 615 540 615 450 624.26 450" fill="none" stroke="#333e48" stroke-miterlimit="10"/>
    <polygon points="623.09 453.99 630 450 623.09 446.01 623.09 453.99" fill="#333e48"/>
  </g>
  <g>
    <polyline points="624.26 660 615 660 615 765 345 765 285 765 285 855 345 855 624.26 855" fill="none" stroke="#333e48" stroke-miterlimit="10"/>
    <polygon points="623.09 656.01 630 660 623.09 663.99 623.09 656.01" fill="#333e48"/>
    <polygon points="623.09 858.99 630 855 623.09 851.01 623.09 858.99" fill="#333e48"/>
  </g>
</svg>