<svg xmlns="http://www.w3.org/2000/svg" id="Layer_1" width="720" height="495" viewBox="0 0 720 495">
  <rect x="30" y="60" width="180" height="345" fill="#0091bd"/>
  <rect x="45" y="75" width="150" height="60" fill="#fff"/>
  <rect x="270" y="75" width="180" height="330" fill="#7d868c"/>
  <rect x="45" y="180" width="150" height="60" fill="#fff"/>
  <rect x="45" y="255" width="150" height="60" fill="#fff"/>
  <rect x="45" y="330" width="150" height="60" fill="#fff"/>
  <text transform="translate(91.65 111.64)" fill="#333e48" font-family="Lato" font-size="18" font-weight="500"><tspan x="0" y="0" letter-spacing="-.02em">P</tspan><tspan x="10.6" y="0">a</tspan><tspan x="19.59" y="0" letter-spacing="0em">g</tspan><tspan x="28.84" y="0">e N</tspan></text>
  <text transform="translate(117.73 164.14)" fill="#fff" font-family="Lato" font-size="18" font-weight="500"><tspan x="0" y="0">:</tspan></text>
  <text transform="translate(357.73 171.64)" fill="#fff" font-family="Lato" font-size="18" font-weight="500"><tspan x="0" y="0">:</tspan></text>
  <text transform="translate(93.32 216.64)" fill="#333e48" font-family="Lato" font-size="18" font-weight="500"><tspan x="0" y="0" letter-spacing="-.02em">P</tspan><tspan x="10.6" y="0">a</tspan><tspan x="19.59" y="0" letter-spacing="0em">g</tspan><tspan x="28.84" y="0">e 2</tspan></text>
  <text transform="translate(93.32 291.64)" fill="#333e48" font-family="Lato" font-size="18" font-weight="500"><tspan x="0" y="0" letter-spacing="-.02em">P</tspan><tspan x="10.6" y="0">a</tspan><tspan x="19.59" y="0" letter-spacing="0em">g</tspan><tspan x="28.84" y="0">e 1</tspan></text>
  <text transform="translate(93.32 366.64)" fill="#333e48" font-family="Lato" font-size="18" font-weight="500"><tspan x="0" y="0" letter-spacing="-.02em">P</tspan><tspan x="10.6" y="0">a</tspan><tspan x="19.59" y="0" letter-spacing="0em">g</tspan><tspan x="28.84" y="0">e 0</tspan></text>
  <rect x="510" y="60" width="180" height="345" fill="#ffc700"/>
  <rect x="525" y="75" width="150" height="60" fill="#fff"/>
  <rect x="525" y="180" width="150" height="60" fill="#fff"/>
  <rect x="525" y="255" width="150" height="60" fill="#fff"/>
  <rect x="525" y="330" width="150" height="60" fill="#fff"/>
  <rect x="285" y="90" width="150" height="60" fill="#fff"/>
  <rect x="285" y="180" width="150" height="60" fill="#fff"/>
  <rect x="285" y="255" width="150" height="60" fill="#fff"/>
  <rect x="285" y="330" width="150" height="60" fill="#fff"/>
  <text transform="translate(329.79 126.64)" fill="#333e48" font-family="Lato" font-size="18" font-weight="500"><tspan x="0" y="0" letter-spacing="-.01em">E</tspan><tspan x="10.15" y="0" letter-spacing="0em">n</tspan><tspan x="20.1" y="0">tr</tspan><tspan x="33.21" y="0" letter-spacing="-.02em">y</tspan><tspan x="42.1" y="0" xml:space="preserve"> N</tspan></text>
  <text transform="translate(331.46 216.64)" fill="#333e48" font-family="Lato" font-size="18" font-weight="500"><tspan x="0" y="0" letter-spacing="-.01em">E</tspan><tspan x="10.15" y="0" letter-spacing="0em">n</tspan><tspan x="20.1" y="0">tr</tspan><tspan x="33.21" y="0" letter-spacing="-.02em">y</tspan><tspan x="42.1" y="0" xml:space="preserve"> 2</tspan></text>
  <text transform="translate(331.46 291.64)" fill="#333e48" font-family="Lato" font-size="18" font-weight="500"><tspan x="0" y="0" letter-spacing="-.01em">E</tspan><tspan x="10.15" y="0" letter-spacing="0em">n</tspan><tspan x="20.1" y="0">tr</tspan><tspan x="33.21" y="0" letter-spacing="-.02em">y</tspan><tspan x="42.1" y="0" xml:space="preserve"> 1</tspan></text>
  <text transform="translate(331.46 366.64)" fill="#333e48" font-family="Lato" font-size="18" font-weight="500"><tspan x="0" y="0" letter-spacing="-.01em">E</tspan><tspan x="10.15" y="0" letter-spacing="0em">n</tspan><tspan x="20.1" y="0">tr</tspan><tspan x="33.21" y="0" letter-spacing="-.02em">y</tspan><tspan x="42.1" y="0" xml:space="preserve"> 0</tspan></text>
  <text transform="translate(316.77 438.34)" fill="#333e48" font-family="Lato" font-size="18" font-weight="500"><tspan x="0" y="0" letter-spacing="-.11em">T</tspan><tspan x="8.74" y="0" letter-spacing="0em">r</tspan><tspan x="15.19" y="0">ansl</tspan><tspan x="46.38" y="0" letter-spacing="0em">a</tspan><tspan x="55.25" y="0">tion</tspan><tspan x="18.53" y="21.6" letter-spacing="-.11em">T</tspan><tspan x="27.17" y="21.6">ables</tspan></text>
  <text transform="translate(33.98 44.14)" fill="#333e48" font-family="Lato" font-size="18" font-weight="500"><tspan x="0" y="0">Virtual</tspan><tspan x="53.12" y="0" letter-spacing="-.03em"> </tspan><tspan x="57.06" y="0" letter-spacing="-.01em">A</tspan><tspan x="69.13" y="0">dd</tspan><tspan x="89.36" y="0" letter-spacing="-.02em">r</tspan><tspan x="95.61" y="0">ess </tspan><tspan x="125.33" y="0" letter-spacing="-.01em">S</tspan><tspan x="134.94" y="0">pa</tspan><tspan x="154.05" y="0" letter-spacing="0em">c</tspan><tspan x="162.5" y="0">e</tspan></text>
  <text transform="translate(508.56 44.14)" fill="#333e48" font-family="Lato" font-size="18" font-weight="500"><tspan x="0" y="0" letter-spacing="0em">P</tspan><tspan x="10.84" y="0" letter-spacing="-.01em">h</tspan><tspan x="20.68" y="0" letter-spacing="0em">y</tspan><tspan x="29.85" y="0">sical</tspan><tspan x="63.96" y="0" letter-spacing="-.03em"> </tspan><tspan x="67.91" y="0" letter-spacing="-.01em">A</tspan><tspan x="79.97" y="0">dd</tspan><tspan x="100.21" y="0" letter-spacing="-.02em">r</tspan><tspan x="106.46" y="0">ess </tspan><tspan x="136.18" y="0" letter-spacing="-.01em">S</tspan><tspan x="145.78" y="0">pa</tspan><tspan x="164.9" y="0" letter-spacing="0em">c</tspan><tspan x="173.35" y="0">e</tspan></text>
  <polyline points="210.02 360 239.73 360 239.73 105 210.02 105" fill="none" stroke="#333e48" stroke-miterlimit="10"/>
  <g>
    <line x1="519.76" y1="360.5" x2="435" y2="360.5" fill="none" stroke="#333e48" stroke-miterlimit="10"/>
    <polygon points="518.59 356.51 525.5 360.5 518.59 364.49 518.59 356.51" fill="#333e48"/>
  </g>
  <line x1="240.5" y1="285.5" x2="195" y2="285.5" fill="none" stroke="#333e48" stroke-miterlimit="10"/>
  <g>
    <line x1="519.76" y1="210.5" x2="435" y2="210.5" fill="none" stroke="#333e48" stroke-miterlimit="10"/>
    <polygon points="518.59 206.51 525.5 210.5 518.59 214.49 518.59 206.51" fill="#333e48"/>
  </g>
  <g>
    <polyline points="435 285 465 285 465 105 520.26 105" fill="none" stroke="#333e48" stroke-miterlimit="10"/>
    <polygon points="519.09 108.99 526 105 519.09 101.01 519.09 108.99" fill="#333e48"/>
  </g>
  <g>
    <polyline points="435 120 495 120 495 285 519.26 285" fill="none" stroke="#333e48" stroke-miterlimit="10"/>
    <polygon points="518.09 288.99 525 285 518.09 281.01 518.09 288.99" fill="#333e48"/>
  </g>
  <text transform="translate(597.73 164.14)" fill="#333e48" font-family="Lato" font-size="18" font-weight="500"><tspan x="0" y="0">:</tspan></text>
  <g>
    <line x1="195" y1="210" x2="264.26" y2="210" fill="none" stroke="#333e48" stroke-miterlimit="10"/>
    <polygon points="263.09 213.99 270 210 263.09 206.01 263.09 213.99" fill="#333e48"/>
  </g>
</svg>