<svg xmlns="http://www.w3.org/2000/svg" id="Layer_1" width="840" height="240" viewBox="0 0 840 240"><path d="m33,122.1v4.23h5.68v-2.18c0-.18.03-.3.1-.38s.16-.11.27-.11.2.04.27.11c.07.08.1.2.1.38v2.92h-8.15c-.18,0-.3-.04-.38-.11s-.11-.16-.11-.26c0-.11.04-.2.11-.27s.2-.1.38-.1h.99v-8.81h-.99c-.18,0-.3-.03-.38-.1-.08-.07-.11-.16-.11-.27s.04-.2.11-.27.2-.1.38-.1h7.76v2.54c0,.18-.03.3-.1.38-.07.08-.16.11-.27.11s-.2-.04-.27-.11-.1-.2-.1-.38v-1.8h-5.29v3.84h2.65v-.83c0-.18.04-.3.11-.38s.16-.11.27-.11c.11,0,.19.04.26.11s.11.2.11.38v2.41c0,.18-.04.3-.11.38s-.16.11-.26.11c-.11,0-.2-.04-.27-.11s-.11-.2-.11-.38v-.83h-2.65Z" fill="#333e48" stroke-width="0"/><path d="m44.92,117.53v8.81h4.9v-2.94c0-.18.04-.3.11-.38s.16-.11.27-.11c.11,0,.19.04.26.11.07.07.11.2.11.38v3.67h-8.16c-.18,0-.3-.04-.38-.11s-.11-.16-.11-.26c0-.11.04-.2.11-.27s.2-.1.38-.1h1.76v-8.81h-1.76c-.18,0-.3-.03-.38-.1-.08-.07-.11-.16-.11-.27s.04-.2.11-.27.2-.1.38-.1h4.26c.18,0,.3.03.38.1s.11.16.11.27-.04.2-.11.27c-.08.07-.2.1-.38.1h-1.76Z" fill="#333e48" stroke-width="0"/><path d="m53.83,126.33h5.67v-.29c0-.18.04-.3.11-.38s.16-.11.27-.11c.11,0,.19.04.26.11s.11.2.11.38v1.03h-7.14v-1.09c1.5-1.35,2.96-2.72,4.38-4.11.66-.65,1.12-1.13,1.36-1.43s.41-.57.51-.8c.09-.23.14-.46.14-.7,0-.63-.25-1.19-.76-1.68s-1.12-.73-1.85-.73c-.64,0-1.22.18-1.71.55s-.82.83-.97,1.37c-.04.14-.08.23-.13.27-.07.06-.15.09-.25.09-.1,0-.18-.03-.25-.1-.07-.07-.1-.15-.1-.24,0-.28.15-.66.46-1.14.31-.48.73-.86,1.28-1.13.54-.28,1.1-.41,1.67-.41.92,0,1.71.32,2.37.96s.99,1.36.99,2.17c0,.34-.06.65-.17.94s-.3.59-.57.93-.75.84-1.44,1.52c-1.73,1.71-3.15,3.04-4.24,3.98v.05Z" fill="#333e48" stroke-width="0"/><path d="m67.65,119.46h.32c.33,0,.61.12.84.35s.35.51.35.83c0,.35-.12.63-.36.86-.24.23-.52.34-.84.34h-.32c-.33,0-.61-.12-.84-.35s-.35-.51-.35-.83c0-.35.12-.63.36-.86.24-.23.52-.34.84-.34Zm0,5.49h.32c.33,0,.61.12.84.35.23.23.35.51.35.84s-.12.62-.36.85c-.24.23-.52.34-.84.34h-.32c-.33,0-.61-.12-.84-.35-.23-.23-.35-.51-.35-.84s.12-.62.36-.85c.24-.23.52-.34.84-.34Z" fill="#333e48" stroke-width="0"/><path d="m89.9,123.99h-.84l-2.84-6.46h-.14v8.81h1.36c.18,0,.3.03.38.1s.11.16.11.27c0,.11-.04.19-.11.26s-.2.11-.38.11h-2.72c-.18,0-.3-.04-.38-.11s-.11-.16-.11-.26c0-.11.04-.2.11-.27s.2-.1.38-.1h.62v-8.81h-.47c-.18,0-.3-.03-.38-.1-.08-.07-.11-.16-.11-.27s.04-.2.11-.27.2-.1.38-.1h1.81l2.79,6.36,2.75-6.36h1.81c.18,0,.31.03.39.1s.11.16.11.27-.04.2-.11.27c-.08.07-.21.1-.39.1h-.46v8.81h.62c.18,0,.31.03.39.1s.11.16.11.27c0,.11-.04.19-.11.26s-.21.11-.39.11h-2.72c-.18,0-.3-.04-.38-.11-.08-.07-.12-.16-.12-.26,0-.11.04-.2.11-.27s.21-.1.39-.1h1.36v-8.81h-.16l-2.79,6.46Z" fill="#333e48" stroke-width="0"/><path d="m102.85,117.53v-.25c0-.18.03-.3.1-.38s.16-.11.27-.11.2.04.27.11c.07.08.1.2.1.38v1.88c0,.18-.03.3-.1.38-.07.08-.16.11-.27.11-.11,0-.19-.04-.26-.11-.07-.07-.1-.18-.11-.34-.03-.49-.28-.93-.76-1.33s-1.1-.59-1.88-.59c-.81,0-1.46.21-1.94.63-.48.42-.72.91-.72,1.48,0,.29.07.56.2.8s.31.44.54.58c.22.15.47.27.76.36s.72.19,1.32.29c1,.16,1.69.33,2.07.5.51.23.89.54,1.16.95.26.4.39.88.39,1.43,0,.84-.34,1.56-1.01,2.16s-1.58.89-2.72.89c-1.28,0-2.31-.4-3.08-1.2v.42c0,.18-.03.3-.1.38-.07.08-.16.11-.27.11-.11,0-.19-.04-.26-.11s-.11-.2-.11-.38v-2.04c0-.18.03-.31.1-.39s.16-.11.27-.11c.11,0,.19.04.26.11s.1.18.11.34c.03.54.32,1.03.87,1.47.55.44,1.28.66,2.21.66s1.66-.23,2.19-.69c.54-.46.8-1.01.8-1.64,0-.39-.1-.73-.31-1.03s-.51-.54-.91-.72c-.28-.12-.87-.26-1.76-.41-1.22-.21-2.11-.52-2.65-.94s-.81-1.02-.81-1.8.31-1.44.93-2c.62-.56,1.43-.83,2.45-.83s1.92.33,2.66.98Z" fill="#333e48" stroke-width="0"/><path d="m108.61,122.48v3.85h1.36c.18,0,.31.03.39.1s.11.16.11.27c0,.11-.04.19-.11.26s-.21.11-.39.11h-3.09c-.18,0-.3-.04-.38-.11s-.11-.16-.11-.26c0-.11.04-.2.11-.27s.2-.1.38-.1h.99v-8.81h-.99c-.18,0-.3-.03-.38-.1-.08-.07-.11-.16-.11-.27s.04-.2.11-.27.2-.1.38-.1h4.46c.92,0,1.69.29,2.32.88s.95,1.24.95,1.97c0,.53-.2,1.02-.58,1.49-.39.46-1.04.85-1.96,1.16.53.36.98.77,1.35,1.23s.98,1.39,1.8,2.81h.56c.18,0,.3.03.38.1s.11.16.11.27c0,.11-.04.19-.11.26s-.2.11-.38.11h-.98c-.91-1.63-1.62-2.73-2.12-3.29-.5-.56-1.08-.99-1.73-1.3h-2.35Zm0-.74h2.01c.64,0,1.23-.12,1.75-.35.52-.23.9-.51,1.14-.83.24-.32.36-.64.36-.97,0-.49-.25-.96-.74-1.41-.5-.45-1.1-.67-1.81-.67h-2.72v4.22Z" fill="#333e48" stroke-width="0"/><path d="m132.98,117.53v8.81h1.92c.18,0,.3.03.38.1s.11.16.11.27c0,.11-.04.19-.11.26s-.2.11-.38.11h-4.58c-.18,0-.3-.04-.38-.11s-.11-.16-.11-.26c0-.11.04-.2.11-.27s.2-.1.38-.1h1.92v-8.81h-3.02v2.56c0,.18-.03.31-.1.39-.07.08-.16.11-.27.11-.11,0-.19-.04-.26-.11s-.11-.21-.11-.39v-3.3h8.27v3.3c0,.18-.03.31-.1.39s-.16.11-.27.11-.2-.04-.27-.11c-.07-.08-.1-.21-.1-.39v-2.56h-3.02Z" fill="#333e48" stroke-width="0"/><path d="m143.78,117.53v8.81h1.92c.18,0,.3.03.38.1s.11.16.11.27c0,.11-.04.19-.11.26s-.2.11-.38.11h-4.58c-.18,0-.3-.04-.38-.11s-.11-.16-.11-.26c0-.11.04-.2.11-.27s.2-.1.38-.1h1.92v-8.81h-3.02v2.56c0,.18-.03.31-.1.39-.07.08-.16.11-.27.11-.11,0-.19-.04-.26-.11s-.11-.21-.11-.39v-3.3h8.27v3.3c0,.18-.03.31-.1.39s-.16.11-.27.11-.2-.04-.27-.11c-.07-.08-.1-.21-.1-.39v-2.56h-3.02Z" fill="#333e48" stroke-width="0"/><path d="m151.07,126.33v-8.81h-.99c-.18,0-.3-.03-.38-.1-.08-.07-.11-.16-.11-.27s.04-.2.11-.27.2-.1.38-.1h4.64c.92,0,1.67.27,2.25.79.58.53.87,1.15.87,1.87,0,.9-.48,1.63-1.45,2.19.77.28,1.33.64,1.69,1.1s.54.96.54,1.51c0,.49-.12.94-.35,1.35-.23.41-.59.75-1.08,1.04-.48.29-1.01.43-1.58.43h-5.52c-.18,0-.3-.04-.38-.11s-.11-.16-.11-.26c0-.11.04-.2.11-.27s.2-.1.38-.1h.99Zm.74-4.97h2.61c.56,0,1.07-.1,1.53-.31.36-.16.64-.4.83-.71s.3-.63.3-.95c0-.46-.22-.89-.65-1.28-.43-.39-1-.58-1.7-.58h-2.93v3.83Zm0,4.97h3.74c.47,0,.89-.11,1.24-.32s.62-.47.8-.78.27-.63.27-.97c0-.38-.13-.74-.39-1.09-.26-.35-.62-.62-1.09-.8s-1.1-.27-1.92-.27h-2.65v4.23Z" fill="#333e48" stroke-width="0"/><path d="m162.62,122.48v3.85h1.36c.18,0,.31.03.39.1s.11.16.11.27c0,.11-.04.19-.11.26s-.21.11-.39.11h-3.09c-.18,0-.3-.04-.38-.11s-.11-.16-.11-.26c0-.11.04-.2.11-.27s.2-.1.38-.1h.99v-8.81h-.99c-.18,0-.3-.03-.38-.1-.08-.07-.11-.16-.11-.27s.04-.2.11-.27.2-.1.38-.1h4.46c.92,0,1.69.29,2.32.88s.95,1.24.95,1.97c0,.53-.2,1.02-.58,1.49-.39.46-1.04.85-1.96,1.16.53.36.98.77,1.35,1.23s.98,1.39,1.8,2.81h.56c.18,0,.3.03.38.1s.11.16.11.27c0,.11-.04.19-.11.26s-.2.11-.38.11h-.98c-.91-1.63-1.62-2.73-2.12-3.29-.5-.56-1.08-.99-1.73-1.3h-2.35Zm0-.74h2.01c.64,0,1.23-.12,1.75-.35.52-.23.9-.51,1.14-.83.24-.32.36-.64.36-.97,0-.49-.25-.96-.74-1.41-.5-.45-1.1-.67-1.81-.67h-2.72v4.22Z" fill="#333e48" stroke-width="0"/><path d="m179.21,120.65v1.83c0,1.59-.38,2.84-1.13,3.77-.59.73-1.34,1.09-2.24,1.09-.43,0-.84-.09-1.23-.26-.38-.17-.71-.41-.98-.72-.17-.19-.36-.5-.56-.93-.2-.43-.35-.82-.44-1.18-.13-.5-.2-1.09-.2-1.77v-1.83c0-1.59.38-2.85,1.13-3.78.59-.73,1.34-1.09,2.24-1.09.44,0,.85.09,1.23.26.38.17.71.42.98.73.18.2.36.51.56.94s.35.82.44,1.17c.13.5.19,1.1.19,1.78Zm-.74.1c0-.7-.1-1.35-.29-1.95-.2-.6-.42-1.08-.66-1.44-.15-.21-.34-.38-.57-.53-.33-.21-.71-.31-1.12-.31-.83,0-1.47.42-1.94,1.27s-.7,1.83-.7,2.95v1.63c0,.7.1,1.35.29,1.95s.42,1.08.67,1.44c.14.2.33.37.56.52.33.21.71.32,1.13.32.82,0,1.46-.42,1.93-1.27s.7-1.83.7-2.96v-1.63Z" fill="#333e48" stroke-width="0"/><path d="m191.53,132h-9.82c-.18,0-.3-.03-.38-.1-.08-.07-.11-.16-.11-.27s.04-.2.11-.27.2-.1.38-.1h9.82c.18,0,.31.03.38.1s.11.16.11.27-.04.2-.11.27c-.07.07-.2.1-.38.1Z" fill="#333e48" stroke-width="0"/><path d="m195.02,122.1v4.23h5.68v-2.18c0-.18.03-.3.1-.38s.16-.11.27-.11.2.04.27.11c.07.08.1.2.1.38v2.92h-8.15c-.18,0-.3-.04-.38-.11s-.11-.16-.11-.26c0-.11.04-.2.11-.27s.2-.1.38-.1h.99v-8.81h-.99c-.18,0-.3-.03-.38-.1-.08-.07-.11-.16-.11-.27s.04-.2.11-.27.2-.1.38-.1h7.76v2.54c0,.18-.03.3-.1.38-.07.08-.16.11-.27.11s-.2-.04-.27-.11-.1-.2-.1-.38v-1.8h-5.29v3.84h2.65v-.83c0-.18.04-.3.11-.38s.16-.11.27-.11c.11,0,.19.04.26.11s.11.2.11.38v2.41c0,.18-.04.3-.11.38s-.16.11-.26.11c-.11,0-.2-.04-.27-.11s-.11-.2-.11-.38v-.83h-2.65Z" fill="#333e48" stroke-width="0"/><path d="m206.95,117.53v8.81h4.9v-2.94c0-.18.04-.3.11-.38s.16-.11.27-.11c.11,0,.19.04.26.11.07.07.11.2.11.38v3.67h-8.16c-.18,0-.3-.04-.38-.11s-.11-.16-.11-.26c0-.11.04-.2.11-.27s.2-.1.38-.1h1.76v-8.81h-1.76c-.18,0-.3-.03-.38-.1-.08-.07-.11-.16-.11-.27s.04-.2.11-.27.2-.1.38-.1h4.26c.18,0,.3.03.38.1s.11.16.11.27-.04.2-.11.27c-.08.07-.2.1-.38.1h-1.76Z" fill="#333e48" stroke-width="0"/><path d="m219.4,115.89v10.44h2.53c.18,0,.3.03.38.1s.11.16.11.27c0,.11-.04.19-.11.26s-.2.11-.38.11h-5.8c-.18,0-.3-.04-.38-.11s-.11-.16-.11-.26c0-.11.04-.2.11-.27s.2-.1.38-.1h2.53v-9.42l-2.41.76c-.12.04-.2.05-.25.05-.09,0-.17-.04-.24-.11-.07-.07-.11-.16-.11-.26,0-.09.03-.17.09-.25.05-.05.14-.1.29-.15l3.38-1.06Z" fill="#333e48" stroke-width="0"/><path d="m228.37,124.42h2.4l-2.61,4.85c-.16.29-.35.44-.57.44-.15,0-.27-.05-.37-.15s-.15-.23-.15-.37c0-.06,0-.12.03-.19l1.28-4.57Z" fill="#333e48" stroke-width="0"/><path d="m251.94,123.09l3.38,3.24c.22,0,.36.01.42.03s.11.06.15.13c.04.06.07.13.07.21,0,.11-.04.19-.11.26s-.21.11-.39.11h-2.37c-.18,0-.31-.04-.39-.11s-.11-.16-.11-.26c0-.11.04-.2.11-.27s.21-.1.39-.1h1.22l-2.87-2.75-2.86,2.75h1.23c.18,0,.3.03.38.1s.11.16.11.27c0,.11-.04.19-.11.26s-.2.11-.38.11h-2.4c-.18,0-.3-.04-.38-.11s-.11-.16-.11-.26c0-.08.02-.15.07-.21.04-.06.09-.11.15-.13.05-.02.19-.03.42-.03l3.38-3.24-3.01-2.88c-.21,0-.34-.01-.4-.04s-.11-.07-.15-.13c-.04-.06-.07-.13-.07-.21,0-.11.04-.19.11-.26s.21-.11.39-.11h2.01c.18,0,.31.04.38.11.07.07.11.16.11.27,0,.11-.04.19-.11.26-.07.07-.2.11-.38.11h-.88l2.49,2.4,2.5-2.4h-.88c-.18,0-.3-.04-.38-.11-.08-.07-.12-.16-.12-.27,0-.11.04-.19.11-.26s.21-.11.39-.11h2.01c.18,0,.3.04.38.11s.11.16.11.27c0,.07-.02.14-.07.2-.04.06-.09.11-.15.13s-.19.04-.4.04l-3.01,2.88Z" fill="#333e48" stroke-width="0"/><path d="m265.63,120.65v1.83c0,1.59-.38,2.84-1.13,3.77-.59.73-1.34,1.09-2.24,1.09-.43,0-.84-.09-1.23-.26-.38-.17-.71-.41-.98-.72-.17-.19-.36-.5-.56-.93-.2-.43-.35-.82-.44-1.18-.13-.5-.2-1.09-.2-1.77v-1.83c0-1.59.38-2.85,1.13-3.78.59-.73,1.34-1.09,2.24-1.09.44,0,.85.09,1.23.26.38.17.71.42.98.73.18.2.36.51.56.94s.35.82.44,1.17c.13.5.19,1.1.19,1.78Zm-.74.1c0-.7-.1-1.35-.29-1.95-.2-.6-.42-1.08-.66-1.44-.15-.21-.34-.38-.57-.53-.33-.21-.71-.31-1.12-.31-.83,0-1.47.42-1.94,1.27s-.7,1.83-.7,2.95v1.63c0,.7.1,1.35.29,1.95s.42,1.08.67,1.44c.14.2.33.37.56.52.33.21.71.32,1.13.32.82,0,1.46-.42,1.93-1.27s.7-1.83.7-2.96v-1.63Z" fill="#333e48" stroke-width="0"/><path d="m654.66,65.03v8.81h1.92c.18,0,.3.03.38.1s.11.16.11.27c0,.11-.04.19-.11.26s-.2.11-.38.11h-4.58c-.18,0-.3-.04-.38-.11s-.11-.16-.11-.26c0-.11.04-.2.11-.27s.2-.1.38-.1h1.92v-8.81h-3.02v2.56c0,.18-.03.31-.1.39-.07.08-.16.11-.27.11-.11,0-.19-.04-.26-.11s-.11-.21-.11-.39v-3.3h8.27v3.3c0,.18-.03.31-.1.39s-.16.11-.27.11-.2-.04-.27-.11c-.07-.08-.1-.21-.1-.39v-2.56h-3.02Z" fill="#333e48" stroke-width="0"/><path d="m665.46,65.03v8.81h1.92c.18,0,.3.03.38.1s.11.16.11.27c0,.11-.04.19-.11.26s-.2.11-.38.11h-4.58c-.18,0-.3-.04-.38-.11s-.11-.16-.11-.26c0-.11.04-.2.11-.27s.2-.1.38-.1h1.92v-8.81h-3.02v2.56c0,.18-.03.31-.1.39-.07.08-.16.11-.27.11-.11,0-.19-.04-.26-.11s-.11-.21-.11-.39v-3.3h8.27v3.3c0,.18-.03.31-.1.39s-.16.11-.27.11-.2-.04-.27-.11c-.07-.08-.1-.21-.1-.39v-2.56h-3.02Z" fill="#333e48" stroke-width="0"/><path d="m672.75,73.83v-8.81h-.99c-.18,0-.3-.03-.38-.1-.08-.07-.11-.16-.11-.27s.04-.2.11-.27.2-.1.38-.1h4.64c.92,0,1.67.27,2.25.79.58.53.87,1.15.87,1.87,0,.9-.48,1.63-1.45,2.19.77.28,1.33.64,1.69,1.1s.54.96.54,1.51c0,.49-.12.94-.35,1.35-.23.41-.59.75-1.08,1.04-.48.29-1.01.43-1.58.43h-5.52c-.18,0-.3-.04-.38-.11s-.11-.16-.11-.26c0-.11.04-.2.11-.27s.2-.1.38-.1h.99Zm.74-4.97h2.61c.56,0,1.07-.1,1.53-.31.36-.16.64-.4.83-.71s.3-.63.3-.95c0-.46-.22-.89-.65-1.28-.43-.39-1-.58-1.7-.58h-2.93v3.83Zm0,4.97h3.74c.47,0,.89-.11,1.24-.32s.62-.47.8-.78.27-.63.27-.97c0-.38-.13-.74-.39-1.09-.26-.35-.62-.62-1.09-.8s-1.1-.27-1.92-.27h-2.65v4.23Z" fill="#333e48" stroke-width="0"/><path d="m684.29,69.98v3.85h1.36c.18,0,.31.03.39.1s.11.16.11.27c0,.11-.04.19-.11.26s-.21.11-.39.11h-3.09c-.18,0-.3-.04-.38-.11s-.11-.16-.11-.26c0-.11.04-.2.11-.27s.2-.1.38-.1h.99v-8.81h-.99c-.18,0-.3-.03-.38-.1-.08-.07-.11-.16-.11-.27s.04-.2.11-.27.2-.1.38-.1h4.46c.92,0,1.69.29,2.32.88s.95,1.24.95,1.97c0,.53-.2,1.02-.58,1.49-.39.46-1.04.85-1.96,1.16.53.36.98.77,1.35,1.23s.98,1.39,1.8,2.81h.56c.18,0,.3.03.38.1s.11.16.11.27c0,.11-.04.19-.11.26s-.2.11-.38.11h-.98c-.91-1.63-1.62-2.73-2.12-3.29-.5-.56-1.08-.99-1.73-1.3h-2.35Zm0-.74h2.01c.64,0,1.23-.12,1.75-.35.52-.23.9-.51,1.14-.83.24-.32.36-.64.36-.97,0-.49-.25-.96-.74-1.41-.5-.45-1.1-.67-1.81-.67h-2.72v4.22Z" fill="#333e48" stroke-width="0"/><path d="m700.89,68.15v1.83c0,1.59-.38,2.84-1.13,3.77-.59.73-1.34,1.09-2.24,1.09-.43,0-.84-.09-1.23-.26-.38-.17-.71-.41-.98-.72-.17-.19-.36-.5-.56-.93-.2-.43-.35-.82-.44-1.18-.13-.5-.2-1.09-.2-1.77v-1.83c0-1.59.38-2.85,1.13-3.78.59-.73,1.34-1.09,2.24-1.09.44,0,.85.09,1.23.26.38.17.71.42.98.73.18.2.36.51.56.94s.35.82.44,1.17c.13.5.19,1.1.19,1.78Zm-.74.1c0-.7-.1-1.35-.29-1.95-.2-.6-.42-1.08-.66-1.44-.15-.21-.34-.38-.57-.53-.33-.21-.71-.31-1.12-.31-.83,0-1.47.42-1.94,1.27s-.7,1.83-.7,2.95v1.63c0,.7.1,1.35.29,1.95s.42,1.08.67,1.44c.14.2.33.37.56.52.33.21.71.32,1.13.32.82,0,1.46-.42,1.93-1.27s.7-1.83.7-2.96v-1.63Z" fill="#333e48" stroke-width="0"/><path d="m713.21,79.5h-9.82c-.18,0-.3-.03-.38-.1-.08-.07-.11-.16-.11-.27s.04-.2.11-.27.2-.1.38-.1h9.82c.18,0,.31.03.38.1s.11.16.11.27-.04.2-.11.27c-.07.07-.2.1-.38.1Z" fill="#333e48" stroke-width="0"/><path d="m716.7,69.6v4.23h5.68v-2.18c0-.18.03-.3.1-.38s.16-.11.27-.11.2.04.27.11c.07.08.1.2.1.38v2.92h-8.15c-.18,0-.3-.04-.38-.11s-.11-.16-.11-.26c0-.11.04-.2.11-.27s.2-.1.38-.1h.99v-8.81h-.99c-.18,0-.3-.03-.38-.1-.08-.07-.11-.16-.11-.27s.04-.2.11-.27.2-.1.38-.1h7.76v2.54c0,.18-.03.3-.1.38-.07.08-.16.11-.27.11s-.2-.04-.27-.11-.1-.2-.1-.38v-1.8h-5.29v3.84h2.65v-.83c0-.18.04-.3.11-.38s.16-.11.27-.11c.11,0,.19.04.26.11s.11.2.11.38v2.41c0,.18-.04.3-.11.38s-.16.11-.26.11c-.11,0-.2-.04-.27-.11s-.11-.2-.11-.38v-.83h-2.65Z" fill="#333e48" stroke-width="0"/><path d="m728.63,65.03v8.81h4.9v-2.94c0-.18.04-.3.11-.38s.16-.11.27-.11c.11,0,.19.04.26.11.07.07.11.2.11.38v3.67h-8.16c-.18,0-.3-.04-.38-.11s-.11-.16-.11-.26c0-.11.04-.2.11-.27s.2-.1.38-.1h1.76v-8.81h-1.76c-.18,0-.3-.03-.38-.1-.08-.07-.11-.16-.11-.27s.04-.2.11-.27.2-.1.38-.1h4.26c.18,0,.3.03.38.1s.11.16.11.27-.04.2-.11.27c-.08.07-.2.1-.38.1h-1.76Z" fill="#333e48" stroke-width="0"/><path d="m737.53,73.83h5.67v-.29c0-.18.04-.3.11-.38s.16-.11.27-.11c.11,0,.19.04.26.11s.11.2.11.38v1.03h-7.14v-1.09c1.5-1.35,2.96-2.72,4.38-4.11.66-.65,1.12-1.13,1.36-1.43s.41-.57.51-.8c.09-.23.14-.46.14-.7,0-.63-.25-1.19-.76-1.68s-1.12-.73-1.85-.73c-.64,0-1.22.18-1.71.55s-.82.83-.97,1.37c-.04.14-.08.23-.13.27-.07.06-.15.09-.25.09-.1,0-.18-.03-.25-.1-.07-.07-.1-.15-.1-.24,0-.28.15-.66.46-1.14.31-.48.73-.86,1.28-1.13.54-.28,1.1-.41,1.67-.41.92,0,1.71.32,2.37.96s.99,1.36.99,2.17c0,.34-.06.65-.17.94s-.3.59-.57.93-.75.84-1.44,1.52c-1.73,1.71-3.15,3.04-4.24,3.98v.05Z" fill="#333e48" stroke-width="0"/><path d="m428.09,48.17v4.23h5.68v-2.18c0-.18.03-.3.1-.38s.16-.11.27-.11.2.04.27.11c.07.08.1.2.1.38v2.92h-8.15c-.18,0-.3-.04-.38-.11s-.11-.16-.11-.26c0-.11.04-.2.11-.27s.2-.1.38-.1h.99v-8.81h-.99c-.18,0-.3-.03-.38-.1-.08-.07-.11-.16-.11-.27s.04-.2.11-.27.2-.1.38-.1h7.76v2.54c0,.18-.03.3-.1.38-.07.08-.16.11-.27.11s-.2-.04-.27-.11-.1-.2-.1-.38v-1.8h-5.29v3.84h2.65v-.83c0-.18.04-.3.11-.38s.16-.11.27-.11c.11,0,.19.04.26.11s.11.2.11.38v2.41c0,.18-.04.3-.11.38s-.16.11-.26.11c-.11,0-.2-.04-.27-.11s-.11-.2-.11-.38v-.83h-2.65Z" fill="#333e48" stroke-width="0"/><path d="m438.12,52.39h5.67v-.29c0-.18.04-.3.11-.38s.16-.11.27-.11c.11,0,.19.04.26.11s.11.2.11.38v1.03h-7.14v-1.09c1.5-1.35,2.96-2.72,4.38-4.11.66-.65,1.12-1.13,1.36-1.43s.41-.57.51-.8c.09-.23.14-.46.14-.7,0-.63-.25-1.19-.76-1.68s-1.12-.73-1.85-.73c-.64,0-1.22.18-1.71.55s-.82.83-.97,1.37c-.04.14-.08.23-.13.27-.07.06-.15.09-.25.09-.1,0-.18-.03-.25-.1-.07-.07-.1-.15-.1-.24,0-.28.15-.66.46-1.14.31-.48.73-.86,1.28-1.13.54-.28,1.1-.41,1.67-.41.92,0,1.71.32,2.37.96s.99,1.36.99,2.17c0,.34-.06.65-.17.94s-.3.59-.57.93-.75.84-1.44,1.52c-1.73,1.71-3.15,3.04-4.24,3.98v.05Z" fill="#333e48" stroke-width="0"/><path d="m454.6,48.16h-4.9v4.24h.99c.18,0,.3.03.38.1s.11.16.11.27c0,.11-.04.19-.11.26s-.2.11-.38.11h-2.57c-.18,0-.3-.04-.38-.11s-.11-.16-.11-.26c0-.11.04-.2.11-.27s.2-.1.38-.1h.83v-8.81h-.46c-.18,0-.31-.03-.39-.1-.08-.07-.11-.16-.11-.27s.04-.2.11-.27.21-.1.39-.1h2.19c.18,0,.3.03.38.1s.11.16.11.27-.04.2-.11.27c-.08.07-.2.1-.38.1h-.99v3.83h4.9v-3.83h-.98c-.18,0-.3-.03-.38-.1-.08-.07-.11-.16-.11-.27s.04-.2.11-.27c.07-.07.2-.1.38-.1h2.19c.18,0,.31.03.39.1s.11.16.11.27-.04.2-.11.27c-.08.07-.21.1-.39.1h-.46v8.81h.83c.18,0,.3.03.38.1s.11.16.11.27c0,.11-.04.19-.11.26s-.2.11-.38.11h-2.57c-.18,0-.3-.04-.38-.11s-.11-.16-.11-.26c0-.11.04-.2.11-.27.07-.07.2-.1.38-.1h.98v-4.24Z" fill="#333e48" stroke-width="0"/><path d="m466.93,47.02h-8.05c-.18,0-.3-.04-.38-.11s-.11-.16-.11-.27c0-.11.04-.19.11-.26s.2-.11.38-.11h8.05c.18,0,.3.04.38.11s.11.16.11.27c0,.11-.04.19-.11.26s-.2.11-.38.11Zm0,2.65h-8.05c-.18,0-.3-.03-.38-.1-.08-.07-.11-.16-.11-.27s.04-.2.11-.27.2-.1.38-.1h8.05c.18,0,.3.03.38.1s.11.16.11.27-.04.2-.11.27c-.08.07-.2.1-.38.1Z" fill="#333e48" stroke-width="0"/><path d="m477.73,47.02h-8.05c-.18,0-.3-.04-.38-.11s-.11-.16-.11-.27c0-.11.04-.19.11-.26s.2-.11.38-.11h8.05c.18,0,.3.04.38.11s.11.16.11.27c0,.11-.04.19-.11.26s-.2.11-.38.11Zm0,2.65h-8.05c-.18,0-.3-.03-.38-.1-.08-.07-.11-.16-.11-.27s.04-.2.11-.27.2-.1.38-.1h8.05c.18,0,.3.03.38.1s.11.16.11.27-.04.2-.11.27c-.08.07-.2.1-.38.1Z" fill="#333e48" stroke-width="0"/><path d="m484.87,41.95v10.44h2.53c.18,0,.3.03.38.1s.11.16.11.27c0,.11-.04.19-.11.26s-.2.11-.38.11h-5.8c-.18,0-.3-.04-.38-.11s-.11-.16-.11-.26c0-.11.04-.2.11-.27s.2-.1.38-.1h2.53v-9.42l-2.41.76c-.12.04-.2.05-.25.05-.09,0-.17-.04-.24-.11-.07-.07-.11-.16-.11-.26,0-.09.03-.17.09-.25.05-.05.14-.1.29-.15l3.38-1.06Z" fill="#333e48" stroke-width="0"/><path d="m428.09,196.12v4.23h5.68v-2.18c0-.18.03-.3.1-.38s.16-.11.27-.11.2.04.27.11c.07.08.1.2.1.38v2.92h-8.15c-.18,0-.3-.04-.38-.11s-.11-.16-.11-.26c0-.11.04-.2.11-.27s.2-.1.38-.1h.99v-8.81h-.99c-.18,0-.3-.03-.38-.1-.08-.07-.11-.16-.11-.27s.04-.2.11-.27.2-.1.38-.1h7.76v2.54c0,.18-.03.3-.1.38-.07.08-.16.11-.27.11s-.2-.04-.27-.11-.1-.2-.1-.38v-1.8h-5.29v3.84h2.65v-.83c0-.18.04-.3.11-.38s.16-.11.27-.11c.11,0,.19.04.26.11s.11.2.11.38v2.41c0,.18-.04.3-.11.38s-.16.11-.26.11c-.11,0-.2-.04-.27-.11s-.11-.2-.11-.38v-.83h-2.65Z" fill="#333e48" stroke-width="0"/><path d="m438.12,200.34h5.67v-.29c0-.18.04-.3.11-.38s.16-.11.27-.11c.11,0,.19.04.26.11s.11.2.11.38v1.03h-7.14v-1.09c1.5-1.35,2.96-2.72,4.38-4.11.66-.65,1.12-1.13,1.36-1.43s.41-.57.51-.8c.09-.23.14-.46.14-.7,0-.63-.25-1.19-.76-1.68s-1.12-.73-1.85-.73c-.64,0-1.22.18-1.71.55s-.82.83-.97,1.37c-.04.14-.08.23-.13.27-.07.06-.15.09-.25.09-.1,0-.18-.03-.25-.1-.07-.07-.1-.15-.1-.24,0-.28.15-.66.46-1.14.31-.48.73-.86,1.28-1.13.54-.28,1.1-.41,1.67-.41.92,0,1.71.32,2.37.96s.99,1.36.99,2.17c0,.34-.06.65-.17.94s-.3.59-.57.93-.75.84-1.44,1.52c-1.73,1.71-3.15,3.04-4.24,3.98v.05Z" fill="#333e48" stroke-width="0"/><path d="m454.6,196.11h-4.9v4.24h.99c.18,0,.3.03.38.1s.11.16.11.27c0,.11-.04.19-.11.26s-.2.11-.38.11h-2.57c-.18,0-.3-.04-.38-.11s-.11-.16-.11-.26c0-.11.04-.2.11-.27s.2-.1.38-.1h.83v-8.81h-.46c-.18,0-.31-.03-.39-.1-.08-.07-.11-.16-.11-.27s.04-.2.11-.27.21-.1.39-.1h2.19c.18,0,.3.03.38.1s.11.16.11.27-.04.2-.11.27c-.08.07-.2.1-.38.1h-.99v3.83h4.9v-3.83h-.98c-.18,0-.3-.03-.38-.1-.08-.07-.11-.16-.11-.27s.04-.2.11-.27c.07-.07.2-.1.38-.1h2.19c.18,0,.31.03.39.1s.11.16.11.27-.04.2-.11.27c-.08.07-.21.1-.39.1h-.46v8.81h.83c.18,0,.3.03.38.1s.11.16.11.27c0,.11-.04.19-.11.26s-.2.11-.38.11h-2.57c-.18,0-.3-.04-.38-.11s-.11-.16-.11-.26c0-.11.04-.2.11-.27.07-.07.2-.1.38-.1h.98v-4.24Z" fill="#333e48" stroke-width="0"/><path d="m466.93,194.97h-8.05c-.18,0-.3-.04-.38-.11s-.11-.16-.11-.27c0-.11.04-.19.11-.26s.2-.11.38-.11h8.05c.18,0,.3.04.38.11s.11.16.11.27c0,.11-.04.19-.11.26s-.2.11-.38.11Zm0,2.65h-8.05c-.18,0-.3-.03-.38-.1-.08-.07-.11-.16-.11-.27s.04-.2.11-.27.2-.1.38-.1h8.05c.18,0,.3.03.38.1s.11.16.11.27-.04.2-.11.27c-.08.07-.2.1-.38.1Z" fill="#333e48" stroke-width="0"/><path d="m477.73,194.97h-8.05c-.18,0-.3-.04-.38-.11s-.11-.16-.11-.27c0-.11.04-.19.11-.26s.2-.11.38-.11h8.05c.18,0,.3.04.38.11s.11.16.11.27c0,.11-.04.19-.11.26s-.2.11-.38.11Zm0,2.65h-8.05c-.18,0-.3-.03-.38-.1-.08-.07-.11-.16-.11-.27s.04-.2.11-.27.2-.1.38-.1h8.05c.18,0,.3.03.38.1s.11.16.11.27-.04.2-.11.27c-.08.07-.2.1-.38.1Z" fill="#333e48" stroke-width="0"/><path d="m487.89,194.66v1.83c0,1.59-.38,2.84-1.13,3.77-.59.73-1.34,1.09-2.24,1.09-.43,0-.84-.09-1.23-.26-.38-.17-.71-.41-.98-.72-.17-.19-.36-.5-.56-.93-.2-.43-.35-.82-.44-1.18-.13-.5-.2-1.09-.2-1.77v-1.83c0-1.59.38-2.85,1.13-3.78.59-.73,1.34-1.09,2.24-1.09.44,0,.85.09,1.23.26.38.17.71.42.98.73.18.2.36.51.56.94s.35.82.44,1.17c.13.5.19,1.1.19,1.78Zm-.74.1c0-.7-.1-1.35-.29-1.95-.2-.6-.42-1.08-.66-1.44-.15-.21-.34-.38-.57-.53-.33-.21-.71-.31-1.12-.31-.83,0-1.47.42-1.94,1.27s-.7,1.83-.7,2.95v1.63c0,.7.1,1.35.29,1.95s.42,1.08.67,1.44c.14.2.33.37.56.52.33.21.71.32,1.13.32.82,0,1.46-.42,1.93-1.27s.7-1.83.7-2.96v-1.63Z" fill="#333e48" stroke-width="0"/><rect x="585" y="45" width="225" height="45" fill="none" stroke="#333e48" stroke-miterlimit="10"/><path d="m654.66,170.03v8.81h1.92c.18,0,.3.03.38.1s.11.16.11.27c0,.11-.04.19-.11.26s-.2.11-.38.11h-4.58c-.18,0-.3-.04-.38-.11s-.11-.16-.11-.26c0-.11.04-.2.11-.27s.2-.1.38-.1h1.92v-8.81h-3.02v2.56c0,.18-.03.31-.1.39-.07.08-.16.11-.27.11-.11,0-.19-.04-.26-.11s-.11-.21-.11-.39v-3.3h8.27v3.3c0,.18-.03.31-.1.39s-.16.11-.27.11-.2-.04-.27-.11c-.07-.08-.1-.21-.1-.39v-2.56h-3.02Z" fill="#333e48" stroke-width="0"/><path d="m665.46,170.03v8.81h1.92c.18,0,.3.03.38.1s.11.16.11.27c0,.11-.04.19-.11.26s-.2.11-.38.11h-4.58c-.18,0-.3-.04-.38-.11s-.11-.16-.11-.26c0-.11.04-.2.11-.27s.2-.1.38-.1h1.92v-8.81h-3.02v2.56c0,.18-.03.31-.1.39-.07.08-.16.11-.27.11-.11,0-.19-.04-.26-.11s-.11-.21-.11-.39v-3.3h8.27v3.3c0,.18-.03.31-.1.39s-.16.11-.27.11-.2-.04-.27-.11c-.07-.08-.1-.21-.1-.39v-2.56h-3.02Z" fill="#333e48" stroke-width="0"/><path d="m672.75,178.83v-8.81h-.99c-.18,0-.3-.03-.38-.1-.08-.07-.11-.16-.11-.27s.04-.2.11-.27.2-.1.38-.1h4.64c.92,0,1.67.27,2.25.79.58.53.87,1.15.87,1.87,0,.9-.48,1.63-1.45,2.19.77.28,1.33.64,1.69,1.1s.54.96.54,1.51c0,.49-.12.94-.35,1.35-.23.41-.59.75-1.08,1.04-.48.29-1.01.43-1.58.43h-5.52c-.18,0-.3-.04-.38-.11s-.11-.16-.11-.26c0-.11.04-.2.11-.27s.2-.1.38-.1h.99Zm.74-4.97h2.61c.56,0,1.07-.1,1.53-.31.36-.16.64-.4.83-.71s.3-.63.3-.95c0-.46-.22-.89-.65-1.28-.43-.39-1-.58-1.7-.58h-2.93v3.83Zm0,4.97h3.74c.47,0,.89-.11,1.24-.32s.62-.47.8-.78.27-.63.27-.97c0-.38-.13-.74-.39-1.09-.26-.35-.62-.62-1.09-.8s-1.1-.27-1.92-.27h-2.65v4.23Z" fill="#333e48" stroke-width="0"/><path d="m684.29,174.98v3.85h1.36c.18,0,.31.03.39.1s.11.16.11.27c0,.11-.04.19-.11.26s-.21.11-.39.11h-3.09c-.18,0-.3-.04-.38-.11s-.11-.16-.11-.26c0-.11.04-.2.11-.27s.2-.1.38-.1h.99v-8.81h-.99c-.18,0-.3-.03-.38-.1-.08-.07-.11-.16-.11-.27s.04-.2.11-.27.2-.1.38-.1h4.46c.92,0,1.69.29,2.32.88s.95,1.24.95,1.97c0,.53-.2,1.02-.58,1.49-.39.46-1.04.85-1.96,1.16.53.36.98.77,1.35,1.23s.98,1.39,1.8,2.81h.56c.18,0,.3.03.38.1s.11.16.11.27c0,.11-.04.19-.11.26s-.2.11-.38.11h-.98c-.91-1.63-1.62-2.73-2.12-3.29-.5-.56-1.08-.99-1.73-1.3h-2.35Zm0-.74h2.01c.64,0,1.23-.12,1.75-.35.52-.23.9-.51,1.14-.83.24-.32.36-.64.36-.97,0-.49-.25-.96-.74-1.41-.5-.45-1.1-.67-1.81-.67h-2.72v4.22Z" fill="#333e48" stroke-width="0"/><path d="m700.89,173.15v1.83c0,1.59-.38,2.84-1.13,3.77-.59.73-1.34,1.09-2.24,1.09-.43,0-.84-.09-1.23-.26-.38-.17-.71-.41-.98-.72-.17-.19-.36-.5-.56-.93-.2-.43-.35-.82-.44-1.18-.13-.5-.2-1.09-.2-1.77v-1.83c0-1.59.38-2.85,1.13-3.78.59-.73,1.34-1.09,2.24-1.09.44,0,.85.09,1.23.26.38.17.71.42.98.73.18.2.36.51.56.94s.35.82.44,1.17c.13.5.19,1.1.19,1.78Zm-.74.1c0-.7-.1-1.35-.29-1.95-.2-.6-.42-1.08-.66-1.44-.15-.21-.34-.38-.57-.53-.33-.21-.71-.31-1.12-.31-.83,0-1.47.42-1.94,1.27s-.7,1.83-.7,2.95v1.63c0,.7.1,1.35.29,1.95s.42,1.08.67,1.44c.14.2.33.37.56.52.33.21.71.32,1.13.32.82,0,1.46-.42,1.93-1.27s.7-1.83.7-2.96v-1.63Z" fill="#333e48" stroke-width="0"/><path d="m713.21,184.5h-9.82c-.18,0-.3-.03-.38-.1-.08-.07-.11-.16-.11-.27s.04-.2.11-.27.2-.1.38-.1h9.82c.18,0,.31.03.38.1s.11.16.11.27-.04.2-.11.27c-.07.07-.2.1-.38.1Z" fill="#333e48" stroke-width="0"/><path d="m716.7,174.6v4.23h5.68v-2.18c0-.18.03-.3.1-.38s.16-.11.27-.11.2.04.27.11c.07.08.1.2.1.38v2.92h-8.15c-.18,0-.3-.04-.38-.11s-.11-.16-.11-.26c0-.11.04-.2.11-.27s.2-.1.38-.1h.99v-8.81h-.99c-.18,0-.3-.03-.38-.1-.08-.07-.11-.16-.11-.27s.04-.2.11-.27.2-.1.38-.1h7.76v2.54c0,.18-.03.3-.1.38-.07.08-.16.11-.27.11s-.2-.04-.27-.11-.1-.2-.1-.38v-1.8h-5.29v3.84h2.65v-.83c0-.18.04-.3.11-.38s.16-.11.27-.11c.11,0,.19.04.26.11s.11.2.11.38v2.41c0,.18-.04.3-.11.38s-.16.11-.26.11c-.11,0-.2-.04-.27-.11s-.11-.2-.11-.38v-.83h-2.65Z" fill="#333e48" stroke-width="0"/><path d="m728.63,170.03v8.81h4.9v-2.94c0-.18.04-.3.11-.38s.16-.11.27-.11c.11,0,.19.04.26.11.07.07.11.2.11.38v3.67h-8.16c-.18,0-.3-.04-.38-.11s-.11-.16-.11-.26c0-.11.04-.2.11-.27s.2-.1.38-.1h1.76v-8.81h-1.76c-.18,0-.3-.03-.38-.1-.08-.07-.11-.16-.11-.27s.04-.2.11-.27.2-.1.38-.1h4.26c.18,0,.3.03.38.1s.11.16.11.27-.04.2-.11.27c-.08.07-.2.1-.38.1h-1.76Z" fill="#333e48" stroke-width="0"/><path d="m741.07,168.39v10.44h2.53c.18,0,.3.03.38.1s.11.16.11.27c0,.11-.04.19-.11.26s-.2.11-.38.11h-5.8c-.18,0-.3-.04-.38-.11s-.11-.16-.11-.26c0-.11.04-.2.11-.27s.2-.1.38-.1h2.53v-9.42l-2.41.76c-.12.04-.2.05-.25.05-.09,0-.17-.04-.24-.11-.07-.07-.11-.16-.11-.26,0-.09.03-.17.09-.25.05-.05.14-.1.29-.15l3.38-1.06Z" fill="#333e48" stroke-width="0"/><rect x="585" y="150" width="225" height="45" fill="none" stroke="#333e48" stroke-miterlimit="10"/><line x1="285" y1="120" x2="287.5" y2="120" fill="none" stroke="#333e48" stroke-miterlimit="10"/><line x1="290.29" y1="120" x2="326.1" y2="120" fill="none" stroke="#333e48" stroke-dasharray="0 0 4.65 2.79" stroke-miterlimit="10"/><polyline points="327.5 120 330 120 330 117.5" fill="none" stroke="#333e48" stroke-miterlimit="10"/><line x1="330" y1="114.71" x2="330" y2="71.4" fill="none" stroke="#333e48" stroke-dasharray="0 0 4.66 2.79" stroke-miterlimit="10"/><polyline points="330 70 330 67.5 332.5 67.5" fill="none" stroke="#333e48" stroke-miterlimit="10"/><line x1="335.52" y1="67.5" x2="575.25" y2="67.5" fill="none" stroke="#333e48" stroke-dasharray="0 0 5.03 3.02" stroke-miterlimit="10"/><line x1="576.76" y1="67.5" x2="579.26" y2="67.5" fill="none" stroke="#333e48" stroke-miterlimit="10"/><polygon points="578.09 71.49 585 67.5 578.09 63.51 578.09 71.49" fill="#333e48" stroke-width="0"/><line x1="285" y1="120" x2="287.5" y2="120" fill="none" stroke="#333e48" stroke-miterlimit="10"/><line x1="290.29" y1="120" x2="326.1" y2="120" fill="none" stroke="#333e48" stroke-dasharray="0 0 4.65 2.79" stroke-miterlimit="10"/><polyline points="327.5 120 330 120 330 122.5" fill="none" stroke="#333e48" stroke-miterlimit="10"/><line x1="330" y1="125.29" x2="330" y2="168.6" fill="none" stroke="#333e48" stroke-dasharray="0 0 4.66 2.79" stroke-miterlimit="10"/><polyline points="330 170 330 172.5 332.5 172.5" fill="none" stroke="#333e48" stroke-miterlimit="10"/><line x1="335.52" y1="172.5" x2="575.25" y2="172.5" fill="none" stroke="#333e48" stroke-dasharray="0 0 5.03 3.02" stroke-miterlimit="10"/><line x1="576.76" y1="172.5" x2="579.26" y2="172.5" fill="none" stroke="#333e48" stroke-miterlimit="10"/><polygon points="578.09 176.49 585 172.5 578.09 168.51 578.09 176.49" fill="#333e48" stroke-width="0"/></svg>