<svg xmlns="http://www.w3.org/2000/svg" id="Layer_1" width="765" height="480" viewBox="0 0 765 480"><rect x="30" y="60" width="225" height="375.43" fill="#95d600" stroke-width="0"/><rect x="45" y="390.43" width="195" height="30" fill="#fff" stroke-width="0"/><path d="m125.41,401.79v4.33h5.18v1.56h-5.18v5.48h-1.93v-12.92h8.01v1.56h-6.08Z" fill="#333e48" stroke-width="0"/><path d="m134.95,399.88v13.28h-1.76v-13.28h1.76Z" fill="#333e48" stroke-width="0"/><path d="m137.22,405.29c.51-.49,1.06-.85,1.66-1.09.6-.24,1.25-.36,1.97-.36.52,0,.98.09,1.39.26.4.17.74.41,1.02.72.28.31.48.67.62,1.1s.21.9.21,1.41v5.83h-.78c-.17,0-.31-.03-.4-.09-.09-.06-.16-.16-.22-.32l-.19-.8c-.23.22-.46.41-.69.57-.23.17-.47.31-.72.42-.25.12-.51.21-.8.27-.28.06-.59.09-.94.09s-.7-.05-1.01-.15c-.32-.1-.59-.25-.82-.45-.23-.2-.42-.46-.55-.76-.14-.31-.2-.66-.2-1.07,0-.36.1-.71.29-1.04.19-.33.51-.63.95-.9.44-.26,1.02-.48,1.73-.65s1.59-.26,2.62-.29v-.67c0-.69-.15-1.21-.44-1.55s-.73-.51-1.3-.51c-.38,0-.71.05-.97.14s-.49.2-.67.32c-.19.12-.35.22-.5.32-.14.1-.29.14-.44.14-.12,0-.22-.03-.31-.1-.09-.07-.16-.14-.21-.23l-.32-.57Zm5.15,3.81c-.71.02-1.32.08-1.82.17s-.9.2-1.21.35c-.31.14-.54.31-.67.51-.14.19-.21.41-.21.65,0,.23.04.42.11.59s.18.3.31.41c.13.11.28.18.46.23.17.05.36.07.57.07.27,0,.52-.03.74-.08.23-.05.44-.13.63-.23s.39-.22.57-.36c.18-.14.36-.31.53-.5v-1.8Z" fill="#333e48" stroke-width="0"/><path d="m151.84,405.59c-.05.08-.1.13-.15.17-.05.03-.12.05-.21.05-.1,0-.2-.03-.32-.1-.12-.07-.26-.14-.42-.22s-.36-.15-.58-.22c-.22-.07-.49-.1-.79-.1-.25,0-.48.03-.69.09-.21.06-.38.15-.53.26-.14.11-.25.24-.33.4-.08.15-.12.32-.12.49,0,.23.07.42.2.57.13.15.31.28.53.39.22.11.47.21.75.29.28.09.56.18.85.27s.58.21.86.33c.28.12.53.28.75.46.22.18.4.4.53.66.14.26.2.57.2.95,0,.43-.08.82-.23,1.18-.15.36-.38.68-.67.94-.3.26-.67.47-1.1.62-.44.15-.94.22-1.5.22-.63,0-1.21-.1-1.75-.31-.53-.21-.98-.48-1.34-.8l.41-.68c.05-.08.11-.15.18-.19.07-.04.17-.07.29-.07.11,0,.23.04.35.13s.26.18.43.27c.17.1.37.19.61.27s.54.12.9.12c.3,0,.56-.04.78-.11.22-.08.41-.18.55-.31.15-.13.26-.28.33-.45.07-.17.11-.34.11-.53,0-.24-.07-.44-.2-.6s-.31-.3-.53-.41c-.22-.11-.47-.21-.75-.3-.28-.08-.57-.17-.86-.27s-.58-.21-.86-.33-.53-.29-.75-.48c-.22-.19-.4-.43-.53-.7-.13-.28-.2-.61-.2-1.01,0-.35.07-.69.22-1.02.15-.32.36-.61.64-.85.28-.25.62-.44,1.03-.59s.88-.22,1.41-.22c.61,0,1.15.1,1.64.29.49.19.91.46,1.25.79l-.39.64Z" fill="#333e48" stroke-width="0"/><path d="m156.02,405.18c.38-.39.81-.7,1.27-.94s1-.36,1.61-.36c.5,0,.95.08,1.33.25s.7.4.96.71c.26.3.45.67.58,1.09.13.43.2.9.2,1.41v5.82h-1.76v-5.82c0-.65-.15-1.16-.45-1.53-.3-.36-.76-.54-1.38-.54-.45,0-.87.11-1.26.32-.39.21-.76.5-1.09.87v6.71h-1.75v-13.28h1.75v5.3Z" fill="#333e48" stroke-width="0"/><rect x="45" y="75.43" width="195" height="90" fill="#fff" stroke-width="0"/><path d="m136.01,121.7c0,.97-.15,1.84-.46,2.64-.31.79-.75,1.47-1.31,2.04-.56.57-1.24,1.01-2.02,1.32-.79.31-1.66.47-2.62.47h-4.86v-12.92h4.86c.96,0,1.83.16,2.62.47.79.31,1.46.75,2.02,1.32.56.57,1,1.25,1.31,2.04.31.79.46,1.67.46,2.63Zm-1.96,0c0-.77-.11-1.46-.32-2.07s-.51-1.12-.9-1.55c-.39-.42-.85-.75-1.4-.97-.55-.22-1.16-.33-1.84-.33h-2.93v9.83h2.93c.68,0,1.29-.11,1.84-.33.55-.22,1.02-.54,1.4-.97.39-.42.69-.94.9-1.54.21-.61.32-1.3.32-2.07Z" fill="#333e48" stroke-width="0"/><path d="m149.7,121.7c0,.97-.15,1.84-.46,2.64-.31.79-.75,1.47-1.31,2.04-.56.57-1.24,1.01-2.02,1.32-.79.31-1.66.47-2.62.47h-4.86v-12.92h4.86c.96,0,1.83.16,2.62.47.79.31,1.46.75,2.02,1.32.56.57,1,1.25,1.31,2.04.31.79.46,1.67.46,2.63Zm-1.96,0c0-.77-.11-1.46-.32-2.07s-.51-1.12-.9-1.55c-.39-.42-.85-.75-1.4-.97-.55-.22-1.16-.33-1.84-.33h-2.93v9.83h2.93c.68,0,1.29-.11,1.84-.33.55-.22,1.02-.54,1.4-.97.39-.42.69-.94.9-1.54.21-.61.32-1.3.32-2.07Z" fill="#333e48" stroke-width="0"/><path d="m161.8,128.16h-1.71c-.34,0-.59-.13-.75-.41l-3.2-4.48c-.1-.15-.21-.26-.33-.32-.12-.06-.3-.09-.54-.09h-1.25v5.3h-1.92v-12.92h3.73c.83,0,1.55.08,2.16.26.6.17,1.1.41,1.49.73.39.32.68.69.87,1.14.19.44.28.94.28,1.49,0,.45-.07.87-.21,1.27-.14.4-.34.75-.61,1.07-.27.32-.59.59-.98.81-.38.23-.82.4-1.3.52.24.14.45.34.62.6l3.64,5.03Zm-6.03-6.7c.49,0,.93-.06,1.3-.18s.69-.29.94-.51c.25-.22.44-.48.57-.78.13-.3.19-.64.19-1,0-.74-.24-1.3-.73-1.68-.49-.38-1.22-.57-2.2-.57h-1.81v4.72h1.75Z" fill="#333e48" stroke-width="0"/><path d="m74.37,45.38h-1.93v-12.92h1.93v12.92Z" fill="#333e48" stroke-width="0"/><path d="m81.47,32.46c.83,0,1.55.1,2.16.29.61.19,1.12.46,1.52.81.4.35.7.78.9,1.27.19.5.29,1.05.29,1.66s-.11,1.16-.32,1.67-.52.94-.93,1.31-.92.65-1.53.85-1.31.3-2.1.3h-2v4.76h-1.92v-12.92h3.92Zm0,6.65c.49,0,.91-.06,1.28-.19.37-.13.68-.3.93-.54.25-.23.44-.51.56-.83.13-.32.19-.68.19-1.07,0-.79-.24-1.4-.73-1.85s-1.23-.67-2.23-.67h-2v5.15h2Z" fill="#333e48" stroke-width="0"/><path d="m98.2,45.38h-1.48c-.17,0-.31-.04-.41-.13-.11-.08-.19-.19-.23-.32l-1.14-3h-5.7l-1.14,3c-.04.11-.12.22-.23.31-.11.09-.25.14-.41.14h-1.48l5.15-12.92h1.93l5.15,12.92Zm-3.79-4.82l-1.92-5.01c-.14-.34-.28-.77-.41-1.3-.07.26-.13.5-.2.72-.07.22-.14.42-.2.59l-1.91,4.99h4.64Z" fill="#333e48" stroke-width="0"/><path d="m108.79,37.81c-.05.08-.1.13-.15.17-.05.03-.12.05-.21.05-.1,0-.2-.03-.32-.1-.12-.07-.26-.14-.42-.22s-.36-.15-.58-.22c-.22-.07-.49-.1-.79-.1-.25,0-.48.03-.69.09-.21.06-.38.15-.53.26-.14.11-.25.24-.33.4-.08.15-.12.32-.12.49,0,.23.07.42.2.57.13.15.31.28.53.39.22.11.47.21.75.29.28.09.56.18.85.27s.58.21.86.33c.28.12.53.28.75.46.22.18.4.4.53.66.14.26.2.57.2.95,0,.43-.08.82-.23,1.18-.15.36-.38.68-.67.94-.3.26-.67.47-1.1.62-.44.15-.94.22-1.5.22-.63,0-1.21-.1-1.75-.31-.53-.21-.98-.48-1.34-.8l.41-.68c.05-.08.11-.15.18-.19.07-.04.17-.07.29-.07.11,0,.23.04.35.13s.26.18.43.27c.17.1.37.19.61.27s.54.12.9.12c.3,0,.56-.04.78-.11.22-.08.41-.18.55-.31.15-.13.26-.28.33-.45.07-.17.11-.34.11-.53,0-.24-.07-.44-.2-.6s-.31-.3-.53-.41c-.22-.11-.47-.21-.75-.3-.28-.08-.57-.17-.86-.27s-.58-.21-.86-.33-.53-.29-.75-.48c-.22-.19-.4-.43-.53-.7-.13-.28-.2-.61-.2-1.01,0-.35.07-.69.22-1.02.15-.32.36-.61.64-.85.28-.25.62-.44,1.03-.59s.88-.22,1.41-.22c.61,0,1.15.1,1.64.29.49.19.91.46,1.25.79l-.39.64Z" fill="#333e48" stroke-width="0"/><path d="m112.88,37.6c.19-.23.4-.44.62-.62.22-.19.45-.35.71-.49s.52-.24.81-.31.59-.11.91-.11c.52,0,.99.1,1.42.31s.78.5,1.08.9c.3.4.53.89.7,1.47s.25,1.25.25,2.01c0,.68-.09,1.31-.27,1.89-.18.58-.44,1.08-.78,1.51-.34.43-.75.76-1.24,1-.49.24-1.04.36-1.65.36-.55,0-1.01-.09-1.4-.27-.39-.18-.74-.43-1.04-.76v3.97h-1.75v-12.21h1.05c.25,0,.4.12.46.35l.15,1.02Zm.09,5.53c.29.38.6.64.93.79.33.15.71.22,1.12.22.8,0,1.43-.29,1.87-.87.44-.58.66-1.42.66-2.53,0-.58-.05-1.08-.15-1.49-.1-.41-.24-.75-.43-1.01-.19-.26-.42-.45-.7-.58-.28-.12-.59-.18-.94-.18-.51,0-.95.11-1.33.34-.38.23-.72.55-1.04.97v4.33Z" fill="#333e48" stroke-width="0"/><path d="m121.11,37.51c.51-.49,1.06-.85,1.66-1.09.6-.24,1.25-.36,1.97-.36.52,0,.98.09,1.39.26.4.17.74.41,1.02.72.28.31.48.67.62,1.1s.21.9.21,1.41v5.83h-.78c-.17,0-.31-.03-.4-.09-.09-.06-.16-.16-.22-.32l-.19-.8c-.23.22-.46.41-.69.57-.23.17-.47.31-.72.42-.25.12-.51.21-.8.27-.28.06-.59.09-.94.09s-.7-.05-1.01-.15c-.32-.1-.59-.25-.82-.45-.23-.2-.42-.46-.55-.76-.14-.31-.2-.66-.2-1.07,0-.36.1-.71.29-1.04.19-.33.51-.63.95-.9.44-.26,1.02-.48,1.73-.65s1.59-.26,2.62-.29v-.67c0-.69-.15-1.21-.44-1.55s-.73-.51-1.3-.51c-.38,0-.71.05-.97.14s-.49.2-.67.32c-.19.12-.35.22-.5.32-.14.1-.29.14-.44.14-.12,0-.22-.03-.31-.1-.09-.07-.16-.14-.21-.23l-.32-.57Zm5.15,3.81c-.71.02-1.32.08-1.82.17s-.9.2-1.21.35c-.31.14-.54.31-.67.51-.14.19-.21.41-.21.65,0,.23.04.42.11.59s.18.3.31.41c.13.11.28.18.46.23.17.05.36.07.57.07.27,0,.52-.03.74-.08.23-.05.44-.13.63-.23s.39-.22.57-.36c.18-.14.36-.31.53-.5v-1.8Z" fill="#333e48" stroke-width="0"/><path d="m136.74,37.95c-.05.07-.11.12-.16.16s-.12.06-.22.06-.2-.04-.3-.11c-.11-.08-.24-.16-.4-.24s-.35-.17-.58-.24c-.22-.08-.5-.11-.83-.11-.43,0-.81.08-1.14.23-.33.16-.6.38-.82.67s-.39.64-.5,1.05c-.11.41-.17.88-.17,1.39s.06,1.01.18,1.43.29.77.51,1.05.49.5.81.65c.32.15.67.22,1.06.22s.69-.05.94-.14c.25-.09.45-.19.61-.3.16-.11.3-.21.41-.3s.22-.14.33-.14c.14,0,.25.05.33.16l.5.65c-.21.26-.45.48-.71.66-.26.18-.54.33-.83.44s-.6.2-.92.25c-.32.05-.65.08-.98.08-.57,0-1.1-.11-1.6-.32s-.92-.52-1.29-.92c-.36-.4-.65-.9-.86-1.48-.21-.58-.32-1.25-.32-1.99,0-.68.09-1.3.28-1.88.19-.58.47-1.07.84-1.49.37-.42.82-.74,1.36-.98s1.16-.36,1.85-.36c.65,0,1.23.11,1.73.32s.94.51,1.33.89l-.47.65Z" fill="#333e48" stroke-width="0"/><path d="m146.29,44.08c-.22.25-.46.47-.75.65-.28.18-.58.33-.9.45s-.65.2-.99.25-.67.08-1,.08c-.63,0-1.21-.11-1.75-.32s-1-.53-1.4-.94c-.39-.41-.7-.92-.92-1.53-.22-.61-.33-1.31-.33-2.1,0-.64.1-1.23.3-1.78.2-.55.48-1.03.85-1.44s.82-.73,1.35-.96c.53-.23,1.13-.35,1.8-.35.56,0,1.07.09,1.54.27.47.18.88.45,1.22.8.34.35.61.78.8,1.29.2.51.29,1.09.29,1.75,0,.27-.03.45-.09.54-.06.09-.17.14-.33.14h-5.99c.02.55.1,1.02.23,1.43.14.4.33.74.57,1.01.24.27.53.47.87.6s.71.2,1.12.2c.39,0,.73-.04,1.01-.13.29-.09.53-.19.74-.29.21-.1.38-.2.52-.29.14-.09.27-.13.37-.13.14,0,.25.05.33.16l.5.65Zm-1.45-4.28c0-.35-.05-.67-.15-.96s-.25-.55-.44-.77c-.19-.22-.43-.38-.7-.5s-.59-.18-.95-.18c-.74,0-1.32.21-1.74.64-.42.43-.69,1.02-.81,1.77h4.79Z" fill="#333e48" stroke-width="0"/><path d="m156.76,36.09c.67,0,1.28.11,1.82.33.54.22,1,.53,1.39.95.38.41.67.91.88,1.49s.31,1.23.31,1.95-.1,1.37-.31,1.95-.5,1.08-.88,1.49c-.38.41-.84.72-1.39.94-.54.22-1.15.33-1.82.33s-1.29-.11-1.83-.33c-.54-.22-1.01-.53-1.39-.94-.38-.41-.68-.9-.89-1.49s-.31-1.23-.31-1.95.1-1.37.31-1.95.5-1.07.89-1.49.85-.73,1.39-.95c.54-.22,1.15-.33,1.83-.33Zm0,8.05c.86,0,1.51-.29,1.94-.87.43-.58.64-1.4.64-2.46s-.21-1.88-.64-2.46c-.43-.58-1.07-.88-1.94-.88s-1.53.29-1.96.88c-.43.58-.64,1.41-.64,2.46s.21,1.88.64,2.46c.43.58,1.08.87,1.96.87Z" fill="#333e48" stroke-width="0"/><path d="m163.5,45.38v-7.7l-.95-.12c-.14-.03-.25-.08-.34-.15-.09-.07-.13-.17-.13-.3v-.73h1.42v-.83c0-.52.08-.99.22-1.39.15-.41.37-.75.64-1.04.28-.29.62-.5,1.01-.65.39-.15.83-.22,1.33-.22.41,0,.79.06,1.14.18l-.04.88c0,.08-.03.14-.07.18s-.1.07-.17.09c-.07.02-.15.03-.25.03-.1,0-.21,0-.32,0-.27,0-.52.03-.74.1-.22.07-.41.18-.57.33-.16.16-.28.36-.36.62s-.13.57-.13.95v.77h2.57v1.28h-2.51v7.72h-1.76Z" fill="#333e48" stroke-width="0"/><path d="m173.22,37.51c.51-.49,1.06-.85,1.66-1.09.6-.24,1.25-.36,1.97-.36.52,0,.98.09,1.39.26.4.17.74.41,1.02.72.28.31.48.67.62,1.1s.21.9.21,1.41v5.83h-.78c-.17,0-.31-.03-.4-.09-.09-.06-.16-.16-.22-.32l-.19-.8c-.23.22-.46.41-.69.57-.23.17-.47.31-.72.42-.25.12-.51.21-.8.27-.28.06-.59.09-.94.09s-.7-.05-1.01-.15c-.32-.1-.59-.25-.82-.45-.23-.2-.42-.46-.55-.76-.14-.31-.2-.66-.2-1.07,0-.36.1-.71.29-1.04.19-.33.51-.63.95-.9.44-.26,1.02-.48,1.73-.65s1.59-.26,2.62-.29v-.67c0-.69-.15-1.21-.44-1.55s-.73-.51-1.3-.51c-.38,0-.71.05-.97.14s-.49.2-.67.32c-.19.12-.35.22-.5.32-.14.1-.29.14-.44.14-.12,0-.22-.03-.31-.1-.09-.07-.16-.14-.21-.23l-.32-.57Zm5.15,3.81c-.71.02-1.32.08-1.82.17s-.9.2-1.21.35c-.31.14-.54.31-.67.51-.14.19-.21.41-.21.65,0,.23.04.42.11.59s.18.3.31.41c.13.11.28.18.46.23.17.05.36.07.57.07.27,0,.52-.03.74-.08.23-.05.44-.13.63-.23s.39-.22.57-.36c.18-.14.36-.31.53-.5v-1.8Z" fill="#333e48" stroke-width="0"/><path d="m197.35,32.46l-5.26,12.92h-1.72l-5.26-12.92h1.53c.17,0,.3.04.41.13.11.08.18.19.24.32l3.49,8.78c.08.22.17.45.25.71.08.26.15.53.22.81.06-.28.13-.55.2-.81.07-.26.15-.5.23-.71l3.48-8.78c.04-.12.12-.23.23-.32.11-.09.25-.13.41-.13h1.54Z" fill="#333e48" stroke-width="0"/><path d="m212.55,32.46v12.92h-1.67v-9.2c0-.14,0-.28.01-.44s.02-.32.03-.48l-4.3,7.89c-.15.29-.38.44-.69.44h-.27c-.31,0-.54-.15-.68-.44l-4.38-7.92c.04.34.05.65.05.94v9.2h-1.68v-12.92h1.42c.17,0,.3.02.39.05.09.03.18.12.27.27l4.32,7.74c.08.16.16.32.23.5.07.17.14.35.21.52.13-.35.27-.7.44-1.03l4.24-7.73c.08-.15.16-.24.26-.27.09-.03.22-.05.39-.05h1.42Z" fill="#333e48" stroke-width="0"/><path d="m536.57,32.03c.83,0,1.55.1,2.16.29.61.19,1.12.46,1.52.81.4.35.7.78.9,1.27.19.5.29,1.05.29,1.66s-.11,1.16-.32,1.67-.52.94-.93,1.31-.92.65-1.53.85-1.31.3-2.1.3h-2v4.76h-1.92v-12.92h3.92Zm0,6.65c.49,0,.91-.06,1.28-.19.37-.13.68-.3.93-.54.25-.23.44-.51.56-.83.13-.32.19-.68.19-1.07,0-.79-.24-1.4-.73-1.85s-1.23-.67-2.23-.67h-2v5.15h2Z" fill="#333e48" stroke-width="0"/><path d="m544.88,36.97c.38-.39.81-.7,1.27-.94s1-.36,1.61-.36c.5,0,.95.08,1.33.25s.7.4.96.71c.26.3.45.67.58,1.09.13.43.2.9.2,1.41v5.82h-1.76v-5.82c0-.65-.15-1.16-.45-1.53-.3-.36-.76-.54-1.38-.54-.45,0-.87.11-1.26.32-.39.21-.76.5-1.09.87v6.71h-1.75v-13.28h1.75v5.3Z" fill="#333e48" stroke-width="0"/><path d="m560.97,35.81l-5.08,11.8c-.05.13-.13.23-.22.31-.09.07-.22.11-.4.11h-1.3l1.67-3.65-3.75-8.57h1.53c.15,0,.27.04.35.11s.14.15.18.24l2.32,5.49c.05.14.09.28.14.42.04.14.08.28.11.42.04-.14.09-.29.13-.43s.1-.28.15-.42l2.24-5.48c.04-.1.11-.19.2-.25.09-.07.19-.1.31-.1h1.4Z" fill="#333e48" stroke-width="0"/><path d="m567.54,37.38c-.05.08-.1.13-.15.17-.05.03-.12.05-.21.05-.1,0-.2-.03-.32-.1-.12-.07-.26-.14-.42-.22s-.36-.15-.58-.22c-.22-.07-.49-.1-.79-.1-.25,0-.48.03-.69.09-.21.06-.38.15-.53.26-.14.11-.25.24-.33.4-.08.15-.12.32-.12.49,0,.23.07.42.2.57.13.15.31.28.53.39.22.11.47.21.75.29.28.09.56.18.85.27s.58.21.86.33c.28.12.53.28.75.46.22.18.4.4.53.66.14.26.2.57.2.95,0,.43-.08.82-.23,1.18-.15.36-.38.68-.67.94-.3.26-.67.47-1.1.62-.44.15-.94.22-1.5.22-.63,0-1.21-.1-1.75-.31-.53-.21-.98-.48-1.34-.8l.41-.68c.05-.08.11-.15.18-.19.07-.04.17-.07.29-.07.11,0,.23.04.35.13s.26.18.43.27c.17.1.37.19.61.27s.54.12.9.12c.3,0,.56-.04.78-.11.22-.08.41-.18.55-.31.15-.13.26-.28.33-.45.07-.17.11-.34.11-.53,0-.24-.07-.44-.2-.6s-.31-.3-.53-.41c-.22-.11-.47-.21-.75-.3-.28-.08-.57-.17-.86-.27s-.58-.21-.86-.33-.53-.29-.75-.48c-.22-.19-.4-.43-.53-.7-.13-.28-.2-.61-.2-1.01,0-.35.07-.69.22-1.02.15-.32.36-.61.64-.85.28-.25.62-.44,1.03-.59s.88-.22,1.41-.22c.61,0,1.15.1,1.64.29.49.19.91.46,1.25.79l-.39.64Z" fill="#333e48" stroke-width="0"/><path d="m572.14,32.98c0,.16-.03.32-.1.46-.07.15-.15.28-.27.39s-.24.2-.39.26c-.15.06-.31.09-.47.09s-.31-.03-.46-.09c-.14-.06-.27-.15-.38-.26s-.2-.24-.26-.39c-.06-.15-.09-.3-.09-.46s.03-.33.09-.47c.06-.15.15-.28.26-.39.11-.11.24-.2.38-.26.14-.06.3-.09.46-.09s.32.03.47.09c.15.06.28.15.39.26.11.11.2.24.27.39.07.15.1.3.1.47Zm-.33,2.83v9.14h-1.75v-9.14h1.75Z" fill="#333e48" stroke-width="0"/><path d="m580.76,37.52c-.05.07-.11.12-.16.16s-.12.06-.22.06-.2-.04-.3-.11c-.11-.08-.24-.16-.4-.24s-.35-.17-.58-.24c-.22-.08-.5-.11-.83-.11-.43,0-.81.08-1.14.23-.33.16-.6.38-.82.67s-.39.64-.5,1.05c-.11.41-.17.88-.17,1.39s.06,1.01.18,1.43.29.77.51,1.05.49.5.81.65c.32.15.67.22,1.06.22s.69-.05.94-.14c.25-.09.45-.19.61-.3.16-.11.3-.21.41-.3s.22-.14.33-.14c.14,0,.25.05.33.16l.5.65c-.21.26-.45.48-.71.66-.26.18-.54.33-.83.44s-.6.2-.92.25c-.32.05-.65.08-.98.08-.57,0-1.1-.11-1.6-.32s-.92-.52-1.29-.92c-.36-.4-.65-.9-.86-1.48-.21-.58-.32-1.25-.32-1.99,0-.68.09-1.3.28-1.88.19-.58.47-1.07.84-1.49.37-.42.82-.74,1.36-.98s1.16-.36,1.85-.36c.65,0,1.23.11,1.73.32s.94.51,1.33.89l-.47.65Z" fill="#333e48" stroke-width="0"/><path d="m582.73,37.08c.51-.49,1.06-.85,1.66-1.09.6-.24,1.25-.36,1.97-.36.52,0,.98.09,1.39.26.4.17.74.41,1.02.72.28.31.48.67.62,1.1s.21.9.21,1.41v5.83h-.78c-.17,0-.31-.03-.4-.09-.09-.06-.16-.16-.22-.32l-.19-.8c-.23.22-.46.41-.69.57-.23.17-.47.31-.72.42-.25.12-.51.21-.8.27-.28.06-.59.09-.94.09s-.7-.05-1.01-.15c-.32-.1-.59-.25-.82-.45-.23-.2-.42-.46-.55-.76-.14-.31-.2-.66-.2-1.07,0-.36.1-.71.29-1.04.19-.33.51-.63.95-.9.44-.26,1.02-.48,1.73-.65s1.59-.26,2.62-.29v-.67c0-.69-.15-1.21-.44-1.55s-.73-.51-1.3-.51c-.38,0-.71.05-.97.14s-.49.2-.67.32c-.19.12-.35.22-.5.32-.14.1-.29.14-.44.14-.12,0-.22-.03-.31-.1-.09-.07-.16-.14-.21-.23l-.32-.57Zm5.15,3.81c-.71.02-1.32.08-1.82.17s-.9.2-1.21.35c-.31.14-.54.31-.67.51-.14.19-.21.41-.21.65,0,.23.04.42.11.59s.18.3.31.41c.13.11.28.18.46.23.17.05.36.07.57.07.27,0,.52-.03.74-.08.23-.05.44-.13.63-.23s.39-.22.57-.36c.18-.14.36-.31.53-.5v-1.8Z" fill="#333e48" stroke-width="0"/><path d="m593.75,31.67v13.28h-1.76v-13.28h1.76Z" fill="#333e48" stroke-width="0"/><path d="m611.21,44.95h-1.48c-.17,0-.31-.04-.41-.13-.11-.08-.19-.19-.23-.32l-1.14-3h-5.7l-1.14,3c-.04.11-.12.22-.23.31-.11.09-.25.14-.41.14h-1.48l5.15-12.92h1.93l5.15,12.92Zm-3.79-4.82l-1.92-5.01c-.14-.34-.28-.77-.41-1.3-.07.26-.13.5-.2.72-.07.22-.14.42-.2.59l-1.91,4.99h4.64Z" fill="#333e48" stroke-width="0"/><path d="m619.93,31.67v13.28h-1.06c-.25,0-.4-.12-.46-.35l-.15-1.05c-.39.46-.83.83-1.33,1.11-.5.28-1.07.42-1.71.42-.52,0-.99-.1-1.42-.31-.42-.2-.79-.5-1.08-.9-.3-.39-.53-.88-.69-1.46-.16-.58-.24-1.25-.24-2.01,0-.68.09-1.31.27-1.89.18-.58.44-1.09.78-1.51.34-.43.76-.76,1.24-1,.49-.24,1.04-.37,1.65-.37.55,0,1.02.09,1.41.27.39.18.73.43,1.04.76v-5h1.76Zm-1.76,6.35c-.29-.38-.6-.64-.93-.79-.33-.15-.71-.23-1.12-.23-.8,0-1.43.29-1.87.87-.44.58-.66,1.42-.66,2.53,0,.58.05,1.08.15,1.49.1.41.24.75.43,1.01.19.26.42.45.7.58.28.12.59.18.94.18.51,0,.95-.11,1.32-.34.37-.23.72-.55,1.04-.96v-4.34Z" fill="#333e48" stroke-width="0"/><path d="m630.04,31.67v13.28h-1.06c-.25,0-.4-.12-.46-.35l-.15-1.05c-.39.46-.83.83-1.33,1.11-.5.28-1.07.42-1.71.42-.52,0-.99-.1-1.42-.31-.42-.2-.79-.5-1.08-.9-.3-.39-.53-.88-.69-1.46-.16-.58-.24-1.25-.24-2.01,0-.68.09-1.31.27-1.89.18-.58.44-1.09.78-1.51.34-.43.76-.76,1.24-1,.49-.24,1.04-.37,1.65-.37.55,0,1.02.09,1.41.27.39.18.73.43,1.04.76v-5h1.76Zm-1.76,6.35c-.29-.38-.6-.64-.93-.79-.33-.15-.71-.23-1.12-.23-.8,0-1.43.29-1.87.87-.44.58-.66,1.42-.66,2.53,0,.58.05,1.08.15,1.49.1.41.24.75.43,1.01.19.26.42.45.7.58.28.12.59.18.94.18.51,0,.95-.11,1.32-.34.37-.23.72-.55,1.04-.96v-4.34Z" fill="#333e48" stroke-width="0"/><path d="m634.15,37.56c.29-.6.65-1.07,1.06-1.41s.91-.51,1.49-.51c.2,0,.38.02.56.07.18.04.33.11.46.2l-.12,1.32c-.04.16-.14.24-.3.24-.08,0-.21-.02-.38-.05s-.35-.05-.54-.05c-.28,0-.53.04-.75.12-.22.08-.41.2-.58.36s-.32.35-.45.58c-.13.23-.26.49-.37.79v5.72h-1.75v-9.14h1.01c.19,0,.32.03.39.1s.12.19.15.36l.11,1.29Z" fill="#333e48" stroke-width="0"/><path d="m646.26,43.65c-.22.25-.46.47-.75.65-.28.18-.58.33-.9.45s-.65.2-.99.25-.67.08-1,.08c-.63,0-1.21-.11-1.75-.32s-1-.53-1.4-.94c-.39-.41-.7-.92-.92-1.53-.22-.61-.33-1.31-.33-2.1,0-.64.1-1.23.3-1.78.2-.55.48-1.03.85-1.44s.82-.73,1.35-.96c.53-.23,1.13-.35,1.8-.35.56,0,1.07.09,1.54.27.47.18.88.45,1.22.8.34.35.61.78.8,1.29.2.51.29,1.09.29,1.75,0,.27-.03.45-.09.54-.06.09-.17.14-.33.14h-5.99c.02.55.1,1.02.23,1.43.14.4.33.74.57,1.01.24.27.53.47.87.6s.71.2,1.12.2c.39,0,.73-.04,1.01-.13.29-.09.53-.19.74-.29.21-.1.38-.2.52-.29.14-.09.27-.13.37-.13.14,0,.25.05.33.16l.5.65Zm-1.45-4.28c0-.35-.05-.67-.15-.96s-.25-.55-.44-.77c-.19-.22-.43-.38-.7-.5s-.59-.18-.95-.18c-.74,0-1.32.21-1.74.64-.42.43-.69,1.02-.81,1.77h4.79Z" fill="#333e48" stroke-width="0"/><path d="m653.68,37.38c-.05.08-.1.13-.15.17-.05.03-.12.05-.21.05-.1,0-.2-.03-.32-.1-.12-.07-.26-.14-.42-.22s-.36-.15-.58-.22c-.22-.07-.49-.1-.79-.1-.25,0-.48.03-.69.09-.21.06-.38.15-.53.26-.14.11-.25.24-.33.4-.08.15-.12.32-.12.49,0,.23.07.42.2.57.13.15.31.28.53.39.22.11.47.21.75.29.28.09.56.18.85.27s.58.21.86.33c.28.12.53.28.75.46.22.18.4.4.53.66.14.26.2.57.2.95,0,.43-.08.82-.23,1.18-.15.36-.38.68-.67.94-.3.26-.67.47-1.1.62-.44.15-.94.22-1.5.22-.63,0-1.21-.1-1.75-.31-.53-.21-.98-.48-1.34-.8l.41-.68c.05-.08.11-.15.18-.19.07-.04.17-.07.29-.07.11,0,.23.04.35.13s.26.18.43.27c.17.1.37.19.61.27s.54.12.9.12c.3,0,.56-.04.78-.11.22-.08.41-.18.55-.31.15-.13.26-.28.33-.45.07-.17.11-.34.11-.53,0-.24-.07-.44-.2-.6s-.31-.3-.53-.41c-.22-.11-.47-.21-.75-.3-.28-.08-.57-.17-.86-.27s-.58-.21-.86-.33-.53-.29-.75-.48c-.22-.19-.4-.43-.53-.7-.13-.28-.2-.61-.2-1.01,0-.35.07-.69.22-1.02.15-.32.36-.61.64-.85.28-.25.62-.44,1.03-.59s.88-.22,1.41-.22c.61,0,1.15.1,1.64.29.49.19.91.46,1.25.79l-.39.64Z" fill="#333e48" stroke-width="0"/><path d="m661.5,37.38c-.05.08-.1.13-.15.17-.05.03-.12.05-.21.05-.1,0-.2-.03-.32-.1-.12-.07-.26-.14-.42-.22s-.36-.15-.58-.22c-.22-.07-.49-.1-.79-.1-.25,0-.48.03-.69.09-.21.06-.38.15-.53.26-.14.11-.25.24-.33.4-.08.15-.12.32-.12.49,0,.23.07.42.2.57.13.15.31.28.53.39.22.11.47.21.75.29.28.09.56.18.85.27s.58.21.86.33c.28.12.53.28.75.46.22.18.4.4.53.66.14.26.2.57.2.95,0,.43-.08.82-.23,1.18-.15.36-.38.68-.67.94-.3.26-.67.47-1.1.62-.44.15-.94.22-1.5.22-.63,0-1.21-.1-1.75-.31-.53-.21-.98-.48-1.34-.8l.41-.68c.05-.08.11-.15.18-.19.07-.04.17-.07.29-.07.11,0,.23.04.35.13s.26.18.43.27c.17.1.37.19.61.27s.54.12.9.12c.3,0,.56-.04.78-.11.22-.08.41-.18.55-.31.15-.13.26-.28.33-.45.07-.17.11-.34.11-.53,0-.24-.07-.44-.2-.6s-.31-.3-.53-.41c-.22-.11-.47-.21-.75-.3-.28-.08-.57-.17-.86-.27s-.58-.21-.86-.33-.53-.29-.75-.48c-.22-.19-.4-.43-.53-.7-.13-.28-.2-.61-.2-1.01,0-.35.07-.69.22-1.02.15-.32.36-.61.64-.85.28-.25.62-.44,1.03-.59s.88-.22,1.41-.22c.61,0,1.15.1,1.64.29.49.19.91.46,1.25.79l-.39.64Z" fill="#333e48" stroke-width="0"/><path d="m675.52,34.13c-.06.1-.12.18-.19.23-.07.05-.15.07-.25.07s-.23-.05-.37-.15c-.14-.1-.31-.21-.52-.33-.21-.12-.45-.23-.74-.33-.29-.1-.63-.15-1.04-.15-.38,0-.71.05-.99.15-.29.1-.52.23-.72.41s-.34.37-.44.6c-.1.23-.15.48-.15.75,0,.35.09.64.27.86.18.23.41.42.7.58s.62.3.98.42c.37.12.74.25,1.12.37s.76.28,1.12.45c.37.17.69.38.98.63.29.26.52.57.7.94.18.37.26.82.26,1.35,0,.57-.1,1.1-.29,1.6-.2.5-.48.93-.85,1.31s-.83.66-1.37.88c-.54.21-1.16.32-1.85.32-.41,0-.82-.04-1.21-.12-.39-.08-.76-.2-1.11-.34-.35-.15-.67-.32-.98-.53s-.57-.44-.81-.7l.55-.92c.05-.07.12-.13.19-.18.08-.05.16-.07.26-.07.13,0,.27.07.44.2.17.13.37.28.61.44.24.16.53.3.87.44.34.13.75.2,1.24.2.4,0,.75-.05,1.06-.16.31-.1.58-.25.79-.45.21-.19.38-.43.49-.71.11-.28.17-.58.17-.92,0-.38-.09-.69-.26-.93-.17-.24-.41-.44-.69-.6s-.62-.3-.98-.41c-.37-.11-.74-.23-1.12-.36s-.76-.27-1.12-.43c-.37-.16-.69-.37-.98-.63-.29-.26-.52-.59-.69-.98-.17-.39-.26-.88-.26-1.45,0-.46.09-.91.27-1.34.18-.43.44-.81.79-1.15s.77-.6,1.27-.8,1.08-.3,1.73-.3c.73,0,1.39.12,2,.35.61.23,1.14.56,1.59,1l-.47.91Z" fill="#333e48" stroke-width="0"/><path d="m679.74,37.17c.19-.23.4-.44.62-.62.22-.19.45-.35.71-.49s.52-.24.81-.31.59-.11.91-.11c.52,0,.99.1,1.42.31s.78.5,1.08.9c.3.4.53.89.7,1.47s.25,1.25.25,2.01c0,.68-.09,1.31-.27,1.89-.18.58-.44,1.08-.78,1.51-.34.43-.75.76-1.24,1-.49.24-1.04.36-1.65.36-.55,0-1.01-.09-1.4-.27-.39-.18-.74-.43-1.04-.76v3.97h-1.75v-12.21h1.05c.25,0,.4.12.46.35l.15,1.02Zm.09,5.53c.29.38.6.64.93.79.33.15.71.22,1.12.22.8,0,1.43-.29,1.87-.87.44-.58.66-1.42.66-2.53,0-.58-.05-1.08-.15-1.49-.1-.41-.24-.75-.43-1.01-.19-.26-.42-.45-.7-.58-.28-.12-.59-.18-.94-.18-.51,0-.95.11-1.33.34-.38.23-.72.55-1.04.97v4.33Z" fill="#333e48" stroke-width="0"/><path d="m687.97,37.08c.51-.49,1.06-.85,1.66-1.09.6-.24,1.25-.36,1.97-.36.52,0,.98.09,1.39.26.4.17.74.41,1.02.72.28.31.48.67.62,1.1s.21.9.21,1.41v5.83h-.78c-.17,0-.31-.03-.4-.09-.09-.06-.16-.16-.22-.32l-.19-.8c-.23.22-.46.41-.69.57-.23.17-.47.31-.72.42-.25.12-.51.21-.8.27-.28.06-.59.09-.94.09s-.7-.05-1.01-.15c-.32-.1-.59-.25-.82-.45-.23-.2-.42-.46-.55-.76-.14-.31-.2-.66-.2-1.07,0-.36.1-.71.29-1.04.19-.33.51-.63.95-.9.44-.26,1.02-.48,1.73-.65s1.59-.26,2.62-.29v-.67c0-.69-.15-1.21-.44-1.55s-.73-.51-1.3-.51c-.38,0-.71.05-.97.14s-.49.2-.67.32c-.19.12-.35.22-.5.32-.14.1-.29.14-.44.14-.12,0-.22-.03-.31-.1-.09-.07-.16-.14-.21-.23l-.32-.57Zm5.15,3.81c-.71.02-1.32.08-1.82.17s-.9.2-1.21.35c-.31.14-.54.31-.67.51-.14.19-.21.41-.21.65,0,.23.04.42.11.59s.18.3.31.41c.13.11.28.18.46.23.17.05.36.07.57.07.27,0,.52-.03.74-.08.23-.05.44-.13.63-.23s.39-.22.57-.36c.18-.14.36-.31.53-.5v-1.8Z" fill="#333e48" stroke-width="0"/><path d="m703.6,37.52c-.05.07-.11.12-.16.16s-.12.06-.22.06-.2-.04-.3-.11c-.11-.08-.24-.16-.4-.24s-.35-.17-.58-.24c-.22-.08-.5-.11-.83-.11-.43,0-.81.08-1.14.23-.33.16-.6.38-.82.67s-.39.64-.5,1.05c-.11.41-.17.88-.17,1.39s.06,1.01.18,1.43.29.77.51,1.05.49.5.81.65c.32.15.67.22,1.06.22s.69-.05.94-.14c.25-.09.45-.19.61-.3.16-.11.3-.21.41-.3s.22-.14.33-.14c.14,0,.25.05.33.16l.5.65c-.21.26-.45.48-.71.66-.26.18-.54.33-.83.44s-.6.2-.92.25c-.32.05-.65.08-.98.08-.57,0-1.1-.11-1.6-.32s-.92-.52-1.29-.92c-.36-.4-.65-.9-.86-1.48-.21-.58-.32-1.25-.32-1.99,0-.68.09-1.3.28-1.88.19-.58.47-1.07.84-1.49.37-.42.82-.74,1.36-.98s1.16-.36,1.85-.36c.65,0,1.23.11,1.73.32s.94.51,1.33.89l-.47.65Z" fill="#333e48" stroke-width="0"/><path d="m713.15,43.65c-.22.25-.46.47-.75.65-.28.18-.58.33-.9.45s-.65.2-.99.25-.67.08-1,.08c-.63,0-1.21-.11-1.75-.32s-1-.53-1.4-.94c-.39-.41-.7-.92-.92-1.53-.22-.61-.33-1.31-.33-2.1,0-.64.1-1.23.3-1.78.2-.55.48-1.03.85-1.44s.82-.73,1.35-.96c.53-.23,1.13-.35,1.8-.35.56,0,1.07.09,1.54.27.47.18.88.45,1.22.8.34.35.61.78.8,1.29.2.51.29,1.09.29,1.75,0,.27-.03.45-.09.54-.06.09-.17.14-.33.14h-5.99c.02.55.1,1.02.23,1.43.14.4.33.74.57,1.01.24.27.53.47.87.6s.71.2,1.12.2c.39,0,.73-.04,1.01-.13.29-.09.53-.19.74-.29.21-.1.38-.2.52-.29.14-.09.27-.13.37-.13.14,0,.25.05.33.16l.5.65Zm-1.45-4.28c0-.35-.05-.67-.15-.96s-.25-.55-.44-.77c-.19-.22-.43-.38-.7-.5s-.59-.18-.95-.18c-.74,0-1.32.21-1.74.64-.42.43-.69,1.02-.81,1.77h4.79Z" fill="#333e48" stroke-width="0"/><path d="m339.84,300h-1.03l-3.72-9.54h-.57c-.13,0-.23-.01-.29-.04-.06-.03-.11-.07-.15-.13-.04-.06-.06-.13-.06-.2s.02-.14.06-.2c.04-.06.09-.11.15-.13.06-.03.16-.04.29-.04h2.75c.14,0,.24.01.29.04.06.03.1.07.14.13.04.06.06.13.06.2s-.02.14-.06.2c-.04.06-.09.11-.14.13-.06.03-.15.04-.29.04h-1.42l3.43,8.81h.05l3.38-8.81h-1.41c-.14,0-.24-.01-.3-.04-.06-.03-.11-.07-.15-.13-.04-.06-.06-.13-.06-.2s.02-.14.06-.2c.04-.06.09-.11.15-.13.05-.03.15-.04.29-.04h2.74c.14,0,.24.01.3.04.06.03.11.07.15.13.04.06.06.13.06.2s-.02.14-.06.2c-.04.06-.09.11-.15.13-.06.03-.15.04-.29.04h-.56l-3.66,9.54Z" fill="#333e48" stroke-width="0"/><path d="m350.46,290.46v8.81h1.92c.18,0,.3.03.38.1s.11.16.11.27c0,.11-.04.19-.11.26s-.2.11-.38.11h-4.58c-.18,0-.3-.04-.38-.11s-.11-.16-.11-.26c0-.11.04-.2.11-.27s.2-.1.38-.1h1.92v-8.81h-3.02v2.56c0,.18-.03.31-.1.39-.07.08-.16.11-.27.11-.11,0-.19-.04-.26-.11s-.11-.21-.11-.39v-3.3h8.27v3.3c0,.18-.03.31-.1.39s-.16.11-.27.11-.2-.04-.27-.11c-.07-.08-.1-.21-.1-.39v-2.56h-3.02Z" fill="#333e48" stroke-width="0"/><path d="m361.26,290.46v8.81h1.92c.18,0,.3.03.38.1s.11.16.11.27c0,.11-.04.19-.11.26s-.2.11-.38.11h-4.58c-.18,0-.3-.04-.38-.11s-.11-.16-.11-.26c0-.11.04-.2.11-.27s.2-.1.38-.1h1.92v-8.81h-3.02v2.56c0,.18-.03.31-.1.39-.07.08-.16.11-.27.11-.11,0-.19-.04-.26-.11s-.11-.21-.11-.39v-3.3h8.27v3.3c0,.18-.03.31-.1.39s-.16.11-.27.11-.2-.04-.27-.11c-.07-.08-.1-.21-.1-.39v-2.56h-3.02Z" fill="#333e48" stroke-width="0"/><path d="m368.55,299.26v-8.81h-.99c-.18,0-.3-.03-.38-.1-.08-.07-.11-.16-.11-.27s.04-.2.11-.27.2-.1.38-.1h4.64c.92,0,1.67.27,2.25.79.58.53.87,1.15.87,1.87,0,.9-.48,1.63-1.45,2.19.77.28,1.33.64,1.69,1.1s.54.96.54,1.51c0,.49-.12.94-.35,1.35-.23.41-.59.75-1.08,1.04-.48.29-1.01.43-1.58.43h-5.52c-.18,0-.3-.04-.38-.11s-.11-.16-.11-.26c0-.11.04-.2.11-.27s.2-.1.38-.1h.99Zm.74-4.97h2.61c.56,0,1.07-.1,1.53-.31.36-.16.64-.4.83-.71s.3-.63.3-.95c0-.46-.22-.89-.65-1.28-.43-.39-1-.58-1.7-.58h-2.93v3.83Zm0,4.97h3.74c.47,0,.89-.11,1.24-.32s.62-.47.8-.78.27-.63.27-.97c0-.38-.13-.74-.39-1.09-.26-.35-.62-.62-1.09-.8s-1.1-.27-1.92-.27h-2.65v4.23Z" fill="#333e48" stroke-width="0"/><path d="m380.1,295.41v3.85h1.36c.18,0,.31.03.39.1s.11.16.11.27c0,.11-.04.19-.11.26s-.21.11-.39.11h-3.09c-.18,0-.3-.04-.38-.11s-.11-.16-.11-.26c0-.11.04-.2.11-.27s.2-.1.38-.1h.99v-8.81h-.99c-.18,0-.3-.03-.38-.1-.08-.07-.11-.16-.11-.27s.04-.2.11-.27.2-.1.38-.1h4.46c.92,0,1.69.29,2.32.88s.95,1.24.95,1.97c0,.53-.2,1.02-.58,1.49-.39.46-1.04.85-1.96,1.16.53.36.98.77,1.35,1.23s.98,1.39,1.8,2.81h.56c.18,0,.3.03.38.1s.11.16.11.27c0,.11-.04.19-.11.26s-.2.11-.38.11h-.98c-.91-1.63-1.62-2.73-2.12-3.29-.5-.56-1.08-.99-1.73-1.3h-2.35Zm0-.74h2.01c.64,0,1.23-.12,1.75-.35.52-.23.9-.51,1.14-.83.24-.32.36-.64.36-.97,0-.49-.25-.96-.74-1.41-.5-.45-1.1-.67-1.81-.67h-2.72v4.22Z" fill="#333e48" stroke-width="0"/><path d="m398.21,304.93h-9.82c-.18,0-.3-.03-.38-.1-.08-.07-.11-.16-.11-.27s.04-.2.11-.27.2-.1.38-.1h9.82c.18,0,.31.03.38.1s.11.16.11.27-.04.2-.11.27c-.07.07-.2.1-.38.1Z" fill="#333e48" stroke-width="0"/><path d="m401.7,295.04v4.23h5.68v-2.18c0-.18.03-.3.1-.38s.16-.11.27-.11.2.04.27.11c.07.08.1.2.1.38v2.92h-8.15c-.18,0-.3-.04-.38-.11s-.11-.16-.11-.26c0-.11.04-.2.11-.27s.2-.1.38-.1h.99v-8.81h-.99c-.18,0-.3-.03-.38-.1-.08-.07-.11-.16-.11-.27s.04-.2.11-.27.2-.1.38-.1h7.76v2.54c0,.18-.03.3-.1.38-.07.08-.16.11-.27.11s-.2-.04-.27-.11-.1-.2-.1-.38v-1.8h-5.29v3.84h2.65v-.83c0-.18.04-.3.11-.38s.16-.11.27-.11c.11,0,.19.04.26.11s.11.2.11.38v2.41c0,.18-.04.3-.11.38s-.16.11-.26.11c-.11,0-.2-.04-.27-.11s-.11-.2-.11-.38v-.83h-2.65Z" fill="#333e48" stroke-width="0"/><path d="m413.63,290.46v8.81h4.9v-2.94c0-.18.04-.3.11-.38s.16-.11.27-.11c.11,0,.19.04.26.11.07.07.11.2.11.38v3.67h-8.16c-.18,0-.3-.04-.38-.11s-.11-.16-.11-.26c0-.11.04-.2.11-.27s.2-.1.38-.1h1.76v-8.81h-1.76c-.18,0-.3-.03-.38-.1-.08-.07-.11-.16-.11-.27s.04-.2.11-.27.2-.1.38-.1h4.26c.18,0,.3.03.38.1s.11.16.11.27-.04.2-.11.27c-.08.07-.2.1-.38.1h-1.76Z" fill="#333e48" stroke-width="0"/><path d="m422.53,299.26h5.67v-.29c0-.18.04-.3.11-.38s.16-.11.27-.11c.11,0,.19.04.26.11s.11.2.11.38v1.03h-7.14v-1.09c1.5-1.35,2.96-2.72,4.38-4.11.66-.65,1.12-1.13,1.36-1.43s.41-.57.51-.8c.09-.23.14-.46.14-.7,0-.63-.25-1.19-.76-1.68s-1.12-.73-1.85-.73c-.64,0-1.22.18-1.71.55s-.82.83-.97,1.37c-.04.14-.08.23-.13.27-.07.06-.15.09-.25.09-.1,0-.18-.03-.25-.1-.07-.07-.1-.15-.1-.24,0-.28.15-.66.46-1.14.31-.48.73-.86,1.28-1.13.54-.28,1.1-.41,1.67-.41.92,0,1.71.32,2.37.96s.99,1.36.99,2.17c0,.34-.06.65-.17.94s-.3.59-.57.93-.75.84-1.44,1.52c-1.73,1.71-3.15,3.04-4.24,3.98v.05Z" fill="#333e48" stroke-width="0"/><rect x="510" y="60" width="225" height="390.43" fill="#00c1de" stroke-width="0"/><rect x="525" y="210.43" width="195" height="30" fill="#fff" stroke-width="0"/><path d="m587.8,220.24c.83,0,1.55.1,2.16.29.61.19,1.12.46,1.52.81.4.35.7.78.9,1.27.19.5.29,1.05.29,1.66s-.11,1.16-.32,1.67-.52.94-.93,1.31-.92.65-1.53.85-1.31.3-2.1.3h-2v4.76h-1.92v-12.92h3.92Zm0,6.65c.49,0,.91-.06,1.28-.19.37-.13.68-.3.93-.54.25-.23.44-.51.56-.83.13-.32.19-.68.19-1.07,0-.79-.24-1.4-.73-1.85s-1.23-.67-2.23-.67h-2v5.15h2Z" fill="#333e48" stroke-width="0"/><path d="m601.46,231.86c-.22.25-.46.47-.75.65-.28.18-.58.33-.9.45s-.65.2-.99.25-.67.08-1,.08c-.63,0-1.21-.11-1.75-.32s-1-.53-1.4-.94c-.39-.41-.7-.92-.92-1.53-.22-.61-.33-1.31-.33-2.1,0-.64.1-1.23.3-1.78.2-.55.48-1.03.85-1.44s.82-.73,1.35-.96c.53-.23,1.13-.35,1.8-.35.56,0,1.07.09,1.54.27.47.18.88.45,1.22.8.34.35.61.78.8,1.29.2.51.29,1.09.29,1.75,0,.27-.03.45-.09.54-.06.09-.17.14-.33.14h-5.99c.02.55.1,1.02.23,1.43.14.4.33.74.57,1.01.24.27.53.47.87.6s.71.2,1.12.2c.39,0,.73-.04,1.01-.13.29-.09.53-.19.74-.29.21-.1.38-.2.52-.29.14-.09.27-.13.37-.13.14,0,.25.05.33.16l.5.65Zm-1.45-4.28c0-.35-.05-.67-.15-.96s-.25-.55-.44-.77c-.19-.22-.43-.38-.7-.5s-.59-.18-.95-.18c-.74,0-1.32.21-1.74.64-.42.43-.69,1.02-.81,1.77h4.79Z" fill="#333e48" stroke-width="0"/><path d="m605.14,225.77c.29-.6.65-1.07,1.06-1.41s.91-.51,1.49-.51c.2,0,.38.02.56.07.18.04.33.11.46.2l-.12,1.32c-.04.16-.14.24-.3.24-.08,0-.21-.02-.38-.05s-.35-.05-.54-.05c-.28,0-.53.04-.75.12-.22.08-.41.2-.58.36s-.32.35-.45.58c-.13.23-.26.49-.37.79v5.72h-1.75v-9.14h1.01c.19,0,.32.03.39.1s.12.19.15.36l.11,1.29Z" fill="#333e48" stroke-width="0"/><path d="m612.25,221.19c0,.16-.03.32-.1.46-.07.15-.15.28-.27.39s-.24.2-.39.26c-.15.06-.31.09-.47.09s-.31-.03-.46-.09c-.14-.06-.27-.15-.38-.26s-.2-.24-.26-.39c-.06-.15-.09-.3-.09-.46s.03-.33.09-.47c.06-.15.15-.28.26-.39.11-.11.24-.2.38-.26.14-.06.3-.09.46-.09s.32.03.47.09c.15.06.28.15.39.26.11.11.2.24.27.39.07.15.1.3.1.47Zm-.33,2.83v9.14h-1.75v-9.14h1.75Z" fill="#333e48" stroke-width="0"/><path d="m616.13,225.38c.19-.23.4-.44.62-.62.22-.19.45-.35.71-.49s.52-.24.81-.31.59-.11.91-.11c.52,0,.99.1,1.42.31s.78.5,1.08.9c.3.4.53.89.7,1.47s.25,1.25.25,2.01c0,.68-.09,1.31-.27,1.89-.18.58-.44,1.08-.78,1.51-.34.43-.75.76-1.24,1-.49.24-1.04.36-1.65.36-.55,0-1.01-.09-1.4-.27-.39-.18-.74-.43-1.04-.76v3.97h-1.75v-12.21h1.05c.25,0,.4.12.46.35l.15,1.02Zm.09,5.53c.29.38.6.64.93.79.33.15.71.22,1.12.22.8,0,1.43-.29,1.87-.87.44-.58.66-1.42.66-2.53,0-.58-.05-1.08-.15-1.49-.1-.41-.24-.75-.43-1.01-.19-.26-.42-.45-.7-.58-.28-.12-.59-.18-.94-.18-.51,0-.95.11-1.33.34-.38.23-.72.55-1.04.97v4.33Z" fill="#333e48" stroke-width="0"/><path d="m626.35,225.18c.38-.39.81-.7,1.27-.94s1-.36,1.61-.36c.5,0,.95.08,1.33.25s.7.4.96.71c.26.3.45.67.58,1.09.13.43.2.9.2,1.41v5.82h-1.76v-5.82c0-.65-.15-1.16-.45-1.53-.3-.36-.76-.54-1.38-.54-.45,0-.87.11-1.26.32-.39.21-.76.5-1.09.87v6.71h-1.75v-13.28h1.75v5.3Z" fill="#333e48" stroke-width="0"/><path d="m642.17,231.86c-.22.25-.46.47-.75.65-.28.18-.58.33-.9.45s-.65.2-.99.25-.67.08-1,.08c-.63,0-1.21-.11-1.75-.32s-1-.53-1.4-.94c-.39-.41-.7-.92-.92-1.53-.22-.61-.33-1.31-.33-2.1,0-.64.1-1.23.3-1.78.2-.55.48-1.03.85-1.44s.82-.73,1.35-.96c.53-.23,1.13-.35,1.8-.35.56,0,1.07.09,1.54.27.47.18.88.45,1.22.8.34.35.61.78.8,1.29.2.51.29,1.09.29,1.75,0,.27-.03.45-.09.54-.06.09-.17.14-.33.14h-5.99c.02.55.1,1.02.23,1.43.14.4.33.74.57,1.01.24.27.53.47.87.6s.71.2,1.12.2c.39,0,.73-.04,1.01-.13.29-.09.53-.19.74-.29.21-.1.38-.2.52-.29.14-.09.27-.13.37-.13.14,0,.25.05.33.16l.5.65Zm-1.45-4.28c0-.35-.05-.67-.15-.96s-.25-.55-.44-.77c-.19-.22-.43-.38-.7-.5s-.59-.18-.95-.18c-.74,0-1.32.21-1.74.64-.42.43-.69,1.02-.81,1.77h4.79Z" fill="#333e48" stroke-width="0"/><path d="m645.85,225.77c.29-.6.65-1.07,1.06-1.41s.91-.51,1.49-.51c.2,0,.38.02.56.07.18.04.33.11.46.2l-.12,1.32c-.04.16-.14.24-.3.24-.08,0-.21-.02-.38-.05s-.35-.05-.54-.05c-.28,0-.53.04-.75.12-.22.08-.41.2-.58.36s-.32.35-.45.58c-.13.23-.26.49-.37.79v5.72h-1.75v-9.14h1.01c.19,0,.32.03.39.1s.12.19.15.36l.11,1.29Z" fill="#333e48" stroke-width="0"/><path d="m650.41,225.29c.51-.49,1.06-.85,1.66-1.09.6-.24,1.25-.36,1.97-.36.52,0,.98.09,1.39.26.4.17.74.41,1.02.72.28.31.48.67.62,1.1s.21.9.21,1.41v5.83h-.78c-.17,0-.31-.03-.4-.09-.09-.06-.16-.16-.22-.32l-.19-.8c-.23.22-.46.41-.69.57-.23.17-.47.31-.72.42-.25.12-.51.21-.8.27-.28.06-.59.09-.94.09s-.7-.05-1.01-.15c-.32-.1-.59-.25-.82-.45-.23-.2-.42-.46-.55-.76-.14-.31-.2-.66-.2-1.07,0-.36.1-.71.29-1.04.19-.33.51-.63.95-.9.44-.26,1.02-.48,1.73-.65s1.59-.26,2.62-.29v-.67c0-.69-.15-1.21-.44-1.55s-.73-.51-1.3-.51c-.38,0-.71.05-.97.14s-.49.2-.67.32c-.19.12-.35.22-.5.32-.14.1-.29.14-.44.14-.12,0-.22-.03-.31-.1-.09-.07-.16-.14-.21-.23l-.32-.57Zm5.15,3.81c-.71.02-1.32.08-1.82.17s-.9.2-1.21.35c-.31.14-.54.31-.67.51-.14.19-.21.41-.21.65,0,.23.04.42.11.59s.18.3.31.41c.13.11.28.18.46.23.17.05.36.07.57.07.27,0,.52-.03.74-.08.23-.05.44-.13.63-.23s.39-.22.57-.36c.18-.14.36-.31.53-.5v-1.8Z" fill="#333e48" stroke-width="0"/><path d="m661.44,219.88v13.28h-1.76v-13.28h1.76Z" fill="#333e48" stroke-width="0"/><rect x="525" y="255.43" width="195" height="30" fill="#fff" stroke-width="0"/><path d="m587.8,265.24c.83,0,1.55.1,2.16.29.61.19,1.12.46,1.52.81.4.35.7.78.9,1.27.19.5.29,1.05.29,1.66s-.11,1.16-.32,1.67-.52.94-.93,1.31-.92.65-1.53.85-1.31.3-2.1.3h-2v4.76h-1.92v-12.92h3.92Zm0,6.65c.49,0,.91-.06,1.28-.19.37-.13.68-.3.93-.54.25-.23.44-.51.56-.83.13-.32.19-.68.19-1.07,0-.79-.24-1.4-.73-1.85s-1.23-.67-2.23-.67h-2v5.15h2Z" fill="#333e48" stroke-width="0"/><path d="m601.46,276.86c-.22.25-.46.47-.75.65-.28.18-.58.33-.9.45s-.65.2-.99.25-.67.08-1,.08c-.63,0-1.21-.11-1.75-.32s-1-.53-1.4-.94c-.39-.41-.7-.92-.92-1.53-.22-.61-.33-1.31-.33-2.1,0-.64.1-1.23.3-1.78.2-.55.48-1.03.85-1.44s.82-.73,1.35-.96c.53-.23,1.13-.35,1.8-.35.56,0,1.07.09,1.54.27.47.18.88.45,1.22.8.34.35.61.78.8,1.29.2.51.29,1.09.29,1.75,0,.27-.03.45-.09.54-.06.09-.17.14-.33.14h-5.99c.02.55.1,1.02.23,1.43.14.4.33.74.57,1.01.24.27.53.47.87.6s.71.2,1.12.2c.39,0,.73-.04,1.01-.13.29-.09.53-.19.74-.29.21-.1.38-.2.52-.29.14-.09.27-.13.37-.13.14,0,.25.05.33.16l.5.65Zm-1.45-4.28c0-.35-.05-.67-.15-.96s-.25-.55-.44-.77c-.19-.22-.43-.38-.7-.5s-.59-.18-.95-.18c-.74,0-1.32.21-1.74.64-.42.43-.69,1.02-.81,1.77h4.79Z" fill="#333e48" stroke-width="0"/><path d="m605.14,270.77c.29-.6.65-1.07,1.06-1.41s.91-.51,1.49-.51c.2,0,.38.02.56.07.18.04.33.11.46.2l-.12,1.32c-.04.16-.14.24-.3.24-.08,0-.21-.02-.38-.05s-.35-.05-.54-.05c-.28,0-.53.04-.75.12-.22.08-.41.2-.58.36s-.32.35-.45.58c-.13.23-.26.49-.37.79v5.72h-1.75v-9.14h1.01c.19,0,.32.03.39.1s.12.19.15.36l.11,1.29Z" fill="#333e48" stroke-width="0"/><path d="m612.25,266.19c0,.16-.03.32-.1.46-.07.15-.15.28-.27.39s-.24.2-.39.26c-.15.06-.31.09-.47.09s-.31-.03-.46-.09c-.14-.06-.27-.15-.38-.26s-.2-.24-.26-.39c-.06-.15-.09-.3-.09-.46s.03-.33.09-.47c.06-.15.15-.28.26-.39.11-.11.24-.2.38-.26.14-.06.3-.09.46-.09s.32.03.47.09c.15.06.28.15.39.26.11.11.2.24.27.39.07.15.1.3.1.47Zm-.33,2.83v9.14h-1.75v-9.14h1.75Z" fill="#333e48" stroke-width="0"/><path d="m616.13,270.38c.19-.23.4-.44.62-.62.22-.19.45-.35.71-.49s.52-.24.81-.31.59-.11.91-.11c.52,0,.99.1,1.42.31s.78.5,1.08.9c.3.4.53.89.7,1.47s.25,1.25.25,2.01c0,.68-.09,1.31-.27,1.89-.18.58-.44,1.08-.78,1.51-.34.43-.75.76-1.24,1-.49.24-1.04.36-1.65.36-.55,0-1.01-.09-1.4-.27-.39-.18-.74-.43-1.04-.76v3.97h-1.75v-12.21h1.05c.25,0,.4.12.46.35l.15,1.02Zm.09,5.53c.29.38.6.64.93.79.33.15.71.22,1.12.22.8,0,1.43-.29,1.87-.87.44-.58.66-1.42.66-2.53,0-.58-.05-1.08-.15-1.49-.1-.41-.24-.75-.43-1.01-.19-.26-.42-.45-.7-.58-.28-.12-.59-.18-.94-.18-.51,0-.95.11-1.33.34-.38.23-.72.55-1.04.97v4.33Z" fill="#333e48" stroke-width="0"/><path d="m626.35,270.18c.38-.39.81-.7,1.27-.94s1-.36,1.61-.36c.5,0,.95.08,1.33.25s.7.4.96.71c.26.3.45.67.58,1.09.13.43.2.9.2,1.41v5.82h-1.76v-5.82c0-.65-.15-1.16-.45-1.53-.3-.36-.76-.54-1.38-.54-.45,0-.87.11-1.26.32-.39.21-.76.5-1.09.87v6.71h-1.75v-13.28h1.75v5.3Z" fill="#333e48" stroke-width="0"/><path d="m642.17,276.86c-.22.25-.46.47-.75.65-.28.18-.58.33-.9.45s-.65.2-.99.25-.67.08-1,.08c-.63,0-1.21-.11-1.75-.32s-1-.53-1.4-.94c-.39-.41-.7-.92-.92-1.53-.22-.61-.33-1.31-.33-2.1,0-.64.1-1.23.3-1.78.2-.55.48-1.03.85-1.44s.82-.73,1.35-.96c.53-.23,1.13-.35,1.8-.35.56,0,1.07.09,1.54.27.47.18.88.45,1.22.8.34.35.61.78.8,1.29.2.51.29,1.09.29,1.75,0,.27-.03.45-.09.54-.06.09-.17.14-.33.14h-5.99c.02.55.1,1.02.23,1.43.14.4.33.74.57,1.01.24.27.53.47.87.6s.71.2,1.12.2c.39,0,.73-.04,1.01-.13.29-.09.53-.19.74-.29.21-.1.38-.2.52-.29.14-.09.27-.13.37-.13.14,0,.25.05.33.16l.5.65Zm-1.45-4.28c0-.35-.05-.67-.15-.96s-.25-.55-.44-.77c-.19-.22-.43-.38-.7-.5s-.59-.18-.95-.18c-.74,0-1.32.21-1.74.64-.42.43-.69,1.02-.81,1.77h4.79Z" fill="#333e48" stroke-width="0"/><path d="m645.85,270.77c.29-.6.65-1.07,1.06-1.41s.91-.51,1.49-.51c.2,0,.38.02.56.07.18.04.33.11.46.2l-.12,1.32c-.04.16-.14.24-.3.24-.08,0-.21-.02-.38-.05s-.35-.05-.54-.05c-.28,0-.53.04-.75.12-.22.08-.41.2-.58.36s-.32.35-.45.58c-.13.23-.26.49-.37.79v5.72h-1.75v-9.14h1.01c.19,0,.32.03.39.1s.12.19.15.36l.11,1.29Z" fill="#333e48" stroke-width="0"/><path d="m650.41,270.29c.51-.49,1.06-.85,1.66-1.09.6-.24,1.25-.36,1.97-.36.52,0,.98.09,1.39.26.4.17.74.41,1.02.72.28.31.48.67.62,1.1s.21.9.21,1.41v5.83h-.78c-.17,0-.31-.03-.4-.09-.09-.06-.16-.16-.22-.32l-.19-.8c-.23.22-.46.41-.69.57-.23.17-.47.31-.72.42-.25.12-.51.21-.8.27-.28.06-.59.09-.94.09s-.7-.05-1.01-.15c-.32-.1-.59-.25-.82-.45-.23-.2-.42-.46-.55-.76-.14-.31-.2-.66-.2-1.07,0-.36.1-.71.29-1.04.19-.33.51-.63.95-.9.44-.26,1.02-.48,1.73-.65s1.59-.26,2.62-.29v-.67c0-.69-.15-1.21-.44-1.55s-.73-.51-1.3-.51c-.38,0-.71.05-.97.14s-.49.2-.67.32c-.19.12-.35.22-.5.32-.14.1-.29.14-.44.14-.12,0-.22-.03-.31-.1-.09-.07-.16-.14-.21-.23l-.32-.57Zm5.15,3.81c-.71.02-1.32.08-1.82.17s-.9.2-1.21.35c-.31.14-.54.31-.67.51-.14.19-.21.41-.21.65,0,.23.04.42.11.59s.18.3.31.41c.13.11.28.18.46.23.17.05.36.07.57.07.27,0,.52-.03.74-.08.23-.05.44-.13.63-.23s.39-.22.57-.36c.18-.14.36-.31.53-.5v-1.8Z" fill="#333e48" stroke-width="0"/><path d="m661.44,264.88v13.28h-1.76v-13.28h1.76Z" fill="#333e48" stroke-width="0"/><rect x="525" y="300.43" width="195" height="45" fill="#fff" stroke-width="0"/><path d="m605.41,319.29v4.33h5.18v1.56h-5.18v5.48h-1.93v-12.92h8.01v1.56h-6.08Z" fill="#333e48" stroke-width="0"/><path d="m614.95,317.38v13.28h-1.76v-13.28h1.76Z" fill="#333e48" stroke-width="0"/><path d="m617.22,322.79c.51-.49,1.06-.85,1.66-1.09.6-.24,1.25-.36,1.97-.36.52,0,.98.09,1.39.26.4.17.74.41,1.02.72.28.31.48.67.62,1.1s.21.9.21,1.41v5.83h-.78c-.17,0-.31-.03-.4-.09-.09-.06-.16-.16-.22-.32l-.19-.8c-.23.22-.46.41-.69.57-.23.17-.47.31-.72.42-.25.12-.51.21-.8.27-.28.06-.59.09-.94.09s-.7-.05-1.01-.15c-.32-.1-.59-.25-.82-.45-.23-.2-.42-.46-.55-.76-.14-.31-.2-.66-.2-1.07,0-.36.1-.71.29-1.04.19-.33.51-.63.95-.9.44-.26,1.02-.48,1.73-.65s1.59-.26,2.62-.29v-.67c0-.69-.15-1.21-.44-1.55s-.73-.51-1.3-.51c-.38,0-.71.05-.97.14s-.49.2-.67.32c-.19.12-.35.22-.5.32-.14.1-.29.14-.44.14-.12,0-.22-.03-.31-.1-.09-.07-.16-.14-.21-.23l-.32-.57Zm5.15,3.81c-.71.02-1.32.08-1.82.17s-.9.2-1.21.35c-.31.14-.54.31-.67.51-.14.19-.21.41-.21.65,0,.23.04.42.11.59s.18.3.31.41c.13.11.28.18.46.23.17.05.36.07.57.07.27,0,.52-.03.74-.08.23-.05.44-.13.63-.23s.39-.22.57-.36c.18-.14.36-.31.53-.5v-1.8Z" fill="#333e48" stroke-width="0"/><path d="m631.84,323.09c-.05.08-.1.13-.15.17-.05.03-.12.05-.21.05-.1,0-.2-.03-.32-.1-.12-.07-.26-.14-.42-.22s-.36-.15-.58-.22c-.22-.07-.49-.1-.79-.1-.25,0-.48.03-.69.09-.21.06-.38.15-.53.26-.14.11-.25.24-.33.4-.08.15-.12.32-.12.49,0,.23.07.42.2.57.13.15.31.28.53.39.22.11.47.21.75.29.28.09.56.18.85.27s.58.21.86.33c.28.12.53.28.75.46.22.18.4.4.53.66.14.26.2.57.2.95,0,.43-.08.82-.23,1.18-.15.36-.38.68-.67.94-.3.26-.67.47-1.1.62-.44.15-.94.22-1.5.22-.63,0-1.21-.1-1.75-.31-.53-.21-.98-.48-1.34-.8l.41-.68c.05-.08.11-.15.18-.19.07-.04.17-.07.29-.07.11,0,.23.04.35.13s.26.18.43.27c.17.1.37.19.61.27s.54.12.9.12c.3,0,.56-.04.78-.11.22-.08.41-.18.55-.31.15-.13.26-.28.33-.45.07-.17.11-.34.11-.53,0-.24-.07-.44-.2-.6s-.31-.3-.53-.41c-.22-.11-.47-.21-.75-.3-.28-.08-.57-.17-.86-.27s-.58-.21-.86-.33-.53-.29-.75-.48c-.22-.19-.4-.43-.53-.7-.13-.28-.2-.61-.2-1.01,0-.35.07-.69.22-1.02.15-.32.36-.61.64-.85.28-.25.62-.44,1.03-.59s.88-.22,1.41-.22c.61,0,1.15.1,1.64.29.49.19.91.46,1.25.79l-.39.64Z" fill="#333e48" stroke-width="0"/><path d="m636.02,322.68c.38-.39.81-.7,1.27-.94s1-.36,1.61-.36c.5,0,.95.08,1.33.25s.7.4.96.71c.26.3.45.67.58,1.09.13.43.2.9.2,1.41v5.82h-1.76v-5.82c0-.65-.15-1.16-.45-1.53-.3-.36-.76-.54-1.38-.54-.45,0-.87.11-1.26.32-.39.21-.76.5-1.09.87v6.71h-1.75v-13.28h1.75v5.3Z" fill="#333e48" stroke-width="0"/><rect x="525" y="360.43" width="195" height="30" fill="#fff" stroke-width="0"/><path d="m605.68,372.34c-.06.1-.12.18-.19.23-.07.05-.15.07-.25.07s-.23-.05-.37-.15c-.14-.1-.31-.21-.52-.33-.21-.12-.45-.23-.74-.33-.29-.1-.63-.15-1.04-.15-.38,0-.71.05-.99.15-.29.1-.52.23-.72.41s-.34.37-.44.6c-.1.23-.15.48-.15.75,0,.35.09.64.27.86.18.23.41.42.7.58s.62.3.98.42c.37.12.74.25,1.12.37s.76.28,1.12.45c.37.17.69.38.98.63.29.26.52.57.7.94.18.37.26.82.26,1.35,0,.57-.1,1.1-.29,1.6-.2.5-.48.93-.85,1.31s-.83.66-1.37.88c-.54.21-1.16.32-1.85.32-.41,0-.82-.04-1.21-.12-.39-.08-.76-.2-1.11-.34-.35-.15-.67-.32-.98-.53s-.57-.44-.81-.7l.55-.92c.05-.07.12-.13.19-.18.08-.05.16-.07.26-.07.13,0,.27.07.44.2.17.13.37.28.61.44.24.16.53.3.87.44.34.13.75.2,1.24.2.4,0,.75-.05,1.06-.16.31-.1.58-.25.79-.45.21-.19.38-.43.49-.71.11-.28.17-.58.17-.92,0-.38-.09-.69-.26-.93-.17-.24-.41-.44-.69-.6s-.62-.3-.98-.41c-.37-.11-.74-.23-1.12-.36s-.76-.27-1.12-.43c-.37-.16-.69-.37-.98-.63-.29-.26-.52-.59-.69-.98-.17-.39-.26-.88-.26-1.45,0-.46.09-.91.27-1.34.18-.43.44-.81.79-1.15s.77-.6,1.27-.8,1.08-.3,1.73-.3c.73,0,1.39.12,2,.35.61.23,1.14.56,1.59,1l-.47.91Z" fill="#333e48" stroke-width="0"/><path d="m618.48,383.16h-1.71c-.34,0-.59-.13-.75-.41l-3.2-4.48c-.1-.15-.21-.26-.33-.32-.12-.06-.3-.09-.54-.09h-1.25v5.3h-1.92v-12.92h3.73c.83,0,1.55.08,2.16.26.6.17,1.1.41,1.49.73.39.32.68.69.87,1.14.19.44.28.94.28,1.49,0,.45-.07.87-.21,1.27-.14.4-.34.75-.61,1.07-.27.32-.59.59-.98.81-.38.23-.82.4-1.3.52.24.14.45.34.62.6l3.64,5.03Zm-6.03-6.7c.49,0,.93-.06,1.3-.18s.69-.29.94-.51c.25-.22.44-.48.57-.78.13-.3.19-.64.19-1,0-.74-.24-1.3-.73-1.68-.49-.38-1.22-.57-2.2-.57h-1.81v4.72h1.75Z" fill="#333e48" stroke-width="0"/><path d="m630.79,383.16h-1.48c-.17,0-.31-.04-.41-.13-.11-.08-.19-.19-.23-.32l-1.14-3h-5.7l-1.14,3c-.04.11-.12.22-.23.31-.11.09-.25.14-.41.14h-1.48l5.15-12.92h1.93l5.15,12.92Zm-3.79-4.82l-1.92-5.01c-.14-.34-.28-.77-.41-1.3-.07.26-.13.5-.2.72-.07.22-.14.42-.2.59l-1.91,4.99h4.64Z" fill="#333e48" stroke-width="0"/><path d="m645.99,370.24v12.92h-1.67v-9.2c0-.14,0-.28.01-.44s.02-.32.03-.48l-4.3,7.89c-.15.29-.38.44-.69.44h-.27c-.31,0-.54-.15-.68-.44l-4.38-7.92c.04.34.05.65.05.94v9.2h-1.68v-12.92h1.42c.17,0,.3.02.39.05.09.03.18.12.27.27l4.32,7.74c.08.16.16.32.23.5.07.17.14.35.21.52.13-.35.27-.7.44-1.03l4.24-7.73c.08-.15.16-.24.26-.27.09-.03.22-.05.39-.05h1.42Z" fill="#333e48" stroke-width="0"/><rect x="525" y="405.43" width="195" height="30" fill="#fff" stroke-width="0"/><path d="m612.57,428.16h-1.71c-.34,0-.59-.13-.75-.41l-3.2-4.48c-.1-.15-.21-.26-.33-.32-.12-.06-.3-.09-.54-.09h-1.25v5.3h-1.92v-12.92h3.73c.83,0,1.55.08,2.16.26.6.17,1.1.41,1.49.73.39.32.68.69.87,1.14.19.44.28.94.28,1.49,0,.45-.07.87-.21,1.27-.14.4-.34.75-.61,1.07-.27.32-.59.59-.98.81-.38.23-.82.4-1.3.52.24.14.45.34.62.6l3.64,5.03Zm-6.03-6.7c.49,0,.93-.06,1.3-.18s.69-.29.94-.51c.25-.22.44-.48.57-.78.13-.3.19-.64.19-1,0-.74-.24-1.3-.73-1.68-.49-.38-1.22-.57-2.2-.57h-1.81v4.72h1.75Z" fill="#333e48" stroke-width="0"/><path d="m626.12,421.7c0,.97-.15,1.85-.46,2.66-.31.81-.75,1.5-1.31,2.09-.56.58-1.24,1.04-2.03,1.36-.79.32-1.66.49-2.62.49s-1.83-.16-2.61-.49c-.79-.32-1.46-.78-2.03-1.36-.56-.58-1-1.28-1.31-2.09-.31-.81-.47-1.69-.47-2.66s.16-1.84.47-2.66c.31-.81.75-1.51,1.31-2.09.56-.58,1.24-1.04,2.03-1.37s1.66-.49,2.61-.49,1.83.16,2.62.49,1.46.78,2.03,1.37c.56.59,1,1.28,1.31,2.09.31.81.46,1.7.46,2.66Zm-1.96,0c0-.77-.1-1.46-.31-2.07-.21-.61-.51-1.13-.9-1.56-.39-.43-.86-.75-1.4-.98-.55-.23-1.16-.34-1.84-.34s-1.29.11-1.84.34c-.55.23-1.02.56-1.41.98-.39.43-.69.95-.9,1.56-.21.61-.32,1.3-.32,2.07s.11,1.47.32,2.07c.21.61.51,1.13.9,1.55.39.43.86.75,1.41.98.55.22,1.16.34,1.84.34s1.29-.11,1.84-.34c.55-.23,1.02-.55,1.4-.98.39-.43.68-.94.9-1.55.21-.61.31-1.3.31-2.07Z" fill="#333e48" stroke-width="0"/><path d="m642.11,415.24v12.92h-1.67v-9.2c0-.14,0-.28.01-.44s.02-.32.03-.48l-4.3,7.89c-.15.29-.38.44-.69.44h-.27c-.31,0-.54-.15-.68-.44l-4.38-7.92c.04.34.05.65.05.94v9.2h-1.68v-12.92h1.42c.17,0,.3.02.39.05.09.03.18.12.27.27l4.32,7.74c.08.16.16.32.23.5.07.17.14.35.21.52.13-.35.27-.7.44-1.03l4.24-7.73c.08-.15.16-.24.26-.27.09-.03.22-.05.39-.05h1.42Z" fill="#333e48" stroke-width="0"/><rect x="525" y="75.43" width="195" height="120" fill="#fff" stroke-width="0"/><path d="m616.01,136.7c0,.97-.15,1.84-.46,2.64-.31.79-.75,1.47-1.31,2.04-.56.57-1.24,1.01-2.02,1.32-.79.31-1.66.47-2.62.47h-4.86v-12.92h4.86c.96,0,1.83.16,2.62.47.79.31,1.46.75,2.02,1.32.56.57,1,1.25,1.31,2.04.31.79.46,1.67.46,2.63Zm-1.96,0c0-.77-.11-1.46-.32-2.07s-.51-1.12-.9-1.55c-.39-.42-.85-.75-1.4-.97-.55-.22-1.16-.33-1.84-.33h-2.93v9.83h2.93c.68,0,1.29-.11,1.84-.33.55-.22,1.02-.54,1.4-.97.39-.42.69-.94.9-1.54.21-.61.32-1.3.32-2.07Z" fill="#333e48" stroke-width="0"/><path d="m629.7,136.7c0,.97-.15,1.84-.46,2.64-.31.79-.75,1.47-1.31,2.04-.56.57-1.24,1.01-2.02,1.32-.79.31-1.66.47-2.62.47h-4.86v-12.92h4.86c.96,0,1.83.16,2.62.47.79.31,1.46.75,2.02,1.32.56.57,1,1.25,1.31,2.04.31.79.46,1.67.46,2.63Zm-1.96,0c0-.77-.11-1.46-.32-2.07s-.51-1.12-.9-1.55c-.39-.42-.85-.75-1.4-.97-.55-.22-1.16-.33-1.84-.33h-2.93v9.83h2.93c.68,0,1.29-.11,1.84-.33.55-.22,1.02-.54,1.4-.97.39-.42.69-.94.9-1.54.21-.61.32-1.3.32-2.07Z" fill="#333e48" stroke-width="0"/><path d="m641.8,143.16h-1.71c-.34,0-.59-.13-.75-.41l-3.2-4.48c-.1-.15-.21-.26-.33-.32-.12-.06-.3-.09-.54-.09h-1.25v5.3h-1.92v-12.92h3.73c.83,0,1.55.08,2.16.26.6.17,1.1.41,1.49.73.39.32.68.69.87,1.14.19.44.28.94.28,1.49,0,.45-.07.87-.21,1.27-.14.4-.34.75-.61,1.07-.27.32-.59.59-.98.81-.38.23-.82.4-1.3.52.24.14.45.34.62.6l3.64,5.03Zm-6.03-6.7c.49,0,.93-.06,1.3-.18s.69-.29.94-.51c.25-.22.44-.48.57-.78.13-.3.19-.64.19-1,0-.74-.24-1.3-.73-1.68-.49-.38-1.22-.57-2.2-.57h-1.81v4.72h1.75Z" fill="#333e48" stroke-width="0"/><rect x="315" y="180" width="135" height="30" fill="none" stroke="#333e48" stroke-miterlimit="10"/><path d="m377.07,195c0-.16.03-.32.09-.46.06-.14.14-.27.25-.38.11-.11.23-.19.37-.26.14-.06.3-.09.47-.09s.32.03.46.09c.14.06.27.15.38.26.11.11.19.23.26.38.06.14.09.3.09.46s-.03.32-.09.47c-.06.14-.15.27-.26.38s-.23.19-.38.25-.3.09-.46.09-.32-.03-.47-.09c-.14-.06-.27-.14-.37-.25-.1-.11-.19-.23-.25-.38-.06-.14-.09-.3-.09-.47Z" fill="#333e48" stroke-width="0"/><path d="m381.32,195c0-.16.03-.32.09-.46.06-.14.14-.27.25-.38.11-.11.23-.19.37-.26.14-.06.3-.09.47-.09s.32.03.46.09c.14.06.27.15.38.26.11.11.19.23.26.38.06.14.09.3.09.46s-.03.32-.09.47c-.06.14-.15.27-.26.38s-.23.19-.38.25-.3.09-.46.09-.32-.03-.47-.09c-.14-.06-.27-.14-.37-.25-.1-.11-.19-.23-.25-.38-.06-.14-.09-.3-.09-.47Z" fill="#333e48" stroke-width="0"/><path d="m385.57,195c0-.16.03-.32.09-.46.06-.14.14-.27.25-.38.11-.11.23-.19.37-.26.14-.06.3-.09.47-.09s.32.03.46.09c.14.06.27.15.38.26.11.11.19.23.26.38.06.14.09.3.09.46s-.03.32-.09.47c-.06.14-.15.27-.26.38s-.23.19-.38.25-.3.09-.46.09-.32-.03-.47-.09c-.14-.06-.27-.14-.37-.25-.1-.11-.19-.23-.25-.38-.06-.14-.09-.3-.09-.47Z" fill="#333e48" stroke-width="0"/><rect x="315" y="210" width="135" height="30" fill="none" stroke="#333e48" stroke-miterlimit="10"/><path d="m366.62,221.79v4.33h5.18v1.56h-5.18v5.48h-1.93v-12.92h8.01v1.56h-6.08Z" fill="#333e48" stroke-width="0"/><path d="m373.02,225.29c.51-.49,1.06-.85,1.66-1.09.6-.24,1.25-.36,1.97-.36.52,0,.98.09,1.39.26.4.17.74.41,1.02.72.28.31.48.67.62,1.1s.21.9.21,1.41v5.83h-.78c-.17,0-.31-.03-.4-.09-.09-.06-.16-.16-.22-.32l-.19-.8c-.23.22-.46.41-.69.57-.23.17-.47.31-.72.42-.25.12-.51.21-.8.27-.28.06-.59.09-.94.09s-.7-.05-1.01-.15c-.32-.1-.59-.25-.82-.45-.23-.2-.42-.46-.55-.76-.14-.31-.2-.66-.2-1.07,0-.36.1-.71.29-1.04.19-.33.51-.63.95-.9.44-.26,1.02-.48,1.73-.65s1.59-.26,2.62-.29v-.67c0-.69-.15-1.21-.44-1.55s-.73-.51-1.3-.51c-.38,0-.71.05-.97.14s-.49.2-.67.32c-.19.12-.35.22-.5.32-.14.1-.29.14-.44.14-.12,0-.22-.03-.31-.1-.09-.07-.16-.14-.21-.23l-.32-.57Zm5.15,3.81c-.71.02-1.32.08-1.82.17s-.9.2-1.21.35c-.31.14-.54.31-.67.51-.14.19-.21.41-.21.65,0,.23.04.42.11.59s.18.3.31.41c.13.11.28.18.46.23.17.05.36.07.57.07.27,0,.52-.03.74-.08.23-.05.44-.13.63-.23s.39-.22.57-.36c.18-.14.36-.31.53-.5v-1.8Z" fill="#333e48" stroke-width="0"/><path d="m389.85,224.02v9.14h-1.05c-.24,0-.4-.12-.47-.35l-.13-.92c-.2.21-.41.4-.62.58-.22.17-.45.32-.69.45s-.51.22-.78.29c-.28.07-.57.1-.89.1-.5,0-.95-.08-1.33-.25-.38-.17-.7-.4-.96-.71s-.45-.67-.58-1.09c-.13-.43-.2-.9-.2-1.41v-5.82h1.76v5.82c0,.65.15,1.16.45,1.53.3.36.76.54,1.38.54.45,0,.87-.11,1.26-.32.39-.21.76-.51,1.1-.88v-6.7h1.75Z" fill="#333e48" stroke-width="0"/><path d="m394.11,219.88v13.28h-1.76v-13.28h1.76Z" fill="#333e48" stroke-width="0"/><path d="m399.47,233.3c-.74,0-1.31-.21-1.71-.62-.4-.41-.6-1-.6-1.77v-5.47h-1.06c-.1,0-.19-.03-.26-.09-.07-.06-.1-.16-.1-.28v-.71l1.48-.21.4-2.73c.02-.1.07-.18.14-.24.07-.06.16-.09.27-.09h.89v3.07h2.59v1.28h-2.59v5.35c0,.36.09.63.27.81s.4.27.68.27c.16,0,.3-.02.42-.06.12-.04.22-.09.3-.14.08-.05.16-.1.22-.14.06-.04.11-.06.16-.06.06,0,.11.01.14.04.03.03.07.07.1.13l.52.85c-.29.26-.63.47-1.03.61-.4.14-.81.22-1.23.22Z" fill="#333e48" stroke-width="0"/><rect x="315" y="240" width="135" height="30" fill="none" stroke="#333e48" stroke-miterlimit="10"/><path d="m377.07,255c0-.16.03-.32.09-.46.06-.14.14-.27.25-.38.11-.11.23-.19.37-.26.14-.06.3-.09.47-.09s.32.03.46.09c.14.06.27.15.38.26.11.11.19.23.26.38.06.14.09.3.09.46s-.03.32-.09.47c-.06.14-.15.27-.26.38s-.23.19-.38.25-.3.09-.46.09-.32-.03-.47-.09c-.14-.06-.27-.14-.37-.25-.1-.11-.19-.23-.25-.38-.06-.14-.09-.3-.09-.47Z" fill="#333e48" stroke-width="0"/><path d="m381.32,255c0-.16.03-.32.09-.46.06-.14.14-.27.25-.38.11-.11.23-.19.37-.26.14-.06.3-.09.47-.09s.32.03.46.09c.14.06.27.15.38.26.11.11.19.23.26.38.06.14.09.3.09.46s-.03.32-.09.47c-.06.14-.15.27-.26.38s-.23.19-.38.25-.3.09-.46.09-.32-.03-.47-.09c-.14-.06-.27-.14-.37-.25-.1-.11-.19-.23-.25-.38-.06-.14-.09-.3-.09-.47Z" fill="#333e48" stroke-width="0"/><path d="m385.56,255c0-.16.03-.32.09-.46.06-.14.14-.27.25-.38.11-.11.23-.19.37-.26.14-.06.3-.09.47-.09s.32.03.46.09c.14.06.27.15.38.26.11.11.19.23.26.38.06.14.09.3.09.46s-.03.32-.09.47c-.06.14-.15.27-.26.38s-.23.19-.38.25-.3.09-.46.09-.32-.03-.47-.09c-.14-.06-.27-.14-.37-.25-.1-.11-.19-.23-.25-.38-.06-.14-.09-.3-.09-.47Z" fill="#333e48" stroke-width="0"/><rect x="315" y="150" width="135" height="30" fill="none" stroke="#333e48" stroke-miterlimit="10"/><path d="m377.18,160.24c.83,0,1.55.1,2.16.29.61.19,1.12.46,1.52.81.4.35.7.78.9,1.27.19.5.29,1.05.29,1.66s-.11,1.16-.32,1.67-.52.94-.93,1.31-.92.65-1.53.85-1.31.3-2.1.3h-2v4.76h-1.92v-12.92h3.92Zm0,6.65c.49,0,.91-.06,1.28-.19.37-.13.68-.3.93-.54.25-.23.44-.51.56-.83.13-.32.19-.68.19-1.07,0-.79-.24-1.4-.73-1.85s-1.23-.67-2.23-.67h-2v5.15h2Z" fill="#333e48" stroke-width="0"/><path d="m393.91,173.16h-1.48c-.17,0-.31-.04-.41-.13-.11-.08-.19-.19-.23-.32l-1.14-3h-5.7l-1.14,3c-.04.11-.12.22-.23.31-.11.09-.25.14-.41.14h-1.48l5.15-12.92h1.93l5.15,12.92Zm-3.79-4.82l-1.92-5.01c-.14-.34-.28-.77-.41-1.3-.07.26-.13.5-.2.72-.07.22-.14.42-.2.59l-1.91,4.99h4.64Z" fill="#333e48" stroke-width="0"/><rect x="315" y="120" width="135" height="30" fill="none" stroke="#333e48" stroke-miterlimit="10"/><path d="m377.07,135c0-.16.03-.32.09-.46.06-.14.14-.27.25-.38.11-.11.23-.19.37-.26.14-.06.3-.09.47-.09s.32.03.46.09c.14.06.27.15.38.26.11.11.19.23.26.38.06.14.09.3.09.46s-.03.32-.09.47c-.06.14-.15.27-.26.38s-.23.19-.38.25-.3.09-.46.09-.32-.03-.47-.09c-.14-.06-.27-.14-.37-.25-.1-.11-.19-.23-.25-.38-.06-.14-.09-.3-.09-.47Z" fill="#333e48" stroke-width="0"/><path d="m381.32,135c0-.16.03-.32.09-.46.06-.14.14-.27.25-.38.11-.11.23-.19.37-.26.14-.06.3-.09.47-.09s.32.03.46.09c.14.06.27.15.38.26.11.11.19.23.26.38.06.14.09.3.09.46s-.03.32-.09.47c-.06.14-.15.27-.26.38s-.23.19-.38.25-.3.09-.46.09-.32-.03-.47-.09c-.14-.06-.27-.14-.37-.25-.1-.11-.19-.23-.25-.38-.06-.14-.09-.3-.09-.47Z" fill="#333e48" stroke-width="0"/><path d="m385.57,135c0-.16.03-.32.09-.46.06-.14.14-.27.25-.38.11-.11.23-.19.37-.26.14-.06.3-.09.47-.09s.32.03.46.09c.14.06.27.15.38.26.11.11.19.23.26.38.06.14.09.3.09.46s-.03.32-.09.47c-.06.14-.15.27-.26.38s-.23.19-.38.25-.3.09-.46.09-.32-.03-.47-.09c-.14-.06-.27-.14-.37-.25-.1-.11-.19-.23-.25-.38-.06-.14-.09-.3-.09-.47Z" fill="#333e48" stroke-width="0"/><line x1="450" y1="225.43" x2="459.26" y2="225.43" fill="none" stroke="#333e48" stroke-miterlimit="10"/><polygon points="458.09 229.42 465 225.43 458.09 221.44 458.09 229.42" fill="#333e48" stroke-width="0"/><rect x="465" y="217.93" width="15" height="15" rx="7.5" ry="7.5" fill="none" stroke="#ff6b00" stroke-miterlimit="10"/><line x1="467.2" y1="220.13" x2="477.8" y2="230.73" fill="none" stroke="#ff6b00" stroke-miterlimit="10"/><rect x="45" y="210.43" width="195" height="44.57" fill="#fff" stroke-width="0"/><path d="m76.57,240.45h-1.48c-.17,0-.31-.04-.41-.13-.11-.08-.19-.19-.23-.32l-1.14-3h-5.7l-1.14,3c-.04.11-.12.22-.23.31-.11.09-.25.14-.41.14h-1.48l5.15-12.92h1.93l5.15,12.92Zm-3.79-4.82l-1.92-5.01c-.14-.34-.28-.77-.41-1.3-.07.26-.13.5-.2.72-.07.22-.14.42-.2.59l-1.91,4.99h4.64Z" fill="#333e48" stroke-width="0"/><path d="m83.21,232.88c-.05.08-.1.13-.15.17-.05.03-.12.05-.21.05-.1,0-.2-.03-.32-.1-.12-.07-.26-.14-.42-.22s-.36-.15-.58-.22c-.22-.07-.49-.1-.79-.1-.25,0-.48.03-.69.09-.21.06-.38.15-.53.26-.14.11-.25.24-.33.4-.08.15-.12.32-.12.49,0,.23.07.42.2.57.13.15.31.28.53.39.22.11.47.21.75.29.28.09.56.18.85.27s.58.21.86.33c.28.12.53.28.75.46.22.18.4.4.53.66.14.26.2.57.2.95,0,.43-.08.82-.23,1.18-.15.36-.38.68-.67.94-.3.26-.67.47-1.1.62-.44.15-.94.22-1.5.22-.63,0-1.21-.1-1.75-.31-.53-.21-.98-.48-1.34-.8l.41-.68c.05-.08.11-.15.18-.19.07-.04.17-.07.29-.07.11,0,.23.04.35.13s.26.18.43.27c.17.1.37.19.61.27s.54.12.9.12c.3,0,.56-.04.78-.11.22-.08.41-.18.55-.31.15-.13.26-.28.33-.45.07-.17.11-.34.11-.53,0-.24-.07-.44-.2-.6s-.31-.3-.53-.41c-.22-.11-.47-.21-.75-.3-.28-.08-.57-.17-.86-.27s-.58-.21-.86-.33-.53-.29-.75-.48c-.22-.19-.4-.43-.53-.7-.13-.28-.2-.61-.2-1.01,0-.35.07-.69.22-1.02.15-.32.36-.61.64-.85.28-.25.62-.44,1.03-.59s.88-.22,1.41-.22c.61,0,1.15.1,1.64.29.49.19.91.46,1.25.79l-.39.64Z" fill="#333e48" stroke-width="0"/><path d="m91.03,232.88c-.05.08-.1.13-.15.17-.05.03-.12.05-.21.05-.1,0-.2-.03-.32-.1-.12-.07-.26-.14-.42-.22s-.36-.15-.58-.22c-.22-.07-.49-.1-.79-.1-.25,0-.48.03-.69.09-.21.06-.38.15-.53.26-.14.11-.25.24-.33.4-.08.15-.12.32-.12.49,0,.23.07.42.2.57.13.15.31.28.53.39.22.11.47.21.75.29.28.09.56.18.85.27s.58.21.86.33c.28.12.53.28.75.46.22.18.4.4.53.66.14.26.2.57.2.95,0,.43-.08.82-.23,1.18-.15.36-.38.68-.67.94-.3.26-.67.47-1.1.62-.44.15-.94.22-1.5.22-.63,0-1.21-.1-1.75-.31-.53-.21-.98-.48-1.34-.8l.41-.68c.05-.08.11-.15.18-.19.07-.04.17-.07.29-.07.11,0,.23.04.35.13s.26.18.43.27c.17.1.37.19.61.27s.54.12.9.12c.3,0,.56-.04.78-.11.22-.08.41-.18.55-.31.15-.13.26-.28.33-.45.07-.17.11-.34.11-.53,0-.24-.07-.44-.2-.6s-.31-.3-.53-.41c-.22-.11-.47-.21-.75-.3-.28-.08-.57-.17-.86-.27s-.58-.21-.86-.33-.53-.29-.75-.48c-.22-.19-.4-.43-.53-.7-.13-.28-.2-.61-.2-1.01,0-.35.07-.69.22-1.02.15-.32.36-.61.64-.85.28-.25.62-.44,1.03-.59s.88-.22,1.41-.22c.61,0,1.15.1,1.64.29.49.19.91.46,1.25.79l-.39.64Z" fill="#333e48" stroke-width="0"/><path d="m95.63,228.48c0,.16-.03.32-.1.46-.07.15-.15.28-.27.39s-.24.2-.39.26c-.15.06-.31.09-.47.09s-.31-.03-.46-.09c-.14-.06-.27-.15-.38-.26s-.2-.24-.26-.39c-.06-.15-.09-.3-.09-.46s.03-.33.09-.47c.06-.15.15-.28.26-.39.11-.11.24-.2.38-.26.14-.06.3-.09.46-.09s.32.03.47.09c.15.06.28.15.39.26.11.11.2.24.27.39.07.15.1.3.1.47Zm-.33,2.83v9.14h-1.75v-9.14h1.75Z" fill="#333e48" stroke-width="0"/><path d="m105.64,231.64v.66c0,.22-.14.35-.41.4l-.98.14c.08.19.15.38.2.59s.07.42.07.65c0,.45-.09.86-.26,1.22-.17.36-.41.67-.72.93-.31.26-.67.46-1.09.59-.42.14-.89.21-1.39.21-.41,0-.8-.04-1.16-.13-.18.11-.32.23-.41.36-.09.13-.14.26-.14.38,0,.21.09.37.27.47.18.1.41.18.69.22s.61.07.98.08c.37.01.74.03,1.12.06.38.03.76.08,1.12.14.37.07.7.18.98.33.29.15.52.36.69.63s.27.61.27,1.04c0,.4-.1.78-.29,1.15-.19.37-.48.7-.85.99s-.83.52-1.36.69c-.53.17-1.14.26-1.82.26s-1.27-.07-1.77-.2-.92-.31-1.25-.53-.58-.48-.75-.77c-.17-.29-.25-.6-.25-.92,0-.44.14-.82.41-1.13.28-.31.66-.55,1.14-.72-.26-.12-.47-.28-.63-.49s-.23-.48-.23-.82c0-.13.02-.27.07-.41.05-.14.12-.28.22-.42s.22-.27.37-.4c.15-.13.32-.24.51-.34-.45-.25-.8-.59-1.06-1s-.39-.9-.39-1.46c0-.45.09-.86.26-1.22.17-.36.42-.67.72-.93.31-.26.68-.46,1.11-.59.43-.14.9-.21,1.41-.21.79,0,1.47.17,2.04.5h2.54Zm-1.78,9.28c0-.22-.06-.39-.18-.52-.12-.13-.28-.23-.49-.31s-.45-.13-.72-.16c-.28-.03-.57-.06-.87-.08s-.61-.03-.93-.05c-.32-.01-.62-.04-.92-.08-.31.16-.57.34-.77.57-.2.22-.3.48-.3.78,0,.19.05.37.15.54.1.17.25.31.46.44s.47.22.78.29c.32.07.69.1,1.13.1s.81-.04,1.14-.11.61-.18.83-.32c.22-.13.4-.29.51-.48.12-.19.18-.39.18-.61Zm-2.8-5.04c.31,0,.59-.04.82-.13.24-.08.43-.2.59-.36.16-.15.28-.34.36-.55.08-.22.12-.45.12-.71,0-.53-.16-.95-.48-1.26-.32-.32-.79-.47-1.42-.47s-1.09.16-1.41.47c-.32.31-.48.74-.48,1.26,0,.26.04.49.12.71s.2.4.36.55c.16.15.36.27.59.36.24.09.51.13.81.13Z" fill="#333e48" stroke-width="0"/><path d="m108.89,232.57c.2-.21.41-.4.62-.58s.45-.32.69-.45.5-.22.78-.29c.28-.07.58-.1.9-.1.5,0,.95.08,1.33.25s.7.4.96.71c.26.3.45.67.58,1.09.13.43.2.9.2,1.41v5.82h-1.76v-5.82c0-.65-.15-1.16-.45-1.53-.3-.36-.76-.54-1.38-.54-.45,0-.87.11-1.26.32-.39.21-.76.5-1.09.87v6.71h-1.75v-9.14h1.05c.25,0,.4.12.46.35l.13.92Z" fill="#333e48" stroke-width="0"/><path d="m124.82,239.14c-.22.25-.46.47-.75.65-.28.18-.58.33-.9.45s-.65.2-.99.25-.67.08-1,.08c-.63,0-1.21-.11-1.75-.32s-1-.53-1.4-.94c-.39-.41-.7-.92-.92-1.53-.22-.61-.33-1.31-.33-2.1,0-.64.1-1.23.3-1.78.2-.55.48-1.03.85-1.44s.82-.73,1.35-.96c.53-.23,1.13-.35,1.8-.35.56,0,1.07.09,1.54.27.47.18.88.45,1.22.8.34.35.61.78.8,1.29.2.51.29,1.09.29,1.75,0,.27-.03.45-.09.54-.06.09-.17.14-.33.14h-5.99c.02.55.1,1.02.23,1.43.14.4.33.74.57,1.01.24.27.53.47.87.6s.71.2,1.12.2c.39,0,.73-.04,1.01-.13.29-.09.53-.19.74-.29.21-.1.38-.2.52-.29.14-.09.27-.13.37-.13.14,0,.25.05.33.16l.5.65Zm-1.45-4.28c0-.35-.05-.67-.15-.96s-.25-.55-.44-.77c-.19-.22-.43-.38-.7-.5s-.59-.18-.95-.18c-.74,0-1.32.21-1.74.64-.42.43-.69,1.02-.81,1.77h4.79Z" fill="#333e48" stroke-width="0"/><path d="m134.5,227.16v13.28h-1.06c-.25,0-.4-.12-.46-.35l-.15-1.05c-.39.46-.83.83-1.33,1.11-.5.28-1.07.42-1.71.42-.52,0-.99-.1-1.42-.31-.42-.2-.79-.5-1.08-.9-.3-.39-.53-.88-.69-1.46-.16-.58-.24-1.25-.24-2.01,0-.68.09-1.31.27-1.89.18-.58.44-1.09.78-1.51.34-.43.76-.76,1.24-1,.49-.24,1.04-.37,1.65-.37.55,0,1.02.09,1.41.27.39.18.73.43,1.04.76v-5h1.76Zm-1.76,6.35c-.29-.38-.6-.64-.93-.79-.33-.15-.71-.23-1.12-.23-.8,0-1.43.29-1.87.87-.44.58-.66,1.42-.66,2.53,0,.58.05,1.08.15,1.49.1.41.24.75.43,1.01.19.26.42.45.7.58.28.12.59.18.94.18.51,0,.95-.11,1.32-.34.37-.23.72-.55,1.04-.96v-4.34Z" fill="#333e48" stroke-width="0"/><path d="m145.78,227.52c.83,0,1.55.1,2.16.29.61.19,1.12.46,1.52.81.4.35.7.78.9,1.27.19.5.29,1.05.29,1.66s-.11,1.16-.32,1.67-.52.94-.93,1.31-.92.65-1.53.85-1.31.3-2.1.3h-2v4.76h-1.92v-12.92h3.92Zm0,6.65c.49,0,.91-.06,1.28-.19.37-.13.68-.3.93-.54.25-.23.44-.51.56-.83.13-.32.19-.68.19-1.07,0-.79-.24-1.4-.73-1.85s-1.23-.67-2.23-.67h-2v5.15h2Z" fill="#333e48" stroke-width="0"/><path d="m159.44,239.14c-.22.25-.46.47-.75.65-.28.18-.58.33-.9.45s-.65.2-.99.25-.67.08-1,.08c-.63,0-1.21-.11-1.75-.32s-1-.53-1.4-.94c-.39-.41-.7-.92-.92-1.53-.22-.61-.33-1.31-.33-2.1,0-.64.1-1.23.3-1.78.2-.55.48-1.03.85-1.44s.82-.73,1.35-.96c.53-.23,1.13-.35,1.8-.35.56,0,1.07.09,1.54.27.47.18.88.45,1.22.8.34.35.61.78.8,1.29.2.51.29,1.09.29,1.75,0,.27-.03.45-.09.54-.06.09-.17.14-.33.14h-5.99c.02.55.1,1.02.23,1.43.14.4.33.74.57,1.01.24.27.53.47.87.6s.71.2,1.12.2c.39,0,.73-.04,1.01-.13.29-.09.53-.19.74-.29.21-.1.38-.2.52-.29.14-.09.27-.13.37-.13.14,0,.25.05.33.16l.5.65Zm-1.45-4.28c0-.35-.05-.67-.15-.96s-.25-.55-.44-.77c-.19-.22-.43-.38-.7-.5s-.59-.18-.95-.18c-.74,0-1.32.21-1.74.64-.42.43-.69,1.02-.81,1.77h4.79Z" fill="#333e48" stroke-width="0"/><path d="m163.12,233.06c.29-.6.65-1.07,1.06-1.41s.91-.51,1.49-.51c.2,0,.38.02.56.07.18.04.33.11.46.2l-.12,1.32c-.04.16-.14.24-.3.24-.08,0-.21-.02-.38-.05s-.35-.05-.54-.05c-.28,0-.53.04-.75.12-.22.08-.41.2-.58.36s-.32.35-.45.58c-.13.23-.26.49-.37.79v5.72h-1.75v-9.14h1.01c.19,0,.32.03.39.1s.12.19.15.36l.11,1.29Z" fill="#333e48" stroke-width="0"/><path d="m170.23,228.48c0,.16-.03.32-.1.46-.07.15-.15.28-.27.39s-.24.2-.39.26c-.15.06-.31.09-.47.09s-.31-.03-.46-.09c-.14-.06-.27-.15-.38-.26s-.2-.24-.26-.39c-.06-.15-.09-.3-.09-.46s.03-.33.09-.47c.06-.15.15-.28.26-.39.11-.11.24-.2.38-.26.14-.06.3-.09.46-.09s.32.03.47.09c.15.06.28.15.39.26.11.11.2.24.27.39.07.15.1.3.1.47Zm-.33,2.83v9.14h-1.75v-9.14h1.75Z" fill="#333e48" stroke-width="0"/><path d="m174.11,232.67c.19-.23.4-.44.62-.62.22-.19.45-.35.71-.49s.52-.24.81-.31.59-.11.91-.11c.52,0,.99.1,1.42.31s.78.5,1.08.9c.3.4.53.89.7,1.47s.25,1.25.25,2.01c0,.68-.09,1.31-.27,1.89-.18.58-.44,1.08-.78,1.51-.34.43-.75.76-1.24,1-.49.24-1.04.36-1.65.36-.55,0-1.01-.09-1.4-.27-.39-.18-.74-.43-1.04-.76v3.97h-1.75v-12.21h1.05c.25,0,.4.12.46.35l.15,1.02Zm.09,5.53c.29.38.6.64.93.79.33.15.71.22,1.12.22.8,0,1.43-.29,1.87-.87.44-.58.66-1.42.66-2.53,0-.58-.05-1.08-.15-1.49-.1-.41-.24-.75-.43-1.01-.19-.26-.42-.45-.7-.58-.28-.12-.59-.18-.94-.18-.51,0-.95.11-1.33.34-.38.23-.72.55-1.04.97v4.33Z" fill="#333e48" stroke-width="0"/><path d="m184.32,232.46c.38-.39.81-.7,1.27-.94s1-.36,1.61-.36c.5,0,.95.08,1.33.25s.7.4.96.71c.26.3.45.67.58,1.09.13.43.2.9.2,1.41v5.82h-1.76v-5.82c0-.65-.15-1.16-.45-1.53-.3-.36-.76-.54-1.38-.54-.45,0-.87.11-1.26.32-.39.21-.76.5-1.09.87v6.71h-1.75v-13.28h1.75v5.3Z" fill="#333e48" stroke-width="0"/><path d="m200.15,239.14c-.22.25-.46.47-.75.65-.28.18-.58.33-.9.45s-.65.2-.99.25-.67.08-1,.08c-.63,0-1.21-.11-1.75-.32s-1-.53-1.4-.94c-.39-.41-.7-.92-.92-1.53-.22-.61-.33-1.31-.33-2.1,0-.64.1-1.23.3-1.78.2-.55.48-1.03.85-1.44s.82-.73,1.35-.96c.53-.23,1.13-.35,1.8-.35.56,0,1.07.09,1.54.27.47.18.88.45,1.22.8.34.35.61.78.8,1.29.2.51.29,1.09.29,1.75,0,.27-.03.45-.09.54-.06.09-.17.14-.33.14h-5.99c.02.55.1,1.02.23,1.43.14.4.33.74.57,1.01.24.27.53.47.87.6s.71.2,1.12.2c.39,0,.73-.04,1.01-.13.29-.09.53-.19.74-.29.21-.1.38-.2.52-.29.14-.09.27-.13.37-.13.14,0,.25.05.33.16l.5.65Zm-1.45-4.28c0-.35-.05-.67-.15-.96s-.25-.55-.44-.77c-.19-.22-.43-.38-.7-.5s-.59-.18-.95-.18c-.74,0-1.32.21-1.74.64-.42.43-.69,1.02-.81,1.77h4.79Z" fill="#333e48" stroke-width="0"/><path d="m203.83,233.06c.29-.6.65-1.07,1.06-1.41s.91-.51,1.49-.51c.2,0,.38.02.56.07.18.04.33.11.46.2l-.12,1.32c-.04.16-.14.24-.3.24-.08,0-.21-.02-.38-.05s-.35-.05-.54-.05c-.28,0-.53.04-.75.12-.22.08-.41.2-.58.36s-.32.35-.45.58c-.13.23-.26.49-.37.79v5.72h-1.75v-9.14h1.01c.19,0,.32.03.39.1s.12.19.15.36l.11,1.29Z" fill="#333e48" stroke-width="0"/><path d="m208.39,232.58c.51-.49,1.06-.85,1.66-1.09.6-.24,1.25-.36,1.97-.36.52,0,.98.09,1.39.26.4.17.74.41,1.02.72.28.31.48.67.62,1.1s.21.9.21,1.41v5.83h-.78c-.17,0-.31-.03-.4-.09-.09-.06-.16-.16-.22-.32l-.19-.8c-.23.22-.46.41-.69.57-.23.17-.47.31-.72.42-.25.12-.51.21-.8.27-.28.06-.59.09-.94.09s-.7-.05-1.01-.15c-.32-.1-.59-.25-.82-.45-.23-.2-.42-.46-.55-.76-.14-.31-.2-.66-.2-1.07,0-.36.1-.71.29-1.04.19-.33.51-.63.95-.9.44-.26,1.02-.48,1.73-.65s1.59-.26,2.62-.29v-.67c0-.69-.15-1.21-.44-1.55s-.73-.51-1.3-.51c-.38,0-.71.05-.97.14s-.49.2-.67.32c-.19.12-.35.22-.5.32-.14.1-.29.14-.44.14-.12,0-.22-.03-.31-.1-.09-.07-.16-.14-.21-.23l-.32-.57Zm5.15,3.81c-.71.02-1.32.08-1.82.17s-.9.2-1.21.35c-.31.14-.54.31-.67.51-.14.19-.21.41-.21.65,0,.23.04.42.11.59s.18.3.31.41c.13.11.28.18.46.23.17.05.36.07.57.07.27,0,.52-.03.74-.08.23-.05.44-.13.63-.23s.39-.22.57-.36c.18-.14.36-.31.53-.5v-1.8Z" fill="#333e48" stroke-width="0"/><path d="m219.42,227.16v13.28h-1.76v-13.28h1.76Z" fill="#333e48" stroke-width="0"/><rect x="45" y="285.43" width="195" height="44.57" fill="#fff" stroke-width="0"/><path d="m85.71,302.52l-5.26,12.92h-1.72l-5.26-12.92h1.53c.17,0,.3.04.41.13.11.08.18.19.24.32l3.49,8.78c.08.22.17.45.25.71.08.26.15.53.22.81.06-.28.13-.55.2-.81.07-.26.15-.5.23-.71l3.48-8.78c.04-.12.12-.23.23-.32.11-.09.25-.13.41-.13h1.54Z" fill="#333e48" stroke-width="0"/><path d="m89.13,303.48c0,.16-.03.32-.1.46-.07.15-.15.28-.27.39s-.24.2-.39.26c-.15.06-.31.09-.47.09s-.31-.03-.46-.09c-.14-.06-.27-.15-.38-.26s-.2-.24-.26-.39c-.06-.15-.09-.3-.09-.46s.03-.33.09-.47c.06-.15.15-.28.26-.39.11-.11.24-.2.38-.26.14-.06.3-.09.46-.09s.32.03.47.09c.15.06.28.15.39.26.11.11.2.24.27.39.07.15.1.3.1.47Zm-.33,2.83v9.14h-1.75v-9.14h1.75Z" fill="#333e48" stroke-width="0"/><path d="m93,308.06c.29-.6.65-1.07,1.06-1.41s.91-.51,1.49-.51c.2,0,.38.02.56.07.18.04.33.11.46.2l-.12,1.32c-.04.16-.14.24-.3.24-.08,0-.21-.02-.38-.05s-.35-.05-.54-.05c-.28,0-.53.04-.75.12-.22.08-.41.2-.58.36s-.32.35-.45.58c-.13.23-.26.49-.37.79v5.72h-1.75v-9.14h1.01c.19,0,.32.03.39.1s.12.19.15.36l.11,1.29Z" fill="#333e48" stroke-width="0"/><path d="m100.8,315.59c-.74,0-1.31-.21-1.71-.62-.4-.41-.6-1-.6-1.77v-5.47h-1.06c-.1,0-.19-.03-.26-.09-.07-.06-.1-.16-.1-.28v-.71l1.48-.21.4-2.73c.02-.1.07-.18.14-.24.07-.06.16-.09.27-.09h.89v3.07h2.59v1.28h-2.59v5.35c0,.36.09.63.27.81s.4.27.68.27c.16,0,.3-.02.42-.06.12-.04.22-.09.3-.14.08-.05.16-.1.22-.14.06-.04.11-.06.16-.06.06,0,.11.01.14.04.03.03.07.07.1.13l.52.85c-.29.26-.63.47-1.03.61-.4.14-.81.22-1.23.22Z" fill="#333e48" stroke-width="0"/><path d="m112.06,306.3v9.14h-1.05c-.24,0-.4-.12-.47-.35l-.13-.92c-.2.21-.41.4-.62.58-.22.17-.45.32-.69.45s-.51.22-.78.29c-.28.07-.57.1-.89.1-.5,0-.95-.08-1.33-.25-.38-.17-.7-.4-.96-.71s-.45-.67-.58-1.09c-.13-.43-.2-.9-.2-1.41v-5.82h1.76v5.82c0,.65.15,1.16.45,1.53.3.36.76.54,1.38.54.45,0,.87-.11,1.26-.32.39-.21.76-.51,1.1-.88v-6.7h1.75Z" fill="#333e48" stroke-width="0"/><path d="m114.28,307.58c.51-.49,1.06-.85,1.66-1.09.6-.24,1.25-.36,1.97-.36.52,0,.98.09,1.39.26.4.17.74.41,1.02.72.28.31.48.67.62,1.1s.21.9.21,1.41v5.83h-.78c-.17,0-.31-.03-.4-.09-.09-.06-.16-.16-.22-.32l-.19-.8c-.23.22-.46.41-.69.57-.23.17-.47.31-.72.42-.25.12-.51.21-.8.27-.28.06-.59.09-.94.09s-.7-.05-1.01-.15c-.32-.1-.59-.25-.82-.45-.23-.2-.42-.46-.55-.76-.14-.31-.2-.66-.2-1.07,0-.36.1-.71.29-1.04.19-.33.51-.63.95-.9.44-.26,1.02-.48,1.73-.65s1.59-.26,2.62-.29v-.67c0-.69-.15-1.21-.44-1.55s-.73-.51-1.3-.51c-.38,0-.71.05-.97.14s-.49.2-.67.32c-.19.12-.35.22-.5.32-.14.1-.29.14-.44.14-.12,0-.22-.03-.31-.1-.09-.07-.16-.14-.21-.23l-.32-.57Zm5.15,3.81c-.71.02-1.32.08-1.82.17s-.9.2-1.21.35c-.31.14-.54.31-.67.51-.14.19-.21.41-.21.65,0,.23.04.42.11.59s.18.3.31.41c.13.11.28.18.46.23.17.05.36.07.57.07.27,0,.52-.03.74-.08.23-.05.44-.13.63-.23s.39-.22.57-.36c.18-.14.36-.31.53-.5v-1.8Z" fill="#333e48" stroke-width="0"/><path d="m125.31,302.16v13.28h-1.76v-13.28h1.76Z" fill="#333e48" stroke-width="0"/><path d="m136.63,302.52c.83,0,1.55.1,2.16.29.61.19,1.12.46,1.52.81.4.35.7.78.9,1.27.19.5.29,1.05.29,1.66s-.11,1.16-.32,1.67-.52.94-.93,1.31-.92.65-1.53.85-1.31.3-2.1.3h-2v4.76h-1.92v-12.92h3.92Zm0,6.65c.49,0,.91-.06,1.28-.19.37-.13.68-.3.93-.54.25-.23.44-.51.56-.83.13-.32.19-.68.19-1.07,0-.79-.24-1.4-.73-1.85s-1.23-.67-2.23-.67h-2v5.15h2Z" fill="#333e48" stroke-width="0"/><path d="m150.29,314.14c-.22.25-.46.47-.75.65-.28.18-.58.33-.9.45s-.65.2-.99.25-.67.08-1,.08c-.63,0-1.21-.11-1.75-.32s-1-.53-1.4-.94c-.39-.41-.7-.92-.92-1.53-.22-.61-.33-1.31-.33-2.1,0-.64.1-1.23.3-1.78.2-.55.48-1.03.85-1.44s.82-.73,1.35-.96c.53-.23,1.13-.35,1.8-.35.56,0,1.07.09,1.54.27.47.18.88.45,1.22.8.34.35.61.78.8,1.29.2.51.29,1.09.29,1.75,0,.27-.03.45-.09.54-.06.09-.17.14-.33.14h-5.99c.02.55.1,1.02.23,1.43.14.4.33.74.57,1.01.24.27.53.47.87.6s.71.2,1.12.2c.39,0,.73-.04,1.01-.13.29-.09.53-.19.74-.29.21-.1.38-.2.52-.29.14-.09.27-.13.37-.13.14,0,.25.05.33.16l.5.65Zm-1.45-4.28c0-.35-.05-.67-.15-.96s-.25-.55-.44-.77c-.19-.22-.43-.38-.7-.5s-.59-.18-.95-.18c-.74,0-1.32.21-1.74.64-.42.43-.69,1.02-.81,1.77h4.79Z" fill="#333e48" stroke-width="0"/><path d="m153.97,308.06c.29-.6.65-1.07,1.06-1.41s.91-.51,1.49-.51c.2,0,.38.02.56.07.18.04.33.11.46.2l-.12,1.32c-.04.16-.14.24-.3.24-.08,0-.21-.02-.38-.05s-.35-.05-.54-.05c-.28,0-.53.04-.75.12-.22.08-.41.2-.58.36s-.32.35-.45.58c-.13.23-.26.49-.37.79v5.72h-1.75v-9.14h1.01c.19,0,.32.03.39.1s.12.19.15.36l.11,1.29Z" fill="#333e48" stroke-width="0"/><path d="m161.08,303.48c0,.16-.03.32-.1.46-.07.15-.15.28-.27.39s-.24.2-.39.26c-.15.06-.31.09-.47.09s-.31-.03-.46-.09c-.14-.06-.27-.15-.38-.26s-.2-.24-.26-.39c-.06-.15-.09-.3-.09-.46s.03-.33.09-.47c.06-.15.15-.28.26-.39.11-.11.24-.2.38-.26.14-.06.3-.09.46-.09s.32.03.47.09c.15.06.28.15.39.26.11.11.2.24.27.39.07.15.1.3.1.47Zm-.33,2.83v9.14h-1.75v-9.14h1.75Z" fill="#333e48" stroke-width="0"/><path d="m164.96,307.67c.19-.23.4-.44.62-.62.22-.19.45-.35.71-.49s.52-.24.81-.31.59-.11.91-.11c.52,0,.99.1,1.42.31s.78.5,1.08.9c.3.4.53.89.7,1.47s.25,1.25.25,2.01c0,.68-.09,1.31-.27,1.89-.18.58-.44,1.08-.78,1.51-.34.43-.75.76-1.24,1-.49.24-1.04.36-1.65.36-.55,0-1.01-.09-1.4-.27-.39-.18-.74-.43-1.04-.76v3.97h-1.75v-12.21h1.05c.25,0,.4.12.46.35l.15,1.02Zm.09,5.53c.29.38.6.64.93.79.33.15.71.22,1.12.22.8,0,1.43-.29,1.87-.87.44-.58.66-1.42.66-2.53,0-.58-.05-1.08-.15-1.49-.1-.41-.24-.75-.43-1.01-.19-.26-.42-.45-.7-.58-.28-.12-.59-.18-.94-.18-.51,0-.95.11-1.33.34-.38.23-.72.55-1.04.97v4.33Z" fill="#333e48" stroke-width="0"/><path d="m175.18,307.46c.38-.39.81-.7,1.27-.94s1-.36,1.61-.36c.5,0,.95.08,1.33.25s.7.4.96.71c.26.3.45.67.58,1.09.13.43.2.9.2,1.41v5.82h-1.76v-5.82c0-.65-.15-1.16-.45-1.53-.3-.36-.76-.54-1.38-.54-.45,0-.87.11-1.26.32-.39.21-.76.5-1.09.87v6.71h-1.75v-13.28h1.75v5.3Z" fill="#333e48" stroke-width="0"/><path d="m191,314.14c-.22.25-.46.47-.75.65-.28.18-.58.33-.9.45s-.65.2-.99.25-.67.08-1,.08c-.63,0-1.21-.11-1.75-.32s-1-.53-1.4-.94c-.39-.41-.7-.92-.92-1.53-.22-.61-.33-1.31-.33-2.1,0-.64.1-1.23.3-1.78.2-.55.48-1.03.85-1.44s.82-.73,1.35-.96c.53-.23,1.13-.35,1.8-.35.56,0,1.07.09,1.54.27.47.18.88.45,1.22.8.34.35.61.78.8,1.29.2.51.29,1.09.29,1.75,0,.27-.03.45-.09.54-.06.09-.17.14-.33.14h-5.99c.02.55.1,1.02.23,1.43.14.4.33.74.57,1.01.24.27.53.47.87.6s.71.2,1.12.2c.39,0,.73-.04,1.01-.13.29-.09.53-.19.74-.29.21-.1.38-.2.52-.29.14-.09.27-.13.37-.13.14,0,.25.05.33.16l.5.65Zm-1.45-4.28c0-.35-.05-.67-.15-.96s-.25-.55-.44-.77c-.19-.22-.43-.38-.7-.5s-.59-.18-.95-.18c-.74,0-1.32.21-1.74.64-.42.43-.69,1.02-.81,1.77h4.79Z" fill="#333e48" stroke-width="0"/><path d="m194.68,308.06c.29-.6.65-1.07,1.06-1.41s.91-.51,1.49-.51c.2,0,.38.02.56.07.18.04.33.11.46.2l-.12,1.32c-.04.16-.14.24-.3.24-.08,0-.21-.02-.38-.05s-.35-.05-.54-.05c-.28,0-.53.04-.75.12-.22.08-.41.2-.58.36s-.32.35-.45.58c-.13.23-.26.49-.37.79v5.72h-1.75v-9.14h1.01c.19,0,.32.03.39.1s.12.19.15.36l.11,1.29Z" fill="#333e48" stroke-width="0"/><path d="m199.24,307.58c.51-.49,1.06-.85,1.66-1.09.6-.24,1.25-.36,1.97-.36.52,0,.98.09,1.39.26.4.17.74.41,1.02.72.28.31.48.67.62,1.1s.21.9.21,1.41v5.83h-.78c-.17,0-.31-.03-.4-.09-.09-.06-.16-.16-.22-.32l-.19-.8c-.23.22-.46.41-.69.57-.23.17-.47.31-.72.42-.25.12-.51.21-.8.27-.28.06-.59.09-.94.09s-.7-.05-1.01-.15c-.32-.1-.59-.25-.82-.45-.23-.2-.42-.46-.55-.76-.14-.31-.2-.66-.2-1.07,0-.36.1-.71.29-1.04.19-.33.51-.63.95-.9.44-.26,1.02-.48,1.73-.65s1.59-.26,2.62-.29v-.67c0-.69-.15-1.21-.44-1.55s-.73-.51-1.3-.51c-.38,0-.71.05-.97.14s-.49.2-.67.32c-.19.12-.35.22-.5.32-.14.1-.29.14-.44.14-.12,0-.22-.03-.31-.1-.09-.07-.16-.14-.21-.23l-.32-.57Zm5.15,3.81c-.71.02-1.32.08-1.82.17s-.9.2-1.21.35c-.31.14-.54.31-.67.51-.14.19-.21.41-.21.65,0,.23.04.42.11.59s.18.3.31.41c.13.11.28.18.46.23.17.05.36.07.57.07.27,0,.52-.03.74-.08.23-.05.44-.13.63-.23s.39-.22.57-.36c.18-.14.36-.31.53-.5v-1.8Z" fill="#333e48" stroke-width="0"/><path d="m210.27,302.16v13.28h-1.76v-13.28h1.76Z" fill="#333e48" stroke-width="0"/><polyline points="240 232.72 270 232.72 270 165 309.26 165" fill="none" stroke="#333e48" stroke-miterlimit="10"/><polygon points="308.09 168.99 315 165 308.09 161.01 308.09 168.99" fill="#333e48" stroke-width="0"/><polyline points="240 307.72 285 307.72 285 225 309.26 225" fill="none" stroke="#333e48" stroke-miterlimit="10"/><polygon points="308.09 228.99 315 225 308.09 221.01 308.09 228.99" fill="#333e48" stroke-width="0"/><polyline points="450 165 495 165 495 270 519.26 270" fill="none" stroke="#333e48" stroke-miterlimit="10"/><polygon points="518.09 273.99 525 270 518.09 266.01 518.09 273.99" fill="#333e48" stroke-width="0"/></svg>