<svg xmlns:xlink="http://www.w3.org/1999/xlink" xmlns:ev="http://www.w3.org/2001/xml-events" xmlns="http://www.w3.org/2000/svg" width="526" viewBox="0 0 526 230" height="230"><defs/><g id="page1" transform="translate(5.5,5.5)"><rect x="0" width="516" y="0" fill="#ffffff" height="220"/><path d="M.0,.0L510.0,.0L510.0,214.0L.0,214.0L.0,.0z" id="shape1" fill-rule="evenodd" fill="#ffffff" transform="translate(2.56,2.77)"/><path d="M.0,.0L73.0,.0L73.0,58.4L.0,58.4L.0,.0z" id="shape2" fill-rule="evenodd" fill="#ffffff" transform="translate(20.77,22.19)"/><path d="M.0,.0L73.0,.0L73.0,58.4L.0,58.4L.0,.0z" stroke-width="1" id="shape3" fill="none" transform="translate(20.77,22.19)" stroke="#000000"/><g id="shape4" transform="translate(51.64,48.89)"><text style="fill:#000000;font-family:Arial;font-size:9.75pt" xml:space="preserve"><tspan x="-0.1" y="8.9">ZI</tspan></text></g><path d="M.0,.0L73.0,.0L73.0,58.3L.0,58.3L.0,.0z" id="shape5" fill-rule="evenodd" fill="#ffffff" transform="translate(20.77,80.63)"/><path d="M.0,.0L73.0,.0L73.0,58.3L.0,58.3L.0,.0z" stroke-width="1" id="shape6" fill="none" transform="translate(20.77,80.63)" stroke="#000000"/><g id="shape7" transform="translate(46.23,107.16)"><text style="fill:#000000;font-family:Arial;font-size:9.75pt" xml:space="preserve"><tspan x="-0.2" y="8.9">RW</tspan></text></g><path d="M.0,.0L73.0,.0L73.0,58.4L.0,58.4L.0,.0z" id="shape8" fill-rule="evenodd" fill="#ffffff" transform="translate(20.77,138.89)"/><path d="M.0,.0L73.0,.0L73.0,58.4L.0,58.4L.0,.0z" stroke-width="1" id="shape9" fill="none" transform="translate(20.77,138.89)" stroke="#000000"/><g id="shape10" transform="translate(47.62,165.43)"><text style="fill:#000000;font-family:Arial;font-size:9.75pt" xml:space="preserve"><tspan x="-0.3" y="8.9">RO</tspan></text></g><path d="M.0,.0L73.0,.0L73.0,38.8L.0,38.8L.0,.0z" id="shape11" fill-rule="evenodd" fill="#ffffff" transform="translate(148.40,100.05)"/><path d="M.0,.0L73.0,.0L73.0,38.8L.0,38.8L.0,.0z" stroke-width="1" id="shape12" fill="none" transform="translate(148.40,100.05)" stroke="#000000"/><g id="shape13" transform="translate(161.81,116.87)"><text style="fill:#000000;font-family:Arial;font-size:9.75pt" xml:space="preserve"><tspan x="-0.3" y="8.9">DATA</tspan></text></g><path d="M.0,.0L73.0,.0L73.0,38.8L.0,38.8L.0,.0z" id="shape14" fill-rule="evenodd" fill="#ffffff" transform="translate(148.40,138.89)"/><path d="M.0,.0L73.0,.0L73.0,38.8L.0,38.8L.0,.0z" stroke-width="1" id="shape15" fill="none" transform="translate(148.40,138.89)" stroke="#000000"/><g id="shape16" transform="translate(162.07,155.72)"><text style="fill:#000000;font-family:Arial;font-size:9.75pt" xml:space="preserve"><tspan x="-0.3" y="8.9">CODE</tspan></text></g><path d="M.0,.0L73.0,.0L73.0,38.8L.0,38.8L.0,.0z" id="shape17" fill-rule="evenodd" fill="#ffffff" transform="translate(275.87,80.63)"/><path d="M.0,.0L73.0,.0L73.0,38.8L.0,38.8L.0,.0z" stroke-width="1" id="shape18" fill="none" transform="translate(275.87,80.63)" stroke="#000000"/><g id="shape19" transform="translate(308.12,97.45)"><text style="fill:#000000;font-family:Arial;font-size:9.75pt" xml:space="preserve"><tspan x="-0.1" y="8.9">B</tspan></text></g><path d="M.0,.0L73.0,.0L73.0,38.8L.0,38.8L.0,.0z" id="shape20" fill-rule="evenodd" fill="#ffffff" transform="translate(275.87,119.47)"/><path d="M.0,.0L73.0,.0L73.0,38.8L.0,38.8L.0,.0z" stroke-width="1" id="shape21" fill="none" transform="translate(275.87,119.47)" stroke="#000000"/><g id="shape22" transform="translate(308.12,136.30)"><text style="fill:#000000;font-family:Arial;font-size:9.75pt" xml:space="preserve"><tspan x="-0.1" y="8.9">A</tspan></text></g><path d="M.0,.0L87.7,.0L87.7,58.4L.0,58.4L.0,.0z" id="shape23" fill-rule="evenodd" fill="#ffffff" transform="translate(403.50,22.19)"/><path d="M.0,.0L94.2,.0L94.2,58.4L.0,58.4L.0,.0z" stroke-width="1" id="shape24" fill="none" transform="translate(403.50,22.53)" stroke="#000000"/><g id="shape25" transform="translate(413.00,35.89)"><text style="fill:#000000;font-family:Arial;font-size:9.75pt" xml:space="preserve"><tspan x="-0.3" y="8.9">section A</tspan></text></g><g id="shape26" transform="translate(407.88,57.12)"><text style="fill:#000000;font-family:Arial;font-size:9.75pt" xml:space="preserve"><tspan x="-0.2" y="8.9">from file2.o</tspan></text></g><path d="M.0,.0L91.3,.0L91.3,58.3L.0,58.3L.0,.0z" id="shape27" fill-rule="evenodd" fill="#ffffff" transform="translate(403.50,80.63)"/><path d="M.0,.0L94.3,.0L94.3,59.3L.0,59.3L.0,.0z" stroke-width="1" id="shape28" fill="none" transform="translate(403.45,80.25)" stroke="#000000"/><g id="shape29" transform="translate(411.90,96.32)"><text style="fill:#000000;font-family:Arial;font-size:9.75pt" xml:space="preserve"><tspan x="-0.2" y="8.9">Section A </tspan></text></g><g id="shape30" transform="translate(410.16,115.39)"><text style="fill:#000000;font-family:Arial;font-size:9.75pt" xml:space="preserve"><tspan x="-0.5" y="8.9">from file1.o</tspan></text></g><path d="M.0,1.2L1.5,.0" stroke-width="1" id="shape31" fill="none" transform="translate(93.77,137.74)" stroke="#000000"/><path d="M.0,1.2L1.5,.0" stroke-width="1" id="shape32" fill="none" transform="translate(96.85,135.60)" stroke="#000000"/><path d="M.0,1.0L1.5,.0" stroke-width="1" id="shape33" fill="none" transform="translate(99.94,133.46)" stroke="#000000"/><path d="M.0,1.2L1.5,.0" stroke-width="1" id="shape34" fill="none" transform="translate(103.03,131.16)" stroke="#000000"/><path d="M.0,1.2L1.5,.0" stroke-width="1" id="shape35" fill="none" transform="translate(106.11,129.02)" stroke="#000000"/><path d="M.0,1.0L1.5,.0" stroke-width="1" id="shape36" fill="none" transform="translate(109.20,126.88)" stroke="#000000"/><path d="M.0,1.2L1.5,.0" stroke-width="1" id="shape37" fill="none" transform="translate(112.28,124.57)" stroke="#000000"/><path d="M.0,1.2L1.5,.0" stroke-width="1" id="shape38" fill="none" transform="translate(115.37,122.43)" stroke="#000000"/><path d="M.0,1.0L1.5,.0" stroke-width="1" id="shape39" fill="none" transform="translate(118.46,120.29)" stroke="#000000"/><path d="M.0,1.2L1.5,.0" stroke-width="1" id="shape40" fill="none" transform="translate(121.54,117.99)" stroke="#000000"/><path d="M.0,1.2L1.5,.0" stroke-width="1" id="shape41" fill="none" transform="translate(124.63,115.85)" stroke="#000000"/><path d="M.0,1.0L1.5,.0" stroke-width="1" id="shape42" fill="none" transform="translate(127.72,113.71)" stroke="#000000"/><path d="M.0,1.2L1.5,.0" stroke-width="1" id="shape43" fill="none" transform="translate(130.80,111.41)" stroke="#000000"/><path d="M.0,1.2L1.5,.0" stroke-width="1" id="shape44" fill="none" transform="translate(133.89,109.27)" stroke="#000000"/><path d="M.0,1.0L1.5,.0" stroke-width="1" id="shape45" fill="none" transform="translate(136.98,107.13)" stroke="#000000"/><path d="M.0,1.2L1.5,.0" stroke-width="1" id="shape46" fill="none" transform="translate(140.06,104.82)" stroke="#000000"/><path d="M.0,1.2L1.5,.0" stroke-width="1" id="shape47" fill="none" transform="translate(143.15,102.68)" stroke="#000000"/><path d="M.0,1.0L1.5,.0" stroke-width="1" id="shape48" fill="none" transform="translate(146.24,100.54)" stroke="#000000"/><path d="M.0,.7L1.7,.0" stroke-width="1" id="shape49" fill="none" transform="translate(93.77,196.67)" stroke="#000000"/><path d="M.0,.5L1.9,.0" stroke-width="1" id="shape50" fill="none" transform="translate(97.16,195.52)" stroke="#000000"/><path d="M.0,.7L1.7,.0" stroke-width="1" id="shape51" fill="none" transform="translate(100.71,194.20)" stroke="#000000"/><path d="M.0,.5L1.9,.0" stroke-width="1" id="shape52" fill="none" transform="translate(104.11,193.05)" stroke="#000000"/><path d="M.0,.7L1.7,.0" stroke-width="1" id="shape53" fill="none" transform="translate(107.66,191.73)" stroke="#000000"/><path d="M.0,.7L1.7,.0" stroke-width="1" id="shape54" fill="none" transform="translate(111.05,190.41)" stroke="#000000"/><path d="M.0,.7L1.7,.0" stroke-width="1" id="shape55" fill="none" transform="translate(114.60,189.26)" stroke="#000000"/><path d="M.0,.7L1.7,.0" stroke-width="1" id="shape56" fill="none" transform="translate(118.00,187.94)" stroke="#000000"/><path d="M.0,.7L1.7,.0" stroke-width="1" id="shape57" fill="none" transform="translate(121.54,186.79)" stroke="#000000"/><path d="M.0,.7L1.7,.0" stroke-width="1" id="shape58" fill="none" transform="translate(124.94,185.48)" stroke="#000000"/><path d="M.0,.7L1.7,.0" stroke-width="1" id="shape59" fill="none" transform="translate(128.33,184.32)" stroke="#000000"/><path d="M.0,.7L1.7,.0" stroke-width="1" id="shape60" fill="none" transform="translate(131.73,183.01)" stroke="#000000"/><path d="M.0,.7L1.7,.0" stroke-width="1" id="shape61" fill="none" transform="translate(135.28,181.85)" stroke="#000000"/><path d="M.0,.7L1.7,.0" stroke-width="1" id="shape62" fill="none" transform="translate(138.67,180.54)" stroke="#000000"/><path d="M.0,.7L1.7,.0" stroke-width="1" id="shape63" fill="none" transform="translate(142.22,179.39)" stroke="#000000"/><path d="M.0,.7L1.7,.0" stroke-width="1" id="shape64" fill="none" transform="translate(145.62,178.07)" stroke="#000000"/><path d="M.0,.7L1.7,.0" stroke-width="1" id="shape65" fill="none" transform="translate(221.39,177.08)" stroke="#000000"/><path d="M.0,.7L1.7,.0" stroke-width="1" id="shape66" fill="none" transform="translate(224.79,175.93)" stroke="#000000"/><path d="M.0,.5L1.7,.0" stroke-width="1" id="shape67" fill="none" transform="translate(228.18,174.78)" stroke="#000000"/><path d="M.0,.7L1.7,.0" stroke-width="1" id="shape68" fill="none" transform="translate(231.58,173.46)" stroke="#000000"/><path d="M.0,.7L1.7,.0" stroke-width="1" id="shape69" fill="none" transform="translate(234.97,172.31)" stroke="#000000"/><path d="M.0,.5L1.7,.0" stroke-width="1" id="shape70" fill="none" transform="translate(238.37,171.16)" stroke="#000000"/><path d="M.0,.7L1.7,.0" stroke-width="1" id="shape71" fill="none" transform="translate(241.76,169.84)" stroke="#000000"/><path d="M.0,.7L1.7,.0" stroke-width="1" id="shape72" fill="none" transform="translate(245.16,168.69)" stroke="#000000"/><path d="M.0,.5L1.5,.0" stroke-width="1" id="shape73" fill="none" transform="translate(248.55,167.54)" stroke="#000000"/><path d="M.0,.7L1.7,.0" stroke-width="1" id="shape74" fill="none" transform="translate(251.79,166.22)" stroke="#000000"/><path d="M.0,.7L1.7,.0" stroke-width="1" id="shape75" fill="none" transform="translate(255.19,165.07)" stroke="#000000"/><path d="M.0,.5L1.7,.0" stroke-width="1" id="shape76" fill="none" transform="translate(258.59,163.91)" stroke="#000000"/><path d="M.0,.7L1.7,.0" stroke-width="1" id="shape77" fill="none" transform="translate(261.98,162.60)" stroke="#000000"/><path d="M.0,.7L1.7,.0" stroke-width="1" id="shape78" fill="none" transform="translate(265.38,161.44)" stroke="#000000"/><path d="M.0,.5L1.7,.0" stroke-width="1" id="shape79" fill="none" transform="translate(268.77,160.29)" stroke="#000000"/><path d="M.0,.7L1.7,.0" stroke-width="1" id="shape80" fill="none" transform="translate(272.17,158.98)" stroke="#000000"/><path d="M.0,.2L.3,.0" stroke-width="1" id="shape81" fill="none" transform="translate(275.56,158.32)" stroke="#000000"/><path d="M.0,1.3L1.4,.0" stroke-width="1" id="shape82" fill="none" transform="translate(221.39,137.58)" stroke="#000000"/><path d="M.0,1.3L1.4,.0" stroke-width="1" id="shape83" fill="none" transform="translate(224.02,134.78)" stroke="#000000"/><path d="M.0,1.5L1.2,.0" stroke-width="1" id="shape84" fill="none" transform="translate(226.79,131.98)" stroke="#000000"/><path d="M.0,1.3L1.4,.0" stroke-width="1" id="shape85" fill="none" transform="translate(229.42,129.35)" stroke="#000000"/><path d="M.0,1.3L1.4,.0" stroke-width="1" id="shape86" fill="none" transform="translate(232.04,126.55)" stroke="#000000"/><path d="M.0,1.3L1.4,.0" stroke-width="1" id="shape87" fill="none" transform="translate(234.66,123.75)" stroke="#000000"/><path d="M.0,1.5L1.2,.0" stroke-width="1" id="shape88" fill="none" transform="translate(237.44,120.95)" stroke="#000000"/><path d="M.0,1.3L1.4,.0" stroke-width="1" id="shape89" fill="none" transform="translate(240.07,118.32)" stroke="#000000"/><path d="M.0,1.3L1.4,.0" stroke-width="1" id="shape90" fill="none" transform="translate(242.69,115.52)" stroke="#000000"/><path d="M.0,1.5L1.2,.0" stroke-width="1" id="shape91" fill="none" transform="translate(245.47,112.72)" stroke="#000000"/><path d="M.0,1.3L1.2,.0" stroke-width="1" id="shape92" fill="none" transform="translate(248.09,110.09)" stroke="#000000"/><path d="M.0,1.3L1.4,.0" stroke-width="1" id="shape93" fill="none" transform="translate(250.56,107.29)" stroke="#000000"/><path d="M.0,1.5L1.2,.0" stroke-width="1" id="shape94" fill="none" transform="translate(253.34,104.49)" stroke="#000000"/><path d="M.0,1.5L1.2,.0" stroke-width="1" id="shape95" fill="none" transform="translate(255.96,101.69)" stroke="#000000"/><path d="M.0,1.3L1.4,.0" stroke-width="1" id="shape96" fill="none" transform="translate(258.58,99.06)" stroke="#000000"/><path d="M.0,1.3L1.4,.0" stroke-width="1" id="shape97" fill="none" transform="translate(261.21,96.26)" stroke="#000000"/><path d="M.0,1.5L1.2,.0" stroke-width="1" id="shape98" fill="none" transform="translate(263.99,93.46)" stroke="#000000"/><path d="M.0,1.3L1.4,.0" stroke-width="1" id="shape99" fill="none" transform="translate(266.61,90.83)" stroke="#000000"/><path d="M.0,1.3L1.4,.0" stroke-width="1" id="shape100" fill="none" transform="translate(269.23,88.03)" stroke="#000000"/><path d="M.0,1.5L1.2,.0" stroke-width="1" id="shape101" fill="none" transform="translate(272.01,85.23)" stroke="#000000"/><path d="M.0,1.3L1.2,.0" stroke-width="1" id="shape102" fill="none" transform="translate(274.63,82.60)" stroke="#000000"/><path d="M.0,1.6L.9,.0" stroke-width="1" id="shape103" fill="none" transform="translate(348.87,117.83)" stroke="#000000"/><path d="M.0,1.6L.9,.0" stroke-width="1" id="shape104" fill="none" transform="translate(350.72,114.53)" stroke="#000000"/><path d="M.0,1.6L.9,.0" stroke-width="1" id="shape105" fill="none" transform="translate(352.57,111.24)" stroke="#000000"/><path d="M.0,1.6L.9,.0" stroke-width="1" id="shape106" fill="none" transform="translate(354.42,107.95)" stroke="#000000"/><path d="M.0,1.6L.9,.0" stroke-width="1" id="shape107" fill="none" transform="translate(356.27,104.66)" stroke="#000000"/><path d="M.0,1.6L.9,.0" stroke-width="1" id="shape108" fill="none" transform="translate(358.12,101.37)" stroke="#000000"/><path d="M.0,1.6L.9,.0" stroke-width="1" id="shape109" fill="none" transform="translate(359.98,98.07)" stroke="#000000"/><path d="M.0,1.6L.9,.0" stroke-width="1" id="shape110" fill="none" transform="translate(361.83,94.78)" stroke="#000000"/><path d="M.0,1.6L.9,.0" stroke-width="1" id="shape111" fill="none" transform="translate(363.68,91.49)" stroke="#000000"/><path d="M.0,1.6L.9,.0" stroke-width="1" id="shape112" fill="none" transform="translate(365.53,88.20)" stroke="#000000"/><path d="M.0,1.6L.9,.0" stroke-width="1" id="shape113" fill="none" transform="translate(367.38,84.91)" stroke="#000000"/><path d="M.0,1.6L.9,.0" stroke-width="1" id="shape114" fill="none" transform="translate(369.24,81.61)" stroke="#000000"/><path d="M.0,1.6L.9,.0" stroke-width="1" id="shape115" fill="none" transform="translate(371.09,78.32)" stroke="#000000"/><path d="M.0,1.6L.9,.0" stroke-width="1" id="shape116" fill="none" transform="translate(372.94,75.03)" stroke="#000000"/><path d="M.0,1.6L.9,.0" stroke-width="1" id="shape117" fill="none" transform="translate(374.79,71.74)" stroke="#000000"/><path d="M.0,1.6L.9,.0" stroke-width="1" id="shape118" fill="none" transform="translate(376.64,68.45)" stroke="#000000"/><path d="M.0,1.6L.9,.0" stroke-width="1" id="shape119" fill="none" transform="translate(378.50,65.15)" stroke="#000000"/><path d="M.0,1.6L.9,.0" stroke-width="1" id="shape120" fill="none" transform="translate(380.35,61.86)" stroke="#000000"/><path d="M.0,1.6L.9,.0" stroke-width="1" id="shape121" fill="none" transform="translate(382.20,58.57)" stroke="#000000"/><path d="M.0,1.6L.9,.0" stroke-width="1" id="shape122" fill="none" transform="translate(384.05,55.28)" stroke="#000000"/><path d="M.0,1.6L.9,.0" stroke-width="1" id="shape123" fill="none" transform="translate(385.90,51.99)" stroke="#000000"/><path d="M.0,1.6L.9,.0" stroke-width="1" id="shape124" fill="none" transform="translate(387.76,48.69)" stroke="#000000"/><path d="M.0,1.6L.9,.0" stroke-width="1" id="shape125" fill="none" transform="translate(389.61,45.40)" stroke="#000000"/><path d="M-0.0,1.8L.9,.0" stroke-width="1" id="shape126" fill="none" transform="translate(391.46,41.94)" stroke="#000000"/><path d="M-0.0,1.6L.9,.0" stroke-width="1" id="shape127" fill="none" transform="translate(393.31,38.65)" stroke="#000000"/><path d="M-0.0,1.6L.9,.0" stroke-width="1" id="shape128" fill="none" transform="translate(395.16,35.36)" stroke="#000000"/><path d="M-0.0,1.6L.9,.0" stroke-width="1" id="shape129" fill="none" transform="translate(397.01,32.07)" stroke="#000000"/><path d="M-0.0,1.6L.9,.0" stroke-width="1" id="shape130" fill="none" transform="translate(398.87,28.78)" stroke="#000000"/><path d="M-0.0,1.6L.9,.0" stroke-width="1" id="shape131" fill="none" transform="translate(400.72,25.48)" stroke="#000000"/><path d="M-0.0,1.6L.9,.0" stroke-width="1" id="shape132" fill="none" transform="translate(402.57,22.19)" stroke="#000000"/><path d="M.0,.7L1.7,.0" stroke-width="1" id="shape133" fill="none" transform="translate(348.87,157.66)" stroke="#000000"/><path d="M.0,.7L1.7,.0" stroke-width="1" id="shape134" fill="none" transform="translate(352.26,156.51)" stroke="#000000"/><path d="M.0,.5L1.7,.0" stroke-width="1" id="shape135" fill="none" transform="translate(355.66,155.35)" stroke="#000000"/><path d="M.0,.7L1.7,.0" stroke-width="1" id="shape136" fill="none" transform="translate(359.05,154.04)" stroke="#000000"/><path d="M.0,.7L1.7,.0" stroke-width="1" id="shape137" fill="none" transform="translate(362.45,152.88)" stroke="#000000"/><path d="M.0,.5L1.7,.0" stroke-width="1" id="shape138" fill="none" transform="translate(365.84,151.73)" stroke="#000000"/><path d="M.0,.7L1.7,.0" stroke-width="1" id="shape139" fill="none" transform="translate(369.24,150.42)" stroke="#000000"/><path d="M.0,.7L1.7,.0" stroke-width="1" id="shape140" fill="none" transform="translate(372.63,149.26)" stroke="#000000"/><path d="M.0,.5L1.7,.0" stroke-width="1" id="shape141" fill="none" transform="translate(376.03,148.11)" stroke="#000000"/><path d="M.0,.7L1.7,.0" stroke-width="1" id="shape142" fill="none" transform="translate(379.42,146.79)" stroke="#000000"/><path d="M.0,.7L1.7,.0" stroke-width="1" id="shape143" fill="none" transform="translate(382.82,145.64)" stroke="#000000"/><path d="M.0,.5L1.7,.0" stroke-width="1" id="shape144" fill="none" transform="translate(386.21,144.49)" stroke="#000000"/><path d="M.0,.7L1.7,.0" stroke-width="1" id="shape145" fill="none" transform="translate(389.61,143.17)" stroke="#000000"/><path d="M.0,.7L1.7,.0" stroke-width="1" id="shape146" fill="none" transform="translate(393.00,142.02)" stroke="#000000"/><path d="M.0,.5L1.7,.0" stroke-width="1" id="shape147" fill="none" transform="translate(396.40,140.87)" stroke="#000000"/><path d="M.0,.7L1.7,.0" stroke-width="1" id="shape148" fill="none" transform="translate(399.79,139.55)" stroke="#000000"/><path d="M.0,.2L.3,.0" stroke-width="1" id="shape149" fill="none" transform="translate(403.19,138.89)" stroke="#000000"/></g></svg>