<svg xmlns:xlink="http://www.w3.org/1999/xlink" xmlns:ev="http://www.w3.org/2001/xml-events" xmlns="http://www.w3.org/2000/svg" viewBox="0 0 621 333" height="333" width="621"><defs/><g transform="translate(5.5,5.5)" id="page1"><rect height="323" width="611" fill="#ffffff" x="0" y="0"/><path transform="translate(109.03,58.08)" fill="none" stroke-width="1" id="shape1" stroke="#000000" d="M.0,.0L124.7,.0L124.7,223.0L.0,223.0L.0,.0z"/><path transform="translate(65.66,58.08)" fill="none" stroke-width="1" id="shape2" stroke="#000000" d="M.0,.0L30.6,.0"/><path transform="translate(78.80,64.05)" fill="none" stroke-width="1" id="shape3" stroke="#000000" d="M.0,.0L.0,133.9"/><path transform="translate(75.73,58.08)" fill="#000000" fill-rule="evenodd" id="shape4" d="M3.1,7.7L.0,7.7L3.1,.0L6.1,7.7L3.1,7.7z"/><path transform="translate(75.73,190.27)" fill="#000000" fill-rule="evenodd" id="shape5" d="M3.1,.0L6.1,.0L3.1,7.7L.0,.0L3.1,.0z"/><g transform="translate(136.74,167.82)" id="shape6"><text xml:space="preserve" style="fill:#000000;font-family:Arial;font-size:10.00pt"><tspan x="-0.5" y="14.4">RW section</tspan></text></g><g transform="translate(139.36,213.04)" id="shape7"><text xml:space="preserve" style="fill:#000000;font-family:Arial;font-size:10.00pt"><tspan x="-0.3" y="12.6">RO section</tspan></text></g><g transform="translate(467.26,252.45)" id="shape8"><text xml:space="preserve" style="fill:#000000;font-family:Arial;font-size:10.00pt"><tspan x="-0.2" y="12.6">XO section</tspan></text></g><g transform="translate(288.89,267.57)" id="shape9"><text xml:space="preserve" style="fill:#000000;font-family:Microsoft YaHei;font-size:10.00pt"><tspan x="-0.1" y="13.1">0x00000</tspan></text></g><g transform="translate(462.20,39.00)" id="shape10"><text xml:space="preserve" style="fill:#000000;font-family:Arial;font-size:10.00pt"><tspan x="-0.2" y="14.4">Execution view</tspan></text></g><g transform="translate(144.27,40.80)" id="shape11"><text xml:space="preserve" style="fill:#000000;font-family:Arial;font-size:10.00pt"><tspan x="-0.0" y="12.6">Load view</tspan></text></g><g transform="translate(467.90,160.13)" id="shape12"><text xml:space="preserve" style="fill:#000000;font-family:Arial;font-size:10.00pt"><tspan x="-0.6" y="14.4">RW section</tspan></text></g><path transform="translate(65.66,281.07)" fill="none" stroke-width="1" id="shape13" stroke="#000000" d="M.0,.0L30.6,.0"/><path transform="translate(65.66,197.93)" fill="none" stroke-width="1" id="shape14" stroke="#000000" d="M.0,.0L30.6,.0"/><path transform="translate(78.80,197.93)" fill="none" stroke-width="1" id="shape15" stroke="#000000" d="M.0,.0L.0,83.1"/><path transform="translate(75.73,197.83)" fill="#000000" fill-rule="evenodd" id="shape16" d="M3.1,7.7L.0,7.7L3.1,.0L6.1,7.7L3.1,7.7z"/><path transform="translate(75.73,231.94)" fill="#000000" fill-rule="evenodd" id="shape17" d="M3.1,.0L6.1,.0L3.1,7.7L.0,.0L3.1,.0z"/><g transform="translate(42.00,213.04)" id="shape18"><text xml:space="preserve" style="fill:#000000;font-family:Arial;font-size:10.00pt"><tspan x="-0.6" y="12.6">ROM</tspan></text></g><g transform="translate(471.29,120.17)" id="shape19"><text xml:space="preserve" style="fill:#000000;font-family:Arial;font-size:10.00pt"><tspan x="-0.3" y="14.4">ZI section</tspan></text></g><path transform="translate(432.75,197.93)" fill="none" stroke-width="1" id="shape20" stroke="#000000" d="M.0,.0L138.9,.0L138.9,41.6L.0,41.6L.0,.0z"/><path transform="translate(432.75,58.08)" fill="none" stroke-width="1" id="shape21" stroke="#000000" d="M.0,.0L138.9,.0L138.9,223.2L.0,223.2L.0,.0z"/><path transform="translate(432.75,109.11)" fill="none" stroke-width="1" id="shape22" stroke="#000000" d="M.0,.0L138.9,.0L138.9,39.7L.0,39.7L.0,.0z"/><g transform="translate(288.89,176.28)" id="shape23"><text xml:space="preserve" style="fill:#000000;font-family:Microsoft YaHei;font-size:10.00pt"><tspan x="-0.1" y="12.0">0x08000</tspan></text></g><path stroke-dasharray="11,5" transform="translate(233.76,58.08)" fill="none" stroke-width="1" id="shape24" stroke="#000000" d="M200.3,.0L.0,.0"/><g transform="translate(288.89,40.80)" id="shape25"><text xml:space="preserve" style="fill:#000000;font-family:Microsoft YaHei;font-size:10.00pt"><tspan x="-0.1" y="13.1">0x0FFFF</tspan></text></g><g transform="translate(288.89,137.45)" id="shape26"><text xml:space="preserve" style="fill:#000000;font-family:Microsoft YaHei;font-size:10.00pt"><tspan x="-0.1" y="13.1">0x0A000</tspan></text></g><g transform="translate(288.89,224.38)" id="shape27"><text xml:space="preserve" style="fill:#000000;font-family:Microsoft YaHei;font-size:10.00pt"><tspan x="-0.1" y="13.1">0x06000</tspan></text></g><g transform="translate(42.00,123.95)" id="shape28"><text xml:space="preserve" style="fill:#000000;font-family:Arial;font-size:10.00pt"><tspan x="-0.6" y="11.8">RAM</tspan></text></g><path transform="translate(336.01,111.18)" fill="none" stroke-width="1" id="shape29" stroke="#000000" d="M.0,.0C40.3,2.6,32.6,16.5,86.8,17.4"/><path transform="translate(422.26,125.47)" fill="#000000" fill-rule="evenodd" id="shape30" d="M.1,3.1L.1,.0L7.7,3.2L.0,6.1L.1,3.1z"/><g transform="translate(279.78,93.71)" id="shape31"><text xml:space="preserve" style="fill:#000000;font-family:Arial;font-size:10.00pt"><tspan x="-0.3" y="2.2">Memory </tspan><tspan x="-0.3" y="18.2">initialized</tspan><tspan x="-0.3" y="34.2">to zero</tspan></text></g><path stroke-dasharray="11,5" transform="translate(363.30,186.59)" fill="none" stroke-width="1" id="shape32" stroke="#000000" d="M69.4,.0L.0,.0"/><path stroke-dasharray="11,5" transform="translate(233.76,239.50)" fill="none" stroke-width="1" id="shape33" stroke="#000000" d="M200.3,.0L.0,.0"/><path stroke-dasharray="11,5" transform="translate(229.36,281.07)" fill="none" stroke-width="1" id="shape34" stroke="#000000" d="M203.4,.0L.0,.0"/><path stroke-dasharray="11,5" transform="translate(363.30,148.38)" fill="none" stroke-width="1" id="shape35" stroke="#000000" d="M69.4,.0L.0,.0"/><path transform="translate(109.03,197.93)" fill="none" stroke-width="1" id="shape36" stroke="#000000" d="M.0,.0L124.7,.0L124.7,41.6L.0,41.6L.0,.0z"/><g transform="translate(139.36,250.84)" id="shape37"><text xml:space="preserve" style="fill:#000000;font-family:Arial;font-size:10.00pt"><tspan x="-0.3" y="14.4">XO section</tspan></text></g><path transform="translate(109.03,239.50)" fill="none" stroke-width="1" id="shape38" stroke="#000000" d="M.0,.0L124.7,.0L124.7,41.6L.0,41.6L.0,.0z"/><path transform="translate(109.03,155.88)" fill="none" stroke-width="1" id="shape39" stroke="#000000" d="M.0,.0L124.7,.0L124.7,42.0L.0,42.0L.0,.0z"/><path transform="translate(432.65,148.79)" fill="none" stroke-width="1" id="shape40" stroke="#000000" d="M.0,.0L138.9,.0L138.9,37.8L.0,37.8L.0,.0z"/><g transform="translate(467.26,211.15)" id="shape41"><text xml:space="preserve" style="fill:#000000;font-family:Arial;font-size:10.00pt"><tspan x="-0.2" y="12.6">RO section</tspan></text></g><path transform="translate(75.73,273.42)" fill="#000000" fill-rule="evenodd" id="shape42" d="M3.1,.0L6.1,.0L3.1,7.7L.0,.0L3.1,.0z"/><path transform="translate(67.46,239.50)" fill="none" stroke-width="1" id="shape43" stroke="#000000" d="M.0,.0L30.6,.0"/><g transform="translate(41.93,250.84)" id="shape44"><text xml:space="preserve" style="fill:#000000;font-family:Arial;font-size:10.00pt"><tspan x="-0.3" y="14.4">XOM</tspan></text></g><path transform="translate(237.53,258.40)" fill="none" stroke-width="1" id="shape45" stroke="#000000" d="M.0,.0L185.0,.0"/><path transform="translate(237.53,220.60)" fill="none" stroke-width="1" id="shape46" stroke="#000000" d="M.0,.0L185.0,.0"/><path transform="translate(237.53,171.47)" fill="none" stroke-width="1" id="shape47" stroke="#000000" d="M.0,.0L185.0,.0"/><path transform="translate(422.73,217.54)" fill="#000000" fill-rule="evenodd" id="shape48" d="M.1,3.1L.1,.0L7.7,3.2L.0,6.1L.1,3.1z"/><path transform="translate(422.58,168.41)" fill="#000000" fill-rule="evenodd" id="shape49" d="M.1,3.1L.1,.0L7.7,3.2L.0,6.1L.1,3.1z"/><path transform="translate(422.58,255.34)" fill="#000000" fill-rule="evenodd" id="shape50" d="M.1,3.1L.1,.0L7.7,3.2L.0,6.1L.1,3.1z"/><path stroke-dasharray="11,5" transform="translate(364.62,197.93)" fill="none" stroke-width="1" id="shape51" stroke="#000000" d="M69.4,.0L.0,.0"/></g></svg>