<svg xmlns:xlink="http://www.w3.org/1999/xlink" xmlns:ev="http://www.w3.org/2001/xml-events" xmlns="http://www.w3.org/2000/svg" height="334" width="621" viewBox="0 0 621 334"><defs/><g transform="translate(5.5,5.5)" id="page1"><rect x="0" fill="#ffffff" height="324" width="611" y="0"/><path transform="translate(248.77,162.39)" fill="none" stroke-width="1" id="shape1" d="M.0,48.0C40.3,50.6,109.9,.0,164.1,.9" stroke="#000000"/><path transform="translate(412.34,160.19)" fill-rule="evenodd" fill="#000000" id="shape2" d="M.1,3.1L.1,.0L7.7,3.2L.0,6.1L.1,3.1z"/><path transform="translate(110.30,188.07)" fill="none" stroke-width="1" id="shape3" d="M.0,.0L124.0,.0L124.0,49.6L.0,49.6L.0,.0z" stroke="#000000"/><path transform="translate(110.30,59.09)" fill="none" stroke-width="1" id="shape4" d="M.0,.0L124.0,.0L124.0,223.2L.0,223.2L.0,.0z" stroke="#000000"/><path transform="translate(65.66,59.09)" fill="none" stroke-width="1" id="shape5" d="M.0,.0L30.6,.0" stroke="#000000"/><path transform="translate(80.54,64.05)" fill="none" stroke-width="1" id="shape6" d="M.0,.0L.0,119.1" stroke="#000000"/><path transform="translate(77.48,56.90)" fill-rule="evenodd" fill="#000000" id="shape7" d="M3.1,7.7L.0,7.7L3.1,.0L6.1,7.7L3.1,7.7z"/><path transform="translate(77.48,182.60)" fill-rule="evenodd" fill="#000000" id="shape8" d="M3.1,.0L6.1,.0L3.1,7.7L.0,.0L3.1,.0z"/><g transform="translate(144.99,207.10)" id="shape9"><text style="fill:#000000;font-family:Arial;font-size:8.00pt" xml:space="preserve"><tspan x="-0.2" y="13.4">RW section</tspan></text></g><g transform="translate(143.36,252.45)" id="shape10"><text style="fill:#000000;font-family:Arial;font-size:8.00pt" xml:space="preserve"><tspan x="-0.4" y="13.4">RO section</tspan></text></g><g transform="translate(472.87,252.45)" id="shape11"><text style="fill:#000000;font-family:Arial;font-size:8.00pt" xml:space="preserve"><tspan x="-0.2" y="11.6">RO section</tspan></text></g><g transform="translate(288.89,267.57)" id="shape12"><text style="fill:#000000;font-family:Arial;font-size:8.00pt" xml:space="preserve"><tspan x="-0.2" y="11.6">0x00000</tspan></text></g><g transform="translate(462.20,39.00)" id="shape13"><text style="fill:#000000;font-family:Arial;font-size:8.00pt" xml:space="preserve"><tspan x="-0.1" y="13.4">Execution view</tspan></text></g><g transform="translate(144.27,40.80)" id="shape14"><text style="fill:#000000;font-family:Arial;font-size:8.00pt" xml:space="preserve"><tspan x="-0.3" y="11.6">Load view</tspan></text></g><g transform="translate(476.04,161.74)" id="shape15"><text style="fill:#000000;font-family:Arial;font-size:8.00pt" xml:space="preserve"><tspan x="-0.4" y="13.4">RW section</tspan></text></g><path transform="translate(65.66,282.32)" fill="none" stroke-width="1" id="shape16" d="M.0,.0L30.6,.0" stroke="#000000"/><path transform="translate(65.66,188.07)" fill="none" stroke-width="1" id="shape17" d="M.0,.0L30.6,.0" stroke="#000000"/><path transform="translate(80.54,193.03)" fill="none" stroke-width="1" id="shape18" d="M.0,.0L.0,84.3" stroke="#000000"/><path transform="translate(77.48,185.88)" fill-rule="evenodd" fill="#000000" id="shape19" d="M3.1,7.7L.0,7.7L3.1,.0L6.1,7.7L3.1,7.7z"/><path transform="translate(77.48,276.85)" fill-rule="evenodd" fill="#000000" id="shape20" d="M3.1,.0L6.1,.0L3.1,7.7L.0,.0L3.1,.0z"/><g transform="translate(42.00,226.54)" id="shape21"><text style="fill:#000000;font-family:Arial;font-size:8.00pt" xml:space="preserve"><tspan x="-0.3" y="11.3">ROM</tspan></text></g><g transform="translate(476.65,120.17)" id="shape22"><text style="fill:#000000;font-family:Arial;font-size:8.00pt" xml:space="preserve"><tspan x="-0.2" y="13.4">ZI section</tspan></text></g><path transform="translate(432.75,188.07)" fill="none" stroke-width="1" id="shape23" d="M.0,.0L138.9,.0L138.9,49.6L.0,49.6L.0,.0z" stroke="#000000"/><path transform="translate(432.75,59.09)" fill="none" stroke-width="1" id="shape24" d="M.0,.0L138.9,.0L138.9,223.2L.0,223.2L.0,.0z" stroke="#000000"/><path transform="translate(432.75,108.70)" fill="none" stroke-width="1" id="shape25" d="M.0,.0L138.9,.0L138.9,39.7L.0,39.7L.0,.0z" stroke="#000000"/><g transform="translate(288.89,173.08)" id="shape26"><text style="fill:#000000;font-family:Arial;font-size:8.00pt" xml:space="preserve"><tspan x="-0.0" y="10.5">0x08000</tspan></text></g><path transform="translate(214.48,59.09)" fill="none" stroke-width="1" stroke-dasharray="11,5" id="shape27" d="M262.9,.0L.0,.0" stroke="#000000"/><g transform="translate(302.79,40.80)" id="shape28"><text style="fill:#000000;font-family:Arial;font-size:8.00pt" xml:space="preserve"><tspan x="-0.3" y="11.6">0x0FFFF</tspan></text></g><g transform="translate(288.89,135.29)" id="shape29"><text style="fill:#000000;font-family:Arial;font-size:8.00pt" xml:space="preserve"><tspan x="-0.0" y="11.6">0x0A000</tspan></text></g><g transform="translate(288.89,222.22)" id="shape30"><text style="fill:#000000;font-family:Arial;font-size:8.00pt" xml:space="preserve"><tspan x="-0.0" y="11.6">0x06000</tspan></text></g><g transform="translate(42.00,123.95)" id="shape31"><text style="fill:#000000;font-family:Arial;font-size:8.00pt" xml:space="preserve"><tspan x="-0.2" y="10.8">RAM</tspan></text></g><path transform="translate(336.01,111.18)" fill="none" stroke-width="1" id="shape32" d="M.0,.0C40.3,2.6,32.6,16.5,86.8,17.4" stroke="#000000"/><path transform="translate(422.26,125.47)" fill-rule="evenodd" fill="#000000" id="shape33" d="M.1,3.1L.1,.0L7.7,3.2L.0,6.1L.1,3.1z"/><g transform="translate(279.78,93.71)" id="shape34"><text style="fill:#000000;font-family:Arial;font-size:8.00pt" xml:space="preserve"><tspan x="-0.3" y="10.2">Memory initialized</tspan><tspan x="-0.3" y="24.2">to zero</tspan></text></g><path transform="translate(363.30,188.07)" fill="none" stroke-width="1" stroke-dasharray="11,5" id="shape35" d="M69.4,.0L.0,.0" stroke="#000000"/><path transform="translate(224.40,237.67)" fill="none" stroke-width="1" stroke-dasharray="11,5" id="shape36" d="M223.2,.0L.0,.0" stroke="#000000"/><path transform="translate(229.36,282.32)" fill="none" stroke-width="1" stroke-dasharray="11,5" id="shape37" d="M203.4,.0L.0,.0" stroke="#000000"/><path transform="translate(363.30,148.38)" fill="none" stroke-width="1" stroke-dasharray="11,5" id="shape38" d="M69.4,.0L.0,.0" stroke="#000000"/></g></svg>