<svg xmlns="http://www.w3.org/2000/svg" width="320mm" height="170mm" viewBox="0 0 907.09 481.89"><defs><style>.cls-1,.cls-19,.cls-38{font-size:18px;}.cls-1,.cls-19,.cls-38,.cls-5,.cls-52{fill:#333e48;}.cls-1{font-family:CourierNewPSMT, Courier New;}.cls-19,.cls-2,.cls-3,.cls-38,.cls-4,.cls-5{font-family:Lato-Medium, Lato;font-weight:500;}.cls-20,.cls-3{letter-spacing:-0.01em;}.cls-4{letter-spacing:-0.01em;}.cls-5{font-size:20px;}.cls-6{letter-spacing:-0.01em;}.cls-7{letter-spacing:-0.02em;}.cls-8{letter-spacing:0em;}.cls-9{letter-spacing:-0.01em;}.cls-10{letter-spacing:-0.01em;}.cls-11{letter-spacing:-0.02em;}.cls-12{letter-spacing:-0.02em;}.cls-13{letter-spacing:-0.01em;}.cls-14{letter-spacing:-0.02em;}.cls-15{letter-spacing:-0.01em;}.cls-16{letter-spacing:-0.02em;}.cls-17{letter-spacing:-0.03em;}.cls-18{letter-spacing:0em;}.cls-21{letter-spacing:-0.01em;}.cls-22{letter-spacing:-0.01em;}.cls-23{letter-spacing:-0.01em;}.cls-24{letter-spacing:0em;}.cls-25{letter-spacing:0em;}.cls-26{letter-spacing:-0.02em;}.cls-27{letter-spacing:-0.02em;}.cls-28{letter-spacing:-0.04em;}.cls-29{letter-spacing:-0.02em;}.cls-30{letter-spacing:-0.02em;}.cls-31{letter-spacing:-0.02em;}.cls-32{letter-spacing:0em;}.cls-33{letter-spacing:-0.01em;}.cls-34{letter-spacing:-0.02em;}.cls-35{letter-spacing:-0.03em;}.cls-36{letter-spacing:-0.01em;}.cls-37{letter-spacing:-0.02em;}.cls-38{letter-spacing:0em;}.cls-39{letter-spacing:0em;}.cls-40{letter-spacing:-0.01em;}.cls-41{letter-spacing:0em;}.cls-42{letter-spacing:-0.01em;}.cls-43{letter-spacing:-0.02em;}.cls-44{letter-spacing:0em;}.cls-45{letter-spacing:-0.01em;}.cls-46{letter-spacing:-0.01em;}.cls-47{letter-spacing:0em;}.cls-48{letter-spacing:-0.02em;}.cls-49{letter-spacing:-0.04em;}.cls-50{letter-spacing:-0.02em;}.cls-51{fill:none;stroke:#333e48;stroke-miterlimit:10;}</style></defs><g id="Diagrams"><text class="cls-1" transform="translate(83.27 141.73)">STR R12, [R1] <tspan class="cls-2" x="151.22" y="0">@</tspan><tspan class="cls-3" x="166.32" y="0">A</tspan><tspan class="cls-4" x="178.34" y="0">cc</tspan><tspan class="cls-2" x="195.24" y="0">ess 1</tspan></text><text class="cls-1" transform="translate(83.27 197.54)">LDR R0, [SP], #4 <tspan class="cls-2" x="183.63" y="0">@</tspan><tspan class="cls-3" x="198.72" y="0">A</tspan><tspan class="cls-4" x="210.75" y="0">cc</tspan><tspan class="cls-2" x="227.65" y="0">ess 2</tspan></text><text class="cls-1" transform="translate(83.27 253.35)">LDR R2, [R3, #8] <tspan class="cls-2" x="183.63" y="0">@</tspan><tspan class="cls-3" x="198.72" y="0">A</tspan><tspan class="cls-4" x="210.75" y="0">cc</tspan><tspan class="cls-2" x="227.65" y="0">ess 3</tspan></text><text class="cls-5" transform="translate(85.05 77.42)"><tspan class="cls-6">P</tspan><tspan class="cls-7" x="11.92" y="0">r</tspan><tspan class="cls-8" x="18.87" y="0">o</tspan><tspan x="30.19" y="0">g</tspan><tspan class="cls-9" x="40.63" y="0">r</tspan><tspan x="47.8" y="0">am </tspan><tspan class="cls-10" x="79.37" y="0">O</tspan><tspan class="cls-11" x="95.23" y="0">r</tspan><tspan x="102.2" y="0">de</tspan><tspan class="cls-12" x="124.03" y="0">r</tspan><tspan x="130.94" y="0"> </tspan><tspan class="cls-13" x="135.99" y="0">o</tspan><tspan class="cls-14" x="147.14" y="0">f</tspan><tspan x="153.82" y="0"> </tspan><tspan class="cls-15" x="158.87" y="0">I</tspan><tspan x="164.4" y="0">nstructions</tspan></text><text class="cls-5" transform="translate(439.37 77.42)"><tspan class="cls-15">I</tspan><tspan x="5.53" y="0">nstruction E</tspan><tspan class="cls-16" x="112" y="0">x</tspan><tspan x="121.63" y="0">ecution</tspan><tspan class="cls-17" x="187.65" y="0"> </tspan><tspan class="cls-18" x="192.1" y="0">T</tspan><tspan x="203.89" y="0">imeline</tspan></text><text class="cls-19" transform="translate(439.38 143.02)"><tspan class="cls-20">A</tspan><tspan class="cls-21" x="12.02" y="0">cc</tspan><tspan x="28.93" y="0">ess 1 </tspan><tspan class="cls-22" x="73.63" y="0">g</tspan><tspan x="82.88" y="0">oes i</tspan><tspan class="cls-23" x="119.4" y="0">n</tspan><tspan class="cls-24" x="129.35" y="0">t</tspan><tspan class="cls-25" x="135.81" y="0">o</tspan><tspan class="cls-26" x="146.05" y="0"> </tspan><tspan x="150.23" y="0">wri</tspan><tspan class="cls-24" x="175.42" y="0">t</tspan><tspan x="181.88" y="0">e buf</tspan><tspan class="cls-27" x="222.48" y="0">f</tspan><tspan x="228.54" y="0">e</tspan><tspan class="cls-28" x="238.07" y="0">r</tspan><tspan x="243.96" y="0">.</tspan></text><text class="cls-19" transform="translate(439.38 369.79)"><tspan class="cls-29">M</tspan><tspan x="16.51" y="0">emor</tspan><tspan class="cls-30" x="57.75" y="0">y</tspan><tspan x="66.64" y="0" xml:space="preserve"> s</tspan><tspan class="cls-24" x="79.01" y="0">t</tspan><tspan x="85.47" y="0">o</tspan><tspan class="cls-31" x="95.71" y="0">r</tspan><tspan x="101.97" y="0">e tri</tspan><tspan class="cls-32" x="133.54" y="0">g</tspan><tspan class="cls-22" x="142.91" y="0">g</tspan><tspan x="152.16" y="0">e</tspan><tspan class="cls-31" x="161.69" y="0">r</tspan><tspan class="cls-25" x="167.95" y="0">ed </tspan><tspan class="cls-33" x="192.14" y="0">b</tspan><tspan class="cls-34" x="202.01" y="0">y</tspan><tspan class="cls-35" x="210.9" y="0"> </tspan><tspan class="cls-36" x="214.85" y="0">A</tspan><tspan class="cls-21" x="226.87" y="0">cc</tspan><tspan x="243.77" y="0">ess 1 is per</tspan><tspan class="cls-37" x="331.48" y="0">f</tspan><tspan x="337.54" y="0">ormed.</tspan></text><text class="cls-38" transform="translate(362.98 426.49)">T<tspan class="cls-39" x="10.61" y="0">ime</tspan></text><text class="cls-19" transform="translate(439.38 324.44)">Cache lin<tspan class="cls-40" x="72.5" y="0">e</tspan><tspan x="81.93" y="0">fill tri</tspan><tspan class="cls-41" x="123.31" y="0">g</tspan><tspan class="cls-42" x="132.67" y="0">g</tspan><tspan x="141.93" y="0">e</tspan><tspan class="cls-43" x="151.46" y="0">r</tspan><tspan x="157.71" y="0">ed </tspan><tspan class="cls-20" x="181.9" y="0">b</tspan><tspan class="cls-34" x="191.78" y="0">y</tspan><tspan class="cls-35" x="200.67" y="0"> </tspan><tspan class="cls-36" x="204.61" y="0">A</tspan><tspan class="cls-21" x="216.63" y="0">cc</tspan><tspan x="233.54" y="0">ess 2 </tspan><tspan class="cls-31" x="278.24" y="0">r</tspan><tspan class="cls-44" x="284.49" y="0">e</tspan><tspan x="293.95" y="0">turns d</tspan><tspan class="cls-45" x="349.68" y="0">a</tspan><tspan x="358.55" y="0">ta.</tspan></text><text class="cls-19" transform="translate(439.38 279.08)"><tspan class="cls-20">A</tspan><tspan class="cls-21" x="12.02" y="0">cc</tspan><tspan x="28.93" y="0">ess 3 </tspan><tspan class="cls-31" x="73.63" y="0">r</tspan><tspan class="cls-44" x="79.88" y="0">e</tspan><tspan x="89.34" y="0">turns d</tspan><tspan class="cls-46" x="145.07" y="0">a</tspan><tspan x="153.94" y="0">ta i</tspan><tspan class="cls-23" x="178.38" y="0">n</tspan><tspan class="cls-24" x="188.32" y="0">t</tspan><tspan x="194.78" y="0">o</tspan><tspan class="cls-35" x="205.03" y="0"> </tspan><tspan class="cls-47" x="208.97" y="0">A</tspan><tspan x="221.2" y="0">rm </tspan><tspan class="cls-48" x="247.22" y="0">r</tspan><tspan x="253.47" y="0">egis</tspan><tspan class="cls-24" x="284.6" y="0">t</tspan><tspan x="291.06" y="0">e</tspan><tspan class="cls-49" x="300.6" y="0">r</tspan><tspan x="306.48" y="0">.</tspan></text><text class="cls-19" transform="translate(439.38 233.73)"><tspan class="cls-20">A</tspan><tspan class="cls-21" x="12.02" y="0">cc</tspan><tspan x="28.93" y="0">ess 3 causes a cache lookup</tspan><tspan class="cls-50" x="249.14" y="0"> </tspan><tspan x="253.32" y="0">which hits.</tspan></text><text class="cls-19" transform="translate(439.38 188.38)"><tspan class="cls-20">A</tspan><tspan class="cls-21" x="12.02" y="0">cc</tspan><tspan x="28.93" y="0">ess 2 causes a cache lookup</tspan><tspan class="cls-50" x="249.14" y="0"> </tspan><tspan x="253.32" y="0">which misses.</tspan></text><line class="cls-51" x1="382.68" y1="113.39" x2="382.68" y2="391.11"/><polygon class="cls-52" points="378.69 389.94 382.68 396.85 386.67 389.94 378.69 389.94"/><line class="cls-51" x1="382.68" y1="136.42" x2="421.23" y2="136.42"/><polygon class="cls-52" points="420.07 140.41 426.97 136.42 420.07 132.43 420.07 140.41"/><line class="cls-51" x1="382.68" y1="181.77" x2="421.23" y2="181.77"/><polygon class="cls-52" points="420.07 185.76 426.97 181.77 420.07 177.78 420.07 185.76"/><line class="cls-51" x1="382.68" y1="227.13" x2="421.23" y2="227.13"/><polygon class="cls-52" points="420.07 231.12 426.97 227.13 420.07 223.14 420.07 231.12"/><line class="cls-51" x1="382.68" y1="272.48" x2="421.23" y2="272.48"/><polygon class="cls-52" points="420.07 276.47 426.97 272.48 420.07 268.49 420.07 276.47"/><line class="cls-51" x1="382.68" y1="317.83" x2="421.23" y2="317.83"/><polygon class="cls-52" points="420.07 321.82 426.97 317.83 420.07 313.85 420.07 321.82"/><line class="cls-51" x1="382.68" y1="363.19" x2="421.23" y2="363.19"/><polygon class="cls-52" points="420.07 367.18 426.97 363.19 420.07 359.2 420.07 367.18"/></g></svg>