<svg xmlns:xlink="http://www.w3.org/1999/xlink" xmlns:ev="http://www.w3.org/2001/xml-events" xmlns="http://www.w3.org/2000/svg" viewBox="0 0 654 469" height="469" width="654"><defs/><g id="page1" transform="translate(5.5,5.5)"><rect height="459" y="0" width="644" x="0" fill="#ffffff"/><g id="shape1" transform="translate(263.90,38.67)"><text xml:space="preserve" style="fill:#000000;font-family:Arial;font-size:8.00pt"><tspan y="14.7" x="28.7">Linker view</tspan></text></g><g id="shape2" transform="translate(472.40,38.67)"><text xml:space="preserve" style="fill:#000000;font-family:Arial;font-size:8.00pt"><tspan y="14.7" x="9.7">ELF object file view</tspan></text></g><g id="shape3" transform="translate(245.00,136.26)"><path stroke-width="1" d="M.0,132.3L151.2,132.3L151.2,.0L.0,.0L.0,132.3z" stroke="#000000" fill="none"/><text xml:space="preserve" style="fill:#000000;font-family:Arial;font-size:8.00pt"><tspan y="15.0" x="41.1">Load Region 1</tspan></text></g><g id="shape4" transform="translate(245.00,381.93)"><path stroke-width="1" d="M.0,37.8L151.2,37.8L151.2,.0L.0,.0L.0,37.8z" stroke="#000000" fill="none"/><text xml:space="preserve" style="fill:#000000;font-family:Arial;font-size:8.00pt"><tspan y="15.9" x="24.6">Section Header Table </tspan><tspan y="29.9" x="53.1">(optional)</tspan></text></g><g id="shape5" transform="translate(245.00,60.67)"><path stroke-width="1" d="M.0,37.8L151.2,37.8L151.2,.0L.0,.0L.0,37.8z" stroke="#000000" fill="none"/><text xml:space="preserve" style="fill:#000000;font-family:Arial;font-size:8.00pt"><tspan y="22.9" x="47.6">ELF Header</tspan></text></g><g id="shape6" transform="translate(245.00,268.55)"><path stroke-width="1" d="M.0,94.5L151.2,94.5L151.2,.0L.0,.0L.0,94.5z" stroke="#000000" fill="none"/><text xml:space="preserve" style="fill:#000000;font-family:Arial;font-size:8.00pt"><tspan y="15.0" x="41.1">Load Region 2</tspan></text></g><g id="shape7" transform="translate(453.50,381.93)"><path stroke-width="1" d="M.0,37.8L151.2,37.8L151.2,.0L.0,.0L.0,37.8z" stroke="#000000" fill="none"/><text xml:space="preserve" style="fill:#000000;font-family:Arial;font-size:8.00pt"><tspan y="22.9" x="24.6">Section Header Table</tspan></text></g><g id="shape8" transform="translate(453.50,60.67)"><path stroke-width="1" d="M.0,37.8L151.2,37.8L151.2,.0L.0,.0L.0,37.8z" stroke="#000000" fill="none"/><text xml:space="preserve" style="fill:#000000;font-family:Arial;font-size:8.00pt"><tspan y="22.9" x="47.6">ELF Header</tspan></text></g><g id="shape9" transform="translate(245.00,98.47)"><path stroke-width="1" d="M.0,37.8L151.2,37.8L151.2,.0L.0,.0L.0,37.8z" stroke="#000000" fill="none"/><text xml:space="preserve" style="fill:#000000;font-family:Arial;font-size:8.00pt"><tspan y="22.9" x="22.6">Program Header Table</tspan></text></g><g id="shape10" transform="translate(453.50,98.47)"><path stroke-width="1" d="M.0,37.8L151.2,37.8L151.2,.0L.0,.0L.0,37.8z" stroke="#000000" fill="none"/><text xml:space="preserve" style="fill:#000000;font-family:Arial;font-size:8.00pt"><tspan y="15.9" x="22.6">Program Header Table </tspan><tspan y="29.9" x="53.1">(optional)</tspan></text></g><g id="shape11" transform="translate(453.50,136.26)"><path stroke-width="1" d="M.0,18.9L151.2,18.9L151.2,.0L.0,.0L.0,18.9z" stroke="#000000" fill="none"/><text xml:space="preserve" style="fill:#000000;font-family:Arial;font-size:8.00pt"><tspan y="13.4" x="31.1">Input Section 1.1.1</tspan></text></g><g id="shape12" transform="translate(453.50,192.96)"><path stroke-width="1" d="M.0,18.9L151.2,18.9L151.2,.0L.0,.0L.0,18.9z" stroke="#000000" fill="none"/><text xml:space="preserve" style="fill:#000000;font-family:Arial;font-size:8.00pt"><tspan y="13.4" x="31.1">Input Section 1.2.1</tspan></text></g><g id="shape13" transform="translate(453.50,230.75)"><path stroke-width="1" d="M.0,18.9L151.2,18.9L151.2,.0L.0,.0L.0,18.9z" stroke="#000000" fill="none"/><text xml:space="preserve" style="fill:#000000;font-family:Arial;font-size:8.00pt"><tspan y="13.4" x="31.1">Input Section 1.3.1</tspan></text></g><g id="shape14" transform="translate(453.50,155.16)"><path stroke-width="1" d="M.0,18.9L151.2,18.9L151.2,.0L.0,.0L.0,18.9z" stroke="#000000" fill="none"/><text xml:space="preserve" style="fill:#000000;font-family:Arial;font-size:8.00pt"><tspan y="13.4" x="31.1">Input Section 1.1.2</tspan></text></g><g id="shape15" transform="translate(245.00,363.03)"><path stroke-width="1" d="M.0,18.9L151.2,18.9L151.2,.0L.0,.0L.0,18.9z" stroke="#000000" fill="none"/><text xml:space="preserve" style="fill:#000000;font-family:Arial;font-size:8.00pt"><tspan y="13.4" x="71.1">...</tspan></text></g><g id="shape16" transform="translate(453.50,211.85)"><path stroke-width="1" d="M.0,18.9L151.2,18.9L151.2,.0L.0,.0L.0,18.9z" stroke="#000000" fill="none"/><text xml:space="preserve" style="fill:#000000;font-family:Arial;font-size:8.00pt"><tspan y="13.4" x="71.1">...</tspan></text></g><g id="shape17" transform="translate(263.90,155.16)"><path stroke-width="1" d="M.0,94.5L116.4,94.5L116.4,.0L.0,.0L.0,94.5z" stroke="#000000" fill="none"/><text xml:space="preserve" style="fill:#000000;font-family:Arial;font-size:8.00pt"><tspan y="51.2" x="12.2">Execution Region 1</tspan></text></g><g id="shape18" transform="translate(263.90,287.44)"><path stroke-width="1" d="M.0,66.5L116.4,66.5L116.4,.0L.0,.0L.0,66.5z" stroke="#000000" fill="none"/><text xml:space="preserve" style="fill:#000000;font-family:Arial;font-size:8.00pt"><tspan y="37.2" x="12.2">Execution Region 2</tspan></text></g><g id="shape19" transform="translate(453.50,249.65)"><path stroke-width="1" d="M.0,18.9L151.2,18.9L151.2,.0L.0,.0L.0,18.9z" stroke="#000000" fill="none"/><text xml:space="preserve" style="fill:#000000;font-family:Arial;font-size:8.00pt"><tspan y="13.4" x="31.1">Input Section 1.3.2</tspan></text></g><g id="shape20" transform="translate(453.50,363.03)"><path stroke-width="1" d="M.0,18.9L151.2,18.9L151.2,.0L.0,.0L.0,18.9z" stroke="#000000" fill="none"/><text xml:space="preserve" style="fill:#000000;font-family:Arial;font-size:8.00pt"><tspan y="13.4" x="40.1">Input Section n</tspan></text></g><g id="shape21" transform="translate(453.50,287.44)"><path stroke-width="1" d="M.0,18.9L151.2,18.9L151.2,.0L.0,.0L.0,18.9z" stroke="#000000" fill="none"/><text xml:space="preserve" style="fill:#000000;font-family:Arial;font-size:8.00pt"><tspan y="13.4" x="31.1">Input Section 2.1.1</tspan></text></g><g id="shape22" transform="translate(453.50,268.55)"><path stroke-width="1" d="M.0,18.9L151.2,18.9L151.2,.0L.0,.0L.0,18.9z" stroke="#000000" fill="none"/><text xml:space="preserve" style="fill:#000000;font-family:Arial;font-size:8.00pt"><tspan y="13.4" x="71.1">...</tspan></text></g><g id="shape23" transform="translate(453.50,306.34)"><path stroke-width="1" d="M.0,18.9L151.2,18.9L151.2,.0L.0,.0L.0,18.9z" stroke="#000000" fill="none"/><text xml:space="preserve" style="fill:#000000;font-family:Arial;font-size:8.00pt"><tspan y="13.4" x="31.1">Input Section 2.1.2</tspan></text></g><g id="shape24" transform="translate(453.50,344.14)"><path stroke-width="1" d="M.0,18.9L151.2,18.9L151.2,.0L.0,.0L.0,18.9z" stroke="#000000" fill="none"/><text xml:space="preserve" style="fill:#000000;font-family:Arial;font-size:8.00pt"><tspan y="13.4" x="71.1">...</tspan></text></g><g id="shape25" transform="translate(453.50,325.24)"><path stroke-width="1" d="M.0,18.9L151.2,18.9L151.2,.0L.0,.0L.0,18.9z" stroke="#000000" fill="none"/><text xml:space="preserve" style="fill:#000000;font-family:Arial;font-size:8.00pt"><tspan y="13.4" x="31.1">Input Section 2.1.3</tspan></text></g><g id="shape26" transform="translate(453.50,174.06)"><path stroke-width="1" d="M.0,18.9L151.2,18.9L151.2,.0L.0,.0L.0,18.9z" stroke="#000000" fill="none"/><text xml:space="preserve" style="fill:#000000;font-family:Arial;font-size:8.00pt"><tspan y="13.4" x="71.1">...</tspan></text></g><g id="shape27" transform="translate(57.22,38.67)"><text xml:space="preserve" style="fill:#000000;font-family:Arial;font-size:8.00pt"><tspan y="14.7" x="10.2">ELF image file view</tspan></text></g><g id="shape28" transform="translate(38.32,136.26)"><path stroke-width="1" d="M.0,132.3L151.2,132.3L151.2,.0L.0,.0L.0,132.3z" stroke="#000000" fill="none"/><text xml:space="preserve" style="fill:#000000;font-family:Arial;font-size:8.00pt"><tspan y="15.0" x="5.1">Segment 1 (Load Region 1)</tspan></text></g><g id="shape29" transform="translate(38.32,381.93)"><path stroke-width="1" d="M.0,37.8L151.2,37.8L151.2,.0L.0,.0L.0,37.8z" stroke="#000000" fill="none"/><text xml:space="preserve" style="fill:#000000;font-family:Arial;font-size:8.00pt"><tspan y="15.9" x="24.6">Section Header Table </tspan><tspan y="29.9" x="53.1">(optional)</tspan></text></g><g id="shape30" transform="translate(38.32,60.67)"><path stroke-width="1" d="M.0,37.8L151.2,37.8L151.2,.0L.0,.0L.0,37.8z" stroke="#000000" fill="none"/><text xml:space="preserve" style="fill:#000000;font-family:Arial;font-size:8.00pt"><tspan y="22.9" x="47.6">ELF Header</tspan></text></g><g id="shape31" transform="translate(38.32,268.55)"><path stroke-width="1" d="M.0,94.5L151.2,94.5L151.2,.0L.0,.0L.0,94.5z" stroke="#000000" fill="none"/><text xml:space="preserve" style="fill:#000000;font-family:Arial;font-size:8.00pt"><tspan y="15.0" x="5.1">Segment 2 (Load Region 2)</tspan></text></g><g id="shape32" transform="translate(38.32,98.47)"><path stroke-width="1" d="M.0,37.8L151.2,37.8L151.2,.0L.0,.0L.0,37.8z" stroke="#000000" fill="none"/><text xml:space="preserve" style="fill:#000000;font-family:Arial;font-size:8.00pt"><tspan y="22.9" x="22.6">Program Header Table</tspan></text></g><g id="shape33" transform="translate(38.32,363.03)"><path stroke-width="1" d="M.0,18.9L151.2,18.9L151.2,.0L.0,.0L.0,18.9z" stroke="#000000" fill="none"/><text xml:space="preserve" style="fill:#000000;font-family:Arial;font-size:8.00pt"><tspan y="13.4" x="71.1">...</tspan></text></g><g id="shape34" transform="translate(49.66,164.19)"><path stroke-width="1" d="M.0,34.1L130.0,34.1L130.0,.0L.0,.0L.0,34.1z" stroke="#000000" fill="none"/><text xml:space="preserve" style="fill:#000000;font-family:Arial;font-size:8.00pt"><tspan y="21.1" x="18.0">Output sections 1.1</tspan></text></g><g id="shape35" transform="translate(49.66,294.96)"><path stroke-width="1" d="M.0,55.2L130.0,55.2L130.0,.0L.0,.0L.0,55.2z" stroke="#000000" fill="none"/><text xml:space="preserve" style="fill:#000000;font-family:Arial;font-size:8.00pt"><tspan y="31.6" x="21.0">Output section 2.1</tspan></text></g><g id="shape36" transform="translate(49.66,198.09)"><path stroke-width="1" d="M.0,27.9L130.0,27.9L130.0,.0L.0,.0L.0,27.9z" stroke="#000000" fill="none"/><text xml:space="preserve" style="fill:#000000;font-family:Arial;font-size:8.00pt"><tspan y="18.0" x="18.0">Output sections 1.2</tspan></text></g><g id="shape37" transform="translate(49.66,226.03)"><path stroke-width="1" d="M.0,28.9L130.0,28.9L130.0,.0L.0,.0L.0,28.9z" stroke="#000000" fill="none"/><text xml:space="preserve" style="fill:#000000;font-family:Arial;font-size:8.00pt"><tspan y="18.4" x="18.0">Output sections 1.3</tspan></text></g><path id="shape38" transform="matrix(-1.00,0.10,-0.10,-1.00,263.9,156.0)" stroke-width="1" d="M.0,-0.0L84.6,-0.0" stroke-dasharray="11,5" stroke="#000000" fill="none"/><path id="shape39" transform="matrix(-1.00,0.06,-0.06,-1.00,264.5,249.6)" stroke-width="1" d="M.0,-0.0L85.0,.0" stroke-dasharray="11,5" stroke="#000000" fill="none"/><path id="shape40" transform="matrix(-1.00,0.08,-0.08,-1.00,263.9,288.0)" stroke-width="1" d="M.0,-0.0L84.8,-0.0" stroke-dasharray="11,5" stroke="#000000" fill="none"/><path id="shape41" transform="matrix(-1.00,-0.04,0.04,-1.00,263.9,353.9)" stroke-width="1" d="M.0,-0.0L84.3,-0.0" stroke-dasharray="11,5" stroke="#000000" fill="none"/><path id="shape42" transform="matrix(-1.00,-0.00,0.00,-1.00,453.5,287.5)" stroke-width="1" d="M.0,.0L73.5,-0.0" stroke-dasharray="11,5" stroke="#000000" fill="none"/><path id="shape43" transform="matrix(-0.99,0.13,-0.13,-0.99,453.5,343.5)" stroke-width="1" d="M.0,.0L74.1,.0" stroke-dasharray="11,5" stroke="#000000" fill="none"/><path id="shape44" transform="matrix(-0.97,0.24,-0.24,-0.97,453.5,136.5)" stroke-width="1" d="M.0,.0L77.5,.0" stroke-dasharray="11,5" stroke="#000000" fill="none"/><path id="shape45" transform="matrix(-0.97,0.24,-0.24,-0.97,453.5,174.0)" stroke-width="1" d="M.0,.0L75.7,-0.0" stroke-dasharray="11,5" stroke="#000000" fill="none"/><path id="shape46" transform="matrix(-1.00,-0.01,0.01,-1.00,453.5,193.5)" stroke-width="1" d="M.0,-0.0L73.5,.0" stroke-dasharray="11,5" stroke="#000000" fill="none"/><path id="shape47" transform="matrix(-1.00,-0.01,0.01,-1.00,453.5,211.5)" stroke-width="1" d="M.0,-0.0L73.5,-0.0" stroke-dasharray="11,5" stroke="#000000" fill="none"/><path id="shape48" transform="matrix(-0.96,-0.27,0.27,-0.96,453.5,231.5)" stroke-width="1" d="M.0,-0.0L76.1,-0.0" stroke-dasharray="11,5" stroke="#000000" fill="none"/><path id="shape49" transform="matrix(-0.97,-0.25,0.25,-0.97,453.5,268.5)" stroke-width="1" d="M.0,-0.0L75.9,-0.0" stroke-dasharray="11,5" stroke="#000000" fill="none"/></g></svg>