<svg xmlns="http://www.w3.org/2000/svg" width="244.88mm" height="99.39mm" viewBox="0 0 694.16 281.72"><defs><style>.cls-1,.cls-2{font-size:18px;}.cls-1,.cls-2,.cls-7{fill:#333e48;}.cls-1{font-family:CourierNewPSMT, Courier New;}.cls-2{font-family:Lato-Medium, Lato;font-weight:500;}.cls-3,.cls-8{fill:#00c1de;}.cls-4{fill:#ff6b00;}.cls-5,.cls-6{fill:none;}.cls-5,.cls-6,.cls-8{stroke:#333e48;stroke-miterlimit:10;}.cls-5{stroke-dasharray:5 3;}</style></defs><g id="Diagrams"><text class="cls-1" transform="translate(98.88 111.58)"><tspan xml:space="preserve">STR   X0, [0x1000]</tspan></text><text class="cls-1" transform="translate(291.99 74.41)">0x1000</text><text class="cls-1" transform="translate(452.7 74.41)">0x1004</text><text class="cls-1" transform="translate(98.88 168.28)"><tspan xml:space="preserve">STRB  W1, [0x1003]</tspan></text><text class="cls-1" transform="translate(98.88 224.97)"><tspan xml:space="preserve">LDRH  W2, [0x1002]</tspan></text><text class="cls-2" transform="translate(52.56 112.9)">1.</text><text class="cls-2" transform="translate(52.56 169.6)">2.</text><text class="cls-2" transform="translate(52.56 226.29)">3.</text><rect class="cls-3" x="325.65" y="97.44" width="159.45" height="28.35"/><rect class="cls-3" x="485.1" y="97.44" width="157.68" height="28.35" transform="translate(1127.88 223.23) rotate(180)"/><rect class="cls-4" x="453.21" y="154.13" width="33.66" height="28.35" transform="translate(940.08 336.61) rotate(180)"/><rect class="cls-4" x="453.21" y="210.83" width="33.66" height="28.35" transform="translate(940.08 450) rotate(180)"/><rect class="cls-3" x="419.55" y="210.83" width="33.66" height="28.35" transform="translate(872.76 450) rotate(180)"/><rect class="cls-5" x="325.65" y="154.13" width="317.13" height="28.35" transform="translate(968.43 336.61) rotate(180)"/><rect class="cls-5" x="325.65" y="210.83" width="317.13" height="28.35" transform="translate(968.43 450) rotate(180)"/><line class="cls-6" x1="436.38" y1="111.61" x2="436.38" y2="221.03"/><polygon class="cls-7" points="432.39 219.86 436.38 226.77 440.37 219.86 432.39 219.86"/><line class="cls-6" x1="470.04" y1="166.54" x2="470.04" y2="221.03"/><polygon class="cls-7" points="466.05 219.86 470.04 226.77 474.03 219.86 466.05 219.86"/><line class="cls-8" x1="485.1" y1="97.44" x2="485.1" y2="125.79"/></g></svg>